<svg width="32" height="32" viewBox="0 0 32 32" fill="none" xmlns="http://www.w3.org/2000/svg">
<path d="M7 19C4 19 3.41613 15.6309 3.41613 15.6309C3.14516 16.6325 3 17.6842 3 18.7693C3 25.5241 8.59643 31 15.5 31C21.1559 31 25.9344 27.3246 27.4769 22.2817C27.8172 21.1692 28 19.9901 28 18.7693C28 18.5368 27.9927 18.3061 27.9796 18.0769C27.9796 18.0769 26.5 20 25 19.5C25 19.5 27.6999 13.06 23.4545 7.51401C22.6999 9.24287 22 10 20 10C16 10 16 4 17.3081 1C5.32756 3.64076 7 19 7 19Z" fill="url(#paint0_linear_14244_96)"/>
<g opacity="0.9">
<path d="M13.1429 20.497C11.9612 20.497 11 19.4884 11 18.2485C11 17.0086 11.9612 16 13.1429 16C14.3245 16 15.2857 17.0086 15.2857 18.2485C15.2857 19.4884 14.3245 20.497 13.1429 20.497Z" fill="white"/>
<path d="M18.8571 24.994C17.6755 24.994 16.7143 23.9854 16.7143 22.7455C16.7143 21.5056 17.6755 20.497 18.8571 20.497C20.0388 20.497 21 21.5056 21 22.7455C21 23.9854 20.0388 24.994 18.8571 24.994Z" fill="white"/>
<path d="M12.5895 23.7821C12.343 24.1053 12.393 24.577 12.701 24.8356C13.009 25.0943 13.4585 25.042 13.705 24.7188L19.4222 17.2224C19.6687 16.8992 19.6187 16.4275 19.3107 16.1689C19.0027 15.9103 18.5532 15.9625 18.3067 16.2857L12.5895 23.7821Z" fill="white"/>
</g>
<defs>
<linearGradient id="paint0_linear_14244_96" x1="3" y1="1" x2="32.5082" y2="25.5902" gradientUnits="userSpaceOnUse">
<stop stop-color="#BF16AF"/>
<stop offset="1" stop-color="#FF9B8D"/>
</linearGradient>
</defs>
</svg>
