<svg width="32" height="33" viewBox="0 0 32 33" fill="none" xmlns="http://www.w3.org/2000/svg">
<path d="M32 16.3077C32 25.1442 24.8366 32.3077 16 32.3077C7.16344 32.3077 0 25.1442 0 16.3077C0 7.47114 7.16344 0.307693 16 0.307693C24.8366 0.307693 32 7.47114 32 16.3077Z" fill="#FF7900"/>
<path d="M19.3246 11.9718L7.48391 11.104C6.77545 11.0521 6.24026 11.7347 6.45975 12.4103L9.68625 22.3418C9.85876 22.8728 10.4326 23.1597 10.9609 22.979L20.6472 19.6662C21.4564 19.3895 22 18.6293 22 17.7741V15.0994C22 14.9272 21.9889 14.7375 21.977 14.5343C21.9179 13.5266 21.8393 12.1862 23 10.9953C23.3429 10.6435 24.1266 10.4048 24.9102 10.1661C25.9551 9.84779 27 9.52951 27 8.9432C27 8.06968 24.6 8.12243 23 8.94325C21.7639 9.57742 20.8461 10.6607 20.3389 11.436C20.115 11.7783 19.7325 12.0017 19.3246 11.9718Z" fill="white"/>
<path d="M16 24.8077C16 25.6361 15.3284 26.3077 14.5 26.3077C13.6716 26.3077 13 25.6361 13 24.8077C13 23.9793 13.6716 23.3077 14.5 23.3077C15.3284 23.3077 16 23.9793 16 24.8077Z" fill="white"/>
<path d="M21 21.3077C21.5523 21.3077 22 21.7554 22 22.3077C22 22.86 21.5523 23.3077 21 23.3077C20.4477 23.3077 20 22.86 20 22.3077C20 21.7554 20.4477 21.3077 21 21.3077Z" fill="white"/>
</svg>
