<svg width="32" height="33" viewBox="0 0 32 33" fill="none" xmlns="http://www.w3.org/2000/svg">
<path d="M32 16.3077C32 25.1442 24.8366 32.3077 16 32.3077C7.16344 32.3077 0 25.1442 0 16.3077C0 7.47114 7.16344 0.307693 16 0.307693C24.8366 0.307693 32 7.47114 32 16.3077Z" fill="#3E3F3C"/>
<path d="M24 16.3077C24 20.726 20.4183 24.3077 16 24.3077C11.5817 24.3077 8 20.726 8 16.3077C8 11.8894 11.5817 8.30769 16 8.30769C20.4183 8.30769 24 11.8894 24 16.3077Z" fill="white"/>
<path d="M20 16.3077C20 18.5168 18.2091 20.3077 16 20.3077C13.7909 20.3077 12 18.5168 12 16.3077C12 14.0986 13.7909 12.3077 16 12.3077C18.2091 12.3077 20 14.0986 20 16.3077Z" fill="#D76443"/>
</svg>
