<svg width="32" height="33" viewBox="0 0 32 33" fill="none" xmlns="http://www.w3.org/2000/svg">
<path d="M32 16.3077C32 25.1442 24.8366 32.3077 16 32.3077C7.16344 32.3077 0 25.1442 0 16.3077C0 7.47114 7.16344 0.307693 16 0.307693C24.8366 0.307693 32 7.47114 32 16.3077Z" fill="#575756"/>
<path fill-rule="evenodd" clip-rule="evenodd" d="M5.27061 20.497C5.99449 20.0941 6.90789 20.3544 7.31073 21.0783C9.063 24.227 12.313 26.3077 16 26.3077C19.6871 26.3077 22.9371 24.227 24.6893 21.0783C25.0922 20.3544 26.0056 20.0941 26.7294 20.497C27.4533 20.8998 27.7136 21.8132 27.3107 22.5371C25.0708 26.562 20.8591 29.3077 16 29.3077C11.1409 29.3077 6.92923 26.562 4.68932 22.5371C4.28648 21.8132 4.54673 20.8998 5.27061 20.497Z" fill="#63B441"/>
<path fill-rule="evenodd" clip-rule="evenodd" d="M14 9.30769H19.5C20.3284 9.30769 21 8.63612 21 7.80769C21 6.97927 20.3284 6.30769 19.5 6.30769H13.5C12.1193 6.30769 11 7.42698 11 8.80769V12.3077C11 13.6884 12.1193 14.8077 13.5 14.8077H16.75C17.9926 14.8077 19 15.8151 19 17.0577C19 18.3003 17.9926 19.3077 16.75 19.3077H15.8309C14.6015 19.3077 13.4622 18.6626 12.8297 17.6084L12.7862 17.5359C12.36 16.8256 11.4386 16.5952 10.7282 17.0215C10.0179 17.4477 9.78752 18.3691 10.2137 19.0794L10.2572 19.1519C11.4319 21.1098 13.5477 22.3077 15.8309 22.3077H16.75C19.6495 22.3077 22 19.9572 22 17.0577C22 14.1582 19.6495 11.8077 16.75 11.8077H14V9.30769Z" fill="white"/>
</svg>
