<svg width="32" height="33" viewBox="0 0 32 33" fill="none" xmlns="http://www.w3.org/2000/svg">
<path d="M32 16.3077C32 25.1442 24.8366 32.3077 16 32.3077C7.16344 32.3077 0 25.1442 0 16.3077C0 7.47114 7.16344 0.307693 16 0.307693C24.8366 0.307693 32 7.47114 32 16.3077Z" fill="#025AFC"/>
<path fill-rule="evenodd" clip-rule="evenodd" d="M8 30.1672V15.5077L13.5714 10.3077L21.4643 10.7804L23 13.3077L30.75 22.5181C28.3253 28.2701 22.6342 32.3077 16 32.3077C13.0857 32.3077 10.3534 31.5285 8 30.1672Z" fill="#F71255"/>
<path fill-rule="evenodd" clip-rule="evenodd" d="M22.1272 16.4845C23.1045 15.1962 23.1126 14.2583 22.9588 13.7637C22.805 13.269 22.2664 12.5012 20.7309 11.9942C19.2054 11.4906 17.0476 11.4095 14.7017 12.139C12.3557 12.8685 10.6245 14.159 9.65358 15.4389C8.6763 16.7272 8.66816 17.665 8.82198 18.1597C8.97581 18.6544 9.51436 19.4222 11.0499 19.9291C12.5754 20.4327 14.7332 20.5139 17.0791 19.7844C19.4251 19.0549 21.1563 17.7644 22.1272 16.4845ZM18.4153 24.0814C24.6923 22.1295 28.6503 16.9119 27.2558 12.4275C25.8613 7.94303 19.6424 5.89002 13.3654 7.84193C7.08848 9.79383 3.13046 15.0115 4.52495 19.4959C5.91944 23.9803 12.1384 26.0333 18.4153 24.0814Z" fill="white"/>
</svg>
