<svg width="32" height="32" viewBox="0 0 32 32" fill="none" xmlns="http://www.w3.org/2000/svg">
<circle cx="16" cy="16" r="16" fill="#E82E5C"/>
<path d="M18.3849 8.3852C18.3849 9.70251 17.317 10.7704 15.9997 10.7704C14.6824 10.7704 13.6145 9.70251 13.6145 8.3852C13.6145 7.06788 14.6824 5.99998 15.9997 5.99998C17.317 5.99998 18.3849 7.06788 18.3849 8.3852Z" fill="#A6CE38"/>
<path d="M14.5307 11.884C14.5307 13.2014 13.4628 14.2693 12.1455 14.2693C10.8282 14.2693 9.76025 13.2014 9.76025 11.884C9.76025 10.5667 10.8282 9.49882 12.1455 9.49882C13.4628 9.49882 14.5307 10.5667 14.5307 11.884Z" fill="white"/>
<path d="M8.38595 18.3852C9.70327 18.3852 10.7712 17.3173 10.7712 16C10.7712 14.6827 9.70327 13.6148 8.38595 13.6148C7.06863 13.6148 6.00073 14.6827 6.00073 16C6.00073 17.3173 7.06863 18.3852 8.38595 18.3852Z" fill="white"/>
<path d="M16 18.3852C17.3173 18.3852 18.3852 17.3173 18.3852 16C18.3852 14.6827 17.3173 13.6148 16 13.6148C14.6826 13.6148 13.6147 14.6827 13.6147 16C13.6147 17.3173 14.6826 18.3852 16 18.3852Z" fill="white"/>
<path d="M25.9999 16C25.9999 17.3173 24.932 18.3852 23.6147 18.3852C22.2974 18.3852 21.2295 17.3173 21.2295 16C21.2295 14.6827 22.2974 13.6148 23.6147 13.6148C24.932 13.6148 25.9999 14.6827 25.9999 16Z" fill="white"/>
<path d="M16 26C17.3173 26 18.3852 24.9321 18.3852 23.6148C18.3852 22.2975 17.3173 21.2296 16 21.2296C14.6826 21.2296 13.6147 22.2975 13.6147 23.6148C13.6147 24.9321 14.6826 26 16 26Z" fill="white"/>
<path d="M14.5309 19.7791C14.5309 21.0965 13.463 22.1644 12.1457 22.1644C10.8284 22.1644 9.7605 21.0965 9.7605 19.7791C9.7605 18.4618 10.8284 17.3939 12.1457 17.3939C13.463 17.3939 14.5309 18.4618 14.5309 19.7791Z" fill="white"/>
<path d="M19.9104 22.1644C21.2277 22.1644 22.2956 21.0965 22.2956 19.7791C22.2956 18.4618 21.2277 17.3939 19.9104 17.3939C18.593 17.3939 17.5251 18.4618 17.5251 19.7791C17.5251 21.0965 18.593 22.1644 19.9104 22.1644Z" fill="white"/>
<path d="M19.9106 14.2693C21.2279 14.2693 22.2958 13.2014 22.2958 11.884C22.2958 10.5667 21.2279 9.49882 19.9106 9.49882C18.5933 9.49882 17.5254 10.5667 17.5254 11.884C17.5254 13.2014 18.5933 14.2693 19.9106 14.2693Z" fill="white"/>
</svg>
