<svg width="32" height="33" viewBox="0 0 32 33" fill="none" xmlns="http://www.w3.org/2000/svg">
<path d="M32 16.3077C32 25.1442 24.8366 32.3077 16 32.3077C7.16344 32.3077 0 25.1442 0 16.3077C0 7.47114 7.16344 0.307693 16 0.307693C24.8366 0.307693 32 7.47114 32 16.3077Z" fill="#3F64AE"/>
<path d="M1.1631 10.3077C1.44323 9.61565 1.77038 8.94766 2.14058 8.30769H14.7368L13.4713 10.3077H1.1631Z" fill="white"/>
<path d="M0.0946715 14.5577C0.168685 13.8773 0.285354 13.2097 0.441948 12.5577H12.0477L10.7822 14.5577H0.0946715Z" fill="white"/>
<path d="M0.235497 19.0577C0.122223 18.4038 0.0486449 17.7363 0.017334 17.0577H9.20034L7.93486 19.0577H0.235497Z" fill="white"/>
<path d="M1.60853 23.3077C1.29487 22.664 1.02311 21.9962 0.796824 21.3077H6.5112L5.24572 23.3077H1.60853Z" fill="white"/>
<path fill-rule="evenodd" clip-rule="evenodd" d="M18.5001 8.30769H23.0001V23.3077H19.0001V21.8077H14.5001L13.5001 23.3077H9.00007L18.5001 8.30769ZM19.5001 13.3077V18.3077H16.5001L19.5001 13.3077Z" fill="white"/>
<path d="M27.2573 8.41849C27.7066 8.7367 28.0001 9.26206 28.0001 9.85627C28.0001 10.8272 27.2166 11.6143 26.2501 11.6143C25.2836 11.6143 24.5001 10.8272 24.5001 9.85627C24.5001 9.1867 24.8727 8.60456 25.421 8.30769L25.8009 9.07103C25.5252 9.23397 25.3401 9.53514 25.3401 9.87974C25.3401 10.3976 25.758 10.8173 26.2735 10.8173C26.7889 10.8173 27.2068 10.3976 27.2068 9.87974C27.2068 9.5961 27.0814 9.34187 26.8833 9.16994L27.2573 8.41849Z" fill="white"/>
<path fill-rule="evenodd" clip-rule="evenodd" d="M26.2501 12.0831C27.2166 12.0831 28.0001 12.8702 28.0001 13.8411C28.0001 14.6065 27.5131 15.2577 26.8334 15.499V15.8335H28.0001V16.7711H24.5001V15.8335H25.9001V15.5639C25.1013 15.401 24.5001 14.6916 24.5001 13.8411C24.5001 12.8702 25.2836 12.0831 26.2501 12.0831ZM26.2735 12.9082C26.7889 12.9082 27.2068 13.328 27.2068 13.8458C27.2068 14.3636 26.7889 14.7834 26.2735 14.7834C25.758 14.7834 25.3401 14.3636 25.3401 13.8458C25.3401 13.328 25.758 12.9082 26.2735 12.9082Z" fill="white"/>
<path d="M28.0001 20.5215V21.4591H25.4334V22.3967H28.0001V23.3343L24.5001 23.3343V20.5215H28.0001Z" fill="white"/>
<path d="M28.0001 19.3495V20.2871L24.5001 19.1151V18.1775L28.0001 17.2399V18.1775L26.0556 18.6984L28.0001 19.3495Z" fill="white"/>
</svg>
