<svg width="32" height="32" viewBox="0 0 32 32" fill="none" xmlns="http://www.w3.org/2000/svg">
<path d="M32 16C32 24.8366 24.8366 32 16 32C7.16344 32 0 24.8366 0 16C0 7.16344 7.16344 0 16 0C24.8366 0 32 7.16344 32 16Z" fill="#025AFC"/>
<path fill-rule="evenodd" clip-rule="evenodd" d="M8 29.8595V15.2L13.5714 10L21.4643 10.4727L23 13L30.75 22.2104C28.3253 27.9624 22.6342 32 16 32C13.0857 32 10.3534 31.2208 8 29.8595Z" fill="#F71255"/>
<path fill-rule="evenodd" clip-rule="evenodd" d="M22.1272 16.1768C23.1045 14.8885 23.1126 13.9507 22.9588 13.456C22.805 12.9613 22.2664 12.1935 20.7309 11.6865C19.2054 11.183 17.0476 11.1018 14.7017 11.8313C12.3557 12.5608 10.6245 13.8513 9.65358 15.1312C8.6763 16.4195 8.66816 17.3573 8.82198 17.852C8.97581 18.3467 9.51436 19.1145 11.0499 19.6214C12.5754 20.125 14.7332 20.2062 17.0791 19.4767C19.4251 18.7472 21.1563 17.4567 22.1272 16.1768ZM18.4153 23.7738C24.6923 21.8218 28.6503 16.6042 27.2558 12.1198C25.8613 7.63534 19.6424 5.58233 13.3654 7.53424C7.08848 9.48614 3.13046 14.7038 4.52495 19.1882C5.91944 23.6726 12.1384 25.7257 18.4153 23.7738Z" fill="white"/>
</svg>
