<svg width="32" height="32" viewBox="0 0 32 32" fill="none" xmlns="http://www.w3.org/2000/svg">
<g clip-path="url(#clip0_12506_101)">
<circle cx="16" cy="16" r="16" fill="#002A47"/>
<path d="M23.7662 20.706C23.2502 20.6627 22.7573 20.476 22.3447 20.1676C22.3004 20.1353 22.2488 20.1142 22.1944 20.1058C22.1399 20.0975 22.0842 20.1023 22.0321 20.1197C21.98 20.1372 21.9328 20.1668 21.8948 20.2061C21.8568 20.2453 21.8289 20.2931 21.8136 20.3452C21.465 21.4653 20.8717 22.4964 20.0755 23.3662C20.0424 23.4021 20.0176 23.4448 20.0028 23.4911C19.988 23.5374 19.9836 23.5864 19.9898 23.6345C19.996 23.6827 20.0127 23.729 20.0388 23.7702C20.0649 23.8115 20.0998 23.8466 20.1409 23.8733C21.1861 24.5442 22.3929 24.93 23.6386 24.9914C23.6851 24.9938 23.7316 24.9867 23.7753 24.9708C23.8191 24.9549 23.859 24.9303 23.8928 24.8987C23.9266 24.867 23.9535 24.829 23.9719 24.7868C23.9904 24.7446 23.9999 24.6992 24 24.6532V20.9574C24.0001 20.8942 23.9761 20.8333 23.9328 20.7868C23.8895 20.7402 23.83 20.7113 23.7662 20.706ZM21.209 5.31463C21.209 5.27329 21.2008 5.23235 21.1848 5.19415C21.1687 5.15595 21.1451 5.12125 21.1155 5.09203C21.0858 5.0628 21.0506 5.03963 21.0118 5.02384C20.9731 5.00805 20.9315 4.99995 20.8896 5H17.1816C17.097 5 17.0158 5.03315 16.956 5.09215C16.8961 5.15116 16.8625 5.23119 16.8625 5.31463V18.1229C16.8667 18.591 16.7385 19.0511 16.4921 19.4513C16.2458 19.8516 15.8912 20.1762 15.468 20.3888C13.3999 21.3961 11.3458 19.9282 11.3458 17.9962C11.3457 17.5312 11.4666 17.0739 11.697 16.668C11.9273 16.2622 12.2594 15.9214 12.6615 15.6782C13.0636 15.435 13.5222 15.2976 13.9935 15.279C14.4649 15.2604 14.9332 15.3613 15.3537 15.5721C15.4059 15.5995 15.4644 15.6131 15.5235 15.6118C15.5825 15.6103 15.6403 15.5939 15.6911 15.5641C15.7419 15.5342 15.7839 15.4919 15.8132 15.4413C15.8426 15.3907 15.8581 15.3335 15.8585 15.2752V11.5269C15.8584 11.4348 15.826 11.3455 15.7668 11.2742C15.7078 11.2028 15.6254 11.1538 15.5339 11.1354C14.5012 10.9266 13.4344 10.9468 12.4106 11.1948C11.3869 11.4427 10.432 11.9121 9.61501 12.5688C8.79806 13.2256 8.13958 14.0534 7.68729 14.9921C7.235 15.9308 7.00023 16.957 7 17.9962C7 22.6566 11.6411 26.2684 16.6061 24.5757C19.3846 23.6284 21.2087 20.9981 21.2087 18.1001L21.209 5.31463Z" fill="white"/>
</g>
<defs>
<clipPath id="clip0_12506_101">
<rect width="32" height="32" fill="white"/>
</clipPath>
</defs>
</svg>
