<svg width="32" height="33" viewBox="0 0 32 33" fill="none" xmlns="http://www.w3.org/2000/svg">
<circle cx="16" cy="16.3077" r="16" fill="#1928DC"/>
<path fill-rule="evenodd" clip-rule="evenodd" d="M10.8208 15.8141C10.5237 15.5412 10.3076 15.1917 10.1964 14.804C10.0335 14.2598 9.95608 13.6937 9.9668 13.1258C9.95629 12.5421 10.0337 11.9601 10.1964 11.3994C10.3056 10.9989 10.5214 10.6355 10.8208 10.3479C11.0826 10.1234 11.4161 10 11.7609 10C12.1058 10 12.4393 10.1234 12.701 10.3479C13.002 10.6329 13.2175 10.9963 13.3232 11.3971C13.4861 11.9585 13.5635 12.5413 13.5528 13.1258C13.5634 13.6944 13.486 14.2613 13.3232 14.8063C13.2148 15.1942 13.0001 15.544 12.7033 15.8164C12.4364 16.0316 12.1038 16.149 11.7609 16.149C11.418 16.149 11.0855 16.0316 10.8185 15.8164L10.8208 15.8141ZM11.0642 14.3081C11.103 14.5676 11.1986 14.8153 11.3443 15.0335C11.3901 15.1023 11.4518 15.159 11.5241 15.1989C11.5964 15.2388 11.6772 15.2609 11.7598 15.2631C12.0054 15.2631 12.1983 15.084 12.3406 14.7259C12.5053 14.2069 12.5768 13.6628 12.5518 13.1189C12.5581 12.7051 12.5259 12.2916 12.4554 11.8838C12.4184 11.6156 12.3236 11.3587 12.1776 11.1308C12.1366 11.0561 12.0763 10.9938 12.003 10.9504C11.9297 10.907 11.8461 10.8841 11.7609 10.8841C11.6757 10.8841 11.5921 10.907 11.5188 10.9504C11.4455 10.9938 11.3852 11.0561 11.3443 11.1308C11.2 11.359 11.1047 11.6146 11.0642 11.8815C10.9929 12.2885 10.9598 12.7012 10.9655 13.1143C10.9592 13.5145 10.9922 13.9143 11.0642 14.3081Z" fill="white"/>
<path d="M9.02977 10.0986V16.0492H8.03801V10.9549H6.35065V16.0492H5.35889V10.0986H9.02977Z" fill="white"/>
<path d="M16.8283 12.3805V10.0986H17.8201V16.0492H16.8283V13.2667H16.1052C15.862 13.2833 15.6182 13.2444 15.3923 13.153C15.1664 13.0615 14.9643 12.9198 14.8012 12.7387C14.4906 12.3244 14.3362 11.8139 14.365 11.297V10.0986H15.3567V11.3016C15.3488 11.5175 15.3807 11.7331 15.4509 11.9375C15.5036 12.0844 15.6092 12.2064 15.747 12.2795C15.9217 12.3564 16.112 12.391 16.3026 12.3805H16.8283Z" fill="white"/>
<path d="M22.17 10.9549H21.006V16.0492H20.0143V10.9549H18.8503V10.0986H22.17V10.9549Z" fill="white"/>
<path fill-rule="evenodd" clip-rule="evenodd" d="M24.962 10.0978H23.1714V16.0484H24.1631V13.2614H25.846L26.1674 16.0369H27.1591L26.7 12.063C26.6675 11.6981 26.5817 11.34 26.4452 11.0001C26.3336 10.7261 26.1424 10.4918 25.8964 10.3274C25.6147 10.16 25.2893 10.0801 24.962 10.0978ZM25.7519 12.4165H24.1677V10.9909H24.7623C24.9467 10.9803 25.1307 11.0166 25.2972 11.0965C25.4264 11.171 25.5248 11.289 25.575 11.4294C25.6466 11.638 25.6922 11.8547 25.7106 12.0745L25.7519 12.4165Z" fill="white"/>
<path fill-rule="evenodd" clip-rule="evenodd" d="M6.45166 17.2339C6.78232 17.2252 7.10869 17.3103 7.39291 17.4796C7.67158 17.6569 7.88882 17.9159 8.01506 18.2211C8.17633 18.61 8.25453 19.0284 8.24463 19.4493C8.25485 19.8475 8.18376 20.2435 8.03573 20.6132C7.92605 20.8973 7.74876 21.1502 7.51919 21.3502C7.36395 21.4964 7.16265 21.5841 6.94983 21.5981C6.83961 21.6058 6.72903 21.5893 6.62589 21.5496C6.52276 21.51 6.42958 21.4481 6.35294 21.3686V23.1845H5.35889V17.2339H6.45166ZM6.40804 20.3148C6.4325 20.4212 6.48298 20.5198 6.55497 20.6018C6.57842 20.6306 6.60775 20.6541 6.641 20.6708C6.67425 20.6874 6.71066 20.6967 6.74781 20.6982C6.83495 20.6934 6.91701 20.6556 6.97738 20.5926C7.0701 20.4962 7.13651 20.3776 7.17022 20.2482C7.226 20.0504 7.25154 19.8453 7.24599 19.6399C7.24599 19.0843 7.1794 18.6917 7.04166 18.4621C6.98527 18.3561 6.90038 18.2678 6.79654 18.2074C6.6927 18.1469 6.57405 18.1167 6.45396 18.1201H6.35294V19.8557C6.34988 20.0105 6.36843 20.1651 6.40804 20.3148Z" fill="white"/>
<path fill-rule="evenodd" clip-rule="evenodd" d="M8.71495 21.9341C8.82472 22.3232 9.04099 22.6738 9.3394 22.9465L9.34858 22.9488C9.61479 23.1657 9.94763 23.2841 10.291 23.2841C10.6343 23.2841 10.9672 23.1657 11.2334 22.9488C11.5306 22.6769 11.7454 22.3268 11.8532 21.9387C12.0125 21.3932 12.0861 20.8263 12.0713 20.2582C12.0819 19.6737 12.0045 19.091 11.8417 18.5295C11.7345 18.13 11.5193 17.7678 11.2196 17.4827C10.9578 17.2581 10.6244 17.1347 10.2795 17.1347C9.93464 17.1347 9.60116 17.2581 9.3394 17.4827C9.03926 17.7687 8.82329 18.1316 8.71495 18.5318C8.55225 19.0917 8.47486 19.6729 8.48538 20.2559C8.4745 20.8238 8.55195 21.39 8.71495 21.9341ZM9.86282 22.1499C9.72007 21.9371 9.6253 21.6959 9.58503 21.4428C9.51361 21.0513 9.48055 20.6538 9.48632 20.2559C9.48089 19.8428 9.51394 19.4301 9.58503 19.0231C9.62062 18.7496 9.71373 18.4867 9.85823 18.2517C9.89919 18.177 9.95949 18.1147 10.0328 18.0713C10.1061 18.0279 10.1897 18.005 10.2749 18.005C10.3601 18.005 10.4437 18.0279 10.517 18.0713C10.5903 18.1147 10.6506 18.177 10.6916 18.2517C10.8366 18.4785 10.9313 18.7337 10.9694 19.0001C11.0398 19.408 11.072 19.8214 11.0658 20.2353C11.0916 20.7794 11.0193 21.3237 10.8523 21.8423C10.7115 22.2004 10.5186 22.3795 10.2738 22.3795C10.192 22.3765 10.1121 22.3541 10.0406 22.3142C9.96917 22.2743 9.90823 22.218 9.86282 22.1499Z" fill="white"/>
<path d="M12.7492 18.5779C12.9913 18.1295 13.3723 17.7718 13.8351 17.5586C14.3769 17.3233 14.9643 17.2119 15.5546 17.2326V18.1256C14.8475 18.1256 14.308 18.3024 13.9338 18.6605C13.5596 19.0187 13.3714 19.549 13.3714 20.2675C13.3714 20.9861 13.5573 21.4613 13.9315 21.7965C14.3057 22.1317 14.8498 22.3016 15.5546 22.3016V23.1831C14.5399 23.1831 13.757 22.9382 13.2061 22.4485C12.6551 21.9587 12.3796 21.2279 12.3796 20.256C12.3578 19.6743 12.485 19.0966 12.7492 18.5779Z" fill="white"/>
<path d="M17.1751 17.56C16.7112 17.7724 16.3291 18.1303 16.0869 18.5793C15.8195 19.0973 15.6891 19.675 15.7081 20.2575C15.7081 21.2294 15.9836 21.9602 16.5346 22.4499C17.0855 22.9397 17.8684 23.1846 18.8831 23.1846V22.2915C18.1806 22.2915 17.6365 22.1217 17.2623 21.7865C16.8881 21.4513 16.7022 20.9646 16.7022 20.2575C16.7022 19.5504 16.8881 19.0109 17.2646 18.6528C17.6411 18.2947 18.1806 18.1179 18.8854 18.1179V17.2248C18.2975 17.2082 17.7132 17.3227 17.1751 17.56Z" fill="white"/>
<path d="M20.3434 17.234V19.3575L23.0203 17.1008V23.1845H22.0285V19.1348L20.3434 20.5559V23.1845H19.3494V17.234H20.3434Z" fill="white"/>
<path d="M24.4782 19.3561V17.2325H23.4863V23.1831H24.4736V20.5545L26.1586 19.1334V23.1831H27.1503V17.104L24.4782 19.3561Z" fill="white"/>
</svg>
