<svg width="32" height="33" viewBox="0 0 32 33" fill="none" xmlns="http://www.w3.org/2000/svg">
<g clip-path="url(#clip0_11850_6730)">
<circle cx="16" cy="16.3077" r="16" fill="#0091EA"/>
<circle cx="16" cy="16.3077" r="16" fill="url(#paint0_linear_11850_6730)"/>
<circle cx="16" cy="16.3077" r="16" fill="url(#paint1_linear_11850_6730)"/>
<path d="M24.9979 15.2354C25.023 14.2352 24.8189 13.2423 24.401 12.3319C23.9831 11.4214 23.2986 10.6172 22.5219 9.97979C21.039 8.82581 19.2423 8.13904 17.3629 8.00789C16.8402 7.47817 16.2181 7.05509 15.5318 6.76248C14.7297 6.46739 13.8785 6.28849 13.0234 6.30934C11.8235 6.30934 10.9713 6.80049 10.6577 7.21562C10.624 7.25288 10.5982 7.29648 10.5818 7.34384C10.5654 7.3912 10.5588 7.44134 10.5623 7.4913C10.5658 7.54126 10.5794 7.59 10.6023 7.63464C10.6251 7.67928 10.6568 7.7189 10.6954 7.75115C11.1757 8.06258 11.5801 8.52946 11.8453 9.03457V9.07193H11.8077C10.3292 9.85572 9.13388 10.9513 8.27952 12.383C7.42516 13.8148 6.98277 15.4518 7.00051 17.116C6.99009 18.3791 7.22575 19.6323 7.69451 20.8065C8.13876 21.9004 8.71869 22.8901 9.57012 23.7125C10.4306 24.5387 11.4521 25.1815 12.5719 25.6014C13.7743 26.0501 15.0488 26.3198 16.3333 26.3073C18.0056 26.3073 18.4576 25.6295 18.4895 25.5915C18.5214 25.5535 18.5597 25.3444 18.2917 25.3634C18.0238 25.3824 17.9855 25.3888 17.59 25.3381C17.1945 25.2874 15.6045 24.9264 15.555 23.083C15.5447 22.6987 15.6079 22.3573 15.7517 22.0003C15.8955 21.6434 16.1112 21.3194 16.3855 21.0482C16.4163 21.0194 16.4385 20.9828 16.4496 20.9424C16.4608 20.9019 16.4606 20.8592 16.4489 20.8189C16.4373 20.7786 16.4146 20.7422 16.3835 20.7138C16.3524 20.6855 16.3141 20.6661 16.2726 20.658C16.1157 20.6267 15.956 20.6114 15.796 20.6123C15.1711 20.6367 14.7475 20.8898 14.3111 21.3347C13.9028 21.751 13.6664 22.5256 13.6604 22.988C13.6544 23.4504 13.694 23.9198 14.0108 24.4366C13.4021 24.0022 12.863 22.6631 12.7163 21.2926C12.5696 19.9221 13.0883 18.5965 13.8199 17.8824C14.5626 17.1728 15.5259 16.7548 16.5566 16.7676C17.1534 16.7411 17.7436 16.8294 18.2914 17.0661C18.8392 17.3028 19.3635 17.6606 19.7507 18.1123C20.3187 18.8183 20.711 19.6881 20.8382 20.5828C20.9218 21.1474 21.043 21.6995 21.482 21.6995C21.5872 21.6918 21.6896 21.6627 21.7831 21.6142C21.8766 21.5656 21.9591 21.4986 22.0255 21.4172C22.1962 21.2147 22.3248 20.9805 22.4037 20.7282C22.4826 20.4759 22.5104 20.2106 22.4853 19.9476C22.4853 19.8937 22.4853 19.8356 22.4853 19.765V19.7359H22.5104C23.0266 19.4416 23.4854 19.0325 23.865 18.5773C24.6274 17.6307 25.0286 16.4471 24.9979 15.2354ZM22.4686 17.4315C22.3096 17.6209 22.1286 17.8162 21.9293 17.9633L21.8875 17.9924L21.8624 17.9508C21.5598 17.4568 21.1291 16.9793 20.7075 16.5805C19.5825 15.5412 18.1009 14.9667 16.5644 14.9739C15.8129 14.9604 15.0663 15.0973 14.3692 15.3763C13.672 15.6553 13.0385 16.0708 12.5064 16.598C11.9744 17.1252 11.6439 17.7533 11.3613 18.4449C11.0788 19.1366 10.9394 19.8776 10.9513 20.6239C10.97 21.7971 11.0608 22.0803 11.3443 22.891C11.2188 22.7831 8.79256 21.073 8.78985 17.116C8.78141 15.6389 9.21821 14.1931 10.0441 12.9646C10.8493 11.7831 11.9605 10.8622 13.2878 10.316C13.594 10.1918 13.9066 10.0838 14.2243 9.99224C13.9803 9.24935 13.5701 8.57094 13.0245 8.00789C13.7245 7.8979 14.3779 8.00368 15.0156 8.31099C15.6532 8.6183 16.2317 9.1377 16.5778 9.75189L16.9374 9.7768C18.5642 9.82581 20.0841 10.3519 21.3806 11.329C21.9556 11.7994 22.4776 12.395 22.7835 13.0695C23.0894 13.7441 23.2349 14.4795 23.2086 15.2188C23.2367 16.0206 22.9741 16.8057 22.4686 17.4315Z" fill="white"/>
</g>
<defs>
<linearGradient id="paint0_linear_11850_6730" x1="16" y1="0.307693" x2="16" y2="32.3077" gradientUnits="userSpaceOnUse">
<stop stop-color="#015CFB"/>
<stop offset="1" stop-color="#094BBD"/>
</linearGradient>
<linearGradient id="paint1_linear_11850_6730" x1="16" y1="0.307693" x2="16" y2="32.3077" gradientUnits="userSpaceOnUse">
<stop stop-color="#DD2969"/>
<stop offset="1" stop-color="#9A00D0"/>
</linearGradient>
<clipPath id="clip0_11850_6730">
<rect width="32" height="32" fill="white" transform="translate(0 0.307693)"/>
</clipPath>
</defs>
</svg>
