<svg width="32" height="33" viewBox="0 0 32 33" fill="none" xmlns="http://www.w3.org/2000/svg">
<circle cx="16" cy="16.3077" r="16" fill="#E11836"/>
<path d="M7.77032 21.6597C10.3686 23.1556 12.9562 24.6728 15.5542 26.1686C15.8463 26.3801 16.2256 26.3345 16.5122 26.1386C19.1024 24.6322 21.6981 23.132 24.2894 21.6286C24.5916 21.4765 24.7838 21.1676 24.7451 20.8301C24.7392 17.9615 24.7617 15.0918 24.7344 12.2243C22.8964 13.1723 21.1551 14.2995 19.3264 15.2627C18.676 15.2171 18.2672 14.5791 18.517 13.9751C20.3977 12.799 22.3921 11.7952 24.2787 10.6274C21.6579 9.22605 19.043 7.8142 16.42 6.41936C15.8648 6.08224 15.3236 6.59498 14.837 6.81732C12.5054 8.12597 10.0196 9.28543 7.78139 10.6814C10.6601 12.3242 13.5373 13.9722 16.4189 15.6122C16.6085 15.7175 16.8457 15.8512 16.7974 16.1043C16.7823 18.5894 16.8358 21.0778 16.7709 23.56C16.4156 24.1032 15.6682 24.1046 15.2505 23.6216C15.1749 21.3479 15.2616 19.0688 15.2111 16.7934C12.6305 15.17 9.90969 13.7198 7.25789 12.1917C7.2483 15.0723 7.25789 17.9532 7.25384 20.8337C7.21694 21.1944 7.45047 21.5101 7.77032 21.6597Z" fill="white"/>
</svg>
