<svg width="32" height="33" viewBox="0 0 32 33" fill="none" xmlns="http://www.w3.org/2000/svg">
<path d="M32 16.3077C32 25.1442 24.8366 32.3077 16 32.3077C7.16344 32.3077 0 25.1442 0 16.3077C0 7.47114 7.16344 0.307693 16 0.307693C24.8366 0.307693 32 7.47114 32 16.3077Z" fill="#319738"/>
<path d="M15.5382 4.9876L12.0676 6.97592L21.8108 12.9189L21.8242 25.0123L25.2951 23.0238L25.2815 10.9305L15.5382 4.9876Z" fill="white"/>
<path d="M8.60465 8.82576L5.13379 10.8142L14.8772 16.757L14.8906 28.8504L18.3614 26.862L18.348 14.7686L8.60465 8.82576Z" fill="white"/>
<path d="M8.36508 16.604L8.36956 20.6351L11.8448 22.6778L11.8403 18.6467L8.36508 16.604Z" fill="white"/>
</svg>
