<svg width="32" height="32" viewBox="0 0 32 32" fill="none" xmlns="http://www.w3.org/2000/svg">
<path d="M32 16C32 24.8366 24.8366 32 16 32C7.16344 32 0 24.8366 0 16C0 7.16344 7.16344 0 16 0C24.8366 0 32 7.16344 32 16Z" fill="#575756"/>
<path fill-rule="evenodd" clip-rule="evenodd" d="M5.27061 20.1893C5.99449 19.7864 6.90789 20.0467 7.31073 20.7706C9.063 23.9193 12.313 26 16 26C19.6871 26 22.9371 23.9193 24.6893 20.7706C25.0922 20.0467 26.0056 19.7864 26.7294 20.1893C27.4533 20.5921 27.7136 21.5055 27.3107 22.2294C25.0708 26.2543 20.8591 29 16 29C11.1409 29 6.92923 26.2543 4.68932 22.2294C4.28648 21.5055 4.54673 20.5921 5.27061 20.1893Z" fill="#63B441"/>
<path fill-rule="evenodd" clip-rule="evenodd" d="M14 9H19.5C20.3284 9 21 8.32843 21 7.5C21 6.67157 20.3284 6 19.5 6H13.5C12.1193 6 11 7.11929 11 8.5V12C11 13.3807 12.1193 14.5 13.5 14.5H16.75C17.9926 14.5 19 15.5074 19 16.75C19 17.9926 17.9926 19 16.75 19H15.8309C14.6015 19 13.4622 18.355 12.8297 17.3007L12.7862 17.2283C12.36 16.5179 11.4386 16.2875 10.7282 16.7138C10.0179 17.14 9.78752 18.0614 10.2137 18.7717L10.2572 18.8442C11.4319 20.8021 13.5477 22 15.8309 22H16.75C19.6495 22 22 19.6495 22 16.75C22 13.8505 19.6495 11.5 16.75 11.5H14V9Z" fill="white"/>
</svg>
