<svg width="32" height="33" viewBox="0 0 32 33" fill="none" xmlns="http://www.w3.org/2000/svg">
<circle cx="16" cy="16.3077" r="16" fill="#E82E5C"/>
<path d="M18.3849 8.69289C18.3849 10.0102 17.317 11.0781 15.9997 11.0781C14.6824 11.0781 13.6145 10.0102 13.6145 8.69289C13.6145 7.37557 14.6824 6.30767 15.9997 6.30767C17.317 6.30767 18.3849 7.37557 18.3849 8.69289Z" fill="#A6CE38"/>
<path d="M14.5307 12.1917C14.5307 13.5091 13.4628 14.5769 12.1455 14.5769C10.8282 14.5769 9.76025 13.5091 9.76025 12.1917C9.76025 10.8744 10.8282 9.80652 12.1455 9.80652C13.4628 9.80652 14.5307 10.8744 14.5307 12.1917Z" fill="white"/>
<path d="M8.38595 18.6929C9.70327 18.6929 10.7712 17.625 10.7712 16.3077C10.7712 14.9904 9.70327 13.9225 8.38595 13.9225C7.06863 13.9225 6.00073 14.9904 6.00073 16.3077C6.00073 17.625 7.06863 18.6929 8.38595 18.6929Z" fill="white"/>
<path d="M16 18.6929C17.3173 18.6929 18.3852 17.625 18.3852 16.3077C18.3852 14.9904 17.3173 13.9225 16 13.9225C14.6826 13.9225 13.6147 14.9904 13.6147 16.3077C13.6147 17.625 14.6826 18.6929 16 18.6929Z" fill="white"/>
<path d="M25.9999 16.3077C25.9999 17.625 24.932 18.6929 23.6147 18.6929C22.2974 18.6929 21.2295 17.625 21.2295 16.3077C21.2295 14.9904 22.2974 13.9225 23.6147 13.9225C24.932 13.9225 25.9999 14.9904 25.9999 16.3077Z" fill="white"/>
<path d="M16 26.3077C17.3173 26.3077 18.3852 25.2398 18.3852 23.9225C18.3852 22.6052 17.3173 21.5373 16 21.5373C14.6826 21.5373 13.6147 22.6052 13.6147 23.9225C13.6147 25.2398 14.6826 26.3077 16 26.3077Z" fill="white"/>
<path d="M14.5309 20.0868C14.5309 21.4042 13.463 22.4721 12.1457 22.4721C10.8284 22.4721 9.7605 21.4042 9.7605 20.0868C9.7605 18.7695 10.8284 17.7016 12.1457 17.7016C13.463 17.7016 14.5309 18.7695 14.5309 20.0868Z" fill="white"/>
<path d="M19.9104 22.4721C21.2277 22.4721 22.2956 21.4042 22.2956 20.0868C22.2956 18.7695 21.2277 17.7016 19.9104 17.7016C18.593 17.7016 17.5251 18.7695 17.5251 20.0868C17.5251 21.4042 18.593 22.4721 19.9104 22.4721Z" fill="white"/>
<path d="M19.9106 14.5769C21.2279 14.5769 22.2958 13.5091 22.2958 12.1917C22.2958 10.8744 21.2279 9.80652 19.9106 9.80652C18.5933 9.80652 17.5254 10.8744 17.5254 12.1917C17.5254 13.5091 18.5933 14.5769 19.9106 14.5769Z" fill="white"/>
</svg>
