<svg width="32" height="32" viewBox="0 0 32 32" fill="none" xmlns="http://www.w3.org/2000/svg">
<path d="M32 16C32 24.8366 24.8366 32 16 32C7.16344 32 0 24.8366 0 16C0 7.16344 7.16344 0 16 0C24.8366 0 32 7.16344 32 16Z" fill="#319738"/>
<path d="M15.5382 4.6799L12.0676 6.66822L21.8108 12.6112L21.8242 24.7046L25.2951 22.7161L25.2815 10.6228L15.5382 4.6799Z" fill="white"/>
<path d="M8.60465 8.51807L5.13379 10.5065L14.8772 16.4493L14.8906 28.5427L18.3614 26.5543L18.348 14.4609L8.60465 8.51807Z" fill="white"/>
<path d="M8.36508 16.2963L8.36956 20.3274L11.8448 22.3701L11.8403 18.339L8.36508 16.2963Z" fill="white"/>
</svg>
