<svg width="32" height="32" viewBox="0 0 32 32" fill="none" xmlns="http://www.w3.org/2000/svg">
<g clip-path="url(#clip0_11850_6726)">
<circle cx="16" cy="16" r="16" fill="#0091EA"/>
<circle cx="16" cy="16" r="16" fill="url(#paint0_linear_11850_6726)"/>
<path d="M24.9979 14.9277C25.023 13.9275 24.8189 12.9347 24.401 12.0242C23.9831 11.1137 23.2986 10.3095 22.5219 9.6721C21.039 8.51812 19.2423 7.83134 17.3629 7.7002C16.8402 7.17047 16.2181 6.74739 15.5318 6.45479C14.7297 6.15969 13.8785 5.9808 13.0234 6.00164C11.8235 6.00164 10.9713 6.49279 10.6577 6.90793C10.624 6.94518 10.5982 6.98879 10.5818 7.03615C10.5654 7.0835 10.5588 7.13365 10.5623 7.18361C10.5658 7.23356 10.5794 7.28231 10.6023 7.32695C10.6251 7.37159 10.6568 7.41121 10.6954 7.44346C11.1757 7.75488 11.5801 8.22177 11.8453 8.72687V8.76423H11.8077C10.3292 9.54802 9.13388 10.6436 8.27952 12.0753C7.42516 13.5071 6.98277 15.1442 7.00051 16.8083C6.99009 18.0714 7.22575 19.3246 7.69451 20.4989C8.13876 21.5927 8.71869 22.5824 9.57012 23.4048C10.4306 24.231 11.4521 24.8738 12.5719 25.2937C13.7743 25.7424 15.0488 26.0121 16.3333 25.9996C18.0056 25.9996 18.4576 25.3218 18.4895 25.2838C18.5214 25.2458 18.5597 25.0367 18.2917 25.0557C18.0238 25.0748 17.9855 25.0811 17.59 25.0304C17.1945 24.9797 15.6045 24.6187 15.555 22.7753C15.5447 22.3911 15.6079 22.0496 15.7517 21.6926C15.8955 21.3357 16.1112 21.0117 16.3855 20.7405C16.4163 20.7117 16.4385 20.6751 16.4496 20.6347C16.4608 20.5942 16.4606 20.5515 16.4489 20.5112C16.4373 20.4709 16.4146 20.4345 16.3835 20.4061C16.3524 20.3778 16.3141 20.3584 16.2726 20.3503C16.1157 20.319 15.956 20.3037 15.796 20.3046C15.1711 20.329 14.7475 20.5821 14.3111 21.027C13.9028 21.4433 13.6664 22.2179 13.6604 22.6803C13.6544 23.1427 13.694 23.6121 14.0108 24.1289C13.4021 23.6945 12.863 22.3554 12.7163 20.9849C12.5696 19.6144 13.0883 18.2888 13.8199 17.5747C14.5626 16.8651 15.5259 16.4472 16.5566 16.4599C17.1534 16.4334 17.7436 16.5217 18.2914 16.7584C18.8392 16.9951 19.3635 17.353 19.7507 17.8046C20.3187 18.5106 20.711 19.3804 20.8382 20.2751C20.9218 20.8397 21.043 21.3918 21.482 21.3918C21.5872 21.3841 21.6896 21.355 21.7831 21.3065C21.8766 21.2579 21.9591 21.1909 22.0255 21.1095C22.1962 20.907 22.3248 20.6728 22.4037 20.4205C22.4826 20.1682 22.5104 19.9029 22.4853 19.64C22.4853 19.586 22.4853 19.5279 22.4853 19.4573V19.4282H22.5104C23.0266 19.134 23.4854 18.7248 23.865 18.2696C24.6274 17.323 25.0286 16.1394 24.9979 14.9277ZM22.4686 17.1238C22.3096 17.3132 22.1286 17.5085 21.9293 17.6556L21.8875 17.6847L21.8624 17.6431C21.5598 17.1491 21.1291 16.6716 20.7075 16.2728C19.5825 15.2335 18.1009 14.659 16.5644 14.6662C15.8129 14.6527 15.0663 14.7896 14.3692 15.0686C13.672 15.3476 13.0385 15.7631 12.5064 16.2903C11.9744 16.8175 11.6439 17.4456 11.3613 18.1372C11.0788 18.8289 10.9394 19.5699 10.9513 20.3162C10.97 21.4894 11.0608 21.7726 11.3443 22.5833C11.2188 22.4754 8.79256 20.7653 8.78985 16.8083C8.78141 15.3312 9.21821 13.8855 10.0441 12.6569C10.8493 11.4754 11.9605 10.5545 13.2878 10.0084C13.594 9.88415 13.9066 9.77607 14.2243 9.68455C13.9803 8.94165 13.5701 8.26325 13.0245 7.7002C13.7245 7.5902 14.3779 7.69599 15.0156 8.0033C15.6532 8.31061 16.2317 8.83 16.5778 9.4442L16.9374 9.46911C18.5642 9.51811 20.0841 10.0442 21.3806 11.0213C21.9556 11.4917 22.4776 12.0873 22.7835 12.7618C23.0894 13.4364 23.2349 14.1718 23.2086 14.9111C23.2367 15.7129 22.9741 16.498 22.4686 17.1238Z" fill="white"/>
</g>
<defs>
<linearGradient id="paint0_linear_11850_6726" x1="16" y1="0" x2="16" y2="32" gradientUnits="userSpaceOnUse">
<stop stop-color="#015CFB"/>
<stop offset="1" stop-color="#094BBD"/>
</linearGradient>
<clipPath id="clip0_11850_6726">
<rect width="32" height="32" fill="white"/>
</clipPath>
</defs>
</svg>
