<svg width="32" height="32" viewBox="0 0 32 32" fill="none" xmlns="http://www.w3.org/2000/svg">
<g clip-path="url(#clip0_1648_22)">
<path d="M31.9966 16C31.9966 24.8366 24.8339 32 15.9983 32C7.16267 32 0 24.8366 0 16C0 7.16344 7.16267 0 15.9983 0C24.8339 0 31.9966 7.16344 31.9966 16Z" fill="#00B33C"/>
<path fill-rule="evenodd" clip-rule="evenodd" d="M7.14343 17.9931H5.96768C4.13352 17.9931 5.46604 14.3842 7.01018 14.3842H8.86787C9.16571 14.3842 9.69088 14.4351 9.94955 13.7525L10.3493 12.6923H7.80184C6.42232 12.6923 5.34845 13.1425 4.57247 13.8977C3.23212 15.1902 2.7775 17.2089 3.09887 18.1747C3.40456 19.0678 4.23542 19.656 5.53657 19.6705L6.54772 19.6778H7.794L8.09971 18.8282C8.32701 18.2255 7.81753 17.9931 7.14343 17.9931ZM21.4562 16.4973L21.8402 15.3427H17.7408C17.0589 15.3427 16.7532 15.517 16.6356 15.8801L16.2515 17.0346H20.351C21.0329 17.0346 21.3386 16.8604 21.4562 16.4973ZM15.6402 18.5305L15.2561 19.685H19.3555C20.0296 19.685 20.3431 19.5108 20.4607 19.1477L20.8448 17.9931H16.7454C16.0713 17.9931 15.7656 18.1674 15.6402 18.5305ZM22.4124 13.8541L22.7966 12.6996H18.6971C18.0152 12.6996 17.7095 12.8738 17.5919 13.2369L17.2078 14.3915H21.3073C21.9814 14.3915 22.287 14.2172 22.4124 13.8541ZM16.2202 14.0865C16.0477 13.0118 15.4285 12.6996 13.9236 12.6996H11.1802L9.58115 17.0346H10.5923C11.1958 17.0346 11.5015 17.0419 11.8229 16.2431L12.4892 14.3842H13.5081C14.3782 14.3842 14.1822 15.3936 13.7433 16.3738C13.3514 17.2379 12.6694 18.0004 11.8464 18.0004H10.1455C9.46357 18.0004 9.15004 18.1747 9.02462 18.5378L8.60135 19.6923H9.84765L11.0704 19.685C12.1521 19.6778 13.0378 19.6052 14.0725 18.7411C15.1699 17.8189 16.4397 15.4516 16.2202 14.0865ZM30 12.6923H27.625L25.391 14.8925C25.1323 15.1467 24.8658 15.4008 24.6071 15.6985H24.5836L25.6966 12.6923H23.7607L21.1505 19.685H23.0866L23.9173 17.4848L24.7795 16.8095L25.4616 18.7992C25.6731 19.4164 25.8927 19.685 26.363 19.685H27.8445L26.3237 15.7784L30 12.6923Z" fill="white"/>
</g>
<defs>
<clipPath id="clip0_1648_22">
<rect width="32" height="32" fill="white"/>
</clipPath>
</defs>
</svg>
