<svg width="32" height="33" viewBox="0 0 32 33" fill="none" xmlns="http://www.w3.org/2000/svg">
<path d="M16 32.3077C24.8366 32.3077 32 25.1443 32 16.3077C32 7.47114 24.8366 0.307693 16 0.307693C7.16344 0.307693 0 7.47114 0 16.3077C0 25.1443 7.16344 32.3077 16 32.3077Z" fill="#FC3F1D"/>
<path d="M18.3179 26.3077V9.01495H16.6776C13.671 9.01495 12.096 10.4425 12.096 12.5734C12.096 14.991 13.1823 16.1112 15.4295 17.5387L17.2815 18.7238L12 26.3047H8L12.7901 19.5366C10.0356 17.6687 8.48555 15.8452 8.48555 12.7685C8.48555 8.92333 11.3086 6.30769 16.6527 6.30769H21.9751L22 26.3077H18.3179Z" fill="white"/>
</svg>
