<svg width="32" height="32" viewBox="0 0 32 32" fill="none" xmlns="http://www.w3.org/2000/svg">
<circle cx="16" cy="16" r="16" fill="#1928DC"/>
<path fill-rule="evenodd" clip-rule="evenodd" d="M10.8208 15.5064C10.5237 15.2335 10.3076 14.884 10.1964 14.4963C10.0335 13.9521 9.95608 13.386 9.9668 12.8181C9.95629 12.2344 10.0337 11.6524 10.1964 11.0917C10.3056 10.6912 10.5214 10.3278 10.8208 10.0402C11.0826 9.81573 11.4161 9.69231 11.7609 9.69231C12.1058 9.69231 12.4393 9.81573 12.701 10.0402C13.002 10.3252 13.2175 10.6886 13.3232 11.0894C13.4861 11.6508 13.5635 12.2336 13.5528 12.8181C13.5634 13.3867 13.486 13.9536 13.3232 14.4986C13.2148 14.8865 13.0001 15.2364 12.7033 15.5087C12.4364 15.7239 12.1038 15.8413 11.7609 15.8413C11.418 15.8413 11.0855 15.7239 10.8185 15.5087L10.8208 15.5064ZM11.0642 14.0004C11.103 14.2599 11.1986 14.5076 11.3443 14.7258C11.3901 14.7946 11.4518 14.8513 11.5241 14.8912C11.5964 14.9311 11.6772 14.9532 11.7598 14.9554C12.0054 14.9554 12.1983 14.7764 12.3406 14.4182C12.5053 13.8992 12.5768 13.3551 12.5518 12.8112C12.5581 12.3974 12.5259 11.9839 12.4554 11.5761C12.4184 11.308 12.3236 11.051 12.1776 10.8231C12.1366 10.7484 12.0763 10.6861 12.003 10.6427C11.9297 10.5993 11.8461 10.5764 11.7609 10.5764C11.6757 10.5764 11.5921 10.5993 11.5188 10.6427C11.4455 10.6861 11.3852 10.7484 11.3443 10.8231C11.2 11.0513 11.1047 11.3069 11.0642 11.5738C10.9929 11.9808 10.9598 12.3935 10.9655 12.8066C10.9592 13.2068 10.9922 13.6067 11.0642 14.0004Z" fill="white"/>
<path d="M9.02977 9.79089V15.7415H8.03801V10.6472H6.35065V15.7415H5.35889V9.79089H9.02977Z" fill="white"/>
<path d="M16.8283 12.0729V9.79089H17.8201V15.7415H16.8283V12.959H16.1052C15.862 12.9756 15.6182 12.9368 15.3923 12.8453C15.1664 12.7538 14.9643 12.6121 14.8012 12.431C14.4906 12.0167 14.3362 11.5062 14.365 10.9893V9.79089H15.3567V10.9939C15.3488 11.2098 15.3807 11.4254 15.4509 11.6298C15.5036 11.7767 15.6092 11.8987 15.747 11.9718C15.9217 12.0487 16.112 12.0833 16.3026 12.0729H16.8283Z" fill="white"/>
<path d="M22.17 10.6472H21.006V15.7415H20.0143V10.6472H18.8503V9.79089H22.17V10.6472Z" fill="white"/>
<path fill-rule="evenodd" clip-rule="evenodd" d="M24.962 9.79014H23.1714V15.7407H24.1631V12.9537H25.846L26.1674 15.7292H27.1591L26.7 11.7553C26.6675 11.3904 26.5817 11.0323 26.4452 10.6924C26.3336 10.4184 26.1424 10.1841 25.8964 10.0197C25.6147 9.85236 25.2893 9.77246 24.962 9.79014ZM25.7519 12.1088H24.1677V10.6832H24.7623C24.9467 10.6726 25.1307 10.709 25.2972 10.7888C25.4264 10.8633 25.5248 10.9813 25.575 11.1217C25.6466 11.3303 25.6922 11.547 25.7106 11.7668L25.7519 12.1088Z" fill="white"/>
<path fill-rule="evenodd" clip-rule="evenodd" d="M6.45166 16.9262C6.78232 16.9175 7.10869 17.0027 7.39291 17.1719C7.67158 17.3492 7.88882 17.6082 8.01506 17.9134C8.17633 18.3023 8.25453 18.7207 8.24463 19.1416C8.25485 19.5398 8.18376 19.9358 8.03573 20.3056C7.92605 20.5896 7.74876 20.8425 7.51919 21.0425C7.36395 21.1887 7.16265 21.2764 6.94983 21.2904C6.83961 21.2982 6.72903 21.2816 6.62589 21.2419C6.52276 21.2023 6.42958 21.1405 6.35294 21.0609V22.8768H5.35889V16.9262H6.45166ZM6.40804 20.0071C6.4325 20.1135 6.48298 20.2121 6.55497 20.2941C6.57842 20.3229 6.60775 20.3464 6.641 20.3631C6.67425 20.3797 6.71066 20.3891 6.74781 20.3905C6.83495 20.3857 6.91701 20.3479 6.97738 20.2849C7.0701 20.1885 7.13651 20.0699 7.17022 19.9405C7.226 19.7427 7.25154 19.5376 7.24599 19.3322C7.24599 18.7766 7.1794 18.384 7.04166 18.1545C6.98527 18.0484 6.90038 17.9601 6.79654 17.8997C6.6927 17.8393 6.57405 17.809 6.45396 17.8124H6.35294V19.548C6.34988 19.7028 6.36843 19.8574 6.40804 20.0071Z" fill="white"/>
<path fill-rule="evenodd" clip-rule="evenodd" d="M8.71495 21.6264C8.82472 22.0155 9.04099 22.3661 9.3394 22.6388L9.34858 22.6411C9.61479 22.858 9.94763 22.9764 10.291 22.9764C10.6343 22.9764 10.9672 22.858 11.2334 22.6411C11.5306 22.3692 11.7454 22.0192 11.8532 21.631C12.0125 21.0855 12.0861 20.5186 12.0713 19.9505C12.0819 19.366 12.0045 18.7833 11.8417 18.2218C11.7345 17.8223 11.5193 17.4601 11.2196 17.175C10.9578 16.9504 10.6244 16.827 10.2795 16.827C9.93464 16.827 9.60116 16.9504 9.3394 17.175C9.03926 17.461 8.82329 17.8239 8.71495 18.2241C8.55225 18.784 8.47486 19.3653 8.48538 19.9482C8.4745 20.5161 8.55195 21.0823 8.71495 21.6264ZM9.86282 21.8422C9.72007 21.6294 9.6253 21.3882 9.58503 21.1351C9.51361 20.7436 9.48055 20.3461 9.48632 19.9482C9.48089 19.5351 9.51394 19.1224 9.58503 18.7154C9.62062 18.4419 9.71373 18.179 9.85823 17.944C9.89919 17.8694 9.95949 17.807 10.0328 17.7636C10.1061 17.7202 10.1897 17.6973 10.2749 17.6973C10.3601 17.6973 10.4437 17.7202 10.517 17.7636C10.5903 17.807 10.6506 17.8694 10.6916 17.944C10.8366 18.1708 10.9313 18.426 10.9694 18.6924C11.0398 19.1003 11.072 19.5138 11.0658 19.9276C11.0916 20.4717 11.0193 21.0161 10.8523 21.5346C10.7115 21.8927 10.5186 22.0718 10.2738 22.0718C10.192 22.0688 10.1121 22.0464 10.0406 22.0065C9.96917 21.9666 9.90823 21.9103 9.86282 21.8422Z" fill="white"/>
<path d="M12.7492 18.2702C12.9913 17.8218 13.3723 17.4641 13.8351 17.2509C14.3769 17.0156 14.9643 16.9043 15.5546 16.9249V17.8179C14.8475 17.8179 14.308 17.9947 13.9338 18.3528C13.5596 18.711 13.3714 19.2413 13.3714 19.9598C13.3714 20.6784 13.5573 21.1536 13.9315 21.4888C14.3057 21.824 14.8498 21.9939 15.5546 21.9939V22.8754C14.5399 22.8754 13.757 22.6306 13.2061 22.1408C12.6551 21.651 12.3796 20.9202 12.3796 19.9484C12.3578 19.3666 12.485 18.7889 12.7492 18.2702Z" fill="white"/>
<path d="M17.1751 17.2523C16.7112 17.4647 16.3291 17.8226 16.0869 18.2716C15.8195 18.7896 15.6891 19.3673 15.7081 19.9498C15.7081 20.9217 15.9836 21.6525 16.5346 22.1422C17.0855 22.632 17.8684 22.8769 18.8831 22.8769V21.9839C18.1806 21.9839 17.6365 21.814 17.2623 21.4788C16.8881 21.1436 16.7022 20.6569 16.7022 19.9498C16.7022 19.2427 16.8881 18.7032 17.2646 18.3451C17.6411 17.987 18.1806 17.8102 18.8854 17.8102V16.9171C18.2975 16.9005 17.7132 17.015 17.1751 17.2523Z" fill="white"/>
<path d="M20.3434 16.9263V19.0498L23.0203 16.7931V22.8768H22.0285V18.8271L20.3434 20.2482V22.8768H19.3494V16.9263H20.3434Z" fill="white"/>
<path d="M24.4782 19.0484V16.9248H23.4863V22.8754H24.4736V20.2468L26.1586 18.8257V22.8754H27.1503V16.7963L24.4782 19.0484Z" fill="white"/>
</svg>
