<svg width="32" height="33" viewBox="0 0 32 33" fill="none" xmlns="http://www.w3.org/2000/svg">
<path d="M32 16.3077C32 25.1442 24.8366 32.3077 16 32.3077C7.16344 32.3077 0 25.1442 0 16.3077C0 7.47114 7.16344 0.307693 16 0.307693C24.8366 0.307693 32 7.47114 32 16.3077Z" fill="black"/>
<path d="M17.4855 19.7703L9.81667 16.5139L8.18797 19.2829L16.8143 20.9111L17.4855 19.7703ZM16.4188 23H18.9696L21.2094 19.1892L23.4492 23H26L21.2094 14.8535L16.4188 23ZM7.80876 19.9283L6 23H15.584L16.4351 21.5539L7.80876 19.9283ZM20.792 14.1492L15.9986 6L14.1899 9.07703L19.9408 15.5953L20.792 14.1492ZM19.5616 16.2434L13.8107 9.72511L12.1847 12.4915L18.8932 17.3815L19.5616 16.2434ZM18.5276 17.9975L11.8191 13.1101L10.1795 15.8952L17.8483 19.1544L18.5276 17.9975Z" fill="#F9AE00"/>
</svg>
