<svg width="32" height="32" viewBox="0 0 32 32" fill="none" xmlns="http://www.w3.org/2000/svg">
<path d="M32 16C32 24.8366 24.8366 32 16 32C7.16344 32 0 24.8366 0 16C0 7.16344 7.16344 0 16 0C24.8366 0 32 7.16344 32 16Z" fill="#3F64AE"/>
<path d="M1.1631 10C1.44323 9.30795 1.77038 8.63997 2.14058 8H14.7368L13.4713 10H1.1631Z" fill="white"/>
<path d="M0.0946715 14.25C0.168685 13.5696 0.285354 12.902 0.441948 12.25H12.0477L10.7822 14.25H0.0946715Z" fill="white"/>
<path d="M0.235497 18.75C0.122223 18.0961 0.0486449 17.4286 0.017334 16.75H9.20034L7.93486 18.75H0.235497Z" fill="white"/>
<path d="M1.60853 23C1.29487 22.3563 1.02311 21.6885 0.796824 21H6.5112L5.24572 23H1.60853Z" fill="white"/>
<path fill-rule="evenodd" clip-rule="evenodd" d="M18.5001 8H23.0001V23H19.0001V21.5H14.5001L13.5001 23H9.00007L18.5001 8ZM19.5001 13V18H16.5001L19.5001 13Z" fill="white"/>
<path d="M27.2573 8.1108C27.7066 8.42901 28.0001 8.95437 28.0001 9.54858C28.0001 10.5195 27.2166 11.3066 26.2501 11.3066C25.2836 11.3066 24.5001 10.5195 24.5001 9.54858C24.5001 8.87901 24.8727 8.29686 25.421 8L25.8009 8.76333C25.5252 8.92628 25.3401 9.22745 25.3401 9.57204C25.3401 10.0899 25.758 10.5096 26.2735 10.5096C26.7889 10.5096 27.2068 10.0899 27.2068 9.57204C27.2068 9.2884 27.0814 9.03418 26.8833 8.86225L27.2573 8.1108Z" fill="white"/>
<path fill-rule="evenodd" clip-rule="evenodd" d="M26.2501 11.7754C27.2166 11.7754 28.0001 12.5625 28.0001 13.5334C28.0001 14.2988 27.5131 14.95 26.8334 15.1913V15.5258H28.0001V16.4634H24.5001V15.5258H25.9001V15.2562C25.1013 15.0933 24.5001 14.3839 24.5001 13.5334C24.5001 12.5625 25.2836 11.7754 26.2501 11.7754ZM26.2735 12.6005C26.7889 12.6005 27.2068 13.0203 27.2068 13.5381C27.2068 14.0559 26.7889 14.4757 26.2735 14.4757C25.758 14.4757 25.3401 14.0559 25.3401 13.5381C25.3401 13.0203 25.758 12.6005 26.2735 12.6005Z" fill="white"/>
<path d="M28.0001 20.2138V21.1514H25.4334V22.089H28.0001V23.0266L24.5001 23.0266V20.2138H28.0001Z" fill="white"/>
<path d="M28.0001 19.0418V19.9794L24.5001 18.8074V17.8698L28.0001 16.9322V17.8698L26.0556 18.3907L28.0001 19.0418Z" fill="white"/>
</svg>
