<svg width="32" height="32" viewBox="0 0 32 32" fill="none" xmlns="http://www.w3.org/2000/svg">
<path d="M32 16C32 24.8366 24.8366 32 16 32C7.16344 32 0 24.8366 0 16C0 7.16344 7.16344 0 16 0C24.8366 0 32 7.16344 32 16Z" fill="#FF7900"/>
<path d="M19.3246 11.6641L7.48391 10.7963C6.77545 10.7444 6.24026 11.427 6.45975 12.1026L9.68625 22.0341C9.85876 22.5651 10.4326 22.852 10.9609 22.6714L20.6472 19.3585C21.4564 19.0818 22 18.3216 22 17.4664V14.7917C22 14.6195 21.9889 14.4298 21.977 14.2266C21.9179 13.2189 21.8393 11.8785 23 10.6876C23.3429 10.3358 24.1266 10.0971 24.9102 9.85838C25.9551 9.5401 27 9.22181 27 8.63551C27 7.76199 24.6 7.81473 23 8.63556C21.7639 9.26972 20.8461 10.353 20.3389 11.1283C20.115 11.4706 19.7325 11.694 19.3246 11.6641Z" fill="white"/>
<path d="M16 24.5C16 25.3284 15.3284 26 14.5 26C13.6716 26 13 25.3284 13 24.5C13 23.6716 13.6716 23 14.5 23C15.3284 23 16 23.6716 16 24.5Z" fill="white"/>
<path d="M21 21C21.5523 21 22 21.4477 22 22C22 22.5523 21.5523 23 21 23C20.4477 23 20 22.5523 20 22C20 21.4477 20.4477 21 21 21Z" fill="white"/>
</svg>
