<svg width="32" height="32" viewBox="0 0 32 32" fill="none" xmlns="http://www.w3.org/2000/svg">
<path d="M32 16C32 24.8366 24.8366 32 16 32C7.16344 32 0 24.8366 0 16C0 7.16344 7.16344 0 16 0C24.8366 0 32 7.16344 32 16Z" fill="#3E3F3C"/>
<path d="M24 16C24 20.4183 20.4183 24 16 24C11.5817 24 8 20.4183 8 16C8 11.5817 11.5817 8 16 8C20.4183 8 24 11.5817 24 16Z" fill="white"/>
<path d="M20 16C20 18.2091 18.2091 20 16 20C13.7909 20 12 18.2091 12 16C12 13.7909 13.7909 12 16 12C18.2091 12 20 13.7909 20 16Z" fill="#D76443"/>
</svg>
