<svg width="32" height="33" viewBox="0 0 32 33" fill="none" xmlns="http://www.w3.org/2000/svg">
<g clip-path="url(#clip0_1648_22)">
<path d="M31.9966 16.3077C31.9966 25.1442 24.8339 32.3077 15.9983 32.3077C7.16267 32.3077 0 25.1442 0 16.3077C0 7.47114 7.16267 0.307693 15.9983 0.307693C24.8339 0.307693 31.9966 7.47114 31.9966 16.3077Z" fill="#00B33C"/>
<path fill-rule="evenodd" clip-rule="evenodd" d="M7.14343 18.3008H5.96768C4.13352 18.3008 5.46604 14.6919 7.01018 14.6919H8.86787C9.16571 14.6919 9.69088 14.7427 9.94955 14.0602L10.3493 13H7.80184C6.42232 13 5.34845 13.4502 4.57247 14.2054C3.23212 15.4979 2.7775 17.5166 3.09887 18.4824C3.40456 19.3755 4.23542 19.9637 5.53657 19.9782L6.54772 19.9855H7.794L8.09971 19.1359C8.32701 18.5332 7.81753 18.3008 7.14343 18.3008ZM21.4562 16.805L21.8402 15.6504H17.7408C17.0589 15.6504 16.7532 15.8247 16.6356 16.1878L16.2515 17.3423H20.351C21.0329 17.3423 21.3386 17.1681 21.4562 16.805ZM15.6402 18.8382L15.2561 19.9927H19.3555C20.0296 19.9927 20.3431 19.8185 20.4607 19.4554L20.8448 18.3008H16.7454C16.0713 18.3008 15.7656 18.4751 15.6402 18.8382ZM22.4124 14.1618L22.7966 13.0073H18.6971C18.0152 13.0073 17.7095 13.1815 17.5919 13.5446L17.2078 14.6992H21.3073C21.9814 14.6992 22.287 14.5249 22.4124 14.1618ZM16.2202 14.3942C16.0477 13.3195 15.4285 13.0073 13.9236 13.0073H11.1802L9.58115 17.3423H10.5923C11.1958 17.3423 11.5015 17.3496 11.8229 16.5508L12.4892 14.6919H13.5081C14.3782 14.6919 14.1822 15.7013 13.7433 16.6815C13.3514 17.5456 12.6694 18.3081 11.8464 18.3081H10.1455C9.46357 18.3081 9.15004 18.4824 9.02462 18.8454L8.60135 20H9.84765L11.0704 19.9927C12.1521 19.9855 13.0378 19.9129 14.0725 19.0488C15.1699 18.1266 16.4397 15.7593 16.2202 14.3942ZM30 13H27.625L25.391 15.2002C25.1323 15.4544 24.8658 15.7085 24.6071 16.0062H24.5836L25.6966 13H23.7607L21.1505 19.9927H23.0866L23.9173 17.7925L24.7795 17.1172L25.4616 19.1069C25.6731 19.7241 25.8927 19.9927 26.363 19.9927H27.8445L26.3237 16.0861L30 13Z" fill="white"/>
</g>
<defs>
<clipPath id="clip0_1648_22">
<rect width="32" height="32" fill="white" transform="translate(0 0.307693)"/>
</clipPath>
</defs>
</svg>
