<svg width="32" height="32" viewBox="0 0 32 32" fill="none" xmlns="http://www.w3.org/2000/svg">
<path d="M32 16C32 24.8366 24.8366 32 16 32C7.16344 32 0 24.8366 0 16C0 7.16344 7.16344 0 16 0C24.8366 0 32 7.16344 32 16Z" fill="black"/>
<path d="M17.4855 19.4626L9.81667 16.2062L8.18797 18.9752L16.8143 20.6035L17.4855 19.4626ZM16.4188 22.6923H18.9696L21.2094 18.8815L23.4492 22.6923H26L21.2094 14.5458L16.4188 22.6923ZM7.80876 19.6206L6 22.6923H15.584L16.4351 21.2462L7.80876 19.6206ZM20.792 13.8415L15.9986 5.69231L14.1899 8.76934L19.9408 15.2876L20.792 13.8415ZM19.5616 15.9357L13.8107 9.41742L12.1847 12.1838L18.8932 17.0738L19.5616 15.9357ZM18.5276 17.6898L11.8191 12.8024L10.1795 15.5876L17.8483 18.8467L18.5276 17.6898Z" fill="#F9AE00"/>
</svg>
