<svg width="32" height="32" viewBox="0 0 32 32" fill="none" xmlns="http://www.w3.org/2000/svg">
<circle cx="16" cy="16" r="16" fill="#E11836"/>
<path d="M7.77032 21.352C10.3686 22.8479 12.9562 24.3651 15.5542 25.861C15.8463 26.0724 16.2256 26.0268 16.5122 25.8309C19.1024 24.3245 21.6981 22.8243 24.2894 21.3209C24.5916 21.1688 24.7838 20.8599 24.7451 20.5224C24.7392 17.6538 24.7617 14.7841 24.7344 11.9166C22.8964 12.8646 21.1551 13.9918 19.3264 14.955C18.676 14.9094 18.2672 14.2714 18.517 13.6674C20.3977 12.4913 22.3921 11.4875 24.2787 10.3197C21.6579 8.91836 19.043 7.5065 16.42 6.11167C15.8648 5.77455 15.3236 6.28729 14.837 6.50962C12.5054 7.81828 10.0196 8.97774 7.78139 10.3737C10.6601 12.0165 13.5373 13.6645 16.4189 15.3045C16.6085 15.4098 16.8457 15.5435 16.7974 15.7966C16.7823 18.2817 16.8358 20.7701 16.7709 23.2523C16.4156 23.7955 15.6682 23.7969 15.2505 23.3139C15.1749 21.0402 15.2616 18.7611 15.2111 16.4857C12.6305 14.8623 9.90969 13.4121 7.25789 11.884C7.2483 14.7646 7.25789 17.6455 7.25384 20.526C7.21694 20.8867 7.45047 21.2025 7.77032 21.352Z" fill="white"/>
</svg>
