<svg width="24" height="24" viewBox="0 0 24 24" fill="none" xmlns="http://www.w3.org/2000/svg">
<path d="M3 22C3 22 -0.344267 9.47527 5.20623 3.7647C7.86539 1.44363 9.76993 0.998325 12.5698 1C15.6207 1.00184 19.0118 2.92571 19.0118 6.30272C19.0118 8.56848 17.8232 10.615 15.5282 10.9073C18.1565 10.978 21 13.1885 21 16C21 18.5117 19.7932 20.4401 17.4965 21.4165L17.4939 21.4142C12 23.5 8 20 8.69515 15.9144C11.5772 17.8479 14.2353 17.7273 17.1488 16.9022C17.2418 16.8813 17.2886 16.8572 17.2501 16.7677C15.8394 16.0724 15.3208 15.1531 14.8429 14.3061C14.2249 13.2105 13.675 12.2358 11.3514 12.0227C10.9207 11.9832 11.1963 11.7539 11.5598 11.4514C12.2872 10.8462 12.4577 10.2908 12.3742 9.33508C12.2997 8.48157 12.1993 7.33197 13.013 5.39025C13.042 5.25697 12.9893 5.24222 12.8682 5.26488C10.2634 6.44322 6.70743 8.00423 6.70743 12.9964C3.99147 14.6325 3 19.0942 3 22Z" fill="#212121"/>
</svg>
