<svg width="24" height="24" viewBox="0 0 24 24" fill="none" xmlns="http://www.w3.org/2000/svg">
<path fill-rule="evenodd" clip-rule="evenodd" d="M16.0658 11.9267C16.0378 9.82061 14.3085 8.13739 12.2024 8.1654C12.1681 8.1654 12.1337 8.1663 12.0994 8.16811H12.0181C9.59671 8.16811 8.25049 10.0745 8.25049 12.2429C8.10051 14.274 9.62472 16.0412 11.6549 16.1912C11.7732 16.1993 11.8907 16.2029 12.0091 16.2002C14.1892 16.2608 16.0052 14.5432 16.0658 12.3631V12.3604V11.9267ZM12.0361 6.03574C13.6398 6.052 15.1731 6.70162 16.3006 7.84274C16.3006 7.34401 16.7054 6.93924 17.2041 6.93924H17.3306C17.8492 6.96815 18.2495 7.40544 18.2341 7.92405V16.2995C18.1899 16.5959 18.3941 16.8714 18.6895 16.9157C18.8521 16.9401 19.0175 16.8895 19.1376 16.7784C20.4838 15.396 22.0921 9.67685 18.3064 6.361C15.2941 3.72006 10.9031 3.37854 7.51861 5.52074C4.444 7.74697 3.31914 11.8046 4.80811 15.2966C6.61511 19.4889 11.8193 20.7176 14.9002 19.4889C16.4633 18.8564 17.1861 20.9706 15.5598 21.6573C13.1113 22.7053 6.28081 22.5608 3.09146 17.0765C0.378243 12.2744 2.01448 6.18481 6.7687 3.38848C11.1697 0.782783 16.7786 1.50558 20.3754 5.14127C23.9894 8.93598 23.7997 16.0375 20.2489 18.8022C19.1638 19.6334 17.6098 19.4274 16.7786 18.3414C16.4804 17.9529 16.3052 17.484 16.2735 16.9952V16.3989C15.1532 17.5219 13.6317 18.1535 12.0451 18.1517C8.75821 18.0668 6.11276 15.4213 6.02783 12.1344C6.09831 8.83027 8.74195 6.15861 12.0451 6.05381L12.0361 6.03574Z" fill="#212121"/>
</svg>
