<svg width="24" height="24" viewBox="0 0 24 24" fill="none" xmlns="http://www.w3.org/2000/svg">
<mask id="mask0" mask-type="alpha" maskUnits="userSpaceOnUse" x="1" y="1" width="22" height="22">
<path fill-rule="evenodd" clip-rule="evenodd" d="M1.78223 1.83289H23V22.1671H1.78223V1.83289Z" fill="white"/>
</mask>
<g mask="url(#mask0)">
<path fill-rule="evenodd" clip-rule="evenodd" d="M16.0658 11.9266C16.0378 9.82055 14.3085 8.13733 12.2024 8.16534C12.1681 8.16534 12.1337 8.16624 12.0994 8.16805H12.0181C9.59671 8.16805 8.25049 10.0744 8.25049 12.2428C8.10051 14.2739 9.62472 16.0412 11.6549 16.1911C11.7732 16.1993 11.8907 16.2029 12.0091 16.2002C14.1892 16.2607 16.0052 14.5432 16.0658 12.363V12.3603V11.9266ZM12.0361 6.03568C13.6398 6.05194 15.1731 6.70156 16.3006 7.84268C16.3006 7.34395 16.7054 6.93918 17.2041 6.93918H17.3306C17.8492 6.96809 18.2495 7.40538 18.2341 7.92399V16.2994C18.1899 16.5958 18.3941 16.8714 18.6895 16.9156C18.8521 16.94 19.0175 16.8894 19.1376 16.7783C20.4838 15.3959 22.0921 9.67678 18.3064 6.36094C15.2941 3.72 10.9031 3.37848 7.51861 5.52068C4.444 7.74691 3.31914 11.8045 4.80811 15.2966C6.61511 19.4888 11.8193 20.7176 14.9002 19.4888C16.4633 18.8564 17.1861 20.9705 15.5598 21.6572C13.1113 22.7053 6.28081 22.5607 3.09146 17.0765C0.378243 12.2743 2.01448 6.18475 6.7687 3.38842C11.1697 0.782722 16.7786 1.50552 20.3754 5.14121C23.9894 8.93591 23.7997 16.0374 20.2489 18.8021C19.1638 19.6334 17.6098 19.4274 16.7786 18.3414C16.4804 17.9529 16.3052 17.4839 16.2735 16.9951V16.3988C15.1532 17.5219 13.6317 18.1534 12.0451 18.1516C8.75821 18.0667 6.11276 15.4212 6.02783 12.1343C6.09831 8.8302 8.74195 6.15855 12.0451 6.05375L12.0361 6.03568Z" fill="#212121"/>
</g>
</svg>
