<svg width="24" height="24" viewBox="0 0 24 24" fill="none" xmlns="http://www.w3.org/2000/svg">
<path fill-rule="evenodd" clip-rule="evenodd" d="M3.51409 3.51464C1.44543 5.58329 2.05104 8.13845 2.37086 9.06923C2.39836 9.14925 2.39439 9.21081 2.38478 9.24448C1.42022 12.6205 2.26637 16.4091 4.9283 19.071C7.59024 21.7329 11.3788 22.5791 14.7548 21.6145C14.7885 21.6049 14.85 21.6009 14.9301 21.6284C15.8608 21.9482 18.416 22.5539 20.4846 20.4852C22.5533 18.4165 21.9477 15.8614 21.6279 14.9306C21.6004 14.8506 21.6043 14.789 21.614 14.7554C22.5785 11.3793 21.7324 7.59079 19.0704 4.92885C16.4085 2.26692 12.62 1.42077 9.24393 2.38532C9.21026 2.39494 9.1487 2.39891 9.06868 2.37141C8.1379 2.05159 5.58274 1.44598 3.51409 3.51464ZM12 6C9.9073 6 8.5373 6.55998 7.75728 7.435C7.03343 8.24702 7 9.14015 7 9.5C7 10.1185 7.2663 10.9868 8.05414 11.7163C8.88107 12.482 10.1802 13 12 13C13.1802 13 13.7561 13.3153 14.0541 13.5913C14.3913 13.9035 14.5 14.2851 14.5 14.5C14.5 14.7149 14.3913 15.0965 14.0541 15.4087C13.7561 15.6847 13.1802 16 12 16C10.8198 16 10.2439 15.6847 9.94586 15.4087C9.6087 15.0965 9.5 14.7149 9.5 14.5C9.5 13.9477 8.94036 13.5 8.25 13.5C7.55964 13.5 7 13.9477 7 14.5C7 15.1185 7.2663 15.9868 8.05414 16.7163C8.88107 17.482 10.1802 18 12 18C13.8198 18 15.1189 17.482 15.9459 16.7163C16.7337 15.9868 17 15.1185 17 14.5C17 13.8815 16.7337 13.0132 15.9459 12.2837C15.1189 11.518 13.8198 11 12 11C10.8198 11 10.2439 10.6847 9.94586 10.4087C9.6087 10.0965 9.5 9.71486 9.5 9.5C9.5 9.23485 9.54157 8.87798 9.79272 8.59625C9.9877 8.37752 10.4927 8 12 8C13.1277 8 13.7106 8.33587 14.0348 8.65102C14.212 8.82333 14.3328 9.01113 14.4082 9.18071C14.4456 9.26484 14.4696 9.33975 14.4839 9.39969C14.4909 9.42944 14.4951 9.45373 14.4975 9.47199C14.4987 9.48102 14.4993 9.48803 14.4997 9.493C14.5 9.49801 14.5 9.50031 14.5 9.5C14.5 10.0523 15.0596 10.5 15.75 10.5C16.4404 10.5 17 10.0523 17 9.5C17 8.95946 16.7148 8.10898 15.9652 7.38023C15.1644 6.60163 13.8723 6 12 6Z" fill="#212121"/>
</svg>
