<svg width="24" height="24" viewBox="0 0 24 24" fill="none" xmlns="http://www.w3.org/2000/svg">
<path d="M20.6776 4.13938L2.75172 10.9588C1.77736 11.2477 1.80234 12.2147 2.52687 12.4533L7.01146 13.8599L8.73533 19.1597C8.94769 19.7374 9.11009 19.9635 9.47236 19.9635C9.84711 19.9635 9.98452 19.8253 10.3843 19.4862C10.834 19.0592 11.5335 18.3811 12.6328 17.301L17.3048 20.7672C18.1667 21.2445 18.7788 20.9933 19.0037 19.9635L21.9267 5.39526C22.239 4.13938 21.502 3.76262 20.6776 4.13938ZM7.72349 13.5459L17.9293 7.10326C18.429 6.76417 18.5914 7.14094 18.3666 7.40467L9.89707 15.0655L9.45986 18.896L7.72349 13.5459Z" fill="#212121"/>
</svg>
