<svg width="24" height="24" viewBox="0 0 24 24" fill="none" xmlns="http://www.w3.org/2000/svg">
<path fill-rule="evenodd" clip-rule="evenodd" d="M15.913 3C16.2019 5.41238 17.5888 6.85062 20 7.00363V9.71692C18.6026 9.84952 17.3787 9.40581 15.955 8.56938V13.644C15.955 17.6784 13.8188 19.9998 10.285 19.9998C7.51004 20.0222 4.98353 17.8985 5.00008 14.9854C5.01734 11.9468 6.55959 9.24206 11.0801 9.0845V11.7954C10.5953 11.7954 10.2898 11.7989 9.84326 11.9468C8.50894 12.3854 7.59718 13.5369 7.80731 14.9854C7.99655 16.2834 9.13106 17.1704 10.285 17.1841C11.6102 17.1841 12.9354 16.4202 12.9354 13.7361V3.0051H15.913V3Z" fill="#212121"/>
</svg>
