<svg width="24" height="24" viewBox="0 0 24 24" fill="none" xmlns="http://www.w3.org/2000/svg">
<path d="M19.0072 3.85271C18.2775 3.22129 17.4094 2.84242 16.491 2.60248C14.1636 1.99631 11.811 1.84477 9.43327 2.16048C8.22552 2.32465 7.05551 2.64038 5.98615 3.24655C4.72808 3.95375 3.86001 4.97666 3.48259 6.39106C3.20581 7.40134 3.08001 8.42426 3.02969 9.47243C2.9542 11.0131 3.00452 12.5412 3.39453 14.0314C3.84743 15.7615 4.82873 17.0496 6.52712 17.7315C6.71583 17.8073 6.87938 17.9083 7.06809 17.9841C7.23164 18.0599 7.29454 18.1735 7.28196 18.3503C7.26938 19.5501 7.28196 20.7498 7.28196 22C7.72229 21.5706 8.03681 21.2549 8.25068 21.0023C8.91746 20.2446 9.54649 19.6132 10.2384 18.906C10.5907 18.5398 10.4397 18.565 10.9933 18.565C11.6349 18.5776 12.6413 18.6029 13.283 18.5524C14.5033 18.4514 15.711 18.2998 16.881 17.9462C18.3781 17.4916 19.5733 16.696 20.1772 15.1806C20.3407 14.7765 20.4917 14.3723 20.5924 13.9556C21.1711 11.5435 21.0956 9.13147 20.6049 6.71941C20.3785 5.6081 19.9004 4.61043 19.0072 3.85271ZM11.5971 5.305C11.6097 5.07769 11.7481 4.98929 11.962 4.98929C13.8114 5.07769 15.2078 5.63334 16.2772 7.08563C16.9062 7.93174 17.2459 9.08096 17.2836 10.1418C17.2836 10.3059 17.2962 10.4575 17.2836 10.6216C17.271 10.7984 17.1956 10.9373 16.9943 10.9373C16.793 10.9373 16.6923 10.8363 16.6798 10.6216C16.6294 9.83866 16.4785 9.06832 16.1765 8.33586C15.5978 6.92146 14.4907 6.16375 13.0565 5.79752C12.6791 5.69649 12.3017 5.62073 11.9117 5.58284C11.7481 5.58284 11.5846 5.54494 11.5971 5.305ZM13.4717 7.2877C13.0943 7.16141 12.7168 7.04775 12.3142 6.99724C12.1255 6.97198 11.9872 6.87094 12.0249 6.64363C12.0626 6.42894 12.201 6.35318 12.4023 6.36581C13.6981 6.49209 14.7046 6.95935 15.3965 8.08329C15.7236 8.61369 15.9123 9.35878 15.8872 9.91444C15.862 10.3059 15.8117 10.407 15.5852 10.407C15.2581 10.3943 15.3085 10.1291 15.2833 9.92706C15.2456 9.62397 15.1826 9.3209 15.0946 9.01781C14.843 8.15907 14.302 7.57816 13.4717 7.2877ZM14.5536 9.47243C14.541 9.58609 14.541 9.66186 14.5285 9.72501C14.4907 9.86392 14.4026 9.95232 14.2517 9.96495C14.0881 9.96495 14.0126 9.87655 13.9623 9.73763C13.9372 9.6366 13.9246 9.53558 13.912 9.44718C13.8114 8.92941 13.5094 8.57581 12.9936 8.4369C12.9307 8.42427 12.8678 8.41163 12.8049 8.399C12.6413 8.34849 12.4401 8.3485 12.4275 8.10856C12.4275 7.9065 12.5784 7.79283 12.8426 7.7802C13.0313 7.76757 13.3081 7.85598 13.4843 7.94438C14.1636 8.26009 14.4781 8.72735 14.5536 9.47243ZM17.2836 14.9785C16.9188 15.7994 16.3149 16.3298 15.4468 16.5823C15.1323 16.6707 14.8304 16.595 14.5536 16.4687C10.6284 14.7891 7.79777 12.036 6.20002 8.04541C6.0868 7.75496 6.01131 7.45186 6.02389 7.18666C6.02389 6.16375 6.9297 5.20398 7.911 5.15346C8.18777 5.14084 8.41423 5.22923 8.61552 5.41866C9.30746 6.07535 9.86101 6.82044 10.2762 7.67918C10.5026 8.14644 10.402 8.47479 10.012 8.80313C9.94907 8.85364 9.87359 8.90415 9.81069 8.95467C9.2823 9.34615 9.16907 9.73764 9.42068 10.3438C9.83585 11.3415 10.5026 12.1244 11.421 12.7053C11.7607 12.92 12.113 13.1347 12.503 13.2484C12.8678 13.3494 13.1572 13.2358 13.3836 12.9579C13.4088 12.92 13.4339 12.8948 13.4591 12.8569C13.9623 12.1497 14.5033 12.036 15.233 12.4907C15.862 12.8822 16.4533 13.3242 17.0194 13.804C17.3843 14.145 17.4849 14.5239 17.2836 14.9785Z" fill="black"/>
</svg>
