<svg width="24" height="24" viewBox="0 0 24 24" fill="none" xmlns="http://www.w3.org/2000/svg">
<path d="M19.0072 4.85271C18.2775 4.22129 17.4094 3.84242 16.491 3.60248C14.1636 2.99631 11.811 2.84477 9.43327 3.16048C8.22552 3.32465 7.05551 3.64038 5.98615 4.24655C4.72808 4.95375 3.86001 5.97666 3.48259 7.39106C3.20581 8.40134 3.08001 9.42426 3.02969 10.4724C2.9542 12.0131 3.00452 13.5412 3.39453 15.0314C3.84743 16.7615 4.82873 18.0496 6.52712 18.7315C6.71583 18.8073 6.87938 18.9083 7.06809 18.9841C7.23164 19.0599 7.29454 19.1735 7.28196 19.3503C7.26938 20.5501 7.28196 21.7498 7.28196 23C7.72229 22.5706 8.03681 22.2549 8.25068 22.0023C8.91746 21.2446 9.54649 20.6132 10.2384 19.906C10.5907 19.5398 10.4397 19.565 10.9933 19.565C11.6349 19.5776 12.6413 19.6029 13.283 19.5524C14.5033 19.4514 15.711 19.2998 16.881 18.9462C18.3781 18.4916 19.5733 17.696 20.1772 16.1806C20.3407 15.7765 20.4917 15.3723 20.5924 14.9556C21.1711 12.5435 21.0956 10.1315 20.6049 7.71941C20.3785 6.6081 19.9004 5.61043 19.0072 4.85271ZM11.5971 6.305C11.6097 6.07769 11.7481 5.98929 11.962 5.98929C13.8114 6.07769 15.2078 6.63334 16.2772 8.08563C16.9062 8.93174 17.2459 10.081 17.2836 11.1418C17.2836 11.3059 17.2962 11.4575 17.2836 11.6216C17.271 11.7984 17.1956 11.9373 16.9943 11.9373C16.793 11.9373 16.6923 11.8363 16.6798 11.6216C16.6294 10.8387 16.4785 10.0683 16.1765 9.33586C15.5978 7.92146 14.4907 7.16375 13.0565 6.79752C12.6791 6.69649 12.3017 6.62073 11.9117 6.58284C11.7481 6.58284 11.5846 6.54494 11.5971 6.305ZM13.4717 8.2877C13.0943 8.16141 12.7168 8.04775 12.3142 7.99724C12.1255 7.97198 11.9872 7.87094 12.0249 7.64363C12.0626 7.42894 12.201 7.35318 12.4023 7.36581C13.6981 7.49209 14.7046 7.95935 15.3965 9.08329C15.7236 9.61369 15.9123 10.3588 15.8872 10.9144C15.862 11.3059 15.8117 11.407 15.5852 11.407C15.2581 11.3943 15.3085 11.1291 15.2833 10.9271C15.2456 10.624 15.1826 10.3209 15.0946 10.0178C14.843 9.15907 14.302 8.57816 13.4717 8.2877ZM14.5536 10.4724C14.541 10.5861 14.541 10.6619 14.5285 10.725C14.4907 10.8639 14.4026 10.9523 14.2517 10.965C14.0881 10.965 14.0126 10.8765 13.9623 10.7376C13.9372 10.6366 13.9246 10.5356 13.912 10.4472C13.8114 9.92941 13.5094 9.57581 12.9936 9.4369C12.9307 9.42427 12.8678 9.41163 12.8049 9.399C12.6413 9.34849 12.4401 9.3485 12.4275 9.10856C12.4275 8.9065 12.5784 8.79283 12.8426 8.7802C13.0313 8.76757 13.3081 8.85598 13.4843 8.94438C14.1636 9.26009 14.4781 9.72735 14.5536 10.4724ZM17.2836 15.9785C16.9188 16.7994 16.3149 17.3298 15.4468 17.5823C15.1323 17.6707 14.8304 17.595 14.5536 17.4687C10.6284 15.7891 7.79777 13.036 6.20002 9.04541C6.0868 8.75496 6.01131 8.45186 6.02389 8.18666C6.02389 7.16375 6.9297 6.20398 7.911 6.15346C8.18777 6.14084 8.41423 6.22923 8.61552 6.41866C9.30746 7.07535 9.86101 7.82044 10.2762 8.67918C10.5026 9.14644 10.402 9.47479 10.012 9.80313C9.94907 9.85364 9.87359 9.90415 9.81069 9.95467C9.2823 10.3462 9.16907 10.7376 9.42068 11.3438C9.83585 12.3415 10.5026 13.1244 11.421 13.7053C11.7607 13.92 12.113 14.1347 12.503 14.2484C12.8678 14.3494 13.1572 14.2358 13.3836 13.9579C13.4088 13.92 13.4339 13.8948 13.4591 13.8569C13.9623 13.1497 14.5033 13.036 15.233 13.4907C15.862 13.8822 16.4533 14.3242 17.0194 14.804C17.3843 15.145 17.4849 15.5239 17.2836 15.9785Z" fill="#212121"/>
</svg>
