<svg width="24" height="24" viewBox="0 0 24 24" fill="none" xmlns="http://www.w3.org/2000/svg">
<path d="M12.5813 17.9946C12.5813 17.9946 13.0012 17.9946 13.1692 17.7376C13.3372 17.5663 13.3372 17.2236 13.3372 17.2236C13.3372 17.2236 13.3372 15.51 14.0931 15.253C14.849 14.996 15.8569 16.8809 16.8648 17.5663C17.6207 18.0803 18.2926 17.9946 18.2926 17.9946H21.0643C21.0643 17.9946 22.4921 17.909 21.8202 16.7095C21.7362 16.6238 21.4003 15.8527 19.7205 14.3106C17.9567 12.6827 18.2086 12.9398 20.3084 10.1124C21.5682 8.39893 22.0722 7.37082 21.9882 6.85676C21.8202 6.42838 20.8963 6.51405 20.8963 6.51405H17.7047C17.7047 6.51405 17.4527 6.51405 17.2847 6.59973C17.1167 6.68541 17.0328 6.94244 17.0328 6.94244C17.0328 6.94244 16.5288 8.31325 15.8569 9.42704C14.4291 11.826 13.9251 11.9116 13.6732 11.826C13.1692 11.4833 13.2532 10.4552 13.2532 9.68407C13.2532 7.37082 13.5892 6.42838 12.5813 6.17135C12.2453 6.08567 11.9934 6 11.0695 6C9.9776 6 8.96971 6 8.46577 6.25703C8.12981 6.42838 7.79387 6.85676 7.96185 6.85676C8.12983 6.85676 8.63375 6.94244 8.88572 7.28514C9.22168 7.71352 9.2217 8.74163 9.2217 8.74163C9.2217 8.74163 9.38968 11.4833 8.80175 11.826C8.3818 12.083 7.79386 11.5689 6.53401 9.42704C5.86209 8.31325 5.44215 7.11379 5.44215 7.11379C5.44215 7.11379 5.35815 6.85676 5.19017 6.77108C5.02219 6.59973 4.68622 6.59973 4.68622 6.59973H1.6626C1.6626 6.59973 1.24264 6.59973 1.07466 6.77108C0.906678 6.94243 1.07466 7.28514 1.07466 7.28514C1.07466 7.28514 3.42638 12.7684 6.11406 15.5957C8.54977 18.166 11.3215 17.9946 11.3215 17.9946H12.5813Z" fill="black"/>
</svg>
