<svg width="24" height="24" viewBox="0 0 24 24" fill="none" xmlns="http://www.w3.org/2000/svg">
<path d="M7.19268 15.8255V12.9045H7.87372H8.55476V12.4771V12.0496H6.68189H4.80902V12.4771V12.9045H5.40494H6.00085V15.7542C6.00085 17.3216 6.00085 18.604 6.00085 18.6752C6.00085 18.6752 6.17111 18.6752 6.59676 18.6752H7.19268V15.8255ZM17.9191 15.6118C17.9191 15.5405 17.9191 14.8993 18.0042 14.7568C18.0894 14.5431 18.2596 14.4006 18.515 14.4006C18.7704 14.4006 18.8556 14.4719 18.9407 14.6144C19.0258 14.6856 19.0258 14.7568 19.0258 15.1843V15.6118H18.4299C18.0042 15.683 17.9191 15.683 17.9191 15.6118ZM18.9407 18.7465C19.4515 18.604 19.8771 18.319 19.9623 17.8915C19.9623 17.8203 20.0474 17.6066 20.0474 17.3928V17.0366H19.5366H19.0258V17.3216C19.0258 17.6778 18.9407 17.749 18.8556 17.8915C18.6853 18.034 18.4299 18.034 18.1745 17.8915C17.9191 17.749 17.9191 17.5353 17.9191 16.8229V16.3242H19.0258H20.1325V15.6118C20.1325 14.7568 20.1325 14.6856 19.9623 14.3294C19.6217 13.7594 18.7704 13.4745 18.0042 13.6882C17.4935 13.8307 17.1529 14.1869 16.9827 14.6144C16.8976 14.7568 16.8976 14.8993 16.8976 16.1105C16.8976 17.6066 16.8976 17.6778 17.0678 17.9628C17.4083 18.604 18.2596 18.8889 18.9407 18.7465ZM14.6842 17.8915C14.7693 17.8203 14.7693 17.8203 14.8544 17.749C14.9396 17.6066 14.9396 17.5353 14.8544 16.2529C14.8544 14.8993 14.8544 14.8281 14.7693 14.7568C14.599 14.5431 14.3436 14.5431 14.0031 14.6856L13.918 14.7568V16.2529V17.749L14.0031 17.8203C14.2585 17.9628 14.5139 17.9628 14.6842 17.8915ZM15.3652 18.7465C15.5355 18.6752 15.7057 18.5327 15.7909 18.3902C15.9611 18.034 15.9611 18.034 15.9611 16.2529C15.9611 14.7568 15.9611 14.6144 15.876 14.4006C15.7057 13.9019 15.4503 13.6882 14.9396 13.6882C14.6842 13.6882 14.4288 13.8307 14.1734 14.0444C14.0882 14.1157 13.918 14.1869 13.918 14.1869C13.918 14.1869 13.918 13.6882 13.918 13.1183V12.0496H13.4072H12.8964V15.398V18.7465H13.4072H13.918V18.5327C13.918 18.3902 13.918 18.319 13.918 18.319C13.918 18.319 14.0882 18.3902 14.1734 18.4615C14.599 18.7464 14.9396 18.8889 15.3652 18.7465ZM9.91685 18.7465C10.0871 18.6752 10.3425 18.5327 10.5979 18.3902C10.683 18.319 10.7682 18.2477 10.7682 18.2477C10.7682 18.2477 10.7682 18.319 10.7682 18.5327V18.8177H11.2789H11.7897V16.3242V13.8307H11.2789H10.7682V15.7542V17.6778L10.5128 17.8915C10.3425 18.034 10.2574 18.1053 10.1722 18.1053C10.002 18.1765 9.91685 18.1053 9.83172 18.034C9.74659 17.9628 9.74659 17.8915 9.74659 15.8967V13.9019H9.23581H8.72503V16.0392C8.72503 18.3902 8.72503 18.4615 8.89529 18.6752C9.06555 18.8177 9.4912 18.8889 9.91685 18.7465ZM10.3425 20.8125C9.66146 20.8125 8.89529 20.8125 8.63989 20.8125C6.68189 20.7412 5.3198 20.67 4.97928 20.67C4.55363 20.5988 4.12798 20.385 3.87259 20.1001C3.44693 19.6726 3.27667 19.1739 3.19154 18.3902C2.93615 16.6092 2.93615 14.4719 3.19154 12.762C3.27667 11.9784 3.6172 11.4797 4.04285 11.0522C4.29824 10.8385 4.55363 10.696 4.89415 10.6248C5.66033 10.4823 11.3641 10.3398 14.7693 10.411C16.8124 10.4823 18.9407 10.5535 19.5366 10.5535C20.3028 10.6248 20.8136 10.981 21.1541 11.5509C21.4095 12.0496 21.4946 12.4058 21.6649 13.4745C21.75 14.3294 21.75 14.8993 21.75 15.8967C21.75 17.1079 21.6649 18.1765 21.4946 18.8177C21.3243 19.4589 20.9838 20.0288 20.5582 20.3138C20.2176 20.5275 19.8771 20.67 19.2812 20.67C19.1109 20.67 18.8556 20.67 18.7704 20.67C18.4299 20.67 16.6422 20.7412 15.7057 20.7412C14.2585 20.8125 11.7046 20.8125 10.3425 20.8125ZM7.61727 9.76984C7.61727 9.76984 7.61727 7.77504 7.61727 7.49007C7.61727 7.13385 7.61726 6.84888 7.27674 6.13645C7.19161 5.92272 7.02135 5.42402 6.85109 5.13905C5.99978 2.85927 5.99979 3.00176 6.08492 3.00176C6.68083 3.00176 7.36187 3.00176 7.36187 3.00176C7.36187 3.00176 7.53214 3.5717 7.78753 4.21289C8.04292 4.92532 8.21318 5.42402 8.21318 5.49526C8.21318 5.49526 8.38344 5.13905 8.46857 4.64035C8.80909 3.5717 8.97935 3.00176 8.97935 3.00176C8.97935 3.00176 9.14962 3.00176 9.6604 3.00176H10.2563V3.073C10.2563 3.14424 9.83066 4.21289 9.405 5.35278C9.31987 5.49526 9.23474 5.78024 9.14961 6.06521C9.06448 6.35018 8.97935 6.63515 8.89422 6.77764L8.80909 6.99136V8.34498C8.80909 9.62735 8.80909 9.6986 8.72396 9.6986C8.72396 9.84108 7.61727 9.76984 7.61727 9.76984ZM15.1088 9.84108C14.8534 9.84108 14.6831 9.69859 14.5128 9.55611C14.3426 9.34238 14.3426 9.34238 14.3426 6.92012V4.71159H14.9385H15.5344V6.77764C15.5344 8.98617 15.5344 8.91492 15.7047 8.98617C15.8749 8.98617 16.0452 8.98616 16.2154 8.77244L16.3857 8.62995V6.70639V4.78283H16.9816H17.5775V7.27634V9.76984H17.4924C17.4073 9.76984 16.556 9.76984 16.4708 9.76984C16.4708 9.76984 16.3857 9.69859 16.3857 9.55611V9.34238L16.2154 9.48486C15.8749 9.76984 15.4493 9.91232 15.1088 9.84108ZM12.2143 8.91492C12.3846 8.77244 12.3846 8.77244 12.3846 7.34758C12.3846 6.20769 12.3846 6.0652 12.3846 5.92272C12.2994 5.70899 12.2143 5.63775 12.0441 5.5665C11.7887 5.49526 11.6184 5.63775 11.5333 5.85148C11.4481 5.99396 11.4481 8.55871 11.5333 8.70119C11.6184 8.84368 11.7035 8.98617 11.7887 8.98617C11.9589 8.98617 12.1292 8.91492 12.2143 8.91492ZM11.7035 9.84108C11.1927 9.76984 10.682 9.55611 10.5117 9.19989C10.2563 8.84368 10.2563 8.62995 10.2563 7.13385C10.2563 5.92272 10.2563 5.85148 10.3414 5.70899C10.5117 5.28153 10.7671 4.99656 11.1076 4.85407C11.7035 4.64035 12.2994 4.64034 12.8102 4.92532C13.1507 5.13904 13.321 5.35278 13.4913 5.78023C13.5764 5.92272 13.5764 6.06521 13.5764 7.27634C13.5764 8.77244 13.5764 8.84368 13.4061 9.12865C13.2359 9.41362 12.8102 9.69859 12.4697 9.76984C12.2143 9.84108 11.8738 9.84108 11.7035 9.84108Z" fill="black"/>
</svg>
