<svg width="24" height="24" viewBox="0 0 24 24" fill="none" xmlns="http://www.w3.org/2000/svg">
<path fill-rule="evenodd" clip-rule="evenodd" d="M13.9286 13.9286C12.3571 15.55 12.25 17.5714 12.1071 22C16.2357 22 19.0857 21.9857 20.5571 20.5571C21.9857 19.0857 22 16.1 22 12.1071C17.5714 12.25 15.55 12.3571 13.9286 13.9286ZM11.8929 22C7.76429 22 4.91429 21.9857 3.44286 20.5571C2.01429 19.0857 2 16.1 2 12.1071C6.42857 12.25 8.45 12.3571 10.0714 13.9286C11.6429 15.55 11.75 17.5714 11.8929 22ZM10.0714 10.0714C8.45 11.6429 6.42857 11.75 2 11.8929C2 7.9 2.01429 4.91429 3.44286 3.44286C4.91429 2.01429 7.77143 2 11.8929 2C11.75 6.42857 11.6429 8.45 10.0714 10.0714ZM12.1071 2C12.2429 6.42857 12.3571 8.45 13.9286 10.0714C15.55 11.6429 17.5714 11.75 22 11.8929C22 7.9 21.9857 4.91429 20.5571 3.44286C19.0857 2.01429 16.2357 2 12.1071 2Z" fill="#212121"/>
</svg>
