<svg width="40" height="40" viewBox="0 0 40 40" fill="none" xmlns="http://www.w3.org/2000/svg">
<g clip-path="url(#clip0_1743_116)">
<path fill-rule="evenodd" clip-rule="evenodd" d="M39 21C38.4477 21 38 20.5523 38 20C38 12.7929 33.7642 6.57307 27.6426 3.69808L25.2176 6.1965C25.031 6.38866 24.7752 6.49798 24.5074 6.49997C24.2397 6.50197 23.9823 6.39647 23.7929 6.20711L19.2929 1.70711C19.0069 1.42111 18.9213 0.990993 19.0761 0.617319C19.2309 0.243645 19.5955 0 20 0C22.7662 0 25.4036 0.562141 27.8023 1.57936C34.9695 4.61873 40 11.7207 40 20C40 20.5523 39.5523 21 39 21ZM1 19C1.55228 19 2 19.4477 2 20C2 27.2071 6.23584 33.4269 12.3574 36.3019L14.7824 33.8035C14.969 33.6113 15.2248 33.502 15.4926 33.5C15.7603 33.498 16.0177 33.6035 16.2071 33.7929L20.7071 38.2929C20.9931 38.5789 21.0787 39.009 20.9239 39.3827C20.7691 39.7564 20.4045 40 20 40C17.2338 40 14.5964 39.4379 12.1977 38.4206C5.03048 35.3813 0 28.2793 0 20C0 19.4477 0.447715 19 1 19ZM32.1484 25.7188C32.8047 24.7604 33.1328 23.2839 33.1328 21.2891C33.1328 19.362 32.7943 17.8984 32.1172 16.8984C31.4453 15.8984 30.4505 15.3984 29.1328 15.3984C27.7786 15.3984 26.776 15.8776 26.125 16.8359C25.474 17.7891 25.1484 19.2734 25.1484 21.2891C25.1484 23.2214 25.4818 24.6823 26.1484 25.6719C26.8203 26.6615 27.8151 27.1562 29.1328 27.1562C30.4922 27.1562 31.4974 26.6771 32.1484 25.7188ZM27.9062 24.3047C27.6667 23.6953 27.5469 22.6901 27.5469 21.2891C27.5469 19.888 27.6693 18.8828 27.9141 18.2734C28.1589 17.6589 28.5651 17.3516 29.1328 17.3516C29.6901 17.3516 30.0938 17.6589 30.3438 18.2734C30.599 18.8828 30.7266 19.888 30.7266 21.2891C30.7266 22.6745 30.6016 23.6745 30.3516 24.2891C30.1016 24.9036 29.6953 25.2109 29.1328 25.2109C28.5599 25.2109 28.151 24.9089 27.9062 24.3047ZM14.4688 18.1328C14.4688 18.8464 14.2526 19.4531 13.8203 19.9531C13.388 20.4531 12.7812 20.7969 12 20.9844V21.0312C12.9219 21.1458 13.6198 21.4271 14.0938 21.875C14.5677 22.3177 14.8047 22.9167 14.8047 23.6719C14.8047 24.7708 14.4062 25.6276 13.6094 26.2422C12.8125 26.8516 11.6745 27.1562 10.1953 27.1562C8.95573 27.1562 7.85677 26.9505 6.89844 26.5391V24.4844C7.34115 24.7083 7.82812 24.8906 8.35938 25.0312C8.89062 25.1719 9.41667 25.2422 9.9375 25.2422C10.7344 25.2422 11.3229 25.1068 11.7031 24.8359C12.0833 24.5651 12.2734 24.1302 12.2734 23.5312C12.2734 22.9948 12.0547 22.6146 11.6172 22.3906C11.1797 22.1667 10.4818 22.0547 9.52344 22.0547H8.65625V20.2031H9.53906C10.4245 20.2031 11.0703 20.0885 11.4766 19.8594C11.888 19.625 12.0938 19.2266 12.0938 18.6641C12.0938 17.7995 11.5521 17.3672 10.4688 17.3672C10.0938 17.3672 9.71094 17.4297 9.32031 17.5547C8.9349 17.6797 8.50521 17.8958 8.03125 18.2031L6.91406 16.5391C7.95573 15.7891 9.19792 15.4141 10.6406 15.4141C11.8229 15.4141 12.7552 15.6536 13.4375 16.1328C14.125 16.612 14.4688 17.2786 14.4688 18.1328ZM15.9922 22.1484C15.9922 19.888 16.4688 18.2057 17.4219 17.1016C18.3802 15.9974 19.8125 15.4453 21.7188 15.4453C22.3698 15.4453 22.8802 15.4844 23.25 15.5625V17.4922C22.7865 17.388 22.3281 17.3359 21.875 17.3359C21.0469 17.3359 20.3698 17.4609 19.8438 17.7109C19.3229 17.9609 18.9323 18.3307 18.6719 18.8203C18.4115 19.3099 18.2578 20.0052 18.2109 20.9062H18.3125C18.8281 20.0208 19.6536 19.5781 20.7891 19.5781C21.8099 19.5781 22.6094 19.8984 23.1875 20.5391C23.7656 21.1797 24.0547 22.0651 24.0547 23.1953C24.0547 24.4141 23.7109 25.3802 23.0234 26.0938C22.3359 26.8021 21.3828 27.1562 20.1641 27.1562C19.3203 27.1562 18.5833 26.9609 17.9531 26.5703C17.3281 26.1797 16.8438 25.6094 16.5 24.8594C16.1615 24.1094 15.9922 23.2057 15.9922 22.1484ZM20.1172 25.2266C20.6328 25.2266 21.0286 25.0547 21.3047 24.7109C21.5807 24.362 21.7188 23.8672 21.7188 23.2266C21.7188 22.6693 21.5885 22.2318 21.3281 21.9141C21.0729 21.5911 20.6849 21.4297 20.1641 21.4297C19.6745 21.4297 19.2552 21.5885 18.9062 21.9062C18.5625 22.224 18.3906 22.5938 18.3906 23.0156C18.3906 23.6354 18.5521 24.1589 18.875 24.5859C19.2031 25.013 19.6172 25.2266 20.1172 25.2266Z" fill="#212121"/>
</g>
<defs>
<clipPath id="clip0_1743_116">
<rect width="40" height="40" fill="white"/>
</clipPath>
</defs>
</svg>
