<svg width="40" height="40" viewBox="0 0 40 40" fill="none" xmlns="http://www.w3.org/2000/svg">
<path fill-rule="evenodd" clip-rule="evenodd" d="M30.6299 17.8789C31.2041 17.0404 31.4912 15.7484 31.4912 14.0029C31.4912 12.3167 31.195 11.0361 30.6025 10.1611C30.0146 9.28613 29.1442 8.84863 27.9912 8.84863C26.8063 8.84863 25.929 9.2679 25.3594 10.1064C24.7897 10.9404 24.5049 12.2393 24.5049 14.0029C24.5049 15.6937 24.7965 16.972 25.3799 17.8379C25.9678 18.7038 26.8382 19.1367 27.9912 19.1367C29.1807 19.1367 30.0602 18.7174 30.6299 17.8789ZM26.918 16.6416C26.7083 16.1084 26.6035 15.2288 26.6035 14.0029C26.6035 12.777 26.7106 11.8975 26.9248 11.3643C27.139 10.8265 27.4945 10.5576 27.9912 10.5576C28.4788 10.5576 28.832 10.8265 29.0508 11.3643C29.2741 11.8975 29.3857 12.777 29.3857 14.0029C29.3857 15.2152 29.2764 16.0902 29.0576 16.6279C28.8389 17.1657 28.4834 17.4346 27.9912 17.4346C27.4899 17.4346 27.1322 17.1702 26.918 16.6416ZM15.1602 11.2412C15.1602 11.8656 14.971 12.3965 14.5928 12.834C14.2145 13.2715 13.6836 13.5723 13 13.7363V13.7773C13.8066 13.8776 14.4173 14.1237 14.832 14.5156C15.2467 14.903 15.4541 15.4271 15.4541 16.0879C15.4541 17.0495 15.1055 17.7992 14.4082 18.3369C13.7109 18.8701 12.7152 19.1367 11.4209 19.1367C10.3363 19.1367 9.37467 18.9567 8.53613 18.5967V16.7988C8.9235 16.9948 9.34961 17.1543 9.81445 17.2773C10.2793 17.4004 10.7396 17.4619 11.1953 17.4619C11.8926 17.4619 12.4076 17.3434 12.7402 17.1064C13.0729 16.8695 13.2393 16.4889 13.2393 15.9648C13.2393 15.4954 13.0479 15.1628 12.665 14.9668C12.2822 14.7708 11.6715 14.6729 10.833 14.6729H10.0742V13.0527H10.8467C11.6214 13.0527 12.1865 12.9525 12.542 12.752C12.902 12.5469 13.082 12.1982 13.082 11.7061C13.082 10.9495 12.6081 10.5713 11.6602 10.5713C11.332 10.5713 10.9971 10.626 10.6553 10.7354C10.318 10.8447 9.94206 11.0339 9.52734 11.3027L8.5498 9.84668C9.46126 9.19043 10.5482 8.8623 11.8105 8.8623C12.8451 8.8623 13.6608 9.07194 14.2578 9.49121C14.8594 9.91048 15.1602 10.4938 15.1602 11.2412ZM16.4932 14.7549C16.4932 12.777 16.9102 11.305 17.7441 10.3389C18.5827 9.37272 19.8359 8.88965 21.5039 8.88965C22.0736 8.88965 22.5202 8.92383 22.8438 8.99219V10.6807C22.4382 10.5895 22.0371 10.5439 21.6406 10.5439C20.916 10.5439 20.3236 10.6533 19.8633 10.8721C19.4076 11.0908 19.0658 11.4144 18.8379 11.8428C18.61 12.2712 18.4756 12.8796 18.4346 13.668H18.5234C18.9746 12.8932 19.6969 12.5059 20.6904 12.5059C21.5837 12.5059 22.2832 12.7861 22.7891 13.3467C23.2949 13.9072 23.5479 14.682 23.5479 15.6709C23.5479 16.7373 23.2471 17.5827 22.6455 18.207C22.0439 18.8268 21.21 19.1367 20.1436 19.1367C19.4053 19.1367 18.7604 18.9658 18.209 18.624C17.6621 18.2822 17.2383 17.7832 16.9375 17.127C16.6413 16.4707 16.4932 15.68 16.4932 14.7549ZM20.1025 17.4482C20.5537 17.4482 20.9001 17.2979 21.1416 16.9971C21.3831 16.6917 21.5039 16.2588 21.5039 15.6982C21.5039 15.2106 21.39 14.8278 21.1621 14.5498C20.9388 14.2673 20.5993 14.126 20.1436 14.126C19.7152 14.126 19.3483 14.265 19.043 14.543C18.7422 14.821 18.5918 15.1445 18.5918 15.5137C18.5918 16.056 18.7331 16.514 19.0156 16.8877C19.3027 17.2614 19.665 17.4482 20.1025 17.4482ZM35.0256 14.3067C34.5558 14.0164 33.9396 14.1619 33.6493 14.6317C33.359 15.1016 33.5045 15.7178 33.9744 16.0081C35.129 16.7215 35.8757 17.4586 36.3364 18.2073C36.7918 18.9474 37 19.7508 37 20.6574C37 22.3621 35.7489 24.1371 33.1873 25.6366C30.6608 27.1155 27.0642 28.1885 22.9164 28.5364C22.3661 28.5826 21.9573 29.0662 22.0035 29.6165C22.0497 30.1669 22.5332 30.5756 23.0836 30.5294C27.4489 30.1632 31.3523 29.0282 34.1976 27.3627C37.0076 25.7178 39 23.4121 39 20.6574C39 19.4206 38.709 18.2469 38.0398 17.1592C37.3759 16.0802 36.3726 15.1389 35.0256 14.3067ZM6.02565 16.3507C6.49548 16.0604 6.64101 15.4442 6.3507 14.9744C6.0604 14.5045 5.44419 14.359 4.97435 14.6493C3.66371 15.4592 2.65775 16.3014 1.98457 17.2929C1.29515 18.3083 1 19.4131 1 20.6574C1 23.4121 2.99235 25.7178 5.8024 27.3627C8.13368 28.7273 11.1753 29.7358 14.5993 30.2571L12.8534 31.7372C12.4321 32.0944 12.3801 32.7254 12.7372 33.1467C13.0943 33.5679 13.7254 33.6199 14.1466 33.2628L17.6467 30.2957C17.8491 30.1241 17.975 29.8791 17.9967 29.6146C18.0183 29.3502 17.934 29.0879 17.7623 28.8856L14.7623 25.3527C14.4048 24.9318 13.7737 24.8803 13.3527 25.2378C12.9317 25.5952 12.8803 26.2263 13.2377 26.6473L14.5814 28.2297C11.4916 27.7265 8.81581 26.8091 6.81275 25.6366C4.25108 24.1371 3 22.3621 3 20.6574C3 19.7583 3.20405 19.0573 3.63924 18.4163C4.09065 17.7514 4.83469 17.0866 6.02565 16.3507Z" fill="black"/>
</svg>
