<svg width="16" height="16" viewBox="0 0 16 16" fill="none" xmlns="http://www.w3.org/2000/svg">
<path fill-rule="evenodd" clip-rule="evenodd" d="M5.18359 2.80154C5.53766 2.30078 6.13374 2 6.77205 2H9.22795C9.86626 2 10.4623 2.30078 10.8164 2.80154L11.3335 3.53282C11.4515 3.69974 11.6502 3.8 11.863 3.8H12.4545C13.8604 3.8 15 4.87452 15 6.2V11.6C15 12.9255 13.8604 14 12.4545 14H3.54545C2.13964 14 1 12.9255 1 11.6V6.2C1 4.87452 2.13964 3.8 3.54545 3.8H4.13704C4.34981 3.8 4.5485 3.69974 4.66653 3.53282L5.18359 2.80154ZM8 11.5C9.51878 11.5 10.75 10.2688 10.75 8.75002C10.75 7.23124 9.51878 6.00002 8 6.00002C6.48122 6.00002 5.25 7.23124 5.25 8.75002C5.25 10.2688 6.48122 11.5 8 11.5Z" fill="#212121"/>
</svg>
