<svg width="16" height="16" viewBox="0 0 16 16" fill="none" xmlns="http://www.w3.org/2000/svg">
<path fill-rule="evenodd" clip-rule="evenodd" d="M8 15C11.866 15 15 11.866 15 8C15 4.13401 11.866 1 8 1C4.13401 1 1 4.13401 1 8C1 11.866 4.13401 15 8 15ZM11.8192 6.57346C12.1359 6.12101 12.0259 5.49748 11.5735 5.18077C11.121 4.86405 10.4975 4.97409 10.1808 5.42654L7.43086 9.35498L5.76822 7.35982C5.41466 6.93554 4.78409 6.87821 4.35982 7.23178C3.93554 7.58534 3.87821 8.21591 4.23178 8.64018L6.73178 11.6402C6.9312 11.8795 7.23076 12.0122 7.54199 11.9991C7.85323 11.986 8.14059 11.8287 8.31923 11.5735L11.8192 6.57346Z" fill="#212121"/>
</svg>
