<svg width="16" height="16" viewBox="0 0 16 16" fill="none" xmlns="http://www.w3.org/2000/svg">
<path fill-rule="evenodd" clip-rule="evenodd" d="M8 15C11.866 15 15 11.866 15 8C15 4.13401 11.866 1 8 1C4.13401 1 1 4.13401 1 8C1 11.866 4.13401 15 8 15ZM10.8284 5.17157C11.219 5.5621 11.219 6.19526 10.8284 6.58579L9.41421 8L10.8284 9.41422C11.2189 9.80474 11.2189 10.4379 10.8284 10.8284C10.4379 11.219 9.80474 11.219 9.41421 10.8284L8 9.41422L6.58579 10.8284C6.19526 11.219 5.5621 11.219 5.17157 10.8284C4.78105 10.4379 4.78105 9.80474 5.17157 9.41421L6.58578 8L5.17157 6.58579C4.78105 6.19526 4.78105 5.5621 5.17157 5.17158C5.56209 4.78105 6.19526 4.78105 6.58578 5.17158L8 6.58579L9.41421 5.17157C9.80474 4.78105 10.4379 4.78105 10.8284 5.17157Z" fill="#212121"/>
</svg>
