<svg width="16" height="16" viewBox="0 0 16 16" fill="none" xmlns="http://www.w3.org/2000/svg">
<path d="M14.1673 5.24739C13.8109 4.5346 12.8754 4 11.3607 4C9.84599 4 8.28675 4.66824 8.28675 4.66824C8.28675 4.66824 7.61851 4 6.50477 4C5.39103 4 5.25738 4.4455 5.52468 4.57915C5.79198 4.66824 6.50477 5.20284 6.41567 5.91563C5.83652 6.45023 5.03463 7.16302 4.14364 8.27677C3.25265 9.43506 2.71805 10.4597 2.5844 12.0189C1.60431 11.8853 0.802415 12.1971 0.223269 12.5981C-0.133128 12.8654 -0.0440285 13.3109 0.356918 13.2218C0.846964 13.1327 1.73796 13.0881 2.1389 13.4C2.228 14.4692 2.18345 15.1374 2.0498 15.4938C1.91616 15.8502 2.5844 15.8057 3.0299 15.3156C3.47539 14.8256 3.69814 13.6673 3.56449 12.6426C4.23274 11.3507 5.88107 10.1479 7.12846 9.61326C8.4204 9.07866 9.84599 8.85591 9.84599 8.85591C10.0687 9.12321 9.93509 9.88055 9.75689 10.1924C9.53414 10.6379 9.3114 11.1725 10.0687 10.9497C10.8261 10.727 11.4052 10.2369 11.5834 9.56871C11.7616 8.90046 11.6725 8.27677 11.6725 8.27677C11.6725 8.27677 13.9446 7.11847 14.1673 6.58388C15.1919 6.53933 16.0829 6.40568 15.9938 5.91563C15.9493 5.69289 15.5483 5.38104 14.1673 5.24739ZM9.71234 7.43032C8.82135 7.74217 7.21756 8.45496 6.50477 8.81136C5.88107 9.12321 4.81188 9.9251 4.50004 9.70235C4.18819 9.47961 6.05927 7.34122 7.21756 6.49478C8.46495 5.55924 9.35595 5.29194 10.0242 5.29194C10.6924 5.29194 11.2716 5.47014 11.2716 6.04928C11.2716 6.62843 10.6033 7.11847 9.71234 7.43032ZM12.5635 5.78199C12.2962 5.78199 12.118 5.55924 12.118 5.33649C12.118 5.11374 12.3408 4.89099 12.5635 4.89099C12.8308 4.89099 13.009 5.11374 13.009 5.33649C13.009 5.55924 12.8308 5.78199 12.5635 5.78199Z" fill="black"/>
</svg>
