<svg width="16" height="16" viewBox="0 0 16 16" fill="none" xmlns="http://www.w3.org/2000/svg">
<path d="M14.397 1H1.60313C1.37734 0.999585 1.17047 1.12256 1.06732 1.31841C0.96275 1.5169 0.981104 1.75591 1.1147 1.93718L5.80184 8.37879C5.8034 8.38101 5.80511 8.38309 5.80667 8.38531C5.97698 8.60961 6.06917 8.88139 6.0696 9.16051V14.4123C6.0686 14.5678 6.13121 14.7173 6.24346 14.8276C6.35586 14.9378 6.50866 15 6.66801 15C6.74897 14.9999 6.82921 14.9842 6.90405 14.9538L9.53786 13.9741C9.77375 13.9038 9.9304 13.6865 9.9304 13.425V9.16051C9.93083 8.88139 10.023 8.60961 10.1932 8.38531C10.1947 8.38309 10.1965 8.38101 10.198 8.37879L14.8853 1.93704C15.0189 1.75591 15.0372 1.51703 14.9327 1.31855C14.8297 1.12256 14.6227 0.999585 14.397 1Z" fill="#212121"/>
</svg>
