<svg width="16" height="16" viewBox="0 0 16 16" fill="none" xmlns="http://www.w3.org/2000/svg">
<path fill-rule="evenodd" clip-rule="evenodd" d="M8 14.9591C8.12649 14.9588 8.25231 14.9116 8.38466 14.813C8.47222 14.7478 8.5279 14.6122 8.60584 14.4223C8.76859 14.0258 9.02842 13.3928 9.87837 12.6704C10.1115 12.4722 10.4 12.2665 10.7153 12.0417C12.0996 11.0544 14 9.69901 14 7C14 3.68629 11.3137 1 8 1C4.68629 1 2 3.68629 2 7C2 9.69901 3.90043 11.0544 5.2847 12.0417C5.59996 12.2665 5.88846 12.4722 6.12163 12.6704C6.97158 13.3928 7.23141 14.0258 7.39416 14.4223C7.4721 14.6122 7.52778 14.7478 7.61534 14.813C7.74769 14.9116 7.87351 14.9588 8 14.9591ZM8 9C9.10457 9 10 8.10457 10 7C10 5.89543 9.10457 5 8 5C6.89543 5 6 5.89543 6 7C6 8.10457 6.89543 9 8 9Z" fill="#212121"/>
</svg>
