<svg width="16" height="16" viewBox="0 0 16 16" fill="none" xmlns="http://www.w3.org/2000/svg">
<path d="M12.5 6C13.8807 6 15 4.88071 15 3.5C15 2.11929 13.8807 1 12.5 1C11.1193 1 10 2.11929 10 3.5C10 3.54371 10.0011 3.58715 10.0033 3.63031L5.10224 6.08085C4.66837 5.71824 4.10967 5.5 3.5 5.5C2.11929 5.5 1 6.61929 1 8C1 9.38071 2.11929 10.5 3.5 10.5C4.10966 10.5 4.66835 10.2818 5.10222 9.91917L10.0033 12.3697C10.0011 12.4129 10 12.4563 10 12.5C10 13.8807 11.1193 15 12.5 15C13.8807 15 15 13.8807 15 12.5C15 11.1193 13.8807 10 12.5 10C11.8903 10 11.3316 10.2182 10.8977 10.5809L5.99666 8.13032C5.99888 8.08716 6 8.04371 6 8C6 7.9563 5.99888 7.91286 5.99666 7.86971L10.8978 5.41916C11.3316 5.78177 11.8903 6 12.5 6Z" fill="black"/>
</svg>
