<svg width="16" height="16" viewBox="0 0 16 16" fill="none" xmlns="http://www.w3.org/2000/svg">
<path d="M4 5C3.44772 5 3 5.44772 3 6C3 6.55228 3.44772 7 4 7H12C12.5523 7 13 6.55228 13 6C13 5.44772 12.5523 5 12 5H4Z" fill="black"/>
<path d="M3 9C3 8.44772 3.44772 8 4 8H10C10.5523 8 11 8.44772 11 9C11 9.55228 10.5523 10 10 10H4C3.44772 10 3 9.55228 3 9Z" fill="black"/>
<path d="M3 12C3 11.4477 3.44772 11 4 11H8C8.55228 11 9 11.4477 9 12C9 12.5523 8.55228 13 8 13H4C3.44772 13 3 12.5523 3 12Z" fill="black"/>
</svg>
