<svg width="16" height="16" viewBox="0 0 16 16" fill="none" xmlns="http://www.w3.org/2000/svg">
<path d="M4 13C3.44772 13 3 12.5523 3 12C3 11.4477 3.44772 11 4 11H12C12.5523 11 13 11.4477 13 12C13 12.5523 12.5523 13 12 13H4Z" fill="#212121"/>
<path d="M3 9C3 9.55228 3.44772 10 4 10H10C10.5523 10 11 9.55228 11 9C11 8.44772 10.5523 8 10 8H4C3.44772 8 3 8.44772 3 9Z" fill="#212121"/>
<path d="M3 6C3 6.55228 3.44772 7 4 7H8C8.55228 7 9 6.55228 9 6C9 5.44772 8.55228 5 8 5H4C3.44772 5 3 5.44772 3 6Z" fill="#212121"/>
</svg>
