<svg width="16" height="16" viewBox="0 0 16 16" fill="none" xmlns="http://www.w3.org/2000/svg">
<path d="M1 6.60182C1 5.97868 1.53414 5.47352 2.19304 5.47352C2.85194 5.47352 3.38608 5.97868 3.38608 6.60182V13.3716C3.38608 13.9948 2.85194 14.5 2.19304 14.5C1.53414 14.5 1 13.9948 1 13.3716V6.60182Z" fill="#212121"/>
<path d="M4.5791 12.2434V6.35971C4.5791 5.79012 4.80686 5.2416 5.21668 4.8242L9.17353 0.794197C9.8796 0.0750692 11.1208 0.787817 10.7718 1.712L9.80678 4.26733C9.58479 4.85517 10.0456 5.47357 10.7056 5.47357H12.6136C14.0488 5.47357 15.1592 6.66321 14.9812 8.01007L14.3847 12.5233C14.2354 13.6526 13.2204 14.5 12.017 14.5H6.96518C5.64739 14.5 4.5791 13.4897 4.5791 12.2434Z" fill="#212121"/>
</svg>
