<svg width="16" height="16" viewBox="0 0 16 16" fill="none" xmlns="http://www.w3.org/2000/svg">
<path d="M1 9.39818C1 10.0213 1.53414 10.5265 2.19304 10.5265C2.85194 10.5265 3.38608 10.0213 3.38608 9.39818V2.62835C3.38608 2.00521 2.85194 1.50005 2.19304 1.50005C1.53414 1.50005 1 2.00521 1 2.62835V9.39818Z" fill="#212121"/>
<path d="M4.5791 3.75661V9.64029C4.5791 10.2099 4.80686 10.7584 5.21668 11.1758L9.17353 15.2058C9.8796 15.9249 11.1208 15.2122 10.7718 14.288L9.80678 11.7327C9.58479 11.1448 10.0456 10.5264 10.7056 10.5264H12.6136C14.0488 10.5264 15.1592 9.33679 14.9812 7.98993L14.3847 3.47671C14.2354 2.34744 13.2204 1.5 12.017 1.5H6.96518C5.64739 1.5 4.5791 2.51032 4.5791 3.75661Z" fill="#212121"/>
</svg>
