<svg width="16" height="16" viewBox="0 0 16 16" fill="none" xmlns="http://www.w3.org/2000/svg">
<path d="M1 8.89818C1 9.52132 1.53414 10.0265 2.19304 10.0265C2.85194 10.0265 3.38608 9.52132 3.38608 8.89818V2.12835C3.38608 1.50521 2.85194 1.00005 2.19304 1.00005C1.53414 1.00005 1 1.50521 1 2.12835V8.89818Z" fill="black"/>
<path d="M4.5791 3.25661V9.14029C4.5791 9.70988 4.80686 10.2584 5.21668 10.6758L9.17353 14.7058C9.8796 15.4249 11.1208 14.7122 10.7718 13.788L9.80678 11.2327C9.58479 10.6448 10.0456 10.0264 10.7056 10.0264H12.6136C14.0488 10.0264 15.1592 8.83679 14.9812 7.48993L14.3847 2.97671C14.2354 1.84744 13.2204 0.999999 12.017 0.999999H6.96518C5.64739 0.999999 4.5791 2.01032 4.5791 3.25661Z" fill="black"/>
</svg>
