<svg width="16" height="16" viewBox="0 0 16 16" fill="none" xmlns="http://www.w3.org/2000/svg">
<path d="M1 7.10182C1 6.47868 1.53414 5.97352 2.19304 5.97352C2.85194 5.97352 3.38608 6.47868 3.38608 7.10182V13.8716C3.38608 14.4948 2.85194 15 2.19304 15C1.53414 15 1 14.4948 1 13.8716V7.10182Z" fill="#212121"/>
<path d="M4.5791 12.7434V6.85971C4.5791 6.29012 4.80686 5.7416 5.21668 5.3242L9.17353 1.2942C9.8796 0.575069 11.1208 1.28782 10.7718 2.212L9.80678 4.76733C9.58479 5.35517 10.0456 5.97357 10.7056 5.97357H12.6136C14.0488 5.97357 15.1592 7.16321 14.9812 8.51007L14.3847 13.0233C14.2354 14.1526 13.2204 15 12.017 15H6.96518C5.64739 15 4.5791 13.9897 4.5791 12.7434Z" fill="#212121"/>
</svg>
