<svg width="16" height="16" viewBox="0 0 16 16" fill="none" xmlns="http://www.w3.org/2000/svg">
<path fill-rule="evenodd" clip-rule="evenodd" d="M3 2C1.89543 2 1 2.89543 1 4V12C1 13.1046 1.89543 14 3 14H12C13.1046 14 14 13.1046 14 12H9C7.89543 12 7 11.1046 7 10V6C7 4.89543 7.89543 4 9 4H14C14 2.89543 13.1046 2 12 2H3ZM8 6C8 5.44772 8.44772 5 9 5H14C14.5523 5 15 5.44772 15 6V10C15 10.5523 14.5523 11 14 11H9C8.44772 11 8 10.5523 8 10V6ZM11 9C11.5523 9 12 8.55228 12 8C12 7.44772 11.5523 7 11 7C10.4477 7 10 7.44772 10 8C10 8.55228 10.4477 9 11 9Z" fill="black"/>
</svg>
