<svg width="16" height="16" viewBox="0 0 16 16" fill="none" xmlns="http://www.w3.org/2000/svg">
<path d="M8 4.5C8.55228 4.5 9 4.94772 9 5.5V7H10.5C11.0523 7 11.5 7.44771 11.5 8C11.5 8.55228 11.0523 9 10.5 9H9V10.5C9 11.0523 8.55228 11.5 8 11.5C7.44772 11.5 7 11.0523 7 10.5V9H5.5C4.94772 9 4.5 8.55228 4.5 8C4.5 7.44772 4.94772 7 5.5 7H7V5.5C7 4.94772 7.44772 4.5 8 4.5Z" fill="black"/>
<path fill-rule="evenodd" clip-rule="evenodd" d="M8 0C3.58172 0 0 3.58172 0 8C0 12.4183 3.58172 16 8 16C12.4183 16 16 12.4183 16 8C16 3.58172 12.4183 0 8 0ZM2 8C2 4.68629 4.68629 2 8 2C11.3137 2 14 4.68629 14 8C14 11.3137 11.3137 14 8 14C4.68629 14 2 11.3137 2 8Z" fill="black"/>
</svg>
