<svg width="16" height="16" viewBox="0 0 16 16" fill="none" xmlns="http://www.w3.org/2000/svg">
<path fill-rule="evenodd" clip-rule="evenodd" d="M0 1C0 0.447715 0.447715 0 1 0H3.5C3.98884 0 4.40603 0.353413 4.48639 0.835601L5.84713 9H12.7192L13.7192 5H7C6.44771 5 6 4.55228 6 4C6 3.44772 6.44771 3 7 3H15C15.3079 3 15.5987 3.14187 15.7882 3.38459C15.9777 3.6273 16.0448 3.94379 15.9701 4.24254L14.4701 10.2425C14.3589 10.6877 13.9589 11 13.5 11H5C4.51116 11 4.09397 10.6466 4.01361 10.1644L2.65287 2H1C0.447715 2 0 1.55228 0 1ZM8 13.5C8 14.3284 7.32843 15 6.5 15C5.67157 15 5 14.3284 5 13.5C5 12.6716 5.67157 12 6.5 12C7.32843 12 8 12.6716 8 13.5ZM11.5 15C12.3284 15 13 14.3284 13 13.5C13 12.6716 12.3284 12 11.5 12C10.6716 12 10 12.6716 10 13.5C10 14.3284 10.6716 15 11.5 15Z" fill="#212121"/>
</svg>
