<svg width="16" height="16" viewBox="0 0 16 16" fill="none" xmlns="http://www.w3.org/2000/svg">
<path fill-rule="evenodd" clip-rule="evenodd" d="M5 0H1C0.447715 0 0 0.447715 0 1V5C0 5.55228 0.447715 6 1 6C1.55228 6 2 5.55228 2 5V3.41421L4.29289 5.70711C4.68342 6.09763 5.31658 6.09763 5.70711 5.70711C6.09763 5.31658 6.09763 4.68342 5.70711 4.29289L3.41421 2H5C5.55228 2 6 1.55228 6 1C6 0.447715 5.55228 0 5 0ZM16 5V1C16 0.447715 15.5523 0 15 0H11C10.4477 0 10 0.447715 10 1C10 1.55228 10.4477 2 11 2L12.5858 2L10.2929 4.29289C9.90237 4.68342 9.90237 5.31658 10.2929 5.70711C10.6834 6.09763 11.3166 6.09763 11.7071 5.70711L14 3.41421V5C14 5.55228 14.4477 6 15 6C15.5523 6 16 5.55228 16 5ZM15 16H11C10.4477 16 10 15.5523 10 15C10 14.4477 10.4477 14 11 14H12.5858L10.2929 11.7071C9.90237 11.3166 9.90237 10.6834 10.2929 10.2929C10.6834 9.90237 11.3166 9.90237 11.7071 10.2929L14 12.5858V11C14 10.4477 14.4477 10 15 10C15.5523 10 16 10.4477 16 11V15C16 15.5523 15.5523 16 15 16ZM0 11V15C0 15.5523 0.447715 16 1 16H5C5.55228 16 6 15.5523 6 15C6 14.4477 5.55228 14 5 14H3.41421L5.70711 11.7071C6.09763 11.3166 6.09763 10.6834 5.70711 10.2929C5.31658 9.90237 4.68342 9.90237 4.29289 10.2929L2 12.5858L2 11C2 10.4477 1.55228 10 1 10C0.447715 10 0 10.4477 0 11Z" fill="#212121"/>
</svg>
