<svg width="16" height="16" viewBox="0 0 16 16" fill="none" xmlns="http://www.w3.org/2000/svg">
<path d="M8 6.5C8.55229 6.5 9 6.94772 9 7.5V11.5C9 12.0523 8.55229 12.5 8 12.5C7.44772 12.5 7 12.0523 7 11.5V7.5C7 6.94772 7.44772 6.5 8 6.5Z" fill="#212121"/>
<path d="M8 5.5C8.55229 5.5 9 5.05228 9 4.5C9 3.94772 8.55229 3.5 8 3.5C7.44772 3.5 7 3.94772 7 4.5C7 5.05228 7.44772 5.5 8 5.5Z" fill="#212121"/>
<path fill-rule="evenodd" clip-rule="evenodd" d="M0 8C0 3.58172 3.58172 0 8 0C12.4183 0 16 3.58172 16 8C16 12.4183 12.4183 16 8 16C3.58172 16 0 12.4183 0 8ZM8 2C4.68629 2 2 4.68629 2 8C2 11.3137 4.68629 14 8 14C11.3137 14 14 11.3137 14 8C14 4.68629 11.3137 2 8 2Z" fill="#212121"/>
</svg>
