<svg width="16" height="16" viewBox="0 0 16 16" fill="none" xmlns="http://www.w3.org/2000/svg">
<path d="M9 11C9 11.5523 8.55228 12 8 12C7.44772 12 7 11.5523 7 11C7 10.4477 7.44772 10 8 10C8.55228 10 9 10.4477 9 11Z" fill="black"/>
<path fill-rule="evenodd" clip-rule="evenodd" d="M4 6V4C4 1.79086 5.79086 0 8 0C10.2091 0 12 1.79086 12 4V6C13.6569 6 15 7.34315 15 9V13C15 14.6569 13.6569 16 12 16H4C2.34315 16 1 14.6569 1 13V9C1 7.34315 2.34315 6 4 6ZM6 4C6 2.89543 6.89543 2 8 2C9.10457 2 10 2.89543 10 4V6H6V4ZM4 8C3.44772 8 3 8.44772 3 9V13C3 13.5523 3.44772 14 4 14H12C12.5523 14 13 13.5523 13 13V9C13 8.44772 12.5523 8 12 8H4Z" fill="black"/>
</svg>
