<svg width="16" height="16" viewBox="0 0 16 16" fill="none" xmlns="http://www.w3.org/2000/svg">
<path fill-rule="evenodd" clip-rule="evenodd" d="M1.02094 3.70804C0.906736 2.60939 1.70413 1.62005 2.80196 1.49828L6.99191 1.03357C8.08974 0.911802 9.0723 1.70372 9.1865 2.80237L10.1723 12.2858C10.2865 13.3845 9.48913 14.3738 8.3913 14.4956L4.20135 14.9603C3.10352 15.0821 2.12096 14.2902 2.00676 13.1915L1.02094 3.70804ZM2.90536 2.49292L7.0953 2.02821C7.64422 1.96732 8.1355 2.36328 8.1926 2.91261L9.17841 12.3961C9.23552 12.9454 8.83682 13.4401 8.2879 13.501L4.09796 13.9657C3.54904 14.0266 3.05777 13.6306 3.00066 13.0813L2.01485 3.5978C1.95774 3.04848 2.35644 2.55381 2.90536 2.49292Z" fill="#212121"/>
<path d="M10.9523 14.3546L10.3458 14.2069C10.6577 13.9872 10.9048 13.6746 11.0565 13.3097L11.1664 13.3364C11.6891 13.4637 12.2086 13.111 12.3269 12.5487L14.0054 5.24856C14.1237 4.68624 13.7959 4.12723 13.2733 3.99998L10.1095 3.22965L10 2.13268L13.4874 2.98181C14.5327 3.23632 15.1883 4.35434 14.9518 5.47897L13.2732 12.7791C13.0367 13.9037 11.9976 14.6091 10.9523 14.3546Z" fill="#212121"/>
</svg>
