<svg width="16" height="16" viewBox="0 0 16 16" fill="none" xmlns="http://www.w3.org/2000/svg">
<path d="M9.77777 8H8V6.22222C8 5.7313 7.60203 5.33333 7.11111 5.33333C6.62019 5.33333 6.22222 5.7313 6.22222 6.22222V8.88889C6.22222 9.37981 6.62019 9.77777 7.11111 9.77777H9.77777C10.2687 9.77777 10.6667 9.37981 10.6667 8.88889C10.6667 8.39797 10.2687 8 9.77777 8Z" fill="#212121"/>
<path fill-rule="evenodd" clip-rule="evenodd" d="M8 0.888885C11.9131 0.888885 15.1111 4.08685 15.1111 8C15.1111 11.9131 11.9131 15.1111 8 15.1111C4.08685 15.1111 0.888885 11.9131 0.888885 8C0.888885 4.08685 4.08685 0.888885 8 0.888885ZM8 2.66666C5.06869 2.66666 2.66666 5.06869 2.66666 8C2.66666 10.9313 5.06869 13.3333 8 13.3333C10.9313 13.3333 13.3333 10.9313 13.3333 8C13.3333 5.06869 10.9313 2.66666 8 2.66666Z" fill="#212121"/>
</svg>
