<svg width="24" height="25" viewBox="0 0 24 25" fill="none" xmlns="http://www.w3.org/2000/svg">
<path d="M15.5277 4.23761C15.6029 3.6719 15.6363 3.14873 15.6488 2.7923C13.8592 2.08382 11.9024 1.91318 10.0176 2.30124C11.4604 2.86409 12.8217 3.61759 14.0654 4.54174C14.523 4.32899 15.0234 4.22491 15.5277 4.23761Z" fill="#212121"/>
<path d="M20.322 6.55773C19.7472 6.3297 19.136 6.20753 18.5179 6.1971C18.4505 6.03537 18.3695 5.87971 18.2757 5.73184C17.941 5.22413 17.4724 4.81943 16.9219 4.56277C16.979 4.16865 17.0151 3.79756 17.0388 3.46832C18.3524 4.23591 19.4749 5.29224 20.322 6.55773Z" fill="#212121"/>
<path d="M15.1586 8.80437C14.2393 8.62495 13.6355 7.73736 13.8048 6.81429C14.0228 6.09776 14.698 5.62071 15.4447 5.65567C15.6139 5.65584 15.7825 5.67717 15.9465 5.71915C16.4112 5.83258 16.8167 6.11626 17.0831 6.51434C17.3041 6.83076 17.3905 7.2222 17.3234 7.60251C17.2563 7.98281 17.0412 8.32081 16.7253 8.54209C16.666 8.58422 16.6034 8.62154 16.5381 8.6537C16.1131 8.87476 15.621 8.92851 15.1586 8.80437Z" fill="#212121"/>
<path d="M7.90104 3.00154C9.66465 3.61564 11.3494 4.43703 12.9201 5.44851C12.6883 5.74887 12.5194 6.09316 12.4239 6.46065C12.3978 6.58322 12.3801 6.70744 12.371 6.83244C8.58308 7.55291 5.03802 9.22017 2.06445 11.6796C2.22415 7.91627 4.48012 4.56201 7.90104 3.00154Z" fill="#212121"/>
<path d="M12.5519 8.2525C8.66863 9.01226 5.07053 10.8332 2.15527 13.5141C2.64491 16.9161 4.84132 19.8288 7.97342 21.2295C10.732 17.8937 12.8133 14.0495 14.0999 9.91335C13.4013 9.5644 12.8517 8.97472 12.5519 8.2525Z" fill="#212121"/>
<path d="M12.0218 22.0982C11.1411 22.0952 10.2646 21.9748 9.41553 21.7403C12.1361 18.3376 14.1927 14.4517 15.4776 10.286L15.6649 10.2978C16.2037 10.2994 16.7345 10.1673 17.2101 9.9135L17.2219 9.90582C19.9476 13.1138 19.4631 17.8627 19.3163 18.8992C17.4356 20.9373 14.7918 22.0967 12.0218 22.0982Z" fill="#212121"/>
<path d="M18.2744 8.94125C20.3744 11.3792 20.8553 14.4895 20.879 16.6854C22.0607 14.4189 22.3199 11.7817 21.6022 9.32769C20.9416 8.37369 19.8955 7.75936 18.7422 7.64801C18.7324 7.78769 18.7122 7.92643 18.6816 8.06305C18.5967 8.37686 18.459 8.67386 18.2744 8.94125Z" fill="#212121"/>
</svg>
