<svg width="24" height="24" viewBox="0 0 24 24" fill="none" xmlns="http://www.w3.org/2000/svg">
<path d="M15.5277 4.1394C15.6029 3.5737 15.6363 3.05052 15.6488 2.6941C13.8592 1.98562 11.9024 1.81497 10.0176 2.20303C11.4604 2.76589 12.8217 3.51938 14.0654 4.44353C14.523 4.23078 15.0234 4.12671 15.5277 4.1394Z" fill="#212121"/>
<path d="M20.322 6.45952C19.7472 6.23149 19.136 6.10932 18.5179 6.09889C18.4505 5.93716 18.3695 5.78151 18.2757 5.63363C17.941 5.12593 17.4724 4.72122 16.9219 4.46456C16.979 4.07045 17.0151 3.69936 17.0388 3.37012C18.3524 4.1377 19.4749 5.19403 20.322 6.45952Z" fill="#212121"/>
<path d="M15.1586 8.70616C14.2393 8.52675 13.6355 7.63916 13.8048 6.71608C14.0228 5.99956 14.698 5.52251 15.4447 5.55747C15.6139 5.55764 15.7825 5.57896 15.9465 5.62094C16.4112 5.73437 16.8167 6.01806 17.0831 6.41614C17.3041 6.73255 17.3905 7.124 17.3234 7.5043C17.2563 7.88461 17.0412 8.2226 16.7253 8.44388C16.666 8.48602 16.6034 8.52334 16.5381 8.55549C16.1131 8.77656 15.621 8.83031 15.1586 8.70616Z" fill="#212121"/>
<path d="M7.90104 2.90333C9.66465 3.51743 11.3494 4.33882 12.9201 5.35031C12.6883 5.65066 12.5194 5.99496 12.4239 6.36244C12.3978 6.48501 12.3801 6.60924 12.371 6.73423C8.58308 7.45471 5.03802 9.12196 2.06445 11.5814C2.22415 7.81806 4.48012 4.4638 7.90104 2.90333Z" fill="#212121"/>
<path d="M12.5519 8.1543C8.66863 8.91406 5.07053 10.735 2.15527 13.4158C2.64491 16.8179 4.84132 19.7306 7.97342 21.1313C10.732 17.7955 12.8133 13.9513 14.0999 9.81515C13.4013 9.46619 12.8517 8.87652 12.5519 8.1543Z" fill="#212121"/>
<path d="M12.0218 21.9999C11.1411 21.997 10.2646 21.8766 9.41553 21.6421C12.1361 18.2394 14.1927 14.3535 15.4776 10.1878L15.6649 10.1996C16.2037 10.2012 16.7345 10.0691 17.2101 9.8153L17.2219 9.80762C19.9476 13.0156 19.4631 17.7645 19.3163 18.801C17.4356 20.8391 14.7918 21.9985 12.0218 21.9999Z" fill="#212121"/>
<path d="M18.2744 8.84305C20.3744 11.2809 20.8553 14.3913 20.879 16.5871C22.0607 14.3207 22.3199 11.6835 21.6022 9.22948C20.9416 8.27549 19.8955 7.66115 18.7422 7.54981C18.7324 7.68948 18.7122 7.82822 18.6816 7.96485C18.5967 8.27866 18.459 8.57565 18.2744 8.84305Z" fill="#212121"/>
</svg>
