<svg width="24" height="25" viewBox="0 0 24 25" fill="none" xmlns="http://www.w3.org/2000/svg">
<path d="M12 20.7578C12.4255 20.7578 12.6383 20.4741 12.7092 20.1195C12.7801 20.2613 12.922 20.4032 13.0638 20.4741C13.2057 20.4741 13.4184 20.4741 13.5603 20.4032C13.7021 20.3323 13.844 20.1904 13.9149 20.0486C13.9858 19.9067 13.9858 19.694 13.9149 19.5521C14.1277 19.8358 14.4113 19.9067 14.766 19.7649C15.1915 19.5521 15.3333 19.2684 15.1206 18.8429C14.6241 17.6372 14.1277 16.5025 13.6312 15.2968C13.5603 15.1549 13.5603 15.084 13.4894 14.9422C13.4184 14.8713 13.4184 14.8003 13.3475 14.7294C13.3475 14.6585 13.2766 14.6585 13.2057 14.5876C13.9858 14.6585 14.3404 14.9422 14.5532 15.084C14.6241 15.1549 14.6241 15.1549 14.8369 15.084C14.9078 15.084 15.0496 15.084 15.1206 15.084C15.1915 15.1549 15.3333 15.2259 15.4043 15.2259C15.6879 15.4386 15.9716 15.6514 16.2553 15.8642C16.3972 16.006 16.539 16.1479 16.539 16.3606C16.539 16.5025 16.1135 16.8571 16.0426 16.9989C15.7589 17.2826 16.1844 17.7081 16.7518 17.7081C16.6099 17.5663 16.539 17.4244 16.6099 17.2826C16.6809 17.2826 16.7518 17.2826 16.8936 17.2117C17.0355 17.1408 16.9645 16.7861 17.0355 16.7152C17.2482 16.5025 17.8156 16.5025 18.2411 16.5025C18.383 16.5025 18.5957 16.4315 18.5248 16.2188C18.7376 16.2188 18.8085 16.4315 18.8085 16.5734C19.0213 16.4315 19.1631 15.9351 18.4539 15.7932C18.5957 15.6514 18.8085 15.6514 18.9504 15.7932C19.0922 15.5805 18.7376 15.2259 18.1702 15.4386C18.1702 15.4386 17.8865 15.084 17.1773 15.9351C17.1064 15.8642 16.9645 15.7932 16.8936 15.7223C16.6099 15.4386 15.9007 14.7294 15.9007 14.7294C15.9007 14.3039 15.8298 13.5237 15.3333 13.0982C15.1206 12.8854 14.9078 12.8145 14.4113 12.6727C14.4113 12.6727 14.6241 12.3181 14.695 12.1762C15.1206 12.6018 15.9716 12.7436 15.9716 12.0344C16.6809 12.7436 17.3191 12.3181 17.3191 11.8925C17.3191 12.1053 17.3901 12.3181 17.461 12.5308C17.5319 12.7436 17.8865 13.6656 18.6667 13.6656C18.6667 13.9493 18.6667 15.0131 19.6596 15.2259C19.7305 15.2259 19.7305 15.2259 19.8014 15.2968C20.2269 15.7932 21.8582 16.2897 22 16.1479C21.8582 16.0769 21.6454 15.9351 21.6454 15.3677C21.6454 15.0131 21.5745 13.0273 21.5745 10.2613C21.5745 9.26842 21.5035 6.07693 18.3121 5.6514C17.8156 5.58047 17.3901 5.6514 16.9645 5.93509C16.3972 6.36062 16.1135 7.06984 16.4681 7.84998V7.9209C16.6099 8.13366 16.539 8.27551 16.3972 8.41736C16.1135 8.70104 15.8298 8.84289 15.4752 8.91381C15.2624 8.91381 15.0496 8.84289 14.9078 8.70104C14.5532 8.34643 14.3404 7.9209 14.1986 7.42445C14.0567 6.50246 14.2695 6.00601 14.2695 5.93509C14.5532 5.43863 15.0496 5.0131 15.6879 5.0131C15.9716 4.44572 16.8227 4.65849 16.8227 4.65849C17.0355 4.72941 17.1064 4.72941 17.1773 4.87126C17.1773 4.87126 17.5319 4.30388 17.1773 4.09111C16.8227 3.87835 16.0426 3.80743 16.0426 3.80743C16.0426 3.45282 15.4752 3.16913 14.3404 3.38189C13.0638 3.59466 12.7801 3.09821 12.7801 3.09821C12.7092 3.7365 13.2057 4.02019 13.3475 4.16204C12.8511 4.72941 12.1418 5.79324 12 7.2826C11.8582 5.79324 11.1489 4.72941 10.6525 4.16204C10.7943 4.09111 11.2908 3.7365 11.2199 3.09821C11.2199 3.09821 10.9362 3.59466 9.65957 3.38189C8.59574 3.16913 7.95744 3.45282 7.95744 3.80743C7.95744 3.80743 7.1773 3.87835 6.82269 4.09111C6.46808 4.30388 6.82269 4.87126 6.82269 4.87126C6.89361 4.80033 6.96454 4.72941 7.1773 4.65849C7.1773 4.65849 8.02837 4.44572 8.31205 5.0131C8.95035 5.08402 9.44681 5.43863 9.73049 5.93509C9.73049 5.93509 10.0142 6.43154 9.80142 7.42445C9.7305 7.9209 9.44681 8.34643 9.0922 8.70104C8.95036 8.84289 8.73759 8.98473 8.52482 8.91381C8.17021 8.84289 7.88652 8.70104 7.60283 8.41736C7.46099 8.27551 7.39007 8.13366 7.53191 7.9209V7.84998C7.88652 7.06984 7.60284 6.36062 7.03546 5.93509C6.60993 5.6514 6.1844 5.58047 5.68794 5.6514C2.56737 6.07693 2.42553 9.26842 2.42553 10.2613C2.42553 13.0273 2.35461 15.0131 2.35461 15.3677C2.35461 15.9351 2.14184 16.0769 2 16.1479C2.21277 16.2897 3.84397 15.7932 4.19858 15.2968C4.19858 15.2968 4.2695 15.2259 4.34042 15.2259C5.33333 15.0131 5.33333 13.9493 5.33333 13.6656C6.11347 13.6656 6.46808 12.7436 6.539 12.5308C6.60993 12.3181 6.68085 12.1053 6.68085 11.8925C6.68085 12.3181 7.31915 12.6727 8.02837 12.0344C8.02837 12.7436 8.87943 12.6018 9.30496 12.1762C9.37588 12.3181 9.58865 12.6727 9.58865 12.6727C9.0922 12.7436 8.87943 12.8854 8.66666 13.0982C8.09929 13.5947 8.09929 14.3748 8.09929 14.7294C8.09929 14.7294 7.39007 15.4386 7.10638 15.7223C7.03546 15.7932 6.89361 15.8642 6.82269 15.9351C6.04255 15.084 5.82978 15.4386 5.82978 15.4386C5.26241 15.2259 4.97872 15.5805 5.04964 15.7932C5.19149 15.6514 5.40426 15.7223 5.5461 15.7932C4.76596 15.9351 4.97872 16.5025 5.19149 16.5734C5.19149 16.4315 5.26241 16.2188 5.47517 16.2188C5.47517 16.4315 5.61702 16.5025 5.75886 16.5025C6.11347 16.5025 6.75177 16.5025 6.96454 16.7152C7.10638 16.7861 7.03546 17.1408 7.10638 17.2117C7.1773 17.2826 7.31915 17.2826 7.39007 17.2826C7.39007 17.4244 7.39007 17.4954 7.24822 17.7081C7.8156 17.7791 8.17021 17.2826 7.95744 16.9989C7.8156 16.8571 7.46099 16.5025 7.46099 16.3606C7.46099 16.2188 7.60284 16.006 7.74468 15.8642C8.02837 15.6514 8.31205 15.4386 8.59574 15.2259C8.66666 15.1549 8.73759 15.084 8.87943 15.084C8.95035 15.0131 9.0922 15.0131 9.16312 15.084C9.37589 15.1549 9.37589 15.1549 9.44681 15.084C9.65958 14.9422 10.0142 14.6585 10.7943 14.5876C10.7234 14.5876 10.7234 14.6585 10.6525 14.7294C10.5816 14.8003 10.5816 14.8713 10.5106 14.9422C10.4397 15.0131 10.4397 15.1549 10.3688 15.2968C9.87234 16.5025 9.37589 17.6372 8.87943 18.8429C8.73759 19.2684 8.87943 19.5521 9.23404 19.7649C9.51773 19.9067 9.87234 19.8358 10.0851 19.5521C10.0142 19.7649 10.0142 19.9067 10.0851 20.0486C10.156 20.1904 10.2979 20.3323 10.4397 20.4032C10.5816 20.4741 10.7943 20.4741 10.9362 20.4741C11.1489 20.4032 11.2199 20.3323 11.2908 20.1195C11.3617 20.4741 11.5745 20.7578 12 20.7578Z" fill="#212121"/>
</svg>
