<svg width="24" height="24" viewBox="0 0 24 24" fill="none" xmlns="http://www.w3.org/2000/svg">
<path d="M12 20.6596C12.4255 20.6596 12.6383 20.3759 12.7092 20.0213C12.7801 20.1631 12.922 20.305 13.0638 20.3759C13.2057 20.3759 13.4184 20.3759 13.5603 20.305C13.7021 20.234 13.844 20.0922 13.9149 19.9504C13.9858 19.8085 13.9858 19.5957 13.9149 19.4539C14.1277 19.7376 14.4113 19.8085 14.766 19.6667C15.1915 19.4539 15.3333 19.1702 15.1206 18.7447C14.6241 17.539 14.1277 16.4043 13.6312 15.1986C13.5603 15.0567 13.5603 14.9858 13.4894 14.844C13.4184 14.773 13.4184 14.7021 13.3475 14.6312C13.3475 14.5603 13.2766 14.5603 13.2057 14.4894C13.9858 14.5603 14.3404 14.844 14.5532 14.9858C14.6241 15.0567 14.6241 15.0567 14.8369 14.9858C14.9078 14.9858 15.0496 14.9858 15.1206 14.9858C15.1915 15.0567 15.3333 15.1277 15.4043 15.1277C15.6879 15.3404 15.9716 15.5532 16.2553 15.766C16.3972 15.9078 16.539 16.0496 16.539 16.2624C16.539 16.4043 16.1135 16.7589 16.0426 16.9007C15.7589 17.1844 16.1844 17.6099 16.7518 17.6099C16.6099 17.4681 16.539 17.3262 16.6099 17.1844C16.6809 17.1844 16.7518 17.1844 16.8936 17.1135C17.0355 17.0426 16.9645 16.6879 17.0355 16.617C17.2482 16.4043 17.8156 16.4043 18.2411 16.4043C18.383 16.4043 18.5957 16.3333 18.5248 16.1206C18.7376 16.1206 18.8085 16.3333 18.8085 16.4752C19.0213 16.3333 19.1631 15.8369 18.4539 15.695C18.5957 15.5532 18.8085 15.5532 18.9504 15.695C19.0922 15.4823 18.7376 15.1277 18.1702 15.3404C18.1702 15.3404 17.8865 14.9858 17.1773 15.8369C17.1064 15.766 16.9645 15.695 16.8936 15.6241C16.6099 15.3404 15.9007 14.6312 15.9007 14.6312C15.9007 14.2057 15.8298 13.4255 15.3333 13C15.1206 12.7872 14.9078 12.7163 14.4113 12.5745C14.4113 12.5745 14.6241 12.2199 14.695 12.078C15.1206 12.5035 15.9716 12.6454 15.9716 11.9362C16.6809 12.6454 17.3191 12.2199 17.3191 11.7943C17.3191 12.0071 17.3901 12.2199 17.461 12.4326C17.5319 12.6454 17.8865 13.5674 18.6667 13.5674C18.6667 13.8511 18.6667 14.9149 19.6596 15.1277C19.7305 15.1277 19.7305 15.1277 19.8014 15.1986C20.2269 15.695 21.8582 16.1915 22 16.0496C21.8582 15.9787 21.6454 15.8369 21.6454 15.2695C21.6454 14.9149 21.5745 12.9291 21.5745 10.1631C21.5745 9.17021 21.5035 5.97872 18.3121 5.55319C17.8156 5.48227 17.3901 5.55319 16.9645 5.83688C16.3972 6.26241 16.1135 6.97163 16.4681 7.75177V7.82269C16.6099 8.03546 16.539 8.17731 16.3972 8.31915C16.1135 8.60284 15.8298 8.74468 15.4752 8.8156C15.2624 8.8156 15.0496 8.74468 14.9078 8.60284C14.5532 8.24823 14.3404 7.82269 14.1986 7.32624C14.0567 6.40425 14.2695 5.9078 14.2695 5.83688C14.5532 5.34043 15.0496 4.91489 15.6879 4.91489C15.9716 4.34752 16.8227 4.56028 16.8227 4.56028C17.0355 4.6312 17.1064 4.63121 17.1773 4.77305C17.1773 4.77305 17.5319 4.20568 17.1773 3.99291C16.8227 3.78014 16.0426 3.70922 16.0426 3.70922C16.0426 3.35461 15.4752 3.07092 14.3404 3.28369C13.0638 3.49646 12.7801 3 12.7801 3C12.7092 3.6383 13.2057 3.92199 13.3475 4.06383C12.8511 4.63121 12.1418 5.69504 12 7.1844C11.8582 5.69504 11.1489 4.63121 10.6525 4.06383C10.7943 3.99291 11.2908 3.6383 11.2199 3C11.2199 3 10.9362 3.49646 9.65957 3.28369C8.59574 3.07092 7.95744 3.35461 7.95744 3.70922C7.95744 3.70922 7.1773 3.78014 6.82269 3.99291C6.46808 4.20568 6.82269 4.77305 6.82269 4.77305C6.89361 4.70213 6.96454 4.6312 7.1773 4.56028C7.1773 4.56028 8.02837 4.34752 8.31205 4.91489C8.95035 4.98581 9.44681 5.34043 9.73049 5.83688C9.73049 5.83688 10.0142 6.33333 9.80142 7.32624C9.7305 7.82269 9.44681 8.24823 9.0922 8.60284C8.95036 8.74468 8.73759 8.88652 8.52482 8.8156C8.17021 8.74468 7.88652 8.60284 7.60283 8.31915C7.46099 8.17731 7.39007 8.03546 7.53191 7.82269V7.75177C7.88652 6.97163 7.60284 6.26241 7.03546 5.83688C6.60993 5.55319 6.1844 5.48227 5.68794 5.55319C2.56737 5.97872 2.42553 9.17021 2.42553 10.1631C2.42553 12.9291 2.35461 14.9149 2.35461 15.2695C2.35461 15.8369 2.14184 15.9787 2 16.0496C2.21277 16.1915 3.84397 15.695 4.19858 15.1986C4.19858 15.1986 4.2695 15.1277 4.34042 15.1277C5.33333 14.9149 5.33333 13.8511 5.33333 13.5674C6.11347 13.5674 6.46808 12.6454 6.539 12.4326C6.60993 12.2199 6.68085 12.0071 6.68085 11.7943C6.68085 12.2199 7.31915 12.5745 8.02837 11.9362C8.02837 12.6454 8.87943 12.5035 9.30496 12.078C9.37588 12.2199 9.58865 12.5745 9.58865 12.5745C9.0922 12.6454 8.87943 12.7872 8.66666 13C8.09929 13.4965 8.09929 14.2766 8.09929 14.6312C8.09929 14.6312 7.39007 15.3404 7.10638 15.6241C7.03546 15.695 6.89361 15.766 6.82269 15.8369C6.04255 14.9858 5.82978 15.3404 5.82978 15.3404C5.26241 15.1277 4.97872 15.4823 5.04964 15.695C5.19149 15.5532 5.40426 15.6241 5.5461 15.695C4.76596 15.8369 4.97872 16.4043 5.19149 16.4752C5.19149 16.3333 5.26241 16.1206 5.47517 16.1206C5.47517 16.3333 5.61702 16.4043 5.75886 16.4043C6.11347 16.4043 6.75177 16.4043 6.96454 16.617C7.10638 16.6879 7.03546 17.0426 7.10638 17.1135C7.1773 17.1844 7.31915 17.1844 7.39007 17.1844C7.39007 17.3262 7.39007 17.3972 7.24822 17.6099C7.8156 17.6809 8.17021 17.1844 7.95744 16.9007C7.8156 16.7589 7.46099 16.4043 7.46099 16.2624C7.46099 16.1206 7.60284 15.9078 7.74468 15.766C8.02837 15.5532 8.31205 15.3404 8.59574 15.1277C8.66666 15.0567 8.73759 14.9858 8.87943 14.9858C8.95035 14.9149 9.0922 14.9149 9.16312 14.9858C9.37589 15.0567 9.37589 15.0567 9.44681 14.9858C9.65958 14.844 10.0142 14.5603 10.7943 14.4894C10.7234 14.4894 10.7234 14.5603 10.6525 14.6312C10.5816 14.7021 10.5816 14.773 10.5106 14.844C10.4397 14.9149 10.4397 15.0567 10.3688 15.1986C9.87234 16.4043 9.37589 17.539 8.87943 18.7447C8.73759 19.1702 8.87943 19.4539 9.23404 19.6667C9.51773 19.8085 9.87234 19.7376 10.0851 19.4539C10.0142 19.6667 10.0142 19.8085 10.0851 19.9504C10.156 20.0922 10.2979 20.234 10.4397 20.305C10.5816 20.3759 10.7943 20.3759 10.9362 20.3759C11.1489 20.305 11.2199 20.234 11.2908 20.0213C11.3617 20.3759 11.5745 20.6596 12 20.6596Z" fill="#212121"/>
</svg>
