<svg width="24" height="25" viewBox="0 0 24 25" fill="none" xmlns="http://www.w3.org/2000/svg">
<path fill-rule="evenodd" clip-rule="evenodd" d="M7 6.09821V5.09821C7 2.88907 8.79086 1.09821 11 1.09821H13C15.2091 1.09821 17 2.88907 17 5.09821V6.09821H20C21.1046 6.09821 22 6.99364 22 8.09821V9.59821C22 11.2551 20.6569 12.5982 19 12.5982H5C3.34315 12.5982 2 11.2551 2 9.59821V8.09821C2 6.99364 2.89543 6.09821 4 6.09821H7ZM9 5.09821C9 3.99364 9.89543 3.09821 11 3.09821H13C14.1046 3.09821 15 3.99364 15 5.09821V6.09821H9V5.09821Z" fill="#212121"/>
<path d="M4.91421 14.0982C4.00871 14.0982 3.14029 13.7385 2.5 13.0982L2.76559 17.3477C2.89735 19.4559 4.64555 21.0982 6.7578 21.0982H17.2422C19.3544 21.0982 21.1026 19.4559 21.2344 17.3477L21.5 13.0982C20.8597 13.7385 19.9913 14.0982 19.0858 14.0982H14V15.0982C14 16.2028 13.1046 17.0982 12 17.0982C10.8954 17.0982 10 16.2028 10 15.0982V14.0982H4.91421Z" fill="#212121"/>
</svg>
