<svg width="24" height="24" viewBox="0 0 24 24" fill="none" xmlns="http://www.w3.org/2000/svg">
<path fill-rule="evenodd" clip-rule="evenodd" d="M7 6V5C7 2.79086 8.79086 1 11 1H13C15.2091 1 17 2.79086 17 5V6H20C21.1046 6 22 6.89543 22 8V9.5C22 11.1569 20.6569 12.5 19 12.5H5C3.34315 12.5 2 11.1569 2 9.5V8C2 6.89543 2.89543 6 4 6H7ZM9 5C9 3.89543 9.89543 3 11 3H13C14.1046 3 15 3.89543 15 5V6H9V5Z" fill="#212121"/>
<path d="M4.91421 14C4.00871 14 3.14029 13.6403 2.5 13L2.76559 17.2495C2.89735 19.3577 4.64555 21 6.7578 21H17.2422C19.3544 21 21.1026 19.3577 21.2344 17.2495L21.5 13C20.8597 13.6403 19.9913 14 19.0858 14H14V15C14 16.1046 13.1046 17 12 17C10.8954 17 10 16.1046 10 15V14H4.91421Z" fill="#212121"/>
</svg>
