<svg width="24" height="24" viewBox="0 0 24 24" fill="none" xmlns="http://www.w3.org/2000/svg">
<path d="M5.74996 9.36802C5.74996 8.38875 7.10746 8.13893 7.45608 9.05405L7.91167 10.25H6.63191C6.14483 10.25 5.74996 9.85511 5.74996 9.36802Z" fill="#212121"/>
<path d="M12.25 9.36802C12.25 8.38875 10.8925 8.13893 10.5439 9.05405L10.0883 10.25H11.3681C11.8552 10.25 12.25 9.85511 12.25 9.36802Z" fill="#212121"/>
<path fill-rule="evenodd" clip-rule="evenodd" d="M8.5 5.25V3H5C3.34315 3 2 4.34315 2 6V10.5H3.25C3.66421 10.5 4 10.8358 4 11.25C4 11.6642 3.66421 12 3.25 12H2V17C2 18.6569 3.34315 20 5 20H8.5V16.75C8.5 16.3358 8.83579 16 9.25 16C9.66421 16 10 16.3358 10 16.75V20H19C20.6569 20 22 18.6569 22 17V12H14.75C14.3358 12 14 11.6642 14 11.25C14 10.8358 14.3358 10.5 14.75 10.5H22V6C22 4.34315 20.6569 3 19 3H10V5.25C10 5.66421 9.66421 6 9.25 6C8.83579 6 8.5 5.66421 8.5 5.25ZM8.85781 8.52006C7.91628 6.04852 4.24996 6.72321 4.24996 9.36802C4.24996 10.6835 5.3164 11.75 6.63191 11.75H7.59861L6.37592 13.584C6.14616 13.9287 6.23929 14.3943 6.58393 14.6241C6.92858 14.8538 7.39423 14.7607 7.624 14.4161L8.99996 12.3521L10.3759 14.4161C10.6057 14.7607 11.0713 14.8538 11.416 14.6241C11.7606 14.3943 11.8538 13.9287 11.624 13.584L10.4013 11.75H11.3681C12.6836 11.75 13.75 10.6835 13.75 9.36802C13.75 6.72321 10.0837 6.04852 9.14219 8.52006L9 8.8933L8.85781 8.52006Z" fill="#212121"/>
</svg>
