<svg width="24" height="25" viewBox="0 0 24 25" fill="none" xmlns="http://www.w3.org/2000/svg">
<path d="M5.74996 9.46623C5.74996 8.48695 7.10746 8.23713 7.45608 9.15226L7.91167 10.3482H6.63191C6.14483 10.3482 5.74996 9.95331 5.74996 9.46623Z" fill="#212121"/>
<path d="M12.25 9.46623C12.25 8.48695 10.8925 8.23713 10.5439 9.15226L10.0883 10.3482H11.3681C11.8552 10.3482 12.25 9.95331 12.25 9.46623Z" fill="#212121"/>
<path fill-rule="evenodd" clip-rule="evenodd" d="M8.5 5.34821V3.09821H5C3.34315 3.09821 2 4.44135 2 6.09821V10.5982H3.25C3.66421 10.5982 4 10.934 4 11.3482C4 11.7624 3.66421 12.0982 3.25 12.0982H2V17.0982C2 18.7551 3.34315 20.0982 5 20.0982H8.5V16.8482C8.5 16.434 8.83579 16.0982 9.25 16.0982C9.66421 16.0982 10 16.434 10 16.8482V20.0982H19C20.6569 20.0982 22 18.7551 22 17.0982V12.0982H14.75C14.3358 12.0982 14 11.7624 14 11.3482C14 10.934 14.3358 10.5982 14.75 10.5982H22V6.09821C22 4.44135 20.6569 3.09821 19 3.09821H10V5.34821C10 5.76242 9.66421 6.09821 9.25 6.09821C8.83579 6.09821 8.5 5.76242 8.5 5.34821ZM8.85781 8.61826C7.91628 6.14673 4.24996 6.82141 4.24996 9.46623C4.24996 10.7817 5.3164 11.8482 6.63191 11.8482H7.59861L6.37592 13.6822C6.14616 14.0269 6.23929 14.4925 6.58393 14.7223C6.92858 14.952 7.39423 14.8589 7.624 14.5143L8.99996 12.4503L10.3759 14.5143C10.6057 14.8589 11.0713 14.952 11.416 14.7223C11.7606 14.4925 11.8538 14.0269 11.624 13.6822L10.4013 11.8482H11.3681C12.6836 11.8482 13.75 10.7817 13.75 9.46623C13.75 6.82141 10.0837 6.14673 9.14219 8.61826L9 8.9915L8.85781 8.61826Z" fill="#212121"/>
</svg>
