<svg width="24" height="25" viewBox="0 0 24 25" fill="none" xmlns="http://www.w3.org/2000/svg">
<path d="M5 12.7231C5.9665 12.7231 6.75 13.5066 6.75 14.4731V20.4731C6.75 21.4396 5.9665 22.2231 5 22.2231C4.0335 22.2231 3.25 21.4396 3.25 20.4731V14.4731C3.25 13.5066 4.0335 12.7231 5 12.7231ZM12 1.72314C12.9665 1.72314 13.75 2.50665 13.75 3.47314V20.4731C13.75 21.4396 12.9665 22.2231 12 22.2231C11.0335 22.2231 10.25 21.4396 10.25 20.4731V3.47314C10.25 2.50665 11.0335 1.72314 12 1.72314ZM19 6.72314C19.9665 6.72314 20.75 7.50665 20.75 8.47314V20.4731C20.75 21.4396 19.9665 22.2231 19 22.2231C18.0335 22.2231 17.25 21.4396 17.25 20.4731V8.47314C17.25 7.50665 18.0335 6.72314 19 6.72314Z" fill="#212121" stroke="#F5F5F5" stroke-width="1.5" stroke-linecap="round"/>
</svg>
