<svg width="24" height="24" viewBox="0 0 24 24" fill="none" xmlns="http://www.w3.org/2000/svg">
<path fill-rule="evenodd" clip-rule="evenodd" d="M12 21.9018C17.5228 21.9018 22 17.4246 22 11.9018C22 6.37895 17.5228 1.90179 12 1.90179C6.47715 1.90179 2 6.37895 2 11.9018C2 17.4246 6.47715 21.9018 12 21.9018ZM17.7643 8.54669C18.1205 8.12458 18.067 7.49368 17.6449 7.13752C17.2228 6.78137 16.5919 6.83484 16.2357 7.25695L10.2199 14.3867L8.73812 12.7656C8.3655 12.358 7.73297 12.3296 7.32533 12.7022C6.91768 13.0748 6.88928 13.7073 7.2619 14.115L9.5119 16.5765C9.70601 16.7889 9.98219 16.9073 10.2698 16.9016C10.5575 16.8959 10.8288 16.7666 11.0143 16.5467L17.7643 8.54669Z" fill="#212121"/>
</svg>
