<svg width="24" height="24" viewBox="0 0 24 24" fill="none" xmlns="http://www.w3.org/2000/svg">
<path fill-rule="evenodd" clip-rule="evenodd" d="M12 22C17.5228 22 22 17.5228 22 12C22 6.47715 17.5228 2 12 2C6.47715 2 2 6.47715 2 12C2 17.5228 6.47715 22 12 22ZM16.9497 15.5355C17.3403 15.926 17.3403 16.5592 16.9497 16.9497C16.5592 17.3402 15.9261 17.3402 15.5355 16.9497L12 13.4142L8.46443 16.9497C8.07391 17.3403 7.44074 17.3403 7.05022 16.9497C6.65969 16.5592 6.65969 15.926 7.05022 15.5355L10.5858 12L7.05025 8.46443C6.65973 8.07391 6.65973 7.44074 7.05025 7.05022C7.44077 6.65969 8.07394 6.65969 8.46446 7.05022L12 10.5857L15.5355 7.05024C15.926 6.65971 16.5592 6.65971 16.9497 7.05024C17.3402 7.44076 17.3402 8.07393 16.9497 8.46445L13.4142 12L16.9497 15.5355Z" fill="black"/>
</svg>
