<svg width="24" height="25" viewBox="0 0 24 25" fill="none" xmlns="http://www.w3.org/2000/svg">
<path fill-rule="evenodd" clip-rule="evenodd" d="M12 22.0982C17.5228 22.0982 22 17.6211 22 12.0982C22 6.57536 17.5228 2.09821 12 2.09821C6.47715 2.09821 2 6.57536 2 12.0982C2 17.6211 6.47715 22.0982 12 22.0982ZM16.9497 15.6337C17.3403 16.0242 17.3403 16.6574 16.9497 17.0479C16.5592 17.4384 15.9261 17.4384 15.5355 17.0479L12 13.5124L8.46443 17.0479C8.07391 17.4385 7.44074 17.4385 7.05022 17.0479C6.65969 16.6574 6.65969 16.0242 7.05022 15.6337L10.5858 12.0982L7.05025 8.56264C6.65973 8.17211 6.65973 7.53895 7.05025 7.14842C7.44077 6.7579 8.07394 6.7579 8.46446 7.14842L12 10.684L15.5355 7.14844C15.926 6.75792 16.5592 6.75792 16.9497 7.14844C17.3402 7.53897 17.3402 8.17213 16.9497 8.56266L13.4142 12.0982L16.9497 15.6337Z" fill="#212121"/>
</svg>
