<svg width="24" height="25" viewBox="0 0 24 25" fill="none" xmlns="http://www.w3.org/2000/svg">
<path d="M13 6.83258C13.5978 6.48677 14 5.84043 14 5.10016C14 3.99559 13.1046 3.10016 12 3.10016C10.8954 3.10016 10 3.99559 10 5.10016C10 5.84045 10.4022 6.4868 11 6.83261V8.10018C11 9.60016 9.99126 12.1002 7.49563 12.1002C5.2513 12.1002 4.58341 10.6132 4.14175 8.74245C4.66051 8.38112 5 7.78029 5 7.10016C5 5.99559 4.10457 5.10016 3 5.10016C1.89543 5.10016 1 5.99559 1 7.10016C1 7.91692 1.4896 8.61934 2.19133 8.92993L5.00003 21.0963H19L21.8084 8.93003C22.5103 8.6195 23 7.91702 23 7.10016C23 5.99559 22.1046 5.10016 21 5.10016C19.8954 5.10016 19 5.99559 19 7.10016C19 7.78088 19.3401 8.38216 19.8596 8.74339C19.421 10.6188 18.7483 12.1002 16.5 12.1002C14 12.1002 13 9.60014 13 8.60016V6.83258Z" fill="#212121"/>
</svg>
