<svg width="24" height="24" viewBox="0 0 24 24" fill="none" xmlns="http://www.w3.org/2000/svg">
<path d="M13 6.73437C13.5978 6.38856 14 5.74222 14 5.00195C14 3.89738 13.1046 3.00195 12 3.00195C10.8954 3.00195 10 3.89738 10 5.00195C10 5.74225 10.4022 6.3886 11 6.7344V8.00197C11 9.50195 9.99126 12.002 7.49563 12.002C5.2513 12.002 4.58341 10.515 4.14175 8.64424C4.66051 8.28291 5 7.68208 5 7.00195C5 5.89738 4.10457 5.00195 3 5.00195C1.89543 5.00195 1 5.89738 1 7.00195C1 7.81872 1.4896 8.52113 2.19133 8.83172L5.00003 20.9981H19L21.8084 8.83183C22.5103 8.52129 23 7.81881 23 7.00195C23 5.89738 22.1046 5.00195 21 5.00195C19.8954 5.00195 19 5.89738 19 7.00195C19 7.68267 19.3401 8.28396 19.8596 8.64518C19.421 10.5206 18.7483 12.002 16.5 12.002C14 12.002 13 9.50193 13 8.50195V6.73437Z" fill="#212121"/>
</svg>
