<svg width="24" height="24" viewBox="0 0 24 24" fill="none" xmlns="http://www.w3.org/2000/svg">
<path fill-rule="evenodd" clip-rule="evenodd" d="M20 12C20 13.4304 19.7597 14.7907 19.3269 16.0212C14.4947 17.4854 9.31759 17.3639 4.55621 15.6709C4.19723 14.5344 4 13.296 4 12C4 10.4966 4.26542 9.07061 4.74089 7.79137C9.47242 9.35587 14.5684 9.44836 19.3539 8.05634C19.7697 9.26636 20 10.5996 20 12ZM5.01583 16.8805C9.49798 18.3044 14.2937 18.4149 18.834 17.2014C17.4293 20.079 14.8941 22 12 22C8.99958 22 6.38495 19.9353 5.01583 16.8805ZM18.9853 7.12192C14.4463 8.42291 9.62068 8.33426 5.13266 6.86752C6.53035 3.95172 9.08283 2 12 2C15.0012 2 17.6164 4.06581 18.9853 7.12192ZM6.5 14C7.32843 14 8 13.3284 8 12.5C8 11.6716 7.32843 11 6.5 11C5.67157 11 5 11.6716 5 12.5C5 13.3284 5.67157 14 6.5 14ZM19 12.5C19 13.3284 18.3284 14 17.5 14C16.6716 14 16 13.3284 16 12.5C16 11.6716 16.6716 11 17.5 11C18.3284 11 19 11.6716 19 12.5ZM12 15C13.1046 15 14 14.1046 14 13C14 11.8954 13.1046 11 12 11C10.8954 11 10 11.8954 10 13C10 14.1046 10.8954 15 12 15Z" fill="#212121"/>
</svg>
