<svg width="24" height="25" viewBox="0 0 24 25" fill="none" xmlns="http://www.w3.org/2000/svg">
<path fill-rule="evenodd" clip-rule="evenodd" d="M20 12.0982C20 13.5286 19.7597 14.8889 19.3269 16.1194C14.4947 17.5836 9.31759 17.4621 4.55621 15.7691C4.19723 14.6326 4 13.3942 4 12.0982C4 10.5948 4.26542 9.16882 4.74089 7.88958C9.47242 9.45408 14.5684 9.54657 19.3539 8.15454C19.7697 9.36456 20 10.6978 20 12.0982ZM5.01583 16.9787C9.49798 18.4026 14.2937 18.5131 18.834 17.2996C17.4293 20.1772 14.8941 22.0982 12 22.0982C8.99958 22.0982 6.38495 20.0335 5.01583 16.9787ZM18.9853 7.22012C14.4463 8.52111 9.62068 8.43246 5.13266 6.96572C6.53035 4.04993 9.08283 2.09821 12 2.09821C15.0012 2.09821 17.6164 4.16401 18.9853 7.22012ZM6.5 14.0982C7.32843 14.0982 8 13.4266 8 12.5982C8 11.7698 7.32843 11.0982 6.5 11.0982C5.67157 11.0982 5 11.7698 5 12.5982C5 13.4266 5.67157 14.0982 6.5 14.0982ZM19 12.5982C19 13.4266 18.3284 14.0982 17.5 14.0982C16.6716 14.0982 16 13.4266 16 12.5982C16 11.7698 16.6716 11.0982 17.5 11.0982C18.3284 11.0982 19 11.7698 19 12.5982ZM12 15.0982C13.1046 15.0982 14 14.2028 14 13.0982C14 11.9936 13.1046 11.0982 12 11.0982C10.8954 11.0982 10 11.9936 10 13.0982C10 14.2028 10.8954 15.0982 12 15.0982Z" fill="#212121"/>
</svg>
