<svg width="24" height="24" viewBox="0 0 24 24" fill="none" xmlns="http://www.w3.org/2000/svg">
<path fill-rule="evenodd" clip-rule="evenodd" d="M10.5237 22.4403C10.0275 23.3315 9.09706 23.1406 9.28315 21.9947C9.71735 19.3846 10.5237 16.4562 10.7718 13.9098C9.76914 13.9098 9.79154 13.9098 9 13.9098C8.5 13.9098 7.52889 13.9098 6.86404 13.9098C5.99564 13.9098 5.80956 13.4642 6.18173 12.7639C8.29069 9.07162 10.5237 5.252 12.5086 1.5597C12.9428 0.668458 13.8733 0.859439 13.6872 2.00533C13.253 4.48808 12.5086 7.60744 12.2605 10.0265C13 10.0265 12.9017 10.0265 14 10.0265C16 10.0265 15.512 10.0265 16.1948 10.0265C17.0012 10.0265 17.2228 10.4722 16.7886 11.2361C14.7417 14.9284 12.5086 18.6843 10.5237 22.4403Z" fill="black"/>
</svg>
