<svg width="24" height="25" viewBox="0 0 24 25" fill="none" xmlns="http://www.w3.org/2000/svg">
<path fill-rule="evenodd" clip-rule="evenodd" d="M10.5237 22.5385C10.0275 23.4297 9.09706 23.2388 9.28315 22.0929C9.71735 19.4828 10.5237 16.5544 10.7718 14.008C9.76914 14.008 9.79154 14.008 9 14.008C8.5 14.008 7.52889 14.008 6.86404 14.008C5.99564 14.008 5.80956 13.5624 6.18173 12.8621C8.29069 9.16983 10.5237 5.35021 12.5086 1.65791C12.9428 0.766664 13.8733 0.957645 13.6872 2.10353C13.253 4.58628 12.5086 7.70564 12.2605 10.1247C13 10.1247 12.9017 10.1247 14 10.1247C16 10.1247 15.512 10.1247 16.1948 10.1247C17.0012 10.1247 17.2228 10.5704 16.7886 11.3343C14.7417 15.0266 12.5086 18.7825 10.5237 22.5385Z" fill="#212121"/>
</svg>
