<svg width="24" height="25" viewBox="0 0 24 25" fill="none" xmlns="http://www.w3.org/2000/svg">
<path fill-rule="evenodd" clip-rule="evenodd" d="M15.0214 3.34551C14.1332 0.33332 9.8667 0.333313 8.97856 3.34551L8.25098 5.81314L5.90646 5.24431C2.81275 4.49372 0.68532 8.28233 2.93661 10.5331L4.50201 12.0982L2.93661 13.6633C0.685319 15.9141 2.81275 19.7027 5.90646 18.9521L8.25098 18.3832L8.97856 20.8509C9.8667 23.8631 14.1332 23.8631 15.0214 20.8509L15.7489 18.3832L18.0935 18.9521C21.1872 19.7027 23.3146 15.9141 21.0633 13.6633L19.4979 12.0982L21.0633 10.5331C23.3146 8.28232 21.1872 4.49372 18.0935 5.24431L15.7489 5.81314L15.0214 3.34551ZM12 16.0982C14.2091 16.0982 16 14.3073 16 12.0982C16 9.88907 14.2091 8.09821 12 8.09821C9.79086 8.09821 8 9.88907 8 12.0982C8 14.3073 9.79086 16.0982 12 16.0982Z" fill="#212121"/>
</svg>
