<svg width="24" height="24" viewBox="0 0 24 24" fill="none" xmlns="http://www.w3.org/2000/svg">
<path fill-rule="evenodd" clip-rule="evenodd" d="M15.0214 3.24731C14.1332 0.235115 9.8667 0.235107 8.97856 3.2473L8.25098 5.71493L5.90646 5.14611C2.81275 4.39551 0.68532 8.18412 2.93661 10.4349L4.50201 12L2.93661 13.565C0.685319 15.8159 2.81275 19.6045 5.90646 18.8539L8.25098 18.285L8.97856 20.7527C9.8667 23.7649 14.1332 23.7649 15.0214 20.7527L15.7489 18.285L18.0935 18.8539C21.1872 19.6045 23.3146 15.8159 21.0633 13.565L19.4979 12L21.0633 10.4349C23.3146 8.18412 21.1872 4.39551 18.0935 5.14611L15.7489 5.71493L15.0214 3.24731ZM12 16C14.2091 16 16 14.2091 16 12C16 9.79086 14.2091 8 12 8C9.79086 8 8 9.79086 8 12C8 14.2091 9.79086 16 12 16Z" fill="#212121"/>
</svg>
