<svg width="24" height="24" viewBox="0 0 24 24" fill="none" xmlns="http://www.w3.org/2000/svg">
<path fill-rule="evenodd" clip-rule="evenodd" d="M13 4L14.5 5C14.4346 5.06538 14.2513 5.1718 14.0284 5.30114C13.6832 5.50151 13.2431 5.75691 13 6C12.6 6.4 12.5 6.83333 12.5 7H12.5858C13.4913 7 14.3597 7.35971 15 8L15.1016 7.89846C15.6768 7.32318 16.4571 7 17.2706 7C19.4056 7 21.2108 8.58046 21.4929 10.6967L21.5679 11.2594C21.8487 13.365 21.4517 15.5052 20.4345 17.3701C19.5502 18.9913 17.8467 20 16 20C15.3872 20 14.8269 19.6537 14.5528 19.1056L14.5 19C13.8597 19.6403 12.9913 20 12.0858 20H11.9142C11.0087 20 10.1403 19.6403 9.50002 19L9.44724 19.1056C9.17315 19.6537 8.61289 20 8.00002 20C6.15331 20 4.44982 18.9913 3.56551 17.3701C2.54834 15.5052 2.15136 13.365 2.4321 11.2594L2.50713 10.6967C2.78929 8.58046 4.59447 7 6.72941 7C7.54297 7 8.32321 7.32318 8.89848 7.89846L9.00002 8L9.29292 7.70711C9.74567 7.25435 10.3597 7 11 7C11 6.5 11.4081 5.59193 12 5L13 4ZM7.50002 17.5L9.00002 15L10 16L11 15L12 16L13 15L14 16L15 15L16.5 17.5C13.5092 17.1677 10.4908 17.1677 7.50002 17.5ZM6.00002 11C6.16669 11.8333 6.50002 13.5 8.00002 13.5C9.50002 13.5 9.83336 12.5 10 12L6.00002 11ZM15.995 13.5C17.495 13.5 17.8284 11.8333 17.995 11L13.995 12C14.1617 12.5 14.495 13.5 15.995 13.5Z" fill="#212121"/>
</svg>
