<svg width="24" height="25" viewBox="0 0 24 25" fill="none" xmlns="http://www.w3.org/2000/svg">
<path fill-rule="evenodd" clip-rule="evenodd" d="M13 4.09821L14.5 5.09821C14.4346 5.16359 14.2513 5.27 14.0284 5.39934C13.6832 5.59972 13.2431 5.85512 13 6.09821C12.6 6.49821 12.5 6.93154 12.5 7.09821H12.5858C13.4913 7.09821 14.3597 7.45792 15 8.09821L15.1016 7.99666C15.6768 7.42139 16.4571 7.09821 17.2706 7.09821C19.4056 7.09821 21.2108 8.67866 21.4929 10.7949L21.5679 11.3576C21.8487 13.4632 21.4517 15.6035 20.4345 17.4683C19.5502 19.0895 17.8467 20.0982 16 20.0982C15.3872 20.0982 14.8269 19.7519 14.5528 19.2038L14.5 19.0982C13.8597 19.7385 12.9913 20.0982 12.0858 20.0982H11.9142C11.0087 20.0982 10.1403 19.7385 9.50002 19.0982L9.44724 19.2038C9.17315 19.7519 8.61289 20.0982 8.00002 20.0982C6.15331 20.0982 4.44982 19.0895 3.56551 17.4683C2.54834 15.6035 2.15136 13.4632 2.4321 11.3576L2.50713 10.7949C2.78929 8.67866 4.59447 7.09821 6.72941 7.09821C7.54297 7.09821 8.32321 7.42139 8.89848 7.99666L9.00002 8.09821L9.29292 7.80531C9.74567 7.35256 10.3597 7.09821 11 7.09821C11 6.59821 11.4081 5.69014 12 5.09821L13 4.09821ZM7.50002 17.5982L9.00002 15.0982L10 16.0982L11 15.0982L12 16.0982L13 15.0982L14 16.0982L15 15.0982L16.5 17.5982C13.5092 17.2659 10.4908 17.2659 7.50002 17.5982ZM6.00002 11.0982C6.16669 11.9315 6.50002 13.5982 8.00002 13.5982C9.50002 13.5982 9.83336 12.5982 10 12.0982L6.00002 11.0982ZM15.995 13.5982C17.495 13.5982 17.8284 11.9315 17.995 11.0982L13.995 12.0982C14.1617 12.5982 14.495 13.5982 15.995 13.5982Z" fill="#212121"/>
</svg>
