<svg width="24" height="25" viewBox="0 0 24 25" fill="none" xmlns="http://www.w3.org/2000/svg">
<path fill-rule="evenodd" clip-rule="evenodd" d="M3.51409 3.61284C1.44543 5.6815 2.05104 8.23666 2.37086 9.16744C2.39836 9.24745 2.39439 9.30902 2.38478 9.34269C1.42022 12.7187 2.26637 16.5073 4.9283 19.1692C7.59024 21.8311 11.3788 22.6773 14.7548 21.7127C14.7885 21.7031 14.85 21.6991 14.9301 21.7266C15.8608 22.0465 18.416 22.6521 20.4846 20.5834C22.5533 18.5147 21.9477 15.9596 21.6279 15.0288C21.6004 14.9488 21.6043 14.8872 21.614 14.8536C22.5785 11.4775 21.7324 7.68899 19.0704 5.02706C16.4085 2.36512 12.62 1.51898 9.24393 2.48353C9.21026 2.49315 9.1487 2.49711 9.06868 2.46962C8.1379 2.1498 5.58274 1.54419 3.51409 3.61284ZM12 6.09821C9.9073 6.09821 8.5373 6.65819 7.75728 7.53321C7.03343 8.34522 7 9.23836 7 9.59821C7 10.2167 7.2663 11.085 8.05414 11.8145C8.88107 12.5802 10.1802 13.0982 12 13.0982C13.1802 13.0982 13.7561 13.4135 14.0541 13.6895C14.3913 14.0017 14.5 14.3834 14.5 14.5982C14.5 14.8131 14.3913 15.1947 14.0541 15.5069C13.7561 15.7829 13.1802 16.0982 12 16.0982C10.8198 16.0982 10.2439 15.7829 9.94586 15.5069C9.6087 15.1947 9.5 14.8131 9.5 14.5982C9.5 14.0459 8.94036 13.5982 8.25 13.5982C7.55964 13.5982 7 14.0459 7 14.5982C7 15.2167 7.2663 16.085 8.05414 16.8145C8.88107 17.5802 10.1802 18.0982 12 18.0982C13.8198 18.0982 15.1189 17.5802 15.9459 16.8145C16.7337 16.085 17 15.2167 17 14.5982C17 13.9797 16.7337 13.1114 15.9459 12.3819C15.1189 11.6163 13.8198 11.0982 12 11.0982C10.8198 11.0982 10.2439 10.7829 9.94586 10.5069C9.6087 10.1947 9.5 9.81306 9.5 9.59821C9.5 9.33305 9.54157 8.97619 9.79272 8.69445C9.9877 8.47572 10.4927 8.09821 12 8.09821C13.1277 8.09821 13.7106 8.43408 14.0348 8.74923C14.212 8.92153 14.3328 9.10934 14.4082 9.27892C14.4456 9.36305 14.4696 9.43795 14.4839 9.4979C14.4909 9.52765 14.4951 9.55194 14.4975 9.5702C14.4987 9.57923 14.4993 9.58624 14.4997 9.5912C14.5 9.59622 14.5 9.59852 14.5 9.59821C14.5 10.1505 15.0596 10.5982 15.75 10.5982C16.4404 10.5982 17 10.1505 17 9.59821C17 9.05767 16.7148 8.20719 15.9652 7.47843C15.1644 6.69984 13.8723 6.09821 12 6.09821Z" fill="#212121"/>
</svg>
