<svg width="24" height="24" viewBox="0 0 24 24" fill="none" xmlns="http://www.w3.org/2000/svg">
<path d="M2.58093 12C2.58093 6.79803 6.79797 2.58099 11.9999 2.58099C14.4078 2.58099 16.6046 3.48451 18.2699 4.97099L15.6725 7.54226C14.6705 6.69634 13.3756 6.18646 11.9617 6.18646C8.783 6.18646 6.20618 8.76329 6.20618 11.942C6.20618 15.1206 8.783 17.6975 11.9617 17.6975C14.4612 17.6975 16.3992 16.1042 17.1942 13.8779H16.5551L12.632 13.8684V10.2626H17.4683L17.4678 10.2607H21.2587C21.3639 10.8244 21.419 11.4058 21.419 12C21.419 17.202 17.2019 21.419 11.9999 21.419C6.79797 21.419 2.58093 17.202 2.58093 12Z" fill="#212121"/>
</svg>
