<svg width="24" height="25" viewBox="0 0 24 25" fill="none" xmlns="http://www.w3.org/2000/svg">
<path fill-rule="evenodd" clip-rule="evenodd" d="M15.913 3.09821C16.2019 5.51058 17.5888 6.94883 20 7.10183V9.81512C18.6026 9.94773 17.3787 9.50401 15.955 8.66759V13.7422C15.955 17.7766 13.8188 20.098 10.285 20.098C7.51004 20.1204 4.98353 17.9967 5.00008 15.0836C5.01734 12.045 6.55959 9.34027 11.0801 9.1827V11.8936C10.5953 11.8936 10.2898 11.8971 9.84326 12.045C8.50894 12.4836 7.59718 13.6351 7.80731 15.0836C7.99655 16.3816 9.13106 17.2686 10.285 17.2823C11.6102 17.2823 12.9354 16.5184 12.9354 13.8343V3.10331H15.913V3.09821Z" fill="#212121"/>
</svg>
