<svg width="24" height="24" viewBox="0 0 24 24" fill="none" xmlns="http://www.w3.org/2000/svg">
<g clip-path="url(#clip0_11540_6242)">
<path d="M15.7132 9.16587C21.4909 4.38078 20.7964 3.83049 20.7145 3.7308C20.5429 3.55336 20.3653 3.38387 20.1857 3.21839C15.8849 -0.838968 9.20916 -1.07024 4.58905 2.58238C4.22288 2.86587 3.87616 3.17361 3.55126 3.50351C1.31256 5.72032 0.0371631 8.7283 0.000799341 11.8771C-0.0355644 15.0259 1.17004 18.0625 3.35695 20.3303C5.54385 22.5981 8.53631 23.9149 11.6873 23.996C14.8384 24.0771 17.8947 22.916 20.1956 20.7637L20.3952 20.5942C20.4674 20.5265 20.5341 20.4532 20.5948 20.3749C21.9379 18.6005 19.8484 13.8194 15.7132 9.16587ZM12.2008 11.9691L12.2706 11.9153L12.6219 11.6421L12.7037 11.5783L13.027 11.3271L13.1387 11.2374L13.4182 11.0181L13.5499 10.9124L13.7993 10.713L13.957 10.5874L14.1566 10.4219L14.3442 10.2704C14.4021 10.2265 14.4599 10.1807 14.5138 10.1348L14.7273 9.96338L14.8571 9.85771L15.1005 9.65833L15.1804 9.59254C17.0045 11.6541 18.5232 13.9091 19.3515 15.7992C20.2655 17.8767 20.4411 19.3142 19.8524 19.8506C19.1938 20.4487 17.5294 20.1855 15.6095 19.1826C13.6137 18.1379 11.3606 16.3634 9.27901 14.1862C10.3501 13.394 11.324 12.655 12.2008 11.9691Z" fill="#212121"/>
</g>
<defs>
<clipPath id="clip0_11540_6242">
<rect width="24" height="24" fill="white"/>
</clipPath>
</defs>
</svg>
