<svg width="24" height="25" viewBox="0 0 24 25" fill="none" xmlns="http://www.w3.org/2000/svg">
<path fill-rule="evenodd" clip-rule="evenodd" d="M12.0361 6.13394C13.6398 6.15021 15.1731 6.79982 16.3006 7.94094C16.3006 7.44221 16.7054 7.03744 17.2041 7.03744H17.3306C17.8492 7.06636 18.2495 7.50365 18.2341 8.02226V16.3977C18.1899 16.6941 18.3941 16.9696 18.6895 17.0139C18.8521 17.0383 19.0175 16.9877 19.1376 16.8766C20.4838 15.4942 22.0921 9.77505 18.3064 6.4592C15.2941 3.81827 10.9031 3.47675 7.51861 5.61895C4.444 7.84517 3.31914 11.9028 4.80811 15.3948C6.61511 19.5871 11.8193 20.8158 14.9002 19.5871C16.4633 18.9546 17.1861 21.0688 15.5598 21.7555C13.1113 22.8035 6.28081 22.659 3.09146 17.1747C0.378243 12.3726 2.01448 6.28302 6.7687 3.48669C11.1697 0.880989 16.7786 1.60379 20.3754 5.23948C23.9894 9.03418 23.7997 16.1357 20.2489 18.9004C19.1638 19.7316 17.6098 19.5256 16.7786 18.4396C16.4804 18.0511 16.3052 17.5822 16.2735 17.0934V16.4971C15.1532 17.6201 13.6317 18.2517 12.0451 18.2499C8.75821 18.165 6.11276 15.5195 6.02783 12.2326C6.09831 8.92847 8.74195 6.25682 12.0451 6.15201L12.0361 6.13394ZM16.0658 12.0249C16.0378 9.9188 14.3085 8.23558 12.2025 8.26359C12.1681 8.26359 12.1338 8.26449 12.0995 8.2663H12.0181C9.59676 8.2663 8.25054 10.1727 8.25054 12.3411C8.10056 14.3722 9.62477 16.1394 11.6549 16.2894C11.7733 16.2975 11.8907 16.3011 12.0091 16.2984C14.1893 16.359 16.0053 14.6414 16.0658 12.4613V12.0249Z" fill="#212121"/>
</svg>
