<svg width="24" height="25" viewBox="0 0 24 25" fill="none" xmlns="http://www.w3.org/2000/svg">
<path d="M12.5 5.79539C13.6051 5.79539 14.5523 6.61954 14.5523 7.74337C14.5523 8.79227 13.6051 9.69134 12.5 9.69134C11.3949 9.69134 10.4477 8.79227 10.4477 7.74337C10.4477 6.69446 11.3949 5.79539 12.5 5.79539ZM12.5 12.3885C15.1837 12.3885 17.3939 10.2907 17.3939 7.74337C17.3939 5.19602 15.1837 3.09821 12.5 3.09821C9.81625 3.09821 7.6061 5.19602 7.6061 7.74337C7.52716 10.2907 9.73732 12.3885 12.5 12.3885ZM14.4733 16.1346C15.4995 15.9099 16.4467 15.5353 17.315 15.0108C18.0254 14.6362 18.1832 13.7371 17.7886 13.1377C17.3939 12.5384 16.4467 12.3136 15.8152 12.6882C13.763 13.887 11.2371 13.887 9.18477 12.6882C8.47437 12.3136 7.6061 12.4635 7.21143 13.1377C6.81676 13.7371 6.97463 14.6362 7.68504 15.0108C8.55331 15.5353 9.57945 15.9099 10.5267 16.1346L7.76397 18.7569C7.21144 19.2813 7.21144 20.1804 7.76397 20.7049C8.07971 21.0046 8.39543 21.0795 8.7901 21.0795C9.18477 21.0795 9.50052 20.9296 9.81626 20.7049L12.5 18.1575L15.1837 20.7049C15.7363 21.2293 16.6835 21.2293 17.236 20.7049C17.7886 20.1804 17.7886 19.2813 17.236 18.7569L14.4733 16.1346Z" fill="#212121"/>
</svg>
