<svg width="24" height="25" viewBox="0 0 24 25" fill="none" xmlns="http://www.w3.org/2000/svg">
<path d="M15.7241 4.09821H12.8664C10.0584 4.09821 7.67705 5.91144 7.67705 9.43175C7.67705 11.5436 8.83021 13.1007 10.8855 13.8688L7.05026 19.7569C6.92474 19.9491 7.05026 20.0982 7.25072 20.0982H9.03073C9.18097 20.0982 9.28177 20.0557 9.33185 19.9491L12.8163 14.1676H14.0697V19.9491C14.0697 20.0127 14.1446 20.0982 14.2449 20.0982H15.7995C15.9497 20.0982 16 20.0342 16 19.928V4.31154C15.9999 4.1622 15.8996 4.09821 15.7241 4.09821ZM14.0696 12.8024H13.0168C11.3623 12.8024 9.75805 11.7784 9.75805 9.21847C9.75805 6.55135 11.262 5.46342 12.7911 5.46342H14.0697V12.8024H14.0696Z" fill="#212121"/>
</svg>
