<svg width="24" height="24" viewBox="0 0 24 24" fill="none" xmlns="http://www.w3.org/2000/svg">
<path d="M12.5 5.69719C13.6051 5.69719 14.5523 6.52133 14.5523 7.64516C14.5523 8.69407 13.6051 9.59313 12.5 9.59313C11.3949 9.59313 10.4477 8.69407 10.4477 7.64516C10.4477 6.59625 11.3949 5.69719 12.5 5.69719ZM12.5 12.2903C15.1837 12.2903 17.3939 10.1925 17.3939 7.64516C17.3939 5.09782 15.1837 3 12.5 3C9.81625 3 7.6061 5.09782 7.6061 7.64516C7.52716 10.1925 9.73732 12.2903 12.5 12.2903ZM14.4733 16.0364C15.4995 15.8117 16.4467 15.437 17.315 14.9126C18.0254 14.538 18.1832 13.6389 17.7886 13.0395C17.3939 12.4402 16.4467 12.2154 15.8152 12.59C13.763 13.7888 11.2371 13.7888 9.18477 12.59C8.47437 12.2154 7.6061 12.3652 7.21143 13.0395C6.81676 13.6389 6.97463 14.538 7.68504 14.9126C8.55331 15.437 9.57945 15.8117 10.5267 16.0364L7.76397 18.6587C7.21144 19.1831 7.21144 20.0822 7.76397 20.6067C8.07971 20.9063 8.39543 20.9813 8.7901 20.9813C9.18477 20.9813 9.50052 20.8314 9.81626 20.6067L12.5 18.0593L15.1837 20.6067C15.7363 21.1311 16.6835 21.1311 17.236 20.6067C17.7886 20.0822 17.7886 19.1831 17.236 18.6587L14.4733 16.0364Z" fill="#212121"/>
</svg>
