<svg width="24" height="25" viewBox="0 0 24 25" fill="none" xmlns="http://www.w3.org/2000/svg">
<path fill-rule="evenodd" clip-rule="evenodd" d="M12 6.95715C9.16774 6.95715 6.87244 9.25246 6.87244 12.0847C6.87244 14.9169 9.16774 17.2122 12 17.2122C14.8322 17.2122 17.1275 14.9169 17.1275 12.0847C17.1275 9.25246 14.8322 6.95715 12 6.95715ZM12 15.427C10.161 15.427 8.6711 13.937 8.6711 12.0981C8.6711 10.2592 10.161 8.76923 12 8.76923C13.8389 8.76923 15.3288 10.2592 15.3288 12.0981C15.3288 13.937 13.8389 15.427 12 15.427Z" fill="#212121"/>
<path d="M18.538 6.75591C18.538 7.41569 18.0031 7.95054 17.3433 7.95054C16.6835 7.95054 16.1487 7.41569 16.1487 6.75591C16.1487 6.09613 16.6835 5.56128 17.3433 5.56128C18.0031 5.56128 18.538 6.09613 18.538 6.75591Z" fill="#212121"/>
<path fill-rule="evenodd" clip-rule="evenodd" d="M12 2.09821C9.29305 2.09821 8.94076 2.11158 7.88443 2.1517L7.8792 2.1519C6.8188 2.20559 6.09397 2.36666 5.44967 2.6217C4.79196 2.87673 4.22819 3.2123 3.67785 3.77606C3.12752 4.32639 2.77853 4.89015 2.52349 5.54787C2.28188 6.17874 2.10739 6.917 2.05369 7.9774C2 9.0378 2 9.3868 2 12.0982C2 14.8051 2.01338 15.1574 2.05349 16.2137L2.05369 16.219C2.10739 17.2794 2.26846 18.0042 2.52349 18.6485C2.77853 19.3063 3.11409 19.87 3.67785 20.4204C4.22819 20.9707 4.79196 21.3197 5.44967 21.5747C6.08055 21.8163 6.8188 21.9908 7.8792 22.0445C8.9396 22.0982 9.28859 22.0982 12 22.0982C14.7069 22.0982 15.0593 22.0848 16.1156 22.0447L16.1208 22.0445C17.1812 21.9908 17.906 21.8298 18.5503 21.5747C19.2081 21.3197 19.7718 20.9841 20.3221 20.4204C20.8725 19.87 21.2215 19.3063 21.4765 18.6485C21.7181 18.0177 21.8926 17.2794 21.9463 16.219C22 15.1586 22 14.8096 22 12.0982C22 9.39133 21.9866 9.03898 21.9465 7.98271L21.9463 7.9774C21.8926 6.917 21.7315 6.19216 21.4765 5.54787C21.2215 4.89015 20.8859 4.32639 20.3221 3.77606C19.7718 3.22572 19.2081 2.87673 18.5503 2.6217C17.9195 2.38008 17.1812 2.20559 16.1208 2.1519L16.1002 2.15111C15.0559 2.11145 14.7071 2.09821 12 2.09821ZM12 3.89686C14.6274 3.89686 14.9691 3.90985 15.9888 3.9486L16.0403 3.95055C17.0201 3.99082 17.5436 4.1519 17.8926 4.29955C18.3624 4.48747 18.698 4.70223 19.047 5.05123C19.396 5.40022 19.6107 5.73579 19.7987 6.20559C19.9329 6.55458 20.094 7.09149 20.1477 8.05794C20.2013 9.11808 20.2013 9.42691 20.2013 12.0962V12.0982C20.2013 14.7259 20.1884 15.0674 20.1496 16.0873L20.1477 16.1385C20.1074 17.1183 19.9463 17.6418 19.7987 17.9908C19.6107 18.4606 19.396 18.7962 19.047 19.1452C18.698 19.4942 18.3624 19.7089 17.8926 19.8969C17.5436 20.0311 17.0067 20.1922 16.0403 20.2459C14.9799 20.2995 14.6711 20.2995 12 20.2995C9.37264 20.2995 9.03089 20.2866 8.01128 20.2478L7.95973 20.2459C6.97987 20.2056 6.45637 20.0445 6.10738 19.8969C5.63758 19.7089 5.30201 19.4942 4.95302 19.1452C4.60403 18.7962 4.38927 18.4606 4.20135 17.9908C4.06712 17.6418 3.90605 17.1049 3.85236 16.1385C3.79866 15.0781 3.79866 14.7693 3.79866 12.0982C3.79866 9.47091 3.81165 9.12911 3.85039 8.10957L3.85236 8.05794C3.89262 7.07807 4.05369 6.55458 4.20135 6.20559C4.38927 5.73579 4.60403 5.40022 4.95302 5.05123C5.30201 4.70223 5.63758 4.48747 6.10738 4.29955C6.45637 4.16532 6.99329 4.00425 7.95973 3.95055L8.01125 3.9486C9.03088 3.90985 9.37261 3.89686 12 3.89686Z" fill="#212121"/>
</svg>
