<svg width="24" height="25" viewBox="0 0 24 25" fill="none" xmlns="http://www.w3.org/2000/svg">
<path d="M2.58093 12.0982C2.58093 6.89624 6.79797 2.6792 11.9999 2.6792C14.4078 2.6792 16.6046 3.58271 18.2699 5.0692L15.6725 7.64047C14.6705 6.79455 13.3756 6.28467 11.9617 6.28467C8.783 6.28467 6.20618 8.8615 6.20618 12.0402C6.20618 15.2189 8.783 17.7957 11.9617 17.7957C14.4612 17.7957 16.3992 16.2024 17.1942 13.9761H16.5551L12.632 13.9667V10.3608H17.4683L17.4678 10.3589H21.2587C21.3639 10.9226 21.419 11.504 21.419 12.0982C21.419 17.3002 17.2019 21.5172 11.9999 21.5172C6.79797 21.5172 2.58093 17.3002 2.58093 12.0982Z" fill="#212121"/>
</svg>
