<svg width="24" height="24" viewBox="0 0 24 24" fill="none" xmlns="http://www.w3.org/2000/svg">
<path d="M19.6776 4.13938L1.75172 10.9588C0.777358 11.2477 0.802343 12.2147 1.52687 12.4533L6.01146 13.8599L7.73533 19.1597C7.94769 19.7374 8.11009 19.9635 8.47236 19.9635C8.84711 19.9635 8.98452 19.8253 9.38426 19.4862C9.83397 19.0592 10.5335 18.3811 11.6328 17.301L16.3048 20.7672C17.1667 21.2445 17.7788 20.9933 18.0037 19.9635L20.9267 5.39526C21.239 4.13938 20.502 3.76262 19.6776 4.13938ZM6.72349 13.5459L16.9293 7.10326C17.429 6.76417 17.5914 7.14094 17.3666 7.40467L8.89707 15.0655L8.45986 18.896L6.72349 13.5459Z" fill="#212121"/>
</svg>
