<svg width="24" height="25" viewBox="0 0 24 25" fill="none" xmlns="http://www.w3.org/2000/svg">
<g clip-path="url(#clip0_11540_6242)">
<path d="M15.7132 9.26407C21.4909 4.47899 20.7964 3.9287 20.7145 3.82901C20.5429 3.65156 20.3653 3.48208 20.1857 3.31659C15.8849 -0.740762 9.20916 -0.97203 4.58905 2.68059C4.22288 2.96408 3.87616 3.27181 3.55126 3.60172C1.31256 5.81852 0.0371631 8.82651 0.000799341 11.9753C-0.0355644 15.1241 1.17004 18.1607 3.35695 20.4285C5.54385 22.6963 8.53631 24.0131 11.6873 24.0942C14.8384 24.1753 17.8947 23.0142 20.1956 20.8619L20.3952 20.6924C20.4674 20.6247 20.5341 20.5514 20.5948 20.4731C21.9379 18.6987 19.8484 13.9176 15.7132 9.26407ZM12.2008 12.0673L12.2706 12.0135L12.6219 11.7403L12.7037 11.6765L13.027 11.4253L13.1387 11.3356L13.4182 11.1163L13.5499 11.0106L13.7993 10.8113L13.957 10.6856L14.1566 10.5201L14.3442 10.3686C14.4021 10.3248 14.4599 10.2789 14.5138 10.2331L14.7273 10.0616L14.8571 9.95591L15.1005 9.75653L15.1804 9.69075C17.0045 11.7523 18.5232 14.0073 19.3515 15.8974C20.2655 17.9749 20.4411 19.4124 19.8524 19.9488C19.1938 20.5469 17.5294 20.2837 15.6095 19.2809C13.6137 18.2361 11.3606 16.4616 9.27901 14.2844C10.3501 13.4922 11.324 12.7532 12.2008 12.0673Z" fill="#212121"/>
</g>
<defs>
<clipPath id="clip0_11540_6242">
<rect width="24" height="24" fill="white" transform="translate(0 0.0982056)"/>
</clipPath>
</defs>
</svg>
