<svg width="24" height="24" viewBox="0 0 24 24" fill="none" xmlns="http://www.w3.org/2000/svg">
<path d="M12.5024 2H12.4976C7.25956 2 3 6.26075 3 11.5C3 13.5781 3.66975 15.5043 4.80856 17.0682L3.62463 20.5974L7.27619 19.4301C8.77838 20.4253 10.5703 21 12.5024 21C17.7404 21 22 16.7381 22 11.5C22 6.26194 17.7404 2 12.5024 2ZM18.0302 15.4152C17.801 16.0624 16.8914 16.5991 16.1658 16.7559C15.6694 16.8616 15.0211 16.9459 12.8384 16.041C10.0466 14.8844 8.24875 12.0474 8.10862 11.8634C7.97444 11.6793 6.9805 10.3612 6.9805 8.99794C6.9805 7.63469 7.67281 6.97088 7.95188 6.68587C8.18106 6.45194 8.55988 6.34506 8.92325 6.34506C9.04081 6.34506 9.1465 6.351 9.2415 6.35575C9.52056 6.36762 9.66069 6.38425 9.84475 6.82481C10.0739 7.377 10.6321 8.74025 10.6986 8.88038C10.7662 9.0205 10.8339 9.2105 10.7389 9.39456C10.6499 9.58456 10.5715 9.66887 10.4314 9.83037C10.2912 9.99187 10.1582 10.1154 10.0181 10.2887C9.88987 10.4396 9.745 10.6011 9.9065 10.8801C10.068 11.1532 10.6261 12.0641 11.4479 12.7956C12.5083 13.7396 13.3681 14.0413 13.6756 14.1695C13.9048 14.2645 14.1779 14.2419 14.3454 14.0638C14.5579 13.8346 14.8204 13.4546 15.0876 13.0806C15.2776 12.8122 15.5174 12.7789 15.7692 12.8739C16.0257 12.963 17.383 13.6339 17.6621 13.7729C17.9411 13.913 18.1252 13.9795 18.1929 14.0971C18.2594 14.2146 18.2594 14.7668 18.0302 15.4152Z" fill="#212121"/>
</svg>
