<svg width="24" height="24" viewBox="0 0 24 24" fill="none" xmlns="http://www.w3.org/2000/svg">
<path fill-rule="evenodd" clip-rule="evenodd" d="M12 6.85895C9.16774 6.85895 6.87244 9.15425 6.87244 11.9865C6.87244 14.8187 9.16774 17.114 12 17.114C14.8322 17.114 17.1275 14.8187 17.1275 11.9865C17.1275 9.15425 14.8322 6.85895 12 6.85895ZM12 15.3287C10.161 15.3287 8.6711 13.8388 8.6711 11.9999C8.6711 10.161 10.161 8.67103 12 8.67103C13.8389 8.67103 15.3288 10.161 15.3288 11.9999C15.3288 13.8388 13.8389 15.3287 12 15.3287Z" fill="#212121"/>
<path d="M18.538 6.65771C18.538 7.31748 18.0031 7.85234 17.3433 7.85234C16.6835 7.85234 16.1487 7.31748 16.1487 6.65771C16.1487 5.99793 16.6835 5.46307 17.3433 5.46307C18.0031 5.46307 18.538 5.99793 18.538 6.65771Z" fill="#212121"/>
<path fill-rule="evenodd" clip-rule="evenodd" d="M12 2C9.29305 2 8.94076 2.01338 7.88443 2.05349L7.8792 2.05369C6.8188 2.10738 6.09397 2.26846 5.44967 2.52349C4.79196 2.77852 4.22819 3.11409 3.67785 3.67785C3.12752 4.22819 2.77853 4.79195 2.52349 5.44966C2.28188 6.08054 2.10739 6.81879 2.05369 7.87919C2 8.9396 2 9.28859 2 12C2 14.7069 2.01338 15.0592 2.05349 16.1155L2.05369 16.1208C2.10739 17.1812 2.26846 17.906 2.52349 18.5503C2.77853 19.2081 3.11409 19.7718 3.67785 20.3221C4.22819 20.8725 4.79196 21.2215 5.44967 21.4765C6.08055 21.7181 6.8188 21.8926 7.8792 21.9463C8.9396 22 9.28859 22 12 22C14.7069 22 15.0593 21.9866 16.1156 21.9465L16.1208 21.9463C17.1812 21.8926 17.906 21.7315 18.5503 21.4765C19.2081 21.2215 19.7718 20.8859 20.3221 20.3221C20.8725 19.7718 21.2215 19.2081 21.4765 18.5503C21.7181 17.9195 21.8926 17.1812 21.9463 16.1208C22 15.0604 22 14.7114 22 12C22 9.29312 21.9866 8.94077 21.9465 7.8845L21.9463 7.87919C21.8926 6.81879 21.7315 6.09396 21.4765 5.44966C21.2215 4.79195 20.8859 4.22819 20.3221 3.67785C19.7718 3.12752 19.2081 2.77852 18.5503 2.52349C17.9195 2.28188 17.1812 2.10738 16.1208 2.05369L16.1002 2.05291C15.0559 2.01325 14.7071 2 12 2ZM12 3.79866C14.6274 3.79866 14.9691 3.81164 15.9888 3.85039L16.0403 3.85235C17.0201 3.89262 17.5436 4.05369 17.8926 4.20134C18.3624 4.38926 18.698 4.60403 19.047 4.95302C19.396 5.30201 19.6107 5.63758 19.7987 6.10738C19.9329 6.45638 20.094 6.99329 20.1477 7.95973C20.2013 9.01987 20.2013 9.32871 20.2013 11.998V12C20.2013 14.6277 20.1884 14.9692 20.1496 15.9891L20.1477 16.0403C20.1074 17.0201 19.9463 17.5436 19.7987 17.8926C19.6107 18.3624 19.396 18.698 19.047 19.047C18.698 19.396 18.3624 19.6107 17.8926 19.7987C17.5436 19.9329 17.0067 20.094 16.0403 20.1477C14.9799 20.2013 14.6711 20.2013 12 20.2013C9.37264 20.2013 9.03089 20.1884 8.01128 20.1496L7.95973 20.1477C6.97987 20.1074 6.45637 19.9463 6.10738 19.7987C5.63758 19.6107 5.30201 19.396 4.95302 19.047C4.60403 18.698 4.38927 18.3624 4.20135 17.8926C4.06712 17.5436 3.90605 17.0067 3.85236 16.0403C3.79866 14.9799 3.79866 14.6711 3.79866 12C3.79866 9.37271 3.81165 9.03091 3.85039 8.01136L3.85236 7.95973C3.89262 6.97987 4.05369 6.45638 4.20135 6.10738C4.38927 5.63758 4.60403 5.30201 4.95302 4.95302C5.30201 4.60403 5.63758 4.38926 6.10738 4.20134C6.45637 4.06711 6.99329 3.90604 7.95973 3.85235L8.01125 3.85039C9.03088 3.81164 9.37261 3.79866 12 3.79866Z" fill="#212121"/>
</svg>
