<svg width="24" height="25" viewBox="0 0 24 25" fill="none" xmlns="http://www.w3.org/2000/svg">
<path d="M22 5.99236C21.2563 6.31359 20.4637 6.52651 19.6375 6.6299C20.4875 6.13021 21.1362 5.34497 21.4412 4.39851C20.6488 4.86374 19.7738 5.19236 18.8412 5.37574C18.0887 4.58682 17.0162 4.09821 15.8462 4.09821C13.5763 4.09821 11.7487 5.91236 11.7487 8.13636C11.7487 8.45636 11.7762 8.76405 11.8438 9.05697C8.435 8.89328 5.41875 7.28467 3.3925 4.83421C3.03875 5.43851 2.83125 6.13021 2.83125 6.87482C2.83125 8.27297 3.5625 9.51236 4.6525 10.2299C3.99375 10.2176 3.3475 10.0293 2.8 9.73267C2.8 11.443 4.08669 13.3413 6.085 13.7437C5.50018 13.9012 4.82899 13.9373 4.23375 13.8077C4.765 15.4065 6.2725 16.5819 8.065 16.6201C6.3647 17.9297 4.1338 18.5552 2 18.2865C3.81625 19.4397 5.96875 20.0982 8.29 20.0982C14.7852 20.0982 20.2817 14.6716 19.945 8.08836C20.7587 7.51974 21.4425 6.80959 22 5.99236Z" fill="#212121"/>
</svg>
