<svg width="24" height="24" viewBox="0 0 24 24" fill="none" xmlns="http://www.w3.org/2000/svg">
<path d="M22 5.89415C21.2563 6.21538 20.4637 6.42831 19.6375 6.53169C20.4875 6.032 21.1362 5.24677 21.4412 4.30031C20.6488 4.76554 19.7738 5.09415 18.8412 5.27754C18.0887 4.48862 17.0162 4 15.8462 4C13.5763 4 11.7487 5.81415 11.7487 8.03815C11.7487 8.35815 11.7762 8.66585 11.8438 8.95877C8.435 8.79508 5.41875 7.18646 3.3925 4.736C3.03875 5.34031 2.83125 6.032 2.83125 6.77662C2.83125 8.17477 3.5625 9.41415 4.6525 10.1317C3.99375 10.1194 3.3475 9.93108 2.8 9.63446C2.8 11.3448 4.08669 13.2431 6.085 13.6455C5.50018 13.803 4.82899 13.8391 4.23375 13.7095C4.765 15.3083 6.2725 16.4837 8.065 16.5218C6.3647 17.8315 4.1338 18.457 2 18.1883C3.81625 19.3415 5.96875 20 8.29 20C14.7852 20 20.2817 14.5734 19.945 7.99015C20.7587 7.42154 21.4425 6.71138 22 5.89415Z" fill="#212121"/>
</svg>
