<svg width="24" height="25" viewBox="0 0 24 25" fill="none" xmlns="http://www.w3.org/2000/svg">
<path d="M12.5024 2.09821H12.4976C7.25956 2.09821 3 6.35896 3 11.5982C3 13.6763 3.66975 15.6025 4.80856 17.1664L3.62463 20.6956L7.27619 19.5283C8.77838 20.5235 10.5703 21.0982 12.5024 21.0982C17.7404 21.0982 22 16.8363 22 11.5982C22 6.36014 17.7404 2.09821 12.5024 2.09821ZM18.0302 15.5134C17.801 16.1606 16.8914 16.6973 16.1658 16.8541C15.6694 16.9598 15.0211 17.0441 12.8384 16.1392C10.0466 14.9826 8.24875 12.1456 8.10862 11.9616C7.97444 11.7775 6.9805 10.4594 6.9805 9.09614C6.9805 7.73289 7.67281 7.06908 7.95188 6.78408C8.18106 6.55014 8.55988 6.44327 8.92325 6.44327C9.04081 6.44327 9.1465 6.44921 9.2415 6.45396C9.52056 6.46583 9.66069 6.48246 9.84475 6.92302C10.0739 7.47521 10.6321 8.83846 10.6986 8.97858C10.7662 9.11871 10.8339 9.30871 10.7389 9.49277C10.6499 9.68277 10.5715 9.76708 10.4314 9.92858C10.2912 10.0901 10.1582 10.2136 10.0181 10.387C9.88987 10.5378 9.745 10.6993 9.9065 10.9783C10.068 11.2515 10.6261 12.1623 11.4479 12.8938C12.5083 13.8378 13.3681 14.1395 13.6756 14.2677C13.9048 14.3627 14.1779 14.3401 14.3454 14.162C14.5579 13.9328 14.8204 13.5528 15.0876 13.1788C15.2776 12.9104 15.5174 12.8771 15.7692 12.9721C16.0257 13.0612 17.383 13.7321 17.6621 13.8711C17.9411 14.0112 18.1252 14.0777 18.1929 14.1953C18.2594 14.3128 18.2594 14.865 18.0302 15.5134Z" fill="#212121"/>
</svg>
