<svg width="24" height="25" viewBox="0 0 24 25" fill="none" xmlns="http://www.w3.org/2000/svg">
<path fill-rule="evenodd" clip-rule="evenodd" d="M13.9286 14.0268C12.3571 15.6482 12.25 17.6696 12.1071 22.0982C16.2357 22.0982 19.0857 22.0839 20.5571 20.6553C21.9857 19.1839 22 16.1982 22 12.2053C17.5714 12.3482 15.55 12.4553 13.9286 14.0268ZM11.8929 22.0982C7.76429 22.0982 4.91429 22.0839 3.44286 20.6553C2.01429 19.1839 2 16.1982 2 12.2053C6.42857 12.3482 8.45 12.4553 10.0714 14.0268C11.6429 15.6482 11.75 17.6696 11.8929 22.0982ZM10.0714 10.1696C8.45 11.7411 6.42857 11.8482 2 11.9911C2 7.99821 2.01429 5.01249 3.44286 3.54106C4.91429 2.11249 7.77143 2.09821 11.8929 2.09821C11.75 6.52678 11.6429 8.54821 10.0714 10.1696ZM12.1071 2.09821C12.2429 6.52678 12.3571 8.54821 13.9286 10.1696C15.55 11.7411 17.5714 11.8482 22 11.9911C22 7.99821 21.9857 5.01249 20.5571 3.54106C19.0857 2.11249 16.2357 2.09821 12.1071 2.09821Z" fill="#212121"/>
</svg>
