<svg width="24" height="25" viewBox="0 0 24 25" fill="none" xmlns="http://www.w3.org/2000/svg">
<path d="M3 22.0982C3 22.0982 -0.344267 9.57348 5.20623 3.86291C7.86539 1.54183 9.76993 1.09653 12.5698 1.09821C15.6207 1.10004 19.0118 3.02392 19.0118 6.40093C19.0118 8.66668 17.8232 10.7132 15.5282 11.0055C18.1565 11.0762 21 13.2867 21 16.0982C21 18.6099 19.7932 20.5383 17.4965 21.5147L17.4939 21.5124C12 23.5982 8 20.0982 8.69515 16.0127C11.5772 17.9461 14.2353 17.8255 17.1488 17.0004C17.2418 16.9795 17.2886 16.9555 17.2501 16.8659C15.8394 16.1706 15.3208 15.2513 14.8429 14.4043C14.2249 13.3087 13.675 12.334 11.3514 12.1209C10.9207 12.0814 11.1963 11.8521 11.5598 11.5496C12.2872 10.9444 12.4577 10.389 12.3742 9.43329C12.2997 8.57977 12.1993 7.43017 13.013 5.48845C13.042 5.35517 12.9893 5.34043 12.8682 5.36309C10.2634 6.54143 6.70743 8.10244 6.70743 13.0946C3.99147 14.7307 3 19.1924 3 22.0982Z" fill="#212121"/>
</svg>
