<svg width="24" height="24" viewBox="0 0 24 24" fill="none" xmlns="http://www.w3.org/2000/svg">
<path d="M15.7241 4H12.8664C10.0584 4 7.67705 5.81324 7.67705 9.33355C7.67705 11.4454 8.83021 13.0025 10.8855 13.7706L7.05026 19.6587C6.92474 19.8509 7.05026 20 7.25072 20H9.03073C9.18097 20 9.28177 19.9575 9.33185 19.8509L12.8163 14.0694H14.0697V19.8509C14.0697 19.9145 14.1446 20 14.2449 20H15.7995C15.9497 20 16 19.936 16 19.8298V4.21334C15.9999 4.064 15.8996 4 15.7241 4ZM14.0696 12.7042H13.0168C11.3623 12.7042 9.75805 11.6802 9.75805 9.12026C9.75805 6.45314 11.262 5.36521 12.7911 5.36521H14.0697V12.7042H14.0696Z" fill="#212121"/>
</svg>
