<svg width="24" height="25" viewBox="0 0 24 25" fill="none" xmlns="http://www.w3.org/2000/svg">
<path d="M19.0072 4.95092C18.2775 4.31949 17.4094 3.94063 16.491 3.70069C14.1636 3.09451 11.811 2.94297 9.43327 3.25869C8.22552 3.42286 7.05551 3.73858 5.98615 4.34476C4.72808 5.05196 3.86001 6.07486 3.48259 7.48926C3.20581 8.49955 3.08001 9.52247 3.02969 10.5706C2.9542 12.1113 3.00452 13.6394 3.39453 15.1296C3.84743 16.8597 4.82873 18.1478 6.52712 18.8297C6.71583 18.9055 6.87938 19.0065 7.06809 19.0823C7.23164 19.1581 7.29454 19.2717 7.28196 19.4485C7.26938 20.6483 7.28196 21.848 7.28196 23.0982C7.72229 22.6688 8.03681 22.3531 8.25068 22.1005C8.91746 21.3428 9.54649 20.7114 10.2384 20.0042C10.5907 19.638 10.4397 19.6632 10.9933 19.6632C11.6349 19.6758 12.6413 19.7011 13.283 19.6506C14.5033 19.5496 15.711 19.398 16.881 19.0444C18.3781 18.5898 19.5733 17.7942 20.1772 16.2788C20.3407 15.8747 20.4917 15.4705 20.5924 15.0538C21.1711 12.6417 21.0956 10.2297 20.6049 7.81762C20.3785 6.7063 19.9004 5.70864 19.0072 4.95092ZM11.5971 6.40321C11.6097 6.17589 11.7481 6.08749 11.962 6.08749C13.8114 6.17589 15.2078 6.73155 16.2772 8.18383C16.9062 9.02995 17.2459 10.1792 17.2836 11.24C17.2836 11.4041 17.2962 11.5557 17.2836 11.7198C17.271 11.8966 17.1956 12.0356 16.9943 12.0356C16.793 12.0356 16.6923 11.9345 16.6798 11.7198C16.6294 10.9369 16.4785 10.1665 16.1765 9.43407C15.5978 8.01967 14.4907 7.26195 13.0565 6.89573C12.6791 6.7947 12.3017 6.71893 11.9117 6.68105C11.7481 6.68105 11.5846 6.64315 11.5971 6.40321ZM13.4717 8.3859C13.0943 8.25962 12.7168 8.14596 12.3142 8.09544C12.1255 8.07018 11.9872 7.96915 12.0249 7.74183C12.0626 7.52715 12.201 7.45138 12.4023 7.46401C13.6981 7.5903 14.7046 8.05755 15.3965 9.1815C15.7236 9.7119 15.9123 10.457 15.8872 11.0126C15.862 11.4041 15.8117 11.5052 15.5852 11.5052C15.2581 11.4925 15.3085 11.2273 15.2833 11.0253C15.2456 10.7222 15.1826 10.4191 15.0946 10.116C14.843 9.25727 14.302 8.67636 13.4717 8.3859ZM14.5536 10.5706C14.541 10.6843 14.541 10.7601 14.5285 10.8232C14.4907 10.9621 14.4026 11.0505 14.2517 11.0632C14.0881 11.0632 14.0126 10.9748 13.9623 10.8358C13.9372 10.7348 13.9246 10.6338 13.912 10.5454C13.8114 10.0276 13.5094 9.67402 12.9936 9.5351C12.9307 9.52247 12.8678 9.50984 12.8049 9.49721C12.6413 9.4467 12.4401 9.44671 12.4275 9.20676C12.4275 9.0047 12.5784 8.89104 12.8426 8.87841C13.0313 8.86578 13.3081 8.95418 13.4843 9.04258C14.1636 9.3583 14.4781 9.82555 14.5536 10.5706ZM17.2836 16.0767C16.9188 16.8976 16.3149 17.428 15.4468 17.6805C15.1323 17.7689 14.8304 17.6932 14.5536 17.5669C10.6284 15.8873 7.79777 13.1343 6.20002 9.14362C6.0868 8.85316 6.01131 8.55007 6.02389 8.28487C6.02389 7.26195 6.9297 6.30218 7.911 6.25167C8.18777 6.23904 8.41423 6.32744 8.61552 6.51687C9.30746 7.17355 9.86101 7.91864 10.2762 8.77739C10.5026 9.24465 10.402 9.57299 10.012 9.90133C9.94907 9.95185 9.87359 10.0024 9.81069 10.0529C9.2823 10.4444 9.16907 10.8358 9.42068 11.442C9.83585 12.4397 10.5026 13.2226 11.421 13.8036C11.7607 14.0182 12.113 14.2329 12.503 14.3466C12.8678 14.4476 13.1572 14.334 13.3836 14.0561C13.4088 14.0182 13.4339 13.993 13.4591 13.9551C13.9623 13.2479 14.5033 13.1342 15.233 13.5889C15.862 13.9804 16.4533 14.4224 17.0194 14.9023C17.3843 15.2432 17.4849 15.6221 17.2836 16.0767Z" fill="#212121"/>
</svg>
