<svg width="24" height="25" viewBox="0 0 24 25" fill="none" xmlns="http://www.w3.org/2000/svg">
<path d="M19.6776 4.23759L1.75172 11.057C0.777358 11.3459 0.802343 12.3129 1.52687 12.5515L6.01146 13.9581L7.73533 19.2579C7.94769 19.8356 8.11009 20.0617 8.47236 20.0617C8.84711 20.0617 8.98452 19.9235 9.38426 19.5844C9.83397 19.1574 10.5335 18.4793 11.6328 17.3992L16.3048 20.8654C17.1667 21.3427 17.7788 21.0915 18.0037 20.0617L20.9267 5.49347C21.239 4.23759 20.502 3.86082 19.6776 4.23759ZM6.72349 13.6441L16.9293 7.20146C17.429 6.86237 17.5914 7.23914 17.3666 7.50288L8.89707 15.1637L8.45986 18.9942L6.72349 13.6441Z" fill="#212121"/>
</svg>
