<svg width="24" height="25" viewBox="0 0 24 25" fill="none" xmlns="http://www.w3.org/2000/svg">
<path d="M7.19268 15.9237V13.0027H7.87372H8.55476V12.5753V12.1478H6.68189H4.80902V12.5753V13.0027H5.40494H6.00085V15.8525C6.00085 17.4198 6.00085 18.7022 6.00085 18.7734C6.00085 18.7734 6.17111 18.7734 6.59676 18.7734H7.19268V15.9237ZM17.9191 15.71C17.9191 15.6387 17.9191 14.9975 18.0042 14.855C18.0894 14.6413 18.2596 14.4988 18.515 14.4988C18.7704 14.4988 18.8556 14.5701 18.9407 14.7126C19.0258 14.7838 19.0258 14.855 19.0258 15.2825V15.71H18.4299C18.0042 15.7812 17.9191 15.7812 17.9191 15.71ZM18.9407 18.8447C19.4515 18.7022 19.8771 18.4172 19.9623 17.9897C19.9623 17.9185 20.0474 17.7048 20.0474 17.491V17.1348H19.5366H19.0258V17.4198C19.0258 17.776 18.9407 17.8472 18.8556 17.9897C18.6853 18.1322 18.4299 18.1322 18.1745 17.9897C17.9191 17.8472 17.9191 17.6335 17.9191 16.9211V16.4224H19.0258H20.1325V15.71C20.1325 14.855 20.1325 14.7838 19.9623 14.4276C19.6217 13.8576 18.7704 13.5727 18.0042 13.7864C17.4935 13.9289 17.1529 14.2851 16.9827 14.7126C16.8976 14.8551 16.8976 14.9975 16.8976 16.2087C16.8976 17.7048 16.8976 17.776 17.0678 18.061C17.4083 18.7022 18.2596 18.9871 18.9407 18.8447ZM14.6842 17.9897C14.7693 17.9185 14.7693 17.9185 14.8544 17.8472C14.9396 17.7048 14.9396 17.6335 14.8544 16.3512C14.8544 14.9975 14.8544 14.9263 14.7693 14.855C14.599 14.6413 14.3436 14.6413 14.0031 14.7838L13.918 14.855V16.3512V17.8472L14.0031 17.9185C14.2585 18.061 14.5139 18.061 14.6842 17.9897ZM15.3652 18.8447C15.5355 18.7734 15.7057 18.6309 15.7909 18.4884C15.9611 18.1322 15.9611 18.1322 15.9611 16.3512C15.9611 14.8551 15.9611 14.7126 15.876 14.4988C15.7057 14.0001 15.4503 13.7864 14.9396 13.7864C14.6842 13.7864 14.4288 13.9289 14.1734 14.1426C14.0882 14.2139 13.918 14.2851 13.918 14.2851C13.918 14.2851 13.918 13.7864 13.918 13.2165V12.1478H13.4072H12.8964V15.4962V18.8447H13.4072H13.918V18.6309C13.918 18.4884 13.918 18.4172 13.918 18.4172C13.918 18.4172 14.0882 18.4884 14.1734 18.5597C14.599 18.8447 14.9396 18.9871 15.3652 18.8447ZM9.91685 18.8447C10.0871 18.7734 10.3425 18.6309 10.5979 18.4884C10.683 18.4172 10.7682 18.3459 10.7682 18.3459C10.7682 18.3459 10.7682 18.4172 10.7682 18.6309V18.9159H11.2789H11.7897V16.4224V13.9289H11.2789H10.7682V15.8525V17.776L10.5128 17.9897C10.3425 18.1322 10.2574 18.2035 10.1722 18.2035C10.002 18.2747 9.91685 18.2035 9.83172 18.1322C9.74659 18.061 9.74659 17.9897 9.74659 15.9949V14.0001H9.23581H8.72503V16.1374C8.72503 18.4884 8.72503 18.5597 8.89529 18.7734C9.06555 18.9159 9.4912 18.9871 9.91685 18.8447ZM10.3425 20.9107C9.66146 20.9107 8.89529 20.9107 8.63989 20.9107C6.68189 20.8395 5.3198 20.7682 4.97928 20.7682C4.55363 20.697 4.12798 20.4832 3.87259 20.1983C3.44693 19.7708 3.27667 19.2721 3.19154 18.4884C2.93615 16.7074 2.93615 14.5701 3.19154 12.8602C3.27667 12.0766 3.6172 11.5779 4.04285 11.1504C4.29824 10.9367 4.55363 10.7942 4.89415 10.723C5.66033 10.5805 11.3641 10.438 14.7693 10.5092C16.8124 10.5805 18.9407 10.6517 19.5366 10.6517C20.3028 10.723 20.8136 11.0792 21.1541 11.6491C21.4095 12.1478 21.4946 12.504 21.6649 13.5727C21.75 14.4276 21.75 14.9975 21.75 15.9949C21.75 17.2061 21.6649 18.2747 21.4946 18.9159C21.3243 19.5571 20.9838 20.127 20.5582 20.412C20.2176 20.6257 19.8771 20.7682 19.2812 20.7682C19.1109 20.7682 18.8556 20.7682 18.7704 20.7682C18.4299 20.7682 16.6422 20.8395 15.7057 20.8395C14.2585 20.9107 11.7046 20.9107 10.3425 20.9107ZM7.61727 9.86804C7.61727 9.86804 7.61727 7.87324 7.61727 7.58827C7.61727 7.23206 7.61726 6.94708 7.27674 6.23465C7.19161 6.02093 7.02135 5.52222 6.85109 5.23725C5.99978 2.95748 5.99979 3.09996 6.08492 3.09996C6.68083 3.09996 7.36187 3.09996 7.36187 3.09996C7.36187 3.09996 7.53214 3.66991 7.78753 4.31109C8.04292 5.02352 8.21318 5.52222 8.21318 5.59347C8.21318 5.59347 8.38344 5.23725 8.46857 4.73855C8.80909 3.66991 8.97935 3.09996 8.97935 3.09996C8.97935 3.09996 9.14962 3.09996 9.6604 3.09996H10.2563V3.17121C10.2563 3.24245 9.83066 4.3111 9.405 5.45098C9.31987 5.59347 9.23474 5.87844 9.14961 6.16341C9.06448 6.44838 8.97935 6.73336 8.89422 6.87584L8.80909 7.08957V8.44318C8.80909 9.72556 8.80909 9.7968 8.72396 9.7968C8.72396 9.93929 7.61727 9.86804 7.61727 9.86804ZM15.1088 9.93928C14.8534 9.93928 14.6831 9.7968 14.5128 9.65431C14.3426 9.44058 14.3426 9.44059 14.3426 7.01833V4.8098H14.9385H15.5344V6.87584C15.5344 9.08437 15.5344 9.01313 15.7047 9.08437C15.8749 9.08437 16.0452 9.08437 16.2154 8.87064L16.3857 8.72816V6.80459V4.88104H16.9816H17.5775V7.37454V9.86804H17.4924C17.4073 9.86804 16.556 9.86804 16.4708 9.86804C16.4708 9.86804 16.3857 9.7968 16.3857 9.65431V9.44059L16.2154 9.58307C15.8749 9.86804 15.4493 10.0105 15.1088 9.93928ZM12.2143 9.01313C12.3846 8.87064 12.3846 8.87064 12.3846 7.44578C12.3846 6.3059 12.3846 6.16341 12.3846 6.02092C12.2994 5.80719 12.2143 5.73595 12.0441 5.66471C11.7887 5.59347 11.6184 5.73595 11.5333 5.94968C11.4481 6.09217 11.4481 8.65691 11.5333 8.7994C11.6184 8.94188 11.7035 9.08437 11.7887 9.08437C11.9589 9.08437 12.1292 9.01313 12.2143 9.01313ZM11.7035 9.93928C11.1927 9.86804 10.682 9.65431 10.5117 9.2981C10.2563 8.94188 10.2563 8.72816 10.2563 7.23206C10.2563 6.02093 10.2563 5.94968 10.3414 5.8072C10.5117 5.37974 10.7671 5.09477 11.1076 4.95228C11.7035 4.73855 12.2994 4.73855 12.8102 5.02352C13.1507 5.23725 13.321 5.45098 13.4913 5.87844C13.5764 6.02093 13.5764 6.16341 13.5764 7.37454C13.5764 8.87064 13.5764 8.94188 13.4061 9.22686C13.2359 9.51183 12.8102 9.7968 12.4697 9.86804C12.2143 9.93929 11.8738 9.93928 11.7035 9.93928Z" fill="#212121"/>
</svg>
