<svg width="24" height="25" viewBox="0 0 24 25" fill="none" xmlns="http://www.w3.org/2000/svg">
<path fill-rule="evenodd" clip-rule="evenodd" d="M9 2.09821C5.13401 2.09821 2 5.23221 2 9.09821V15.0982C2 18.9642 5.13401 22.0982 9 22.0982H15C18.866 22.0982 22 18.9642 22 15.0982V9.09821C22 5.23221 18.866 2.09821 15 2.09821H9ZM7.40675 5.63753C7.66119 5.31068 8.13242 5.25198 8.45927 5.50642L12.9568 9.00754C13.2741 9.25458 13.3402 9.70797 13.1064 10.0352L11.012 12.9679L15.25 16.4985V14.0982C15.25 13.684 15.5858 13.3482 16 13.3482C16.4142 13.3482 16.75 13.684 16.75 14.0982V18.8482H16.0208C16.0059 18.8486 15.9909 18.8486 15.976 18.8482H12C11.5858 18.8482 11.25 18.5124 11.25 18.0982C11.25 17.684 11.5858 17.3482 12 17.3482H13.9264L9.517 13.6747C9.21538 13.4234 9.15857 12.9821 9.38673 12.6626L11.4675 9.74911L7.53786 6.69006C7.21101 6.43562 7.15231 5.96439 7.40675 5.63753Z" fill="#212121"/>
</svg>
