<svg width="24" height="24" viewBox="0 0 24 24" fill="none" xmlns="http://www.w3.org/2000/svg">
<path fill-rule="evenodd" clip-rule="evenodd" d="M9 2C5.13401 2 2 5.13401 2 9V15C2 18.866 5.13401 22 9 22H15C18.866 22 22 18.866 22 15V9C22 5.13401 18.866 2 15 2H9ZM7.40675 5.53933C7.66119 5.21248 8.13242 5.15377 8.45927 5.40821L12.9568 8.90933C13.2741 9.15638 13.3402 9.60976 13.1064 9.93704L11.012 12.8697L15.25 16.4003V14C15.25 13.5857 15.5858 13.25 16 13.25C16.4142 13.25 16.75 13.5857 16.75 14V18.75H16.0208C16.0059 18.7504 15.9909 18.7504 15.976 18.75H12C11.5858 18.75 11.25 18.4142 11.25 18C11.25 17.5857 11.5858 17.25 12 17.25H13.9264L9.517 13.5765C9.21538 13.3252 9.15857 12.8839 9.38673 12.5644L11.4675 9.6509L7.53786 6.59185C7.21101 6.33741 7.15231 5.86618 7.40675 5.53933Z" fill="#212121"/>
</svg>
