<svg width="24" height="25" viewBox="0 0 24 25" fill="none" xmlns="http://www.w3.org/2000/svg">
<path d="M1.94923 11.147C0.422854 9.62062 0.774771 6.79395 2.73526 4.83347C4.69575 2.87298 7.52241 2.52106 9.04879 4.04744C10.144 5.14263 10.2722 6.90724 9.53303 8.541C10.297 8.2548 11.1244 8.0983 11.9883 8.0983C12.862 8.0983 13.6983 8.25836 14.4695 8.55077C13.7254 6.91428 13.852 5.14481 14.9493 4.04744C16.4757 2.52106 19.3024 2.87298 21.2629 4.83347C23.2234 6.79395 23.5753 9.62062 22.0489 11.147C21.0978 12.0981 19.6418 12.3199 18.2051 11.8777C18.7055 12.8418 18.9883 13.937 18.9883 15.0983C18.9883 18.9643 15.8543 22.0983 11.9883 22.0983C8.12233 22.0983 4.98832 18.9643 4.98832 15.0983C4.98832 13.9401 5.26959 12.8477 5.76754 11.8855C4.33913 12.3173 2.89472 12.0925 1.94923 11.147Z" fill="#212121"/>
</svg>
