<svg width="24" height="24" viewBox="0 0 24 24" fill="none" xmlns="http://www.w3.org/2000/svg">
<path d="M1.94923 11.0488C0.422854 9.52241 0.774771 6.69575 2.73526 4.73526C4.69575 2.77477 7.52241 2.42285 9.04879 3.94923C10.144 5.04443 10.2722 6.80904 9.53303 8.4428C10.297 8.15659 11.1244 8.00009 11.9883 8.00009C12.862 8.00009 13.6983 8.16016 14.4695 8.45256C13.7254 6.81608 13.852 5.04661 14.9493 3.94923C16.4757 2.42285 19.3024 2.77477 21.2629 4.73526C23.2234 6.69575 23.5753 9.52241 22.0489 11.0488C21.0978 11.9999 19.6418 12.2217 18.2051 11.7795C18.7055 12.7436 18.9883 13.8388 18.9883 15.0001C18.9883 18.8661 15.8543 22.0001 11.9883 22.0001C8.12233 22.0001 4.98832 18.8661 4.98832 15.0001C4.98832 13.8419 5.26959 12.7495 5.76754 11.7873C4.33913 12.2191 2.89472 11.9943 1.94923 11.0488Z" fill="#212121"/>
</svg>
