<svg width="24" height="25" viewBox="0 0 24 25" fill="none" xmlns="http://www.w3.org/2000/svg">
<path fill-rule="evenodd" clip-rule="evenodd" d="M6 1.09821C4.89543 1.09821 4 1.99364 4 3.09821V20.0982C4 21.2028 4.89543 22.0982 6 22.0982H18C19.1046 22.0982 20 21.2028 20 20.0982V3.09821C20 1.99364 19.1046 1.09821 18 1.09821H6ZM7 3.09821C6.44772 3.09821 6 3.54592 6 4.09821V18.0982H18V4.09821C18 3.54592 17.5523 3.09821 17 3.09821H7ZM12 21.0982C12.5523 21.0982 13 20.6505 13 20.0982C13 19.5459 12.5523 19.0982 12 19.0982C11.4477 19.0982 11 19.5459 11 20.0982C11 20.6505 11.4477 21.0982 12 21.0982Z" fill="#212121"/>
</svg>
