<svg width="24" height="25" viewBox="0 0 24 25" fill="none" xmlns="http://www.w3.org/2000/svg">
<path d="M10 5.09821C10 3.99364 10.8954 3.09821 12 3.09821C13.1046 3.09821 14 3.99364 14 5.09821C14 6.20278 13.1046 7.09821 12 7.09821C10.8954 7.09821 10 6.20278 10 5.09821Z" fill="#212121"/>
<path d="M10 12.0982C10 10.9936 10.8954 10.0982 12 10.0982C13.1046 10.0982 14 10.9936 14 12.0982C14 13.2028 13.1046 14.0982 12 14.0982C10.8954 14.0982 10 13.2028 10 12.0982Z" fill="#212121"/>
<path d="M12 17.0982C10.8954 17.0982 10 17.9936 10 19.0982C10 20.2028 10.8954 21.0982 12 21.0982C13.1046 21.0982 14 20.2028 14 19.0982C14 17.9936 13.1046 17.0982 12 17.0982Z" fill="#212121"/>
</svg>
