<svg width="24" height="25" viewBox="0 0 24 25" fill="none" xmlns="http://www.w3.org/2000/svg">
<path fill-rule="evenodd" clip-rule="evenodd" d="M16 12.0982C16 13.1982 16.9 14.0982 18 14.0982C19.1 14.0982 20 13.1982 20 12.0982C20 10.9982 19.1 10.0982 18 10.0982C16.9 10.0982 16 10.9982 16 12.0982Z" fill="#212121"/>
<path fill-rule="evenodd" clip-rule="evenodd" d="M14 12.0982C14 10.9982 13.1 10.0982 12 10.0982C10.9 10.0982 10 10.9982 10 12.0982C10 13.1982 10.9 14.0982 12 14.0982C13.1 14.0982 14 13.1982 14 12.0982Z" fill="#212121"/>
<path fill-rule="evenodd" clip-rule="evenodd" d="M8 12.0982C8 10.9982 7.1 10.0982 6 10.0982C4.9 10.0982 4 10.9982 4 12.0982C4 13.1982 4.9 14.0982 6 14.0982C7.1 14.0982 8 13.1982 8 12.0982Z" fill="#212121"/>
</svg>
