<svg width="24" height="25" viewBox="0 0 24 25" fill="none" xmlns="http://www.w3.org/2000/svg">
<path fill-rule="evenodd" clip-rule="evenodd" d="M6 9.09821V8.09821C6 4.7845 8.68629 2.09821 12 2.09821C15.3137 2.09821 18 4.7845 18 8.09821V9.09821V11.3512C18 12.4698 18.4443 13.5426 19.2353 14.3335L20.3314 15.4296C20.7595 15.8577 21 16.4383 21 17.0437C21 18.1784 20.0802 19.0982 18.9455 19.0982H5.05446C3.91981 19.0982 3 18.1784 3 17.0437C3 16.4383 3.2405 15.8577 3.6686 15.4296L4.76471 14.3335C5.55565 13.5426 6 12.4698 6 11.3512V9.09821ZM12 22.0982C13.2819 22.0982 14.4012 21.2939 15 20.0984C12.8658 20.0982 10.7012 20.0983 9 20.0984C9.59883 21.2939 10.7181 22.0982 12 22.0982Z" fill="#212121"/>
</svg>
