<svg width="24" height="24" viewBox="0 0 24 24" fill="none" xmlns="http://www.w3.org/2000/svg">
<path fill-rule="evenodd" clip-rule="evenodd" d="M6 9V8C6 4.68629 8.68629 2 12 2C15.3137 2 18 4.68629 18 8V9V11.253C18 12.3716 18.4443 13.4443 19.2353 14.2353L20.3314 15.3314C20.7595 15.7595 21 16.3401 21 16.9455C21 18.0802 20.0802 19 18.9455 19H5.05446C3.91981 19 3 18.0802 3 16.9455C3 16.3401 3.2405 15.7595 3.6686 15.3314L4.76471 14.2353C5.55565 13.4443 6 12.3716 6 11.253V9ZM12 22C13.2819 22 14.4012 21.1957 15 20.0002C12.8658 20 10.7012 20 9 20.0002C9.59883 21.1957 10.7181 22 12 22Z" fill="#212121"/>
</svg>
