<svg width="24" height="25" viewBox="0 0 24 25" fill="none" xmlns="http://www.w3.org/2000/svg">
<path d="M17 12.5982L10 8.09821V17.0982L17 12.5982Z" fill="black"/>
<path fill-rule="evenodd" clip-rule="evenodd" d="M3 4.09821C1.34315 4.09821 0 5.44135 0 7.09821V18.0982C0 19.7551 1.34314 21.0982 3 21.0982H21C22.6569 21.0982 24 19.7551 24 18.0982V7.09821C24 5.44135 22.6569 4.09821 21 4.09821H3ZM2 7.09821C2 6.54592 2.44772 6.09821 3 6.09821H21C21.5523 6.09821 22 6.54592 22 7.09821V18.0982C22 18.6505 21.5523 19.0982 21 19.0982H3C2.44772 19.0982 2 18.6505 2 18.0982V7.09821Z" fill="black"/>
</svg>
