<svg width="24" height="25" viewBox="0 0 24 25" fill="none" xmlns="http://www.w3.org/2000/svg">
<path d="M12 16.0982C14.2091 16.0982 16 14.3073 16 12.0982C16 9.88907 14.2091 8.09821 12 8.09821C9.79086 8.09821 8 9.88907 8 12.0982C8 14.3073 9.79086 16.0982 12 16.0982Z" fill="#212121"/>
<path fill-rule="evenodd" clip-rule="evenodd" d="M12 2.09821C6.47715 2.09821 2 6.57536 2 12.0982C2 17.6211 6.47715 22.0982 12 22.0982C17.5228 22.0982 22 17.6211 22 12.0982C22 6.57536 17.5228 2.09821 12 2.09821ZM4 12.0982C4 7.67993 7.58172 4.09821 12 4.09821C16.4183 4.09821 20 7.67993 20 12.0982C20 16.5165 16.4183 20.0982 12 20.0982C7.58172 20.0982 4 16.5165 4 12.0982Z" fill="#212121"/>
</svg>
