<svg width="24" height="25" viewBox="0 0 24 25" fill="none" xmlns="http://www.w3.org/2000/svg">
<path d="M8.49998 6.74818C7.47825 6.74818 6.64998 7.57645 6.64998 8.59818C6.64998 9.61991 7.47825 10.4482 8.49998 10.4482C9.5217 10.4482 10.35 9.61991 10.35 8.59818C10.35 7.57645 9.5217 6.74818 8.49998 6.74818Z" fill="#212121"/>
<path d="M15.5 13.7482C14.4782 13.7482 13.65 14.5765 13.65 15.5982C13.65 16.6199 14.4782 17.4482 15.5 17.4482C16.5217 17.4482 17.35 16.6199 17.35 15.5982C17.35 14.5765 16.5217 13.7482 15.5 13.7482Z" fill="#212121"/>
<path fill-rule="evenodd" clip-rule="evenodd" d="M9 2.09821C5.13401 2.09821 2 5.23221 2 9.09821V15.0982C2 18.9642 5.13401 22.0982 9 22.0982H15C18.866 22.0982 22 18.9642 22 15.0982V9.09821C22 5.23221 18.866 2.09821 15 2.09821H9ZM5.34998 8.59818C5.34998 6.85848 6.76028 5.44818 8.49998 5.44818C10.2397 5.44818 11.65 6.85848 11.65 8.59818C11.65 10.3379 10.2397 11.7482 8.49998 11.7482C6.76028 11.7482 5.34998 10.3379 5.34998 8.59818ZM12.35 15.5982C12.35 13.8585 13.7603 12.4482 15.5 12.4482C17.2397 12.4482 18.65 13.8585 18.65 15.5982C18.65 17.3379 17.2397 18.7482 15.5 18.7482C13.7603 18.7482 12.35 17.3379 12.35 15.5982ZM16.4596 7.63856C16.7134 7.8924 16.7134 8.30396 16.4596 8.5578L8.45959 16.5578C8.20575 16.8116 7.7942 16.8116 7.54036 16.5578C7.28652 16.304 7.28652 15.8924 7.54036 15.6386L15.5404 7.63856C15.7942 7.38472 16.2058 7.38472 16.4596 7.63856Z" fill="#212121"/>
</svg>
