<svg width="24" height="24" viewBox="0 0 24 24" fill="none" xmlns="http://www.w3.org/2000/svg">
<path d="M8.49998 6.64998C7.47825 6.64998 6.64998 7.47825 6.64998 8.49998C6.64998 9.5217 7.47825 10.35 8.49998 10.35C9.5217 10.35 10.35 9.5217 10.35 8.49998C10.35 7.47825 9.5217 6.64998 8.49998 6.64998Z" fill="#212121"/>
<path d="M15.5 13.65C14.4782 13.65 13.65 14.4782 13.65 15.5C13.65 16.5217 14.4782 17.35 15.5 17.35C16.5217 17.35 17.35 16.5217 17.35 15.5C17.35 14.4782 16.5217 13.65 15.5 13.65Z" fill="#212121"/>
<path fill-rule="evenodd" clip-rule="evenodd" d="M9 2C5.13401 2 2 5.13401 2 9V15C2 18.866 5.13401 22 9 22H15C18.866 22 22 18.866 22 15V9C22 5.13401 18.866 2 15 2H9ZM5.34998 8.49998C5.34998 6.76028 6.76028 5.34998 8.49998 5.34998C10.2397 5.34998 11.65 6.76028 11.65 8.49998C11.65 10.2397 10.2397 11.65 8.49998 11.65C6.76028 11.65 5.34998 10.2397 5.34998 8.49998ZM12.35 15.5C12.35 13.7603 13.7603 12.35 15.5 12.35C17.2397 12.35 18.65 13.7603 18.65 15.5C18.65 17.2397 17.2397 18.65 15.5 18.65C13.7603 18.65 12.35 17.2397 12.35 15.5ZM16.4596 7.54036C16.7134 7.7942 16.7134 8.20575 16.4596 8.45959L8.45959 16.4596C8.20575 16.7134 7.7942 16.7134 7.54036 16.4596C7.28652 16.2058 7.28652 15.7942 7.54036 15.5404L15.5404 7.54036C15.7942 7.28652 16.2058 7.28652 16.4596 7.54036Z" fill="#212121"/>
</svg>
