<svg width="24" height="25" viewBox="0 0 24 25" fill="none" xmlns="http://www.w3.org/2000/svg">
<path fill-rule="evenodd" clip-rule="evenodd" d="M15.2288 3.01444C17.1037 1.40745 20 2.73959 20 5.20886C20 6.80509 18.706 8.09909 17.1098 8.09909H16.0005C17.2147 9.01132 18 10.4635 18 12.0991V12.6144C18 13.5825 18.2865 14.5289 18.8235 15.3344L19.7207 16.6802C19.9028 16.9533 20 17.2743 20 17.6026C20 18.4291 19.33 19.0991 18.5035 19.0991H5.49654C4.67002 19.0991 4 18.4291 4 17.6026C4 17.2743 4.09717 16.9533 4.27927 16.6802L5.17647 15.3344C5.71345 14.5289 6 13.5825 6 12.6144V12.0991C6 10.4635 6.78534 9.01132 7.99951 8.09909H6.89023C5.294 8.09909 4 6.80509 4 5.20886C4 2.73959 6.89635 1.40745 8.77116 3.01444L10.9599 4.89049C11.2629 4.70561 11.619 4.59909 12 4.59909C12.381 4.59909 12.7371 4.70561 13.0401 4.89049L15.2288 3.01444ZM18 5.20886C18 4.44829 17.1079 4.03798 16.5304 4.53295L14.7033 6.09909H17.1098C17.6014 6.09909 18 5.70052 18 5.20886ZM15 20.0991C14.6561 21.2492 13.4434 22.0991 12 22.0991C10.5566 22.0991 9.34387 21.2492 9 20.0991H15ZM7.46958 4.53295C6.89211 4.03798 6 4.44829 6 5.20886C6 5.70052 6.39857 6.09909 6.89023 6.09909H9.29674L7.46958 4.53295Z" fill="#212121"/>
</svg>
