<svg width="24" height="24" viewBox="0 0 24 24" fill="none" xmlns="http://www.w3.org/2000/svg">
<path fill-rule="evenodd" clip-rule="evenodd" d="M15.2288 2.91623C17.1037 1.30925 20 2.64138 20 5.11066C20 6.70688 18.706 8.00088 17.1098 8.00088H16.0005C17.2147 8.91311 18 10.3653 18 12.0009V12.5162C18 13.4843 18.2865 14.4307 18.8235 15.2362L19.7207 16.582C19.9028 16.8551 20 17.1761 20 17.5043C20 18.3309 19.33 19.0009 18.5035 19.0009H5.49654C4.67002 19.0009 4 18.3309 4 17.5043C4 17.1761 4.09717 16.8551 4.27927 16.582L5.17647 15.2362C5.71345 14.4307 6 13.4843 6 12.5162V12.0009C6 10.3653 6.78534 8.91311 7.99951 8.00088H6.89023C5.294 8.00088 4 6.70688 4 5.11066C4 2.64138 6.89635 1.30925 8.77116 2.91623L10.9599 4.79228C11.2629 4.6074 11.619 4.50088 12 4.50088C12.381 4.50088 12.7371 4.6074 13.0401 4.79228L15.2288 2.91623ZM18 5.11066C18 4.35009 17.1079 3.93977 16.5304 4.43474L14.7033 6.00088H17.1098C17.6014 6.00088 18 5.60231 18 5.11066ZM15 20.0009C14.6561 21.151 13.4434 22.0009 12 22.0009C10.5566 22.0009 9.34387 21.151 9 20.0009H15ZM7.46958 4.43474C6.89211 3.93977 6 4.35009 6 5.11066C6 5.60231 6.39857 6.00088 6.89023 6.00088H9.29674L7.46958 4.43474Z" fill="#212121"/>
</svg>
