<svg width="24" height="25" viewBox="0 0 24 25" fill="none" xmlns="http://www.w3.org/2000/svg">
<path fill-rule="evenodd" clip-rule="evenodd" d="M9 2.09821C5.13401 2.09821 2 5.23221 2 9.09821V15.0982C2 18.9642 5.13401 22.0982 9 22.0982H15C18.866 22.0982 22 18.9642 22 15.0982V9.09821C22 5.23221 18.866 2.09821 15 2.09821H9ZM17.6007 9.31515C17.8793 9.95246 18.0153 10.6474 17.9986 11.3476C18.0191 12.1958 17.7516 13.0243 17.2433 13.6869C16.9902 14.0055 16.6844 14.292 16.3403 14.498H16.3236V14.5183V14.6462C16.3403 14.8303 16.3218 15.016 16.2691 15.1926C16.2165 15.3691 16.1308 15.5331 16.017 15.6749C15.9727 15.7318 15.9177 15.7787 15.8554 15.8127C15.7931 15.8467 15.7248 15.867 15.6547 15.8725C15.362 15.8725 15.2812 15.486 15.2254 15.0908C15.1406 14.4645 14.8791 13.8556 14.5005 13.3614C14.2423 13.0453 13.8928 12.7948 13.5276 12.6291C13.1624 12.4634 12.7689 12.4016 12.3711 12.4201C11.684 12.4112 11.0418 12.7038 10.5466 13.2005C10.0589 13.7003 9.71305 14.6283 9.81086 15.5876C9.90868 16.547 10.2681 17.4843 10.6738 17.7884C10.4627 17.4267 10.4363 17.0981 10.4403 16.7744C10.4443 16.4507 10.6019 15.9085 10.8741 15.6171C11.165 15.3057 11.4474 15.1285 11.864 15.1114C11.9707 15.1108 12.0772 15.1215 12.1818 15.1434C12.2094 15.1491 12.235 15.1626 12.2557 15.1825C12.2764 15.2024 12.2915 15.2278 12.2993 15.256C12.3071 15.2843 12.3072 15.3142 12.2998 15.3425C12.2923 15.3708 12.2775 15.3964 12.257 15.4166C12.0741 15.6064 11.9303 15.8332 11.8345 16.0831C11.7386 16.3329 11.6965 16.5719 11.7034 16.8409C11.7363 18.1313 12.7963 18.384 13.06 18.4195C13.3122 18.4534 13.3465 18.4508 13.5053 18.4389C13.5126 18.4384 13.52 18.4378 13.5278 18.4372C13.7064 18.4239 13.6809 18.5703 13.6597 18.5969C13.6588 18.5979 13.6576 18.5996 13.6559 18.602C13.6137 18.6597 13.2936 19.0979 12.2222 19.0979C11.3659 19.1066 10.5162 18.9179 9.71457 18.6038C8.96805 18.3099 8.28705 17.8599 7.71341 17.2816C7.1458 16.7059 6.75918 16.0131 6.46301 15.2474C6.1505 14.4254 5.99339 13.5482 6.00034 12.664C5.98851 11.4991 6.28344 10.3532 6.85301 9.35093C7.42259 8.3487 8.21945 7.58182 9.2051 7.03317H9.23019V7.00702C9.05338 6.65344 8.78381 6.32662 8.46358 6.10862C8.43786 6.08605 8.41675 6.05832 8.40151 6.02707C8.38628 5.99582 8.37722 5.9617 8.37488 5.92673C8.37254 5.89176 8.37696 5.85666 8.38789 5.82351C8.39882 5.79036 8.41603 5.75983 8.4385 5.73376C8.64753 5.44316 9.21567 5.09936 10.0156 5.09936C10.5856 5.08477 11.1532 5.20999 11.6879 5.41656C12.1454 5.62138 12.5601 5.91754 12.9086 6.28834C14.1615 6.38015 15.3594 6.86089 16.3479 7.66867C16.8657 8.11484 17.3221 8.67783 17.6007 9.31515ZM15.9529 13.2571C16.0857 13.1542 16.2064 13.0174 16.3124 12.8849C16.6494 12.4468 16.8245 11.8972 16.8057 11.336C16.8233 10.8185 16.7263 10.3037 16.5223 9.83148C16.3184 9.3593 15.9704 8.94241 15.587 8.61311C14.7227 7.92915 13.7095 7.56088 12.6249 7.52658L12.3852 7.50914C12.1545 7.07921 11.7688 6.71563 11.3437 6.50052C10.9186 6.2854 10.483 6.21135 10.0163 6.28834C10.3801 6.68248 10.6535 7.15736 10.8162 7.67739C10.6044 7.74145 10.396 7.81711 10.1919 7.90405C9.30703 8.28637 8.56623 8.931 8.02937 9.75805C7.47881 10.618 7.18761 11.6301 7.19323 12.664C7.19496 15.3044 8.66485 16.5156 8.87471 16.6885C8.885 16.697 8.89226 16.703 8.89617 16.7065C8.70718 16.139 8.64665 15.9408 8.63418 15.1195C8.62624 14.5971 8.71922 14.0784 8.90756 13.5943C9.09591 13.1101 9.31624 12.6704 9.67096 12.3014C10.0257 11.9324 10.448 11.6415 10.9128 11.4462C11.3775 11.2509 11.8753 11.1551 12.3763 11.1645C13.4006 11.1595 14.3883 11.5617 15.1383 12.2891C15.4194 12.5683 15.7065 12.9026 15.9083 13.2484L15.925 13.2775L15.9529 13.2571Z" fill="#212121"/>
</svg>
