<svg width="24" height="24" viewBox="0 0 24 24" fill="none" xmlns="http://www.w3.org/2000/svg">
<path fill-rule="evenodd" clip-rule="evenodd" d="M9 2C5.13401 2 2 5.13401 2 9V15C2 18.866 5.13401 22 9 22H15C18.866 22 22 18.866 22 15V9C22 5.13401 18.866 2 15 2H9ZM17.6007 9.21694C17.8793 9.85426 18.0153 10.5492 17.9986 11.2494C18.0191 12.0976 17.7516 12.9261 17.2433 13.5887C16.9902 13.9073 16.6844 14.1938 16.3403 14.3998H16.3236V14.4201V14.548C16.3403 14.7321 16.3218 14.9178 16.2691 15.0944C16.2165 15.2709 16.1308 15.4349 16.017 15.5767C15.9727 15.6336 15.9177 15.6805 15.8554 15.7145C15.7931 15.7485 15.7248 15.7688 15.6547 15.7743C15.362 15.7743 15.2812 15.3878 15.2254 14.9926C15.1406 14.3663 14.8791 13.7574 14.5005 13.2632C14.2423 12.9471 13.8928 12.6966 13.5276 12.5309C13.1624 12.3652 12.7689 12.3034 12.3711 12.3219C11.684 12.313 11.0418 12.6056 10.5466 13.1023C10.0589 13.6021 9.71305 14.5301 9.81086 15.4894C9.90868 16.4488 10.2681 17.3861 10.6738 17.6902C10.4627 17.3285 10.4363 16.9999 10.4403 16.6762C10.4443 16.3525 10.6019 15.8103 10.8741 15.5189C11.165 15.2075 11.4474 15.0303 11.864 15.0132C11.9707 15.0126 12.0772 15.0233 12.1818 15.0452C12.2094 15.0509 12.235 15.0644 12.2557 15.0843C12.2764 15.1042 12.2915 15.1296 12.2993 15.1578C12.3071 15.1861 12.3072 15.216 12.2998 15.2443C12.2923 15.2726 12.2775 15.2982 12.257 15.3183C12.0741 15.5082 11.9303 15.735 11.8345 15.9848C11.7386 16.2347 11.6965 16.4737 11.7034 16.7427C11.7363 18.0331 12.7963 18.2858 13.06 18.3213C13.3122 18.3552 13.3465 18.3526 13.5053 18.3407C13.5126 18.3402 13.52 18.3396 13.5278 18.339C13.7064 18.3257 13.6809 18.472 13.6597 18.4987C13.6588 18.4997 13.6576 18.5014 13.6559 18.5037C13.6137 18.5615 13.2936 18.9997 12.2222 18.9997C11.3659 19.0084 10.5162 18.8197 9.71457 18.5056C8.96805 18.2117 8.28705 17.7617 7.71341 17.1834C7.1458 16.6077 6.75918 15.9149 6.46301 15.1492C6.1505 14.3272 5.99339 13.45 6.00034 12.5658C5.98851 11.4009 6.28344 10.255 6.85301 9.25273C7.42259 8.2505 8.21945 7.48362 9.2051 6.93496H9.23019V6.90881C9.05338 6.55524 8.78381 6.22842 8.46358 6.01042C8.43786 5.98785 8.41675 5.96011 8.40151 5.92886C8.38628 5.89762 8.37722 5.8635 8.37488 5.82853C8.37254 5.79356 8.37696 5.75845 8.38789 5.7253C8.39882 5.69215 8.41603 5.66163 8.4385 5.63555C8.64753 5.34496 9.21567 5.00115 10.0156 5.00115C10.5856 4.98656 11.1532 5.11178 11.6879 5.31835C12.1454 5.52318 12.5601 5.81933 12.9086 6.19014C14.1615 6.28194 15.3594 6.76268 16.3479 7.57047C16.8657 8.01663 17.3221 8.57962 17.6007 9.21694ZM15.9529 13.1589C16.0857 13.056 16.2064 12.9192 16.3124 12.7867C16.6494 12.3486 16.8245 11.799 16.8057 11.2378C16.8233 10.7202 16.7263 10.2055 16.5223 9.73327C16.3184 9.26109 15.9704 8.84421 15.587 8.5149C14.7227 7.83094 13.7095 7.46268 12.6249 7.42838L12.3852 7.41094C12.1545 6.981 11.7688 6.61743 11.3437 6.40231C10.9186 6.18719 10.483 6.11314 10.0163 6.19014C10.3801 6.58427 10.6535 7.05916 10.8162 7.57918C10.6044 7.64325 10.396 7.71891 10.1919 7.80585C9.30703 8.18817 8.56623 8.83279 8.02937 9.65985C7.47881 10.5198 7.18761 11.5319 7.19323 12.5658C7.19496 15.2062 8.66485 16.4174 8.87471 16.5903C8.885 16.5988 8.89226 16.6048 8.89617 16.6083C8.70718 16.0408 8.64665 15.8426 8.63418 15.0213C8.62624 14.4989 8.71922 13.9802 8.90756 13.4961C9.09591 13.0119 9.31624 12.5722 9.67096 12.2032C10.0257 11.8342 10.448 11.5433 10.9128 11.348C11.3775 11.1527 11.8753 11.0569 12.3763 11.0663C13.4006 11.0613 14.3883 11.4635 15.1383 12.1909C15.4194 12.4701 15.7065 12.8044 15.9083 13.1502L15.925 13.1793L15.9529 13.1589Z" fill="#212121"/>
</svg>
