<svg width="24" height="25" viewBox="0 0 24 25" fill="none" xmlns="http://www.w3.org/2000/svg">
<path d="M12.9996 2.22906C12.9996 1.67677 12.5519 1.22906 11.9996 1.22906C11.4473 1.22907 10.9996 1.67679 10.9996 2.22907L10.9997 4.229L8.5997 2.42903C8.15787 2.09766 7.53107 2.1872 7.1997 2.62903C6.86833 3.07086 6.95787 3.69766 7.3997 4.02903L10.9997 6.72901L10.9997 10.8513L7.07796 9.57711L5.62256 5.31901C5.44393 4.79641 4.87548 4.51757 4.35288 4.69619C3.83027 4.87481 3.55143 5.44327 3.73005 5.96587L4.70031 8.80458L2.79822 8.18656C2.27296 8.0159 1.70881 8.30336 1.53815 8.82861C1.36749 9.35387 1.65494 9.91802 2.1802 10.0887L4.08228 10.7067L1.62875 12.433C1.17707 12.7508 1.06853 13.3746 1.38634 13.8263C1.70414 14.278 2.32794 14.3865 2.77962 14.0687L6.45994 11.4792L10.3894 12.7559L7.97049 16.0931L3.47106 16.1665C2.91885 16.1755 2.4785 16.6304 2.4875 17.1826C2.49651 17.7349 2.95146 18.1752 3.50367 18.1662L6.5033 18.1173L5.32954 19.7367C5.00542 20.1838 5.10517 20.8091 5.55234 21.1332C5.99951 21.4573 6.62477 21.3576 6.94889 20.9104L8.12259 19.2911L9.00939 22.157C9.17265 22.6846 9.73271 22.9799 10.2603 22.8167C10.7879 22.6534 11.0833 22.0934 10.92 21.5658L9.58979 17.2669L12.0177 13.9173L14.4852 17.269L13.1867 21.5776C13.0273 22.1064 13.3268 22.6643 13.8556 22.8236C14.3844 22.983 14.9423 22.6835 15.1016 22.1547L15.9673 19.2823L17.153 20.893C17.4804 21.3378 18.1064 21.4329 18.5511 21.1055C18.9959 20.7781 19.091 20.1521 18.7636 19.7073L17.5779 18.0967L20.5778 18.1235C21.13 18.1284 21.5817 17.6847 21.5867 17.1325C21.5916 16.5802 21.1479 16.1285 20.5956 16.1236L16.0958 16.0834L13.6393 12.7465L17.5395 11.4792L21.2198 14.0687C21.6715 14.3865 22.2953 14.278 22.6131 13.8263C22.9309 13.3746 22.8224 12.7508 22.3707 12.433L19.9172 10.7067L21.8193 10.0887C22.3446 9.91802 22.632 9.35387 22.4614 8.82861C22.2907 8.30336 21.7266 8.0159 21.2013 8.18656L19.2991 8.8046L20.2694 5.96587C20.448 5.44327 20.1692 4.87481 19.6466 4.69619C19.124 4.51757 18.5555 4.79641 18.3769 5.31901L16.9215 9.57713L12.9997 10.8514L12.9997 6.72905L16.5996 4.02903C17.0415 3.69765 17.131 3.07085 16.7996 2.62903C16.4683 2.1872 15.8415 2.09766 15.3996 2.42904L12.9997 4.22905L12.9996 2.22906Z" fill="#212121"/>
</svg>
