<svg width="24" height="24" viewBox="0 0 24 24" fill="none" xmlns="http://www.w3.org/2000/svg">
<path d="M12.9996 2.13085C12.9996 1.57857 12.5519 1.13086 11.9996 1.13086C11.4473 1.13086 10.9996 1.57858 10.9996 2.13087L10.9997 4.13079L8.5997 2.33083C8.15787 1.99946 7.53107 2.089 7.1997 2.53083C6.86833 2.97265 6.95787 3.59946 7.3997 3.93083L10.9997 6.6308L10.9997 10.7531L7.07796 9.4789L5.62256 5.22081C5.44393 4.69821 4.87548 4.41936 4.35288 4.59798C3.83027 4.77661 3.55143 5.34506 3.73005 5.86766L4.70031 8.70638L2.79822 8.08836C2.27296 7.9177 1.70881 8.20515 1.53815 8.73041C1.36749 9.25566 1.65494 9.81981 2.1802 9.99048L4.08228 10.6085L1.62875 12.3348C1.17707 12.6526 1.06853 13.2764 1.38634 13.7281C1.70414 14.1798 2.32794 14.2883 2.77962 13.9705L6.45994 11.381L10.3894 12.6577L7.97049 15.9949L3.47106 16.0683C2.91885 16.0773 2.4785 16.5322 2.4875 17.0844C2.49651 17.6367 2.95146 18.077 3.50367 18.068L6.5033 18.0191L5.32954 19.6385C5.00542 20.0856 5.10517 20.7109 5.55234 21.035C5.99951 21.3591 6.62477 21.2594 6.94889 20.8122L8.12259 19.1929L9.00939 22.0588C9.17265 22.5864 9.73271 22.8817 10.2603 22.7185C10.7879 22.5552 11.0833 21.9951 10.92 21.4675L9.58979 17.1687L12.0177 13.8191L14.4852 17.1708L13.1867 21.4794C13.0273 22.0082 13.3268 22.5661 13.8556 22.7254C14.3844 22.8848 14.9423 22.5853 15.1016 22.0565L15.9673 19.1841L17.153 20.7948C17.4804 21.2396 18.1064 21.3347 18.5511 21.0073C18.9959 20.6799 19.091 20.0539 18.7636 19.6091L17.5779 17.9985L20.5778 18.0253C21.13 18.0302 21.5817 17.5865 21.5867 17.0342C21.5916 16.482 21.1479 16.0303 20.5956 16.0254L16.0958 15.9852L13.6393 12.6483L17.5395 11.381L21.2198 13.9705C21.6715 14.2883 22.2953 14.1798 22.6131 13.7281C22.9309 13.2764 22.8224 12.6526 22.3707 12.3348L19.9172 10.6085L21.8193 9.99048C22.3446 9.81981 22.632 9.25566 22.4614 8.73041C22.2907 8.20515 21.7266 7.9177 21.2013 8.08836L19.2991 8.7064L20.2694 5.86766C20.448 5.34506 20.1692 4.77661 19.6466 4.59798C19.124 4.41936 18.5555 4.69821 18.3769 5.22081L16.9215 9.47893L12.9997 10.7532L12.9997 6.63085L16.5996 3.93082C17.0415 3.59945 17.131 2.97265 16.7996 2.53082C16.4683 2.089 15.8415 1.99946 15.3996 2.33083L12.9997 4.13084L12.9996 2.13085Z" fill="#212121"/>
</svg>
