<svg width="24" height="25" viewBox="0 0 24 25" fill="none" xmlns="http://www.w3.org/2000/svg">
<path d="M6.45119 11.9397L11.2474 6.45829C11.6458 6.00297 12.3542 6.00297 12.7526 6.45829L17.5488 11.9397C18.1146 12.5863 17.6554 13.5982 16.7962 13.5982H12H7.20377C6.34461 13.5982 5.88543 12.5863 6.45119 11.9397Z" fill="#212121"/>
<path d="M4.33629 19.965L11.226 11.5442C11.6261 11.0551 12.3739 11.0551 12.774 11.5442L19.6637 19.965C20.1979 20.6179 19.7334 21.5982 18.8898 21.5982H12H5.11024C4.26662 21.5982 3.80207 20.6179 4.33629 19.965Z" fill="#212121"/>
<path d="M11.5644 1.37156C11.7556 1.03209 12.2444 1.03209 12.4356 1.37156L12.8038 2.02518C12.8813 2.16277 13.0193 2.25566 13.1759 2.27573L13.8803 2.36594C14.3106 2.42106 14.4713 2.96055 14.1413 3.2422L13.7222 3.59993C13.5849 3.7171 13.5214 3.89916 13.5561 4.07628L13.6663 4.63899C13.7446 5.03919 13.3367 5.35981 12.9663 5.18914L12.2093 4.84027C12.0765 4.77908 11.9235 4.77908 11.7907 4.84027L11.0337 5.18914C10.6633 5.35981 10.2554 5.03919 10.3337 4.63899L10.4439 4.07628C10.4786 3.89916 10.4151 3.7171 10.2778 3.59993L9.85865 3.2422C9.52865 2.96055 9.68939 2.42106 10.1197 2.36594L10.8241 2.27573C10.9807 2.25566 11.1187 2.16277 11.1962 2.02518L11.5644 1.37156Z" fill="#212121"/>
<path d="M10 21.5982H14V23.0982C14 23.3743 13.7761 23.5982 13.5 23.5982H10.5C10.2239 23.5982 10 23.3743 10 23.0982V21.5982Z" fill="#212121"/>
<path d="M11.5644 1.11257C11.7556 0.773104 12.2445 0.773103 12.4357 1.11257L12.8039 1.76619C12.8814 1.90378 13.0194 1.99667 13.176 2.01674L13.8803 2.10695C14.3107 2.16207 14.4714 2.70156 14.1414 2.98321L13.7223 3.34094C13.585 3.45811 13.5215 3.64017 13.5562 3.8173L13.6663 4.38C13.7446 4.78021 13.3367 5.10082 12.9664 4.93015L12.2093 4.58129C12.0765 4.52009 11.9236 4.52009 11.7908 4.58129L11.0338 4.93015C10.6634 5.10082 10.2555 4.78021 10.3338 4.38L10.4439 3.8173C10.4786 3.64017 10.4151 3.45811 10.2778 3.34094L9.85871 2.98321C9.52871 2.70156 9.68945 2.16207 10.1198 2.10695L10.8241 2.01674C10.9808 1.99667 11.1187 1.90378 11.1962 1.76619L11.5644 1.11257Z" fill="#212121"/>
<path d="M11.2475 6.19928L6.45127 11.6807C5.88551 12.3273 6.34469 13.3392 7.20385 13.3392H9.54552L4.33634 19.706C3.80212 20.3589 4.26667 21.3392 5.1103 21.3392L10.0001 21.3392V22.8392C10.0001 23.1153 10.2239 23.3392 10.5001 23.3392H13.5001C13.7762 23.3392 14.0001 23.1153 14.0001 22.8392V21.3392L18.8898 21.3392C19.7334 21.3392 20.198 20.3589 19.6638 19.706L14.4546 13.3392H16.7963C17.6555 13.3392 18.1147 12.3273 17.5489 11.6807L12.7527 6.19928C12.3542 5.74396 11.6459 5.74396 11.2475 6.19928Z" fill="#212121"/>
</svg>
