<svg width="24" height="24" viewBox="0 0 24 24" fill="none" xmlns="http://www.w3.org/2000/svg">
<path d="M11.5644 1.01437C11.7556 0.674899 12.2445 0.674898 12.4357 1.01437L12.8039 1.66798C12.8814 1.80558 13.0194 1.89847 13.176 1.91853L13.8803 2.00874C14.3107 2.06386 14.4714 2.60336 14.1414 2.88501L13.7223 3.24273C13.585 3.3599 13.5215 3.54197 13.5562 3.71909L13.6663 4.2818C13.7446 4.682 13.3367 5.00261 12.9664 4.83194L12.2093 4.48308C12.0765 4.42188 11.9236 4.42188 11.7908 4.48308L11.0338 4.83194C10.6634 5.00261 10.2555 4.682 10.3338 4.2818L10.4439 3.71909C10.4786 3.54197 10.4151 3.3599 10.2778 3.24273L9.85871 2.88501C9.52871 2.60335 9.68945 2.06386 10.1198 2.00874L10.8241 1.91853C10.9808 1.89847 11.1187 1.80558 11.1962 1.66798L11.5644 1.01437Z" fill="#212121"/>
<path d="M11.2475 6.10108L6.45127 11.5825C5.88551 12.2291 6.34469 13.241 7.20385 13.241H9.54552L4.33634 19.6078C3.80212 20.2607 4.26667 21.241 5.1103 21.241L10.0001 21.241V22.741C10.0001 23.0171 10.2239 23.241 10.5001 23.241H13.5001C13.7762 23.241 14.0001 23.0171 14.0001 22.741V21.241L18.8898 21.241C19.7334 21.241 20.198 20.2607 19.6638 19.6078L14.4546 13.241H16.7963C17.6555 13.241 18.1147 12.2291 17.5489 11.5825L12.7527 6.10108C12.3542 5.64575 11.6459 5.64575 11.2475 6.10108Z" fill="#212121"/>
</svg>
