<svg width="24" height="25" viewBox="0 0 24 25" fill="none" xmlns="http://www.w3.org/2000/svg">
<path d="M11.6302 0.995989C11.7662 0.665806 12.2338 0.665807 12.3699 0.995989L13.7246 4.2846C13.1692 4.16255 12.5921 4.09823 12 4.09823C11.4079 4.09823 10.8308 4.16255 10.2754 4.2846L11.6302 0.995989Z" fill="#212121"/>
<path d="M18.3432 7.22272C17.6367 6.30491 16.7354 5.54476 15.7013 5.0041L18.8531 3.35569C19.1695 3.19019 19.5277 3.49078 19.4197 3.83115L18.3432 7.22272Z" fill="#212121"/>
<path d="M20 12.0982C20 11.0162 19.7852 9.98441 19.3959 9.04308L22.8694 9.80612C23.2181 9.88274 23.2993 10.3433 22.9978 10.5346L19.9928 12.4409C19.9976 12.3272 20 12.213 20 12.0982Z" fill="#212121"/>
<path d="M17.9025 17.4984C18.6787 16.6504 19.2746 15.6347 19.6295 14.5119L21.7997 17.3291C22.0177 17.6119 21.7839 18.0169 21.4299 17.9696L17.9025 17.4984Z" fill="#212121"/>
<path d="M13.0512 20.0298C14.2324 19.8748 15.3324 19.462 16.2931 18.8499L16.1447 22.4044C16.1298 22.7612 15.6904 22.9212 15.4497 22.6574L13.0512 20.0298Z" fill="#212121"/>
<path d="M7.70693 18.8499C8.66758 19.462 9.76766 19.8748 10.9489 20.0298L8.55036 22.6574C8.30961 22.9212 7.87017 22.7612 7.85528 22.4044L7.70693 18.8499Z" fill="#212121"/>
<path d="M4.37056 14.5119C4.72544 15.6347 5.32133 16.6504 6.09751 17.4984L2.57011 17.9696C2.21615 18.0169 1.98233 17.6119 2.20026 17.3291L4.37056 14.5119Z" fill="#212121"/>
<path d="M4.00001 12.0982C4.00001 12.213 4.00242 12.3272 4.00721 12.4409L1.00221 10.5346C0.700667 10.3433 0.781873 9.88274 1.13066 9.80612L4.60409 9.04308C4.21481 9.98441 4.00001 11.0162 4.00001 12.0982Z" fill="#212121"/>
<path d="M8.29871 5.0041C7.26457 5.54476 6.36334 6.30491 5.65684 7.22272L4.58031 3.83115C4.47227 3.49078 4.83051 3.19019 5.14694 3.35569L8.29871 5.0041Z" fill="#212121"/>
<path d="M12 19.0982C15.866 19.0982 19 15.9642 19 12.0982C19 8.23221 15.866 5.09821 12 5.09821C8.13401 5.09821 5 8.23221 5 12.0982C5 15.9642 8.13401 19.0982 12 19.0982Z" fill="#212121"/>
</svg>
