<svg width="24" height="24" viewBox="0 0 24 24" fill="none" xmlns="http://www.w3.org/2000/svg">
<path d="M11.6302 0.897783C11.7662 0.5676 12.2338 0.567601 12.3699 0.897784L13.7246 4.18639C13.1692 4.06435 12.5921 4.00002 12 4.00002C11.4079 4.00002 10.8308 4.06435 10.2754 4.18639L11.6302 0.897783Z" fill="#212121"/>
<path d="M18.3432 7.12452C17.6367 6.20671 16.7354 5.44655 15.7013 4.9059L18.8531 3.25748C19.1695 3.09198 19.5277 3.39258 19.4197 3.73295L18.3432 7.12452Z" fill="#212121"/>
<path d="M20 12C20 10.918 19.7852 9.88621 19.3959 8.94487L22.8694 9.70791C23.2181 9.78453 23.2993 10.2451 22.9978 10.4364L19.9928 12.3427C19.9976 12.229 20 12.1148 20 12Z" fill="#212121"/>
<path d="M17.9025 17.4001C18.6787 16.5522 19.2746 15.5365 19.6295 14.4137L21.7997 17.2308C22.0177 17.5137 21.7839 17.9187 21.4299 17.8714L17.9025 17.4001Z" fill="#212121"/>
<path d="M13.0512 19.9316C14.2324 19.7766 15.3324 19.3638 16.2931 18.7517L16.1447 22.3062C16.1298 22.663 15.6904 22.823 15.4497 22.5592L13.0512 19.9316Z" fill="#212121"/>
<path d="M7.70693 18.7517C8.66758 19.3638 9.76766 19.7766 10.9489 19.9316L8.55036 22.5592C8.30961 22.823 7.87017 22.663 7.85528 22.3062L7.70693 18.7517Z" fill="#212121"/>
<path d="M4.37056 14.4137C4.72544 15.5365 5.32133 16.5522 6.09751 17.4001L2.57011 17.8714C2.21615 17.9187 1.98233 17.5137 2.20026 17.2308L4.37056 14.4137Z" fill="#212121"/>
<path d="M4.00001 12C4.00001 12.1148 4.00242 12.229 4.00721 12.3427L1.00221 10.4364C0.700667 10.2451 0.781873 9.78453 1.13066 9.70791L4.60409 8.94487C4.21481 9.88621 4.00001 10.918 4.00001 12Z" fill="#212121"/>
<path d="M8.29871 4.9059C7.26457 5.44655 6.36334 6.20671 5.65684 7.12452L4.58031 3.73295C4.47227 3.39258 4.83051 3.09198 5.14694 3.25748L8.29871 4.9059Z" fill="#212121"/>
<path d="M12 19C15.866 19 19 15.866 19 12C19 8.13401 15.866 5 12 5C8.13401 5 5 8.13401 5 12C5 15.866 8.13401 19 12 19Z" fill="#212121"/>
</svg>
