<svg width="24" height="25" viewBox="0 0 24 25" fill="none" xmlns="http://www.w3.org/2000/svg">
<path fill-rule="evenodd" clip-rule="evenodd" d="M20.2504 3.52081C20.751 3.28741 21.346 3.50396 21.5794 4.0045C21.8128 4.50504 21.5962 5.10002 21.0957 5.33343L16.63 7.41578C16.8675 7.92721 17 8.49722 17 9.09819V10.0982L20.5 10.0982C21.3284 10.0982 22 10.7698 22 11.5982C22 12.4266 21.3284 13.0982 20.5 13.0982H3.5C2.67157 13.0982 2 12.4266 2 11.5982C2 10.7698 2.67157 10.0982 3.5 10.0982L7 10.0982V9.09819C7 6.88905 8.79086 5.09819 11 5.09819H13C13.8576 5.09819 14.6522 5.3681 15.3035 5.82762L20.2504 3.52081ZM6 20.0982C7.65685 20.0982 9 18.755 9 17.0982C9 18.755 10.3431 20.0982 12 20.0982C13.6569 20.0982 15 18.755 15 17.0982C15 18.755 16.3431 20.0982 18 20.0982C19.6569 20.0982 21 18.755 21 17.0982C21 17.0971 21 17.096 21 17.0949L21.5606 15.4147C21.7766 14.7671 21.2946 14.0982 20.612 14.0982H18H12H6H3.37965C2.69928 14.0982 2.21754 14.7629 2.42934 15.4095L2.98251 17.0982H3C3 18.755 4.34315 20.0982 6 20.0982ZM5.94607 15.8136C5.261 15.8419 4.71429 16.4062 4.71429 17.0982C4.71429 17.8083 5.28992 18.3839 6 18.3839C6.71008 18.3839 7.28571 17.8083 7.28571 17.0982H7.2855C7.2855 16.3881 6.70987 15.8125 5.99979 15.8125C5.98179 15.8125 5.96389 15.8129 5.94607 15.8136ZM17.9461 15.8136C17.9639 15.8129 17.9818 15.8125 17.9998 15.8125C18.7099 15.8125 19.2855 16.3881 19.2855 17.0982L19.2857 17.0982C19.2857 17.8083 18.7101 18.3839 18 18.3839C17.2899 18.3839 16.7143 17.8083 16.7143 17.0982C16.7143 16.4062 17.261 15.8419 17.9461 15.8136ZM11.9461 15.8136C11.9639 15.8129 11.9818 15.8125 11.9998 15.8125C12.7099 15.8125 13.2855 16.3881 13.2855 17.0982H13.2857C13.2857 17.8083 12.7101 18.3839 12 18.3839C11.2899 18.3839 10.7143 17.8083 10.7143 17.0982C10.7143 16.4062 11.261 15.8419 11.9461 15.8136Z" fill="#212121"/>
</svg>
