<svg width="24" height="24" viewBox="0 0 24 24" fill="none" xmlns="http://www.w3.org/2000/svg">
<path fill-rule="evenodd" clip-rule="evenodd" d="M20.2504 3.42261C20.751 3.1892 21.346 3.40575 21.5794 3.90629C21.8128 4.40683 21.5962 5.00182 21.0957 5.23522L16.63 7.31758C16.8675 7.829 17 8.39902 17 8.99999V9.99999L20.5 9.99999C21.3284 9.99999 22 10.6716 22 11.5C22 12.3284 21.3284 13 20.5 13H3.5C2.67157 13 2 12.3284 2 11.5C2 10.6716 2.67157 9.99999 3.5 9.99999L7 9.99999V8.99999C7 6.79085 8.79086 4.99999 11 4.99999H13C13.8576 4.99999 14.6522 5.2699 15.3035 5.72941L20.2504 3.42261ZM6 20C7.65685 20 9 18.6568 9 17C9 18.6568 10.3431 20 12 20C13.6569 20 15 18.6568 15 17C15 18.6568 16.3431 20 18 20C19.6569 20 21 18.6568 21 17C21 16.9989 21 16.9978 21 16.9967L21.5606 15.3165C21.7766 14.6689 21.2946 14 20.612 14H18H12H6H3.37965C2.69928 14 2.21754 14.6647 2.42934 15.3113L2.98251 17H3C3 18.6568 4.34315 20 6 20ZM5.94607 15.7154C5.261 15.7436 4.71429 16.308 4.71429 17C4.71429 17.7101 5.28992 18.2857 6 18.2857C6.71008 18.2857 7.28571 17.7101 7.28571 17H7.2855C7.2855 16.2899 6.70987 15.7143 5.99979 15.7143C5.98179 15.7143 5.96389 15.7147 5.94607 15.7154ZM17.9461 15.7154C17.9639 15.7147 17.9818 15.7143 17.9998 15.7143C18.7099 15.7143 19.2855 16.2899 19.2855 17L19.2857 17C19.2857 17.7101 18.7101 18.2857 18 18.2857C17.2899 18.2857 16.7143 17.7101 16.7143 17C16.7143 16.308 17.261 15.7436 17.9461 15.7154ZM11.9461 15.7154C11.9639 15.7147 11.9818 15.7143 11.9998 15.7143C12.7099 15.7143 13.2855 16.2899 13.2855 17H13.2857C13.2857 17.7101 12.7101 18.2857 12 18.2857C11.2899 18.2857 10.7143 17.7101 10.7143 17C10.7143 16.308 11.261 15.7436 11.9461 15.7154Z" fill="#212121"/>
</svg>
