<svg width="24" height="24" viewBox="0 0 24 24" fill="none" xmlns="http://www.w3.org/2000/svg">
<path fill-rule="evenodd" clip-rule="evenodd" d="M12 22C17.5228 22 22 17.5228 22 12C22 6.47715 17.5228 2 12 2C6.47715 2 2 6.47715 2 12C2 17.5228 6.47715 22 12 22ZM17.7643 8.64489C18.1205 8.22279 18.067 7.59188 17.6449 7.23573C17.2228 6.87958 16.5919 6.93304 16.2357 7.35515L10.2199 14.485L8.73812 12.8638C8.3655 12.4562 7.73297 12.4278 7.32533 12.8004C6.91768 13.173 6.88928 13.8055 7.2619 14.2132L9.5119 16.6747C9.70601 16.8871 9.98219 17.0055 10.2698 16.9998C10.5575 16.9941 10.8288 16.8648 11.0143 16.6449L17.7643 8.64489Z" fill="black"/>
</svg>
