<svg width="24" height="24" viewBox="0 0 24 24" fill="none" xmlns="http://www.w3.org/2000/svg">
<path d="M7.76216 3.47179H6.8208L7.56579 6.46151C4.93224 7.17147 2.99658 9.58298 2.99658 12.444C2.99658 15.819 5.69011 18.5684 9.04537 18.6371C8.67422 17.9971 8.4059 17.2899 8.26295 16.5383C6.39578 16.1211 4.99658 14.4487 4.99658 12.444C4.99658 10.1244 6.86999 8.24957 9.17407 8.24957C10.2116 8.24957 11.1618 8.62974 11.893 9.2595C12.5546 8.93519 13.2779 8.71732 14.0406 8.62824C13.2285 7.58806 12.0918 6.81457 10.7826 6.46158L11.5276 3.47179H10.5862V2.52734H7.76216V3.47179Z" fill="#212121"/>
<path d="M11.2345 16.0935C11.3862 16.7695 11.7222 17.3747 12.1862 17.8536C14.0756 16.7934 15.3516 14.7669 15.3516 12.444C15.3516 12.1624 15.3328 11.8851 15.2965 11.6134C15.1411 11.5933 14.9828 11.5829 14.8221 11.5829C14.2865 11.5829 13.7771 11.6982 13.3175 11.9055C13.34 12.0818 13.3516 12.2615 13.3516 12.444C13.3516 14.0098 12.498 15.3729 11.2345 16.0935Z" fill="#212121"/>
<path fill-rule="evenodd" clip-rule="evenodd" d="M8.64453 15.2773C8.64453 11.8593 11.4072 9.08289 14.822 9.08289C18.2368 9.08289 20.9995 11.8593 20.9995 15.2773C20.9995 18.6953 18.2368 21.4718 14.822 21.4718C11.4072 21.4718 8.64453 18.6953 8.64453 15.2773ZM14.822 11.0829C12.5179 11.0829 10.6445 12.9577 10.6445 15.2773C10.6445 17.5969 12.5179 19.4718 14.822 19.4718C17.1261 19.4718 18.9995 17.5969 18.9995 15.2773C18.9995 12.9577 17.1261 11.0829 14.822 11.0829Z" fill="#212121"/>
</svg>
