<svg width="24" height="25" viewBox="0 0 24 25" fill="none" xmlns="http://www.w3.org/2000/svg">
<path d="M7.76216 3.56999H6.8208L7.56579 6.55971C4.93224 7.26967 2.99658 9.68119 2.99658 12.5422C2.99658 15.9172 5.69011 18.6666 9.04537 18.7354C8.67422 18.0953 8.4059 17.3881 8.26295 16.6366C6.39578 16.2193 4.99658 14.5469 4.99658 12.5422C4.99658 10.2226 6.86999 8.34778 9.17407 8.34778C10.2116 8.34778 11.1618 8.72795 11.893 9.3577C12.5546 9.03339 13.2779 8.81552 14.0406 8.72644C13.2285 7.68627 12.0918 6.91277 10.7826 6.55978L11.5276 3.56999H10.5862V2.62555H7.76216V3.56999Z" fill="#212121"/>
<path d="M11.2345 16.1917C11.3862 16.8677 11.7222 17.4729 12.1862 17.9518C14.0756 16.8916 15.3516 14.8651 15.3516 12.5422C15.3516 12.2606 15.3328 11.9833 15.2965 11.7116C15.1411 11.6915 14.9828 11.6811 14.8221 11.6811C14.2865 11.6811 13.7771 11.7964 13.3175 12.0037C13.34 12.18 13.3516 12.3597 13.3516 12.5422C13.3516 14.108 12.498 15.4711 11.2345 16.1917Z" fill="#212121"/>
<path fill-rule="evenodd" clip-rule="evenodd" d="M8.64453 15.3755C8.64453 11.9575 11.4072 9.18109 14.822 9.18109C18.2368 9.18109 20.9995 11.9575 20.9995 15.3755C20.9995 18.7935 18.2368 21.57 14.822 21.57C11.4072 21.57 8.64453 18.7935 8.64453 15.3755ZM14.822 11.1811C12.5179 11.1811 10.6445 13.0559 10.6445 15.3755C10.6445 17.6951 12.5179 19.57 14.822 19.57C17.1261 19.57 18.9995 17.6951 18.9995 15.3755C18.9995 13.0559 17.1261 11.1811 14.822 11.1811Z" fill="#212121"/>
</svg>
