<svg width="24" height="24" viewBox="0 0 24 24" fill="none" xmlns="http://www.w3.org/2000/svg">
<circle cx="12" cy="12" r="12" fill="#EBEBEB"/>
<path fill-rule="evenodd" clip-rule="evenodd" d="M12.7783 12.0711C11.9972 11.29 10.7308 11.29 9.94977 12.071L7.82846 14.1923C7.04741 14.9734 7.0474 16.2397 7.82845 17.0207C8.60948 17.8018 9.87579 17.8018 10.6568 17.0208L11.3198 16.3579C11.7103 15.9673 12.3435 15.9673 12.734 16.3579C13.1245 16.7484 13.1245 17.3816 12.734 17.7721L12.071 18.435C10.5089 19.9971 7.97631 19.9971 6.41423 18.435C4.85215 16.8729 4.85216 14.3402 6.41425 12.7781L8.53557 10.6568C10.0977 9.09465 12.6304 9.0948 14.1925 10.6569C14.583 11.0474 14.583 11.6805 14.1925 12.0711C13.8019 12.4616 13.1688 12.4616 12.7783 12.0711Z" fill="#212121"/>
<path fill-rule="evenodd" clip-rule="evenodd" d="M12.0711 12.7784C12.8521 13.5594 14.1184 13.5594 14.8995 12.7784L17.0209 10.657C17.8019 9.87597 17.8019 8.60969 17.0209 7.82868C16.2399 7.04768 14.9736 7.04768 14.1926 7.82868L13.5297 8.49165C13.1391 8.88218 12.506 8.88217 12.1155 8.49165C11.7249 8.10112 11.7249 7.46795 12.1155 7.07743L12.7784 6.41445C14.3405 4.85241 16.8731 4.85241 18.4351 6.41446C19.9972 7.97653 19.9971 10.5092 18.4351 12.0712L16.3136 14.1926C14.7516 15.7546 12.219 15.7546 10.6569 14.1926C10.2664 13.8021 10.2664 13.1689 10.6569 12.7784C11.0474 12.3878 11.6805 12.3878 12.0711 12.7784Z" fill="#212121"/>
</svg>
