<svg width="24" height="24" viewBox="0 0 24 24" fill="none" xmlns="http://www.w3.org/2000/svg">
<path d="M24 12C24 18.6274 18.6274 24 12 24C5.37258 24 0 18.6274 0 12C0 5.37258 5.37258 0 12 0C18.6274 0 24 5.37258 24 12Z" fill="#09AB8B"/>
<path fill-rule="evenodd" clip-rule="evenodd" d="M18.669 6.15857C19.0795 6.52803 19.1128 7.16032 18.7433 7.57083L9.74329 17.5708C9.5583 17.7764 9.29645 17.8961 9.01996 17.9017C8.74348 17.9072 8.47705 17.798 8.284 17.6L5.284 14.523C4.89845 14.1276 4.90646 13.4945 5.3019 13.1089C5.69734 12.7234 6.33045 12.7314 6.716 13.1268L8.9708 15.4395L17.2567 6.2329C17.6262 5.82239 18.2585 5.78911 18.669 6.15857Z" fill="white"/>
</svg>
