<svg width="24" height="25" viewBox="0 0 24 25" fill="none" xmlns="http://www.w3.org/2000/svg">
<path d="M24 12.0981C24 18.7256 18.6274 24.0981 12 24.0981C5.37258 24.0981 0 18.7256 0 12.0981C0 5.47073 5.37258 0.0981445 12 0.0981445C18.6274 0.0981445 24 5.47073 24 12.0981Z" fill="#09AB8B"/>
<path fill-rule="evenodd" clip-rule="evenodd" d="M18.669 6.25671C19.0795 6.62617 19.1128 7.25846 18.7433 7.66897L9.74329 17.669C9.5583 17.8745 9.29645 17.9943 9.01996 17.9998C8.74348 18.0053 8.47705 17.8961 8.284 17.6981L5.284 14.6212C4.89845 14.2257 4.90646 13.5926 5.3019 13.2071C5.69734 12.8215 6.33045 12.8295 6.716 13.225L8.9708 15.5376L17.2567 6.33104C17.6262 5.92053 18.2585 5.88726 18.669 6.25671Z" fill="white"/>
</svg>
