<svg width="24" height="25" viewBox="0 0 24 25" fill="none" xmlns="http://www.w3.org/2000/svg">
<circle cx="12" cy="12.0981" r="12" fill="#EBEBEB"/>
<path fill-rule="evenodd" clip-rule="evenodd" d="M12.7783 12.1692C11.9972 11.3881 10.7308 11.3881 9.94977 12.1691L7.82846 14.2905C7.04741 15.0715 7.0474 16.3378 7.82845 17.1189C8.60948 17.8999 9.87579 17.8999 10.6568 17.1189L11.3198 16.456C11.7103 16.0655 12.3435 16.0655 12.734 16.456C13.1245 16.8466 13.1245 17.4797 12.734 17.8702L12.071 18.5332C10.5089 20.0952 7.97631 20.0952 6.41423 18.5331C4.85215 16.971 4.85216 14.4383 6.41425 12.8762L8.53557 10.7549C10.0977 9.19279 12.6304 9.19294 14.1925 10.755C14.583 11.1455 14.583 11.7787 14.1925 12.1692C13.8019 12.5597 13.1688 12.5597 12.7783 12.1692Z" fill="#212121"/>
<path fill-rule="evenodd" clip-rule="evenodd" d="M12.0711 12.8765C12.8521 13.6575 14.1184 13.6575 14.8995 12.8765L17.0209 10.7551C17.8019 9.97411 17.8019 8.70784 17.0209 7.92682C16.2399 7.14582 14.9736 7.14582 14.1926 7.92682L13.5297 8.5898C13.1391 8.98032 12.506 8.98032 12.1155 8.58979C11.7249 8.19927 11.7249 7.5661 12.1155 7.17557L12.7784 6.5126C14.3405 4.95055 16.8731 4.95055 18.4351 6.5126C19.9972 8.07467 19.9971 10.6073 18.4351 12.1694L16.3136 14.2907C14.7516 15.8528 12.219 15.8528 10.6569 14.2907C10.2664 13.9002 10.2664 13.2671 10.6569 12.8765C11.0474 12.486 11.6805 12.486 12.0711 12.8765Z" fill="#212121"/>
</svg>
