<svg width="24" height="24" viewBox="0 0 24 24" fill="none" xmlns="http://www.w3.org/2000/svg">
<path fill-rule="evenodd" clip-rule="evenodd" d="M0.500009 12.8518C0.497591 13.4281 0.977001 13.9069 1.55862 13.9094L5.44981 13.9255C7.4355 13.9336 9.08296 13.2847 10.3721 11.9984C11.6613 10.6923 12.3101 9.0258 12.3188 6.99903C12.3273 4.95243 11.6924 3.28058 10.4142 1.98369C9.13602 0.686799 7.49405 0.0243047 5.5084 0.0160982L1.61718 9.08373e-06C1.03552 -0.00239458 0.552129 0.472545 0.549711 1.04881L0.500009 12.8518ZM5.23789 11.8581L2.6304 11.8472L2.67154 2.07094L5.279 2.08171C6.74323 2.08773 7.92468 2.54968 8.8235 3.44755C9.74242 4.34557 10.1987 5.5397 10.1926 6.99024C10.1864 8.44077 9.72015 9.63107 8.79376 10.5215C7.88739 11.4119 6.70203 11.8641 5.23789 11.8581Z" fill="#D9204C"/>
<path fill-rule="evenodd" clip-rule="evenodd" d="M23.4656 13.0649L23.5003 4.83859C23.5029 4.22258 23.0233 3.78342 22.4416 3.78101C21.9402 3.77894 21.4974 4.13483 21.3951 4.63108C20.6154 4.01187 19.674 3.69012 18.5307 3.68536C17.0866 3.67942 15.8811 4.17121 14.9141 5.16075C13.9472 6.15029 13.4605 7.40015 13.4542 8.89042C13.4479 10.4006 13.924 11.6544 14.8825 12.6718C15.8411 13.6693 17.0425 14.171 18.4866 14.177C19.6098 14.1816 20.5739 13.8677 21.3587 13.2549C21.4569 13.7521 21.8967 14.1116 22.3981 14.1136C22.9798 14.116 23.463 13.6809 23.4656 13.0649ZM21.3656 6.85657L21.3481 11.0293C20.7232 11.762 19.8592 12.1161 18.7961 12.1117C16.8907 12.1038 15.5724 10.8068 15.5803 8.91908C15.5883 7.03138 16.8974 5.74519 18.8229 5.75314C19.906 5.75762 20.7469 6.11883 21.3656 6.85657Z" fill="#D9204C"/>
<path d="M4.0355 17.105C3.92238 17.105 3.83657 17.2062 3.85907 17.316C4.64043 21.1294 8.042 24 12.1227 24C16.2034 24 19.605 21.1294 20.3863 17.316C20.4089 17.2062 20.323 17.105 20.2099 17.105H18.877C18.5037 17.105 18.1843 17.3608 18.0608 17.7098C17.2014 20.1377 14.8663 21.8785 12.1227 21.8785C9.37916 21.8785 7.04403 20.1377 6.18459 17.7098C6.06108 17.3608 5.7417 17.105 5.36845 17.105H4.0355Z" fill="#6D36B0"/>
</svg>
