<svg width="24" height="24" viewBox="0 0 24 24" fill="none" xmlns="http://www.w3.org/2000/svg">
<circle cx="12" cy="12" r="12" fill="#E46734"/>
<path d="M12.3334 7.79813C13.0701 7.79813 13.7015 8.34755 13.7015 9.09677C13.7015 9.79605 13.0701 10.3954 12.3334 10.3954C11.5966 10.3954 10.9652 9.79605 10.9652 9.09677C10.9652 8.3975 11.5966 7.79813 12.3334 7.79813ZM12.3334 12.1935C14.1225 12.1935 15.596 10.795 15.596 9.09677C15.596 7.39854 14.1225 6 12.3334 6C10.5442 6 9.07075 7.39854 9.07075 9.09677C9.01813 10.795 10.4916 12.1935 12.3334 12.1935ZM13.6489 14.6909C14.333 14.5411 14.9645 14.2914 15.5433 13.9417C16.0169 13.692 16.1222 13.0926 15.8591 12.693C15.596 12.2934 14.9645 12.1436 14.5435 12.3933C13.1753 13.1925 11.4914 13.1925 10.1232 12.3933C9.6496 12.1436 9.07075 12.2435 8.80764 12.693C8.54453 13.0926 8.64977 13.692 9.12338 13.9417C9.70223 14.2914 10.3863 14.5411 11.0178 14.6909L9.176 16.4391C8.80765 16.7888 8.80765 17.3881 9.176 17.7378C9.38649 17.9376 9.59698 17.9875 9.86009 17.9875C10.1232 17.9875 10.3337 17.8876 10.5442 17.7378L12.3334 16.0395L14.1225 17.7378C14.4909 18.0874 15.1223 18.0874 15.4907 17.7378C15.8591 17.3881 15.8591 16.7888 15.4907 16.4391L13.6489 14.6909Z" fill="white"/>
</svg>
