<svg width="24" height="24" viewBox="0 0 24 24" fill="none" xmlns="http://www.w3.org/2000/svg">
<path d="M19.4991 19.6548C19.6565 19.5308 19.8106 19.4019 19.961 19.2678C19.969 19.2619 18.85 16.5881 17.7639 13.9927C16.7401 11.5462 15.7454 9.16936 15.751 9.16193C21.6589 4.52209 20.9759 3.84888 20.9759 3.84888C18.8101 1.55351 15.831 0.17978 12.6646 0.0164292C9.4983 -0.146922 6.39138 0.912828 3.9969 2.97293C3.24958 3.61557 2.6214 4.3429 2.11161 5.12917C0.817455 7.01387 0.0777154 9.23896 0.00578879 11.5522C-0.0926134 14.7168 1.06679 17.7932 3.2343 20.1188C5.40182 22.4444 8.40405 23.8331 11.5944 23.9859C14.7848 24.1387 17.9082 23.0434 20.2918 20.9358L20.3651 20.867L20.5388 20.7102L19.4991 19.6548Z" fill="url(#paint0_linear_6707_7915)"/>
<path d="M15.7544 9C13.9088 10.5533 11.6394 12.3832 9 14.4345C10.9607 16.6095 13.241 18.4564 15.7583 19.9085C17.9199 21.0942 19.6114 21.3155 20.4398 20.5645C21.2682 19.8136 21.168 18.0825 20.2047 15.8217C19.0642 13.3312 17.5639 11.0314 15.7544 9V9Z" fill="url(#paint1_linear_6707_7915)"/>
<path d="M15.8426 9L14.9535 9.76055C16.5815 11.5975 17.9349 13.6723 18.9694 15.9172C19.8771 18.0619 19.8549 19.1381 19.5622 19.4081C19.2695 19.6781 18.0062 19.7465 15.9871 18.6475C13.7505 17.3456 11.7276 15.6901 9.99287 13.742L9 14.5026L9.2334 14.7345C13.4383 19.1951 17.9877 21.7354 19.9882 20.8113C20.0475 20.7809 20.1068 20.7505 20.1624 20.7162H20.1846C20.262 20.667 20.3351 20.611 20.4032 20.5489C20.4753 20.4819 20.541 20.4081 20.5995 20.3284C21.9073 18.5677 19.9215 13.8257 15.9649 9.17873L15.8426 9Z" fill="#84EEB1"/>
<defs>
<linearGradient id="paint0_linear_6707_7915" x1="15.0206" y1="1.00095" x2="7.06811" y2="24.0662" gradientUnits="userSpaceOnUse">
<stop stop-color="#4AFB70"/>
<stop offset="1" stop-color="#0D933A"/>
</linearGradient>
<linearGradient id="paint1_linear_6707_7915" x1="16.7408" y1="29.3743" x2="12.0022" y2="-3.75284" gradientUnits="userSpaceOnUse">
<stop offset="0.1" stop-color="#FF8475"/>
<stop offset="0.37" stop-color="#E84E43"/>
<stop offset="0.6" stop-color="#D6261F"/>
<stop offset="0.79" stop-color="#CC0E08"/>
<stop offset="0.9" stop-color="#C80500"/>
</linearGradient>
</defs>
</svg>
