<svg width="24" height="24" viewBox="0 0 24 24" fill="none" xmlns="http://www.w3.org/2000/svg">
<path d="M24 12C24 18.6274 18.6274 24 12 24C5.37258 24 0 18.6274 0 12C0 5.37258 5.37258 0 12 0C18.6274 0 24 5.37258 24 12Z" fill="#7360F2"/>
<path d="M17.0326 6.36554C16.692 6.04452 15.3154 5.02391 12.2492 5.01005C12.2492 5.01005 8.63345 4.78736 6.87081 6.43865C5.88962 7.44097 5.54446 8.9076 5.50805 10.7259C5.47164 12.5442 5.42453 15.9518 8.64065 16.8758H8.64374L8.64168 18.2857C8.64168 18.2857 8.62111 18.8565 8.98911 18.9729C9.43424 19.1141 9.69548 18.6803 10.1205 18.2126C10.3537 17.9559 10.6759 17.5788 10.9186 17.2905C13.1181 17.4796 14.8098 17.0474 15.0019 16.9836C15.446 16.8365 17.9591 16.5077 18.3678 13.1003C18.7897 9.58828 18.1637 7.36681 17.0326 6.36554ZM17.4053 12.8484C17.0604 15.6934 15.0221 15.8722 14.6463 15.9953C14.4864 16.0479 13.0007 16.4254 11.1323 16.3008C11.1323 16.3008 9.74012 18.0162 9.30527 18.4622C9.23739 18.5319 9.15758 18.5601 9.1043 18.5462C9.02943 18.5275 9.00886 18.437 9.00968 18.3046C9.01091 18.1155 9.02161 15.9617 9.02161 15.9617C6.30102 15.1903 6.45962 12.29 6.49047 10.7713C6.52133 9.25256 6.80067 8.00842 7.63046 7.17164C9.12137 5.79242 12.1927 5.99851 12.1927 5.99851C14.7864 6.01007 16.0292 6.80777 16.3174 7.075C17.2743 7.91178 17.7618 9.91413 17.4053 12.8476V12.8484Z" fill="white"/>
<path fill-rule="evenodd" clip-rule="evenodd" d="M12.2922 9.51484C12.3002 9.377 12.4185 9.2718 12.5563 9.27985C12.9068 9.30034 13.2063 9.4208 13.4188 9.66692C13.6266 9.9077 13.7226 10.236 13.7394 10.6164C13.7455 10.7543 13.6387 10.8711 13.5007 10.8772C13.3628 10.8833 13.246 10.7765 13.2399 10.6385C13.2259 10.3221 13.1484 10.1189 13.0403 9.99365C12.9368 9.87376 12.7778 9.79365 12.5272 9.779C12.3893 9.77094 12.2841 9.65268 12.2922 9.51484Z" fill="white"/>
<path fill-rule="evenodd" clip-rule="evenodd" d="M12.0215 8.68724C12.0318 8.54956 12.1518 8.44632 12.2895 8.45664C13.027 8.51198 13.6278 8.77151 14.0661 9.26192L14.0662 9.26201C14.4981 9.74582 14.7014 10.3464 14.6867 11.0446C14.6838 11.1826 14.5695 11.2921 14.4315 11.2892C14.2934 11.2863 14.1839 11.172 14.1868 11.034C14.1992 10.447 14.0312 9.97368 13.6933 9.59508C13.3581 9.22001 12.8883 9.00298 12.2521 8.95524C12.1144 8.94491 12.0111 8.82492 12.0215 8.68724Z" fill="white"/>
<path fill-rule="evenodd" clip-rule="evenodd" d="M11.6145 7.74343C11.6154 7.60536 11.7281 7.49419 11.8662 7.49512C12.9213 7.50226 13.8178 7.84371 14.5383 8.52545C15.2678 9.21574 15.6263 10.1548 15.6353 11.3118C15.6364 11.4499 15.5254 11.5627 15.3873 11.5637C15.2492 11.5648 15.1364 11.4538 15.1353 11.3157C15.1271 10.2662 14.8063 9.46743 14.1946 8.88864C13.5739 8.3013 12.8024 8.00146 11.8628 7.99511C11.7247 7.99418 11.6136 7.8815 11.6145 7.74343Z" fill="white"/>
<path d="M12.4976 13.0646C12.4976 13.0646 12.7417 13.0859 12.8731 12.9186L13.1294 12.5854C13.253 12.4202 13.5514 12.3148 13.8435 12.483C14.0624 12.612 14.2749 12.7523 14.4803 12.9032C14.6742 13.0505 15.0712 13.3929 15.0724 13.3929C15.2615 13.5579 15.3052 13.8001 15.1764 14.0556C15.1764 14.0571 15.1754 14.0596 15.1754 14.0609C15.0336 14.315 14.8535 14.5441 14.642 14.7396C14.6395 14.7409 14.6395 14.7422 14.6373 14.7435C14.4535 14.9021 14.273 14.9923 14.0957 15.014C14.0696 15.0188 14.043 15.0205 14.0165 15.0191C13.9384 15.0199 13.8606 15.0076 13.7862 14.9825L13.7805 14.9738C13.5073 14.8942 13.0511 14.6949 12.2916 14.2619C11.852 14.0143 11.4335 13.7286 11.0406 13.408C10.8437 13.2474 10.6558 13.0752 10.478 12.8924L10.459 12.8728L10.4401 12.8532L10.4211 12.8334C10.4147 12.827 10.4086 12.8204 10.4022 12.8138C10.2252 12.63 10.0586 12.4359 9.9032 12.2324C9.59298 11.8264 9.31655 11.3941 9.07686 10.94C8.65782 10.1548 8.46499 9.6839 8.38794 9.40118L8.37949 9.39522C8.35534 9.31838 8.34344 9.23799 8.34426 9.15721C8.34282 9.12986 8.34441 9.10243 8.349 9.07546C8.37112 8.89265 8.45854 8.70602 8.61126 8.51555C8.6125 8.51321 8.61374 8.51321 8.61497 8.51066C8.80416 8.29209 9.02587 8.1061 9.27176 7.9597C9.27299 7.9597 9.27546 7.95842 9.27691 7.95842C9.52413 7.82536 9.75858 7.8705 9.91803 8.06487C9.91927 8.06614 10.2499 8.47638 10.3919 8.67671C10.538 8.88912 10.6737 9.10896 10.7986 9.3354C10.9613 9.63706 10.8593 9.94597 10.6995 10.0733L10.377 10.3381C10.2143 10.4739 10.2357 10.7262 10.2357 10.7262C10.2357 10.7262 10.7133 12.5939 12.4976 13.0646Z" fill="white"/>
</svg>
