<svg width="24" height="25" viewBox="0 0 24 25" fill="none" xmlns="http://www.w3.org/2000/svg">
<path d="M5.31978 5H10.8081C11.5742 5 12.0589 5.63636 11.8713 6.41591L9.30699 17.5841C9.13499 18.3636 8.36882 19 7.60265 19H2.09874C1.33257 19 0.863491 18.3636 1.03549 17.5841L3.59981 6.41591C3.77181 5.63636 4.53798 5 5.31978 5Z" fill="#ED171F"/>
<path d="M10.3387 5H16.6557C17.4219 5 17.0779 5.63636 16.8903 6.41591L14.3416 17.5841C14.1696 18.3636 14.2165 19 13.4503 19H7.13332C6.36715 19 5.88243 18.3636 6.07007 17.5841L8.63439 6.41591C8.80639 5.63636 9.57256 5 10.3387 5Z" fill="#082F67"/>
<path d="M16.4056 5H21.8939C22.6601 5 23.1448 5.63636 22.9571 6.41591L20.4085 17.5841C20.2365 18.3636 19.4547 19 18.6885 19H13.2002C12.434 19 11.9493 18.3636 12.137 17.5841L14.6856 6.41591C14.8733 5.63636 15.6395 5 16.4056 5Z" fill="#006A65"/>
<path fill-rule="evenodd" clip-rule="evenodd" d="M16.1241 8.56364C15.7333 8.56364 15.342 8.56579 14.9514 8.54773L14.7013 9.67727C14.7013 9.67727 14.1853 11.825 14.1696 11.9205H14.9983C15.0569 11.5631 15.2485 10.7591 15.2485 10.7591C15.2485 10.7591 15.2798 10.7114 15.3111 10.6955C15.7948 10.6955 16.3117 10.6955 16.7183 10.3932C16.9841 10.1864 17.1718 9.88409 17.2499 9.51818C17.2877 9.28763 17.314 9.0367 17.1718 8.83409C16.9841 8.56364 16.5932 8.56364 16.1241 8.56364ZM16.4212 9.61364C16.3743 9.83637 16.2336 10.0273 16.046 10.1227C15.8896 10.2023 15.702 10.2023 15.5143 10.2023H15.3892L15.6406 9.08864H15.7332C15.7332 9.08864 15.957 9.08864 16.218 9.13637C16.3899 9.18409 16.4681 9.375 16.4212 9.61364Z" fill="white"/>
<path d="M5.55403 10.4568L5.96057 8.5636L6.75801 8.57951C6.75801 8.57951 6.41512 9.91619 6.27329 10.5045C6.14903 10.9608 6.01789 11.4369 5.58531 11.6977C5.33513 11.8568 4.9755 11.9363 4.5846 11.9363C4.28751 11.9363 3.75588 11.8886 3.56825 11.5545C3.38994 11.237 3.52099 10.8411 3.56825 10.5045C3.70104 9.9069 4.00606 8.5636 4.00606 8.5636L4.92859 8.57951C4.92859 8.57951 4.60227 9.87104 4.45951 10.4409C4.41103 10.796 4.25189 11.3795 4.8035 11.3795C5.31766 11.3795 5.46451 10.8758 5.55403 10.4568Z" fill="white"/>
<path d="M11.6208 13.0182H12.3401L12.215 13.4637H11.2299C11.0723 13.6012 10.8805 13.7023 10.667 13.7023H10.3543L10.4794 13.2728C10.5387 13.2728 10.7005 13.3002 10.7296 13.2409C10.7609 13.225 10.7921 13.1773 10.839 13.0978L11.0267 12.7637H11.7459L11.6208 13.0182Z" fill="white"/>
<path fill-rule="evenodd" clip-rule="evenodd" d="M16.6401 15.5L17.3124 13.2409H17.547L17.6028 13.058L17.6096 13.2727C17.5939 13.4318 17.719 13.575 18.0474 13.5432H18.407L18.5321 13.1136C18.4691 13.1136 18.2819 13.1461 18.2819 13.05V12.7795H17.5939L17.594 12.7814C17.3498 12.7869 16.7038 12.8046 16.5775 12.8432C16.4055 12.8909 16.2335 13.0182 16.2335 13.0182L16.2961 12.7795H15.6394L14.8263 15.5318H14.7012L14.5761 15.9614H15.8739L15.827 16.1045H16.4681L16.515 15.9614H16.6864L16.6401 16.1205H17.1404C17.3906 16.1205 17.5313 16.0091 17.6408 15.85L17.9848 15.3728L18.063 15.8659C18.123 16.1713 18.5484 16.1046 18.7666 16.1046L18.9073 15.6273C18.7544 15.6273 18.6743 15.6478 18.6259 15.5L18.5477 15.0069H18.235L18.3757 14.8478H19.1262L19.2357 14.4659H18.532L18.6415 14.1159H19.3295L19.4546 13.6864H17.375L17.2499 14.1159H18.0004L17.891 14.4659H17.1404L17.031 14.8478H17.6877L17.203 15.5796C17.0815 15.7032 16.9283 15.6909 16.7695 15.6909L16.8277 15.5H16.6401ZM15.9834 13.8136L16.1554 13.2568H16.6714L16.5463 13.6705C16.3452 13.6705 16.1663 13.7361 15.9834 13.8136ZM15.7332 14.7045L15.9052 14.1159H16.4212L16.2961 14.5295C16.0922 14.5503 15.9175 14.618 15.7332 14.7045ZM16.0146 15.5H15.483L15.655 14.9909H16.171L16.0146 15.5Z" fill="white"/>
<path d="M12.1994 13.7819H10.4482L10.3387 14.2273H10.7296L10.6202 14.5932H10.2137L10.0886 15.0387H10.4795L10.2449 15.8182C10.1783 16.0215 10.4455 16.1364 10.6046 16.1364H11.4176L11.5584 15.6432C11.5048 15.6503 10.9307 15.7477 10.9642 15.6114L11.1362 15.0228H11.8554L11.9805 14.5773H11.2613L11.3707 14.2114H12.0744L12.1994 13.7819Z" fill="white"/>
<path fill-rule="evenodd" clip-rule="evenodd" d="M13.2626 12.7795H12.6528L11.8085 15.7068C11.7648 15.8623 11.6966 15.981 11.8554 16.0886C11.9023 16.1204 12.0586 16.1204 12.0586 16.1204C12.0586 16.1204 12.6052 16.1364 12.8561 16.1364L12.9968 15.6432L12.5746 15.6909C12.448 15.6909 12.4698 15.5655 12.4964 15.4841L12.7623 14.5773C12.7623 14.5773 13.2783 14.5772 13.7161 14.5773C14.1539 14.5773 14.4097 14.4486 14.5761 13.9409L14.92 12.7955H13.935C13.6452 12.842 13.3967 12.9045 13.1688 13.0977L13.2626 12.7795ZM12.9499 13.9409H13.9506L13.8724 14.1477C13.8724 14.1477 13.0486 14.1477 12.8874 14.1477L12.9499 13.9409ZM12.9968 13.75L13.1375 13.2568H14.1539L14.0757 13.4955C13.6984 13.4955 13.3022 13.4871 12.9968 13.75Z" fill="white"/>
<path d="M14.4354 14.625C14.3992 14.7814 14.3817 14.9819 14.2634 15.1023C14.1033 15.2652 13.8018 15.2198 13.5911 15.2295V15.5318C13.5911 15.6503 13.6816 15.6591 13.7787 15.6591L14.1071 15.6432L13.982 16.0886H13.6067C13.3409 16.0886 13.1533 16.0886 13.0907 16.025C13.0282 15.9932 13.0125 15.9295 13.0282 15.85L13.0594 14.6409H13.6536L13.638 14.8955H13.7787C13.9429 14.8955 13.9543 14.7572 13.9976 14.625H14.4354Z" fill="white"/>
<path d="M8.24354 11.9204C7.96209 11.9204 7.86828 11.9204 7.55555 11.9363L7.53992 11.9204C7.64103 11.5089 7.78368 11.0939 7.80673 10.6691C7.81866 10.4492 7.59682 10.4994 7.46174 10.5681C7.36472 11.0123 7.28874 11.4631 7.18029 11.9045L7.14901 11.9363C6.86757 11.9363 6.77375 11.9363 6.44539 11.9522L6.42975 11.9204C6.59736 11.3235 6.72887 10.6906 6.78938 10.0749L6.82066 10.059C7.13338 10.0113 7.21156 10.0113 7.55555 9.93176L7.58683 9.96358L7.53992 10.1545C7.73576 10.0549 7.92052 9.94767 8.14973 9.94767C8.30609 9.94767 8.46245 9.9954 8.54063 10.1704C8.59773 10.3157 8.5636 10.4874 8.49772 10.8189C8.41508 11.1792 8.33459 11.5396 8.27481 11.9045L8.24354 11.9204Z" fill="white"/>
<path d="M9.35364 11.9205V11.8728C9.46361 11.3693 9.55872 10.8632 9.682 10.3614V10.3296C9.42727 10.3767 9.17031 10.4098 8.91583 10.4569L8.88456 10.4887C8.82484 10.9747 8.72563 11.436 8.58747 11.9046L8.61874 11.9364C8.86255 11.9116 9.10893 11.9205 9.35364 11.9205Z" fill="white"/>
<path fill-rule="evenodd" clip-rule="evenodd" d="M11.8398 10.9659C11.9337 10.5364 11.8555 10.3296 11.7617 10.2023C11.6209 10.0114 11.3708 9.94775 11.1049 9.94775C10.9486 9.94775 10.5733 9.96366 10.2762 10.2341C10.073 10.425 9.9635 10.7114 9.90096 10.9659C9.83841 11.2364 9.77587 11.7137 10.198 11.8887C10.3388 11.9523 10.5264 11.9682 10.6515 11.9682C10.9642 11.9682 11.2926 11.8728 11.5271 11.6182C11.7304 11.4114 11.8086 11.0932 11.8398 10.9659ZM11.1206 10.9341C11.0792 11.1071 11.0154 11.5387 10.7609 11.5387C10.5224 11.5387 10.6132 11.1499 10.6515 11.0137C10.7297 10.6796 10.8079 10.4091 11.0268 10.4091C11.1831 10.3932 11.1988 10.6 11.1206 10.9341Z" fill="white"/>
<path fill-rule="evenodd" clip-rule="evenodd" d="M18.5946 11.9522L18.6571 11.9363C18.7634 11.2877 18.9157 10.6512 19.0637 10.0113L19.048 9.97949C18.704 10.0431 18.6102 10.059 18.2819 10.1068L18.2506 10.1227C18.2454 10.1622 18.2402 10.1999 18.2348 10.2374C18.0077 9.79895 17.4698 10.0104 17.1874 10.2818C16.9841 10.4727 16.8746 10.7432 16.8121 11.0136C16.6893 11.5134 16.921 12.0577 17.5001 11.9841C17.6361 11.9742 17.7616 11.9044 17.877 11.8047C17.8658 11.8488 17.8548 11.8927 17.8441 11.9363L17.8597 11.9681C18.1724 11.9522 18.2663 11.9522 18.5946 11.9522ZM17.9223 10.4409C18.0941 10.4409 18.1567 10.6316 18.0944 10.9652C18.0365 11.2008 17.9682 11.5545 17.6564 11.5545C17.4179 11.5545 17.5087 11.1658 17.547 11.0295C17.6252 10.7114 17.7033 10.4409 17.9223 10.4409Z" fill="white"/>
<path d="M13.0437 11.9363C13.3564 11.9204 13.4503 11.9204 13.7317 11.9204L13.7473 11.9045C13.8071 11.5396 13.8876 11.1792 13.9703 10.8189C14.0361 10.4874 14.0703 10.3157 14.0132 10.1704C13.935 9.9954 13.7786 9.94767 13.6223 9.94767C13.3931 9.94767 13.2083 10.0549 13.0125 10.1545L13.0594 9.96358L13.0281 9.93176C12.6841 10.0113 12.6059 10.0113 12.2932 10.059L12.2619 10.0749C12.2014 10.6906 12.0699 11.3236 11.9023 11.9204L11.9179 11.9522C12.2463 11.9363 12.3401 11.9363 12.6216 11.9363L12.6528 11.9045C12.7614 11.4627 12.8372 11.0127 12.9343 10.5681C13.0694 10.4994 13.2912 10.4492 13.2793 10.6691C13.2564 11.0898 13.1285 11.5119 13.0281 11.9204L13.0437 11.9363Z" fill="white"/>
<path d="M21.284 9.94775L21.3153 9.97957C20.694 11.0693 20.0957 12.1711 19.4702 13.2568C19.392 13.4159 19.22 13.5431 18.9699 13.5431H18.5477L18.6728 13.1136C18.7175 13.1136 18.8115 13.1316 18.8448 13.0977C18.9306 13.0977 19.0391 12.8549 19.0793 12.7954C19.2826 12.4614 19.3451 12.3182 19.564 11.9523C19.4952 11.3428 19.4653 10.7218 19.3295 10.1228V10.0909L19.3607 10.075C19.6891 10.0273 19.6891 10.0114 20.0487 9.94775L20.08 9.97957L20.1269 10.9659C20.3302 10.5364 20.3145 10.6637 20.5491 10.1068L20.5647 10.075C20.8774 10.0273 20.94 10.0114 21.284 9.94775Z" fill="white"/>
<path d="M9.66644 10.2023C9.85407 10.075 9.86971 9.89998 9.71334 9.80453C9.55698 9.70907 9.29117 9.74089 9.10354 9.86816C8.9159 9.99543 8.90027 10.1704 9.05663 10.2659C9.21299 10.3613 9.4788 10.3295 9.66644 10.2023Z" fill="white"/>
</svg>
