<svg width="24" height="24" viewBox="0 0 24 24" fill="none" xmlns="http://www.w3.org/2000/svg">
<path d="M15.334 8C13.7739 8 12.3732 8.83686 12.3732 10.3726C12.3732 12.1412 14.8475 12.262 14.8475 13.142C14.8475 13.5129 14.4281 13.8494 13.7236 13.8494C12.7171 13.8494 11.9623 13.3835 11.9623 13.3835L11.6435 14.9365C11.6435 14.9365 12.5074 15.3333 13.6649 15.3333C15.3759 15.3333 16.7179 14.462 16.7179 12.8918C16.7179 11.0282 14.2352 10.9075 14.2352 10.0878C14.2352 9.79451 14.5791 9.47529 15.2836 9.47529C16.0804 9.47529 16.7347 9.81177 16.7347 9.81177L17.0534 8.31059C17.045 8.31059 16.3321 8 15.334 8ZM1.04194 8.11216L1 8.33647C1 8.33647 1.65421 8.45726 2.24971 8.70745C3.01296 8.99216 3.06329 9.15608 3.19748 9.6651L4.59817 15.2126H6.47693L9.35379 8.11216H7.48342L5.62981 12.9435L4.87495 8.84549C4.80785 8.37961 4.45559 8.11216 4.01944 8.11216H1.04194ZM10.1087 8.11216L8.64087 15.2126H10.4274L11.8868 8.11216H10.1087ZM20.056 8.11216C19.6283 8.11216 19.4018 8.3451 19.2341 8.75922L16.6172 15.2126H18.4876L18.8483 14.1341H21.1296L21.3477 15.2126H23L21.5658 8.11216H20.056ZM20.2993 10.0361L20.8528 12.702H19.3683L20.2993 10.0361Z" fill="#1A1F71"/>
</svg>
