<svg width="24" height="25" viewBox="0 0 24 25" fill="none" xmlns="http://www.w3.org/2000/svg">
<circle cx="12" cy="12.0981" r="12" fill="#25D366"/>
<path d="M12.3349 5.43152H12.3318C8.83971 5.43152 6 8.27202 6 11.7649C6 13.1503 6.4465 14.4344 7.20571 15.477L6.41642 17.8298L8.85079 17.0516C9.85225 17.715 11.0469 18.0982 12.3349 18.0982C15.827 18.0982 18.6667 15.2569 18.6667 11.7649C18.6667 8.27281 15.827 5.43152 12.3349 5.43152ZM16.0201 14.375C15.8673 14.8064 15.2609 15.1643 14.7772 15.2688C14.4463 15.3392 14.014 15.3954 12.559 14.7922C10.6978 14.0211 9.49917 12.1298 9.40575 12.0071C9.31629 11.8844 8.65367 11.0056 8.65367 10.0968C8.65367 9.18798 9.11521 8.74544 9.30125 8.55544C9.45404 8.39948 9.70658 8.32823 9.94883 8.32823C10.0272 8.32823 10.0977 8.33219 10.161 8.33535C10.347 8.34327 10.4405 8.35435 10.5632 8.64806C10.716 9.01619 11.088 9.92502 11.1324 10.0184C11.1775 10.1119 11.2226 10.2385 11.1593 10.3612C11.0999 10.4879 11.0477 10.5441 10.9542 10.6518C10.8608 10.7594 10.7722 10.8418 10.6788 10.9574C10.5932 11.0579 10.4967 11.1656 10.6043 11.3516C10.712 11.5337 11.0841 12.1409 11.6319 12.6286C12.3389 13.2579 12.912 13.459 13.1171 13.5445C13.2699 13.6079 13.452 13.5928 13.5636 13.4741C13.7053 13.3213 13.8802 13.0679 14.0584 12.8186C14.185 12.6396 14.345 12.6175 14.5128 12.6808C14.6838 12.7402 15.5887 13.1875 15.7747 13.2801C15.9608 13.3735 16.0835 13.4179 16.1286 13.4962C16.1729 13.5746 16.1729 13.9427 16.0201 14.375Z" fill="white"/>
</svg>
