<svg width="24" height="25" viewBox="0 0 24 25" fill="none" xmlns="http://www.w3.org/2000/svg">
<circle cx="12" cy="12.0981" r="12" fill="#3390EC"/>
<path d="M17.1183 6.85769L5.16777 11.404C4.5182 11.5965 4.53485 12.2412 5.01787 12.4003L8.0076 13.338L9.15685 16.8712C9.29842 17.2564 9.40669 17.4071 9.6482 17.4071C9.89803 17.4071 9.98964 17.315 10.2561 17.0889C10.5559 16.8043 11.0223 16.3521 11.7552 15.6321L14.8698 17.9429C15.4444 18.2611 15.8525 18.0936 16.0024 17.4071L17.9511 7.69495C18.1593 6.85769 17.668 6.60652 17.1183 6.85769ZM8.48229 13.1287L15.2862 8.83361C15.6193 8.60755 15.7276 8.85873 15.5777 9.03455L9.93134 14.1418L9.63987 16.6954L8.48229 13.1287Z" fill="white"/>
</svg>
