<svg width="24" height="24" viewBox="0 0 24 24" fill="none" xmlns="http://www.w3.org/2000/svg">
<circle cx="12" cy="12" r="12" fill="#3390EC"/>
<path d="M17.1183 6.75955L5.16777 11.3058C4.5182 11.4984 4.53485 12.1431 5.01787 12.3022L8.0076 13.2399L9.15685 16.7731C9.29842 17.1582 9.40669 17.3089 9.6482 17.3089C9.89803 17.3089 9.98964 17.2168 10.2561 16.9908C10.5559 16.7061 11.0223 16.254 11.7552 15.534L14.8698 17.8448C15.4444 18.1629 15.8525 17.9955 16.0024 17.3089L17.9511 7.5968C18.1593 6.75955 17.668 6.50837 17.1183 6.75955ZM8.48229 13.0306L15.2862 8.73546C15.6193 8.5094 15.7276 8.76058 15.5777 8.93641L9.93134 14.0436L9.63987 16.5973L8.48229 13.0306Z" fill="white"/>
</svg>
