<svg width="24" height="24" viewBox="0 0 24 24" fill="none" xmlns="http://www.w3.org/2000/svg">
<circle cx="12" cy="12" r="12" fill="#25D366"/>
<path d="M12.3349 5.33337H12.3318C8.83971 5.33337 6 8.17387 6 11.6667C6 13.0521 6.4465 14.3362 7.20571 15.3788L6.41642 17.7317L8.85079 16.9535C9.85225 17.6169 11.0469 18 12.3349 18C15.827 18 18.6667 15.1587 18.6667 11.6667C18.6667 8.17467 15.827 5.33337 12.3349 5.33337ZM16.0201 14.2768C15.8673 14.7083 15.2609 15.0661 14.7772 15.1706C14.4463 15.2411 14.014 15.2973 12.559 14.694C10.6978 13.923 9.49917 12.0317 9.40575 11.909C9.31629 11.7862 8.65367 10.9075 8.65367 9.99867C8.65367 9.08983 9.11521 8.64729 9.30125 8.45729C9.45404 8.30133 9.70658 8.23008 9.94883 8.23008C10.0272 8.23008 10.0977 8.23404 10.161 8.23721C10.347 8.24512 10.4405 8.25621 10.5632 8.54992C10.716 8.91804 11.088 9.82687 11.1324 9.92029C11.1775 10.0137 11.2226 10.1404 11.1593 10.2631C11.0999 10.3897 11.0477 10.446 10.9542 10.5536C10.8608 10.6613 10.7722 10.7436 10.6788 10.8592C10.5932 10.9597 10.4967 11.0674 10.6043 11.2535C10.712 11.4355 11.0841 12.0427 11.6319 12.5304C12.3389 13.1598 12.912 13.3609 13.1171 13.4464C13.2699 13.5097 13.452 13.4947 13.5636 13.3759C13.7053 13.2231 13.8802 12.9698 14.0584 12.7204C14.185 12.5415 14.345 12.5193 14.5128 12.5827C14.6838 12.642 15.5887 13.0893 15.7747 13.182C15.9608 13.2754 16.0835 13.3197 16.1286 13.3981C16.1729 13.4765 16.1729 13.8446 16.0201 14.2768Z" fill="white"/>
</svg>
