<svg width="24" height="24" viewBox="0 0 24 24" fill="none" xmlns="http://www.w3.org/2000/svg">
<path d="M3.27441 5.78918L5.88369 10.5513V13.456L3.27747 18.2088L3.27441 5.78918Z" fill="#5B57A2"/>
<path d="M13.2925 8.81734L15.7375 7.28724L20.7413 7.28247L13.2925 11.9417V8.81734Z" fill="#D90751"/>
<path d="M13.2792 5.76063L13.293 12.0655L10.6776 10.4246V1L13.2793 5.76063H13.2792Z" fill="#FAB718"/>
<path d="M20.7418 7.28303L15.7378 7.2878L13.2792 5.76063L10.6776 1L20.7416 7.28303H20.7418Z" fill="#ED6F26"/>
<path d="M13.293 18.2352V15.1763L10.6776 13.5667L10.679 23.0006L13.293 18.2352Z" fill="#63B22F"/>
<path d="M15.7318 16.719L5.88351 10.5513L3.27441 5.78918L20.7312 16.7128L15.7317 16.719H15.7318Z" fill="#1487C9"/>
<path d="M10.6785 23.0001L13.292 18.2347L15.7309 16.7185L20.7302 16.7123L10.6785 23.0001Z" fill="#017F36"/>
<path d="M3.2771 18.2088L10.6986 13.5668L8.20351 12.0037L5.88332 13.456L3.2771 18.2088Z" fill="#984995"/>
</svg>
