<svg width="24" height="25" viewBox="0 0 24 25" fill="none" xmlns="http://www.w3.org/2000/svg">
<path fill-rule="evenodd" clip-rule="evenodd" d="M0.500009 12.9499C0.497591 13.5262 0.977001 14.0051 1.55862 14.0075L5.44981 14.0236C7.4355 14.0318 9.08296 13.3828 10.3721 12.0966C11.6613 10.7904 12.3101 9.12395 12.3188 7.09717C12.3273 5.05057 11.6924 3.37873 10.4142 2.08184C9.13602 0.784944 7.49405 0.122449 5.5084 0.114243L1.61718 0.0981536C1.03552 0.09575 0.552129 0.57069 0.549711 1.14695L0.500009 12.9499ZM5.23789 11.9562L2.6304 11.9454L2.67154 2.16908L5.279 2.17985C6.74323 2.18587 7.92468 2.64782 8.8235 3.54569C9.74242 4.44371 10.1987 5.63785 10.1926 7.08838C10.1864 8.53891 9.72015 9.72921 8.79376 10.6197C7.88739 11.5101 6.70203 11.9622 5.23789 11.9562Z" fill="white"/>
<path fill-rule="evenodd" clip-rule="evenodd" d="M23.4656 13.1631L23.5003 4.93674C23.5029 4.32072 23.0233 3.88157 22.4416 3.87915C21.9402 3.87708 21.4974 4.23298 21.3951 4.72923C20.6154 4.11001 19.674 3.78826 18.5307 3.7835C17.0866 3.77756 15.8811 4.26935 14.9141 5.2589C13.9472 6.24844 13.4605 7.4983 13.4542 8.98857C13.4479 10.4987 13.924 11.7525 14.8825 12.7699C15.8411 13.7675 17.0425 14.2691 18.4866 14.2751C19.6098 14.2797 20.5739 13.9659 21.3587 13.3531C21.4569 13.8503 21.8967 14.2097 22.3981 14.2118C22.9798 14.2142 23.463 13.779 23.4656 13.1631ZM21.3656 6.95472L21.3481 11.1274C20.7232 11.8602 19.8592 12.2142 18.7961 12.2099C16.8907 12.202 15.5724 10.9049 15.5803 9.01723C15.5883 7.12953 16.8974 5.84333 18.8229 5.85129C19.906 5.85576 20.7469 6.21698 21.3656 6.95472Z" fill="white"/>
<path d="M4.03556 17.2031C3.92244 17.2031 3.83663 17.3043 3.85913 17.4141C4.64049 21.2276 8.04206 24.0982 12.1227 24.0982C16.2035 24.0982 19.605 21.2276 20.3864 17.4141C20.4089 17.3043 20.3231 17.2031 20.21 17.2031H18.877C18.5038 17.2031 18.1844 17.459 18.0609 17.8079C17.2014 20.2358 14.8663 21.9766 12.1227 21.9766C9.37922 21.9766 7.0441 20.2358 6.18465 17.8079C6.06114 17.459 5.74176 17.2031 5.36851 17.2031H4.03556Z" fill="#6D36B0"/>
</svg>
