<svg width="24" height="25" viewBox="0 0 24 25" fill="none" xmlns="http://www.w3.org/2000/svg">
<path d="M24 17.4798C24 19.5412 22.3292 21.2129 20.267 21.2129H0V6.45679C0 4.39477 1.67088 2.72314 3.7333 2.72314H23.9999L23.9998 17.4797L24 17.4798Z" fill="white"/>
<path d="M17.3928 12.2926C17.9717 12.3052 18.5538 12.267 19.1304 12.3124C19.7143 12.4214 19.855 13.3053 19.3363 13.5948C18.9823 13.7855 18.5619 13.6658 18.1781 13.6995H17.3928V12.2926ZM19.4651 10.7002C19.5937 11.1542 19.1561 11.5618 18.7189 11.4993H17.3928C17.4021 11.0712 17.3746 10.6065 17.4063 10.201C17.9375 10.2159 18.4736 10.1704 19.0018 10.2247C19.2287 10.2818 19.4186 10.4683 19.4651 10.7002ZM22.6565 3.96817C22.6812 4.83512 22.6601 5.74788 22.6672 6.63242C22.6655 10.2286 22.6706 13.8247 22.6643 17.4211C22.6411 18.7688 21.4466 19.9399 20.1082 19.9668C18.7685 19.9723 17.4286 19.9677 16.0886 19.9691V14.5325C17.5485 14.5249 19.0092 14.5478 20.4685 14.5211C21.1454 14.4786 21.887 14.0319 21.9185 13.2869C21.9982 12.5387 21.2928 12.0212 20.623 11.9395C20.3656 11.9328 20.3731 11.8644 20.623 11.8346C21.2618 11.6965 21.7634 11.0354 21.5755 10.3733C21.4153 9.67691 20.6456 9.40738 20.0054 9.40871C18.7 9.39985 17.3944 9.40747 16.0889 9.4049C16.0974 8.38994 16.0714 7.37388 16.103 6.35967C16.2064 5.03624 17.4309 3.94484 18.7505 3.96852C20.0527 3.96832 21.3546 3.96832 22.6565 3.96827V3.96817Z" fill="url(#paint0_linear_10841_183)"/>
<path d="M1.33685 6.49698C1.37018 5.15136 2.56972 3.98987 3.90643 3.9702C5.2412 3.96609 6.57617 3.96961 7.91094 3.96842C7.90728 8.47058 7.91817 12.9732 7.90544 17.4752C7.85402 18.8044 6.66756 19.9438 5.34542 19.9673C4.00812 19.9722 2.67068 19.968 1.33333 19.9693V14.3494C2.63234 14.6563 3.99455 14.7869 5.31976 14.5833C6.11191 14.4559 6.97861 14.0669 7.2468 13.2451C7.44416 12.5421 7.33304 11.8022 7.36242 11.0807V9.40515H5.06901C5.0587 10.5133 5.09011 11.6235 5.05241 12.7303C4.99059 13.4107 4.31684 13.8429 3.67519 13.8198C2.87943 13.8282 1.30252 13.2431 1.30252 13.2431C1.29855 11.1668 1.3256 8.56659 1.33685 6.49718V6.49698Z" fill="url(#paint1_linear_10841_183)"/>
<path d="M8.7662 10.0812C8.64548 10.1069 8.74193 9.67004 8.71107 9.50434C8.71929 8.45664 8.69388 7.40779 8.72509 6.36083C8.82822 5.0318 10.0621 3.93768 11.3871 3.96879H15.289C15.2853 8.47095 15.2962 12.9736 15.2835 17.4755C15.232 18.8048 14.0455 19.9441 12.7233 19.9677C11.3859 19.9727 10.0485 19.9685 8.71102 19.9698V13.8123C9.62442 14.5618 10.8659 14.6784 12.0038 14.6805C12.8617 14.6802 13.7146 14.5479 14.5477 14.35V13.222C13.6088 13.6899 12.5051 13.9871 11.4644 13.7183C10.7384 13.5376 10.2113 12.8359 10.2231 12.0867C10.139 11.3075 10.5957 10.4849 11.3614 10.2533C12.312 9.95567 13.3481 10.1833 14.2393 10.5702C14.4302 10.6702 14.624 10.7942 14.5476 10.4751V9.58841C13.0573 9.23382 11.4712 9.10334 9.97391 9.48908C9.54051 9.61134 9.11826 9.79676 8.7662 10.0813V10.0812Z" fill="url(#paint2_linear_10841_183)"/>
<defs>
<linearGradient id="paint0_linear_10841_183" x1="16.0437" y1="11.6265" x2="22.6257" y2="11.6265" gradientUnits="userSpaceOnUse">
<stop stop-color="#007B40"/>
<stop offset="1" stop-color="#55B330"/>
</linearGradient>
<linearGradient id="paint1_linear_10841_183" x1="1.19338" y1="12.1221" x2="7.80309" y2="12.1221" gradientUnits="userSpaceOnUse">
<stop stop-color="#1D2970"/>
<stop offset="1" stop-color="#006DBA"/>
</linearGradient>
<linearGradient id="paint2_linear_10841_183" x1="8.70137" y1="11.7822" x2="15.2878" y2="11.7822" gradientUnits="userSpaceOnUse">
<stop stop-color="#6E2B2F"/>
<stop offset="1" stop-color="#E30138"/>
</linearGradient>
</defs>
</svg>
