<svg width="24" height="24" viewBox="0 0 24 24" fill="none" xmlns="http://www.w3.org/2000/svg">
<path d="M24 17.3816C24 19.4431 22.3292 21.1147 20.267 21.1147H0V6.35865C0 4.29662 1.67088 2.625 3.7333 2.625H23.9999L23.9998 17.3816L24 17.3816Z" fill="white"/>
<path d="M17.3928 12.1945C17.9717 12.207 18.5538 12.1689 19.1304 12.2143C19.7143 12.3232 19.855 13.2071 19.3363 13.4966C18.9823 13.6874 18.5619 13.5677 18.1781 13.6013H17.3928V12.1945ZM19.4651 10.6021C19.5937 11.0561 19.1561 11.4636 18.7189 11.4011H17.3928C17.4021 10.973 17.3746 10.5084 17.4063 10.1028C17.9375 10.1178 18.4736 10.0723 19.0018 10.1266C19.2287 10.1836 19.4186 10.3702 19.4651 10.6021ZM22.6565 3.87003C22.6812 4.73697 22.6601 5.64974 22.6672 6.53427C22.6655 10.1305 22.6706 13.7265 22.6643 17.3229C22.6411 18.6707 21.4466 19.8418 20.1082 19.8687C18.7685 19.8741 17.4286 19.8695 16.0886 19.871V14.4343C17.5485 14.4268 19.0092 14.4496 20.4685 14.4229C21.1454 14.3804 21.887 13.9338 21.9185 13.1888C21.9982 12.4406 21.2928 11.923 20.623 11.8413C20.3656 11.8346 20.3731 11.7663 20.623 11.7364C21.2618 11.5984 21.7634 10.9373 21.5755 10.2752C21.4153 9.57876 20.6456 9.30923 20.0054 9.31057C18.7 9.3017 17.3944 9.30933 16.0889 9.30675C16.0974 8.29179 16.0714 7.27574 16.103 6.26152C16.2064 4.93809 17.4309 3.84669 18.7505 3.87037C20.0527 3.87018 21.3546 3.87018 22.6565 3.87013V3.87003Z" fill="url(#paint0_linear_10841_183)"/>
<path d="M1.33685 6.39884C1.37018 5.05322 2.56972 3.89172 3.90643 3.87206C5.2412 3.86795 6.57617 3.87146 7.91094 3.87027C7.90728 8.37244 7.91817 12.8751 7.90544 17.377C7.85402 18.7063 6.66756 19.8456 5.34542 19.8692C4.00812 19.874 2.67068 19.8699 1.33333 19.8712V14.2512C2.63234 14.5581 3.99455 14.6887 5.31976 14.4852C6.11191 14.3577 6.97861 13.9687 7.2468 13.1469C7.44416 12.4439 7.33304 11.7041 7.36242 10.9826V9.307H5.06901C5.0587 10.4152 5.09011 11.5253 5.05241 12.6322C4.99059 13.3125 4.31684 13.7448 3.67519 13.7217C2.87943 13.7301 1.30252 13.145 1.30252 13.145C1.29855 11.0687 1.3256 8.46844 1.33685 6.39904V6.39884Z" fill="url(#paint1_linear_10841_183)"/>
<path d="M8.7662 9.9831C8.64548 10.0087 8.74193 9.5719 8.71107 9.4062C8.71929 8.35849 8.69388 7.30964 8.72509 6.26268C8.82822 4.93366 10.0621 3.83953 11.3871 3.87064H15.289C15.2853 8.37281 15.2962 12.8755 15.2835 17.3774C15.232 18.7067 14.0455 19.846 12.7233 19.8695C11.3859 19.8746 10.0485 19.8703 8.71102 19.8716V13.7142C9.62442 14.4636 10.8659 14.5803 12.0038 14.5823C12.8617 14.582 13.7146 14.4498 14.5477 14.2519V13.1238C13.6088 13.5918 12.5051 13.889 11.4644 13.6202C10.7384 13.4394 10.2113 12.7378 10.2231 11.9886C10.139 11.2094 10.5957 10.3868 11.3614 10.1551C12.312 9.85753 13.3481 10.0852 14.2393 10.4721C14.4302 10.572 14.624 10.696 14.5476 10.3769V9.49026C13.0573 9.13568 11.4712 9.0052 9.97391 9.39094C9.54051 9.5132 9.11826 9.69861 8.7662 9.9832V9.9831Z" fill="url(#paint2_linear_10841_183)"/>
<defs>
<linearGradient id="paint0_linear_10841_183" x1="16.0437" y1="11.5284" x2="22.6257" y2="11.5284" gradientUnits="userSpaceOnUse">
<stop stop-color="#007B40"/>
<stop offset="1" stop-color="#55B330"/>
</linearGradient>
<linearGradient id="paint1_linear_10841_183" x1="1.19338" y1="12.024" x2="7.80309" y2="12.024" gradientUnits="userSpaceOnUse">
<stop stop-color="#1D2970"/>
<stop offset="1" stop-color="#006DBA"/>
</linearGradient>
<linearGradient id="paint2_linear_10841_183" x1="8.70137" y1="11.684" x2="15.2878" y2="11.684" gradientUnits="userSpaceOnUse">
<stop stop-color="#6E2B2F"/>
<stop offset="1" stop-color="#E30138"/>
</linearGradient>
</defs>
</svg>
