<svg width="24" height="25" viewBox="0 0 24 25" fill="none" xmlns="http://www.w3.org/2000/svg">
<path d="M5.31575 5.09814H10.804C11.5702 5.09814 12.0549 5.73451 11.8673 6.51405L9.30296 17.6822C9.13096 18.4618 8.36479 19.0981 7.59862 19.0981H2.09471C1.32855 19.0981 0.859462 18.4618 1.03146 17.6822L3.59578 6.51405C3.76778 5.73451 4.53395 5.09814 5.31575 5.09814Z" fill="#ED171F"/>
<path d="M10.3347 5.09814H16.6517C17.4179 5.09814 17.0739 5.73451 16.8862 6.51405L14.3375 17.6822C14.1655 18.4618 14.2125 19.0981 13.4463 19.0981H7.12929C6.36313 19.0981 5.87841 18.4618 6.06604 17.6822L8.63036 6.51405C8.80236 5.73451 9.56853 5.09814 10.3347 5.09814Z" fill="#082F67"/>
<path d="M16.4016 5.09814H21.8899C22.656 5.09814 23.1408 5.73451 22.9531 6.51405L20.4044 17.6822C20.2324 18.4618 19.4506 19.0981 18.6845 19.0981H13.1962C12.43 19.0981 11.9453 18.4618 12.1329 17.6822L14.6816 6.51405C14.8693 5.73451 15.6354 5.09814 16.4016 5.09814Z" fill="#006A65"/>
<path fill-rule="evenodd" clip-rule="evenodd" d="M16.1202 8.66178H15.8856C15.2914 8.66178 15.0569 8.66178 14.9475 8.64587C14.9318 8.6936 14.9162 8.77315 14.9162 8.77315L14.6973 9.77542C14.6973 9.77542 14.1813 11.9231 14.1656 12.0186H14.9944C15.01 11.9231 15.1351 11.3186 15.1351 11.3186C15.1351 11.3186 15.2445 10.8731 15.2445 10.8572C15.2445 10.8572 15.2758 10.8095 15.3071 10.7936H15.354C15.8074 10.7936 16.3078 10.7936 16.7143 10.4913C16.9801 10.2845 17.1678 9.98224 17.246 9.61633C17.2616 9.52087 17.2772 9.40951 17.2772 9.31406C17.2772 9.17087 17.246 9.0436 17.1678 8.93224C16.9801 8.66178 16.5892 8.66178 16.1202 8.66178ZM16.4172 9.71178C16.3703 9.93451 16.2296 10.1254 16.042 10.2209C15.8856 10.3004 15.698 10.3004 15.5104 10.3004H15.3853L15.4009 10.2527L15.6354 9.25042V9.17087L15.7293 9.18678C15.7293 9.18678 16.1983 9.23451 16.214 9.23451C16.386 9.28224 16.4642 9.47315 16.4172 9.71178Z" fill="white"/>
<path d="M5.55006 10.5549C5.55006 10.5549 5.94096 8.7572 5.9566 8.66174C6.00351 8.67765 6.1755 8.67765 6.75404 8.67765V8.69356C6.67586 8.91629 6.26932 10.6027 6.26932 10.6027L6.22241 10.7777L6.21386 10.8063C6.10705 11.1642 5.99252 11.5479 5.58133 11.7958C5.33116 11.9549 4.97153 12.0345 4.58062 12.0345C4.28354 12.0345 3.75191 11.9867 3.56428 11.6527C3.50173 11.5413 3.47046 11.414 3.47046 11.2708L3.533 10.7617L3.56428 10.6027L3.97081 8.77311C3.97081 8.77311 4.00209 8.67765 4.00209 8.66174C4.00209 8.67765 4.14281 8.67765 4.92462 8.67765V8.69356C4.86207 8.91629 4.45553 10.539 4.45553 10.539L4.37735 11.0322V11.1117C4.40863 11.3504 4.54935 11.4777 4.79953 11.4777C4.95589 11.4777 5.09661 11.4299 5.20607 11.3345C5.40934 11.1754 5.47188 10.9208 5.55006 10.5549Z" fill="white"/>
<path d="M11.6169 13.1164H12.3361L12.211 13.5618H11.226L11.1165 13.6573C11.0875 13.6868 11.0705 13.692 11.0469 13.6991C11.0324 13.7036 11.0153 13.7088 10.9914 13.7209C10.9289 13.7527 10.8194 13.8005 10.6631 13.8005H10.3503L10.4754 13.3709H10.5692C10.6474 13.3709 10.71 13.3709 10.7256 13.3391C10.7569 13.3232 10.7882 13.2755 10.8351 13.1959L11.0227 12.8618H11.742L11.6169 13.1164Z" fill="white"/>
<path fill-rule="evenodd" clip-rule="evenodd" d="M16.6361 15.5981L17.3085 13.339H17.543L17.5988 13.1561L17.6056 13.3709C17.59 13.53 17.7151 13.6731 18.0434 13.6413H18.403L18.5281 13.2118H18.3874C18.3092 13.2118 18.278 13.1959 18.278 13.1481V12.8777H17.59L17.59 12.8796C17.3458 12.885 16.6998 12.9028 16.5736 12.9413C16.4016 12.989 16.2296 13.1163 16.2296 13.1163L16.2921 12.8777H15.6354L15.4947 13.339L14.8223 15.63H14.6972L14.5721 16.0595H15.8699L15.823 16.2027H16.4641L16.511 16.0595H16.6825L16.6361 16.2186H17.1365C17.3866 16.2186 17.5274 16.1073 17.6368 15.9482L17.9808 15.4709L18.059 15.9641C18.0746 16.0436 18.1372 16.1073 18.1841 16.1232L18.1916 16.1284L18.1988 16.1336L18.2101 16.1419C18.2492 16.1709 18.2922 16.2027 18.3561 16.2027H18.7626L18.9033 15.7255H18.8095C18.7626 15.7255 18.6688 15.7095 18.6532 15.6936C18.6435 15.6838 18.6398 15.6679 18.6347 15.6459C18.6316 15.6323 18.6279 15.6164 18.6219 15.5982L18.5437 15.105H18.231L18.3717 14.9459H19.1222L19.2317 14.5641H18.5281L18.6375 14.2141H19.3255L19.4506 13.7845H17.371L17.2459 14.2141H17.9964L17.887 14.5641H17.1365L17.027 14.9459H17.6837L17.199 15.6777C17.1521 15.7255 17.1208 15.7414 17.0896 15.7573C17.0426 15.7732 16.9957 15.7891 16.9488 15.7891H16.7655L16.8237 15.5981H16.6361ZM15.9794 13.9118L16.1514 13.339V13.355H16.6674L16.5423 13.7686C16.5423 13.7686 16.3859 13.7686 16.2765 13.8004C16.167 13.8322 15.9794 13.9118 15.9794 13.9118ZM15.7292 14.8027L15.9012 14.1981V14.214H16.4172L16.2921 14.6277C16.2921 14.6277 16.1358 14.6436 16.0263 14.6754C15.9325 14.7072 15.7292 14.8027 15.7292 14.8027ZM16.0107 15.5981H15.479L15.651 15.089H16.167L16.0107 15.5981Z" fill="white"/>
<path d="M12.1955 13.88H10.4442L10.3348 14.3255H10.7257L10.6162 14.6914H10.2097L10.0846 15.1368H10.4755L10.241 15.9164C10.2135 16.0001 10.2462 16.0471 10.2758 16.0896C10.2799 16.0955 10.284 16.1014 10.2879 16.1073C10.3191 16.155 10.3504 16.1868 10.413 16.2027C10.4338 16.207 10.4525 16.2112 10.4698 16.2152C10.5173 16.226 10.5548 16.2346 10.6006 16.2346H11.4137L11.5544 15.7414L11.1948 15.7891C11.1322 15.7891 10.9446 15.7732 10.9602 15.7095L11.1322 15.1209H11.8515L11.9766 14.6755H11.2573L11.3668 14.3096H12.0704L12.1955 13.88Z" fill="white"/>
<path fill-rule="evenodd" clip-rule="evenodd" d="M13.2586 12.8777H12.6488L11.8045 15.805C11.7947 15.8399 11.7849 15.8717 11.776 15.9004C11.7567 15.9631 11.7419 16.0108 11.7419 16.0436C11.7419 16.0913 11.8045 16.155 11.8514 16.1868C11.8983 16.2186 11.9765 16.2186 12.0547 16.2186C12.1172 16.2345 12.2267 16.2345 12.383 16.2345H12.8521L12.9928 15.7413L12.5707 15.789C12.5237 15.789 12.4925 15.7572 12.4768 15.7413C12.4612 15.7095 12.4612 15.6777 12.4925 15.5822L12.7583 14.6754H13.7121C13.8372 14.6595 13.9466 14.6595 14.0092 14.6595C14.0874 14.6595 14.1655 14.6277 14.2437 14.58C14.3375 14.5322 14.3844 14.4845 14.4157 14.4209C14.447 14.3572 14.5095 14.2299 14.5721 14.039L14.9161 12.8936H13.931C13.931 12.8936 13.6339 12.9413 13.4932 12.989C13.3525 13.0368 13.1648 13.1959 13.1648 13.1959L13.2586 12.8777ZM12.9459 14.039H13.9466L13.8685 14.2459C13.8685 14.2459 13.8528 14.23 13.7434 14.2459H12.8834L12.9459 14.039ZM13.5245 13.6095C13.1961 13.6731 12.9928 13.8481 12.9928 13.8481L13.1336 13.355H14.1499L14.0717 13.5936C14.0717 13.5936 13.6026 13.5936 13.5245 13.6095Z" fill="white"/>
<path d="M14.4314 14.7231L14.3689 14.9936C14.3635 15.0072 14.3586 15.0204 14.3539 15.0332C14.3309 15.0949 14.3113 15.1477 14.2594 15.2004C14.1969 15.2641 14.1187 15.3118 13.9311 15.3118L13.5871 15.3277V15.63C13.5871 15.7055 13.5969 15.7113 13.6087 15.7183L13.6111 15.7197C13.6135 15.7212 13.6159 15.7229 13.6184 15.7254C13.6262 15.7334 13.634 15.7374 13.6418 15.7413C13.6496 15.7453 13.6575 15.7493 13.6653 15.7572H13.7747L14.1031 15.7413L13.978 16.1868H13.6027C13.3369 16.1868 13.1493 16.1868 13.0867 16.1231C13.0242 16.0913 13.0086 16.0277 13.0242 15.9481L13.0555 14.7391H13.6496L13.634 14.9936H13.7747C13.8216 14.9936 13.8529 14.9936 13.8842 14.9777C13.8998 14.9618 13.9155 14.9459 13.9311 14.9141L13.9936 14.7231H14.4314Z" fill="white"/>
<path d="M8.23957 12.0185C7.95812 12.0185 7.8643 12.0185 7.55158 12.0345L7.53594 12.0185L7.62976 11.6367L7.67667 11.4617C7.73921 11.1913 7.80176 10.889 7.80176 10.7935C7.80176 10.7856 7.80224 10.7768 7.80275 10.7673C7.80639 10.7003 7.81169 10.6026 7.66103 10.6026C7.59849 10.6026 7.52031 10.6345 7.45776 10.6663C7.44898 10.7065 7.4365 10.7667 7.42206 10.8365C7.38505 11.0152 7.33514 11.2563 7.3014 11.3822C7.26702 11.5501 7.24776 11.6534 7.23298 11.7327C7.21417 11.8335 7.20257 11.8958 7.17631 12.0026L7.14504 12.0345C6.86359 12.0345 6.76978 12.0345 6.44142 12.0504L6.42578 12.0185C6.47901 11.829 6.52092 11.6279 6.56114 11.4349L6.58214 11.3345C6.72287 10.714 6.75414 10.4913 6.78541 10.1731L6.81668 10.1572C6.89789 10.1448 6.96327 10.1356 7.02161 10.1274C7.18793 10.1041 7.29691 10.0888 7.55158 10.0299L7.58285 10.0617L7.53594 10.2526C7.56722 10.2367 7.59458 10.2208 7.62194 10.2049C7.64931 10.189 7.67667 10.1731 7.70794 10.1572C7.8643 10.0776 8.05194 10.0458 8.14575 10.0458C8.30211 10.0458 8.45848 10.0935 8.53666 10.2685C8.59376 10.4138 8.55962 10.5856 8.49375 10.9171L8.47411 11.0163L8.4272 11.2072C8.33339 11.6367 8.31775 11.7163 8.27084 12.0026L8.23957 12.0185Z" fill="white"/>
<path d="M8.9744 12.0186H9.34967V11.9709C9.3693 11.881 9.3766 11.835 9.38319 11.7936C9.3871 11.769 9.39075 11.746 9.39657 11.7164C9.39657 11.6627 9.41079 11.6019 9.43922 11.4802C9.45295 11.4213 9.47002 11.3483 9.49039 11.255C9.50601 11.1914 9.52163 11.1239 9.53725 11.0564C9.55288 10.9888 9.56857 10.9209 9.58421 10.8573C9.59984 10.7936 9.61548 10.726 9.63111 10.6584C9.64675 10.5908 9.66239 10.5232 9.67802 10.4596V10.4277C9.50603 10.4596 9.39657 10.4755 9.28712 10.4914C9.22352 10.5099 9.16519 10.5176 9.09374 10.5271C9.04224 10.5339 8.9839 10.5417 8.91185 10.555L8.88058 10.5868C8.87276 10.6505 8.86495 10.7101 8.85713 10.7698C8.84931 10.8294 8.84149 10.8891 8.83367 10.9527C8.81804 11.08 8.78677 11.2391 8.73986 11.4459C8.71863 11.5647 8.6974 11.6249 8.68107 11.6711C8.67334 11.693 8.6667 11.7118 8.66168 11.7323C8.65386 11.7561 8.64604 11.784 8.63432 11.8257C8.62259 11.8675 8.60695 11.9232 8.5835 12.0027L8.61477 12.0346C8.77113 12.0186 8.86495 12.0186 8.9744 12.0186Z" fill="white"/>
<path fill-rule="evenodd" clip-rule="evenodd" d="M11.8359 11.0641C11.9297 10.6345 11.8515 10.4277 11.7577 10.3004C11.617 10.1095 11.3668 10.0459 11.101 10.0459C10.9446 10.0459 10.5693 10.0618 10.2723 10.3323C10.069 10.5232 9.95953 10.8095 9.89698 11.0641C9.83444 11.3345 9.77189 11.8118 10.1941 11.9868C10.3348 12.0504 10.5224 12.0664 10.6475 12.0664C10.9602 12.0664 11.2886 11.9709 11.5231 11.7164C11.7264 11.5095 11.8046 11.1914 11.8359 11.0641ZM11.1166 11.0323L11.111 11.0556C11.0891 11.1479 11.0311 11.3927 10.9602 11.4936C10.8977 11.5732 10.8352 11.6368 10.757 11.6368C10.7413 11.6368 10.6006 11.6368 10.6006 11.43C10.6006 11.3345 10.6162 11.2232 10.6475 11.1118C10.7257 10.7777 10.8039 10.5073 11.0228 10.5073C11.1791 10.4914 11.1948 10.6982 11.1166 11.0323Z" fill="white"/>
<path fill-rule="evenodd" clip-rule="evenodd" d="M18.5906 12.0504L18.6532 12.0345C18.7001 11.7481 18.747 11.4617 18.8721 10.9049C18.9033 10.7697 18.9346 10.6384 18.9659 10.5072C18.9972 10.3759 19.0284 10.2447 19.0597 10.1095L19.0441 10.0776C18.7001 10.1413 18.6063 10.1572 18.2779 10.2049L18.2466 10.2208C18.2415 10.2603 18.2363 10.2981 18.2308 10.3355C18.1788 10.2351 18.0983 10.1477 17.9652 10.0936C17.8245 10.03 17.4648 10.1095 17.1834 10.38C16.9801 10.5709 16.8707 10.8413 16.8081 11.1118C16.7456 11.3663 16.683 11.8436 17.1052 12.0186C17.2459 12.0822 17.371 12.0981 17.4961 12.0822C17.6322 12.0723 17.7576 12.0025 17.873 11.9029C17.8618 11.947 17.8508 11.9909 17.8401 12.0345L17.8557 12.0663C18.1684 12.0504 18.2623 12.0504 18.5906 12.0504ZM17.9183 10.539C18.0902 10.539 18.1527 10.7297 18.0904 11.0634C18.0798 11.1066 18.0688 11.1507 18.0576 11.1944C18.0274 11.3056 17.9795 11.4527 17.9183 11.5254C17.8557 11.605 17.7306 11.6527 17.6525 11.6527C17.6368 11.6527 17.4961 11.6527 17.4961 11.4459C17.4961 11.3504 17.5117 11.239 17.543 11.1277C17.6212 10.8095 17.6994 10.539 17.9183 10.539Z" fill="white"/>
<path d="M13.0398 12.0345C13.3525 12.0185 13.4463 12.0185 13.7277 12.0185L13.7434 12.0026C13.7903 11.7163 13.8059 11.6367 13.8997 11.2072L13.9466 11.0163L13.9663 10.9171C14.0322 10.5856 14.0663 10.4138 14.0092 10.2685C13.931 10.0935 13.7746 10.0458 13.6183 10.0458C13.5245 10.0458 13.3368 10.0776 13.1805 10.1572C13.1492 10.1731 13.1218 10.189 13.0945 10.2049C13.0671 10.2208 13.0398 10.2367 13.0085 10.2526L13.0554 10.0617L13.0241 10.0299C12.7695 10.0888 12.6605 10.1041 12.4942 10.1274C12.4358 10.1356 12.3704 10.1448 12.2892 10.1572L12.2579 10.1731C12.2267 10.4913 12.1954 10.714 12.0547 11.3345L12.0337 11.4349C11.9935 11.6278 11.9515 11.829 11.8983 12.0185L11.914 12.0504C12.2423 12.0345 12.3361 12.0345 12.6176 12.0345L12.6488 12.0026C12.6751 11.8958 12.6867 11.8338 12.7055 11.7329C12.7203 11.6536 12.7395 11.5503 12.7739 11.3822C12.7964 11.2563 12.8513 11.0153 12.8919 10.8365C12.9078 10.7668 12.9215 10.7065 12.9303 10.6663C12.9928 10.6345 13.071 10.6026 13.1336 10.6026C13.2842 10.6026 13.2789 10.7003 13.2753 10.7673C13.2748 10.7768 13.2743 10.7856 13.2743 10.7935C13.2743 10.889 13.2117 11.1913 13.1492 11.4617L13.1179 11.6367L13.0241 12.0185L13.0398 12.0345Z" fill="white"/>
<path d="M21.28 10.0459L21.3113 10.0777C21.3113 10.0777 19.9509 12.4641 19.7789 12.8459L19.732 12.9095C19.7289 12.9095 19.7259 12.9095 19.7228 12.9095L19.4662 13.3549C19.3881 13.514 19.2161 13.6413 18.9659 13.6413H18.5437L18.6688 13.2117H18.747C18.7939 13.2117 18.8252 13.2117 18.8408 13.1958C18.8564 13.1958 18.8721 13.1799 18.9033 13.1481L19.0597 12.8936H19.0754C19.18 12.7216 19.2474 12.6002 19.3179 12.4729C19.3844 12.353 19.4539 12.2279 19.56 12.0504L19.5174 11.6727C19.4989 11.5089 19.4855 11.3903 19.4662 11.2232C19.4584 11.1436 19.4467 11.0601 19.4349 10.9766C19.4232 10.8931 19.4115 10.8095 19.4037 10.73C19.3891 10.6212 19.3806 10.5508 19.3743 10.4993C19.3604 10.3851 19.3578 10.3634 19.3255 10.2209V10.1891L19.3568 10.1732C19.5445 10.1459 19.6249 10.129 19.7266 10.1076C19.8027 10.0916 19.8908 10.0731 20.0448 10.0459L20.076 10.0777L20.1229 11.0164V11.0641C20.2068 10.8869 20.2534 10.8045 20.2956 10.7297C20.3559 10.6232 20.4073 10.5321 20.5451 10.205V10.1891L20.5607 10.1732C20.7914 10.138 20.8859 10.1201 21.0576 10.0876C21.1188 10.076 21.1897 10.0626 21.28 10.0459Z" fill="white"/>
<path d="M9.66246 10.3004C9.8501 10.1731 9.86573 9.99812 9.70937 9.90267C9.55301 9.80721 9.2872 9.83903 9.09956 9.96631C8.91193 10.0936 8.89629 10.2686 9.05266 10.364C9.20902 10.4595 9.47483 10.4277 9.66246 10.3004Z" fill="white"/>
</svg>
