<svg width="24" height="25" viewBox="0 0 24 25" fill="none" xmlns="http://www.w3.org/2000/svg">
<circle cx="12" cy="12.0981" r="12" fill="#22A2E6"/>
<path d="M18.6667 8.02754C18.1709 8.24169 17.6425 8.38364 17.0917 8.45257C17.6584 8.11944 18.0909 7.59595 18.2942 6.96498C17.7659 7.27513 17.1825 7.49421 16.5609 7.61646C16.0592 7.09051 15.3442 6.76477 14.5642 6.76477C13.0509 6.76477 11.8325 7.97421 11.8325 9.45687C11.8325 9.67021 11.8509 9.87533 11.8959 10.0706C9.62337 9.96149 7.61254 8.88908 6.26171 7.25544C6.02587 7.65831 5.88754 8.11944 5.88754 8.61585C5.88754 9.54795 6.37504 10.3742 7.10171 10.8526C6.66254 10.8444 6.23171 10.7188 5.86671 10.5211C5.86671 11.6613 6.7245 12.9268 8.05671 13.1951C7.66683 13.3001 7.21937 13.3242 6.82254 13.2378C7.17671 14.3036 8.18171 15.0872 9.37671 15.1127C8.24318 15.9857 6.75591 16.4028 5.33337 16.2236C6.54421 16.9925 7.97921 17.4314 9.52671 17.4314C13.8569 17.4314 17.5212 13.8137 17.2967 9.42487C17.8392 9.0458 18.295 8.57236 18.6667 8.02754Z" fill="white"/>
</svg>
