<svg width="24" height="25" viewBox="0 0 24 25" fill="none" xmlns="http://www.w3.org/2000/svg">
<path d="M15.334 8.09814C13.7739 8.09814 12.3732 8.93501 12.3732 10.4707C12.3732 12.2393 14.8475 12.3601 14.8475 13.2401C14.8475 13.6111 14.4281 13.9476 13.7236 13.9476C12.7171 13.9476 11.9623 13.4817 11.9623 13.4817L11.6435 15.0346C11.6435 15.0346 12.5074 15.4315 13.6649 15.4315C15.3759 15.4315 16.7179 14.5601 16.7179 12.9899C16.7179 11.1264 14.2352 11.0056 14.2352 10.186C14.2352 9.89266 14.5791 9.57344 15.2836 9.57344C16.0804 9.57344 16.7347 9.90991 16.7347 9.90991L17.0534 8.40873C17.045 8.40873 16.3321 8.09814 15.334 8.09814ZM1.04194 8.2103L1 8.43462C1 8.43462 1.65421 8.5554 2.24971 8.8056C3.01296 9.0903 3.06329 9.25422 3.19748 9.76324L4.59817 15.3107H6.47693L9.35379 8.2103H7.48342L5.62981 13.0417L4.87495 8.94364C4.80785 8.47775 4.45559 8.2103 4.01944 8.2103H1.04194ZM10.1087 8.2103L8.64087 15.3107H10.4274L11.8868 8.2103H10.1087ZM20.056 8.2103C19.6283 8.2103 19.4018 8.44324 19.2341 8.85736L16.6172 15.3107H18.4876L18.8483 14.2323H21.1296L21.3477 15.3107H23L21.5658 8.2103H20.056ZM20.2993 10.1342L20.8528 12.8001H19.3683L20.2993 10.1342Z" fill="white"/>
</svg>
