<svg width="24" height="24" viewBox="0 0 24 24" fill="none" xmlns="http://www.w3.org/2000/svg">
<path d="M2.77149 12C2.77149 11.8451 2.77546 11.6918 2.7834 11.5386L0.0150885 11.4004C0.00555906 11.5989 0 11.799 0 12C0 15.3138 1.34286 18.314 3.51479 20.4852L5.47786 18.5221C3.80623 16.8513 2.77149 14.5443 2.77149 12Z" fill="url(#paint0_linear_10905_13286)"/>
<path d="M11.9992 2.77229C12.154 2.77229 12.3073 2.77784 12.4606 2.78499L12.5988 0.0150885C12.4002 0.00555906 12.2001 0 11.9992 0C8.68531 0 5.68511 1.34286 3.51398 3.51479L5.47705 5.47786C7.14789 3.80703 9.45561 2.77229 11.9992 2.77229Z" fill="url(#paint1_linear_10905_13286)"/>
<path d="M11.9992 21.2285C11.8444 21.2285 11.6911 21.2245 11.5378 21.2166L11.3997 23.9849C11.5982 23.9944 11.7983 24 11.9992 24C15.3131 24 18.3133 22.6571 20.4844 20.4852L18.5214 18.5221C16.8505 20.1929 14.5436 21.2285 11.9992 21.2285Z" fill="url(#paint2_linear_10905_13286)"/>
<path d="M17.2015 4.38277L19.5354 2.6627C17.4755 0.998213 14.8541 0 11.9992 0V2.77229C13.9281 2.77229 15.7197 3.36708 17.2015 4.38277Z" fill="url(#paint3_linear_10905_13286)"/>
<path d="M23.9992 12C23.9992 11.2663 23.9333 10.5476 23.807 9.85034L21.2237 11.7539C21.2261 11.8356 21.2269 11.9174 21.2269 12C21.2269 14.7096 20.0532 17.1499 18.187 18.8398L20.0492 20.8982C22.4753 18.7032 23.9992 15.5299 23.9992 12Z" fill="#21A038"/>
<path d="M11.9992 21.2285C9.28968 21.2285 6.84934 20.0548 5.15944 18.1886L3.10107 20.0508C5.29683 22.4761 8.47014 24 11.9992 24V21.2285Z" fill="url(#paint4_linear_10905_13286)"/>
<path d="M5.8114 5.16017L3.94918 3.10181C1.52392 5.29756 0 8.47088 0 12H2.77228C2.77149 9.29041 3.94521 6.85007 5.8114 5.16017Z" fill="url(#paint5_linear_10905_13286)"/>
<path d="M21.4953 4.66394C22.0623 5.39612 22.5467 6.19581 22.9335 7.04949L11.9992 15.1075L7.4314 12.2439V8.79894L11.9992 11.6626L21.4953 4.66394Z" fill="#21A038"/>
<defs>
<linearGradient id="paint0_linear_10905_13286" x1="4.07508" y1="20.1386" x2="1.0461" y2="11.3831" gradientUnits="userSpaceOnUse">
<stop offset="0.1444" stop-color="#F2E913"/>
<stop offset="0.3037" stop-color="#E7E518"/>
<stop offset="0.5823" stop-color="#CADB26"/>
<stop offset="0.891" stop-color="#A3CD39"/>
</linearGradient>
<linearGradient id="paint1_linear_10905_13286" x1="4.30587" y1="4.00576" x2="12.1072" y2="1.03281" gradientUnits="userSpaceOnUse">
<stop offset="0.0592" stop-color="#0FA8E0"/>
<stop offset="0.5385" stop-color="#0099F9"/>
<stop offset="0.9234" stop-color="#0291EB"/>
</linearGradient>
<linearGradient id="paint2_linear_10905_13286" x1="11.217" y1="22.3278" x2="20.039" y2="20.334" gradientUnits="userSpaceOnUse">
<stop offset="0.1226" stop-color="#A3CD39"/>
<stop offset="0.2846" stop-color="#86C339"/>
<stop offset="0.8693" stop-color="#21A038"/>
</linearGradient>
<linearGradient id="paint3_linear_10905_13286" x1="11.4193" y1="0.929347" x2="18.9619" y2="3.25658" gradientUnits="userSpaceOnUse">
<stop offset="0.0566" stop-color="#0291EB"/>
<stop offset="0.79" stop-color="#0C8ACB"/>
</linearGradient>
<linearGradient id="paint4_linear_10905_13286" x1="3.79623" y1="19.7139" x2="12.0064" y2="22.7815" gradientUnits="userSpaceOnUse">
<stop offset="0.1324" stop-color="#F2E913"/>
<stop offset="0.2977" stop-color="#EBE716"/>
<stop offset="0.5306" stop-color="#D9E01F"/>
<stop offset="0.8023" stop-color="#BBD62D"/>
<stop offset="0.9829" stop-color="#A3CD39"/>
</linearGradient>
<linearGradient id="paint5_linear_10905_13286" x1="1.0319" y1="12.3362" x2="4.32752" y2="3.76307" gradientUnits="userSpaceOnUse">
<stop offset="0.0698" stop-color="#A3CD39"/>
<stop offset="0.2599" stop-color="#81C55F"/>
<stop offset="0.9216" stop-color="#0FA8E0"/>
</linearGradient>
</defs>
</svg>
