<svg width="24" height="24" viewBox="0 0 24 24" fill="none" xmlns="http://www.w3.org/2000/svg">
<path d="M12 24C18.6274 24 24 18.6274 24 12C24 5.37258 18.6274 0 12 0C5.37258 0 0 5.37258 0 12C0 18.6274 5.37258 24 12 24Z" fill="white"/>
<path d="M24 12C24 18.6274 18.6274 24 12 24C5.37258 24 0 18.6274 0 12C0 5.37258 5.37258 0 12 0C13.295 0 14.5421 0.205139 15.7106 0.584696L12.9756 9.00003H4.98855L4.01255 12H12.0006L9.66062 19.2H12.9606L15.3006 12H24Z" fill="url(#paint0_linear_13403_5361)"/>
<path d="M23.622 9.00003H16.2756L18.5656 1.95384C21.0318 3.56889 22.8672 6.06755 23.622 9.00003Z" fill="url(#paint1_linear_13403_5361)"/>
<defs>
<linearGradient id="paint0_linear_13403_5361" x1="-9.49701e-08" y1="10.4" x2="24" y2="10.4" gradientUnits="userSpaceOnUse">
<stop stop-color="#FF5C4D"/>
<stop offset="0.4" stop-color="#EB469F"/>
<stop offset="1" stop-color="#8341EF"/>
</linearGradient>
<linearGradient id="paint1_linear_13403_5361" x1="-9.49701e-08" y1="10.4" x2="24" y2="10.4" gradientUnits="userSpaceOnUse">
<stop stop-color="#FF5C4D"/>
<stop offset="0.4" stop-color="#EB469F"/>
<stop offset="1" stop-color="#8341EF"/>
</linearGradient>
</defs>
</svg>
