<svg width="24" height="24" viewBox="0 0 24 24" fill="none" xmlns="http://www.w3.org/2000/svg">
<path d="M24 12C24 18.6274 18.6274 24 12 24C5.37258 24 0 18.6274 0 12C0 5.37258 5.37258 0 12 0C18.6274 0 24 5.37258 24 12Z" fill="#EE3124"/>
<path fill-rule="evenodd" clip-rule="evenodd" d="M12 3.3463C7.2749 3.3463 3.44444 7.17675 3.44444 11.9019C3.44444 16.627 7.2749 20.4574 12 20.4574C16.7251 20.4574 20.5556 16.627 20.5556 11.9019C20.5556 7.17675 16.7251 3.3463 12 3.3463ZM1 11.9019C1 5.82672 5.92487 0.901855 12 0.901855C18.0751 0.901855 23 5.82672 23 11.9019C23 17.977 18.0751 22.9019 12 22.9019C5.92487 22.9019 1 17.977 1 11.9019Z" fill="white"/>
<path d="M20.2195 9.51963C19.2973 6.33201 16.571 3.91038 13.2183 3.43241C12.55 3.33713 12 2.79912 12 2.1241C12 1.44909 12.5494 0.894757 13.2204 0.968811C17.8118 1.47559 21.5518 4.8082 22.663 9.18913C22.8117 9.77542 22.4369 10.3504 21.8551 10.5159C21.1435 10.7182 20.4251 10.2303 20.2195 9.51963Z" fill="black"/>
</svg>
