<svg width="24" height="25" viewBox="0 0 24 25" fill="none" xmlns="http://www.w3.org/2000/svg">
<path d="M3.27441 5.88733L5.88369 10.6494V13.5542L3.27747 18.3069L3.27441 5.88733Z" fill="#5B57A2"/>
<path d="M13.2925 8.91549L15.7375 7.38538L20.7413 7.38062L13.2925 12.0399V8.91549Z" fill="#D90751"/>
<path d="M13.2792 5.85877L13.293 12.1636L10.6776 10.5228V1.09814L13.2793 5.85877H13.2792Z" fill="#FAB718"/>
<path d="M20.7418 7.38118L15.7378 7.38594L13.2792 5.85877L10.6776 1.09814L20.7416 7.38118H20.7418Z" fill="#ED6F26"/>
<path d="M13.293 18.3334V15.2745L10.6776 13.6648L10.679 23.0988L13.293 18.3334Z" fill="#63B22F"/>
<path d="M15.7318 16.8171L5.88351 10.6494L3.27441 5.88733L20.7312 16.8109L15.7317 16.8171H15.7318Z" fill="#1487C9"/>
<path d="M10.6785 23.0982L13.292 18.3328L15.7309 16.8167L20.7302 16.8104L10.6785 23.0982Z" fill="#017F36"/>
<path d="M3.2771 18.3069L10.6986 13.6649L8.20351 12.1018L5.88332 13.5542L3.2771 18.3069Z" fill="#984995"/>
</svg>
