<svg width="24" height="25" viewBox="0 0 24 25" fill="none" xmlns="http://www.w3.org/2000/svg">
<path d="M7.55013 9.247C7.37681 7.04467 9.02164 5.11882 11.224 4.9455L18.9971 4.33374C20.6489 4.20374 22.0932 5.43737 22.2232 7.08911L22.9405 16.2022C23.0704 17.8539 21.8368 19.2983 20.1851 19.4283L12.412 20.0401C10.2096 20.2134 8.28376 18.5686 8.11043 16.3663L7.83028 12.8066L7.55013 9.247Z" fill="white"/>
<path fill-rule="evenodd" clip-rule="evenodd" d="M4.12497 6.78255C4.56644 5.95127 5.40201 5.40314 6.34035 5.32929L19.9284 4.25989C21.0652 4.17042 22.0593 5.01945 22.1487 6.15625L23.0127 17.1341C23.1022 18.2709 22.2531 19.265 21.1163 19.3544L7.52832 20.4238C6.58998 20.4977 5.67895 20.087 5.11288 19.335L1.41515 14.4228C0.933016 13.7824 0.865202 12.9207 1.2412 12.2127L4.12497 6.78255ZM18.9975 7.99458C19.3011 8.32873 19.5671 8.69885 19.7877 9.09895L14.7818 13.4333L12.4524 12.2163L12.3206 10.5421L14.6501 11.7591L18.9975 7.99458ZM5.53594 14.3673C6.29381 14.3077 6.85983 13.645 6.80018 12.8871C6.74054 12.1292 6.07782 11.5632 5.31995 11.6229C4.56209 11.6825 3.99607 12.3452 4.05571 13.1031C4.11536 13.861 4.77808 14.427 5.53594 14.3673ZM10.2038 12.274C10.0099 9.81103 11.8495 7.65718 14.3125 7.46334C15.2335 7.39086 16.1112 7.60266 16.8595 8.02506L17.9484 7.08212C16.8873 6.36113 15.5829 5.98262 14.2045 6.0911C10.9836 6.34459 8.57804 9.16117 8.83154 12.382C9.08503 15.603 11.9016 18.0085 15.1225 17.7551C18.3435 17.5016 20.749 14.685 20.4955 11.4641C20.4682 11.1167 20.4111 10.7788 20.3268 10.4528L19.1171 11.5002C19.1193 11.5241 19.1214 11.5481 19.1233 11.5721C19.3172 14.0351 17.4776 16.189 15.0145 16.3828C12.5515 16.5767 10.3976 14.7371 10.2038 12.274Z" fill="url(#paint0_linear_8442_7900)"/>
<path fill-rule="evenodd" clip-rule="evenodd" d="M4.12497 6.78255C4.56644 5.95127 5.40201 5.40314 6.34035 5.32929L19.9284 4.25989C21.0652 4.17042 22.0593 5.01945 22.1487 6.15625L23.0127 17.1341C23.1022 18.2709 22.2531 19.265 21.1163 19.3544L7.52832 20.4238C6.58998 20.4977 5.67895 20.087 5.11288 19.335L1.41515 14.4228C0.933016 13.7824 0.865202 12.9207 1.2412 12.2127L4.12497 6.78255ZM18.9975 7.99458C19.3011 8.32873 19.5671 8.69885 19.7877 9.09895L14.7818 13.4333L12.4524 12.2163L12.3206 10.5421L14.6501 11.7591L18.9975 7.99458ZM5.53594 14.3673C6.29381 14.3077 6.85983 13.645 6.80018 12.8871C6.74054 12.1292 6.07782 11.5632 5.31995 11.6229C4.56209 11.6825 3.99607 12.3452 4.05571 13.1031C4.11536 13.861 4.77808 14.427 5.53594 14.3673ZM10.2038 12.274C10.0099 9.81103 11.8495 7.65718 14.3125 7.46334C15.2335 7.39086 16.1112 7.60266 16.8595 8.02506L17.9484 7.08212C16.8873 6.36113 15.5829 5.98262 14.2045 6.0911C10.9836 6.34459 8.57804 9.16117 8.83154 12.382C9.08503 15.603 11.9016 18.0085 15.1225 17.7551C18.3435 17.5016 20.749 14.685 20.4955 11.4641C20.4682 11.1167 20.4111 10.7788 20.3268 10.4528L19.1171 11.5002C19.1193 11.5241 19.1214 11.5481 19.1233 11.5721C19.3172 14.0351 17.4776 16.189 15.0145 16.3828C12.5515 16.5767 10.3976 14.7371 10.2038 12.274Z" fill="url(#paint1_radial_8442_7900)"/>
<path fill-rule="evenodd" clip-rule="evenodd" d="M4.12498 6.78304C4.56644 5.95176 5.40201 5.40363 6.34035 5.32978L19.9284 4.26038C21.0652 4.17091 22.0593 5.01994 22.1487 6.15674L23.0127 17.1346C23.1022 18.2714 22.2531 19.2655 21.1163 19.3549L7.52832 20.4243C6.58998 20.4982 5.67895 20.0875 5.11288 19.3355L1.41515 14.4233C0.933016 13.7828 0.865202 12.9212 1.2412 12.2132L4.12498 6.78304ZM18.9975 7.99507C19.3011 8.32922 19.5671 8.69934 19.7877 9.09944L14.7818 13.4338L12.4524 12.2168L12.3206 10.5426L14.6501 11.7596L18.9975 7.99507ZM5.53595 14.3678C6.29381 14.3082 6.85983 13.6454 6.80018 12.8876C6.74054 12.1297 6.07782 11.5637 5.31995 11.6233C4.56209 11.683 3.99607 12.3457 4.05571 13.1036C4.11536 13.8614 4.77808 14.4275 5.53595 14.3678ZM10.2038 12.2745C10.0099 9.81152 11.8495 7.65767 14.3125 7.46383C15.2335 7.39134 16.1112 7.60315 16.8595 8.02555L17.9484 7.08261C16.8873 6.36161 15.5829 5.98311 14.2045 6.09159C10.9836 6.34508 8.57804 9.16165 8.83154 12.3825C9.08503 15.6035 11.9016 18.009 15.1225 17.7555C18.3434 17.502 20.749 14.6855 20.4955 11.4646C20.4682 11.1172 20.4111 10.7793 20.3268 10.4533L19.1171 11.5007C19.1193 11.5246 19.1214 11.5485 19.1233 11.5726C19.3171 14.0356 17.4776 16.1895 15.0145 16.3833C12.5515 16.5772 10.3976 14.7376 10.2038 12.2745Z" fill="url(#paint2_radial_8442_7900)"/>
<path fill-rule="evenodd" clip-rule="evenodd" d="M6.24432 20.2167C5.80269 20.0308 5.4102 19.73 5.11288 19.335L1.41515 14.4228C0.933016 13.7824 0.865202 12.9207 1.2412 12.2127L4.12498 6.78255C4.56644 5.95127 5.40201 5.40314 6.34035 5.32929L19.9284 4.25989C21.0652 4.17042 22.0593 5.01945 22.1487 6.15625L22.7771 14.1405C19.4619 17.5612 14.936 19.836 9.81521 20.2439L9.77628 20.2469C8.57976 20.34 7.39938 20.3273 6.24432 20.2167ZM18.9975 7.99458C19.3011 8.32873 19.5671 8.69885 19.7877 9.09895L14.7818 13.4333L12.4524 12.2163L12.3206 10.5421L14.6501 11.7591L18.9975 7.99458ZM5.53595 14.3673C6.29381 14.3077 6.85983 13.645 6.80018 12.8871C6.74054 12.1292 6.07782 11.5632 5.31995 11.6229C4.56209 11.6825 3.99607 12.3452 4.05571 13.1031C4.11536 13.861 4.77808 14.427 5.53595 14.3673ZM10.2038 12.274C10.0099 9.81103 11.8495 7.65718 14.3125 7.46334C15.2335 7.39086 16.1112 7.60266 16.8595 8.02506L17.9484 7.08212C16.8873 6.36113 15.5829 5.98262 14.2045 6.0911C10.9836 6.34459 8.57805 9.16117 8.83154 12.382C9.08503 15.603 11.9016 18.0085 15.1225 17.7551C18.3435 17.5016 20.749 14.685 20.4955 11.4641C20.4682 11.1167 20.4111 10.7788 20.3268 10.4528L19.1171 11.5002C19.1193 11.5241 19.1214 11.5481 19.1233 11.5721C19.3172 14.0351 17.4776 16.189 15.0145 16.3828C12.5515 16.5767 10.3976 14.7371 10.2038 12.274Z" fill="url(#paint3_radial_8442_7900)"/>
<defs>
<linearGradient id="paint0_linear_8442_7900" x1="9.90971" y1="-4.61677" x2="12.7716" y2="31.7475" gradientUnits="userSpaceOnUse">
<stop stop-color="#0084D9"/>
<stop offset="1" stop-color="#0084D9"/>
</linearGradient>
<radialGradient id="paint1_radial_8442_7900" cx="0" cy="0" r="1" gradientUnits="userSpaceOnUse" gradientTransform="translate(13.7037 21.6637) rotate(86.5654) scale(18.5077 18.5077)">
<stop stop-color="#13DF03"/>
<stop offset="0.444293" stop-color="#1FA233"/>
<stop offset="0.709921" stop-color="#22AC60" stop-opacity="0.402859"/>
<stop offset="1" stop-color="#21BA72" stop-opacity="0"/>
</radialGradient>
<radialGradient id="paint2_radial_8442_7900" cx="0" cy="0" r="1" gradientUnits="userSpaceOnUse" gradientTransform="translate(3.85605 19.3326) rotate(89.161) scale(16.1677 16.1677)">
<stop stop-color="#FDFF00"/>
<stop offset="0.642212" stop-color="#A0E720" stop-opacity="0.706751"/>
<stop offset="1" stop-color="#36DCBA" stop-opacity="0"/>
</radialGradient>
<radialGradient id="paint3_radial_8442_7900" cx="0" cy="0" r="1" gradientUnits="userSpaceOnUse" gradientTransform="translate(8.578 4.77869) rotate(85.5) scale(12.8331 12.8331)">
<stop stop-color="#1DD3D5"/>
<stop offset="1" stop-color="#1DD3D5" stop-opacity="0"/>
</radialGradient>
</defs>
</svg>
