<svg width="24" height="25" viewBox="0 0 24 25" fill="none" xmlns="http://www.w3.org/2000/svg">
<path d="M24 12.0981C24 18.7256 18.6274 24.0981 12 24.0981C5.37258 24.0981 0 18.7256 0 12.0981C0 5.47073 5.37258 0.0981445 12 0.0981445C18.6274 0.0981445 24 5.47073 24 12.0981Z" fill="#EE3124"/>
<path fill-rule="evenodd" clip-rule="evenodd" d="M12 5.09814C8.13401 5.09814 5 8.23215 5 12.0981C5 15.9641 8.13401 19.0981 12 19.0981C15.866 19.0981 19 15.9641 19 12.0981C19 8.23215 15.866 5.09814 12 5.09814ZM3 12.0981C3 7.12758 7.02944 3.09814 12 3.09814C16.9706 3.09814 21 7.12758 21 12.0981C21 17.0687 16.9706 21.0981 12 21.0981C7.02944 21.0981 3 17.0687 3 12.0981Z" fill="white"/>
<path fill-rule="evenodd" clip-rule="evenodd" d="M11.8142 4.03799C11.87 3.48854 12.3607 3.08839 12.9102 3.14424C14.8359 3.33998 16.6472 4.15135 18.0753 5.45795C19.5034 6.76455 20.4722 8.49675 20.8379 10.3975C20.9423 10.9399 20.5872 11.4641 20.0449 11.5685C19.5025 11.6728 18.9783 11.3178 18.8739 10.7754C18.5895 9.29705 17.8359 7.94979 16.7252 6.93354C15.6145 5.9173 14.2057 5.28623 12.7079 5.13399C12.1585 5.07814 11.7583 4.58744 11.8142 4.03799Z" fill="black"/>
</svg>
