<svg width="24" height="25" viewBox="0 0 24 25" fill="none" xmlns="http://www.w3.org/2000/svg">
<path fill-rule="evenodd" clip-rule="evenodd" d="M20.5305 9.09814H16.355C16.5795 10.519 17.9264 11.8481 19.408 11.8481H22.7305C22.7754 11.7106 22.7754 11.5273 22.7754 11.3898C22.7754 10.1065 21.7876 9.09814 20.5305 9.09814Z" fill="url(#paint0_linear_10841_180)"/>
<path d="M1 9.09814V15.5148H3.02041V12.0773H3.2449L4.36735 15.5148H5.26531L6.38775 12.0773H6.61224V15.5148H8.63265V9.09814H6.61224C6.61224 9.09814 6.02857 9.09814 5.71429 10.0148C4.99592 12.169 4.81633 12.7648 4.81633 12.7648C4.81633 12.7648 4.72653 12.444 3.91837 10.0148C3.60408 9.09814 3.02041 9.09814 3.02041 9.09814H1Z" fill="#4DB45F"/>
<path d="M9.53058 9.09814V15.5148H11.3265C11.3265 15.5148 11.7755 15.5148 12 15.0565L13.5714 11.8481H13.7959V15.5148H15.8163V9.09814H14.0204C14.0204 9.09814 13.5714 9.14398 13.3469 9.55648L11.7755 12.7648H11.551V9.09814H9.53058Z" fill="#4DB45F"/>
<path d="M16.7142 12.0773V15.5148H18.7346V13.6814H20.5306C21.5183 13.6814 22.3714 12.9939 22.6408 12.0773H16.7142Z" fill="#4DB45F"/>
<defs>
<linearGradient id="paint0_linear_10841_180" x1="16.3434" y1="10.4731" x2="22.7754" y2="10.4731" gradientUnits="userSpaceOnUse">
<stop stop-color="#00B4E6"/>
<stop offset="1" stop-color="#088CCB"/>
</linearGradient>
</defs>
</svg>
