<svg width="24" height="24" viewBox="0 0 24 24" fill="none" xmlns="http://www.w3.org/2000/svg">
<path d="M5.31978 4.90186H10.8081C11.5742 4.90186 12.0589 5.53822 11.8713 6.31776L9.30699 17.4859C9.13499 18.2655 8.36882 18.9019 7.60265 18.9019H2.09874C1.33257 18.9019 0.863491 18.2655 1.03549 17.4859L3.59981 6.31776C3.77181 5.53822 4.53798 4.90186 5.31978 4.90186Z" fill="#ED171F"/>
<path d="M10.3387 4.90186H16.6557C17.4219 4.90186 17.0779 5.53822 16.8903 6.31776L14.3416 17.4859C14.1696 18.2655 14.2165 18.9019 13.4503 18.9019H7.13332C6.36715 18.9019 5.88243 18.2655 6.07007 17.4859L8.63439 6.31776C8.80639 5.53822 9.57256 4.90186 10.3387 4.90186Z" fill="#082F67"/>
<path d="M16.4056 4.90186H21.8939C22.6601 4.90186 23.1448 5.53822 22.9571 6.31776L20.4085 17.4859C20.2365 18.2655 19.4547 18.9019 18.6885 18.9019H13.2002C12.434 18.9019 11.9493 18.2655 12.137 17.4859L14.6856 6.31776C14.8733 5.53822 15.6395 4.90186 16.4056 4.90186Z" fill="#006A65"/>
<path fill-rule="evenodd" clip-rule="evenodd" d="M16.1241 8.46549C15.7333 8.46549 15.342 8.46765 14.9514 8.44958L14.7013 9.57913C14.7013 9.57913 14.1853 11.7269 14.1696 11.8223H14.9983C15.0569 11.4649 15.2485 10.6609 15.2485 10.6609C15.2485 10.6609 15.2798 10.6132 15.3111 10.5973C15.7948 10.5973 16.3117 10.5973 16.7183 10.295C16.9841 10.0882 17.1718 9.78595 17.2499 9.42004C17.2877 9.18949 17.314 8.93856 17.1718 8.73595C16.9841 8.46549 16.5932 8.46549 16.1241 8.46549ZM16.4212 9.51549C16.3743 9.73822 16.2336 9.92913 16.046 10.0246C15.8896 10.1041 15.702 10.1041 15.5143 10.1041H15.3892L15.6406 8.99049H15.7332C15.7332 8.99049 15.957 8.99049 16.218 9.03822C16.3899 9.08595 16.4681 9.27686 16.4212 9.51549Z" fill="white"/>
<path d="M5.55403 10.3586L5.96057 8.46545L6.75801 8.48136C6.75801 8.48136 6.41512 9.81805 6.27329 10.4064C6.14903 10.8626 6.01789 11.3387 5.58531 11.5995C5.33513 11.7586 4.9755 11.8382 4.5846 11.8382C4.28751 11.8382 3.75588 11.7905 3.56825 11.4564C3.38994 11.1389 3.52099 10.743 3.56825 10.4064C3.70104 9.80875 4.00606 8.46545 4.00606 8.46545L4.92859 8.48136C4.92859 8.48136 4.60227 9.77289 4.45951 10.3427C4.41103 10.6979 4.25189 11.2814 4.8035 11.2814C5.31766 11.2814 5.46451 10.7776 5.55403 10.3586Z" fill="white"/>
<path d="M11.6208 12.9201H12.3401L12.215 13.3655H11.2299C11.0723 13.503 10.8805 13.6042 10.667 13.6042H10.3543L10.4794 13.1746C10.5387 13.1746 10.7005 13.202 10.7296 13.1428C10.7609 13.1269 10.7921 13.0792 10.839 12.9996L11.0267 12.6655H11.7459L11.6208 12.9201Z" fill="white"/>
<path fill-rule="evenodd" clip-rule="evenodd" d="M16.6401 15.4019L17.3124 13.1428H17.547L17.6028 12.9598L17.6096 13.1746C17.5939 13.3337 17.719 13.4769 18.0474 13.445H18.407L18.5321 13.0155C18.4691 13.0155 18.2819 13.048 18.2819 12.9519V12.6814H17.5939L17.594 12.6833C17.3498 12.6887 16.7038 12.7065 16.5775 12.745C16.4055 12.7928 16.2335 12.92 16.2335 12.92L16.2961 12.6814H15.6394L14.8263 15.4337H14.7012L14.5761 15.8632H15.8739L15.827 16.0064H16.4681L16.515 15.8632H16.6864L16.6401 16.0223H17.1404C17.3906 16.0223 17.5313 15.911 17.6408 15.7519L17.9848 15.2746L18.063 15.7678C18.123 16.0732 18.5484 16.0064 18.7666 16.0064L18.9073 15.5292C18.7544 15.5292 18.6743 15.5496 18.6259 15.4019L18.5477 14.9087H18.235L18.3757 14.7496H19.1262L19.2357 14.3678H18.532L18.6415 14.0178H19.3295L19.4546 13.5883H17.375L17.2499 14.0178H18.0004L17.891 14.3678H17.1404L17.031 14.7496H17.6877L17.203 15.4814C17.0815 15.6051 16.9283 15.5928 16.7695 15.5928L16.8277 15.4019H16.6401ZM15.9834 13.7155L16.1554 13.1587H16.6714L16.5463 13.5723C16.3452 13.5723 16.1663 13.6379 15.9834 13.7155ZM15.7332 14.6064L15.9052 14.0178H16.4212L16.2961 14.4314C16.0922 14.4521 15.9175 14.5198 15.7332 14.6064ZM16.0146 15.4019H15.483L15.655 14.8928H16.171L16.0146 15.4019Z" fill="white"/>
<path d="M12.1994 13.6837H10.4482L10.3387 14.1292H10.7296L10.6202 14.4951H10.2137L10.0886 14.9405H10.4795L10.2449 15.7201C10.1783 15.9234 10.4455 16.0383 10.6046 16.0383H11.4176L11.5584 15.5451C11.5048 15.5522 10.9307 15.6496 10.9642 15.5133L11.1362 14.9246H11.8554L11.9805 14.4792H11.2613L11.3707 14.1133H12.0744L12.1994 13.6837Z" fill="white"/>
<path fill-rule="evenodd" clip-rule="evenodd" d="M13.2626 12.6814H12.6528L11.8085 15.6087C11.7648 15.7641 11.6966 15.8828 11.8554 15.9905C11.9023 16.0223 12.0586 16.0223 12.0586 16.0223C12.0586 16.0223 12.6052 16.0382 12.8561 16.0382L12.9968 15.545L12.5746 15.5928C12.448 15.5928 12.4698 15.4674 12.4964 15.3859L12.7623 14.4791C12.7623 14.4791 13.2783 14.4791 13.7161 14.4791C14.1539 14.4792 14.4097 14.3505 14.5761 13.8428L14.92 12.6973H13.935C13.6452 12.7439 13.3967 12.8063 13.1688 12.9996L13.2626 12.6814ZM12.9499 13.8428H13.9506L13.8724 14.0496C13.8724 14.0496 13.0486 14.0496 12.8874 14.0496L12.9499 13.8428ZM12.9968 13.6519L13.1375 13.1587H14.1539L14.0757 13.3973C13.6984 13.3973 13.3022 13.389 12.9968 13.6519Z" fill="white"/>
<path d="M14.4354 14.5269C14.3992 14.6833 14.3817 14.8838 14.2634 15.0041C14.1033 15.1671 13.8018 15.1217 13.5911 15.1314V15.4337C13.5911 15.5521 13.6816 15.5609 13.7787 15.5609L14.1071 15.545L13.982 15.9905H13.6067C13.3409 15.9905 13.1533 15.9905 13.0907 15.9269C13.0282 15.895 13.0125 15.8314 13.0282 15.7519L13.0594 14.5428H13.6536L13.638 14.7973H13.7787C13.9429 14.7973 13.9543 14.659 13.9976 14.5269H14.4354Z" fill="white"/>
<path d="M8.24354 11.8223C7.96209 11.8223 7.86828 11.8223 7.55555 11.8382L7.53992 11.8223C7.64103 11.4108 7.78368 10.9958 7.80673 10.571C7.81866 10.351 7.59682 10.4013 7.46174 10.47C7.36472 10.9142 7.28874 11.365 7.18029 11.8063L7.14901 11.8382C6.86757 11.8382 6.77375 11.8382 6.44539 11.8541L6.42975 11.8223C6.59736 11.2254 6.72887 10.5925 6.78938 9.9768L6.82066 9.96089C7.13338 9.91316 7.21156 9.91316 7.55555 9.83362L7.58683 9.86544L7.53992 10.0563C7.73576 9.95672 7.92052 9.84953 8.14973 9.84953C8.30609 9.84953 8.46245 9.89725 8.54063 10.0723C8.59773 10.2175 8.5636 10.3893 8.49772 10.7208C8.41508 11.081 8.33459 11.4414 8.27481 11.8063L8.24354 11.8223Z" fill="white"/>
<path d="M9.35364 11.8224V11.7746C9.46361 11.2711 9.55872 10.765 9.682 10.2633V10.2314C9.42727 10.2786 9.17031 10.3116 8.91583 10.3587L8.88456 10.3905C8.82484 10.8766 8.72563 11.3379 8.58747 11.8064L8.61874 11.8383C8.86255 11.8135 9.10893 11.8224 9.35364 11.8224Z" fill="white"/>
<path fill-rule="evenodd" clip-rule="evenodd" d="M11.8398 10.8678C11.9337 10.4382 11.8555 10.2314 11.7617 10.1042C11.6209 9.91325 11.3708 9.84961 11.1049 9.84961C10.9486 9.84961 10.5733 9.86552 10.2762 10.136C10.073 10.3269 9.9635 10.6132 9.90096 10.8678C9.83841 11.1382 9.77587 11.6155 10.198 11.7905C10.3388 11.8542 10.5264 11.8701 10.6515 11.8701C10.9642 11.8701 11.2926 11.7746 11.5271 11.5201C11.7304 11.3132 11.8086 10.9951 11.8398 10.8678ZM11.1206 10.836C11.0792 11.0089 11.0154 11.4405 10.7609 11.4405C10.5224 11.4405 10.6132 11.0518 10.6515 10.9155C10.7297 10.5814 10.8079 10.311 11.0268 10.311C11.1831 10.2951 11.1988 10.5019 11.1206 10.836Z" fill="white"/>
<path fill-rule="evenodd" clip-rule="evenodd" d="M18.5946 11.8541L18.6571 11.8382C18.7634 11.1895 18.9157 10.553 19.0637 9.91317L19.048 9.88135C18.704 9.94498 18.6102 9.96089 18.2819 10.0086L18.2506 10.0245C18.2454 10.064 18.2402 10.1018 18.2348 10.1393C18.0077 9.7008 17.4698 9.91227 17.1874 10.1837C16.9841 10.3746 16.8746 10.645 16.8121 10.9155C16.6893 11.4152 16.921 11.9596 17.5001 11.8859C17.6361 11.8761 17.7616 11.8062 17.877 11.7066C17.8658 11.7507 17.8548 11.7946 17.8441 11.8382L17.8597 11.87C18.1724 11.8541 18.2663 11.8541 18.5946 11.8541ZM17.9223 10.3428C18.0941 10.3428 18.1567 10.5334 18.0944 10.8671C18.0365 11.1027 17.9682 11.4564 17.6564 11.4564C17.4179 11.4564 17.5087 11.0677 17.547 10.9314C17.6252 10.6132 17.7033 10.3428 17.9223 10.3428Z" fill="white"/>
<path d="M13.0437 11.8382C13.3564 11.8223 13.4503 11.8223 13.7317 11.8223L13.7473 11.8063C13.8071 11.4414 13.8876 11.0811 13.9703 10.7208C14.0361 10.3893 14.0703 10.2175 14.0132 10.0723C13.935 9.89725 13.7786 9.84953 13.6223 9.84953C13.3931 9.84953 13.2083 9.95672 13.0125 10.0563L13.0594 9.86544L13.0281 9.83362C12.6841 9.91316 12.6059 9.91317 12.2932 9.96089L12.2619 9.9768C12.2014 10.5925 12.0699 11.2254 11.9023 11.8223L11.9179 11.8541C12.2463 11.8382 12.3401 11.8382 12.6216 11.8382L12.6528 11.8063C12.7614 11.3645 12.8372 10.9145 12.9343 10.47C13.0694 10.4013 13.2912 10.351 13.2793 10.571C13.2564 10.9917 13.1285 11.4138 13.0281 11.8223L13.0437 11.8382Z" fill="white"/>
<path d="M21.284 9.84961L21.3153 9.88143C20.694 10.9712 20.0957 12.073 19.4702 13.1586C19.392 13.3177 19.22 13.445 18.9699 13.445H18.5477L18.6728 13.0154C18.7175 13.0154 18.8115 13.0334 18.8448 12.9995C18.9306 12.9995 19.0391 12.7567 19.0793 12.6973C19.2826 12.3632 19.3451 12.22 19.564 11.8542C19.4952 11.2446 19.4653 10.6236 19.3295 10.0246V9.99279L19.3607 9.97688C19.6891 9.92916 19.6891 9.91324 20.0487 9.84961L20.08 9.88143L20.1269 10.8678C20.3302 10.4383 20.3145 10.5655 20.5491 10.0087L20.5647 9.97688C20.8774 9.92915 20.94 9.91325 21.284 9.84961Z" fill="white"/>
<path d="M9.66644 10.1041C9.85407 9.97684 9.86971 9.80184 9.71334 9.70638C9.55698 9.61093 9.29117 9.64274 9.10354 9.77002C8.9159 9.89729 8.90027 10.0723 9.05663 10.1677C9.21299 10.2632 9.4788 10.2314 9.66644 10.1041Z" fill="white"/>
</svg>
