<svg width="24" height="24" viewBox="0 0 24 24" fill="none" xmlns="http://www.w3.org/2000/svg">
<circle cx="12" cy="12" r="12" fill="#22A2E6"/>
<path d="M18.6667 7.9294C18.1709 8.14355 17.6425 8.2855 17.0917 8.35442C17.6584 8.02129 18.0909 7.49781 18.2942 6.86683C17.7659 7.17698 17.1825 7.39606 16.5609 7.51832C16.0592 6.99237 15.3442 6.66663 14.5642 6.66663C13.0509 6.66663 11.8325 7.87606 11.8325 9.35873C11.8325 9.57206 11.8509 9.77719 11.8959 9.97247C9.62337 9.86334 7.61254 8.79093 6.26171 7.15729C6.02587 7.56016 5.88754 8.02129 5.88754 8.5177C5.88754 9.44981 6.37504 10.2761 7.10171 10.7544C6.66254 10.7462 6.23171 10.6207 5.86671 10.4229C5.86671 11.5631 6.7245 12.8287 8.05671 13.097C7.66683 13.2019 7.21937 13.226 6.82254 13.1397C7.17671 14.2055 8.18171 14.9891 9.37671 15.0145C8.24318 15.8876 6.75591 16.3047 5.33337 16.1255C6.54421 16.8943 7.97921 17.3333 9.52671 17.3333C13.8569 17.3333 17.5212 13.7155 17.2967 9.32673C17.8392 8.94765 18.295 8.47422 18.6667 7.9294Z" fill="white"/>
</svg>
