<svg width="24" height="25" viewBox="0 0 24 25" fill="none" xmlns="http://www.w3.org/2000/svg">
<path d="M19.4351 19.6361C19.591 19.5123 19.7436 19.3835 19.8926 19.2496C19.9004 19.2437 18.7923 16.5724 17.7167 13.9794C16.7028 11.5353 15.7178 9.16067 15.7234 9.15325C21.574 4.51781 20.8976 3.84523 20.8976 3.84523C18.7528 1.55204 15.8025 0.17961 12.6669 0.0164136C9.53124 -0.146783 6.45443 0.911963 4.08316 2.97011C3.34308 3.61214 2.72099 4.33879 2.21614 5.12431C0.934532 7.00722 0.201962 9.2302 0.130733 11.5412C0.0332842 14.7029 1.18145 17.7763 3.32796 20.0997C5.47447 22.4231 8.4476 23.8105 11.6071 23.9632C14.7666 24.1159 17.8596 23.0216 20.2201 20.916L20.2927 20.8472L20.4647 20.6905L19.4351 19.6361Z" fill="url(#paint0_linear_6707_7915)"/>
<path d="M15.5428 9.29688C13.7123 10.7987 11.4615 12.5681 8.84375 14.5514C10.7884 16.6544 13.05 18.4402 15.5466 19.8441C17.6904 20.9906 19.3681 21.2046 20.1897 20.4785C21.0113 19.7524 20.9119 18.0786 19.9566 15.8927C18.8254 13.4846 17.3374 11.261 15.5428 9.29688Z" fill="url(#paint1_linear_6707_7915)"/>
<path d="M15.7067 9.14844L14.7895 9.91273C16.4688 11.7588 17.8649 13.8438 18.932 16.0997C19.8683 18.255 19.8453 19.3365 19.5434 19.6078C19.2415 19.8791 17.9384 19.9479 15.8557 18.8435C13.5486 17.5351 11.462 15.8715 9.67259 13.9138L8.64844 14.6781L8.88919 14.9112C13.2266 19.3938 17.9193 21.9465 19.9829 21.0179C20.0441 20.9873 20.1052 20.9568 20.1625 20.9224H20.1854C20.2653 20.8729 20.3407 20.8166 20.4109 20.7542C20.4853 20.6869 20.5531 20.6127 20.6135 20.5326C21.9624 18.7633 19.9141 13.9979 15.8328 9.32805L15.7067 9.14844Z" fill="#84EEB1"/>
<defs>
<linearGradient id="paint0_linear_6707_7915" x1="15" y1="1" x2="7" y2="24" gradientUnits="userSpaceOnUse">
<stop stop-color="#4AFB70"/>
<stop offset="1" stop-color="#0D933A"/>
</linearGradient>
<linearGradient id="paint1_linear_6707_7915" x1="16.5211" y1="28.9965" x2="12.05" y2="-3.06558" gradientUnits="userSpaceOnUse">
<stop offset="0.1" stop-color="#FF8475"/>
<stop offset="0.37" stop-color="#E84E43"/>
<stop offset="0.6" stop-color="#D6261F"/>
<stop offset="0.79" stop-color="#CC0E08"/>
<stop offset="0.9" stop-color="#C80500"/>
</linearGradient>
</defs>
</svg>
