<svg width="24" height="24" viewBox="0 0 24 24" fill="none" xmlns="http://www.w3.org/2000/svg">
<path d="M14.9747 6.45593H9.02576V17.1632H14.9747V6.45593Z" fill="#6C6BBD"/>
<path d="M9.40345 11.8095C9.40251 10.7783 9.63581 9.76044 10.0857 8.83291C10.5356 7.90538 11.1903 7.09253 12.0002 6.45588C10.9972 5.66628 9.7927 5.17525 8.52429 5.03889C7.25587 4.90254 5.97475 5.12636 4.82734 5.68479C3.67993 6.24322 2.71254 7.11372 2.03573 8.19679C1.35892 9.27986 1 10.5318 1 11.8095C1 13.0872 1.35892 14.3392 2.03573 15.4222C2.71254 16.5053 3.67993 17.3758 4.82734 17.9343C5.97475 18.4927 7.25587 18.7165 8.52429 18.5801C9.7927 18.4438 10.9972 17.9528 12.0002 17.1632C11.1903 16.5265 10.5356 15.7136 10.0857 14.7861C9.63582 13.8586 9.40252 12.8407 9.40345 11.8095Z" fill="#EB001B"/>
<path d="M23 11.8095C23 13.0872 22.6411 14.3392 21.9643 15.4222C21.2876 16.5053 20.3202 17.3758 19.1728 17.9342C18.0254 18.4927 16.7443 18.7165 15.4759 18.5802C14.2075 18.4438 13.003 17.9528 12.0001 17.1632C12.8093 16.5259 13.4635 15.7129 13.9133 14.7855C14.3631 13.8581 14.5968 12.8405 14.5968 11.8095C14.5968 10.7785 14.3631 9.76093 13.9133 8.83355C13.4635 7.90616 12.8093 7.09318 12.0001 6.45588C13.003 5.66629 14.2075 5.17524 15.4759 5.03889C16.7443 4.90254 18.0254 5.12637 19.1728 5.6848C20.3202 6.24324 21.2876 7.11374 21.9643 8.19682C22.6411 9.27989 23 10.5318 23 11.8095Z" fill="#0099DF"/>
</svg>
