<svg width="24" height="25" viewBox="0 0 24 25" fill="none" xmlns="http://www.w3.org/2000/svg">
<circle cx="12" cy="12.0981" r="12" fill="#E46734"/>
<path d="M12.3334 7.89627C13.0701 7.89627 13.7015 8.4457 13.7015 9.19492C13.7015 9.89419 13.0701 10.4936 12.3334 10.4936C11.5966 10.4936 10.9652 9.89419 10.9652 9.19492C10.9652 8.49565 11.5966 7.89627 12.3334 7.89627ZM12.3334 12.2917C14.1225 12.2917 15.596 10.8932 15.596 9.19492C15.596 7.49669 14.1225 6.09814 12.3334 6.09814C10.5442 6.09814 9.07075 7.49669 9.07075 9.19492C9.01813 10.8932 10.4916 12.2917 12.3334 12.2917ZM13.6489 14.7891C14.333 14.6392 14.9645 14.3895 15.5433 14.0399C16.0169 13.7901 16.1222 13.1908 15.8591 12.7912C15.596 12.3916 14.9645 12.2417 14.5435 12.4915C13.1753 13.2907 11.4914 13.2907 10.1232 12.4915C9.6496 12.2417 9.07075 12.3416 8.80764 12.7912C8.54453 13.1908 8.64977 13.7901 9.12338 14.0399C9.70223 14.3895 10.3863 14.6392 11.0178 14.7891L9.176 16.5373C8.80765 16.8869 8.80765 17.4863 9.176 17.8359C9.38649 18.0357 9.59698 18.0857 9.86009 18.0857C10.1232 18.0857 10.3337 17.9858 10.5442 17.8359L12.3334 16.1377L14.1225 17.8359C14.4909 18.1856 15.1223 18.1856 15.4907 17.8359C15.8591 17.4863 15.8591 16.8869 15.4907 16.5373L13.6489 14.7891Z" fill="white"/>
</svg>
