<svg width="24" height="25" viewBox="0 0 24 25" fill="none" xmlns="http://www.w3.org/2000/svg">
<path d="M24 12.0981C24 18.7256 18.6274 24.0981 12 24.0981C5.37258 24.0981 0 18.7256 0 12.0981C0 5.47073 5.37258 0.0981445 12 0.0981445C18.6274 0.0981445 24 5.47073 24 12.0981Z" fill="#7360F2"/>
<path d="M17.0326 6.46368C16.692 6.14267 15.3154 5.12206 12.2492 5.10819C12.2492 5.10819 8.63345 4.8855 6.87081 6.53679C5.88962 7.53912 5.54446 9.00574 5.50805 10.8241C5.47164 12.6424 5.42453 16.05 8.64065 16.974H8.64374L8.64168 18.3839C8.64168 18.3839 8.62111 18.9547 8.98911 19.071C9.43424 19.2122 9.69548 18.7784 10.1205 18.3107C10.3537 18.054 10.6759 17.6769 10.9186 17.3887C13.1181 17.5777 14.8098 17.1456 15.0019 17.0817C15.446 16.9347 17.9591 16.6059 18.3678 13.1985C18.7897 9.68643 18.1637 7.46496 17.0326 6.46368ZM17.4053 12.9466C17.0604 15.7916 15.0221 15.9704 14.6463 16.0935C14.4864 16.146 13.0007 16.5235 11.1323 16.3989C11.1323 16.3989 9.74012 18.1143 9.30527 18.5603C9.23739 18.6301 9.15758 18.6582 9.1043 18.6444C9.02943 18.6257 9.00886 18.5351 9.00968 18.4028C9.01091 18.2137 9.02161 16.0599 9.02161 16.0599C6.30102 15.2884 6.45962 12.3882 6.49047 10.8694C6.52133 9.35071 6.80067 8.10657 7.63046 7.26979C9.12137 5.89056 12.1927 6.09666 12.1927 6.09666C14.7864 6.10821 16.0292 6.90591 16.3174 7.17315C17.2743 8.00993 17.7618 10.0123 17.4053 12.9457V12.9466Z" fill="white"/>
<path fill-rule="evenodd" clip-rule="evenodd" d="M12.2922 9.61298C12.3002 9.47515 12.4185 9.36994 12.5563 9.378C12.9068 9.39848 13.2063 9.51894 13.4188 9.76506C13.6266 10.0058 13.7226 10.3341 13.7394 10.7146C13.7455 10.8525 13.6387 10.9693 13.5007 10.9754C13.3628 10.9815 13.246 10.8746 13.2399 10.7367C13.2259 10.4202 13.1484 10.217 13.0403 10.0918C12.9368 9.97191 12.7778 9.8918 12.5272 9.87715C12.3893 9.86909 12.2841 9.75082 12.2922 9.61298Z" fill="white"/>
<path fill-rule="evenodd" clip-rule="evenodd" d="M12.0215 8.78538C12.0318 8.6477 12.1518 8.54446 12.2895 8.55479C13.027 8.61013 13.6278 8.86965 14.0661 9.36006L14.0662 9.36016C14.4981 9.84397 14.7014 10.4445 14.6867 11.1427C14.6838 11.2807 14.5695 11.3903 14.4315 11.3874C14.2934 11.3845 14.1839 11.2702 14.1868 11.1321C14.1992 10.5451 14.0312 10.0718 13.6933 9.69323C13.3581 9.31816 12.8883 9.10112 12.2521 9.05339C12.1144 9.04306 12.0111 8.92307 12.0215 8.78538Z" fill="white"/>
<path fill-rule="evenodd" clip-rule="evenodd" d="M11.6145 7.84157C11.6154 7.7035 11.7281 7.59233 11.8662 7.59327C12.9213 7.6004 13.8178 7.94185 14.5383 8.6236C15.2678 9.31389 15.6263 10.253 15.6353 11.4099C15.6364 11.548 15.5254 11.6608 15.3873 11.6619C15.2492 11.663 15.1364 11.5519 15.1353 11.4138C15.1271 10.3643 14.8063 9.56557 14.1946 8.98678C13.5739 8.39944 12.8024 8.09961 11.8628 8.09326C11.7247 8.09232 11.6136 7.97964 11.6145 7.84157Z" fill="white"/>
<path d="M12.4976 13.1627C12.4976 13.1627 12.7417 13.184 12.8731 13.0167L13.1294 12.6835C13.253 12.5183 13.5514 12.4129 13.8435 12.5811C14.0624 12.7101 14.2749 12.8504 14.4803 13.0014C14.6742 13.1487 15.0712 13.491 15.0724 13.491C15.2615 13.656 15.3052 13.8983 15.1764 14.1537C15.1764 14.1552 15.1754 14.1578 15.1754 14.1591C15.0336 14.4131 14.8535 14.6422 14.642 14.8378C14.6395 14.839 14.6395 14.8403 14.6373 14.8416C14.4535 15.0003 14.273 15.0905 14.0957 15.1122C14.0696 15.1169 14.043 15.1186 14.0165 15.1173C13.9384 15.1181 13.8606 15.1057 13.7862 15.0807L13.7805 15.0719C13.5073 14.9923 13.0511 14.7931 12.2916 14.36C11.852 14.1124 11.4335 13.8268 11.0406 13.5061C10.8437 13.3455 10.6558 13.1734 10.478 12.9905L10.459 12.9709L10.4401 12.9513L10.4211 12.9315C10.4147 12.9252 10.4086 12.9186 10.4022 12.912C10.2252 12.7282 10.0586 12.5341 9.9032 12.3306C9.59298 11.9246 9.31655 11.4922 9.07686 11.0381C8.65782 10.253 8.46499 9.78204 8.38794 9.49932L8.37949 9.49336C8.35534 9.41652 8.34344 9.33614 8.34426 9.25535C8.34282 9.228 8.34441 9.20058 8.349 9.1736C8.37112 8.9908 8.45854 8.80417 8.61126 8.6137C8.6125 8.61136 8.61374 8.61136 8.61497 8.6088C8.80416 8.39023 9.02587 8.20424 9.27176 8.05784C9.27299 8.05784 9.27546 8.05657 9.27691 8.05657C9.52413 7.92351 9.75858 7.96864 9.91803 8.16301C9.91927 8.16429 10.2499 8.57453 10.3919 8.77486C10.538 8.98727 10.6737 9.2071 10.7986 9.43354C10.9613 9.73521 10.8593 10.0441 10.6995 10.1714L10.377 10.4363C10.2143 10.5721 10.2357 10.8244 10.2357 10.8244C10.2357 10.8244 10.7133 12.692 12.4976 13.1627Z" fill="white"/>
</svg>
