<svg width="24" height="25" viewBox="0 0 24 25" fill="none" xmlns="http://www.w3.org/2000/svg">
<path d="M24 12.0981C24 18.7256 18.6274 24.0981 12 24.0981C5.37258 24.0981 0 18.7256 0 12.0981C0 5.47073 5.37258 0.0981445 12 0.0981445C18.6274 0.0981445 24 5.47073 24 12.0981Z" fill="#EE3124"/>
<path fill-rule="evenodd" clip-rule="evenodd" d="M12 3.44444C7.2749 3.44444 3.44444 7.2749 3.44444 12C3.44444 16.7251 7.2749 20.5556 12 20.5556C16.7251 20.5556 20.5556 16.7251 20.5556 12C20.5556 7.2749 16.7251 3.44444 12 3.44444ZM1 12C1 5.92487 5.92487 1 12 1C18.0751 1 23 5.92487 23 12C23 18.0751 18.0751 23 12 23C5.92487 23 1 18.0751 1 12Z" fill="white"/>
<path d="M20.2195 9.61778C19.2973 6.43016 16.571 4.00853 13.2183 3.53055C12.55 3.43528 12 2.89726 12 2.22225C12 1.54723 12.5494 0.992901 13.2204 1.06696C17.8118 1.57373 21.5518 4.90635 22.663 9.28728C22.8117 9.87356 22.4369 10.4486 21.8551 10.614C21.1435 10.8164 20.4251 10.3284 20.2195 9.61778Z" fill="black"/>
</svg>
