<svg width="24" height="25" viewBox="0 0 24 25" fill="none" xmlns="http://www.w3.org/2000/svg">
<path d="M14.9747 6.55408H9.02576V17.2614H14.9747V6.55408Z" fill="#FF5F00"/>
<path d="M9.40345 11.9077C9.40251 10.8765 9.63581 9.85859 10.0857 8.93106C10.5356 8.00353 11.1903 7.19067 12.0002 6.55402C10.9972 5.76443 9.7927 5.27339 8.52429 5.13704C7.25587 5.00068 5.97475 5.2245 4.82734 5.78293C3.67993 6.34136 2.71254 7.21186 2.03573 8.29493C1.35892 9.378 1 10.6299 1 11.9077C1 13.1854 1.35892 14.4373 2.03573 15.5204C2.71254 16.6035 3.67993 17.474 4.82734 18.0324C5.97475 18.5908 7.25587 18.8146 8.52429 18.6783C9.7927 18.5419 10.9972 18.0509 12.0002 17.2613C11.1903 16.6247 10.5356 15.8118 10.0857 14.8843C9.63582 13.9567 9.40252 12.9389 9.40345 11.9077Z" fill="#EB001B"/>
<path d="M23 11.9077C23 13.1854 22.6411 14.4373 21.9643 15.5204C21.2876 16.6034 20.3202 17.474 19.1728 18.0324C18.0254 18.5908 16.7443 18.8147 15.4759 18.6783C14.2075 18.5419 13.003 18.0509 12.0001 17.2613C12.8093 16.624 13.4635 15.811 13.9133 14.8836C14.3631 13.9563 14.5968 12.9387 14.5968 11.9077C14.5968 10.8766 14.3631 9.85907 13.9133 8.93169C13.4635 8.00431 12.8093 7.19132 12.0001 6.55403C13.003 5.76443 14.2075 5.27339 15.4759 5.13703C16.7443 5.00068 18.0254 5.22451 19.1728 5.78295C20.3202 6.34138 21.2876 7.21189 21.9643 8.29496C22.6411 9.37803 23 10.63 23 11.9077Z" fill="#F79E1B"/>
</svg>
