<svg width="24" height="25" viewBox="0 0 24 25" fill="none" xmlns="http://www.w3.org/2000/svg">
<path d="M12.0376 12.0575L20.4678 20.6902L20.2958 20.8468L20.2232 20.9156C17.8627 23.0212 14.7696 24.1155 11.6101 23.9628C8.45065 23.8101 5.47752 22.4227 3.33101 20.0993C1.1845 17.776 0.036336 14.7025 0.133784 11.5408C0.231233 8.37917 1.5665 5.38226 3.85202 3.19548C6.20187 1.04505 9.30434 -0.0929846 12.4873 0.0278979C15.6704 0.148781 18.6776 1.51885 20.8576 3.84131L12.0376 12.0575Z" fill="#01B94F"/>
<path d="M3.85965 3.19175C6.20916 1.0432 9.31046 -0.0933427 12.4919 0.0282508C15.6734 0.149844 18.6789 1.51979 20.8575 3.8414C20.8575 3.8414 13.8451 10.4067 13.7037 10.5213C13.7037 10.5213 12.1331 12.0002 12.1446 12.0232C12.1561 12.0461 20.4525 20.6559 20.4525 20.6559L20.2843 20.8164L20.2117 20.8851C15.2591 25.2416 7.66965 25.0429 3.18707 20.1973C1.03439 17.8467 -0.102717 14.741 0.0232464 11.5561C0.14921 8.3712 1.52805 5.36498 3.85965 3.19175Z" fill="url(#paint0_radial_6707_7915)"/>
<path d="M3.86337 3.18416C6.21475 1.03845 9.31621 -0.0955124 12.4971 0.0274889C15.678 0.15049 18.6826 1.52057 20.8612 3.84145C20.8612 3.84145 14.0361 10.2615 13.7571 10.487C13.7571 10.487 12.2286 11.9468 12.2553 11.9926C12.3126 12.1302 20.4409 20.6177 20.4409 20.6177L20.2727 20.7782L20.2001 20.847C15.259 25.1958 7.66573 24.9818 3.19844 20.1515C1.04898 17.8074 -0.0872089 14.7089 0.0373335 11.5309C0.161876 8.35292 1.53706 5.35287 3.86337 3.18416Z" fill="url(#paint1_radial_6707_7915)"/>
<path d="M3.8711 3.18035C6.22259 1.03746 9.32268 -0.0943886 12.5017 0.0293115C15.6807 0.153012 18.6835 1.52233 20.8613 3.84146C20.8613 3.84146 14.2311 10.1125 13.8031 10.4526C13.8031 10.4526 12.328 11.8895 12.3548 11.9583C12.4427 12.1646 20.4257 20.5833 20.4257 20.5833L20.2537 20.7438L20.1811 20.8088C15.2553 25.1461 7.66582 24.9245 3.20617 20.1056C1.06018 17.7681 -0.0742793 14.6767 0.0502895 11.5059C0.174858 8.33517 1.54834 5.34232 3.8711 3.18035Z" fill="url(#paint2_radial_6707_7915)"/>
<path d="M3.87511 3.17659C6.22689 1.03535 9.32644 -0.0951074 12.5045 0.0292998C15.6826 0.153707 18.6843 1.52299 20.8615 3.84152C20.8615 3.84152 14.4224 9.95588 13.853 10.4183C13.853 10.4183 12.4237 11.836 12.462 11.9278C12.5766 12.2029 20.4106 20.549 20.4106 20.549L20.2425 20.7057C20.2425 20.7057 20.1699 20.7706 20.1699 20.7745C15.2554 25.0965 7.66601 24.8596 3.21782 20.0598C1.07528 17.7294 -0.0581612 14.6459 0.0649895 11.4827C0.18814 8.31942 1.55788 5.33339 3.87511 3.17659Z" fill="url(#paint3_radial_6707_7915)"/>
<path d="M3.88261 3.16883C6.23498 1.03088 9.33343 -0.0967865 12.5097 0.0290343C15.686 0.154855 18.6855 1.52408 20.8614 3.84141C20.8614 3.84141 14.6171 9.81818 13.9025 10.3838C13.9025 10.3838 12.5191 11.7786 12.565 11.8932C12.7102 12.2372 20.399 20.5106 20.3952 20.5145L20.227 20.6711L20.1544 20.7399C15.2515 25.0429 7.66586 24.8022 3.22914 20.0139C1.0903 17.6894 -0.0415519 14.6129 0.0808932 11.4565C0.203338 8.30017 1.57013 5.32058 3.88261 3.16883Z" fill="url(#paint4_radial_6707_7915)"/>
<path d="M3.88648 3.16507C6.23915 1.02878 9.33706 -0.0975029 12.5124 0.0290247C15.6877 0.155552 18.6862 1.52475 20.8614 3.84147C20.8614 3.84147 14.8082 9.67303 13.9522 10.338C13.9522 10.338 12.6147 11.7099 12.672 11.8474C12.844 12.2602 20.3838 20.461 20.3838 20.461L20.2156 20.6559L20.143 20.7209C15.2477 24.9933 7.66591 24.7449 3.23683 19.9681C1.10193 17.6503 -0.0282404 14.5813 0.0935026 11.4325C0.215246 8.28363 1.57899 5.31113 3.88648 3.16507Z" fill="url(#paint5_radial_6707_7915)"/>
<path d="M3.894 3.1612C6.24696 1.02655 9.34433 -0.0983405 12.5188 0.0288937C15.6932 0.156128 18.6906 1.5253 20.8651 3.84142C20.8651 3.84142 15.003 9.52776 14.0056 10.3379C14.0056 10.3379 12.7101 11.6869 12.7751 11.8474C12.9929 12.3098 20.3722 20.4419 20.3684 20.4419L20.2002 20.5985L20.1276 20.6673C15.2476 24.9436 7.66579 24.6837 3.24818 19.9221C1.11625 17.6114 -0.0128682 14.5499 0.108185 11.4082C0.229237 8.2666 1.59059 5.30102 3.894 3.1612Z" fill="url(#paint6_radial_6707_7915)"/>
<path d="M3.89775 3.15361C6.25149 1.0211 9.34859 -0.101735 12.5221 0.0269205C15.6956 0.155576 18.6917 1.52543 20.8651 3.84148C20.8651 3.84148 15.194 9.37878 14.0552 10.2845C14.0552 10.2845 12.8056 11.6143 12.882 11.8131C13.1113 12.3633 20.3568 20.4228 20.353 20.4228C20.3492 20.4228 20.1963 20.5719 20.1848 20.5795L20.1122 20.6445C15.2437 24.8939 7.66189 24.6264 3.25574 19.8916C1.12185 17.5866 -0.00926138 14.5285 0.111131 11.3897C0.231523 8.25089 1.59356 5.28839 3.89775 3.15361Z" fill="url(#paint7_radial_6707_7915)"/>
<path d="M3.90554 3.14983C6.25937 1.02012 9.3551 -0.100605 12.5268 0.0287492C15.6984 0.158103 18.6926 1.5272 20.8652 3.84151C20.8652 3.84151 15.389 9.2336 14.105 10.2501C14.105 10.2501 12.9013 11.5571 12.9892 11.7787C13.2452 12.3978 20.3417 20.3846 20.3417 20.3885L20.1735 20.5451L20.1009 20.6101C15.2438 24.8596 7.66204 24.5806 3.28646 19.8458C1.15503 17.5494 0.0228892 14.5006 0.138983 11.3696C0.255076 8.2387 1.6099 5.28204 3.90554 3.14983Z" fill="url(#paint8_radial_6707_7915)"/>
<path d="M3.90923 3.14596C6.26335 1.0179 9.35854 -0.101439 12.5293 0.0286211C15.7 0.158681 18.6931 1.52775 20.8651 3.84147C20.8651 3.84147 15.58 9.08452 14.1393 10.2157C14.1393 10.2157 12.9929 11.5035 13.0769 11.7443C13.375 12.4207 20.3301 20.3349 20.3263 20.3387L20.1581 20.4916C20.1581 20.4916 20.0931 20.5527 20.0855 20.5604C15.2399 24.7946 7.66191 24.5041 3.27104 19.7961C2.21962 18.661 1.4021 17.3298 0.865141 15.8787C0.328185 14.4276 0.0823181 12.885 0.14158 11.3388C0.200841 9.79272 0.564071 8.27341 1.21053 6.86767C1.85698 5.46193 2.774 4.19729 3.90923 3.14596Z" fill="url(#paint9_radial_6707_7915)"/>
<path d="M3.91711 3.13823C6.27182 1.01345 9.36591 -0.103105 12.5348 0.028367C15.7037 0.159839 18.6947 1.52886 20.8653 3.84138C20.8653 3.84138 15.7751 8.93922 14.2045 10.1812C14.2045 10.1812 13.0925 11.4499 13.1995 11.7098C13.5128 12.4741 20.315 20.3119 20.315 20.3157L20.1469 20.4686L20.0743 20.5336C15.2363 24.7448 7.66215 24.4467 3.28657 19.7425C1.16871 17.4568 0.0453795 14.4236 0.163624 11.3098C0.281869 8.19602 1.632 5.2567 3.91711 3.13823Z" fill="url(#paint10_radial_6707_7915)"/>
<path d="M3.9208 3.13459C6.27643 1.01122 9.37061 -0.104058 12.5392 0.0281175C15.7079 0.160293 18.6984 1.52939 20.869 3.84156C20.869 3.84156 15.9661 8.80947 14.254 10.1508C14.254 10.1508 13.1917 11.3928 13.3025 11.6794C13.6464 12.4934 20.3034 20.2739 20.2996 20.2739L20.1315 20.4306L20.0589 20.4955C15.2362 24.6991 7.66202 24.3934 3.2979 19.7045C2.2498 18.5761 1.43442 17.2522 0.898423 15.8084C0.362423 14.3646 0.116311 12.8294 0.174164 11.2904C0.232017 9.75143 0.5927 8.23897 1.23558 6.83952C1.87847 5.44007 2.79094 4.18109 3.9208 3.13459Z" fill="url(#paint11_radial_6707_7915)"/>
<path d="M3.92842 3.13057C6.28414 1.01001 9.37694 -0.103166 12.5437 0.029706C15.7105 0.162578 18.6992 1.53092 20.869 3.84136C20.869 3.84136 16.1609 8.64495 14.3037 10.1162C14.3037 10.1162 13.2872 11.3391 13.4095 11.6448C13.7916 12.539 20.2881 20.2393 20.2881 20.2431L20.12 20.3998C20.12 20.3998 20.055 20.4571 20.0512 20.4648C15.2361 24.6684 7.66581 24.3359 3.30934 19.6622C-1.04714 14.9886 -0.829312 7.44501 3.92842 3.13057Z" fill="url(#paint12_radial_6707_7915)"/>
<path d="M3.93217 3.12301C6.28866 1.00457 9.38119 -0.106549 12.5471 0.0277438C15.7129 0.162036 18.7003 1.53106 20.8689 3.84144C20.8689 3.84144 16.3519 8.49217 14.3724 10.0743C14.3724 10.0743 13.3979 11.2742 13.5317 11.6028C13.9329 12.5659 20.288 20.1935 20.288 20.1973L20.1199 20.3502L20.0473 20.4151C15.2284 24.592 7.64281 24.2672 3.31691 19.605C-1.00899 14.9428 -0.814091 7.42598 3.93217 3.12301Z" fill="url(#paint13_radial_6707_7915)"/>
<path d="M3.93988 3.11912C6.29645 1.00349 9.38761 -0.105533 12.5517 0.0294567C15.7157 0.164446 18.7012 1.53272 20.869 3.84138C20.869 3.84138 16.5469 8.35071 14.4069 10.0474C14.4069 10.0474 13.4783 11.2283 13.6197 11.576C14.0515 12.604 20.2537 20.159 20.2537 20.1629L20.0856 20.3157L20.013 20.3807C15.2285 24.5423 7.64288 24.206 3.32462 19.5591C-0.993637 14.9122 -0.798742 7.40681 3.93988 3.11912Z" fill="url(#paint14_radial_6707_7915)"/>
<path d="M3.9436 3.11539C6.30046 1.0014 9.39108 -0.106238 12.5542 0.0294565C15.7173 0.165151 18.7017 1.5334 20.8689 3.84147C20.8689 3.84147 16.7379 8.20558 14.4565 10.0131C14.4565 10.0131 13.5737 11.1596 13.7266 11.5417C14.1851 12.6308 20.2536 20.1247 20.2536 20.1286L20.0893 20.2814L20.0167 20.3464C15.2246 24.4774 7.64278 24.1487 3.33599 19.5095C-0.970805 14.8702 -0.787374 7.39161 3.9436 3.11539Z" fill="url(#paint15_radial_6707_7915)"/>
<path d="M3.95139 3.10775C6.30988 0.99772 9.39983 -0.106653 12.5615 0.0304367C15.7231 0.167526 18.7058 1.53521 20.8728 3.84147C20.8728 3.84147 16.9329 8.04508 14.5216 9.97875C14.5216 9.97875 13.6847 11.1252 13.8452 11.5073C14.319 12.6767 20.2538 20.0865 20.2308 20.0904L20.0627 20.2432C20.0403 20.2668 20.016 20.2886 19.9901 20.3082C15.2247 24.443 7.64292 24.0952 3.3476 19.4675C-0.947728 14.8397 -0.764298 7.3725 3.95139 3.10775Z" fill="url(#paint16_radial_6707_7915)"/>
<path d="M3.95531 3.10389C6.31662 0.997034 9.40843 -0.102509 12.5698 0.0403132C15.7312 0.183135 18.7112 1.55699 20.8729 3.86818C20.8729 3.86818 17.1241 7.9113 14.5561 9.95578C14.5561 9.95578 13.765 11.0716 13.937 11.4844C14.4529 12.7263 20.2195 20.0674 20.2156 20.0712C20.2118 20.075 20.0743 20.205 20.0475 20.2241L19.9787 20.289C15.221 24.3933 7.64302 24.0264 3.35534 19.4216C-0.932345 14.8167 -0.764201 7.35336 3.95531 3.10389Z" fill="url(#paint17_radial_6707_7915)"/>
<path d="M3.96276 3.09998C6.32324 0.994518 9.41359 -0.104205 12.5734 0.0386115C15.7332 0.181428 18.7118 1.55445 20.8728 3.86427C20.8728 3.86427 17.3188 7.77363 14.6056 9.92512C14.6056 9.92512 13.8604 11.0181 14.04 11.4537C14.5864 12.7645 20.2078 20.0329 20.2002 20.0367L20.0359 20.1896L19.9633 20.2545C15.217 24.3435 7.64284 23.969 3.36661 19.3756C-0.909609 14.7822 -0.745286 7.33416 3.96276 3.09998Z" fill="url(#paint18_radial_6707_7915)"/>
<path d="M3.96658 3.07708C6.32727 0.973697 9.41658 -0.123704 12.5752 0.0190897C15.7338 0.161883 18.7115 1.53356 20.8727 3.84137C20.8727 3.84137 17.5098 7.60552 14.659 9.86783C14.659 9.86783 13.9559 10.9378 14.147 11.3964C14.7202 12.776 20.1925 19.9756 20.1887 19.9794L20.0206 20.1323L19.9479 20.1934C15.217 24.2939 7.64283 23.9079 3.37425 19.3336C-0.894328 14.7593 -0.730005 7.31509 3.96658 3.07708Z" fill="url(#paint19_radial_6707_7915)"/>
<path d="M3.97421 3.07708C6.33407 0.975088 9.42192 -0.121494 12.579 0.0212942C15.736 0.164082 18.7123 1.53493 20.8727 3.84137C18.9729 5.99558 16.9123 8.00251 14.7087 9.8449C14.7087 9.8449 14.0514 10.8958 14.254 11.3735C14.8539 12.8218 20.1772 19.945 20.1734 19.9527L20.0091 20.1017L19.9365 20.1667C15.2131 24.2442 7.64282 23.8506 3.3857 19.2877C-0.871412 14.7249 -0.718553 7.28069 3.97421 3.07708Z" fill="url(#paint20_radial_6707_7915)"/>
<path d="M3.97803 3.07715C6.33831 0.976084 9.42597 -0.11989 12.5827 0.022885C15.7395 0.16566 18.7156 1.53589 20.8766 3.84145C19.0033 5.98977 16.9584 7.98222 14.7622 9.79911C14.7622 9.79911 14.1546 10.8271 14.3801 11.3277C15.0106 12.8563 20.1887 19.8992 20.1811 19.9031L20.0167 20.0559L19.9441 20.1209C15.2131 24.1908 7.64281 23.7895 3.39334 19.242C-0.856132 14.6944 -0.703273 7.28077 3.97803 3.07715Z" fill="url(#paint21_radial_6707_7915)"/>
<path d="M3.98566 3.07707C6.34597 0.979229 9.43175 -0.114716 12.5864 0.028027C15.741 0.17077 18.7154 1.53893 20.8766 3.84136C19.0327 5.99123 17.0019 7.97341 14.8081 9.76464C14.8081 9.76464 14.2463 10.7735 14.4641 11.2932C15.1214 12.8944 20.1505 19.8915 20.1467 19.8915C20.1428 19.8915 20.0129 20.0176 19.9785 20.0444L19.9097 20.1055C15.2093 24.141 7.64281 23.713 3.4048 19.196C-0.833211 14.6791 -0.691816 7.28069 3.98566 3.07707Z" fill="url(#paint22_radial_6707_7915)"/>
<path d="M3.9895 3.07717C6.3496 0.980485 9.43456 -0.112747 12.5882 0.0299857C15.7419 0.172719 18.7155 1.54016 20.8766 3.84146C19.0626 5.99523 17.0472 7.97097 14.8578 9.74181C14.8578 9.74181 14.3419 10.7277 14.5673 11.2704C15.259 12.9251 20.139 19.8381 20.1314 19.8419L19.9671 19.991L19.8945 20.056C15.2055 24.0952 7.64283 23.6711 3.41628 19.1503C-0.810259 14.6295 -0.676508 7.24257 3.9895 3.07717Z" fill="url(#paint23_radial_6707_7915)"/>
<path d="M3.99346 3.07715C6.35335 0.98162 9.43747 -0.110901 12.5902 0.0318224C15.743 0.174546 18.7158 1.54126 20.8767 3.84144C19.0937 5.99899 17.092 7.96607 14.9038 9.71122C14.9038 9.71122 14.4337 10.6742 14.6706 11.2398C15.3891 12.9633 20.1201 19.7999 20.1162 19.8075L19.9481 19.9566L19.8755 20.0215C15.2056 24.0417 7.64296 23.6099 3.43934 19.1044C-0.764272 14.5989 -0.661093 7.22344 3.99346 3.07715Z" fill="url(#paint24_radial_6707_7915)"/>
<path d="M4.001 3.07723C6.36048 0.984012 9.44294 -0.107087 12.5939 0.0356177C15.7448 0.178323 18.716 1.54359 20.8766 3.84153C19.127 5.99981 17.143 7.95695 14.961 9.6769C14.961 9.6769 14.533 10.6208 14.7814 11.2055C15.5457 12.9978 20.1314 19.7656 20.1047 19.7732L19.9404 19.9223L19.8677 19.9834C15.2017 23.9921 7.64286 23.5488 3.43925 19.0586C-0.764372 14.5684 -0.649728 7.20442 4.001 3.07723Z" fill="url(#paint25_radial_6707_7915)"/>
<path d="M4.00476 3.07718C6.36445 0.98603 9.44588 -0.103759 12.5956 0.0389231C15.7453 0.181606 18.7156 1.54554 20.8765 3.84148C19.1621 6.00444 17.1925 7.95224 15.0106 9.64247C15.0106 9.64247 14.6284 10.5634 14.8845 11.1711C15.6488 13.0321 20.097 19.7273 20.0893 19.7311C20.0817 19.735 19.9632 19.8496 19.925 19.8802L19.8524 19.9452C15.2017 23.9424 7.6428 23.4915 3.43918 19.0127C-0.764438 14.534 -0.634509 7.18526 4.00476 3.07718Z" fill="url(#paint26_radial_6707_7915)"/>
<path d="M4.01243 3.0543C6.37481 0.967195 9.45712 -0.117891 12.606 0.0290648C15.7548 0.176021 18.7227 1.54347 20.8804 3.84153C20.8804 3.84153 19.0537 6.44012 15.0603 9.60812C15.0603 9.60812 14.724 10.51 14.9915 11.1367C15.794 13.0474 20.0817 19.693 20.0779 19.6968L19.9097 19.8458L19.8409 19.9108C15.1979 23.8928 7.64282 23.4304 3.43921 18.9669C-0.764399 14.5034 -0.623005 7.1662 4.01243 3.0543Z" fill="url(#paint27_radial_6707_7915)"/>
<path d="M4.01629 3.04653C6.37984 0.962443 9.46169 -0.120005 12.6093 0.0283556C15.757 0.176716 18.7234 1.54424 20.8804 3.84139C20.8804 3.84139 19.2487 6.27949 15.11 9.5736C14.9558 10.0715 14.9558 10.6043 15.11 11.1022C15.9431 13.1008 20.0779 19.6508 20.0779 19.6585L19.9136 19.8075L19.841 19.8686C15.1941 23.843 7.64286 23.3729 3.466 18.9247C-0.710865 14.4765 -0.607685 7.15078 4.01629 3.04653Z" fill="url(#paint28_radial_6707_7915)"/>
<path d="M4.02399 3.04288C6.38677 0.959753 9.46764 -0.121813 12.614 0.0272681C15.7605 0.17635 18.7253 1.54437 20.8805 3.84156C20.8805 3.84156 19.4398 6.13444 15.1483 9.52409C15.0133 10.0269 15.0279 10.5581 15.1903 11.0527C16.0502 13.1468 20.0551 19.628 20.0474 19.6357L19.8831 19.7847L19.8143 19.8459C15.1941 23.7934 7.64293 23.331 3.4737 18.879C-0.695519 14.427 -0.592339 7.13185 4.02399 3.04288Z" fill="url(#paint29_radial_6707_7915)"/>
<path d="M4.02787 3.03894C6.39091 0.957445 9.47124 -0.122747 12.6167 0.0270383C15.7622 0.176824 18.726 1.54483 20.8805 3.84144C20.8805 3.84144 19.6347 6.00057 15.2095 9.50868C15.103 10.0175 15.136 10.5456 15.305 11.0373C16.1954 13.1735 20.0436 19.5821 20.036 19.5897L19.8717 19.7349L19.7991 19.7999C15.1904 23.7436 7.64298 23.2507 3.48522 18.8331C-0.737499 14.3543 -0.580819 7.11262 4.02787 3.03894Z" fill="url(#paint30_radial_6707_7915)"/>
<path d="M4.03539 3.0314C6.39939 0.954088 9.47842 -0.122763 12.6218 0.0284163C15.7652 0.179596 18.7267 1.54696 20.8804 3.84156C20.8804 3.84156 19.8257 5.84018 15.259 9.45911C15.1802 9.97338 15.2328 10.4992 15.4119 10.9877C16.3291 13.1927 20.0282 19.5325 20.0206 19.5363L19.8563 19.6854L19.7837 19.7465C15.1979 23.6635 7.6505 23.1858 3.49274 18.7606C-0.665019 14.3353 -0.565661 7.09362 4.03539 3.0314Z" fill="url(#paint31_radial_6707_7915)"/>
<path d="M4.03942 3.02746C6.40432 0.951531 9.48344 -0.124058 12.6265 0.0278205C15.7697 0.1797 18.7307 1.54716 20.8844 3.84143C20.8844 3.84143 20.0208 5.69102 15.3127 9.42459C15.2612 9.94324 15.3319 10.4668 15.5191 10.9532C16.463 13.2575 20.0131 19.5094 20.0055 19.5286L19.8412 19.6776L19.7724 19.7387C15.1866 23.6404 7.64306 23.1322 3.50442 18.7451C-0.699196 14.2893 -0.550159 7.07439 4.03942 3.02746Z" fill="url(#paint32_radial_6707_7915)"/>
<path d="M4.0469 3.02366C6.41144 0.949608 9.48938 -0.124503 12.6309 0.0280839C15.7725 0.18067 18.7319 1.54801 20.8843 3.84146C20.8843 3.84146 20.2117 5.56112 15.3623 9.40552C15.3406 9.92764 15.4292 10.4485 15.6221 10.9341C16.5966 13.2919 20.0015 19.4865 19.9939 19.5095L19.8296 19.6547L19.757 19.7158C15.1827 23.5908 7.6429 23.0749 3.51189 18.6955C-0.680261 14.255 -0.538867 7.05531 4.0469 3.02366Z" fill="url(#paint33_radial_6707_7915)"/>
<path d="M4.05089 3.01591C6.41659 0.944877 9.49407 -0.126603 12.6345 0.0273863C15.7748 0.181376 18.7327 1.5488 20.8845 3.84135C20.8845 3.84135 20.4068 5.41197 15.4121 9.37101C15.4203 9.90218 15.5279 10.4271 15.7293 10.9187C16.7343 13.33 19.9864 19.452 19.9788 19.4597L19.8144 19.6049L19.7457 19.666C15.1828 23.541 7.64307 23.0136 3.52353 18.6495C-0.660979 14.2243 -0.523406 7.03609 4.05089 3.01591Z" fill="url(#paint34_radial_6707_7915)"/>
<path d="M4.05832 3.01217C6.42534 0.949277 9.50009 -0.115365 12.6359 0.0421398C15.7718 0.199645 18.7244 1.56702 20.8728 3.85671C20.8728 3.85671 20.5862 5.26684 15.4501 9.3367C15.4945 9.86962 15.6235 10.3921 15.8323 10.8844C16.8679 13.3683 19.9747 19.4177 19.9671 19.4254L19.8028 19.5706C19.7769 19.5889 19.7526 19.6093 19.7302 19.6317C15.1788 23.4914 7.64286 22.9488 3.53478 18.6038C-0.642086 14.19 -0.512156 7.02089 4.05832 3.01217Z" fill="url(#paint35_radial_6707_7915)"/>
<path d="M4.06212 3.0084C6.42921 0.945073 9.50445 -0.119499 12.6406 0.0387333C15.7767 0.196966 18.7292 1.56566 20.8766 3.85676C20.8766 3.85676 20.7849 5.12167 15.5036 9.30235C15.5786 9.83585 15.7225 10.3574 15.9316 10.8539C17.0016 13.3951 19.9594 19.3796 19.9518 19.3872L19.7875 19.5324C19.7645 19.5324 19.7378 19.5783 19.7149 19.5936C15.175 23.4418 7.64284 22.8953 3.5424 18.558C-0.623 14.1594 -0.496892 7.00183 4.06212 3.0084Z" fill="url(#paint36_radial_6707_7915)"/>
<path d="M4.06966 3.00066C6.43853 0.940109 9.51392 -0.121951 12.6495 0.0376788C15.7851 0.197309 18.7367 1.5662 20.8841 3.85667C20.8841 3.85667 20.9835 4.98782 15.5608 9.27169C15.6719 9.8026 15.8357 10.3211 16.05 10.8194C17.1391 13.4409 19.9517 19.3451 19.9402 19.3527C19.9287 19.3604 19.8294 19.4559 19.7759 19.4979L19.7071 19.5591C15.1787 23.3997 7.64273 22.8341 3.55376 18.512C-0.607819 14.1249 -0.481711 6.98263 4.06966 3.00066Z" fill="url(#paint37_radial_6707_7915)"/>
<path d="M4.07361 2.99688C6.44303 0.93638 9.5192 -0.124947 12.6551 0.0361239C15.791 0.197195 18.7422 1.56811 20.8881 3.86053C20.8881 3.86053 21.1785 4.82736 15.6144 9.23734C15.7573 9.76607 15.9361 10.2844 16.1494 10.7889C17.2691 13.4639 19.9327 19.3107 19.925 19.3184L19.7607 19.4636L19.6881 19.5247C15.175 23.3309 7.64286 22.773 3.56154 18.47C-0.588573 14.0906 -0.470107 6.96356 4.07361 2.99688Z" fill="url(#paint38_radial_6707_7915)"/>
<path d="M4.08138 2.99308C6.45128 0.933069 9.52773 -0.127594 12.6636 0.0341901C15.7996 0.195974 18.7505 1.5676 20.8958 3.86056C20.8958 3.86056 21.3697 4.67835 15.6681 9.1915C15.6681 9.1915 15.8783 9.83351 16.2604 10.743C17.4068 13.5021 19.9214 19.2649 19.9137 19.2725L19.7494 19.4177L19.6806 19.4751C15.1713 23.2927 7.64299 22.7157 3.57313 18.4242C-0.569346 14.0562 -0.454702 6.94448 4.08138 2.99308Z" fill="url(#paint39_radial_6707_7915)"/>
<path d="M19.8946 19.2496C15.4312 23.2621 7.71563 22.7309 3.58081 18.363C-0.554022 13.995 -0.443199 6.89858 4.08524 2.97011C6.45651 0.911963 9.53332 -0.146783 12.669 0.0164136C15.8046 0.17961 18.7549 1.55204 20.8997 3.84523C20.8997 3.84523 21.5761 4.51781 15.7254 9.15325C15.714 9.16853 19.9099 19.2381 19.8946 19.2496Z" fill="url(#paint40_radial_6707_7915)"/>
<path d="M15.5457 9.29761C13.7152 10.7994 11.4644 12.5688 8.84668 14.5521C10.7913 16.6551 13.0529 18.4409 15.5495 19.8449C17.6934 20.9913 19.371 21.2053 20.1926 20.4792C21.0142 19.7531 20.9149 18.0793 19.9595 15.8935C18.8284 13.4854 17.3404 11.2617 15.5457 9.29761Z" fill="url(#paint41_linear_6707_7915)"/>
<path d="M15.71 9.14856L14.7928 9.91285C16.4721 11.7589 17.8682 13.8439 18.9353 16.0998C19.8716 18.2551 19.8486 19.3366 19.5467 19.6079C19.2448 19.8792 17.9417 19.948 15.859 18.8436C13.5519 17.5353 11.4653 15.8716 9.67589 13.9139L8.65173 14.6782L8.89249 14.9113C13.2299 19.3939 17.9226 21.9467 19.9862 21.018C20.0473 20.9875 20.1085 20.9569 20.1658 20.9225H20.1887C20.2686 20.873 20.344 20.8167 20.4142 20.7544C20.4886 20.6871 20.5564 20.6128 20.6167 20.5327C21.9657 18.7634 19.9174 13.998 15.8361 9.32817L15.71 9.14856Z" fill="#84EEB1"/>
<defs>
<radialGradient id="paint0_radial_6707_7915" cx="0" cy="0" r="1" gradientUnits="userSpaceOnUse" gradientTransform="translate(15.0828 1.35958) rotate(-2.29061) scale(55.0157 40.7126)">
<stop stop-color="#03BA50"/>
<stop offset="0.8" stop-color="#01B64E"/>
</radialGradient>
<radialGradient id="paint1_radial_6707_7915" cx="0" cy="0" r="1" gradientUnits="userSpaceOnUse" gradientTransform="translate(15.0771 1.3552) rotate(-2.29061) scale(54.901 40.6277)">
<stop stop-color="#04BC50"/>
<stop offset="0.8" stop-color="#01B34D"/>
</radialGradient>
<radialGradient id="paint2_radial_6707_7915" cx="0" cy="0" r="1" gradientUnits="userSpaceOnUse" gradientTransform="translate(15.0641 1.36553) rotate(-2.29061) scale(54.7863 40.5427)">
<stop stop-color="#06BD51"/>
<stop offset="0.72" stop-color="#02B24C"/>
<stop offset="0.8" stop-color="#01B04B"/>
</radialGradient>
<radialGradient id="paint3_radial_6707_7915" cx="0" cy="0" r="1" gradientUnits="userSpaceOnUse" gradientTransform="translate(15.0436 1.38287) rotate(-2.29061) scale(54.6716 40.4579)">
<stop stop-color="#08BF52"/>
<stop offset="0.56" stop-color="#04B44D"/>
<stop offset="0.8" stop-color="#01AD4A"/>
</radialGradient>
<radialGradient id="paint4_radial_6707_7915" cx="0" cy="0" r="1" gradientUnits="userSpaceOnUse" gradientTransform="translate(15.0229 1.39933) rotate(-2.29061) scale(54.5568 40.3729)">
<stop stop-color="#0AC053"/>
<stop offset="0.48" stop-color="#05B54E"/>
<stop offset="0.8" stop-color="#01AA49"/>
</radialGradient>
<radialGradient id="paint5_radial_6707_7915" cx="0" cy="0" r="1" gradientUnits="userSpaceOnUse" gradientTransform="translate(14.9989 1.44071) rotate(-1.71836) scale(54.4192 40.283)">
<stop stop-color="#0BC253"/>
<stop offset="0.42" stop-color="#07B74E"/>
<stop offset="0.8" stop-color="#01A848"/>
</radialGradient>
<radialGradient id="paint6_radial_6707_7915" cx="0" cy="0" r="1" gradientUnits="userSpaceOnUse" gradientTransform="translate(14.9671 1.45109) rotate(-1.71836) scale(54.3046 40.198)">
<stop stop-color="#0DC354"/>
<stop offset="0.37" stop-color="#08B84F"/>
<stop offset="0.8" stop-color="#01A546"/>
</radialGradient>
<radialGradient id="paint7_radial_6707_7915" cx="0" cy="0" r="1" gradientUnits="userSpaceOnUse" gradientTransform="translate(15.3706 1.46181) rotate(-1.71836) scale(54.1898 40.0969)">
<stop stop-color="#0FC555"/>
<stop offset="0.33" stop-color="#0ABA50"/>
<stop offset="0.8" stop-color="#01A245"/>
</radialGradient>
<radialGradient id="paint8_radial_6707_7915" cx="0" cy="0" r="1" gradientUnits="userSpaceOnUse" gradientTransform="translate(15.3305 1.48122) rotate(-1.70136) scale(54.6154 40.0121)">
<stop stop-color="#11C656"/>
<stop offset="0.3" stop-color="#0CBB51"/>
<stop offset="0.8" stop-color="#019F44"/>
</radialGradient>
<radialGradient id="paint9_radial_6707_7915" cx="0" cy="0" r="1" gradientUnits="userSpaceOnUse" gradientTransform="translate(15.317 1.50078) rotate(-1.70135) scale(54.4996 39.9272)">
<stop stop-color="#12C856"/>
<stop offset="0.28" stop-color="#0EBD51"/>
<stop offset="0.77" stop-color="#029E44"/>
<stop offset="0.8" stop-color="#019C43"/>
</radialGradient>
<radialGradient id="paint10_radial_6707_7915" cx="0" cy="0" r="1" gradientUnits="userSpaceOnUse" gradientTransform="translate(15.3038 1.52718) rotate(-1.70135) scale(54.3799 39.8395)">
<stop stop-color="#14C957"/>
<stop offset="0.26" stop-color="#0FBE52"/>
<stop offset="0.72" stop-color="#049F44"/>
<stop offset="0.8" stop-color="#019941"/>
</radialGradient>
<radialGradient id="paint11_radial_6707_7915" cx="0" cy="0" r="1" gradientUnits="userSpaceOnUse" gradientTransform="translate(15.2788 1.55984) rotate(-1.70136) scale(54.264 39.7547)">
<stop stop-color="#16CB58"/>
<stop offset="0.24" stop-color="#11C053"/>
<stop offset="0.66" stop-color="#06A145"/>
<stop offset="0.8" stop-color="#019640"/>
</radialGradient>
<radialGradient id="paint12_radial_6707_7915" cx="0" cy="0" r="1" gradientUnits="userSpaceOnUse" gradientTransform="translate(15.2502 1.59507) rotate(-1.70135) scale(54.1482 39.6698)">
<stop stop-color="#18CC59"/>
<stop offset="0.23" stop-color="#13C154"/>
<stop offset="0.62" stop-color="#07A246"/>
<stop offset="0.8" stop-color="#01933F"/>
</radialGradient>
<radialGradient id="paint13_radial_6707_7915" cx="0" cy="0" r="1" gradientUnits="userSpaceOnUse" gradientTransform="translate(15.2215 1.63745) rotate(-1.70135) scale(54.0285 39.5821)">
<stop stop-color="#19CD59"/>
<stop offset="0.21" stop-color="#15C254"/>
<stop offset="0.59" stop-color="#09A347"/>
<stop offset="0.8" stop-color="#01903E"/>
</radialGradient>
<radialGradient id="paint14_radial_6707_7915" cx="0" cy="0" r="1" gradientUnits="userSpaceOnUse" gradientTransform="translate(15.1853 1.68275) rotate(-1.70135) scale(53.9127 39.4972)">
<stop stop-color="#1BCF5A"/>
<stop offset="0.2" stop-color="#17C455"/>
<stop offset="0.56" stop-color="#0BA547"/>
<stop offset="0.8" stop-color="#018D3C"/>
</radialGradient>
<radialGradient id="paint15_radial_6707_7915" cx="0" cy="0" r="1" gradientUnits="userSpaceOnUse" gradientTransform="translate(15.1452 1.5168) rotate(-1.13442) scale(53.7836 39.4114)">
<stop stop-color="#1DD05B"/>
<stop offset="0.19" stop-color="#18C556"/>
<stop offset="0.54" stop-color="#0CA648"/>
<stop offset="0.8" stop-color="#018B3B"/>
</radialGradient>
<radialGradient id="paint16_radial_6707_7915" cx="0" cy="0" r="1" gradientUnits="userSpaceOnUse" gradientTransform="translate(15.1015 1.55126) rotate(-1.13442) scale(53.6639 39.3238)">
<stop stop-color="#1ED25B"/>
<stop offset="0.18" stop-color="#1AC756"/>
<stop offset="0.51" stop-color="#0EA848"/>
<stop offset="0.8" stop-color="#01883A"/>
</radialGradient>
<radialGradient id="paint17_radial_6707_7915" cx="0" cy="0" r="1" gradientUnits="userSpaceOnUse" gradientTransform="translate(15.0578 1.58478) rotate(-1.13442) scale(53.5481 39.2389)">
<stop stop-color="#20D35C"/>
<stop offset="0.18" stop-color="#1BC857"/>
<stop offset="0.49" stop-color="#0FA949"/>
<stop offset="0.8" stop-color="#018539"/>
</radialGradient>
<radialGradient id="paint18_radial_6707_7915" cx="0" cy="0" r="1" gradientUnits="userSpaceOnUse" gradientTransform="translate(15.0062 1.63177) rotate(-1.13442) scale(53.4323 39.154)">
<stop stop-color="#22D55D"/>
<stop offset="0.17" stop-color="#1DCA58"/>
<stop offset="0.47" stop-color="#11AB4A"/>
<stop offset="0.8" stop-color="#018237"/>
</radialGradient>
<radialGradient id="paint19_radial_6707_7915" cx="0" cy="0" r="1" gradientUnits="userSpaceOnUse" gradientTransform="translate(14.9471 1.67521) rotate(-1.13442) scale(53.3126 39.0664)">
<stop stop-color="#24D65E"/>
<stop offset="0.16" stop-color="#1FCB59"/>
<stop offset="0.45" stop-color="#13AC4B"/>
<stop offset="0.8" stop-color="#017F36"/>
</radialGradient>
<radialGradient id="paint20_radial_6707_7915" cx="0" cy="0" r="1" gradientUnits="userSpaceOnUse" gradientTransform="translate(14.8842 1.72825) rotate(-1.13442) scale(53.1968 38.9815)">
<stop stop-color="#25D85E"/>
<stop offset="0.15" stop-color="#20CD59"/>
<stop offset="0.43" stop-color="#14AE4B"/>
<stop offset="0.79" stop-color="#017D36"/>
<stop offset="0.8" stop-color="#007C35"/>
</radialGradient>
<radialGradient id="paint21_radial_6707_7915" cx="0" cy="0" r="1" gradientUnits="userSpaceOnUse" gradientTransform="translate(16.0408 1.78817) rotate(-1.13442) scale(53.081 38.8862)">
<stop stop-color="#27D95F"/>
<stop offset="0.15" stop-color="#22CE5A"/>
<stop offset="0.42" stop-color="#16AF4C"/>
<stop offset="0.77" stop-color="#027E36"/>
<stop offset="0.8" stop-color="#007934"/>
</radialGradient>
<radialGradient id="paint22_radial_6707_7915" cx="0" cy="0" r="1" gradientUnits="userSpaceOnUse" gradientTransform="translate(15.6455 1.84984) rotate(-1.1233) scale(53.4855 38.7986)">
<stop stop-color="#29DB60"/>
<stop offset="0.14" stop-color="#24D05B"/>
<stop offset="0.4" stop-color="#18B14D"/>
<stop offset="0.74" stop-color="#048037"/>
<stop offset="0.8" stop-color="#007632"/>
</radialGradient>
<radialGradient id="paint23_radial_6707_7915" cx="0" cy="0" r="1" gradientUnits="userSpaceOnUse" gradientTransform="translate(15.5989 1.91857) rotate(-1.1233) scale(53.3686 38.7138)">
<stop stop-color="#2BDC61"/>
<stop offset="0.14" stop-color="#26D15C"/>
<stop offset="0.39" stop-color="#1AB24E"/>
<stop offset="0.71" stop-color="#068138"/>
<stop offset="0.8" stop-color="#007331"/>
</radialGradient>
<radialGradient id="paint24_radial_6707_7915" cx="0" cy="0" r="1" gradientUnits="userSpaceOnUse" gradientTransform="translate(15.5523 1.99392) rotate(-1.1233) scale(53.2477 38.6261)">
<stop stop-color="#2CDE61"/>
<stop offset="0.13" stop-color="#27D35C"/>
<stop offset="0.37" stop-color="#1BB44E"/>
<stop offset="0.69" stop-color="#088339"/>
<stop offset="0.8" stop-color="#007030"/>
</radialGradient>
<radialGradient id="paint25_radial_6707_7915" cx="0" cy="0" r="1" gradientUnits="userSpaceOnUse" gradientTransform="translate(15.5016 1.6114) rotate(-0.561705) scale(53.1231 38.5417)">
<stop stop-color="#2EDF62"/>
<stop offset="0.13" stop-color="#29D45D"/>
<stop offset="0.37" stop-color="#1DB54F"/>
<stop offset="0.67" stop-color="#098439"/>
<stop offset="0.8" stop-color="#006E2F"/>
</radialGradient>
<radialGradient id="paint26_radial_6707_7915" cx="0" cy="0" r="1" gradientUnits="userSpaceOnUse" gradientTransform="translate(15.4431 1.67115) rotate(-0.561705) scale(53.0062 38.4569)">
<stop stop-color="#30E163"/>
<stop offset="0.13" stop-color="#2BD65E"/>
<stop offset="0.35" stop-color="#1FB750"/>
<stop offset="0.65" stop-color="#0B8639"/>
<stop offset="0.8" stop-color="#006B2D"/>
</radialGradient>
<radialGradient id="paint27_radial_6707_7915" cx="0" cy="0" r="1" gradientUnits="userSpaceOnUse" gradientTransform="translate(15.3846 1.7377) rotate(-0.561706) scale(52.8853 38.3692)">
<stop stop-color="#31E263"/>
<stop offset="0.12" stop-color="#2CD75E"/>
<stop offset="0.34" stop-color="#20B850"/>
<stop offset="0.63" stop-color="#0D873A"/>
<stop offset="0.8" stop-color="#00682C"/>
</radialGradient>
<radialGradient id="paint28_radial_6707_7915" cx="0" cy="0" r="1" gradientUnits="userSpaceOnUse" gradientTransform="translate(15.3184 1.80696) rotate(-0.561705) scale(52.7684 38.2843)">
<stop stop-color="#33E364"/>
<stop offset="0.12" stop-color="#2ED85F"/>
<stop offset="0.34" stop-color="#22B951"/>
<stop offset="0.62" stop-color="#0E883B"/>
<stop offset="0.8" stop-color="#00652B"/>
</radialGradient>
<radialGradient id="paint29_radial_6707_7915" cx="0" cy="0" r="1" gradientUnits="userSpaceOnUse" gradientTransform="translate(15.2484 1.88226) rotate(-0.561705) scale(52.6475 38.1967)">
<stop stop-color="#35E565"/>
<stop offset="0.12" stop-color="#30DA60"/>
<stop offset="0.33" stop-color="#24BB52"/>
<stop offset="0.6" stop-color="#108A3C"/>
<stop offset="0.8" stop-color="#00622A"/>
</radialGradient>
<radialGradient id="paint30_radial_6707_7915" cx="0" cy="0" r="1" gradientUnits="userSpaceOnUse" gradientTransform="translate(15.1783 1.96014) rotate(-0.561705) scale(52.5306 38.1118)">
<stop stop-color="#37E666"/>
<stop offset="0.11" stop-color="#32DB61"/>
<stop offset="0.32" stop-color="#26BC53"/>
<stop offset="0.59" stop-color="#128B3C"/>
<stop offset="0.8" stop-color="#005F28"/>
</radialGradient>
<radialGradient id="paint31_radial_6707_7915" cx="0" cy="0" r="1" gradientUnits="userSpaceOnUse" gradientTransform="translate(15.1001 2.04501) rotate(-0.561705) scale(52.4098 38.0241)">
<stop stop-color="#38E866"/>
<stop offset="0.11" stop-color="#33DD61"/>
<stop offset="0.31" stop-color="#27BE53"/>
<stop offset="0.57" stop-color="#148D3D"/>
<stop offset="0.8" stop-color="#005C27"/>
</radialGradient>
<radialGradient id="paint32_radial_6707_7915" cx="0" cy="0" r="1" gradientUnits="userSpaceOnUse" gradientTransform="translate(15.0185 2.13533) rotate(-0.561705) scale(52.2928 37.9393)">
<stop stop-color="#3AE967"/>
<stop offset="0.11" stop-color="#35DE62"/>
<stop offset="0.3" stop-color="#29BF54"/>
<stop offset="0.56" stop-color="#158E3E"/>
<stop offset="0.8" stop-color="#005926"/>
</radialGradient>
<radialGradient id="paint33_radial_6707_7915" cx="0" cy="0" r="1" gradientUnits="userSpaceOnUse" gradientTransform="translate(14.9364 2.22872) rotate(-0.561705) scale(52.1759 37.8545)">
<stop stop-color="#3CEB68"/>
<stop offset="0.11" stop-color="#37E063"/>
<stop offset="0.29" stop-color="#2BC155"/>
<stop offset="0.54" stop-color="#17903F"/>
<stop offset="0.8" stop-color="#005625"/>
</radialGradient>
<radialGradient id="paint34_radial_6707_7915" cx="0" cy="0" r="1" gradientUnits="userSpaceOnUse" gradientTransform="translate(14.843 2.32873) rotate(-0.561705) scale(52.055 37.7668)">
<stop stop-color="#3EEC69"/>
<stop offset="0.1" stop-color="#39E164"/>
<stop offset="0.29" stop-color="#2DC256"/>
<stop offset="0.53" stop-color="#19913F"/>
<stop offset="0.8" stop-color="#005323"/>
</radialGradient>
<radialGradient id="paint35_radial_6707_7915" cx="0" cy="0" r="1" gradientUnits="userSpaceOnUse" gradientTransform="translate(14.7493 1.7342) scale(51.9356 37.6787)">
<stop stop-color="#3FEE69"/>
<stop offset="0.1" stop-color="#3AE364"/>
<stop offset="0.28" stop-color="#2EC456"/>
<stop offset="0.52" stop-color="#1A9340"/>
<stop offset="0.8" stop-color="#005122"/>
</radialGradient>
<radialGradient id="paint36_radial_6707_7915" cx="0" cy="0" r="1" gradientUnits="userSpaceOnUse" gradientTransform="translate(15.9754 1.81786) scale(52.3228 37.5911)">
<stop stop-color="#41EF6A"/>
<stop offset="0.1" stop-color="#3CE465"/>
<stop offset="0.28" stop-color="#30C557"/>
<stop offset="0.51" stop-color="#1C9441"/>
<stop offset="0.79" stop-color="#015022"/>
<stop offset="0.8" stop-color="#004E21"/>
</radialGradient>
<radialGradient id="paint37_radial_6707_7915" cx="0" cy="0" r="1" gradientUnits="userSpaceOnUse" gradientTransform="translate(15.8997 1.90802) scale(52.2086 37.5091)">
<stop stop-color="#43F16B"/>
<stop offset="0.1" stop-color="#3EE666"/>
<stop offset="0.27" stop-color="#32C758"/>
<stop offset="0.5" stop-color="#1E9642"/>
<stop offset="0.77" stop-color="#035223"/>
<stop offset="0.8" stop-color="#004B20"/>
</radialGradient>
<radialGradient id="paint38_radial_6707_7915" cx="0" cy="0" r="1" gradientUnits="userSpaceOnUse" gradientTransform="translate(15.8281 2.00398) scale(52.0905 37.4243)">
<stop stop-color="#45F26C"/>
<stop offset="0.1" stop-color="#40E767"/>
<stop offset="0.27" stop-color="#34C859"/>
<stop offset="0.49" stop-color="#209742"/>
<stop offset="0.76" stop-color="#055323"/>
<stop offset="0.8" stop-color="#00481E"/>
</radialGradient>
<radialGradient id="paint39_radial_6707_7915" cx="0" cy="0" r="1" gradientUnits="userSpaceOnUse" gradientTransform="translate(15.7525 2.10658) scale(51.9685 37.3366)">
<stop stop-color="#46F46C"/>
<stop offset="0.09" stop-color="#41E967"/>
<stop offset="0.26" stop-color="#35CA59"/>
<stop offset="0.48" stop-color="#229943"/>
<stop offset="0.74" stop-color="#065524"/>
<stop offset="0.8" stop-color="#00451D"/>
</radialGradient>
<radialGradient id="paint40_radial_6707_7915" cx="0" cy="0" r="1" gradientUnits="userSpaceOnUse" gradientTransform="translate(15.6805 2.21476) scale(51.8464 37.2489)">
<stop stop-color="#48F56D"/>
<stop offset="0.09" stop-color="#43EA68"/>
<stop offset="0.25" stop-color="#37CB5A"/>
<stop offset="0.47" stop-color="#239A44"/>
<stop offset="0.73" stop-color="#085625"/>
<stop offset="0.8" stop-color="#00421C"/>
</radialGradient>
<linearGradient id="paint41_linear_6707_7915" x1="16.524" y1="28.9973" x2="12.0529" y2="-3.06484" gradientUnits="userSpaceOnUse">
<stop offset="0.1" stop-color="#FF8475"/>
<stop offset="0.37" stop-color="#E84E43"/>
<stop offset="0.6" stop-color="#D6261F"/>
<stop offset="0.79" stop-color="#CC0E08"/>
<stop offset="0.9" stop-color="#C80500"/>
</linearGradient>
</defs>
</svg>
