<svg width="24" height="24" viewBox="0 0 24 24" fill="none" xmlns="http://www.w3.org/2000/svg">
<path fill-rule="evenodd" clip-rule="evenodd" d="M20.5305 9H16.355C16.5795 10.4208 17.9264 11.75 19.408 11.75H22.7305C22.7754 11.6125 22.7754 11.4292 22.7754 11.2917C22.7754 10.0083 21.7876 9 20.5305 9Z" fill="url(#paint0_linear_10841_180)"/>
<path d="M1 9V15.4167H3.02041V11.9792H3.2449L4.36735 15.4167H5.26531L6.38775 11.9792H6.61224V15.4167H8.63265V9H6.61224C6.61224 9 6.02857 9 5.71429 9.91667C4.99592 12.0708 4.81633 12.6667 4.81633 12.6667C4.81633 12.6667 4.72653 12.3458 3.91837 9.91667C3.60408 9 3.02041 9 3.02041 9H1Z" fill="#4DB45F"/>
<path d="M9.53058 9V15.4167H11.3265C11.3265 15.4167 11.7755 15.4167 12 14.9583L13.5714 11.75H13.7959V15.4167H15.8163V9H14.0204C14.0204 9 13.5714 9.04583 13.3469 9.45833L11.7755 12.6667H11.551V9H9.53058Z" fill="#4DB45F"/>
<path d="M16.7142 11.9791V15.4166H18.7346V13.5833H20.5306C21.5183 13.5833 22.3714 12.8958 22.6408 11.9791H16.7142Z" fill="#4DB45F"/>
<defs>
<linearGradient id="paint0_linear_10841_180" x1="16.3434" y1="10.375" x2="22.7754" y2="10.375" gradientUnits="userSpaceOnUse">
<stop stop-color="#00B4E6"/>
<stop offset="1" stop-color="#088CCB"/>
</linearGradient>
</defs>
</svg>
