<svg width="24" height="25" viewBox="0 0 24 25" fill="none" xmlns="http://www.w3.org/2000/svg">
<path d="M2.77149 12.0981C2.77149 11.9432 2.77546 11.79 2.7834 11.6367L0.0150885 11.4985C0.00555906 11.6971 0 11.8972 0 12.0981C0 15.412 1.34286 18.4122 3.51479 20.5833L5.47786 18.6202C3.80623 16.9494 2.77149 14.6425 2.77149 12.0981Z" fill="url(#paint0_linear_10905_13286)"/>
<path d="M11.9992 2.87043C12.154 2.87043 12.3073 2.87599 12.4606 2.88314L12.5988 0.113233C12.4002 0.103704 12.2001 0.0981445 11.9992 0.0981445C8.68531 0.0981445 5.68511 1.44101 3.51398 3.61293L5.47705 5.57601C7.14789 3.90517 9.45561 2.87043 11.9992 2.87043Z" fill="url(#paint1_linear_10905_13286)"/>
<path d="M11.9992 21.3266C11.8444 21.3266 11.6911 21.3226 11.5378 21.3147L11.3997 24.083C11.5982 24.0925 11.7983 24.0981 11.9992 24.0981C15.3131 24.0981 18.3133 22.7552 20.4844 20.5833L18.5214 18.6202C16.8505 20.2911 14.5436 21.3266 11.9992 21.3266Z" fill="url(#paint2_linear_10905_13286)"/>
<path d="M17.2015 4.48091L19.5354 2.76084C17.4755 1.09636 14.8541 0.0981445 11.9992 0.0981445V2.87043C13.9281 2.87043 15.7197 3.46523 17.2015 4.48091Z" fill="url(#paint3_linear_10905_13286)"/>
<path d="M23.9992 12.0982C23.9992 11.3644 23.9333 10.6457 23.807 9.94849L21.2237 11.852C21.2261 11.9338 21.2269 12.0156 21.2269 12.0982C21.2269 14.8077 20.0532 17.2481 18.187 18.938L20.0492 20.9963C22.4753 18.8014 23.9992 15.6281 23.9992 12.0982Z" fill="#21A038"/>
<path d="M11.9992 21.3266C9.28968 21.3266 6.84934 20.1529 5.15944 18.2867L3.10107 20.149C5.29683 22.5742 8.47014 24.0981 11.9992 24.0981V21.3266Z" fill="url(#paint4_linear_10905_13286)"/>
<path d="M5.8114 5.25832L3.94918 3.19995C1.52392 5.3957 0 8.56902 0 12.0981H2.77228C2.77149 9.38856 3.94521 6.94821 5.8114 5.25832Z" fill="url(#paint5_linear_10905_13286)"/>
<path d="M21.4953 4.76208C22.0623 5.49427 22.5467 6.29395 22.9335 7.14763L11.9992 15.2056L7.4314 12.342V8.89709L11.9992 11.7607L21.4953 4.76208Z" fill="#21A038"/>
<defs>
<linearGradient id="paint0_linear_10905_13286" x1="4.07508" y1="20.2367" x2="1.0461" y2="11.4812" gradientUnits="userSpaceOnUse">
<stop offset="0.1444" stop-color="#F2E913"/>
<stop offset="0.3037" stop-color="#E7E518"/>
<stop offset="0.5823" stop-color="#CADB26"/>
<stop offset="0.891" stop-color="#A3CD39"/>
</linearGradient>
<linearGradient id="paint1_linear_10905_13286" x1="4.30587" y1="4.1039" x2="12.1072" y2="1.13095" gradientUnits="userSpaceOnUse">
<stop offset="0.0592" stop-color="#0FA8E0"/>
<stop offset="0.5385" stop-color="#0099F9"/>
<stop offset="0.9234" stop-color="#0291EB"/>
</linearGradient>
<linearGradient id="paint2_linear_10905_13286" x1="11.217" y1="22.426" x2="20.039" y2="20.4321" gradientUnits="userSpaceOnUse">
<stop offset="0.1226" stop-color="#A3CD39"/>
<stop offset="0.2846" stop-color="#86C339"/>
<stop offset="0.8693" stop-color="#21A038"/>
</linearGradient>
<linearGradient id="paint3_linear_10905_13286" x1="11.4193" y1="1.02749" x2="18.9619" y2="3.35472" gradientUnits="userSpaceOnUse">
<stop offset="0.0566" stop-color="#0291EB"/>
<stop offset="0.79" stop-color="#0C8ACB"/>
</linearGradient>
<linearGradient id="paint4_linear_10905_13286" x1="3.79623" y1="19.812" x2="12.0064" y2="22.8796" gradientUnits="userSpaceOnUse">
<stop offset="0.1324" stop-color="#F2E913"/>
<stop offset="0.2977" stop-color="#EBE716"/>
<stop offset="0.5306" stop-color="#D9E01F"/>
<stop offset="0.8023" stop-color="#BBD62D"/>
<stop offset="0.9829" stop-color="#A3CD39"/>
</linearGradient>
<linearGradient id="paint5_linear_10905_13286" x1="1.0319" y1="12.4344" x2="4.32752" y2="3.86121" gradientUnits="userSpaceOnUse">
<stop offset="0.0698" stop-color="#A3CD39"/>
<stop offset="0.2599" stop-color="#81C55F"/>
<stop offset="0.9216" stop-color="#0FA8E0"/>
</linearGradient>
</defs>
</svg>
