<svg width="24" height="24" viewBox="0 0 24 24" fill="none" xmlns="http://www.w3.org/2000/svg">
<path d="M7.55062 9.1488C7.3773 6.94647 9.02213 5.02062 11.2245 4.8473L18.9976 4.23554C20.6494 4.10554 22.0937 5.33917 22.2237 6.99091L22.941 16.104C23.0709 17.7557 21.8373 19.2001 20.1856 19.3301L12.4125 19.9419C10.2101 20.1152 8.28425 18.4704 8.11092 16.2681L7.83077 12.7084L7.55062 9.1488Z" fill="white"/>
<path fill-rule="evenodd" clip-rule="evenodd" d="M4.12497 6.6844C4.56644 5.85312 5.40201 5.30499 6.34035 5.23114L19.9284 4.16174C21.0652 4.07227 22.0593 4.9213 22.1487 6.0581L23.0127 17.036C23.1022 18.1728 22.2531 19.1669 21.1163 19.2563L7.52832 20.3257C6.58998 20.3996 5.67895 19.9889 5.11288 19.2369L1.41515 14.3247C0.933016 13.6843 0.865202 12.8226 1.2412 12.1146L4.12497 6.6844ZM18.9975 7.89643C19.3011 8.23058 19.5671 8.6007 19.7877 9.0008L14.7818 13.3352L12.4524 12.1182L12.3206 10.444L14.6501 11.661L18.9975 7.89643ZM5.53594 14.2692C6.29381 14.2096 6.85983 13.5469 6.80018 12.789C6.74054 12.0311 6.07782 11.4651 5.31995 11.5248C4.56209 11.5844 3.99607 12.2471 4.05571 13.005C4.11536 13.7629 4.77808 14.3289 5.53594 14.2692ZM10.2038 12.1759C10.0099 9.71288 11.8495 7.55903 14.3125 7.36519C15.2335 7.29271 16.1112 7.50451 16.8595 7.92691L17.9484 6.98397C16.8873 6.26298 15.5829 5.88447 14.2045 5.99295C10.9836 6.24644 8.57804 9.06302 8.83154 12.2839C9.08503 15.5049 11.9016 17.9104 15.1225 17.657C18.3435 17.4035 20.749 14.5869 20.4955 11.366C20.4682 11.0186 20.4111 10.6807 20.3268 10.3547L19.1171 11.4021C19.1193 11.426 19.1214 11.45 19.1233 11.474C19.3172 13.937 17.4776 16.0909 15.0145 16.2847C12.5515 16.4786 10.3976 14.639 10.2038 12.1759Z" fill="url(#paint0_linear_8442_7900)"/>
<path fill-rule="evenodd" clip-rule="evenodd" d="M4.12497 6.6844C4.56644 5.85312 5.40201 5.30499 6.34035 5.23114L19.9284 4.16174C21.0652 4.07227 22.0593 4.9213 22.1487 6.0581L23.0127 17.036C23.1022 18.1728 22.2531 19.1669 21.1163 19.2563L7.52832 20.3257C6.58998 20.3996 5.67895 19.9889 5.11288 19.2369L1.41515 14.3247C0.933016 13.6843 0.865202 12.8226 1.2412 12.1146L4.12497 6.6844ZM18.9975 7.89643C19.3011 8.23058 19.5671 8.6007 19.7877 9.0008L14.7818 13.3352L12.4524 12.1182L12.3206 10.444L14.6501 11.661L18.9975 7.89643ZM5.53594 14.2692C6.29381 14.2096 6.85983 13.5469 6.80018 12.789C6.74054 12.0311 6.07782 11.4651 5.31995 11.5248C4.56209 11.5844 3.99607 12.2471 4.05571 13.005C4.11536 13.7629 4.77808 14.3289 5.53594 14.2692ZM10.2038 12.1759C10.0099 9.71288 11.8495 7.55903 14.3125 7.36519C15.2335 7.29271 16.1112 7.50451 16.8595 7.92691L17.9484 6.98397C16.8873 6.26298 15.5829 5.88447 14.2045 5.99295C10.9836 6.24644 8.57804 9.06302 8.83154 12.2839C9.08503 15.5049 11.9016 17.9104 15.1225 17.657C18.3435 17.4035 20.749 14.5869 20.4955 11.366C20.4682 11.0186 20.4111 10.6807 20.3268 10.3547L19.1171 11.4021C19.1193 11.426 19.1214 11.45 19.1233 11.474C19.3172 13.937 17.4776 16.0909 15.0145 16.2847C12.5515 16.4786 10.3976 14.639 10.2038 12.1759Z" fill="url(#paint1_radial_8442_7900)"/>
<path fill-rule="evenodd" clip-rule="evenodd" d="M4.12498 6.68489C4.56644 5.85361 5.40201 5.30548 6.34035 5.23163L19.9284 4.16223C21.0652 4.07276 22.0593 4.92179 22.1487 6.05859L23.0127 17.0365C23.1022 18.1733 22.2531 19.1674 21.1163 19.2568L7.52832 20.3262C6.58998 20.4001 5.67895 19.9894 5.11288 19.2374L1.41515 14.3252C0.933016 13.6847 0.865202 12.8231 1.2412 12.1151L4.12498 6.68489ZM18.9975 7.89692C19.3011 8.23107 19.5671 8.60119 19.7877 9.00129L14.7818 13.3357L12.4524 12.1187L12.3206 10.4445L14.6501 11.6615L18.9975 7.89692ZM5.53595 14.2697C6.29381 14.2101 6.85983 13.5473 6.80018 12.7895C6.74054 12.0316 6.07782 11.4656 5.31995 11.5252C4.56209 11.5849 3.99607 12.2476 4.05571 13.0055C4.11536 13.7633 4.77808 14.3294 5.53595 14.2697ZM10.2038 12.1764C10.0099 9.71337 11.8495 7.55952 14.3125 7.36568C15.2335 7.29319 16.1112 7.505 16.8595 7.9274L17.9484 6.98446C16.8873 6.26346 15.5829 5.88496 14.2045 5.99344C10.9836 6.24693 8.57804 9.0635 8.83154 12.2844C9.08503 15.5054 11.9016 17.9109 15.1225 17.6574C18.3434 17.4039 20.749 14.5874 20.4955 11.3665C20.4682 11.0191 20.4111 10.6812 20.3268 10.3552L19.1171 11.4026C19.1193 11.4265 19.1214 11.4504 19.1233 11.4745C19.3171 13.9375 17.4776 16.0914 15.0145 16.2852C12.5515 16.4791 10.3976 14.6395 10.2038 12.1764Z" fill="url(#paint2_radial_8442_7900)"/>
<path fill-rule="evenodd" clip-rule="evenodd" d="M6.24432 20.1186C5.80269 19.9327 5.4102 19.6319 5.11288 19.2369L1.41515 14.3247C0.933016 13.6843 0.865202 12.8226 1.2412 12.1146L4.12498 6.6844C4.56644 5.85312 5.40201 5.30499 6.34035 5.23114L19.9284 4.16174C21.0652 4.07227 22.0593 4.9213 22.1487 6.0581L22.7771 14.0424C19.4619 17.4631 14.936 19.7379 9.81521 20.1458L9.77628 20.1488C8.57976 20.2419 7.39938 20.2292 6.24432 20.1186ZM18.9975 7.89643C19.3011 8.23058 19.5671 8.6007 19.7877 9.0008L14.7818 13.3352L12.4524 12.1182L12.3206 10.444L14.6501 11.661L18.9975 7.89643ZM5.53595 14.2692C6.29381 14.2096 6.85983 13.5469 6.80018 12.789C6.74054 12.0311 6.07782 11.4651 5.31995 11.5248C4.56209 11.5844 3.99607 12.2471 4.05571 13.005C4.11536 13.7629 4.77808 14.3289 5.53595 14.2692ZM10.2038 12.1759C10.0099 9.71288 11.8495 7.55903 14.3125 7.36519C15.2335 7.29271 16.1112 7.50451 16.8595 7.92691L17.9484 6.98397C16.8873 6.26298 15.5829 5.88447 14.2045 5.99295C10.9836 6.24644 8.57805 9.06302 8.83154 12.2839C9.08503 15.5049 11.9016 17.9104 15.1225 17.657C18.3435 17.4035 20.749 14.5869 20.4955 11.366C20.4682 11.0186 20.4111 10.6807 20.3268 10.3547L19.1171 11.4021C19.1193 11.426 19.1214 11.45 19.1233 11.474C19.3172 13.937 17.4776 16.0909 15.0145 16.2847C12.5515 16.4786 10.3976 14.639 10.2038 12.1759Z" fill="url(#paint3_radial_8442_7900)"/>
<defs>
<linearGradient id="paint0_linear_8442_7900" x1="9.90971" y1="-4.71492" x2="12.7716" y2="31.6493" gradientUnits="userSpaceOnUse">
<stop stop-color="#0084D9"/>
<stop offset="1" stop-color="#0084D9"/>
</linearGradient>
<radialGradient id="paint1_radial_8442_7900" cx="0" cy="0" r="1" gradientUnits="userSpaceOnUse" gradientTransform="translate(13.7037 21.5656) rotate(86.5654) scale(18.5077 18.5077)">
<stop stop-color="#13DF03"/>
<stop offset="0.444293" stop-color="#1FA233"/>
<stop offset="0.709921" stop-color="#22AC60" stop-opacity="0.402859"/>
<stop offset="1" stop-color="#21BA72" stop-opacity="0"/>
</radialGradient>
<radialGradient id="paint2_radial_8442_7900" cx="0" cy="0" r="1" gradientUnits="userSpaceOnUse" gradientTransform="translate(3.85605 19.2345) rotate(89.161) scale(16.1677 16.1677)">
<stop stop-color="#FDFF00"/>
<stop offset="0.642212" stop-color="#A0E720" stop-opacity="0.706751"/>
<stop offset="1" stop-color="#36DCBA" stop-opacity="0"/>
</radialGradient>
<radialGradient id="paint3_radial_8442_7900" cx="0" cy="0" r="1" gradientUnits="userSpaceOnUse" gradientTransform="translate(8.578 4.68054) rotate(85.5) scale(12.8331 12.8331)">
<stop stop-color="#1DD3D5"/>
<stop offset="1" stop-color="#1DD3D5" stop-opacity="0"/>
</radialGradient>
</defs>
</svg>
