<svg width="16" height="16" viewBox="0 0 16 16" fill="none" xmlns="http://www.w3.org/2000/svg">
<path d="M16 8C16 12.4183 12.4183 16 8 16C3.58172 16 0 12.4183 0 8C0 3.58172 3.58172 0 8 0C12.4183 0 16 3.58172 16 8Z" fill="#FF7900"/>
<path d="M9.65191 5.92976L4.47745 5.54363C3.77074 5.4909 3.23494 6.16969 3.45036 6.84484L4.78318 11.022C4.95419 11.5579 5.53345 11.8474 6.06472 11.6624L10.3742 10.1617C10.977 9.95178 11.381 9.38341 11.381 8.74512V7.62225C11.381 7.07504 11.1741 6.19667 11.9048 5.43339C12.3238 4.99561 14 4.88616 14 4.33894C14 3.87306 12.7429 3.90119 11.9048 4.33896C11.3871 4.60934 10.9761 5.03279 10.6963 5.40304C10.4478 5.73177 10.0628 5.96042 9.65191 5.92976Z" fill="white"/>
<circle cx="7.25" cy="13" r="0.75" fill="white"/>
<circle cx="0.5" cy="0.5" r="0.5" transform="matrix(1 0 0 -1 10 12)" fill="white"/>
</svg>
