<svg width="16" height="16" viewBox="0 0 16 16" fill="none" xmlns="http://www.w3.org/2000/svg">
<path d="M16 8C16 12.4183 12.4183 16 8 16C3.58172 16 0 12.4183 0 8C0 3.58172 3.58172 0 8 0C12.4183 0 16 3.58172 16 8Z" fill="#319738"/>
<path d="M7.50004 2L5.5 3L11 6L11 12.5L13 11.5L13 5L7.50004 2Z" fill="white"/>
<path d="M3.99975 4.5L1.99976 5.5L7.49987 8.5L7.49975 15L9.49987 14L9.49987 7.5L3.99975 4.5Z" fill="white"/>
<path d="M3.50001 8.36156L3.50007 10.3616L5.50008 11.3616L5.50003 9.36155L3.50001 8.36156Z" fill="white"/>
</svg>
