<svg width="16" height="16" viewBox="0 0 16 16" fill="none" xmlns="http://www.w3.org/2000/svg">
<path d="M15.9893 5.42216L14.204 12.6628C14.172 12.7926 14.1137 12.9134 14.0333 13.0168C13.9528 13.1203 13.852 13.2039 13.738 13.2618L10.3706 14.9722C10.3354 14.9904 10.2969 14.9999 10.2578 15C10.2185 14.9982 10.18 14.9873 10.1451 14.968C10.1102 14.9487 10.0797 14.9216 10.0557 14.8885C10.0318 14.8554 10.0149 14.8171 10.0064 14.7764C9.99788 14.7356 9.99786 14.6934 10.0064 14.6526L12.0155 6.57671C12.051 6.43427 12.1203 6.30388 12.2169 6.19805C12.3136 6.09223 12.4342 6.01452 12.5673 5.97238L15.5918 5.01472C15.6389 4.99942 15.6886 4.99599 15.7371 5.0047C15.7856 5.01342 15.8315 5.03405 15.8712 5.06493C15.9109 5.09582 15.9432 5.13611 15.9655 5.18259C15.9879 5.22907 15.9997 5.28045 16 5.33263C16.0001 5.36284 15.9965 5.39293 15.9893 5.42216Z" fill="#0054AB"/>
<path d="M9.05972 3.47022L11.6043 4.86427C11.7133 4.924 11.8407 4.9656 11.9766 4.98588C12.1125 5.00616 12.2534 5.00457 12.3883 4.98124L15.8689 4.37906C15.9007 4.37356 15.9296 4.36192 15.9522 4.34551C15.9748 4.3291 15.9902 4.30858 15.9966 4.28634C16.0031 4.2641 16.0002 4.24106 15.9885 4.21989C15.9767 4.19873 15.9565 4.18031 15.9302 4.16677L13.912 3.12823C13.7255 3.03225 13.4941 2.98761 13.2627 3.00297L9.14236 3.27638C9.1111 3.27846 9.08145 3.28696 9.05723 3.30079C9.03301 3.31461 9.01532 3.33314 9.00643 3.35399C8.99755 3.37483 8.99787 3.39703 9.00737 3.41775C9.01687 3.43846 9.0351 3.45673 9.05972 3.47022Z" fill="#00A6FF"/>
<path d="M4.02924 3.29933L9.90731 4.99706C9.9229 5.00157 9.93963 5.00088 9.95476 4.9951C9.96989 4.98932 9.98252 4.97881 9.99058 4.96527C9.99864 4.95174 10.0017 4.93599 9.99913 4.9206C9.9966 4.90521 9.98869 4.8911 9.97668 4.88058L8.03653 3.18017C7.96507 3.11754 7.88107 3.06942 7.7896 3.03871C7.69813 3.008 7.60111 2.99535 7.50438 3.00152L4.03838 3.22244C4.02877 3.22306 4.01969 3.22688 4.01273 3.23324C4.00576 3.2396 4.00135 3.24809 4.00026 3.25724C3.99918 3.26639 4.00148 3.27561 4.00677 3.2833C4.01207 3.291 4.02002 3.29667 4.02924 3.29933Z" fill="#00A6FF"/>
<path d="M4.13078 2.99949L6.67351 2.7693C7.20557 2.72113 7.71873 2.55679 8.17298 2.28907L9.9321 1.25235C9.95987 1.23599 9.98094 1.2111 9.99182 1.18181C10.0027 1.15252 10.0027 1.12058 9.99191 1.09127C9.9811 1.06196 9.96009 1.03703 9.93235 1.02061C9.90461 1.0042 9.87181 0.997268 9.83936 1.00098L6.14309 1.4226C6.03747 1.43464 5.93694 1.4725 5.8513 1.53249L4.04862 2.79507C4.02758 2.80979 4.0122 2.83067 4.00484 2.8545C3.99748 2.87833 3.99854 2.9038 4.00786 2.927C4.01719 2.9502 4.03426 2.96985 4.05646 2.98294C4.07866 2.99604 4.10477 3.00185 4.13078 2.99949Z" fill="#00A6FF"/>
<path d="M3.06089 4.03311L10.337 6.04382C10.5651 6.10683 10.7589 6.2531 10.8775 6.45172C10.9961 6.65035 11.0302 6.88579 10.9727 7.10831L9.12357 14.2622C9.07399 14.4728 8.95153 14.6608 8.77646 14.7949C8.60139 14.9291 8.38421 15.0014 8.16086 15C8.06325 15.0006 7.96603 14.9881 7.87198 14.9628L0.680942 12.9897C0.483778 12.9347 0.310574 12.819 0.187665 12.66C0.0647561 12.5011 -0.00113341 12.3077 1.4755e-05 12.1092C0.000471817 12.0363 0.0104215 11.9637 0.029629 11.8932L1.95485 4.64632C1.98442 4.535 2.03675 4.43054 2.10875 4.3391C2.18076 4.24766 2.27097 4.17111 2.37406 4.11395C2.47716 4.05679 2.59105 4.02019 2.70902 4.0063C2.82698 3.99242 2.94662 4.00153 3.06089 4.03311Z" fill="#00A6FF"/>
</svg>
