<svg width="16" height="16" viewBox="0 0 16 16" fill="none" xmlns="http://www.w3.org/2000/svg">
<circle cx="8" cy="8" r="8" fill="#002A47"/>
<path d="M11.89 10.0677C11.6471 10.0482 11.4152 9.96422 11.221 9.82542C11.2002 9.81091 11.1759 9.80137 11.1503 9.79763C11.1247 9.79389 11.0985 9.79603 11.0739 9.80387C11.0494 9.81172 11.0272 9.82505 11.0093 9.84274C10.9914 9.86041 10.9783 9.88189 10.9711 9.90535C10.807 10.4094 10.5279 10.8734 10.1532 11.2648C10.1376 11.2809 10.1259 11.3002 10.1189 11.321C10.112 11.3418 10.1099 11.3639 10.1128 11.3855C10.1158 11.4072 10.1236 11.4281 10.1359 11.4466C10.1482 11.4652 10.1646 11.481 10.184 11.493C10.6758 11.7949 11.2437 11.9685 11.8299 11.9961C11.8518 11.9972 11.8737 11.994 11.8943 11.9869C11.9149 11.9797 11.9336 11.9686 11.9496 11.9544C11.9655 11.9402 11.9781 11.923 11.9868 11.9041C11.9955 11.8851 11.9999 11.8646 12 11.844V10.1808C12 10.1524 11.9888 10.125 11.9684 10.1041C11.948 10.0831 11.92 10.0701 11.89 10.0677ZM10.6866 3.14159C10.6866 3.12298 10.6827 3.10456 10.6752 3.08737C10.6676 3.07018 10.6565 3.05456 10.6426 3.04141C10.6286 3.02826 10.6121 3.01784 10.5938 3.01073C10.5756 3.00362 10.556 2.99998 10.5363 3H8.79135C8.75153 3 8.71334 3.01492 8.68517 3.04147C8.65701 3.06802 8.64117 3.10403 8.64117 3.14159V8.90531C8.64317 9.11596 8.58281 9.32299 8.46688 9.50311C8.35097 9.68322 8.18408 9.8293 7.98496 9.92495C7.01171 10.3782 6.04507 9.71767 6.04507 8.8483C6.04503 8.63902 6.10193 8.43326 6.21033 8.25061C6.31874 8.068 6.47502 7.91463 6.66423 7.8052C6.85345 7.69576 7.06929 7.63391 7.29108 7.62553C7.5129 7.61718 7.73328 7.6626 7.93117 7.75744C7.95573 7.76979 7.98323 7.77592 8.01104 7.7753C8.03884 7.77465 8.06602 7.76725 8.08992 7.75384C8.11382 7.74039 8.1336 7.72135 8.14741 7.6986C8.16122 7.67582 8.16853 7.65009 8.16868 7.62384V5.9371C8.16865 5.89564 8.15341 5.85548 8.12557 5.82339C8.09777 5.79128 8.05901 5.76922 8.01593 5.76093C7.52999 5.66695 7.02794 5.67607 6.54618 5.78764C6.06442 5.89922 5.61504 6.11044 5.2306 6.40597C4.84615 6.70154 4.53627 7.07403 4.32343 7.49644C4.11059 7.91888 4.00011 8.38063 4 8.8483C4 10.9455 6.18404 12.5708 8.52052 11.8091C9.82806 11.3828 10.6864 10.1991 10.6864 8.89504L10.6866 3.14159Z" fill="white"/>
</svg>
