<svg width="16" height="16" viewBox="0 0 16 16" fill="none" xmlns="http://www.w3.org/2000/svg">
<path d="M16 8C16 12.4183 12.4183 16 8 16C3.58172 16 0 12.4183 0 8C0 3.58172 3.58172 0 8 0C12.4183 0 16 3.58172 16 8Z" fill="black"/>
<path d="M8.74274 9.73132L4.90833 8.10309L4.09398 9.48762L8.40717 10.3017L8.74274 9.73132ZM8.20938 11.3462H9.48479L10.6047 9.44076L11.7246 11.3462H13L10.6047 7.27291L8.20938 11.3462ZM3.90438 9.81032L3 11.3462H7.79198L8.21757 10.6231L3.90438 9.81032ZM10.396 6.92075L7.99932 2.84616L7.09494 4.38468L9.9704 7.64382L10.396 6.92075ZM9.78079 7.96785L6.90533 4.70872L6.09235 6.09191L9.4466 8.53693L9.78079 7.96785ZM9.26381 8.8449L5.90956 6.40122L5.08976 7.79378L8.92416 9.42335L9.26381 8.8449Z" fill="#F9AE00"/>
</svg>
