<svg width="16" height="16" viewBox="0 0 16 16" fill="none" xmlns="http://www.w3.org/2000/svg">
<path d="M16 8C16 12.4183 12.4183 16 8 16C3.58172 16 0 12.4183 0 8C0 3.58172 3.58172 0 8 0C12.4183 0 16 3.58172 16 8Z" fill="#025AFC"/>
<path d="M4 14.9297V7.6L6.78571 5L10.7321 5.23636L11.5 6.5L15.375 11.1052C14.1626 13.9812 11.3171 16 8 16C6.54285 16 5.17669 15.6104 4 14.9297Z" fill="#F71255"/>
<path fill-rule="evenodd" clip-rule="evenodd" d="M11.0636 8.0884C11.5522 7.44426 11.5563 6.97533 11.4794 6.72799C11.4025 6.48066 11.1332 6.09673 10.3654 5.84328C9.6027 5.59148 8.52381 5.55089 7.35083 5.91564C6.17786 6.28039 5.31224 6.92566 4.82679 7.5656C4.33815 8.20975 4.33408 8.67867 4.41099 8.92601C4.4879 9.17335 4.75718 9.55727 5.52494 9.81072C6.28769 10.0625 7.36658 10.1031 8.53956 9.73836C9.71253 9.37361 10.5782 8.72834 11.0636 8.0884ZM9.20767 11.8869C12.3461 10.9109 14.3252 8.30209 13.6279 6.05988C12.9307 3.81768 9.8212 2.79117 6.68272 3.76712C3.54424 4.74308 1.56523 7.35191 2.26247 9.59412C2.95972 11.8363 6.06919 12.8628 9.20767 11.8869Z" fill="white"/>
</svg>
