<svg width="16" height="16" viewBox="0 0 16 16" fill="none" xmlns="http://www.w3.org/2000/svg">
<path d="M12.8888 0H3.1112C1.39293 0 0 1.39293 0 3.1112V12.8888C0 14.6071 1.39293 16 3.1112 16H12.8888C14.6071 16 16 14.6071 16 12.8888V3.1112C16 1.39293 14.6071 0 12.8888 0Z" fill="#1928DC"/>
<path fill-rule="evenodd" clip-rule="evenodd" d="M4.50762 7.5014C4.31683 7.33708 4.17806 7.12658 4.10661 6.89308C4.00203 6.56537 3.95229 6.22444 3.95918 5.88243C3.95243 5.53089 4.00213 5.18041 4.10661 4.84275C4.17678 4.60156 4.31536 4.38272 4.50762 4.20954C4.67573 4.07433 4.88988 4 5.11136 4C5.33282 4 5.54698 4.07433 5.71508 4.20954C5.90838 4.38117 6.04675 4.59999 6.11463 4.84136C6.21926 5.17947 6.26896 5.53043 6.26206 5.88243C6.26891 6.22489 6.21918 6.56627 6.11463 6.89445C6.045 7.12806 5.90713 7.33877 5.71656 7.50278C5.54513 7.6324 5.33156 7.70308 5.11136 7.70308C4.89115 7.70308 4.67757 7.6324 4.50616 7.50278L4.50762 7.5014ZM4.6639 6.59444C4.68882 6.75071 4.75023 6.8999 4.84377 7.03133C4.87323 7.07271 4.91282 7.10686 4.95925 7.1309C5.00568 7.15496 5.0576 7.16823 5.11063 7.16958C5.26837 7.16958 5.39221 7.06174 5.48363 6.84607C5.5894 6.53351 5.63532 6.20586 5.61926 5.87828C5.62331 5.62908 5.60259 5.38006 5.55734 5.13446C5.53356 4.97298 5.47269 4.81827 5.37895 4.68099C5.35264 4.636 5.31392 4.59848 5.26684 4.57234C5.21977 4.5462 5.16606 4.53241 5.11136 4.53241C5.05664 4.53241 5.00294 4.5462 4.95587 4.57234C4.90879 4.59848 4.87007 4.636 4.84377 4.68099C4.75115 4.81841 4.68991 4.97235 4.6639 5.13309C4.61811 5.37817 4.5969 5.62672 4.60051 5.87551C4.59647 6.11652 4.61771 6.35732 4.6639 6.59444Z" fill="white"/>
<path d="M3.35743 4.05937V7.64295H2.72052V4.57506H1.6369V7.64295H1V4.05937H3.35743Z" fill="white"/>
<path d="M8.36561 5.43363V4.05937H9.00252V7.64295H8.36561V5.9673H7.90121C7.74505 5.97731 7.58851 5.95389 7.44342 5.8988C7.29834 5.84371 7.16853 5.75839 7.0638 5.6493C6.86435 5.39983 6.76516 5.09237 6.78367 4.78106V4.05937H7.42058V4.78383C7.41549 4.91388 7.43599 5.0437 7.48103 5.16679C7.51486 5.25528 7.58268 5.32873 7.67122 5.3728C7.78339 5.41908 7.90562 5.43992 8.028 5.43363H8.36561Z" fill="white"/>
<path d="M11.796 4.57506H11.0485V7.64295H10.4116V4.57506H9.66415V4.05937H11.796V4.57506Z" fill="white"/>
<path fill-rule="evenodd" clip-rule="evenodd" d="M13.589 4.05892H12.4391V7.6425H13.076V5.96408H14.1567L14.3631 7.63558H15L14.7051 5.24238C14.6843 5.02265 14.6292 4.80697 14.5415 4.60226C14.4698 4.43725 14.3471 4.29616 14.1891 4.19717C14.0082 4.09639 13.7992 4.04827 13.589 4.05892ZM14.0963 5.45529H13.079V4.59673H13.4608C13.5792 4.59037 13.6973 4.61225 13.8043 4.66033C13.8872 4.70521 13.9504 4.77626 13.9827 4.8608C14.0287 4.98643 14.0579 5.11692 14.0698 5.24929L14.0963 5.45529Z" fill="white"/>
<path fill-rule="evenodd" clip-rule="evenodd" d="M1.70177 8.35645C1.91412 8.35118 2.12372 8.40248 2.30624 8.50439C2.4852 8.6112 2.62471 8.76713 2.70578 8.95095C2.80935 9.18518 2.85956 9.43713 2.85321 9.69062C2.85977 9.9304 2.81412 10.1689 2.71905 10.3916C2.64862 10.5626 2.53476 10.715 2.38733 10.8354C2.28764 10.9234 2.15837 10.9762 2.0217 10.9847C1.95091 10.9893 1.8799 10.9794 1.81366 10.9555C1.74743 10.9316 1.6876 10.8944 1.63838 10.8464V11.94H1V8.35645H1.70177ZM1.67376 10.2118C1.68947 10.2759 1.72189 10.3353 1.76812 10.3847C1.78318 10.402 1.80201 10.4162 1.82337 10.4262C1.84472 10.4362 1.8681 10.4419 1.89196 10.4427C1.94792 10.4398 2.00062 10.4171 2.03939 10.3791C2.09894 10.3211 2.14158 10.2497 2.16323 10.1718C2.19905 10.0526 2.21546 9.92909 2.21189 9.80537C2.21189 9.47079 2.16913 9.23437 2.08067 9.09612C2.04446 9.03224 1.98994 8.9791 1.92325 8.9427C1.85657 8.9063 1.78037 8.8881 1.70325 8.89012H1.63838V9.93533C1.63641 10.0286 1.64832 10.1217 1.67376 10.2118Z" fill="white"/>
<path fill-rule="evenodd" clip-rule="evenodd" d="M3.15525 11.187C3.22574 11.4213 3.36463 11.6325 3.55627 11.7967L3.56216 11.7981C3.73312 11.9287 3.94687 12 4.16737 12C4.38786 12 4.60161 11.9287 4.77257 11.7981C4.96345 11.6343 5.10138 11.4235 5.17064 11.1898C5.2729 10.8613 5.32016 10.5199 5.31069 10.1778C5.31747 9.82577 5.26777 9.47482 5.16326 9.1367C5.09441 8.8961 4.95617 8.67796 4.76372 8.50625C4.59562 8.37104 4.38146 8.29671 4.15999 8.29671C3.93852 8.29671 3.72437 8.37104 3.55627 8.50625C3.36352 8.67853 3.22482 8.89706 3.15525 9.13808C3.05076 9.47527 3.00106 9.8253 3.00782 10.1764C3.00083 10.5184 3.05057 10.8593 3.15525 11.187ZM3.8924 11.317C3.80073 11.1888 3.73987 11.0435 3.71401 10.8912C3.66814 10.6554 3.64691 10.416 3.65062 10.1764C3.64713 9.92759 3.66836 9.67904 3.71401 9.43394C3.73686 9.26922 3.79666 9.1109 3.88945 8.96941C3.91576 8.92443 3.95448 8.8869 4.00156 8.86075C4.04863 8.83462 4.10234 8.82083 4.15704 8.82083C4.21176 8.82083 4.26546 8.83462 4.31254 8.86075C4.35961 8.8869 4.39833 8.92443 4.42463 8.96941C4.51773 9.10597 4.57856 9.25967 4.60302 9.42011C4.64822 9.66572 4.66896 9.91473 4.66494 10.1639C4.68151 10.4916 4.63507 10.8195 4.52784 11.1317C4.43741 11.3474 4.31357 11.4552 4.15631 11.4552C4.10378 11.4534 4.05246 11.44 4.00658 11.4159C3.9607 11.3919 3.92157 11.358 3.8924 11.317Z" fill="white"/>
<path d="M5.74603 9.16581C5.90148 8.89579 6.14619 8.68037 6.44338 8.55196C6.79131 8.41029 7.16856 8.34322 7.54765 8.35564V8.89345C7.09355 8.89345 6.74709 8.99991 6.50677 9.21558C6.26646 9.43127 6.14557 9.75064 6.14557 10.1834C6.14557 10.6161 6.26499 10.9023 6.50531 11.1041C6.74561 11.306 7.09502 11.4083 7.54765 11.4083V11.9392C6.896 11.9392 6.39325 11.7917 6.03942 11.4968C5.68558 11.2019 5.50867 10.7617 5.50867 10.1765C5.49466 9.82611 5.57637 9.47823 5.74603 9.16581Z" fill="white"/>
<path d="M8.58831 8.55284C8.29039 8.68076 8.04505 8.89626 7.88948 9.1667C7.71778 9.4786 7.63404 9.82651 7.64622 10.1773C7.64622 10.7626 7.82313 11.2027 8.17697 11.4977C8.5308 11.7926 9.03355 11.9401 9.6852 11.9401V11.4023C9.23406 11.4023 8.88464 11.3 8.64433 11.0981C8.40401 10.8963 8.28459 10.6032 8.28459 10.1773C8.28459 9.75151 8.40402 9.42661 8.6458 9.21094C8.88759 8.99525 9.23406 8.8888 9.68667 8.8888V8.35098C9.3091 8.34094 8.9339 8.4099 8.58831 8.55284Z" fill="white"/>
<path d="M10.623 8.35648V9.63534L12.342 8.27629V11.9401H11.7051V9.50123L10.623 10.357V11.9401H9.98462V8.35648H10.623Z" fill="white"/>
<path d="M13.2783 9.63448V8.35562H12.6414V11.9392H13.2754V10.3562L14.3575 9.50037V11.9392H14.9944V8.27819L13.2783 9.63448Z" fill="white"/>
</svg>
