<svg width="16" height="16" viewBox="0 0 16 16" fill="none" xmlns="http://www.w3.org/2000/svg">
<path d="M16 8C16 12.4183 12.4183 16 8 16C3.58172 16 0 12.4183 0 8C0 3.58172 3.58172 0 8 0C12.4183 0 16 3.58172 16 8Z" fill="#00B33C"/>
<path fill-rule="evenodd" clip-rule="evenodd" d="M3.14844 9.02905H2.5388C1.58775 9.02905 2.27869 6.96681 3.07935 6.96681H4.0426C4.19703 6.96681 4.46934 6.99586 4.60347 6.60581L4.81075 6H3.48984C2.77453 6 2.21772 6.25726 1.81535 6.6888C1.12036 7.42738 0.884627 8.58091 1.05126 9.13278C1.20977 9.64315 1.64059 9.97925 2.31526 9.98756L2.83956 9.9917H3.48578L3.64429 9.50623C3.76215 9.16183 3.49798 9.02905 3.14844 9.02905ZM10.5699 8.17427L10.769 7.51453H8.64338C8.28979 7.51453 8.13128 7.61411 8.07032 7.82157L7.87117 8.48133H9.9968C10.3504 8.48133 10.5089 8.38174 10.5699 8.17427ZM7.55415 9.3361L7.355 9.99585H9.48063C9.83017 9.99585 9.99274 9.89626 10.0537 9.6888L10.2529 9.02905H8.12723C7.77769 9.02905 7.61918 9.12863 7.55415 9.3361ZM11.0657 6.6639L11.2649 6.00415H9.13923C8.78564 6.00415 8.62713 6.10373 8.56617 6.3112L8.36702 6.97096H10.4927C10.8422 6.97096 11.0007 6.87137 11.0657 6.6639ZM7.85492 6.79668C7.7655 6.18257 7.44441 6.00415 6.66407 6.00415H5.24157L4.41245 8.48133H4.93674C5.24969 8.48133 5.4082 8.48548 5.57484 8.02905L5.9203 6.96681H6.44866C6.8998 6.96681 6.79819 7.54357 6.57059 8.10373C6.36738 8.59751 6.01378 9.0332 5.58703 9.0332H4.70508C4.35148 9.0332 4.18891 9.13278 4.12388 9.34025L3.9044 10H4.55063L5.18466 9.99585C5.74554 9.9917 6.2048 9.95021 6.74129 9.45643C7.3103 8.92946 7.96871 7.57676 7.85492 6.79668ZM15 6H13.7685L12.6102 7.25726C12.476 7.40249 12.3378 7.54771 12.2037 7.71785H12.1915L12.7686 6H11.7648L10.4114 9.99585H11.4153L11.846 8.73859L12.2931 8.3527L12.6467 9.48963C12.7564 9.84232 12.8703 9.99585 13.1142 9.99585H13.8823L13.0938 7.76349L15 6Z" fill="white"/>
</svg>
