<svg width="16" height="16" viewBox="0 0 16 16" fill="none" xmlns="http://www.w3.org/2000/svg">
<path d="M16 8C16 12.4183 12.4183 16 8 16C3.58172 16 0 12.4183 0 8C0 3.58172 3.58172 0 8 0C12.4183 0 16 3.58172 16 8Z" fill="#3F64AE"/>
<path fill-rule="evenodd" clip-rule="evenodd" d="M0.887874 4.33333C1.13276 3.8593 1.42364 3.41289 1.75463 3H8.04205L7.28276 4.33333H0.887874ZM0.0428772 7.16667C0.0901733 6.70971 0.175934 6.26416 0.296866 5.83333H6.42856L5.66927 7.16667H0.0428772ZM0.296866 10.1667C0.175934 9.73584 0.0901735 9.29029 0.0428773 8.83333H4.72016L3.96088 10.1667H0.296866ZM1.75463 13C1.42364 12.5871 1.13276 12.1407 0.887875 11.6667H3.10668L2.34739 13H1.75463ZM10.3 3H13V13H10.6V12H7.9L7.3 13H4.6L10.3 3ZM10.9 9.66667H9.1L10.9 6.33333V9.66667Z" fill="white"/>
</svg>
