<svg width="16" height="16" viewBox="0 0 16 16" fill="none" xmlns="http://www.w3.org/2000/svg">
<path d="M8 16C12.4183 16 16 12.4183 16 8C16 3.58172 12.4183 0 8 0C3.58172 0 0 3.58172 0 8C0 12.4183 3.58172 16 8 16Z" fill="#FC3F1D"/>
<path d="M9.17237 13V4.37329H8.35265C6.8501 4.37329 6.06305 5.08677 6.06305 6.15182C6.06305 7.36016 6.6059 7.92001 7.72892 8.63349L8.65441 9.22584L6 13H4L6.40992 9.63206C5.03336 8.69849 4.25875 7.78706 4.25875 6.24932C4.25875 4.3275 5.66689 3 8.33757 3H11V13H9.17237Z" fill="white"/>
</svg>
