<svg width="16" height="16" viewBox="0 0 16 16" fill="none" xmlns="http://www.w3.org/2000/svg">
<path d="M1.41626 12.2816C3.4949 13.4783 5.56498 14.6921 7.64333 15.8888C7.87707 16.0579 8.18047 16.0214 8.40979 15.8647C10.4819 14.6596 12.5585 13.4595 14.6316 12.2567C14.8733 12.135 15.027 11.8879 14.996 11.6179C14.9913 9.32305 15.0093 7.02729 14.9875 4.73328C13.5171 5.49167 12.1241 6.39346 10.6611 7.16403C10.1408 7.12753 9.81376 6.6171 10.0136 6.13391C11.5182 5.19301 13.1137 4.39 14.623 3.45577C12.5263 2.33468 10.4344 1.2052 8.33601 0.0893345C7.89183 -0.180362 7.45887 0.229832 7.06958 0.407698C5.20433 1.45462 3.2157 2.38219 1.42511 3.49893C3.72806 4.81323 6.02982 6.13159 8.33512 7.44357C8.48682 7.52787 8.6766 7.63476 8.63793 7.83725C8.62583 9.82536 8.66863 11.8161 8.61668 13.8019C8.33247 14.2364 7.73452 14.2376 7.40043 13.8511C7.33993 12.0322 7.40928 10.2089 7.36885 8.38853C5.30438 7.08987 3.12775 5.92968 1.00631 4.70721C0.998641 7.01165 1.00631 9.31639 1.00307 11.6208C0.973555 11.9094 1.16038 12.162 1.41626 12.2816Z" fill="#E11836"/>
</svg>
