<svg width="16" height="16" viewBox="0 0 16 16" fill="none" xmlns="http://www.w3.org/2000/svg">
<circle cx="8" cy="8" r="8" fill="url(#paint0_linear_8159_5929)"/>
<path d="M12.499 7.46386C12.5115 6.96374 12.4095 6.46733 12.2005 6.0121C11.9916 5.55687 11.6493 5.15474 11.2609 4.83605C10.5195 4.25906 9.62113 3.91567 8.68146 3.8501C8.42008 3.58524 8.10905 3.3737 7.76589 3.22739C7.36486 3.07985 6.93923 2.9904 6.51168 3.00082C5.91176 3.00082 5.48565 3.2464 5.32887 3.45396C5.31202 3.47259 5.29912 3.49439 5.29092 3.51807C5.28272 3.54175 5.2794 3.56683 5.28116 3.5918C5.28291 3.61678 5.28971 3.64116 5.30114 3.66347C5.31256 3.68579 5.3284 3.7056 5.34769 3.72173C5.58786 3.87744 5.79003 4.11088 5.92264 4.36344V4.38212H5.90383C5.16459 4.77401 4.56694 5.32178 4.13976 6.03766C3.71258 6.75354 3.49138 7.57208 3.50026 8.40415C3.49505 9.0357 3.61287 9.6623 3.84725 10.2494C4.06938 10.7963 4.35935 11.2912 4.78506 11.7024C5.21528 12.1155 5.72603 12.4369 6.28593 12.6468C6.88714 12.8712 7.52442 13.006 8.16666 12.9998C9.00279 12.9998 9.2288 12.6609 9.24475 12.6419C9.26069 12.6229 9.27983 12.5184 9.14587 12.5279C9.0119 12.5374 8.99277 12.5405 8.79501 12.5152C8.59725 12.4899 7.80223 12.3093 7.77752 11.3877C7.77237 11.1955 7.80396 11.0248 7.87585 10.8463C7.94774 10.6679 8.05558 10.5059 8.19275 10.3702C8.20813 10.3559 8.21923 10.3376 8.22482 10.3173C8.23041 10.2971 8.23029 10.2758 8.22446 10.2556C8.21863 10.2354 8.20732 10.2173 8.19177 10.2031C8.17622 10.1889 8.15703 10.1792 8.13631 10.1751C8.05787 10.1595 7.97802 10.1518 7.89802 10.1523C7.58553 10.1645 7.37375 10.291 7.15555 10.5135C6.95142 10.7216 6.83322 11.109 6.83021 11.3402C6.8272 11.5714 6.847 11.8061 7.00538 12.0645C6.70106 11.8472 6.43151 11.1777 6.35815 10.4925C6.28479 9.80721 6.54414 9.14438 6.90995 8.78736C7.28132 8.43255 7.76297 8.22358 8.27829 8.22993C8.57669 8.21671 8.87182 8.26085 9.1457 8.3792C9.41958 8.49756 9.68174 8.67648 9.87537 8.90231C10.1594 9.2553 10.3555 9.69019 10.4191 10.1376C10.4609 10.4198 10.5215 10.6959 10.741 10.6959C10.7936 10.692 10.8448 10.6775 10.8916 10.6532C10.9383 10.629 10.9795 10.5955 11.0127 10.5548C11.0981 10.4535 11.1624 10.3364 11.2019 10.2103C11.2413 10.0841 11.2552 9.95147 11.2427 9.81998C11.2427 9.79299 11.2427 9.76393 11.2427 9.72865V9.71412H11.2552C11.5133 9.56698 11.7427 9.36238 11.9325 9.13479C12.3137 8.66149 12.5143 8.06972 12.499 7.46386ZM11.2343 8.5619C11.1548 8.65659 11.0643 8.75426 10.9647 8.8278L10.9438 8.84233L10.9312 8.82157C10.7799 8.57457 10.5646 8.33578 10.3537 8.13638C9.79123 7.61677 9.05047 7.32952 8.28221 7.33309C7.90644 7.32636 7.53316 7.39479 7.18458 7.5343C6.836 7.6738 6.51926 7.88154 6.25322 8.14513C5.98718 8.40873 5.82193 8.72279 5.68067 9.06861C5.53941 9.41444 5.46968 9.78495 5.47563 10.1581C5.48499 10.7447 5.53038 10.8863 5.67213 11.2916C5.60942 11.2377 4.39628 10.3826 4.39492 8.40415C4.39071 7.66562 4.60911 6.94273 5.02203 6.32846C5.42467 5.73771 5.98027 5.27726 6.64392 5.00418C6.79702 4.94208 6.95332 4.88803 7.11215 4.84227C6.99015 4.47083 6.78505 4.13162 6.51223 3.8501C6.86226 3.7951 7.18897 3.848 7.5078 4.00165C7.82662 4.15531 8.11585 4.415 8.28891 4.7221L8.46868 4.73455C9.28209 4.75906 10.0421 5.0221 10.6903 5.51064C10.9778 5.74586 11.2388 6.04364 11.3917 6.38091C11.5447 6.71818 11.6174 7.08589 11.6043 7.45556C11.6183 7.85643 11.4871 8.249 11.2343 8.5619Z" fill="white"/>
<defs>
<linearGradient id="paint0_linear_8159_5929" x1="8" y1="0" x2="8" y2="16" gradientUnits="userSpaceOnUse">
<stop stop-color="#DD2969"/>
<stop offset="1" stop-color="#9A00D0"/>
</linearGradient>
</defs>
</svg>
