<svg width="16" height="16" viewBox="0 0 16 16" fill="none" xmlns="http://www.w3.org/2000/svg">
<circle cx="7.99982" cy="1.90814" r="1.90817" fill="#A6CE38"/>
<path d="M6.82465 4.70724C6.82465 5.7611 5.97033 6.61542 4.91647 6.61542C3.86262 6.61542 3.0083 5.7611 3.0083 4.70724C3.0083 3.65339 3.86262 2.79907 4.91647 2.79907C5.97033 2.79907 6.82465 3.65339 6.82465 4.70724Z" fill="#EE1750"/>
<path d="M1.90872 9.90817C2.96258 9.90817 3.81689 9.05385 3.81689 8C3.81689 6.94615 2.96258 6.09183 1.90872 6.09183C0.854867 6.09183 0.000549316 6.94615 0.000549316 8C0.000549316 9.05385 0.854867 9.90817 1.90872 9.90817Z" fill="#EE1750"/>
<path d="M7.99997 9.90817C9.05382 9.90817 9.90814 9.05385 9.90814 8C9.90814 6.94615 9.05382 6.09183 7.99997 6.09183C6.94612 6.09183 6.0918 6.94615 6.0918 8C6.0918 9.05385 6.94612 9.90817 7.99997 9.90817Z" fill="#EE1750"/>
<path d="M16 8C16 9.05385 15.1457 9.90817 14.0918 9.90817C13.038 9.90817 12.1837 9.05385 12.1837 8C12.1837 6.94615 13.038 6.09183 14.0918 6.09183C15.1457 6.09183 16 6.94615 16 8Z" fill="#EE1750"/>
<path d="M7.99997 16C9.05382 16 9.90814 15.1457 9.90814 14.0918C9.90814 13.038 9.05382 12.1837 7.99997 12.1837C6.94612 12.1837 6.0918 13.038 6.0918 14.0918C6.0918 15.1457 6.94612 16 7.99997 16Z" fill="#EE1750"/>
<path d="M6.82465 11.0233C6.82465 12.0772 5.97033 12.9315 4.91647 12.9315C3.86262 12.9315 3.0083 12.0772 3.0083 11.0233C3.0083 9.96946 3.86262 9.11514 4.91647 9.11514C5.97033 9.11514 6.82465 9.96946 6.82465 11.0233Z" fill="#EE1750"/>
<path d="M11.1284 12.9315C12.1822 12.9315 13.0365 12.0772 13.0365 11.0233C13.0365 9.96946 12.1822 9.11514 11.1284 9.11514C10.0745 9.11514 9.22018 9.96946 9.22018 11.0233C9.22018 12.0772 10.0745 12.9315 11.1284 12.9315Z" fill="#EE1750"/>
<path d="M11.1284 6.61542C12.1822 6.61542 13.0366 5.7611 13.0366 4.70724C13.0366 3.65339 12.1822 2.79907 11.1284 2.79907C10.0745 2.79907 9.22021 3.65339 9.22021 4.70724C9.22021 5.7611 10.0745 6.61542 11.1284 6.61542Z" fill="#EE1750"/>
</svg>
