<svg width="16" height="16" viewBox="0 0 16 16" fill="none" xmlns="http://www.w3.org/2000/svg">
<path fill-rule="evenodd" clip-rule="evenodd" d="M1.44464 11.1684C1.90393 10.8617 2.52489 10.9854 2.83161 11.4447C3.82814 12.9369 5.74114 14 8 14C10.2589 14 12.1719 12.9369 13.1684 11.4447C13.4751 10.9854 14.0961 10.8617 14.5554 11.1684C15.0146 11.4751 15.1383 12.0961 14.8316 12.5554C13.4328 14.6499 10.8688 16 8 16C5.13117 16 2.56717 14.6499 1.16839 12.5554C0.861672 12.0961 0.985354 11.4751 1.44464 11.1684Z" fill="#63B441"/>
<path fill-rule="evenodd" clip-rule="evenodd" d="M7 2H10C10.5523 2 11 1.55228 11 1C11 0.447715 10.5523 0 10 0H6.5C5.67157 0 5 0.671573 5 1.5V4C5 4.82843 5.67157 5.5 6.5 5.5H8.5C9.32843 5.5 10 6.17157 10 7C10 7.82843 9.32843 8.5 8.5 8.5H8C7.30478 8.5 6.63804 8.22383 6.14645 7.73223L5.70711 7.29289C5.31658 6.90237 4.68342 6.90237 4.29289 7.29289C3.90237 7.68342 3.90237 8.31658 4.29289 8.70711L4.73223 9.14645C5.5989 10.0131 6.77435 10.5 8 10.5H8.5C10.433 10.5 12 8.933 12 7C12 5.067 10.433 3.5 8.5 3.5H7V2Z" fill="#575756"/>
</svg>
