<svg width="16" height="16" viewBox="0 0 16 16" fill="none" xmlns="http://www.w3.org/2000/svg">
<path fill-rule="evenodd" clip-rule="evenodd" d="M4.71914 4.62469C4.37413 4.19343 4.44405 3.56414 4.87531 3.21913L7.37531 1.21913C7.74053 0.926956 8.25948 0.926956 8.6247 1.21913L11.1247 3.21913C11.556 3.56414 11.6259 4.19343 11.2809 4.62469C10.9359 5.05596 10.3066 5.12588 9.87531 4.78087L8.00001 3.28062L6.1247 4.78087C5.69344 5.12588 5.06415 5.05596 4.71914 4.62469Z" fill="black"/>
<path fill-rule="evenodd" clip-rule="evenodd" d="M4.71914 11.3753C5.06415 10.944 5.69344 10.8741 6.1247 11.2191L8.00001 12.7194L9.87531 11.2191C10.3066 10.8741 10.9359 10.944 11.2809 11.3753C11.6259 11.8066 11.556 12.4359 11.1247 12.7809L8.6247 14.7809C8.25948 15.073 7.74053 15.073 7.37531 14.7809L4.87531 12.7809C4.44405 12.4359 4.37413 11.8066 4.71914 11.3753Z" fill="black"/>
</svg>
