<svg width="24" height="24" viewBox="0 0 24 24" fill="none" xmlns="http://www.w3.org/2000/svg">
<path d="M16.5 10.5C16.5 11.0523 16.0523 11.5 15.5 11.5H13.5V13.5C13.5 14.0523 13.0523 14.5 12.5 14.5C11.9477 14.5 11.5 14.0523 11.5 13.5V11.5L9.5 11.5C8.94771 11.5 8.5 11.0523 8.5 10.5C8.5 9.94771 8.94771 9.5 9.5 9.5L11.5 9.5L11.5 7.5C11.5 6.94772 11.9477 6.5 12.5 6.5C13.0523 6.5 13.5 6.94771 13.5 7.5L13.5 9.50001L15.5 9.50001C16.0523 9.50001 16.5 9.94773 16.5 10.5Z" fill="black"/>
<path fill-rule="evenodd" clip-rule="evenodd" d="M4 2C2.89543 2 2 2.89543 2 4V17C2 18.1046 2.89543 19 4 19H8C8 19 9.9132 21.624 10.6633 21.9633C10.8835 22.0629 11.1143 22.0629 11.3188 21.9633C12.0715 21.5966 14 19 14 19H21C22.1046 19 23 18.1046 23 17V4C23 2.89543 22.1046 2 21 2H4ZM5 4C4.44772 4 4 4.44772 4 5V16C4 16.5523 4.44772 17 5 17H9C9 17 10.8646 19.6166 11 19.6166C11.1354 19.6166 13 17 13 17H20C20.5523 17 21 16.5523 21 16V5C21 4.44772 20.5523 4 20 4H5Z" fill="black"/>
</svg>
