<svg width="24" height="24" viewBox="0 0 24 24" fill="none" xmlns="http://www.w3.org/2000/svg">
<path fill-rule="evenodd" clip-rule="evenodd" d="M17 17.5C17.5523 17.5 18 17.9477 18 18.5V19C18 20.6569 16.6569 22 15 22H4C2.34315 22 1 20.6569 1 19L1 5C1 3.34315 2.34315 2 4 2L15 2C16.6569 2 18 3.34315 18 5V6C18 6.55229 17.5523 7 17 7C16.4477 7 16 6.55228 16 6V5C16 4.44772 15.5523 4 15 4L4 4C3.44771 4 3 4.44772 3 5L3 19C3 19.5523 3.44771 20 4 20H15C15.5523 20 16 19.5523 16 19V18.5C16 17.9477 16.4477 17.5 17 17.5Z" fill="#212121"/>
<path fill-rule="evenodd" clip-rule="evenodd" d="M8 7.5C7.44772 7.5 7 7.94772 7 8.5V12.5C7 13.0523 7.44772 13.5 8 13.5C8.55228 13.5 9 13.0523 9 12.5V8.5C9 7.94772 8.55228 7.5 8 7.5Z" fill="#212121"/>
<path fill-rule="evenodd" clip-rule="evenodd" d="M15 12.5C15 11.9477 14.5523 11.5 14 11.5H6C5.44771 11.5 5 11.9477 5 12.5C5 13.0523 5.44771 13.5 6 13.5H14C14.5523 13.5 15 13.0523 15 12.5Z" fill="#212121"/>
<path fill-rule="evenodd" clip-rule="evenodd" d="M11 6.5C10.4477 6.5 10 6.94772 10 7.5V12.5C10 13.0523 10.4477 13.5 11 13.5C11.5523 13.5 12 13.0523 12 12.5V7.5C12 6.94772 11.5523 6.5 11 6.5Z" fill="#212121"/>
<path fill-rule="evenodd" clip-rule="evenodd" d="M18.5 15C17.1193 15 16 13.8807 16 12.5C16 11.1193 17.1193 10 18.5 10C19.8807 10 21 11.1193 21 12.5C21 13.8807 19.8807 15 18.5 15ZM18.5 17C16.0147 17 14 14.9853 14 12.5C14 10.0147 16.0147 8 18.5 8C20.9853 8 23 10.0147 23 12.5C23 14.9853 20.9853 17 18.5 17Z" fill="#212121"/>
</svg>
