<svg width="24" height="25" viewBox="0 0 24 25" fill="none" xmlns="http://www.w3.org/2000/svg">
<path d="M4 2.09821C2.34315 2.09821 1 3.44135 1 5.09821V19.0982C1 20.7551 2.34315 22.0982 4 22.0982H15C16.6569 22.0982 18 20.7551 18 19.0982V18.5982C18 18.0459 17.5523 17.5982 17 17.5982C16.4477 17.5982 16 18.0459 16 18.5982V19.0982C16 19.6505 15.5523 20.0982 15 20.0982H4C3.44772 20.0982 3 19.6505 3 19.0982V5.09821C3 4.54592 3.44772 4.09821 4 4.09821H15C15.5523 4.09821 16 4.54592 16 5.09821V6.09821C16 6.65049 16.4477 7.09821 17 7.09821C17.5523 7.09821 18 6.65049 18 6.09821V5.09821C18 3.44135 16.6569 2.09821 15 2.09821H4Z" fill="#212121"/>
<path fill-rule="evenodd" clip-rule="evenodd" d="M11 7.09821C11.5523 7.09821 12 7.54592 12 8.09821V12.0982H14.0275C14.2762 9.84823 16.1837 8.09821 18.5 8.09821C20.9853 8.09821 23 10.1129 23 12.5982C23 15.0835 20.9853 17.0982 18.5 17.0982C16.5407 17.0982 14.8738 15.846 14.2561 14.0982H6C5.44772 14.0982 5 13.6505 5 13.0982C5 12.5459 5.44772 12.0982 6 12.0982H7V9.09821C7 8.54592 7.44772 8.09821 8 8.09821C8.55228 8.09821 9 8.54592 9 9.09821V12.0982H10V8.09821C10 7.54592 10.4477 7.09821 11 7.09821ZM18.5 10.0982C17.1193 10.0982 16 11.2175 16 12.5982C16 13.9789 17.1193 15.0982 18.5 15.0982C19.8807 15.0982 21 13.9789 21 12.5982C21 11.2175 19.8807 10.0982 18.5 10.0982Z" fill="#212121"/>
</svg>
