<svg width="24" height="24" viewBox="0 0 24 24" fill="none" xmlns="http://www.w3.org/2000/svg">
<path d="M4 2C2.34315 2 1 3.34315 1 5V19C1 20.6569 2.34315 22 4 22H15C16.6569 22 18 20.6569 18 19V18.5C18 17.9477 17.5523 17.5 17 17.5C16.4477 17.5 16 17.9477 16 18.5V19C16 19.5523 15.5523 20 15 20H4C3.44772 20 3 19.5523 3 19V5C3 4.44772 3.44772 4 4 4H15C15.5523 4 16 4.44772 16 5V6C16 6.55228 16.4477 7 17 7C17.5523 7 18 6.55228 18 6V5C18 3.34315 16.6569 2 15 2H4Z" fill="#212121"/>
<path fill-rule="evenodd" clip-rule="evenodd" d="M11 7C11.5523 7 12 7.44772 12 8V12H14.0275C14.2762 9.75002 16.1837 8 18.5 8C20.9853 8 23 10.0147 23 12.5C23 14.9853 20.9853 17 18.5 17C16.5407 17 14.8738 15.7478 14.2561 14H6C5.44772 14 5 13.5523 5 13C5 12.4477 5.44772 12 6 12H7V9C7 8.44772 7.44772 8 8 8C8.55228 8 9 8.44772 9 9V12H10V8C10 7.44772 10.4477 7 11 7ZM18.5 10C17.1193 10 16 11.1193 16 12.5C16 13.8807 17.1193 15 18.5 15C19.8807 15 21 13.8807 21 12.5C21 11.1193 19.8807 10 18.5 10Z" fill="#212121"/>
</svg>
