<svg width="24" height="24" viewBox="0 0 24 24" fill="none" xmlns="http://www.w3.org/2000/svg">
<path fill-rule="evenodd" clip-rule="evenodd" d="M11.2526 3.33565C11.6195 2.92286 12.2516 2.88568 12.6644 3.2526L21.6644 11.2526C21.8779 11.4424 22 11.7144 22 12C22 12.2856 21.8779 12.5577 21.6644 12.7474L12.6644 20.7474C12.2516 21.1143 11.6195 21.0772 11.2526 20.6644C10.8857 20.2516 10.9229 19.6195 11.3356 19.2526L19.4948 12L11.3356 4.74742C10.9229 4.3805 10.8857 3.74843 11.2526 3.33565Z" fill="#212121"/>
<path fill-rule="evenodd" clip-rule="evenodd" d="M2 12C2 11.4477 2.44772 11 3 11H20C20.5523 11 21 11.4477 21 12C21 12.5523 20.5523 13 20 13H3C2.44772 13 2 12.5523 2 12Z" fill="#212121"/>
</svg>
