<svg width="24" height="25" viewBox="0 0 24 25" fill="none" xmlns="http://www.w3.org/2000/svg">
<path fill-rule="evenodd" clip-rule="evenodd" d="M3.33565 12.8456C2.92286 12.4787 2.88568 11.8466 3.2526 11.4338L11.2526 2.43384C11.4424 2.22035 11.7144 2.09821 12 2.09821C12.2856 2.09821 12.5577 2.22035 12.7474 2.43384L20.7474 11.4338C21.1143 11.8466 21.0772 12.4787 20.6644 12.8456C20.2516 13.2125 19.6195 13.1754 19.2526 12.7626L12 4.6034L4.74742 12.7626C4.3805 13.1754 3.74843 13.2125 3.33565 12.8456Z" fill="#212121"/>
<path fill-rule="evenodd" clip-rule="evenodd" d="M12 22.0982C11.4477 22.0982 11 21.6505 11 21.0982V4.0982C11 3.54592 11.4477 3.0982 12 3.0982C12.5523 3.0982 13 3.54592 13 4.0982V21.0982C13 21.6505 12.5523 22.0982 12 22.0982Z" fill="#212121"/>
</svg>
