<svg width="24" height="24" viewBox="0 0 24 24" fill="none" xmlns="http://www.w3.org/2000/svg">
<path fill-rule="evenodd" clip-rule="evenodd" d="M3.29289 12.2929C3.68342 11.9024 4.31658 11.9024 4.70711 12.2929L12 19.5858L19.2929 12.2929C19.6834 11.9024 20.3166 11.9024 20.7071 12.2929C21.0976 12.6834 21.0976 13.3166 20.7071 13.7071L12.7071 21.7071C12.3166 22.0976 11.6834 22.0976 11.2929 21.7071L3.29289 13.7071C2.90237 13.3166 2.90237 12.6834 3.29289 12.2929Z" fill="#212121"/>
<path fill-rule="evenodd" clip-rule="evenodd" d="M12 21C11.4477 21 11 20.5523 11 20L11 3C11 2.44772 11.4477 2 12 2C12.5523 2 13 2.44772 13 3V20C13 20.5523 12.5523 21 12 21Z" fill="#212121"/>
</svg>
