<svg width="24" height="25" viewBox="0 0 24 25" fill="none" xmlns="http://www.w3.org/2000/svg">
<path d="M12.6644 3.35079C12.2516 2.98387 11.6195 3.02105 11.2526 3.43384C10.8857 3.84662 10.9229 4.47869 11.3356 4.84561L18.3698 11.0982H3C2.44772 11.0982 2 11.5459 2 12.0982C2 12.6505 2.44772 13.0982 3 13.0982H18.3698L11.3356 19.3508C10.9229 19.7177 10.8857 20.3498 11.2526 20.7626C11.6195 21.1753 12.2516 21.2125 12.6644 20.8456L21.6644 12.8456C21.8779 12.6558 22 12.3838 22 12.0982C22 11.8126 21.8779 11.5406 21.6644 11.3508L12.6644 3.35079Z" fill="#212121"/>
</svg>
