<svg width="24" height="24" viewBox="0 0 24 24" fill="none" xmlns="http://www.w3.org/2000/svg">
<path fill-rule="evenodd" clip-rule="evenodd" d="M3.33565 12.7474C2.92286 12.3805 2.88568 11.7484 3.2526 11.3356L11.2526 2.33564C11.4424 2.12215 11.7144 2 12 2C12.2856 2 12.5577 2.12215 12.7474 2.33564L20.7474 11.3356C21.1143 11.7484 21.0772 12.3805 20.6644 12.7474C20.2516 13.1143 19.6195 13.0771 19.2526 12.6644L12 4.5052L4.74742 12.6644C4.3805 13.0771 3.74843 13.1143 3.33565 12.7474Z" fill="#212121"/>
<path fill-rule="evenodd" clip-rule="evenodd" d="M12 22C11.4477 22 11 21.5523 11 21V4C11 3.44771 11.4477 3 12 3C12.5523 3 13 3.44771 13 4V21C13 21.5523 12.5523 22 12 22Z" fill="#212121"/>
</svg>
