<svg width="24" height="24" viewBox="0 0 24 24" fill="none" xmlns="http://www.w3.org/2000/svg">
<path fill-rule="evenodd" clip-rule="evenodd" d="M11.7071 3.29289C12.0976 3.68342 12.0976 4.31658 11.7071 4.70711L4.41421 12L11.7071 19.2929C12.0976 19.6834 12.0976 20.3166 11.7071 20.7071C11.3166 21.0976 10.6834 21.0976 10.2929 20.7071L2.29289 12.7071C1.90237 12.3166 1.90237 11.6834 2.29289 11.2929L10.2929 3.29289C10.6834 2.90237 11.3166 2.90237 11.7071 3.29289Z" fill="#212121"/>
<path fill-rule="evenodd" clip-rule="evenodd" d="M3 12C3 11.4477 3.44772 11 4 11H21C21.5523 11 22 11.4477 22 12C22 12.5523 21.5523 13 21 13H4C3.44772 13 3 12.5523 3 12Z" fill="#212121"/>
</svg>
