<svg width="24" height="24" viewBox="0 0 24 24" fill="none" xmlns="http://www.w3.org/2000/svg">
<path d="M12.6644 3.25259C12.2516 2.88567 11.6195 2.92285 11.2526 3.33563C10.8857 3.74841 10.9229 4.38049 11.3356 4.7474L18.3698 11H3C2.44772 11 2 11.4477 2 12C2 12.5523 2.44772 13 3 13H18.3698L11.3356 19.2526C10.9229 19.6195 10.8857 20.2516 11.2526 20.6644C11.6195 21.0771 12.2516 21.1143 12.6644 20.7474L21.6644 12.7474C21.8779 12.5576 22 12.2856 22 12C22 11.7144 21.8779 11.4424 21.6644 11.2526L12.6644 3.25259Z" fill="#212121"/>
</svg>
