<svg width="24" height="24" viewBox="0 0 24 24" fill="none" xmlns="http://www.w3.org/2000/svg">
<path fill-rule="evenodd" clip-rule="evenodd" d="M6.99994 6H6.85061C5.28389 6 3.981 7.20558 3.85962 8.76758L3.00486 19.7676C2.86941 21.5108 4.24739 23 5.99585 23H11C11.5523 23 12 22.5523 12 22C12 21.4477 11.5523 21 11 21H5.99585C5.41303 21 4.9537 20.5036 4.99885 19.9225L5.85361 8.92253C5.89407 8.40186 6.32837 8 6.85061 8H17.1597C17.6798 8 18.1131 8.39866 18.1563 8.91695L18.5034 13.083C18.5493 13.6334 19.0327 14.0424 19.583 13.9965C20.1334 13.9507 20.5424 13.4673 20.4965 12.917L20.1494 8.75086C20.0198 7.19599 18.72 6 17.1597 6H16.9999C16.9999 3.23858 14.7614 1 11.9999 1C9.23851 1 6.99994 3.23858 6.99994 6ZM8.99994 6C8.99994 4.34315 10.3431 3 11.9999 3C13.6568 3 14.9999 4.34315 14.9999 6H8.99994Z" fill="black"/>
<path d="M17.4999 18.0858L15.707 16.2929C15.3165 15.9024 14.6834 15.9024 14.2928 16.2929C13.9023 16.6834 13.9023 17.3166 14.2928 17.7071L16.0857 19.5L14.2928 21.2929C13.9023 21.6834 13.9023 22.3166 14.2928 22.7071C14.6834 23.0976 15.3165 23.0976 15.707 22.7071L17.4999 20.9142L19.2928 22.7071C19.6834 23.0976 20.3165 23.0976 20.707 22.7071C21.0976 22.3166 21.0976 21.6834 20.707 21.2929L18.9142 19.5L20.707 17.7071C21.0976 17.3166 21.0976 16.6834 20.707 16.2929C20.3165 15.9024 19.6834 15.9024 19.2928 16.2929L17.4999 18.0858Z" fill="black"/>
</svg>
