<svg width="24" height="24" viewBox="0 0 24 24" fill="none" xmlns="http://www.w3.org/2000/svg">
<path fill-rule="evenodd" clip-rule="evenodd" d="M6.85054 6H7C7 3.23858 9.23858 1 12 1C14.7614 1 17 3.23858 17 6H17.1597C18.7199 6 20.0197 7.19599 20.1493 8.75086L20.4965 12.917C20.5423 13.4673 20.1334 13.9507 19.583 13.9965C19.0326 14.0424 18.5492 13.6334 18.5034 13.083L18.1562 8.91695C18.113 8.39866 17.6797 8 17.1597 8H6.85054C6.32831 8 5.89401 8.40186 5.85355 8.92253L4.99879 19.9225C4.95364 20.5036 5.41297 21 5.99579 21H10.9999C11.5522 21 11.9999 21.4477 11.9999 22C11.9999 22.5523 11.5522 23 10.9999 23H5.99579C4.24733 23 2.86935 21.5108 3.0048 19.7676L3.85956 8.76758C3.98094 7.20558 5.28383 6 6.85054 6ZM12 3C10.3431 3 9 4.34315 9 6H15C15 4.34315 13.6569 3 12 3Z" fill="#212121"/>
<path d="M21.8115 17.5843C22.1342 17.1361 22.0325 16.5111 21.5843 16.1884C21.1361 15.8657 20.5112 15.9674 20.1885 16.4156L17.29 20.4413L15.7214 18.8074C15.3389 18.409 14.7059 18.3961 14.3075 18.7786C13.9091 19.161 13.8961 19.7941 14.2786 20.1925L16.6786 22.6925C16.8842 22.9066 17.1743 23.0184 17.4704 22.9975C17.7666 22.9766 18.0381 22.8252 18.2115 22.5843L21.8115 17.5843Z" fill="#212121"/>
</svg>
