<svg width="24" height="25" viewBox="0 0 24 25" fill="none" xmlns="http://www.w3.org/2000/svg">
<path fill-rule="evenodd" clip-rule="evenodd" d="M7.12091 6.09821C7.20161 5.42047 7.3361 4.74767 7.56017 4.13146C7.85589 3.31825 8.32745 2.54009 9.08746 1.97008C9.85461 1.39472 10.8267 1.09821 12 1.09821C13.1733 1.09821 14.1453 1.39472 14.9125 1.97008C15.6725 2.54009 16.144 3.31825 16.4398 4.13146C16.6638 4.74767 16.7983 5.42047 16.879 6.09821H18.6939C20.5196 6.09821 21.922 7.71517 21.6638 9.52247L20.2352 19.5225C20.0241 21.0004 18.7583 22.0982 17.2654 22.0982H6.73456C5.2416 22.0982 3.97584 21.0004 3.76471 19.5225L2.33614 9.52247C2.07795 7.71517 3.48034 6.09821 5.30598 6.09821H7.12091ZM9.13641 6.09821C9.20155 5.63799 9.29775 5.20548 9.43976 4.81495C9.64404 4.25316 9.92248 3.84382 10.2875 3.57008C10.6453 3.30169 11.1733 3.09821 12 3.09821C12.8267 3.09821 13.3546 3.30169 13.7125 3.57008C14.0774 3.84382 14.3559 4.25316 14.5602 4.81495C14.7022 5.20548 14.7984 5.63799 14.8635 6.09821H9.13641ZM7.0043 8.09821C6.99986 8.41645 6.99991 8.72295 6.99995 9.01122L6.99996 9.09821C6.99996 9.65049 7.44768 10.0982 7.99996 10.0982C8.55225 10.0982 8.99996 9.65049 8.99996 9.09821C8.99996 8.76398 9.00052 8.42934 9.00569 8.09821H14.9942C14.9994 8.42934 15 8.76398 15 9.09821C15 9.65049 15.4477 10.0982 16 10.0982C16.5522 10.0982 17 9.65049 17 9.09821L17 9.01122C17 8.72295 17.0001 8.41645 16.9956 8.09821H18.6939C19.3025 8.09821 19.77 8.63719 19.6839 9.23963L18.2553 19.2396C18.1849 19.7323 17.763 20.0982 17.2654 20.0982H6.73456C6.2369 20.0982 5.81498 19.7323 5.74461 19.2396L4.31603 9.23962C4.22997 8.63719 4.69743 8.09821 5.30598 8.09821H7.0043Z" fill="#212121"/>
</svg>
