<svg width="24" height="24" viewBox="0 0 24 24" fill="none" xmlns="http://www.w3.org/2000/svg">
<path fill-rule="evenodd" clip-rule="evenodd" d="M12.0829 1.00067C12.1104 1.00022 12.138 1 12.1657 1V1.00269C14.8504 1.09012 17 3.29403 17 6H17.1494C18.7161 6 20.019 7.20558 20.1404 8.76758L20.9951 19.7676C21.1306 21.5108 19.7526 23 18.0042 23H6.16156C4.4131 23 3.03512 21.5108 3.17057 19.7676L4.02533 8.76758C4.14671 7.20558 5.4496 6 7.01632 6H7.16571C7.16571 3.29403 9.31528 1.09012 12 1.00269V1C12.0277 1 12.0553 1.00022 12.0829 1.00067ZM12.0829 3.00112C10.4643 3.04501 9.16571 4.37085 9.16571 6H15C15 4.37085 13.7014 3.04501 12.0829 3.00112ZM18.0042 21H6.16156C5.57874 21 5.11941 20.5036 5.16456 19.9225L6.01932 8.92253C6.05978 8.40186 6.49408 8 7.01632 8H17.1494C17.6716 8 18.1059 8.40186 18.1464 8.92253L19.0011 19.9225C19.0463 20.5036 18.587 21 18.0042 21Z" fill="black"/>
</svg>
