<svg width="24" height="24" viewBox="0 0 24 24" fill="none" xmlns="http://www.w3.org/2000/svg">
<path fill-rule="evenodd" clip-rule="evenodd" d="M7.12091 6C7.20161 5.32227 7.3361 4.64946 7.56017 4.03326C7.85589 3.22004 8.32745 2.44189 9.08746 1.87187C9.85461 1.29651 10.8267 1 12 1C13.1733 1 14.1453 1.29651 14.9125 1.87187C15.6725 2.44189 16.144 3.22004 16.4398 4.03326C16.6638 4.64946 16.7983 5.32227 16.879 6H18.6939C20.5196 6 21.922 7.61697 21.6638 9.42426L20.2352 19.4243C20.0241 20.9022 18.7583 22 17.2654 22H6.73456C5.2416 22 3.97584 20.9022 3.76471 19.4243L2.33614 9.42426C2.07795 7.61696 3.48034 6 5.30598 6H7.12091ZM9.13641 6C9.20155 5.53978 9.29775 5.10728 9.43976 4.71674C9.64404 4.15496 9.92248 3.74561 10.2875 3.47187C10.6453 3.20349 11.1733 3 12 3C12.8267 3 13.3546 3.20349 13.7125 3.47187C14.0774 3.74561 14.3559 4.15496 14.5602 4.71674C14.7022 5.10728 14.7984 5.53978 14.8635 6H9.13641ZM7.0043 8C6.99986 8.31824 6.99991 8.62474 6.99995 8.91302L6.99996 9C6.99996 9.55228 7.44768 10 7.99996 10C8.55225 10 8.99996 9.55228 8.99996 9C8.99996 8.66577 9.00052 8.33113 9.00569 8H14.9942C14.9994 8.33113 15 8.66577 15 9C15 9.55228 15.4477 10 16 10C16.5522 10 17 9.55228 17 9L17 8.91302C17 8.62474 17.0001 8.31824 16.9956 8H18.6939C19.3025 8 19.77 8.53899 19.6839 9.14142L18.2553 19.1414C18.1849 19.6341 17.763 20 17.2654 20H6.73456C6.2369 20 5.81498 19.6341 5.74461 19.1414L4.31603 9.14142C4.22997 8.53899 4.69743 8 5.30598 8H7.0043Z" fill="black"/>
</svg>
