<svg width="24" height="25" viewBox="0 0 24 25" fill="none" xmlns="http://www.w3.org/2000/svg">
<path fill-rule="evenodd" clip-rule="evenodd" d="M9.00001 6.09821C9.00001 4.44135 10.3432 3.09821 12 3.09821C13.6569 3.09821 15 4.44135 15 6.09821H9.00001ZM7.00001 8.09821V9.09821C7.00001 9.65049 7.44772 10.0982 8.00001 10.0982C8.55229 10.0982 9.00001 9.65049 9.00001 9.09821V8.09821H15V9.09821C15 9.65049 15.4477 10.0982 16 10.0982C16.5523 10.0982 17 9.65049 17 9.09821V8.09821H18.6391C19.257 8.09821 19.7271 8.65307 19.6255 9.2626L19.0136 12.9338C18.9228 13.4786 19.2908 13.9938 19.8356 14.0846C20.3804 14.1754 20.8956 13.8074 20.9864 13.2626L21.5983 9.5914C21.903 7.76281 20.4929 6.09821 18.6391 6.09821H17C17 3.33678 14.7614 1.09821 12 1.09821C9.23858 1.09821 7.00001 3.33678 7.00001 6.09821H5.28437C3.47001 6.09821 2.07089 7.69624 2.31069 9.4947L3.77735 20.4947C3.97608 21.9851 5.24743 23.0982 6.75104 23.0982H11C11.5523 23.0982 12 22.6505 12 22.0982C12 21.5459 11.5523 21.0982 11 21.0982H6.75104C6.24983 21.0982 5.82605 20.7272 5.75981 20.2304L4.29314 9.23037C4.21321 8.63089 4.67958 8.09821 5.28437 8.09821H7.00001Z" fill="#212121"/>
<path fill-rule="evenodd" clip-rule="evenodd" d="M21.5843 16.2867C22.0325 16.6094 22.1342 17.2343 21.8115 17.6825L18.2115 22.6825C18.0381 22.9234 17.7666 23.0748 17.4704 23.0957C17.1743 23.1166 16.8842 23.0049 16.6786 22.7907L14.2786 20.2907C13.8961 19.8923 13.9091 19.2593 14.3075 18.8768C14.7059 18.4943 15.3389 18.5073 15.7214 18.9057L17.29 20.5396L20.1885 16.5139C20.5112 16.0657 21.1361 15.964 21.5843 16.2867Z" fill="#212121"/>
</svg>
