<svg width="24" height="24" viewBox="0 0 24 24" fill="none" xmlns="http://www.w3.org/2000/svg">
<path fill-rule="evenodd" clip-rule="evenodd" d="M9.00001 6C9.00001 4.34315 10.3432 3 12 3C13.6569 3 15 4.34315 15 6H9.00001ZM7.00001 8V9C7.00001 9.55228 7.44772 10 8.00001 10C8.55229 10 9.00001 9.55228 9.00001 9V8H15V9C15 9.55228 15.4477 10 16 10C16.5523 10 17 9.55228 17 9V8H18.6391C19.257 8 19.7271 8.55487 19.6255 9.1644L19.0136 12.8356C18.9228 13.3804 19.2908 13.8956 19.8356 13.9864C20.3804 14.0772 20.8956 13.7092 20.9864 13.1644L21.5983 9.4932C21.903 7.6646 20.4929 6 18.6391 6H17C17 3.23858 14.7614 1 12 1C9.23858 1 7.00001 3.23858 7.00001 6H5.28437C3.47001 6 2.07089 7.59804 2.31069 9.39649L3.77735 20.3965C3.97608 21.8869 5.24743 23 6.75104 23H11C11.5523 23 12 22.5523 12 22C12 21.4477 11.5523 21 11 21H6.75104C6.24983 21 5.82605 20.629 5.75981 20.1322L4.29314 9.13216C4.21321 8.53268 4.67958 8 5.28437 8H7.00001Z" fill="#212121"/>
<path fill-rule="evenodd" clip-rule="evenodd" d="M21.5843 16.1885C22.0325 16.5112 22.1342 17.1361 21.8115 17.5843L18.2115 22.5843C18.0381 22.8252 17.7666 22.9766 17.4704 22.9975C17.1743 23.0184 16.8842 22.9067 16.6786 22.6925L14.2786 20.1925C13.8961 19.7941 13.9091 19.1611 14.3075 18.7786C14.7059 18.3961 15.3389 18.4091 15.7214 18.8075L17.29 20.4414L20.1885 16.4157C20.5112 15.9675 21.1361 15.8658 21.5843 16.1885Z" fill="#212121"/>
</svg>
