<svg width="24" height="24" viewBox="0 0 24 24" fill="none" xmlns="http://www.w3.org/2000/svg">
<path fill-rule="evenodd" clip-rule="evenodd" d="M19.009 16.2929C19.3995 15.9024 20.0327 15.9024 20.4232 16.2929C20.8138 16.6834 20.8138 17.3166 20.4232 17.7071L18.6303 19.5L20.4232 21.2929C20.8138 21.6834 20.8138 22.3166 20.4232 22.7071C20.0327 23.0976 19.3995 23.0976 19.009 22.7071L17.2161 20.9142L15.4232 22.7071C15.0327 23.0976 14.3996 23.0976 14.009 22.7071C13.6185 22.3166 13.6185 21.6834 14.009 21.2929L15.8019 19.5L14.009 17.7071C13.6185 17.3166 13.6185 16.6834 14.009 16.2929C14.3996 15.9024 15.0327 15.9024 15.4232 16.2929L17.2161 18.0858L19.009 16.2929Z" fill="#212121"/>
<path fill-rule="evenodd" clip-rule="evenodd" d="M8.71613 6C8.71613 4.34315 10.0593 3 11.7161 3C13.373 3 14.7161 4.34315 14.7161 6H8.71613ZM6.71613 8V9C6.71613 9.55228 7.16385 10 7.71613 10C8.26842 10 8.71613 9.55228 8.71613 9V8H14.7161V9C14.7161 9.55228 15.1638 10 15.7161 10C16.2684 10 16.7161 9.55228 16.7161 9V8H18.3552C18.9732 8 19.4432 8.55487 19.3416 9.1644L18.7297 12.8356C18.6389 13.3804 19.007 13.8956 19.5517 13.9864C20.0965 14.0772 20.6117 13.7092 20.7025 13.1644L21.3144 9.4932C21.6192 7.6646 20.209 6 18.3552 6H16.7161C16.7161 3.23858 14.4776 1 11.7161 1C8.95471 1 6.71613 3.23858 6.71613 6H5.0005C3.18613 6 1.78702 7.59804 2.02681 9.39649L3.49348 20.3965C3.6922 21.8869 4.96356 23 6.46716 23H10.7161C11.2684 23 11.7161 22.5523 11.7161 22C11.7161 21.4477 11.2684 21 10.7161 21H6.46716C5.96596 21 5.54218 20.629 5.47593 20.1322L4.00927 9.13216C3.92934 8.53268 4.39571 8 5.0005 8H6.71613Z" fill="#212121"/>
</svg>
