<svg width="24" height="25" viewBox="0 0 24 25" fill="none" xmlns="http://www.w3.org/2000/svg">
<path fill-rule="evenodd" clip-rule="evenodd" d="M19.009 16.3911C19.3995 16.0006 20.0327 16.0006 20.4232 16.3911C20.8138 16.7816 20.8138 17.4148 20.4232 17.8053L18.6303 19.5982L20.4232 21.3911C20.8138 21.7816 20.8138 22.4148 20.4232 22.8053C20.0327 23.1958 19.3995 23.1958 19.009 22.8053L17.2161 21.0124L15.4232 22.8053C15.0327 23.1958 14.3996 23.1958 14.009 22.8053C13.6185 22.4148 13.6185 21.7816 14.009 21.3911L15.8019 19.5982L14.009 17.8053C13.6185 17.4148 13.6185 16.7816 14.009 16.3911C14.3996 16.0006 15.0327 16.0006 15.4232 16.3911L17.2161 18.184L19.009 16.3911Z" fill="#212121"/>
<path fill-rule="evenodd" clip-rule="evenodd" d="M8.71613 6.09821C8.71613 4.44135 10.0593 3.09821 11.7161 3.09821C13.373 3.09821 14.7161 4.44135 14.7161 6.09821H8.71613ZM6.71613 8.09821V9.09821C6.71613 9.65049 7.16385 10.0982 7.71613 10.0982C8.26842 10.0982 8.71613 9.65049 8.71613 9.09821V8.09821H14.7161V9.09821C14.7161 9.65049 15.1638 10.0982 15.7161 10.0982C16.2684 10.0982 16.7161 9.65049 16.7161 9.09821V8.09821H18.3552C18.9732 8.09821 19.4432 8.65307 19.3416 9.2626L18.7297 12.9338C18.6389 13.4786 19.007 13.9938 19.5517 14.0846C20.0965 14.1754 20.6117 13.8074 20.7025 13.2626L21.3144 9.5914C21.6192 7.76281 20.209 6.09821 18.3552 6.09821H16.7161C16.7161 3.33678 14.4776 1.09821 11.7161 1.09821C8.95471 1.09821 6.71613 3.33678 6.71613 6.09821H5.0005C3.18613 6.09821 1.78702 7.69624 2.02681 9.4947L3.49348 20.4947C3.6922 21.9851 4.96356 23.0982 6.46716 23.0982H10.7161C11.2684 23.0982 11.7161 22.6505 11.7161 22.0982C11.7161 21.5459 11.2684 21.0982 10.7161 21.0982H6.46716C5.96596 21.0982 5.54218 20.7272 5.47593 20.2304L4.00927 9.23037C3.92934 8.63089 4.39571 8.09821 5.0005 8.09821H6.71613Z" fill="#212121"/>
</svg>
