<svg width="24" height="24" viewBox="0 0 24 24" fill="none" xmlns="http://www.w3.org/2000/svg">
<path d="M1 3.94739C1 2.84282 1.89543 1.94739 3 1.94739H6.5C7.05228 1.94739 7.5 2.3951 7.5 2.94739C7.5 3.49967 7.05228 3.94739 6.5 3.94739H3V7.5C3 8.05228 2.55228 8.5 2 8.5C1.44772 8.5 1 8.05228 1 7.5V3.94739Z" fill="#212121"/>
<path d="M1 20.0526C1 21.1572 1.89543 22.0526 3 22.0526H6.5C7.05228 22.0526 7.5 21.6049 7.5 21.0526C7.5 20.5003 7.05228 20.0526 6.5 20.0526H3V16.5C3 15.9477 2.55228 15.5 2 15.5C1.44772 15.5 1 15.9477 1 16.5V20.0526Z" fill="#212121"/>
<path d="M20.5 1.94739C21.6046 1.94739 22.5 2.84282 22.5 3.94739V7.5C22.5 8.05228 22.0523 8.5 21.5 8.5C20.9477 8.5 20.5 8.05228 20.5 7.5V3.94739H17C16.4477 3.94739 16 3.49967 16 2.94739C16 2.3951 16.4477 1.94739 17 1.94739H20.5Z" fill="#212121"/>
<path d="M22.5 20.0526C22.5 21.1572 21.6046 22.0526 20.5 22.0526H17C16.4477 22.0526 16 21.6049 16 21.0526C16 20.5003 16.4477 20.0526 17 20.0526H20.5V16.5C20.5 15.9477 20.9477 15.5 21.5 15.5C22.0523 15.5 22.5 15.9477 22.5 16.5V20.0526Z" fill="#212121"/>
<path d="M6.5 16.0526C5.94772 16.0526 5.5 15.6049 5.5 15.0526V9C5.5 8.44772 5.94772 8 6.5 8C7.05228 8 7.5 8.44772 7.5 9V15.0526C7.5 15.6049 7.05228 16.0526 6.5 16.0526Z" fill="#212121"/>
<path d="M10 16.0526C9.44772 16.0526 9 15.6049 9 15.0526V9C9 8.44772 9.44772 8 10 8C10.5523 8 11 8.44772 11 9V15.0526C11 15.6049 10.5523 16.0526 10 16.0526Z" fill="#212121"/>
<path d="M12.5 15.0526C12.5 15.6049 12.9477 16.0526 13.5 16.0526C14.0523 16.0526 14.5 15.6049 14.5 15.0526V9C14.5 8.44772 14.0523 8 13.5 8C12.9477 8 12.5 8.44772 12.5 9V15.0526Z" fill="#212121"/>
<path d="M17 16.0526C16.4477 16.0526 16 15.6049 16 15.0526V9C16 8.44772 16.4477 8 17 8C17.5523 8 18 8.44772 18 9V15.0526C18 15.6049 17.5523 16.0526 17 16.0526Z" fill="#212121"/>
</svg>
