<svg width="24" height="25" viewBox="0 0 24 25" fill="none" xmlns="http://www.w3.org/2000/svg">
<path d="M1 4.04559C1 2.94102 1.89543 2.04559 3 2.04559H6.5C7.05228 2.04559 7.5 2.49331 7.5 3.04559C7.5 3.59788 7.05228 4.04559 6.5 4.04559H3V7.59821C3 8.15049 2.55228 8.59821 2 8.59821C1.44772 8.59821 1 8.15049 1 7.59821V4.04559Z" fill="#212121"/>
<path d="M1 20.1508C1 21.2554 1.89543 22.1508 3 22.1508H6.5C7.05228 22.1508 7.5 21.7031 7.5 21.1508C7.5 20.5985 7.05228 20.1508 6.5 20.1508H3V16.5982C3 16.0459 2.55228 15.5982 2 15.5982C1.44772 15.5982 1 16.0459 1 16.5982V20.1508Z" fill="#212121"/>
<path d="M20.5 2.04559C21.6046 2.04559 22.5 2.94102 22.5 4.04559V7.59821C22.5 8.15049 22.0523 8.59821 21.5 8.59821C20.9477 8.59821 20.5 8.15049 20.5 7.59821V4.04559H17C16.4477 4.04559 16 3.59788 16 3.04559C16 2.49331 16.4477 2.04559 17 2.04559H20.5Z" fill="#212121"/>
<path d="M22.5 20.1508C22.5 21.2554 21.6046 22.1508 20.5 22.1508H17C16.4477 22.1508 16 21.7031 16 21.1508C16 20.5985 16.4477 20.1508 17 20.1508H20.5V16.5982C20.5 16.0459 20.9477 15.5982 21.5 15.5982C22.0523 15.5982 22.5 16.0459 22.5 16.5982V20.1508Z" fill="#212121"/>
<path d="M6.5 16.1508C5.94772 16.1508 5.5 15.7031 5.5 15.1508V9.09821C5.5 8.54592 5.94772 8.09821 6.5 8.09821C7.05228 8.09821 7.5 8.54592 7.5 9.09821V15.1508C7.5 15.7031 7.05228 16.1508 6.5 16.1508Z" fill="#212121"/>
<path d="M10 16.1508C9.44772 16.1508 9 15.7031 9 15.1508V9.09821C9 8.54592 9.44772 8.09821 10 8.09821C10.5523 8.09821 11 8.54592 11 9.09821V15.1508C11 15.7031 10.5523 16.1508 10 16.1508Z" fill="#212121"/>
<path d="M12.5 15.1508C12.5 15.7031 12.9477 16.1508 13.5 16.1508C14.0523 16.1508 14.5 15.7031 14.5 15.1508V9.09821C14.5 8.54592 14.0523 8.09821 13.5 8.09821C12.9477 8.09821 12.5 8.54592 12.5 9.09821V15.1508Z" fill="#212121"/>
<path d="M17 16.1508C16.4477 16.1508 16 15.7031 16 15.1508V9.09821C16 8.54592 16.4477 8.09821 17 8.09821C17.5523 8.09821 18 8.54592 18 9.09821V15.1508C18 15.7031 17.5523 16.1508 17 16.1508Z" fill="#212121"/>
</svg>
