<svg width="24" height="24" viewBox="0 0 24 24" fill="none" xmlns="http://www.w3.org/2000/svg">
<path fill-rule="evenodd" clip-rule="evenodd" d="M11 5.28011V7.17071C11.6256 6.9496 12.3744 6.9496 13 7.17071V5.28011C13 3.46856 14.4686 2 16.2801 2C17.7446 2 19.0317 2.97084 19.434 4.37899C19.434 4.37899 22 13.5 22.3205 14.4819C22.6411 15.4637 23 16.0818 23 17C23 19.7614 20.7614 22 18 22C15.2386 22 13 19.7614 13 17V15C13 13.7103 11 13.7103 11 15V17C11 19.7614 8.76142 22 6 22C3.23858 22 1 19.7614 1 17C1 16.0818 1.3589 15.4637 1.67945 14.4819C2 13.5 4.56599 4.37899 4.56599 4.37899C4.96832 2.97084 6.25539 2 7.71989 2C9.53144 2 11 3.46856 11 5.28011ZM9 5.28011C9 3.82939 6.88317 3.54897 6.48903 4.92844L4.39322 12.2638C5.93891 11.7396 7.69281 12.0178 9 12.9996V5.28011ZM11 12.1707C11.6256 11.9496 12.3744 11.9496 13 12.1707V10C13 8.71031 11 8.71031 11 10V12.1707ZM15 12.9996V5.28011C15 3.82939 17.1168 3.54897 17.511 4.92844L19.6068 12.2638C18.0611 11.7396 16.3072 12.0178 15 12.9996ZM3 17C3 18.6569 4.34315 20 6 20C7.65685 20 9 18.6569 9 17C9 15.3431 7.65685 14 6 14C4.34315 14 3 15.3431 3 17ZM21 17C21 18.6569 19.6569 20 18 20C16.3431 20 15 18.6569 15 17C15 15.3431 16.3431 14 18 14C19.6569 14 21 15.3431 21 17Z" fill="#212121"/>
</svg>
