<svg width="24" height="24" viewBox="0 0 24 24" fill="none" xmlns="http://www.w3.org/2000/svg">
<path fill-rule="evenodd" clip-rule="evenodd" d="M11 5.28011V7.17071C11.3128 7.06015 11.6494 7 12 7C12.3506 7 12.6872 7.06015 13 7.17071V5.28011C13 3.46856 14.4686 2 16.2801 2C17.7446 2 19.0317 2.97084 19.434 4.37899L22.3205 14.4819C22.7525 15.2214 23 16.0818 23 17C23 19.7614 20.7614 22 18 22C15.2386 22 13 19.7614 13 17V15C13 14.4477 12.5523 14 12 14C11.4477 14 11 14.4477 11 15V17C11 19.7614 8.76142 22 6 22C3.23858 22 1 19.7614 1 17C1 16.0818 1.24751 15.2214 1.67945 14.4819L4.56599 4.37899C4.96832 2.97084 6.25539 2 7.71989 2C9.53144 2 11 3.46856 11 5.28011ZM9 5.28011C9 4.57312 8.42688 4 7.71989 4C7.14835 4 6.64605 4.37888 6.48903 4.92844L4.39322 12.2638C4.89751 12.0927 5.43792 12 6 12C7.12561 12 8.16434 12.3719 9 12.9996V5.28011ZM11 12.1707C11.3128 12.0602 11.6494 12 12 12C12.3506 12 12.6872 12.0602 13 12.1707V10C13 9.44772 12.5523 9 12 9C11.4477 9 11 9.44772 11 10V12.1707ZM15 12.9996V5.28011C15 4.57312 15.5731 4 16.2801 4C16.8517 4 17.354 4.37888 17.511 4.92844L19.6068 12.2638C19.1025 12.0927 18.5621 12 18 12C16.8744 12 15.8357 12.3719 15 12.9996ZM3 17C3 18.6569 4.34315 20 6 20C7.65685 20 9 18.6569 9 17C9 15.3431 7.65685 14 6 14C4.34315 14 3 15.3431 3 17ZM21 17C21 18.6569 19.6569 20 18 20C16.3431 20 15 18.6569 15 17C15 15.3431 16.3431 14 18 14C19.6569 14 21 15.3431 21 17Z" fill="#212121"/>
</svg>
