<svg width="24" height="25" viewBox="0 0 24 25" fill="none" xmlns="http://www.w3.org/2000/svg">
<path fill-rule="evenodd" clip-rule="evenodd" d="M11 5.37832V7.26891C11.6256 7.04781 12.3744 7.04781 13 7.26891V5.37832C13 3.56676 14.4686 2.09821 16.2801 2.09821C17.7446 2.09821 19.0317 3.06904 19.434 4.4772C19.434 4.4772 22 13.5982 22.3205 14.5801C22.6411 15.5619 23 16.18 23 17.0982C23 19.8596 20.7614 22.0982 18 22.0982C15.2386 22.0982 13 19.8596 13 17.0982V15.0982C13 13.8085 11 13.8085 11 15.0982V17.0982C11 19.8596 8.76142 22.0982 6 22.0982C3.23858 22.0982 1 19.8596 1 17.0982C1 16.18 1.3589 15.5619 1.67945 14.5801C2 13.5982 4.56599 4.4772 4.56599 4.4772C4.96832 3.06904 6.25539 2.09821 7.71989 2.09821C9.53144 2.09821 11 3.56676 11 5.37832ZM9 5.37832C9 3.92759 6.88317 3.64717 6.48903 5.02664L4.39322 12.362C5.93891 11.8378 7.69281 12.116 9 13.0978V5.37832ZM11 12.2689C11.6256 12.0478 12.3744 12.0478 13 12.2689V10.0982C13 8.80851 11 8.80851 11 10.0982V12.2689ZM15 13.0978V5.37832C15 3.92759 17.1168 3.64718 17.511 5.02664L19.6068 12.362C18.0611 11.8378 16.3072 12.116 15 13.0978ZM3 17.0982C3 18.7551 4.34315 20.0982 6 20.0982C7.65685 20.0982 9 18.7551 9 17.0982C9 15.4414 7.65685 14.0982 6 14.0982C4.34315 14.0982 3 15.4414 3 17.0982ZM21 17.0982C21 18.7551 19.6569 20.0982 18 20.0982C16.3431 20.0982 15 18.7551 15 17.0982C15 15.4414 16.3431 14.0982 18 14.0982C19.6569 14.0982 21 15.4414 21 17.0982Z" fill="#212121"/>
</svg>
