<svg width="24" height="24" viewBox="0 0 24 24" fill="none" xmlns="http://www.w3.org/2000/svg">
<path fill-rule="evenodd" clip-rule="evenodd" d="M6.19741 4.2091C7.6985 3.81727 9.63194 3.91888 11.9999 5.00537C14.3679 3.91882 16.3014 3.81721 17.8025 4.20907C19.3631 4.61646 20.359 5.53311 20.8221 6.21957C20.8865 6.31242 20.9356 6.41671 20.9657 6.52878C20.9899 6.61833 21.0011 6.70993 21 6.80092V19.9863C21.0021 20.157 20.9607 20.3264 20.879 20.4772C20.815 20.5952 20.7264 20.7019 20.6148 20.7887C20.5245 20.8592 20.4217 20.9146 20.3104 20.9509C19.9113 21.0814 19.4608 20.9484 19.2 20.6001C19.187 20.5829 19.1746 20.5652 19.1628 20.5471C18.9647 20.2552 18.3826 19.6904 17.3278 19.45C16.2852 19.2125 14.6946 19.2746 12.4649 20.3856C12.3912 20.4243 12.3122 20.4541 12.2291 20.4736C12.1486 20.4926 12.0671 20.5013 11.9864 20.5001C11.9181 20.4992 11.8494 20.4913 11.7814 20.476C11.6942 20.4566 11.6113 20.4258 11.5344 20.3852C9.30501 19.2746 7.71463 19.2125 6.67214 19.45C5.61781 19.6902 5.03579 20.2547 4.83744 20.5467C4.82496 20.5658 4.81185 20.5844 4.79813 20.6025C4.62074 20.838 4.3564 20.9744 4.08027 20.9968C3.956 21.0069 3.82935 20.9939 3.70717 20.9565C3.587 20.9197 3.47645 20.8609 3.38023 20.7849C3.2718 20.6994 3.18535 20.5952 3.12244 20.4799C3.05335 20.3539 3.01063 20.2113 3.00171 20.0596C3.00023 20.0353 2.99965 20.0108 2.99996 19.9863V6.80091C2.99881 6.71093 3.00978 6.62036 3.03337 6.53177C3.06343 6.41854 3.11286 6.3132 3.1779 6.21951C3.641 5.53305 4.63684 4.61646 6.19741 4.2091ZM13 17.9754C14.9056 17.2729 16.4949 17.209 17.7721 17.5C18.2279 17.6039 18.6371 17.7516 19 17.9263V7.13088C18.7068 6.80547 18.1509 6.36705 17.2974 6.14422C16.3465 5.89601 14.9387 5.89345 12.9992 6.74876C12.9997 6.76213 13 6.77556 13 6.78906V17.9754ZM6.70255 6.14426C7.65338 5.89606 9.06122 5.89351 11.0008 6.74882C11.0002 6.76217 11 6.77559 11 6.78906V17.9753C9.09434 17.2729 7.50504 17.209 6.22783 17.5C5.77202 17.6038 5.3628 17.7516 4.99996 17.9263V7.13088C5.2931 6.80548 5.84896 6.36707 6.70255 6.14426Z" fill="#212121"/>
</svg>
