<svg width="24" height="24" viewBox="0 0 24 24" fill="none" xmlns="http://www.w3.org/2000/svg">
<path fill-rule="evenodd" clip-rule="evenodd" d="M12 5.78907C12.5523 5.78907 13 6.23678 13 6.78907V19.5C13 20.0523 12.5523 20.5 12 20.5C11.4478 20.5 11 20.0523 11 19.5V6.78907C11 6.23678 11.4478 5.78907 12 5.78907Z" fill="#212121"/>
<path fill-rule="evenodd" clip-rule="evenodd" d="M20 5.78907C20.5523 5.78907 21 6.23678 21 6.78907V20C21 20.5523 20.5523 21 20 21C19.4478 21 19 20.5523 19 20V6.78907C19 6.23678 19.4478 5.78907 20 5.78907Z" fill="#212121"/>
<path fill-rule="evenodd" clip-rule="evenodd" d="M4.00005 5.78907C4.55233 5.78907 5.00005 6.23678 5.00005 6.78907V20C5.00005 20.5523 4.55233 21 4.00005 21C3.44776 21 3.00005 20.5523 3.00005 20V6.78907C3.00005 6.23678 3.44776 5.78907 4.00005 5.78907Z" fill="#212121"/>
<path fill-rule="evenodd" clip-rule="evenodd" d="M12.8945 6.56151C12.6475 7.05549 12.0468 7.25571 11.5528 7.00872C9.32568 5.89514 7.74141 5.8731 6.70262 6.14426C5.64114 6.42134 5.04007 7.0318 4.8321 7.34377C4.52574 7.8033 3.90487 7.92747 3.44535 7.62112C2.98582 7.31477 2.86164 6.6939 3.16799 6.23437C3.62668 5.54633 4.62561 4.61941 6.19748 4.2091C7.79201 3.79288 9.87441 3.93345 12.4473 5.21987C12.9412 5.46686 13.1415 6.06753 12.8945 6.56151Z" fill="#212121"/>
<path fill-rule="evenodd" clip-rule="evenodd" d="M12.8945 19.9472C12.6475 20.4412 12.0468 20.6414 11.5528 20.3944C9.31382 19.2749 7.71756 19.2118 6.6722 19.45C5.60812 19.6925 5.02513 20.2652 4.8321 20.5547C4.52574 21.0142 3.90487 21.1384 3.44535 20.8321C2.98582 20.5257 2.86164 19.9048 3.16799 19.4453C3.64162 18.7349 4.65863 17.8576 6.22789 17.5C7.81587 17.1382 9.88627 17.3251 12.4473 18.6056C12.9412 18.8526 13.1415 19.4532 12.8945 19.9472Z" fill="#212121"/>
<path fill-rule="evenodd" clip-rule="evenodd" d="M11.1056 6.56145C11.3526 7.05542 11.9533 7.25565 12.4473 7.00866C14.6744 5.89508 16.2587 5.87305 17.2975 6.14423C18.3589 6.42132 18.96 7.03179 19.168 7.34377C19.4743 7.8033 20.0952 7.92747 20.5547 7.62112C21.0143 7.31477 21.1384 6.6939 20.8321 6.23437C20.3734 5.54634 19.3745 4.6194 17.8026 4.20907C16.2081 3.79283 14.1257 3.93338 11.5528 5.2198C11.0589 5.46679 10.8586 6.06747 11.1056 6.56145Z" fill="#212121"/>
<path fill-rule="evenodd" clip-rule="evenodd" d="M11.1056 19.9472C11.3526 20.4412 11.9533 20.6414 12.4473 20.3944C14.6863 19.2749 16.2825 19.2118 17.3279 19.45C18.392 19.6925 18.975 20.2652 19.168 20.5547C19.4743 21.0143 20.0952 21.1384 20.5547 20.8321C21.0143 20.5257 21.1384 19.9049 20.8321 19.4453C20.3585 18.7349 19.3415 17.8576 17.7722 17.5C16.1842 17.1382 14.1138 17.3251 11.5528 18.6056C11.0589 18.8526 10.8586 19.4532 11.1056 19.9472Z" fill="#212121"/>
</svg>
