<svg width="24" height="24" viewBox="0 0 24 24" fill="none" xmlns="http://www.w3.org/2000/svg">
<path d="M12 6.78906V19.5" stroke="#212121" stroke-width="2" stroke-linecap="round"/>
<path d="M20 6.78906V20" stroke="#212121" stroke-width="2" stroke-linecap="round"/>
<path d="M4 6.78906L4 20" stroke="#212121" stroke-width="2" stroke-linecap="round"/>
<path d="M4 6.78906C4.66667 5.78906 7.2 3.71429 12 6.11429" stroke="#212121" stroke-width="2" stroke-linecap="round"/>
<path d="M4 20C4.66667 19 7.2 17.1 12 19.5" stroke="#212121" stroke-width="2" stroke-linecap="round"/>
<path d="M20 6.78906C19.3333 5.78906 16.8 3.71423 12 6.11423" stroke="#212121" stroke-width="2" stroke-linecap="round"/>
<path d="M20 20C19.3333 19 16.8 17.1 12 19.5" stroke="#212121" stroke-width="2" stroke-linecap="round"/>
<path fill-rule="evenodd" clip-rule="evenodd" d="M12 5.78906C12.5523 5.78906 13 6.23677 13 6.78906V19.5C13 20.0523 12.5523 20.5 12 20.5C11.4478 20.5 11 20.0523 11 19.5V6.78906C11 6.23677 11.4478 5.78906 12 5.78906Z" fill="#212121"/>
<path fill-rule="evenodd" clip-rule="evenodd" d="M20 5.78906C20.5523 5.78906 21 6.23677 21 6.78906V20C21 20.5523 20.5523 21 20 21C19.4478 21 19 20.5523 19 20V6.78906C19 6.23677 19.4478 5.78906 20 5.78906Z" fill="#212121"/>
<path fill-rule="evenodd" clip-rule="evenodd" d="M4.00005 5.78906C4.55233 5.78906 5.00005 6.23677 5.00005 6.78906V20C5.00005 20.5523 4.55233 21 4.00005 21C3.44776 21 3.00005 20.5523 3.00005 20V6.78906C3.00005 6.23677 3.44776 5.78906 4.00005 5.78906Z" fill="#212121"/>
<path fill-rule="evenodd" clip-rule="evenodd" d="M12.8945 6.5615C12.6475 7.05548 12.0468 7.2557 11.5528 7.00871C9.32568 5.89513 7.74141 5.87309 6.70262 6.14425C5.64114 6.42133 5.04007 7.03179 4.8321 7.34376C4.52574 7.80329 3.90487 7.92746 3.44535 7.62111C2.98582 7.31475 2.86164 6.69388 3.16799 6.23436C3.62668 5.54632 4.62561 4.6194 6.19748 4.20909C7.79201 3.79286 9.87441 3.93343 12.4473 5.21986C12.9412 5.46685 13.1415 6.06752 12.8945 6.5615Z" fill="#212121"/>
<path fill-rule="evenodd" clip-rule="evenodd" d="M12.8945 19.9472C12.6475 20.4412 12.0468 20.6414 11.5528 20.3944C9.31382 19.2749 7.71756 19.2118 6.6722 19.45C5.60812 19.6925 5.02513 20.2651 4.8321 20.5547C4.52574 21.0142 3.90487 21.1384 3.44535 20.8321C2.98582 20.5257 2.86164 19.9048 3.16799 19.4453C3.64162 18.7349 4.65863 17.8575 6.22789 17.5C7.81587 17.1382 9.88627 17.3251 12.4473 18.6056C12.9412 18.8525 13.1415 19.4532 12.8945 19.9472Z" fill="#212121"/>
<path fill-rule="evenodd" clip-rule="evenodd" d="M11.1056 6.56143C11.3526 7.05541 11.9533 7.25564 12.4473 7.00865C14.6744 5.89507 16.2587 5.87304 17.2975 6.14421C18.3589 6.42131 18.96 7.03178 19.168 7.34376C19.4743 7.80329 20.0952 7.92746 20.5547 7.62111C21.0143 7.31475 21.1384 6.69388 20.8321 6.23436C20.3734 5.54633 19.3745 4.61939 17.8026 4.20906C16.2081 3.79282 14.1257 3.93337 11.5528 5.21979C11.0589 5.46678 10.8586 6.06746 11.1056 6.56143Z" fill="#212121"/>
<path fill-rule="evenodd" clip-rule="evenodd" d="M11.1056 19.9472C11.3526 20.4412 11.9533 20.6414 12.4473 20.3944C14.6863 19.2749 16.2825 19.2118 17.3279 19.45C18.392 19.6925 18.975 20.2652 19.168 20.5547C19.4743 21.0142 20.0952 21.1384 20.5547 20.8321C21.0143 20.5257 21.1384 19.9048 20.8321 19.4453C20.3585 18.7349 19.3415 17.8576 17.7722 17.5C16.1842 17.1382 14.1138 17.3251 11.5528 18.6056C11.0589 18.8526 10.8586 19.4532 11.1056 19.9472Z" fill="#212121"/>
</svg>
