<svg width="24" height="25" viewBox="0 0 24 25" fill="none" xmlns="http://www.w3.org/2000/svg">
<path fill-rule="evenodd" clip-rule="evenodd" d="M6.19741 4.3073C7.6985 3.91547 9.63194 4.01708 11.9999 5.10358C14.3679 4.01702 16.3014 3.91541 17.8025 4.30727C19.3631 4.71467 20.359 5.63131 20.8221 6.31777C20.8865 6.41063 20.9356 6.51492 20.9657 6.62699C20.9899 6.71654 21.0011 6.80813 21 6.89912V20.0845C21.0021 20.2552 20.9607 20.4246 20.879 20.5754C20.815 20.6934 20.7264 20.8001 20.6148 20.8869C20.5245 20.9574 20.4217 21.0128 20.3104 21.0491C19.9113 21.1796 19.4608 21.0466 19.2 20.6983C19.187 20.6811 19.1746 20.6634 19.1628 20.6453C18.9647 20.3534 18.3826 19.7886 17.3278 19.5482C16.2852 19.3107 14.6946 19.3728 12.4649 20.4838C12.3912 20.5225 12.3122 20.5523 12.2291 20.5718C12.1486 20.5908 12.0671 20.5995 11.9864 20.5983C11.9181 20.5975 11.8494 20.5895 11.7814 20.5742C11.6942 20.5548 11.6113 20.524 11.5344 20.4834C9.30501 19.3728 7.71463 19.3107 6.67214 19.5482C5.61781 19.7884 5.03579 20.3529 4.83744 20.6449C4.82496 20.664 4.81185 20.6826 4.79813 20.7007C4.62074 20.9362 4.3564 21.0726 4.08027 21.095C3.956 21.1051 3.82935 21.0921 3.70717 21.0547C3.587 21.0179 3.47645 20.9592 3.38023 20.8831C3.2718 20.7976 3.18535 20.6934 3.12244 20.5781C3.05335 20.4521 3.01063 20.3095 3.00171 20.1578C3.00023 20.1335 2.99965 20.109 2.99996 20.0845V6.89911C2.99881 6.80913 3.00978 6.71857 3.03337 6.62997C3.06343 6.51674 3.11286 6.4114 3.1779 6.31771C3.641 5.63125 4.63684 4.71467 6.19741 4.3073ZM13 18.0736C14.9056 17.3712 16.4949 17.3072 17.7721 17.5982C18.2279 17.7021 18.6371 17.8498 19 18.0245V7.22908C18.7068 6.90367 18.1509 6.46525 17.2974 6.24243C16.3465 5.99422 14.9387 5.99165 12.9992 6.84696C12.9997 6.86033 13 6.87377 13 6.88727V18.0736ZM6.70255 6.24246C7.65338 5.99426 9.06122 5.99171 11.0008 6.84703C11.0002 6.86038 11 6.87379 11 6.88727V18.0736C9.09434 17.3711 7.50504 17.3072 6.22783 17.5982C5.77202 17.702 5.3628 17.8498 4.99996 18.0245V7.22909C5.2931 6.90368 5.84896 6.46528 6.70255 6.24246Z" fill="#212121"/>
</svg>
