<svg width="24" height="24" viewBox="0 0 24 24" fill="none" xmlns="http://www.w3.org/2000/svg">
<path fill-rule="evenodd" clip-rule="evenodd" d="M6.56619 2C5.86366 2 5.21265 2.3686 4.8512 2.97101L2.28501 7.24799C2.09852 7.55882 2 7.9145 2 8.27698V20C2 21.1046 2.89543 22 4 22H20C21.1046 22 22 21.1046 22 20V8.27698C22 7.9145 21.9015 7.55882 21.715 7.24799L19.1488 2.97101C18.7873 2.3686 18.1363 2 17.4338 2H6.56619ZM13 4L17.4338 4L19.2338 7H13V4ZM11 4L6.56619 4L4.76619 7H11V4ZM11 9H4V20H20V9H13H11ZM7 16C6.44772 16 6 16.4477 6 17C6 17.5523 6.44772 18 7 18H10C10.5523 18 11 17.5523 11 17C11 16.4477 10.5523 16 10 16H7Z" fill="#212121"/>
</svg>
