<svg width="24" height="25" viewBox="0 0 24 25" fill="none" xmlns="http://www.w3.org/2000/svg">
<path fill-rule="evenodd" clip-rule="evenodd" d="M6.56619 2.09821C5.86366 2.09821 5.21265 2.4668 4.8512 3.06921L2.28501 7.3462C2.09852 7.65703 2 8.0127 2 8.37519V20.0982C2 21.2028 2.89543 22.0982 4 22.0982H20C21.1046 22.0982 22 21.2028 22 20.0982V8.37519C22 8.0127 21.9015 7.65703 21.715 7.3462L19.1488 3.06921C18.7873 2.4668 18.1363 2.09821 17.4338 2.09821H6.56619ZM13 4.09821L17.4338 4.09821L19.2338 7.09821H13V4.09821ZM11 4.09821L6.56619 4.09821L4.76619 7.09821H11V4.09821ZM11 9.09821H4V20.0982H20V9.09821H13H11ZM7 16.0982C6.44772 16.0982 6 16.5459 6 17.0982C6 17.6505 6.44772 18.0982 7 18.0982H10C10.5523 18.0982 11 17.6505 11 17.0982C11 16.5459 10.5523 16.0982 10 16.0982H7Z" fill="#212121"/>
</svg>
