<svg width="24" height="25" viewBox="0 0 24 25" fill="none" xmlns="http://www.w3.org/2000/svg">
<path fill-rule="evenodd" clip-rule="evenodd" d="M11.8624 2.09816C11.9076 2.09819 11.9535 2.09821 12 2.09821C12.0465 2.09821 12.0924 2.09819 12.1376 2.09816C12.933 2.09773 13.5236 2.09741 14.0353 2.23451C15.4156 2.60438 16.4938 3.68257 16.8637 5.06293C16.9461 5.3704 16.9789 5.7064 16.9918 6.09821L18.8385 6.09821C19.3657 6.09819 19.8205 6.09818 20.195 6.12878C20.5904 6.16108 20.9836 6.2324 21.362 6.42519C21.9265 6.71281 22.3854 7.17175 22.673 7.73624C22.8658 8.11462 22.9371 8.50784 22.9694 8.90318C23 9.27775 23 9.7325 23 10.2596V17.9368C23 18.4639 23 18.9187 22.9694 19.2932C22.9371 19.6886 22.8658 20.0818 22.673 20.4602C22.3854 21.0247 21.9265 21.4836 21.362 21.7712C20.9836 21.964 20.5904 22.0353 20.195 22.0676C19.8205 22.0982 19.3657 22.0982 18.8386 22.0982H5.16144C4.6343 22.0982 4.17954 22.0982 3.80497 22.0676C3.40963 22.0353 3.01641 21.964 2.63803 21.7712C2.07354 21.4836 1.6146 21.0247 1.32698 20.4602C1.13419 20.0818 1.06287 19.6886 1.03057 19.2932C0.999967 18.9187 0.999983 18.4639 1 17.9368V10.2597C0.999983 9.73252 0.999967 9.27775 1.03057 8.90318C1.06287 8.50784 1.13419 8.11462 1.32698 7.73624C1.6146 7.17175 2.07354 6.71281 2.63803 6.42519C3.01641 6.2324 3.40963 6.16108 3.80497 6.12878C4.17955 6.09818 4.63431 6.09819 5.16146 6.09821L7.00822 6.09821C7.02115 5.7064 7.05391 5.3704 7.1363 5.06293C7.50617 3.68257 8.58436 2.60438 9.96473 2.23451C10.4764 2.09741 11.067 2.09773 11.8624 2.09816ZM5.2 8.09821C4.62345 8.09821 4.25117 8.09899 3.96784 8.12214C3.69617 8.14433 3.59546 8.18201 3.54601 8.2072C3.35785 8.30308 3.20487 8.45606 3.109 8.64422C3.0838 8.69366 3.04612 8.79438 3.02393 9.06605C3.00078 9.34938 3 9.72166 3 10.2982V17.8982C3 18.4748 3.00078 18.847 3.02393 19.1304C3.04612 19.402 3.0838 19.5028 3.109 19.5522C3.20487 19.7404 3.35785 19.8933 3.54601 19.9892C3.59546 20.0144 3.69617 20.0521 3.96784 20.0743C4.25117 20.0974 4.62345 20.0982 5.2 20.0982H18.8C19.3766 20.0982 19.7488 20.0974 20.0322 20.0743C20.3038 20.0521 20.4045 20.0144 20.454 19.9892C20.6422 19.8933 20.7951 19.7404 20.891 19.5522C20.9162 19.5028 20.9539 19.402 20.9761 19.1304C20.9992 18.847 21 18.4748 21 17.8982V10.2982C21 9.72166 20.9992 9.34938 20.9761 9.06605C20.9539 8.79438 20.9162 8.69366 20.891 8.64422C20.7951 8.45606 20.6422 8.30308 20.454 8.2072C20.4045 8.18201 20.3038 8.14433 20.0322 8.12214C19.7488 8.09899 19.3766 8.09821 18.8 8.09821H5.2ZM14.9901 6.09821H9.00986C9.01905 5.84064 9.03632 5.69936 9.06815 5.58057C9.25308 4.89039 9.79218 4.35129 10.4824 4.16636C10.7046 4.1068 11.0056 4.09821 12 4.09821C12.9944 4.09821 13.2954 4.1068 13.5176 4.16636C14.2078 4.35129 14.7469 4.89039 14.9319 5.58057C14.9637 5.69936 14.981 5.84064 14.9901 6.09821Z" fill="#212121"/>
</svg>
