<svg width="24" height="24" viewBox="0 0 24 24" fill="none" xmlns="http://www.w3.org/2000/svg">
<path fill-rule="evenodd" clip-rule="evenodd" d="M11.8624 1.99996C11.9076 1.99998 11.9535 2 12 2C12.0465 2 12.0924 1.99998 12.1376 1.99996C12.933 1.99952 13.5236 1.99921 14.0353 2.1363C15.4156 2.50617 16.4938 3.58436 16.8637 4.96473C16.9461 5.2722 16.9789 5.60819 16.9918 6L18.8385 6C19.3657 5.99999 19.8205 5.99997 20.195 6.03057C20.5904 6.06288 20.9836 6.13419 21.362 6.32699C21.9265 6.61461 22.3854 7.07355 22.673 7.63803C22.8658 8.01641 22.9371 8.40963 22.9694 8.80498C23 9.17954 23 9.6343 23 10.1614V17.8386C23 18.3657 23 18.8205 22.9694 19.195C22.9371 19.5904 22.8658 19.9836 22.673 20.362C22.3854 20.9265 21.9265 21.3854 21.362 21.673C20.9836 21.8658 20.5904 21.9371 20.195 21.9694C19.8205 22 19.3657 22 18.8386 22H5.16144C4.6343 22 4.17954 22 3.80497 21.9694C3.40963 21.9371 3.01641 21.8658 2.63803 21.673C2.07354 21.3854 1.6146 20.9265 1.32698 20.362C1.13419 19.9836 1.06287 19.5904 1.03057 19.195C0.999967 18.8205 0.999983 18.3657 1 17.8385V10.1615C0.999983 9.63431 0.999967 9.17955 1.03057 8.80498C1.06287 8.40963 1.13419 8.01641 1.32698 7.63803C1.6146 7.07355 2.07354 6.61461 2.63803 6.32699C3.01641 6.13419 3.40963 6.06288 3.80497 6.03057C4.17955 5.99997 4.63431 5.99999 5.16146 6L7.00822 6C7.02115 5.60819 7.05391 5.2722 7.1363 4.96473C7.50617 3.58436 8.58436 2.50617 9.96473 2.1363C10.4764 1.99921 11.067 1.99952 11.8624 1.99996ZM5.2 8C4.62345 8 4.25117 8.00078 3.96784 8.02393C3.69617 8.04613 3.59546 8.08381 3.54601 8.109C3.35785 8.20487 3.20487 8.35785 3.109 8.54601C3.0838 8.59546 3.04612 8.69618 3.02393 8.96784C3.00078 9.25118 3 9.62345 3 10.2V17.8C3 18.3766 3.00078 18.7488 3.02393 19.0322C3.04612 19.3038 3.0838 19.4046 3.109 19.454C3.20487 19.6422 3.35785 19.7951 3.54601 19.891C3.59546 19.9162 3.69617 19.9539 3.96784 19.9761C4.25117 19.9992 4.62345 20 5.2 20H18.8C19.3766 20 19.7488 19.9992 20.0322 19.9761C20.3038 19.9539 20.4045 19.9162 20.454 19.891C20.6422 19.7951 20.7951 19.6422 20.891 19.454C20.9162 19.4046 20.9539 19.3038 20.9761 19.0322C20.9992 18.7488 21 18.3766 21 17.8V10.2C21 9.62345 20.9992 9.25118 20.9761 8.96784C20.9539 8.69618 20.9162 8.59546 20.891 8.54601C20.7951 8.35785 20.6422 8.20487 20.454 8.109C20.4045 8.08381 20.3038 8.04613 20.0322 8.02393C19.7488 8.00078 19.3766 8 18.8 8H5.2ZM14.9901 6H9.00986C9.01905 5.74243 9.03632 5.60116 9.06815 5.48237C9.25308 4.79218 9.79218 4.25309 10.4824 4.06815C10.7046 4.00859 11.0056 4.00001 12 4.00001C12.9944 4.00001 13.2954 4.00859 13.5176 4.06815C14.2078 4.25309 14.7469 4.79218 14.9319 5.48237C14.9637 5.60116 14.981 5.74243 14.9901 6Z" fill="#212121"/>
</svg>
