<svg width="24" height="25" viewBox="0 0 24 25" fill="none" xmlns="http://www.w3.org/2000/svg">
<path d="M2 6.09821C2 5.54592 2.44772 5.09821 3 5.09821H21C21.5523 5.09821 22 5.54592 22 6.09821C22 6.65049 21.5523 7.09821 21 7.09821H3C2.44772 7.09821 2 6.65049 2 6.09821Z" fill="#212121"/>
<path d="M2 12.0982C2 11.5459 2.44772 11.0982 3 11.0982H21C21.5523 11.0982 22 11.5459 22 12.0982C22 12.6505 21.5523 13.0982 21 13.0982H3C2.44772 13.0982 2 12.6505 2 12.0982Z" fill="#212121"/>
<path d="M3 17.0982C2.44772 17.0982 2 17.5459 2 18.0982C2 18.6505 2.44772 19.0982 3 19.0982H21C21.5523 19.0982 22 18.6505 22 18.0982C22 17.5459 21.5523 17.0982 21 17.0982H3Z" fill="#212121"/>
</svg>
