<svg width="24" height="24" viewBox="0 0 24 24" fill="none" xmlns="http://www.w3.org/2000/svg">
<path fill-rule="evenodd" clip-rule="evenodd" d="M13.0622 6.09259C10.6707 7.4733 9.85134 10.5313 11.2321 12.9227C12.6128 15.3142 15.6707 16.1336 18.0622 14.7528C20.4536 13.3721 21.273 10.3142 19.8923 7.92271C18.5116 5.53125 15.4536 4.71188 13.0622 6.09259ZM9.5 13.9227C7.56701 10.5747 8.71413 6.29353 12.0622 4.36054C15.4102 2.42754 19.6914 3.57467 21.6244 6.92271C23.5574 10.2708 22.4102 14.5519 19.0622 16.4849C15.7141 18.4179 11.433 17.2708 9.5 13.9227Z" fill="black"/>
<path fill-rule="evenodd" clip-rule="evenodd" d="M18.3203 16.1999C18.0645 15.7568 18.0612 15.0513 18.6242 14.7263C19.1872 14.4012 19.7965 14.7568 20.0524 15.1999L22.5491 19.5244C22.805 19.9675 22.8082 20.6729 22.2452 20.998C21.6822 21.3231 21.0729 20.9675 20.8171 20.5244L18.3203 16.1999Z" fill="black"/>
<path fill-rule="evenodd" clip-rule="evenodd" d="M1 4C1 3.44772 1.44772 3 2 3H8C8.55228 3 9 3.44772 9 4C9 4.55228 8.55228 5 8 5H2C1.44772 5 1 4.55228 1 4Z" fill="black"/>
<path fill-rule="evenodd" clip-rule="evenodd" d="M1 9C1 8.44772 1.44772 8 2 8H6C6.55228 8 7 8.44772 7 9C7 9.55228 6.55228 10 6 10H2C1.44772 10 1 9.55228 1 9Z" fill="black"/>
<path fill-rule="evenodd" clip-rule="evenodd" d="M1 14C1 13.4477 1.44772 13 2 13H6C6.55228 13 7 13.4477 7 14C7 14.5523 6.55228 15 6 15H2C1.44772 15 1 14.5523 1 14Z" fill="black"/>
<path fill-rule="evenodd" clip-rule="evenodd" d="M1 19C1 18.4477 1.44772 18 2 18H10C10.5523 18 11 18.4477 11 19C11 19.5523 10.5523 20 10 20H2C1.44772 20 1 19.5523 1 19Z" fill="black"/>
</svg>
