<svg width="24" height="25" viewBox="0 0 24 25" fill="none" xmlns="http://www.w3.org/2000/svg">
<path d="M6 9.09821C5.44772 9.09821 5 9.54592 5 10.0982C5 10.6505 5.44772 11.0982 6 11.0982H18C18.5523 11.0982 19 10.6505 19 10.0982C19 9.54592 18.5523 9.09821 18 9.09821H6Z" fill="#212121"/>
<path fill-rule="evenodd" clip-rule="evenodd" d="M9 2.09821C9 1.54592 8.55228 1.09821 8 1.09821C7.44772 1.09821 7 1.54592 7 2.09821V3.09821H5C3.34315 3.09821 2 4.44135 2 6.09821V19.0982C2 20.7551 3.34315 22.0982 5 22.0982H19C20.6569 22.0982 22 20.7551 22 19.0982V6.09821C22 4.44135 20.6569 3.09821 19 3.09821H17V2.09821C17 1.54592 16.5523 1.09821 16 1.09821C15.4477 1.09821 15 1.54592 15 2.09821V3.09821H9V2.09821ZM15 6.09821V5.09821H9V6.09821C9 6.65049 8.55228 7.09821 8 7.09821C7.44772 7.09821 7 6.65049 7 6.09821V5.09821H5C4.44772 5.09821 4 5.54592 4 6.09821V19.0982C4 19.6505 4.44772 20.0982 5 20.0982H19C19.5523 20.0982 20 19.6505 20 19.0982V6.09821C20 5.54592 19.5523 5.09821 19 5.09821H17V6.09821C17 6.65049 16.5523 7.09821 16 7.09821C15.4477 7.09821 15 6.65049 15 6.09821Z" fill="#212121"/>
</svg>
