<svg width="24" height="24" viewBox="0 0 24 24" fill="none" xmlns="http://www.w3.org/2000/svg">
<path d="M6 9C5.44772 9 5 9.44772 5 10C5 10.5523 5.44772 11 6 11H18C18.5523 11 19 10.5523 19 10C19 9.44772 18.5523 9 18 9H6Z" fill="#212121"/>
<path fill-rule="evenodd" clip-rule="evenodd" d="M9 2C9 1.44772 8.55228 1 8 1C7.44772 1 7 1.44772 7 2V3H5C3.34315 3 2 4.34315 2 6V19C2 20.6569 3.34315 22 5 22H19C20.6569 22 22 20.6569 22 19V6C22 4.34315 20.6569 3 19 3H17V2C17 1.44772 16.5523 1 16 1C15.4477 1 15 1.44772 15 2V3H9V2ZM15 6V5H9V6C9 6.55228 8.55228 7 8 7C7.44772 7 7 6.55228 7 6V5H5C4.44772 5 4 5.44772 4 6V19C4 19.5523 4.44772 20 5 20H19C19.5523 20 20 19.5523 20 19V6C20 5.44772 19.5523 5 19 5H17V6C17 6.55228 16.5523 7 16 7C15.4477 7 15 6.55228 15 6Z" fill="#212121"/>
</svg>
