<svg width="24" height="24" viewBox="0 0 24 24" fill="none" xmlns="http://www.w3.org/2000/svg">
<path fill-rule="evenodd" clip-rule="evenodd" d="M12 8C9.23972 8 7 10.2397 7 13C7 15.7603 9.23972 18 12 18C14.7603 18 17 15.7603 17 13C17 10.2397 14.7603 8 12 8ZM9 13C9 11.3443 10.3443 10 12 10C13.6557 10 15 11.3443 15 13C15 14.6557 13.6557 16 12 16C10.3443 16 9 14.6557 9 13Z" fill="#212121"/>
<path fill-rule="evenodd" clip-rule="evenodd" d="M10.0704 2C9.06731 2 8.13061 2.5013 7.57422 3.3359L6.76168 4.5547C6.57622 4.8329 6.26399 5 5.92963 5H5C2.79086 5 1 6.79086 1 9V18C1 20.2091 2.79086 22 5 22H19C21.2091 22 23 20.2091 23 18V9C23 6.79086 21.2091 5 19 5H18.0704C17.736 5 17.4238 4.8329 17.2383 4.5547L16.4258 3.3359C15.8694 2.5013 14.9327 2 13.9296 2H10.0704ZM9.23832 4.4453C9.42378 4.1671 9.73601 4 10.0704 4H13.9296C14.264 4 14.5762 4.1671 14.7617 4.4453L15.5742 5.6641C16.1306 6.4987 17.0673 7 18.0704 7H19C20.1046 7 21 7.89543 21 9V18C21 19.1046 20.1046 20 19 20H5C3.89543 20 3 19.1046 3 18V9C3 7.89543 3.89543 7 5 7H5.92963C6.93269 7 7.86939 6.4987 8.42578 5.6641L9.23832 4.4453Z" fill="#212121"/>
</svg>
