<svg width="24" height="25" viewBox="0 0 24 25" fill="none" xmlns="http://www.w3.org/2000/svg">
<path fill-rule="evenodd" clip-rule="evenodd" d="M12 8.09821C9.23972 8.09821 7 10.3379 7 13.0982C7 15.8585 9.23972 18.0982 12 18.0982C14.7603 18.0982 17 15.8585 17 13.0982C17 10.3379 14.7603 8.09821 12 8.09821ZM9 13.0982C9 11.4425 10.3443 10.0982 12 10.0982C13.6557 10.0982 15 11.4425 15 13.0982C15 14.7539 13.6557 16.0982 12 16.0982C10.3443 16.0982 9 14.7539 9 13.0982Z" fill="#212121"/>
<path fill-rule="evenodd" clip-rule="evenodd" d="M10.0704 2.09821C9.06731 2.09821 8.13061 2.59951 7.57422 3.4341L6.76168 4.65291C6.57622 4.9311 6.26399 5.09821 5.92963 5.09821H5C2.79086 5.09821 1 6.88907 1 9.09821V18.0982C1 20.3073 2.79086 22.0982 5 22.0982H19C21.2091 22.0982 23 20.3073 23 18.0982V9.09821C23 6.88907 21.2091 5.09821 19 5.09821H18.0704C17.736 5.09821 17.4238 4.9311 17.2383 4.65291L16.4258 3.4341C15.8694 2.59951 14.9327 2.09821 13.9296 2.09821H10.0704ZM9.23832 4.54351C9.42378 4.26531 9.73601 4.09821 10.0704 4.09821H13.9296C14.264 4.09821 14.5762 4.26531 14.7617 4.54351L15.5742 5.76231C16.1306 6.5969 17.0673 7.09821 18.0704 7.09821H19C20.1046 7.09821 21 7.99364 21 9.09821V18.0982C21 19.2028 20.1046 20.0982 19 20.0982H5C3.89543 20.0982 3 19.2028 3 18.0982V9.09821C3 7.99364 3.89543 7.09821 5 7.09821H5.92963C6.93269 7.09821 7.86939 6.5969 8.42578 5.76231L9.23832 4.54351Z" fill="#212121"/>
</svg>
