<svg width="24" height="24" viewBox="0 0 24 24" fill="none" xmlns="http://www.w3.org/2000/svg">
<path fill-rule="evenodd" clip-rule="evenodd" d="M12 3C10.3431 3 9 4.34315 9 6V8H6.43675C5.54641 8 4.70207 8.39547 4.13209 9.07945L0.695336 13.2035C0.246049 13.7427 0 14.4223 0 15.1241V16C0 17.3121 0.842366 18.4275 2.01581 18.8348C2.18436 20.6108 3.67994 22 5.5 22C7.26324 22 8.72194 20.6961 8.96456 19H15.0354C15.2781 20.6961 16.7368 22 18.5 22C20.3201 22 21.8156 20.6108 21.9842 18.8348C23.1576 18.4275 24 17.3121 24 16V6C24 4.34315 22.6569 3 21 3H12ZM21.5716 16.8207C21.8306 16.64 22 16.3398 22 16V6C22 5.44772 21.5523 5 21 5H12C11.4477 5 11 5.44772 11 6V14C11 14.5523 10.5523 15 10 15C9.44772 15 9 14.5523 9 14V10H6.43675C6.13997 10 5.85852 10.1318 5.66853 10.3598L2.23178 14.4839C2.08202 14.6636 2 14.8902 2 15.1241V16C2 16.3398 2.16945 16.64 2.42845 16.8207C3.02292 15.7357 4.17555 15 5.5 15C6.8962 15 8.10145 15.8175 8.66319 17H15.3368C15.8985 15.8175 17.1038 15 18.5 15C19.8245 15 20.9771 15.7357 21.5716 16.8207ZM7 18.5C7 19.3284 6.32843 20 5.5 20C4.67157 20 4 19.3284 4 18.5C4 17.6716 4.67157 17 5.5 17C6.32843 17 7 17.6716 7 18.5ZM18.5 20C19.3284 20 20 19.3284 20 18.5C20 17.6716 19.3284 17 18.5 17C17.6716 17 17 17.6716 17 18.5C17 19.3284 17.6716 20 18.5 20Z" fill="#212121"/>
</svg>
