<svg width="24" height="25" viewBox="0 0 24 25" fill="none" xmlns="http://www.w3.org/2000/svg">
<path fill-rule="evenodd" clip-rule="evenodd" d="M12 3.09821C10.3431 3.09821 9 4.44135 9 6.09821V8.09821H6.43675C5.54641 8.09821 4.70207 8.49368 4.13209 9.17765L0.695336 13.3018C0.246049 13.8409 0 14.5205 0 15.2223V16.0982C0 17.4103 0.842366 18.5257 2.01581 18.933C2.18436 20.709 3.67994 22.0982 5.5 22.0982C7.26324 22.0982 8.72194 20.7944 8.96456 19.0982H15.0354C15.2781 20.7944 16.7368 22.0982 18.5 22.0982C20.3201 22.0982 21.8156 20.709 21.9842 18.933C23.1576 18.5257 24 17.4103 24 16.0982V6.09821C24 4.44135 22.6569 3.09821 21 3.09821H12ZM21.5716 16.9189C21.8306 16.7382 22 16.438 22 16.0982V6.09821C22 5.54592 21.5523 5.09821 21 5.09821H12C11.4477 5.09821 11 5.54592 11 6.09821V14.0982C11 14.6505 10.5523 15.0982 10 15.0982C9.44772 15.0982 9 14.6505 9 14.0982V10.0982H6.43675C6.13997 10.0982 5.85852 10.23 5.66853 10.458L2.23178 14.5821C2.08202 14.7618 2 14.9884 2 15.2223V16.0982C2 16.438 2.16945 16.7382 2.42845 16.9189C3.02292 15.8339 4.17555 15.0982 5.5 15.0982C6.8962 15.0982 8.10145 15.9157 8.66319 17.0982H15.3368C15.8985 15.9157 17.1038 15.0982 18.5 15.0982C19.8245 15.0982 20.9771 15.8339 21.5716 16.9189ZM7 18.5982C7 19.4266 6.32843 20.0982 5.5 20.0982C4.67157 20.0982 4 19.4266 4 18.5982C4 17.7698 4.67157 17.0982 5.5 17.0982C6.32843 17.0982 7 17.7698 7 18.5982ZM18.5 20.0982C19.3284 20.0982 20 19.4266 20 18.5982C20 17.7698 19.3284 17.0982 18.5 17.0982C17.6716 17.0982 17 17.7698 17 18.5982C17 19.4266 17.6716 20.0982 18.5 20.0982Z" fill="#212121"/>
</svg>
