<svg width="24" height="24" viewBox="0 0 24 24" fill="none" xmlns="http://www.w3.org/2000/svg">
<path d="M10 13C10.5523 13 11 13.4477 11 14C11 14.5523 10.5523 15 10 15H7C6.44772 15 6 14.5523 6 14C6 13.4477 6.44772 13 7 13H10Z" fill="black"/>
<path fill-rule="evenodd" clip-rule="evenodd" d="M2 17C2 18.6569 3.34315 20 5 20H19C20.6569 20 22 18.6569 22 17V7C22 5.34315 20.6569 4 19 4H5C3.34315 4 2 5.34315 2 7V17ZM20 9V7C20 6.44772 19.5523 6 19 6H5C4.44772 6 4 6.44772 4 7V9H20ZM4 11V17C4 17.5523 4.44772 18 5 18H19C19.5523 18 20 17.5523 20 17V11H4Z" fill="black"/>
</svg>
