<svg width="24" height="25" viewBox="0 0 24 25" fill="none" xmlns="http://www.w3.org/2000/svg">
<path fill-rule="evenodd" clip-rule="evenodd" d="M5 6.09821C4.44772 6.09821 4 6.54592 4 7.09821V17.0982C4 17.6505 4.44772 18.0982 5 18.0982H19C19.5523 18.0982 20 17.6505 20 17.0982V7.09821C20 6.54592 19.5523 6.09821 19 6.09821H5ZM2 7.09821C2 5.44135 3.34315 4.09821 5 4.09821H19C20.6569 4.09821 22 5.44135 22 7.09821V17.0982C22 18.7551 20.6569 20.0982 19 20.0982H5C3.34315 20.0982 2 18.7551 2 17.0982V7.09821Z" fill="#212121"/>
<path fill-rule="evenodd" clip-rule="evenodd" d="M4 10.0982H21H4Z" fill="#212121"/>
<path fill-rule="evenodd" clip-rule="evenodd" d="M3 10.0982C3 9.54592 3.44772 9.09821 4 9.09821H21C21.5523 9.09821 22 9.54592 22 10.0982C22 10.6505 21.5523 11.0982 21 11.0982H4C3.44772 11.0982 3 10.6505 3 10.0982Z" fill="#212121"/>
<path d="M14 15.0982C14 14.5459 14.4477 14.0982 15 14.0982H17C17.5523 14.0982 18 14.5459 18 15.0982C18 15.6505 17.5523 16.0982 17 16.0982H15C14.4477 16.0982 14 15.6505 14 15.0982Z" fill="#212121"/>
</svg>
