<svg width="24" height="24" viewBox="0 0 24 24" fill="none" xmlns="http://www.w3.org/2000/svg">
<path fill-rule="evenodd" clip-rule="evenodd" d="M5 6C4.44772 6 4 6.44772 4 7V17C4 17.5523 4.44772 18 5 18H19C19.5523 18 20 17.5523 20 17V7C20 6.44772 19.5523 6 19 6H5ZM2 7C2 5.34315 3.34315 4 5 4H19C20.6569 4 22 5.34315 22 7V17C22 18.6569 20.6569 20 19 20H5C3.34315 20 2 18.6569 2 17V7Z" fill="#212121"/>
<path fill-rule="evenodd" clip-rule="evenodd" d="M4 10H21H4Z" fill="#212121"/>
<path fill-rule="evenodd" clip-rule="evenodd" d="M3 10C3 9.44772 3.44772 9 4 9H21C21.5523 9 22 9.44772 22 10C22 10.5523 21.5523 11 21 11H4C3.44772 11 3 10.5523 3 10Z" fill="#212121"/>
<path d="M14 15C14 14.4477 14.4477 14 15 14H17C17.5523 14 18 14.4477 18 15C18 15.5523 17.5523 16 17 16H15C14.4477 16 14 15.5523 14 15Z" fill="#212121"/>
</svg>
