<svg width="24" height="24" viewBox="0 0 24 24" fill="none" xmlns="http://www.w3.org/2000/svg">
<path fill-rule="evenodd" clip-rule="evenodd" d="M0 3C0 2.44772 0.447715 2 1 2H4C4.439 2 4.82667 2.28632 4.95578 2.70591L8.73857 15H18.2192L19.7192 9H10C9.44771 9 9 8.55228 9 8C9 7.44772 9.44771 7 10 7H21C21.3079 7 21.5987 7.14187 21.7882 7.38459C21.9777 7.6273 22.0448 7.94379 21.9701 8.24254L19.9701 16.2425C19.8589 16.6877 19.4589 17 19 17H8C7.561 17 7.17333 16.7137 7.04422 16.2941L3.26143 4H1C0.447715 4 0 3.55228 0 3Z" fill="#212121"/>
<path d="M12 21C12 22.1046 11.1046 23 10 23C8.89543 23 8 22.1046 8 21C8 19.8954 8.89543 19 10 19C11.1046 19 12 19.8954 12 21Z" fill="#212121"/>
<path d="M19 21C19 22.1046 18.1046 23 17 23C15.8954 23 15 22.1046 15 21C15 19.8954 15.8954 19 17 19C18.1046 19 19 19.8954 19 21Z" fill="#212121"/>
</svg>
