<svg width="24" height="25" viewBox="0 0 24 25" fill="none" xmlns="http://www.w3.org/2000/svg">
<path fill-rule="evenodd" clip-rule="evenodd" d="M0 3.09821C0 2.54592 0.447715 2.09821 1 2.09821H4C4.439 2.09821 4.82667 2.38453 4.95578 2.80412L8.73857 15.0982H18.2192L19.7192 9.09821H10C9.44771 9.09821 9 8.65049 9 8.09821C9 7.54592 9.44771 7.09821 10 7.09821H21C21.3079 7.09821 21.5987 7.24008 21.7882 7.48279C21.9777 7.72551 22.0448 8.042 21.9701 8.34074L19.9701 16.3407C19.8589 16.7859 19.4589 17.0982 19 17.0982H8C7.561 17.0982 7.17333 16.8119 7.04422 16.3923L3.26143 4.09821H1C0.447715 4.09821 0 3.65049 0 3.09821Z" fill="#212121"/>
<path d="M12 21.0982C12 22.2028 11.1046 23.0982 10 23.0982C8.89543 23.0982 8 22.2028 8 21.0982C8 19.9936 8.89543 19.0982 10 19.0982C11.1046 19.0982 12 19.9936 12 21.0982Z" fill="#212121"/>
<path d="M19 21.0982C19 22.2028 18.1046 23.0982 17 23.0982C15.8954 23.0982 15 22.2028 15 21.0982C15 19.9936 15.8954 19.0982 17 19.0982C18.1046 19.0982 19 19.9936 19 21.0982Z" fill="#212121"/>
</svg>
