<svg width="24" height="24" viewBox="0 0 24 24" fill="none" xmlns="http://www.w3.org/2000/svg">
<path d="M1 4C1 3.44772 1.44772 3 2 3H8C8.55228 3 9 3.44772 9 4C9 4.55228 8.55228 5 8 5H2C1.44772 5 1 4.55228 1 4Z" fill="#212121"/>
<path d="M1 9C1 8.44772 1.44772 8 2 8H6C6.55228 8 7 8.44772 7 9C7 9.55228 6.55228 10 6 10H2C1.44772 10 1 9.55228 1 9Z" fill="#212121"/>
<path d="M1 14C1 13.4477 1.44772 13 2 13H6C6.55228 13 7 13.4477 7 14C7 14.5523 6.55228 15 6 15H2C1.44772 15 1 14.5523 1 14Z" fill="#212121"/>
<path d="M1 19C1 18.4477 1.44772 18 2 18H10C10.5523 18 11 18.4477 11 19C11 19.5523 10.5523 20 10 20H2C1.44772 20 1 19.5523 1 19Z" fill="#212121"/>
<path fill-rule="evenodd" clip-rule="evenodd" d="M9 10C9 6.13401 12.134 3 16 3C19.866 3 23 6.13401 23 10C23 12.2695 21.9199 14.2868 20.2458 15.5658L22.8321 19.4453C23.1384 19.9048 23.0142 20.5257 22.5547 20.832C22.0952 21.1384 21.4743 21.0142 21.168 20.5547L18.4934 16.5429C17.7188 16.8382 16.8783 17 16 17C12.134 17 9 13.866 9 10ZM16 5C13.2386 5 11 7.23858 11 10C11 12.7614 13.2386 15 16 15C18.7614 15 21 12.7614 21 10C21 7.23858 18.7614 5 16 5Z" fill="#212121"/>
</svg>
