<svg width="24" height="25" viewBox="0 0 24 25" fill="none" xmlns="http://www.w3.org/2000/svg">
<path d="M1 4.09821C1 3.54592 1.44772 3.09821 2 3.09821H8C8.55228 3.09821 9 3.54592 9 4.09821C9 4.65049 8.55228 5.09821 8 5.09821H2C1.44772 5.09821 1 4.65049 1 4.09821Z" fill="#212121"/>
<path d="M1 9.09821C1 8.54592 1.44772 8.09821 2 8.09821H6C6.55228 8.09821 7 8.54592 7 9.09821C7 9.65049 6.55228 10.0982 6 10.0982H2C1.44772 10.0982 1 9.65049 1 9.09821Z" fill="#212121"/>
<path d="M1 14.0982C1 13.5459 1.44772 13.0982 2 13.0982H6C6.55228 13.0982 7 13.5459 7 14.0982C7 14.6505 6.55228 15.0982 6 15.0982H2C1.44772 15.0982 1 14.6505 1 14.0982Z" fill="#212121"/>
<path d="M1 19.0982C1 18.5459 1.44772 18.0982 2 18.0982H10C10.5523 18.0982 11 18.5459 11 19.0982C11 19.6505 10.5523 20.0982 10 20.0982H2C1.44772 20.0982 1 19.6505 1 19.0982Z" fill="#212121"/>
<path fill-rule="evenodd" clip-rule="evenodd" d="M9 10.0982C9 6.23221 12.134 3.09821 16 3.09821C19.866 3.09821 23 6.23221 23 10.0982C23 12.3677 21.9199 14.385 20.2458 15.664L22.8321 19.5435C23.1384 20.003 23.0142 20.6239 22.5547 20.9303C22.0952 21.2366 21.4743 21.1124 21.168 20.6529L18.4934 16.6411C17.7188 16.9364 16.8783 17.0982 16 17.0982C12.134 17.0982 9 13.9642 9 10.0982ZM16 5.09821C13.2386 5.09821 11 7.33678 11 10.0982C11 12.8596 13.2386 15.0982 16 15.0982C18.7614 15.0982 21 12.8596 21 10.0982C21 7.33678 18.7614 5.09821 16 5.09821Z" fill="#212121"/>
</svg>
