<svg width="24" height="25" viewBox="0 0 24 25" fill="none" xmlns="http://www.w3.org/2000/svg">
<path d="M5 2.09821C3.89543 2.09821 3 2.99364 3 4.09821V20.0982C3 21.2028 3.89543 22.0982 5 22.0982H10C10.5523 22.0982 11 21.6505 11 21.0982C11 20.5459 10.5523 20.0982 10 20.0982H5V4.09821L19 4.09821V10.51C19 11.0623 19.4477 11.51 20 11.51C20.5523 11.51 21 11.0623 21 10.51V4.09821C21 2.99364 20.1046 2.09821 19 2.09821H5Z" fill="#212121"/>
<path d="M7 8.09821C7 7.54592 7.44772 7.09821 8 7.09821H16C16.5523 7.09821 17 7.54592 17 8.09821C17 8.65049 16.5523 9.09821 16 9.09821H8C7.44772 9.09821 7 8.65049 7 8.09821Z" fill="#212121"/>
<path d="M7 13.0982C7 12.5459 7.44772 12.0982 8 12.0982H11C11.5523 12.0982 12 12.5459 12 13.0982C12 13.6505 11.5523 14.0982 11 14.0982H8C7.44772 14.0982 7 13.6505 7 13.0982Z" fill="#212121"/>
<path d="M19.6757 16.3611C20.0828 16.7343 20.1103 17.3668 19.7372 17.7739L17.9038 19.7739C17.5394 20.1715 16.9254 20.2085 16.5159 19.8575L15.3492 18.8575C14.9299 18.498 14.8813 17.8667 15.2407 17.4474C15.6002 17.0281 16.2315 16.9795 16.6508 17.339L17.0831 17.7095L18.2628 16.4225C18.636 16.0154 19.2686 15.9879 19.6757 16.3611Z" fill="#212121"/>
<path fill-rule="evenodd" clip-rule="evenodd" d="M17.5 12.0982C14.4624 12.0982 12 14.5606 12 17.5982C12 20.6358 14.4624 23.0982 17.5 23.0982C20.5376 23.0982 23 20.6358 23 17.5982C23 14.5606 20.5376 12.0982 17.5 12.0982ZM14 17.5982C14 15.6652 15.567 14.0982 17.5 14.0982C19.433 14.0982 21 15.6652 21 17.5982C21 19.5312 19.433 21.0982 17.5 21.0982C15.567 21.0982 14 19.5312 14 17.5982Z" fill="#212121"/>
</svg>
