<svg width="24" height="24" viewBox="0 0 24 24" fill="none" xmlns="http://www.w3.org/2000/svg">
<path d="M5 2C3.89543 2 3 2.89543 3 4V20C3 21.1046 3.89543 22 5 22H10C10.5523 22 11 21.5523 11 21C11 20.4477 10.5523 20 10 20H5V4L19 4V10.4118C19 10.9641 19.4477 11.4118 20 11.4118C20.5523 11.4118 21 10.9641 21 10.4118V4C21 2.89543 20.1046 2 19 2H5Z" fill="#212121"/>
<path d="M7 8C7 7.44772 7.44772 7 8 7H16C16.5523 7 17 7.44772 17 8C17 8.55228 16.5523 9 16 9H8C7.44772 9 7 8.55228 7 8Z" fill="#212121"/>
<path d="M7 13C7 12.4477 7.44772 12 8 12H11C11.5523 12 12 12.4477 12 13C12 13.5523 11.5523 14 11 14H8C7.44772 14 7 13.5523 7 13Z" fill="#212121"/>
<path d="M19.6757 16.2629C20.0828 16.636 20.1103 17.2686 19.7372 17.6757L17.9038 19.6757C17.5394 20.0733 16.9254 20.1102 16.5159 19.7593L15.3492 18.7593C14.9299 18.3998 14.8813 17.7685 15.2407 17.3492C15.6002 16.9299 16.2315 16.8813 16.6508 17.2407L17.0831 17.6113L18.2628 16.3243C18.636 15.9172 19.2686 15.8897 19.6757 16.2629Z" fill="#212121"/>
<path fill-rule="evenodd" clip-rule="evenodd" d="M17.5 12C14.4624 12 12 14.4624 12 17.5C12 20.5376 14.4624 23 17.5 23C20.5376 23 23 20.5376 23 17.5C23 14.4624 20.5376 12 17.5 12ZM14 17.5C14 15.567 15.567 14 17.5 14C19.433 14 21 15.567 21 17.5C21 19.433 19.433 21 17.5 21C15.567 21 14 19.433 14 17.5Z" fill="#212121"/>
</svg>
