<svg width="24" height="25" viewBox="0 0 24 25" fill="none" xmlns="http://www.w3.org/2000/svg">
<path fill-rule="evenodd" clip-rule="evenodd" d="M14.0413 2.44892C15.864 0.645923 18.8138 0.648267 20.6336 2.45416C22.462 4.26857 22.4545 7.2126 20.6169 9.01781L11.5685 17.9066C10.5095 18.947 8.83673 19.0454 7.66118 18.1365C6.2325 17.0319 6.12719 14.9254 7.43869 13.6859L16.6286 5.00052C17.0405 4.61121 17.6925 4.62699 18.0848 5.03576C18.4771 5.44453 18.4612 6.0915 18.0492 6.48081L8.85936 15.1661C8.45923 15.5443 8.49136 16.187 8.92723 16.524C9.28588 16.8013 9.79621 16.7712 10.1193 16.4538L19.1676 7.56505C20.1938 6.55694 20.198 4.91288 19.177 3.89963C18.1607 2.89115 16.5134 2.88984 15.4956 3.89671L5.28384 13.9979C3.64945 15.6146 3.65238 18.2422 5.29037 19.8553C6.89908 21.4396 9.4894 21.4555 11.1177 19.891L20.2274 11.1389C20.6361 10.7463 21.2882 10.7568 21.6838 11.1623C22.0795 11.5679 22.069 12.215 21.6603 12.6076L12.5506 21.3597C10.1164 23.6983 6.24417 23.6746 3.83933 21.3063C1.39072 18.8949 1.38633 14.9669 3.82956 12.5501L14.0413 2.44892Z" fill="#212121"/>
</svg>
