<svg width="24" height="24" viewBox="0 0 24 24" fill="none" xmlns="http://www.w3.org/2000/svg">
<path fill-rule="evenodd" clip-rule="evenodd" d="M14.0413 2.35072C15.864 0.547718 18.8138 0.550062 20.6336 2.35596C22.462 4.17037 22.4545 7.1144 20.6169 8.91961L11.5685 17.8084C10.5095 18.8488 8.83673 18.9472 7.66118 18.0383C6.2325 16.9337 6.12719 14.8271 7.43869 13.5876L16.6286 4.90231C17.0405 4.51301 17.6925 4.52879 18.0848 4.93756C18.4771 5.34633 18.4612 5.9933 18.0492 6.3826L8.85936 15.0679C8.45923 15.4461 8.49136 16.0888 8.92723 16.4258C9.28588 16.7031 9.79621 16.673 10.1193 16.3556L19.1676 7.46685C20.1938 6.45874 20.198 4.81467 19.177 3.80143C18.1607 2.79294 16.5134 2.79163 15.4956 3.7985L5.28384 13.8997C3.64945 15.5164 3.65238 18.144 5.29037 19.7571C6.89908 21.3414 9.4894 21.3572 11.1177 19.7928L20.2274 11.0407C20.6361 10.6481 21.2882 10.6586 21.6838 11.0641C22.0795 11.4697 22.069 12.1168 21.6603 12.5094L12.5506 21.2615C10.1164 23.6001 6.24417 23.5764 3.83933 21.2081C1.39072 18.7967 1.38633 14.8687 3.82956 12.4519L14.0413 2.35072Z" fill="#212121"/>
</svg>
