<svg width="24" height="24" viewBox="0 0 24 24" fill="none" xmlns="http://www.w3.org/2000/svg">
<path fill-rule="evenodd" clip-rule="evenodd" d="M15.9413 1.40089C17.1244 1.07822 18.7818 1.05396 20.1819 2.45405C21.582 3.85413 21.5577 5.5115 21.235 6.69464C21.0754 7.28015 20.8392 7.77588 20.6473 8.12145C20.5503 8.29598 20.462 8.43676 20.396 8.53666C20.3629 8.58671 20.3352 8.62681 20.3145 8.65608C20.3042 8.67072 20.2955 8.68268 20.2888 8.69185L20.2803 8.7035L20.2772 8.70774L20.2759 8.70945C20.2759 8.70945 20.2748 8.7109 19.4748 8.1109L20.2748 8.7109L20.2321 8.76775L11.2991 17.7008L11.2041 17.7606L10.6713 16.9144C11.2041 17.7606 11.2041 17.7606 11.2041 17.7606L11.2016 17.7622L11.1984 17.7642L11.1898 17.7695L11.1641 17.7851C11.1434 17.7976 11.1153 17.8141 11.0807 17.8337C11.0117 17.8729 10.9154 17.9252 10.7975 17.9831C10.5651 18.0973 10.2329 18.2414 9.84961 18.347C9.1396 18.5425 7.91917 18.6877 6.99435 17.7629C6.06954 16.8381 6.2148 15.6177 6.41031 14.9076C6.51585 14.5244 6.65993 14.1921 6.77418 13.9597C6.8321 13.8419 6.88438 13.7456 6.92356 13.6765C6.94321 13.6419 6.9597 13.6139 6.97215 13.5932L6.98772 13.5675L6.99306 13.5589L6.99507 13.5556L6.99592 13.5543C6.99592 13.5543 6.99665 13.5531 7.84288 14.086L6.99665 13.5531L7.05643 13.4582L15.5576 4.95706C15.9481 4.56653 16.5813 4.56653 16.9718 4.95706C17.3623 5.34758 17.3623 5.98075 16.9718 6.37127L8.64233 14.7007C8.62203 14.7377 8.59684 14.7855 8.56908 14.842C8.49108 15.0006 8.40094 15.212 8.33854 15.4386C8.19818 15.9484 8.27272 16.2128 8.40857 16.3487C8.54441 16.4845 8.80891 16.5591 9.31865 16.4187C9.54526 16.3563 9.75662 16.2662 9.91531 16.1882C9.97178 16.1604 10.0195 16.1352 10.0565 16.1149L18.7071 7.46436C18.7132 7.45532 18.7201 7.44512 18.7276 7.43379C18.7693 7.37072 18.8302 7.27396 18.8989 7.15017C19.0384 6.89913 19.2 6.55517 19.3055 6.1684C19.5132 5.40699 19.4889 4.5895 18.7677 3.86826C18.0464 3.14702 17.2289 3.12276 16.4675 3.33042C16.0808 3.4359 15.7368 3.59753 15.4858 3.737C15.362 3.80577 15.2652 3.86667 15.2022 3.90836C15.1908 3.91585 15.1806 3.9227 15.1716 3.92882L6.0779 13.0225C6.05864 13.047 6.02883 13.0855 5.99075 13.137C5.91305 13.2419 5.80188 13.3993 5.67618 13.599C5.42241 14.002 5.12157 14.5581 4.91132 15.1888C4.49409 16.4405 4.46049 17.8453 5.68621 19.0711C6.91192 20.2968 8.31673 20.2632 9.56843 19.8459C10.1992 19.6357 10.7552 19.3349 11.1583 19.0811C11.3579 18.9554 11.5153 18.8442 11.6203 18.7665C11.6718 18.7284 11.7103 18.6986 11.7347 18.6794L19.8637 10.5504C20.2542 10.1599 20.8874 10.1599 21.2779 10.5504C21.6684 10.9409 21.6684 11.5741 21.2779 11.9646L13.0788 20.1638L13.0439 20.1928L12.4037 19.4246C13.0439 20.1928 13.0439 20.1928 13.0439 20.1928L13.0425 20.194L13.0407 20.1955L13.0359 20.1995L13.0215 20.2112C13.0099 20.2206 12.9942 20.2332 12.9745 20.2487C12.9352 20.2798 12.8799 20.3224 12.8101 20.3741C12.6706 20.4773 12.4717 20.6175 12.2239 20.7735C11.732 21.0833 11.0285 21.4674 10.2009 21.7433C8.53576 22.2984 6.22826 22.4415 4.27199 20.4853C2.31573 18.529 2.45891 16.2215 3.01395 14.5564C3.28983 13.7287 3.674 13.0252 3.98371 12.5334C4.13975 12.2855 4.27993 12.0866 4.38315 11.9472C4.43484 11.8773 4.47749 11.8221 4.50852 11.7827C4.52403 11.7631 4.53666 11.7473 4.54608 11.7357L4.55778 11.7214L4.56175 11.7166L4.56325 11.7148C4.56325 11.7148 4.56443 11.7134 5.33265 12.3535L4.56443 11.7134L4.59347 11.6785L13.8682 2.40379L13.925 2.36115L14.525 3.16115C13.925 2.36115 13.925 2.36115 13.925 2.36115L13.9265 2.36007L13.9282 2.35879L13.9324 2.35564L13.9441 2.34709C13.9533 2.34041 13.9652 2.33179 13.9799 2.32143C14.0091 2.30073 14.0492 2.27301 14.0993 2.23993C14.1992 2.17389 14.34 2.08564 14.5145 1.98868C14.8601 1.7967 15.3558 1.56058 15.9413 1.40089Z" fill="#212121"/>
</svg>
