<svg width="24" height="25" viewBox="0 0 24 25" fill="none" xmlns="http://www.w3.org/2000/svg">
<path fill-rule="evenodd" clip-rule="evenodd" d="M10 15.0982C10 14.5459 9.55228 14.0982 9 14.0982H1C0.447715 14.0982 0 14.5459 0 15.0982C0 15.6505 0.447715 16.0982 1 16.0982H9C9.55228 16.0982 10 15.6505 10 15.0982Z" fill="#212121"/>
<path fill-rule="evenodd" clip-rule="evenodd" d="M9 24.0982C9.55228 24.0982 10 23.6505 10 23.0982V15.0982C10 14.5459 9.55228 14.0982 9 14.0982C8.44772 14.0982 8 14.5459 8 15.0982V23.0982C8 23.6505 8.44772 24.0982 9 24.0982Z" fill="#212121"/>
<path fill-rule="evenodd" clip-rule="evenodd" d="M14 9.09821C14 9.65049 14.4477 10.0982 15 10.0982H23C23.5523 10.0982 24 9.65049 24 9.09821C24 8.54592 23.5523 8.09821 23 8.09821H15C14.4477 8.09821 14 8.54592 14 9.09821Z" fill="#212121"/>
<path fill-rule="evenodd" clip-rule="evenodd" d="M15 0.0982056C14.4477 0.0982056 14 0.545921 14 1.09821V9.09821C14 9.65049 14.4477 10.0982 15 10.0982C15.5523 10.0982 16 9.65049 16 9.09821V1.09821C16 0.545921 15.5523 0.0982056 15 0.0982056Z" fill="#212121"/>
</svg>
