<svg width="24" height="24" viewBox="0 0 24 24" fill="none" xmlns="http://www.w3.org/2000/svg">
<path d="M4 5C3.44772 5 3 5.44772 3 6C3 6.55228 3.44772 7 4 7H16C16.5523 7 17 6.55228 17 6C17 5.44772 16.5523 5 16 5H4Z" fill="#212121"/>
<path d="M4 10C3.44772 10 3 10.4477 3 11C3 11.5523 3.44772 12 4 12H16C16.5523 12 17 11.5523 17 11C17 10.4477 16.5523 10 16 10H4Z" fill="#212121"/>
<path d="M3 16C3 15.4477 3.44772 15 4 15H13C13.5523 15 14 15.4477 14 16C14 16.5523 13.5523 17 13 17H4C3.44772 17 3 16.5523 3 16Z" fill="#212121"/>
<path d="M20.2929 14.2929C20.6834 13.9024 21.3166 13.9024 21.7071 14.2929C22.0976 14.6834 22.0976 15.3166 21.7071 15.7071L20.4142 17L21.7071 18.2929C22.0976 18.6834 22.0976 19.3166 21.7071 19.7071C21.3166 20.0976 20.6834 20.0976 20.2929 19.7071L19 18.4142L17.7071 19.7071C17.3166 20.0976 16.6834 20.0976 16.2929 19.7071C15.9024 19.3166 15.9024 18.6834 16.2929 18.2929L17.5858 17L16.2929 15.7071C15.9024 15.3166 15.9024 14.6834 16.2929 14.2929C16.6834 13.9024 17.3166 13.9024 17.7071 14.2929L19 15.5858L20.2929 14.2929Z" fill="#212121"/>
</svg>
