<svg width="24" height="24" viewBox="0 0 24 24" fill="none" xmlns="http://www.w3.org/2000/svg">
<path fill-rule="evenodd" clip-rule="evenodd" d="M1 5C1 4.44772 1.44772 4 2 4H14C14.5523 4 15 4.44772 15 5C15 5.55228 14.5523 6 14 6H2C1.44772 6 1 5.55228 1 5Z" fill="#212121"/>
<path fill-rule="evenodd" clip-rule="evenodd" d="M1 10C1 9.44772 1.44772 9 2 9H14C14.5523 9 15 9.44772 15 10C15 10.5523 14.5523 11 14 11H2C1.44772 11 1 10.5523 1 10Z" fill="#212121"/>
<path fill-rule="evenodd" clip-rule="evenodd" d="M1 15C1 14.4477 1.44772 14 2 14H11C11.5523 14 12 14.4477 12 15C12 15.5523 11.5523 16 11 16H2C1.44772 16 1 15.5523 1 15Z" fill="#212121"/>
<path d="M14 15C14 14.4477 14.4477 14 15 14H21C21.5523 14 22 14.4477 22 15C22 15.5523 21.5523 16 21 16H15C14.4477 16 14 15.5523 14 15Z" fill="#212121"/>
<path d="M17 12C17 11.4477 17.4477 11 18 11C18.5523 11 19 11.4477 19 12V18C19 18.5523 18.5523 19 18 19C17.4477 19 17 18.5523 17 18V12Z" fill="#212121"/>
</svg>
