<svg width="24" height="25" viewBox="0 0 24 25" fill="none" xmlns="http://www.w3.org/2000/svg">
<path d="M4 5.09821C3.44772 5.09821 3 5.54592 3 6.09821C3 6.65049 3.44772 7.09821 4 7.09821H16C16.5523 7.09821 17 6.65049 17 6.09821C17 5.54592 16.5523 5.09821 16 5.09821H4Z" fill="#212121"/>
<path d="M4 10.0982C3.44772 10.0982 3 10.5459 3 11.0982C3 11.6505 3.44772 12.0982 4 12.0982H16C16.5523 12.0982 17 11.6505 17 11.0982C17 10.5459 16.5523 10.0982 16 10.0982H4Z" fill="#212121"/>
<path d="M3 16.0982C3 15.5459 3.44772 15.0982 4 15.0982H13C13.5523 15.0982 14 15.5459 14 16.0982C14 16.6505 13.5523 17.0982 13 17.0982H4C3.44772 17.0982 3 16.6505 3 16.0982Z" fill="#212121"/>
<path d="M20.2929 14.3911C20.6834 14.0006 21.3166 14.0006 21.7071 14.3911C22.0976 14.7816 22.0976 15.4148 21.7071 15.8053L20.4142 17.0982L21.7071 18.3911C22.0976 18.7816 22.0976 19.4148 21.7071 19.8053C21.3166 20.1958 20.6834 20.1958 20.2929 19.8053L19 18.5124L17.7071 19.8053C17.3166 20.1958 16.6834 20.1958 16.2929 19.8053C15.9024 19.4148 15.9024 18.7816 16.2929 18.3911L17.5858 17.0982L16.2929 15.8053C15.9024 15.4148 15.9024 14.7816 16.2929 14.3911C16.6834 14.0006 17.3166 14.0006 17.7071 14.3911L19 15.684L20.2929 14.3911Z" fill="#212121"/>
</svg>
