<svg width="24" height="24" viewBox="0 0 24 24" fill="none" xmlns="http://www.w3.org/2000/svg">
<path d="M21.8115 13.5844C22.1342 13.1362 22.0325 12.5112 21.5843 12.1885C21.1361 11.8658 20.5112 11.9676 20.1885 12.4158L17.29 16.4415L15.7214 14.8075C15.3389 14.4091 14.7059 14.3962 14.3075 14.7787C13.9091 15.1612 13.8961 15.7942 14.2786 16.1926L16.6786 18.6926C16.8842 18.9068 17.1743 19.0185 17.4704 18.9976C17.7666 18.9767 18.0381 18.8253 18.2115 18.5844L21.8115 13.5844Z" fill="#212121"/>
<path fill-rule="evenodd" clip-rule="evenodd" d="M1 5C1 4.44772 1.44772 4 2 4H14C14.5523 4 15 4.44772 15 5C15 5.55228 14.5523 6 14 6H2C1.44772 6 1 5.55228 1 5Z" fill="#212121"/>
<path fill-rule="evenodd" clip-rule="evenodd" d="M1 10C1 9.44772 1.44772 9 2 9H14C14.5523 9 15 9.44772 15 10C15 10.5523 14.5523 11 14 11H2C1.44772 11 1 10.5523 1 10Z" fill="#212121"/>
<path fill-rule="evenodd" clip-rule="evenodd" d="M1 15C1 14.4477 1.44772 14 2 14H11C11.5523 14 12 14.4477 12 15C12 15.5523 11.5523 16 11 16H2C1.44772 16 1 15.5523 1 15Z" fill="#212121"/>
</svg>
