<svg width="24" height="25" viewBox="0 0 24 25" fill="none" xmlns="http://www.w3.org/2000/svg">
<path d="M2 6.09821C2 5.54592 2.44772 5.09821 3 5.09821H15C15.5523 5.09821 16 5.54592 16 6.09821C16 6.65049 15.5523 7.09821 15 7.09821H3C2.44772 7.09821 2 6.65049 2 6.09821Z" fill="#212121"/>
<path d="M2 11.0982C2 10.5459 2.44772 10.0982 3 10.0982H15C15.5523 10.0982 16 10.5459 16 11.0982C16 11.6505 15.5523 12.0982 15 12.0982H3C2.44772 12.0982 2 11.6505 2 11.0982Z" fill="#212121"/>
<path d="M3 15.0982C2.44772 15.0982 2 15.5459 2 16.0982C2 16.6505 2.44772 17.0982 3 17.0982H12C12.5523 17.0982 13 16.6505 13 16.0982C13 15.5459 12.5523 15.0982 12 15.0982H3Z" fill="#212121"/>
<path d="M18 13.0982C18 12.5459 18.4477 12.0982 19 12.0982C19.5523 12.0982 20 12.5459 20 13.0982V15.0982H22C22.5523 15.0982 23 15.5459 23 16.0982C23 16.6505 22.5523 17.0982 22 17.0982H20V19.0982C20 19.6505 19.5523 20.0982 19 20.0982C18.4477 20.0982 18 19.6505 18 19.0982V17.0982H16C15.4477 17.0982 15 16.6505 15 16.0982C15 15.5459 15.4477 15.0982 16 15.0982H18V13.0982Z" fill="#212121"/>
</svg>
