<svg width="24" height="25" viewBox="0 0 24 25" fill="none" xmlns="http://www.w3.org/2000/svg">
<path d="M22.8115 14.6826C23.1342 14.2344 23.0325 13.6094 22.5843 13.2867C22.1361 12.964 21.5112 13.0658 21.1885 13.514L18.29 17.5397L16.7214 15.9057C16.3389 15.5073 15.7059 15.4944 15.3075 15.8769C14.9091 16.2594 14.8961 16.8924 15.2786 17.2908L17.6786 19.7908C17.8842 20.005 18.1743 20.1167 18.4704 20.0958C18.7666 20.0749 19.0381 19.9235 19.2115 19.6826L22.8115 14.6826Z" fill="#212121"/>
<path fill-rule="evenodd" clip-rule="evenodd" d="M2 6.09821C2 5.54592 2.44772 5.09821 3 5.09821H15C15.5523 5.09821 16 5.54592 16 6.09821C16 6.65049 15.5523 7.09821 15 7.09821H3C2.44772 7.09821 2 6.65049 2 6.09821Z" fill="#212121"/>
<path fill-rule="evenodd" clip-rule="evenodd" d="M2 11.0982C2 10.5459 2.44772 10.0982 3 10.0982H15C15.5523 10.0982 16 10.5459 16 11.0982C16 11.6505 15.5523 12.0982 15 12.0982H3C2.44772 12.0982 2 11.6505 2 11.0982Z" fill="#212121"/>
<path fill-rule="evenodd" clip-rule="evenodd" d="M2 16.0982C2 15.5459 2.44772 15.0982 3 15.0982H12C12.5523 15.0982 13 15.5459 13 16.0982C13 16.6505 12.5523 17.0982 12 17.0982H3C2.44772 17.0982 2 16.6505 2 16.0982Z" fill="#212121"/>
</svg>
