<svg width="24" height="24" viewBox="0 0 24 24" fill="none" xmlns="http://www.w3.org/2000/svg">
<path d="M22.8115 14.5844C23.1342 14.1362 23.0325 13.5112 22.5843 13.1885C22.1361 12.8658 21.5112 12.9676 21.1885 13.4158L18.29 17.4415L16.7214 15.8075C16.3389 15.4091 15.7059 15.3962 15.3075 15.7787C14.9091 16.1612 14.8961 16.7942 15.2786 17.1926L17.6786 19.6926C17.8842 19.9068 18.1743 20.0185 18.4704 19.9976C18.7666 19.9767 19.0381 19.8253 19.2115 19.5844L22.8115 14.5844Z" fill="#212121"/>
<path fill-rule="evenodd" clip-rule="evenodd" d="M2 6C2 5.44772 2.44772 5 3 5H15C15.5523 5 16 5.44772 16 6C16 6.55228 15.5523 7 15 7H3C2.44772 7 2 6.55228 2 6Z" fill="#212121"/>
<path fill-rule="evenodd" clip-rule="evenodd" d="M2 11C2 10.4477 2.44772 10 3 10H15C15.5523 10 16 10.4477 16 11C16 11.5523 15.5523 12 15 12H3C2.44772 12 2 11.5523 2 11Z" fill="#212121"/>
<path fill-rule="evenodd" clip-rule="evenodd" d="M2 16C2 15.4477 2.44772 15 3 15H12C12.5523 15 13 15.4477 13 16C13 16.5523 12.5523 17 12 17H3C2.44772 17 2 16.5523 2 16Z" fill="#212121"/>
</svg>
