<svg width="24" height="24" viewBox="0 0 24 24" fill="none" xmlns="http://www.w3.org/2000/svg">
<path d="M2 6C2 5.44772 2.44772 5 3 5H15C15.5523 5 16 5.44772 16 6C16 6.55228 15.5523 7 15 7H3C2.44772 7 2 6.55228 2 6Z" fill="#212121"/>
<path d="M2 11C2 10.4477 2.44772 10 3 10H15C15.5523 10 16 10.4477 16 11C16 11.5523 15.5523 12 15 12H3C2.44772 12 2 11.5523 2 11Z" fill="#212121"/>
<path d="M3 15C2.44772 15 2 15.4477 2 16C2 16.5523 2.44772 17 3 17H12C12.5523 17 13 16.5523 13 16C13 15.4477 12.5523 15 12 15H3Z" fill="#212121"/>
<path d="M18 13C18 12.4477 18.4477 12 19 12C19.5523 12 20 12.4477 20 13V15H22C22.5523 15 23 15.4477 23 16C23 16.5523 22.5523 17 22 17H20V19C20 19.5523 19.5523 20 19 20C18.4477 20 18 19.5523 18 19V17H16C15.4477 17 15 16.5523 15 16C15 15.4477 15.4477 15 16 15H18V13Z" fill="#212121"/>
</svg>
