<svg width="24" height="24" viewBox="0 0 24 24" fill="none" xmlns="http://www.w3.org/2000/svg">
<path fill-rule="evenodd" clip-rule="evenodd" d="M8.01153 4.8343C7.26022 5.8778 7 7.16002 7 8H5C5 6.83998 5.33978 5.1222 6.38847 3.6657C7.47386 2.1582 9.27408 1 12 1C14.7409 1 16.5381 2.20952 17.6157 3.72926C18.6567 5.19724 19 6.90931 19 8H17C17 7.24453 16.7433 5.95661 15.9843 4.88612C15.2619 3.86741 14.0591 3 12 3C9.92592 3 8.72614 3.8418 8.01153 4.8343Z" fill="#212121"/>
<path fill-rule="evenodd" clip-rule="evenodd" d="M18 17C18.5523 17 19 17.4477 19 18C19 19.5351 17.8132 20.3215 16.8273 20.6631C15.8225 21.0112 14.66 21.0576 13.8617 20.946C13.3147 20.8696 12.9332 20.3643 13.0096 19.8173C13.086 19.2703 13.5914 18.8889 14.1383 18.9653C14.6733 19.04 15.5109 19.0025 16.1727 18.7733C16.8534 18.5374 17 18.2529 17 18C17 17.4477 17.4477 17 18 17Z" fill="#212121"/>
<path fill-rule="evenodd" clip-rule="evenodd" d="M17 7H20C21.6569 7 23 8.34315 23 10V13C23 14.6569 21.6569 16 20 16H19C17.8954 16 17 15.1046 17 14V7ZM19 9V14H20C20.5523 14 21 13.5523 21 13V10C21 9.44772 20.5523 9 20 9H19Z" fill="#212121"/>
<path fill-rule="evenodd" clip-rule="evenodd" d="M1 10C1 8.34315 2.34315 7 4 7H7V14C7 15.1046 6.10457 16 5 16H4C2.34315 16 1 14.6569 1 13V10ZM4 9C3.44772 9 3 9.44772 3 10V13C3 13.5523 3.44772 14 4 14H5V9H4Z" fill="#212121"/>
<path fill-rule="evenodd" clip-rule="evenodd" d="M9 20C9 18.8954 9.89543 18 11 18H13C14.1046 18 15 18.8954 15 20V21C15 22.1046 14.1046 23 13 23H11C9.89543 23 9 22.1046 9 21V20ZM13 20H11V21H13V20Z" fill="#212121"/>
</svg>
