<svg width="24" height="24" viewBox="0 0 24 24" fill="none" xmlns="http://www.w3.org/2000/svg">
<path d="M6 2C4.34315 2 3 3.34315 3 5C3 5.55228 3.44772 6 4 6C4.55228 6 5 5.55228 5 5C5 4.44772 5.44772 4 6 4H18C18.5523 4 19 4.44772 19 5V19C19 19.5523 18.5523 20 18 20H6C5.44772 20 5 19.5523 5 19C5 18.4477 4.55228 18 4 18C3.44772 18 3 18.4477 3 19C3 20.6569 4.34315 22 6 22H18C19.6569 22 21 20.6569 21 19V5C21 3.34315 19.6569 2 18 2H6Z" fill="#212121"/>
<path d="M2 15C1.44772 15 1 15.4477 1 16C1 16.5523 1.44772 17 2 17H5C5.55228 17 6 16.5523 6 16C6 15.4477 5.55228 15 5 15H2Z" fill="#212121"/>
<path d="M1 12C1 11.4477 1.44772 11 2 11H5C5.55228 11 6 11.4477 6 12C6 12.5523 5.55228 13 5 13H2C1.44772 13 1 12.5523 1 12Z" fill="#212121"/>
<path d="M2 7C1.44772 7 1 7.44772 1 8C1 8.55228 1.44772 9 2 9H5C5.55228 9 6 8.55228 6 8C6 7.44772 5.55228 7 5 7H2Z" fill="#212121"/>
<path fill-rule="evenodd" clip-rule="evenodd" d="M9 9C9 7.34315 10.3431 6 12 6C13.6569 6 15 7.34315 15 9C15 10.6569 13.6569 12 12 12C10.3431 12 9 10.6569 9 9ZM12 8C11.4477 8 11 8.44772 11 9C11 9.55228 11.4477 10 12 10C12.5523 10 13 9.55228 13 9C13 8.44772 12.5523 8 12 8Z" fill="#212121"/>
<path d="M11.1623 13C9.44058 13 7.91203 14.1017 7.36757 15.7351L7.05134 16.6838C6.8767 17.2077 7.15986 17.774 7.6838 17.9487C8.20774 18.1233 8.77406 17.8402 8.94871 17.3162L9.26494 16.3675C9.53717 15.5509 10.3014 15 11.1623 15H12.8377C13.6986 15 14.4629 15.5509 14.7351 16.3675L15.0513 17.3162C15.226 17.8402 15.7923 18.1233 16.3163 17.9487C16.8402 17.774 17.1234 17.2077 16.9487 16.6838L16.6325 15.7351C16.088 14.1017 14.5595 13 12.8377 13H11.1623Z" fill="#212121"/>
</svg>
