<svg width="24" height="24" viewBox="0 0 24 24" fill="none" xmlns="http://www.w3.org/2000/svg">
<path fill-rule="evenodd" clip-rule="evenodd" d="M18.8341 6.9863C18.4262 8.15864 17.3113 9 16 9C14.6887 9 13.5738 8.15864 13.1659 6.9863C13.1119 6.99531 13.0565 7 13 7H3C2.44772 7 2 6.55228 2 6C2 5.44772 2.44772 5 3 5H13C13.0565 5 13.1119 5.00469 13.1659 5.0137C13.5738 3.84136 14.6887 3 16 3C17.3113 3 18.4262 3.84136 18.8341 5.0137C18.8881 5.00469 18.9435 5 19 5H21C21.5523 5 22 5.44772 22 6C22 6.55228 21.5523 7 21 7H19C18.9435 7 18.8881 6.99531 18.8341 6.9863ZM16 7C16.5523 7 17 6.55228 17 6C17 5.44772 16.5523 5 16 5C15.4477 5 15 5.44772 15 6C15 6.55228 15.4477 7 16 7Z" fill="#212121"/>
<path fill-rule="evenodd" clip-rule="evenodd" d="M5.1659 12.9863C5.57384 14.1586 6.68867 15 8 15C9.31133 15 10.4262 14.1586 10.8341 12.9863C10.8881 12.9953 10.9435 13 11 13H21C21.5523 13 22 12.5523 22 12C22 11.4477 21.5523 11 21 11H11C10.9435 11 10.8881 11.0047 10.8341 11.0137C10.4262 9.84136 9.31133 9 8 9C6.68867 9 5.57384 9.84136 5.1659 11.0137C5.11194 11.0047 5.05652 11 5 11H3C2.44772 11 2 11.4477 2 12C2 12.5523 2.44772 13 3 13H5C5.05652 13 5.11194 12.9953 5.1659 12.9863ZM8 13C7.44772 13 7 12.5523 7 12C7 11.4477 7.44772 11 8 11C8.55228 11 9 11.4477 9 12C9 12.5523 8.55228 13 8 13Z" fill="#212121"/>
<path fill-rule="evenodd" clip-rule="evenodd" d="M18.8293 19C18.4175 20.1652 17.3062 21 16 21C14.6887 21 13.5738 20.1586 13.1659 18.9863C13.1119 18.9953 13.0565 19 13 19H3C2.44772 19 2 18.5523 2 18C2 17.4477 2.44772 17 3 17H13C13.0565 17 13.1119 17.0047 13.1659 17.0137C13.5738 15.8414 14.6887 15 16 15C17.3062 15 18.4175 15.8348 18.8293 17H21C21.5523 17 22 17.4477 22 18C22 18.5523 21.5523 19 21 19H18.8293ZM16 19C16.5523 19 17 18.5523 17 18C17 17.4477 16.5523 17 16 17C15.4477 17 15 17.4477 15 18C15 18.5523 15.4477 19 16 19Z" fill="#212121"/>
</svg>
