<svg width="24" height="24" viewBox="0 0 24 24" fill="none" xmlns="http://www.w3.org/2000/svg">
<path fill-rule="evenodd" clip-rule="evenodd" d="M2 8H4.12602C4.57006 9.72523 6.13616 11 8 11C9.86384 11 11.4299 9.72523 11.874 8H22C22.5523 8 23 7.55228 23 7C23 6.44772 22.5523 6 22 6H11.874C11.4299 4.27477 9.86384 3 8 3C6.13616 3 4.57006 4.27477 4.12602 6H2C1.44772 6 1 6.44772 1 7C1 7.55228 1.44772 8 2 8ZM8 5C9.10457 5 10 5.89543 10 7C10 8.10457 9.10457 9 8 9C6.89543 9 6 8.10457 6 7C6 5.89543 6.89543 5 8 5Z" fill="#212121"/>
<path fill-rule="evenodd" clip-rule="evenodd" d="M1 17C1 16.4477 1.44772 16 2 16H12.126C12.5701 14.2748 14.1362 13 16 13C17.8638 13 19.4299 14.2748 19.874 16H22C22.5523 16 23 16.4477 23 17C23 17.5523 22.5523 18 22 18H19.874C19.4299 19.7252 17.8638 21 16 21C14.1362 21 12.5701 19.7252 12.126 18H2C1.44772 18 1 17.5523 1 17ZM18 17C18 15.8954 17.1046 15 16 15C14.8954 15 14 15.8954 14 17C14 18.1046 14.8954 19 16 19C17.1046 19 18 18.1046 18 17Z" fill="#212121"/>
</svg>
