<svg width="24" height="25" viewBox="0 0 24 25" fill="none" xmlns="http://www.w3.org/2000/svg">
<path d="M6 2.09821C4.34315 2.09821 3 3.44135 3 5.09821C3 5.65049 3.44772 6.09821 4 6.09821C4.55228 6.09821 5 5.65049 5 5.09821C5 4.54592 5.44772 4.09821 6 4.09821H18C18.5523 4.09821 19 4.54592 19 5.09821V19.0982C19 19.6505 18.5523 20.0982 18 20.0982H6C5.44772 20.0982 5 19.6505 5 19.0982C5 18.5459 4.55228 18.0982 4 18.0982C3.44772 18.0982 3 18.5459 3 19.0982C3 20.7551 4.34315 22.0982 6 22.0982H18C19.6569 22.0982 21 20.7551 21 19.0982V5.09821C21 3.44135 19.6569 2.09821 18 2.09821H6Z" fill="#212121"/>
<path d="M2 15.0982C1.44772 15.0982 1 15.5459 1 16.0982C1 16.6505 1.44772 17.0982 2 17.0982H5C5.55228 17.0982 6 16.6505 6 16.0982C6 15.5459 5.55228 15.0982 5 15.0982H2Z" fill="#212121"/>
<path d="M1 12.0982C1 11.5459 1.44772 11.0982 2 11.0982H5C5.55228 11.0982 6 11.5459 6 12.0982C6 12.6505 5.55228 13.0982 5 13.0982H2C1.44772 13.0982 1 12.6505 1 12.0982Z" fill="#212121"/>
<path d="M2 7.09821C1.44772 7.09821 1 7.54592 1 8.09821C1 8.65049 1.44772 9.09821 2 9.09821H5C5.55228 9.09821 6 8.65049 6 8.09821C6 7.54592 5.55228 7.09821 5 7.09821H2Z" fill="#212121"/>
<path fill-rule="evenodd" clip-rule="evenodd" d="M9 9.09821C9 7.44135 10.3431 6.09821 12 6.09821C13.6569 6.09821 15 7.44135 15 9.09821C15 10.7551 13.6569 12.0982 12 12.0982C10.3431 12.0982 9 10.7551 9 9.09821ZM12 8.09821C11.4477 8.09821 11 8.54592 11 9.09821C11 9.65049 11.4477 10.0982 12 10.0982C12.5523 10.0982 13 9.65049 13 9.09821C13 8.54592 12.5523 8.09821 12 8.09821Z" fill="#212121"/>
<path d="M11.1623 13.0982C9.44058 13.0982 7.91203 14.1999 7.36757 15.8333L7.05134 16.782C6.8767 17.3059 7.15986 17.8722 7.6838 18.0469C8.20774 18.2215 8.77406 17.9384 8.94871 17.4144L9.26494 16.4657C9.53717 15.6491 10.3014 15.0982 11.1623 15.0982H12.8377C13.6986 15.0982 14.4629 15.6491 14.7351 16.4657L15.0513 17.4144C15.226 17.9384 15.7923 18.2215 16.3163 18.0469C16.8402 17.8722 17.1234 17.3059 16.9487 16.782L16.6325 15.8333C16.088 14.1999 14.5595 13.0982 12.8377 13.0982H11.1623Z" fill="#212121"/>
</svg>
