<svg width="24" height="25" viewBox="0 0 24 25" fill="none" xmlns="http://www.w3.org/2000/svg">
<path fill-rule="evenodd" clip-rule="evenodd" d="M18.8341 7.08451C18.4262 8.25685 17.3113 9.09821 16 9.09821C14.6887 9.09821 13.5738 8.25685 13.1659 7.08451C13.1119 7.09352 13.0565 7.09821 13 7.09821H3C2.44772 7.09821 2 6.65049 2 6.09821C2 5.54592 2.44772 5.09821 3 5.09821H13C13.0565 5.09821 13.1119 5.10289 13.1659 5.1119C13.5738 3.93956 14.6887 3.09821 16 3.09821C17.3113 3.09821 18.4262 3.93956 18.8341 5.1119C18.8881 5.10289 18.9435 5.09821 19 5.09821H21C21.5523 5.09821 22 5.54592 22 6.09821C22 6.65049 21.5523 7.09821 21 7.09821H19C18.9435 7.09821 18.8881 7.09352 18.8341 7.08451ZM16 7.09821C16.5523 7.09821 17 6.65049 17 6.09821C17 5.54592 16.5523 5.09821 16 5.09821C15.4477 5.09821 15 5.54592 15 6.09821C15 6.65049 15.4477 7.09821 16 7.09821Z" fill="#212121"/>
<path fill-rule="evenodd" clip-rule="evenodd" d="M5.1659 13.0845C5.57384 14.2568 6.68867 15.0982 8 15.0982C9.31133 15.0982 10.4262 14.2568 10.8341 13.0845C10.8881 13.0935 10.9435 13.0982 11 13.0982H21C21.5523 13.0982 22 12.6505 22 12.0982C22 11.5459 21.5523 11.0982 21 11.0982H11C10.9435 11.0982 10.8881 11.1029 10.8341 11.1119C10.4262 9.93956 9.31133 9.09821 8 9.09821C6.68867 9.09821 5.57384 9.93956 5.1659 11.1119C5.11194 11.1029 5.05652 11.0982 5 11.0982H3C2.44772 11.0982 2 11.5459 2 12.0982C2 12.6505 2.44772 13.0982 3 13.0982H5C5.05652 13.0982 5.11194 13.0935 5.1659 13.0845ZM8 13.0982C7.44772 13.0982 7 12.6505 7 12.0982C7 11.5459 7.44772 11.0982 8 11.0982C8.55228 11.0982 9 11.5459 9 12.0982C9 12.6505 8.55228 13.0982 8 13.0982Z" fill="#212121"/>
<path fill-rule="evenodd" clip-rule="evenodd" d="M18.8293 19.0982C18.4175 20.2634 17.3062 21.0982 16 21.0982C14.6887 21.0982 13.5738 20.2568 13.1659 19.0845C13.1119 19.0935 13.0565 19.0982 13 19.0982H3C2.44772 19.0982 2 18.6505 2 18.0982C2 17.5459 2.44772 17.0982 3 17.0982H13C13.0565 17.0982 13.1119 17.1029 13.1659 17.1119C13.5738 15.9396 14.6887 15.0982 16 15.0982C17.3062 15.0982 18.4175 15.933 18.8293 17.0982H21C21.5523 17.0982 22 17.5459 22 18.0982C22 18.6505 21.5523 19.0982 21 19.0982H18.8293ZM16 19.0982C16.5523 19.0982 17 18.6505 17 18.0982C17 17.5459 16.5523 17.0982 16 17.0982C15.4477 17.0982 15 17.5459 15 18.0982C15 18.6505 15.4477 19.0982 16 19.0982Z" fill="#212121"/>
</svg>
