<svg width="24" height="25" viewBox="0 0 24 25" fill="none" xmlns="http://www.w3.org/2000/svg">
<path fill-rule="evenodd" clip-rule="evenodd" d="M2 8.09821H4.12602C4.57006 9.82343 6.13616 11.0982 8 11.0982C9.86384 11.0982 11.4299 9.82343 11.874 8.09821H22C22.5523 8.09821 23 7.65049 23 7.09821C23 6.54592 22.5523 6.09821 22 6.09821H11.874C11.4299 4.37298 9.86384 3.09821 8 3.09821C6.13616 3.09821 4.57006 4.37298 4.12602 6.09821H2C1.44772 6.09821 1 6.54592 1 7.09821C1 7.65049 1.44772 8.09821 2 8.09821ZM8 5.09821C9.10457 5.09821 10 5.99364 10 7.09821C10 8.20278 9.10457 9.09821 8 9.09821C6.89543 9.09821 6 8.20278 6 7.09821C6 5.99364 6.89543 5.09821 8 5.09821Z" fill="#212121"/>
<path fill-rule="evenodd" clip-rule="evenodd" d="M1 17.0982C1 16.5459 1.44772 16.0982 2 16.0982H12.126C12.5701 14.373 14.1362 13.0982 16 13.0982C17.8638 13.0982 19.4299 14.373 19.874 16.0982H22C22.5523 16.0982 23 16.5459 23 17.0982C23 17.6505 22.5523 18.0982 22 18.0982H19.874C19.4299 19.8234 17.8638 21.0982 16 21.0982C14.1362 21.0982 12.5701 19.8234 12.126 18.0982H2C1.44772 18.0982 1 17.6505 1 17.0982ZM18 17.0982C18 15.9936 17.1046 15.0982 16 15.0982C14.8954 15.0982 14 15.9936 14 17.0982C14 18.2028 14.8954 19.0982 16 19.0982C17.1046 19.0982 18 18.2028 18 17.0982Z" fill="#212121"/>
</svg>
