<svg width="24" height="25" viewBox="0 0 24 25" fill="none" xmlns="http://www.w3.org/2000/svg">
<path fill-rule="evenodd" clip-rule="evenodd" d="M3 6.09821C3 5.54592 3.44772 5.09821 4 5.09821H16C16.5523 5.09821 17 5.54592 17 6.09821V20.0982C17 20.6505 16.5523 21.0982 16 21.0982H4C3.44772 21.0982 3 20.6505 3 20.0982V6.09821ZM5 7.09821V19.0982H15V7.09821H5Z" fill="#212121"/>
<path fill-rule="evenodd" clip-rule="evenodd" d="M9 3.09821C9 2.54592 9.44772 2.09821 10 2.09821H19C19.5523 2.09821 20 2.54592 20 3.09821V15.0982C20 15.6505 19.5523 16.0982 19 16.0982C18.4477 16.0982 18 15.6505 18 15.0982V4.09821H10C9.44772 4.09821 9 3.65049 9 3.09821Z" fill="#212121"/>
</svg>
