<svg width="24" height="24" viewBox="0 0 24 24" fill="none" xmlns="http://www.w3.org/2000/svg">
<path fill-rule="evenodd" clip-rule="evenodd" d="M3 6C3 5.44772 3.44772 5 4 5H16C16.5523 5 17 5.44772 17 6V20C17 20.5523 16.5523 21 16 21H4C3.44772 21 3 20.5523 3 20V6ZM5 7V19H15V7H5Z" fill="#212121"/>
<path fill-rule="evenodd" clip-rule="evenodd" d="M9 3C9 2.44772 9.44772 2 10 2H19C19.5523 2 20 2.44772 20 3V15C20 15.5523 19.5523 16 19 16C18.4477 16 18 15.5523 18 15V4H10C9.44772 4 9 3.55228 9 3Z" fill="#212121"/>
</svg>
