<svg width="24" height="25" viewBox="0 0 24 25" fill="none" xmlns="http://www.w3.org/2000/svg">
<path d="M20.7071 4.80531C21.0976 4.41479 21.0976 3.78162 20.7071 3.3911C20.3166 3.00057 19.6834 3.00057 19.2929 3.3911L12 10.684L4.70711 3.3911C4.31658 3.00057 3.68342 3.00057 3.29289 3.3911C2.90237 3.78162 2.90237 4.41479 3.29289 4.80531L10.5858 12.0982L3.29289 19.3911C2.90237 19.7816 2.90237 20.4148 3.29289 20.8053C3.68342 21.1958 4.31658 21.1958 4.70711 20.8053L12 13.5124L19.2929 20.8053C19.6834 21.1958 20.3166 21.1958 20.7071 20.8053C21.0976 20.4148 21.0976 19.7816 20.7071 19.3911L13.4142 12.0982L20.7071 4.80531Z" fill="#212121"/>
</svg>
