<svg width="24" height="24" viewBox="0 0 24 24" fill="none" xmlns="http://www.w3.org/2000/svg">
<path fill-rule="evenodd" clip-rule="evenodd" d="M12 1.23923C11.2806 1.23923 10.6318 1.56739 9.90207 1.9365L9.75141 2.01259L3.71009 5.05445C3.20986 5.30628 2.76874 5.52836 2.41996 5.75155C2.04215 5.99332 1.70114 6.2793 1.44584 6.69368C1.19055 7.10806 1.08847 7.54125 1.04244 7.98743C0.999945 8.3993 0.999971 8.89316 1 9.45318V15.5468C0.999971 16.1068 0.999945 16.6007 1.04244 17.0126C1.08847 17.4588 1.19055 17.892 1.44584 18.3063C1.70114 18.7207 2.04215 19.0067 2.41996 19.2485C2.76874 19.4717 3.20988 19.6938 3.71012 19.9456L9.75141 22.9874L9.90207 23.0635C10.6318 23.4326 11.2806 23.7608 12 23.7608C12.7194 23.7608 13.3682 23.4326 14.0979 23.0635L14.2486 22.9874L20.2899 19.9456C20.7901 19.6938 21.2313 19.4717 21.58 19.2485C21.9579 19.0067 22.2989 18.7207 22.5542 18.3063C22.8095 17.892 22.9115 17.4588 22.9576 17.0126C23.0001 16.6007 23 16.1068 23 15.5468V9.45322C23 8.89318 23.0001 8.39931 22.9576 7.98743C22.9115 7.54125 22.8095 7.10806 22.5542 6.69368C22.2989 6.2793 21.9579 5.99332 21.58 5.75155C21.2313 5.52836 20.7901 5.30628 20.2899 5.05444L14.2486 2.01259L14.0979 1.9365C13.3682 1.56739 12.7194 1.23923 12 1.23923ZM10.6508 3.79893C11.6237 3.30908 11.8183 3.23923 12 3.23923C12.1817 3.23923 12.3763 3.30908 13.3492 3.79893L19.3492 6.81998C19.5256 6.90883 19.6811 6.98728 19.8193 7.05813L13.4457 10.5636C12.958 10.8318 12.6524 10.9987 12.4062 11.1051C12.1794 11.2031 12.0732 11.2175 12 11.2175C11.9268 11.2175 11.8205 11.2031 11.5937 11.1051C11.3475 10.9987 11.0419 10.8318 10.5542 10.5636L10.5219 10.5458C10.4977 10.5325 10.4734 10.5191 10.4489 10.5056L4.18073 7.05813C4.31887 6.98728 4.47439 6.90884 4.65085 6.81998L10.6508 3.79893ZM3.00509 8.69407C3.00034 8.91241 3.00001 9.17426 3.00001 9.4995V15.5005C3.00001 16.1206 3.00123 16.5103 3.03188 16.8073C3.06015 17.0814 3.10669 17.1892 3.14862 17.2573C3.19055 17.3253 3.26593 17.4154 3.49798 17.5639C3.7495 17.7248 4.097 17.9012 4.65085 18.18L10.6508 21.2011C10.7804 21.2663 10.8962 21.3241 11 21.3753V14.8651C11 14.2687 10.9988 13.8946 10.9702 13.6088C10.9438 13.3453 10.9002 13.2403 10.8608 13.1736C10.8214 13.1069 10.7503 13.0181 10.5322 12.868C10.299 12.7076 9.97797 12.5292 9.46888 12.2492C9.46121 12.2449 9.4535 12.2407 9.44574 12.2364L3.00509 8.69407ZM14.5542 12.2364C14.0317 12.5238 13.7045 12.7051 13.4678 12.868C13.2497 13.0181 13.1786 13.1069 13.1392 13.1736C13.0998 13.2403 13.0562 13.3453 13.0298 13.6088C13.0012 13.8946 13 14.2687 13 14.8651V21.3753C13.1038 21.3241 13.2196 21.2663 13.3492 21.2011L19.3492 18.18C19.903 17.9012 20.2505 17.7248 20.502 17.5639C20.7341 17.4154 20.8095 17.3253 20.8514 17.2573C20.8933 17.1892 20.9399 17.0814 20.9681 16.8073C20.9988 16.5103 21 16.1206 21 15.5005V9.4995C21 9.17426 20.9997 8.91241 20.9949 8.69406L14.5542 12.2364Z" fill="#212121"/>
</svg>
