<svg width="24" height="25" viewBox="0 0 24 25" fill="none" xmlns="http://www.w3.org/2000/svg">
<path d="M12 2.09821C12.5523 2.09821 13 2.54592 13 3.09821V13.684L15.2929 11.3911C15.6834 11.0006 16.3166 11.0006 16.7071 11.3911C17.0976 11.7816 17.0976 12.4148 16.7071 12.8053L12.7071 16.8053C12.3166 17.1958 11.6834 17.1958 11.2929 16.8053L7.29289 12.8053C6.90237 12.4148 6.90237 11.7816 7.29289 11.3911C7.68342 11.0006 8.31658 11.0006 8.70711 11.3911L11 13.684V3.09821C11 2.54592 11.4477 2.09821 12 2.09821Z" fill="#212121"/>
<path d="M3 20.0982C2.44772 20.0982 2 20.5459 2 21.0982C2 21.6505 2.44772 22.0982 3 22.0982H21C21.5523 22.0982 22 21.6505 22 21.0982C22 20.5459 21.5523 20.0982 21 20.0982H3Z" fill="#212121"/>
</svg>
