<svg width="24" height="24" viewBox="0 0 24 24" fill="none" xmlns="http://www.w3.org/2000/svg">
<path fill-rule="evenodd" clip-rule="evenodd" d="M12 2C6.47715 2 2 6.47715 2 12C2 17.5228 6.47715 22 12 22C17.5228 22 22 17.5228 22 12C22 6.47715 17.5228 2 12 2ZM10.262 4.18933C10.8215 4.06537 11.4031 4 12 4C16.4183 4 20 7.58172 20 12C20 16.4183 16.4183 20 12 20C11.4032 20 10.8217 19.9347 10.2622 19.8107C10.6552 19.5069 11.0297 19.1656 11.3813 18.7874C14.8729 15.0309 14.8729 8.9696 11.3813 5.21309C11.0298 4.83489 10.6552 4.49341 10.262 4.18933ZM7.96609 5.08998C5.5936 6.47798 4 9.05289 4 12C4 14.9472 5.59368 17.5221 7.96627 18.9101C8.66738 18.5515 9.32881 18.058 9.91639 17.4258C12.6945 14.4369 12.6945 9.56365 9.91639 6.57471C9.32834 5.94204 8.66673 5.44797 7.96609 5.08998Z" fill="#212121"/>
</svg>
