<svg width="24" height="25" viewBox="0 0 24 25" fill="none" xmlns="http://www.w3.org/2000/svg">
<path fill-rule="evenodd" clip-rule="evenodd" d="M12 2.09821C6.47715 2.09821 2 6.57536 2 12.0982C2 17.6211 6.47715 22.0982 12 22.0982C17.5228 22.0982 22 17.6211 22 12.0982C22 6.57536 17.5228 2.09821 12 2.09821ZM10.262 4.28753C10.8215 4.16357 11.4031 4.09821 12 4.09821C16.4183 4.09821 20 7.67993 20 12.0982C20 16.5165 16.4183 20.0982 12 20.0982C11.4032 20.0982 10.8217 20.0329 10.2622 19.9089C10.6552 19.6051 11.0297 19.2639 11.3813 18.8856C14.8729 15.1291 14.8729 9.0678 11.3813 5.3113C11.0298 4.93309 10.6552 4.59162 10.262 4.28753ZM7.96609 5.18819C5.5936 6.57619 4 9.15109 4 12.0982C4 15.0454 5.59368 17.6204 7.96627 19.0083C8.66738 18.6497 9.32881 18.1562 9.91639 17.524C12.6945 14.5351 12.6945 9.66185 9.91639 6.67291C9.32834 6.04025 8.66673 5.54618 7.96609 5.18819Z" fill="#212121"/>
</svg>
