<svg width="24" height="24" viewBox="0 0 24 24" fill="none" xmlns="http://www.w3.org/2000/svg">
<path fill-rule="evenodd" clip-rule="evenodd" d="M19.258 2C18.4769 1.21895 17.2106 1.21895 16.4295 2L2.58579 15.8438C2.21071 16.2188 2 16.7275 2 17.258V21C2 21.5523 2.44772 22 3 22H6.74204C7.27247 22 7.78118 21.7893 8.15625 21.4142L22 7.57047C22.781 6.78942 22.781 5.52309 22 4.74204L19.258 2ZM16.1057 5.15228L17.8438 3.41421L20.5858 6.15625L18.8477 7.89432L16.1057 5.15228ZM14.6915 6.5665L4 17.258V20H6.74204L17.4335 9.30853L14.6915 6.5665Z" fill="black"/>
</svg>
