<svg width="24" height="25" viewBox="0 0 24 25" fill="none" xmlns="http://www.w3.org/2000/svg">
<path fill-rule="evenodd" clip-rule="evenodd" d="M19 4.09821L8 4.09821C7.44771 4.09821 7 4.54592 7 5.09821V7.09821C7 7.65049 6.55228 8.09821 6 8.09821C5.44771 8.09821 5 7.65049 5 7.09821V5.09821C5 3.44135 6.34314 2.09821 8 2.09821L19 2.09821C20.6569 2.0982 22 3.44135 22 5.09821V19.0982C22 20.7551 20.6569 22.0982 19 22.0982H8C6.34314 22.0982 5 20.7551 5 19.0982V17.0982C5 16.5459 5.44772 16.0982 6 16.0982C6.55228 16.0982 7 16.5459 7 17.0982V19.0982C7 19.6505 7.44772 20.0982 8 20.0982H19C19.5523 20.0982 20 19.6505 20 19.0982V5.09821C20 4.54592 19.5523 4.09821 19 4.09821ZM11.2929 7.3911C11.6834 7.00057 12.3166 7.00057 12.7071 7.3911L16.7071 11.3911C16.8946 11.5786 17 11.833 17 12.0982C17 12.3634 16.8946 12.6178 16.7071 12.8053L12.7071 16.8053C12.3166 17.1958 11.6834 17.1958 11.2929 16.8053C10.9024 16.4148 10.9024 15.7816 11.2929 15.3911L13.5858 13.0982L3 13.0982C2.44772 13.0982 2 12.6505 2 12.0982C2 11.5459 2.44772 11.0982 3 11.0982L13.5858 11.0982L11.2929 8.80531C10.9024 8.41479 10.9024 7.78162 11.2929 7.3911Z" fill="#212121"/>
</svg>
