<svg width="24" height="24" viewBox="0 0 24 24" fill="none" xmlns="http://www.w3.org/2000/svg">
<path fill-rule="evenodd" clip-rule="evenodd" d="M19 4L8 4C7.44771 4 7 4.44772 7 5V7C7 7.55229 6.55228 8 6 8C5.44771 8 5 7.55229 5 7V5C5 3.34315 6.34314 2 8 2L19 2C20.6569 2 22 3.34315 22 5V19C22 20.6569 20.6569 22 19 22H8C6.34314 22 5 20.6569 5 19V17C5 16.4477 5.44772 16 6 16C6.55228 16 7 16.4477 7 17V19C7 19.5523 7.44772 20 8 20H19C19.5523 20 20 19.5523 20 19V5C20 4.44772 19.5523 4 19 4ZM11.2929 7.29289C11.6834 6.90237 12.3166 6.90237 12.7071 7.29289L16.7071 11.2929C16.8946 11.4804 17 11.7348 17 12C17 12.2652 16.8946 12.5196 16.7071 12.7071L12.7071 16.7071C12.3166 17.0976 11.6834 17.0976 11.2929 16.7071C10.9024 16.3166 10.9024 15.6834 11.2929 15.2929L13.5858 13L3 13C2.44772 13 2 12.5523 2 12C2 11.4477 2.44772 11 3 11L13.5858 11L11.2929 8.70711C10.9024 8.31658 10.9024 7.68342 11.2929 7.29289Z" fill="#212121"/>
</svg>
