<svg width="24" height="25" viewBox="0 0 24 25" fill="none" xmlns="http://www.w3.org/2000/svg">
<path d="M22.7071 11.3911C23.0976 11.7816 23.0976 12.4148 22.7071 12.8053L18.7071 16.8053C18.3166 17.1958 17.6834 17.1958 17.2929 16.8053C16.9024 16.4148 16.9024 15.7816 17.2929 15.3911L19.5858 13.0982L8.07143 13.0982C7.4797 13.0982 7 12.6505 7 12.0982C7 11.5459 7.4797 11.0982 8.07143 11.0982L19.5858 11.0982L17.2929 8.80531C16.9024 8.41479 16.9024 7.78162 17.2929 7.3911C17.6834 7.00058 18.3166 7.00058 18.7071 7.3911L22.7071 11.3911Z" fill="#212121"/>
<path d="M15 5.09821C15 3.44135 13.6569 2.09821 12 2.09821L4 2.09821C2.34315 2.09821 1 3.44135 1 5.09821L1 19.0982C1 20.7551 2.34315 22.0982 4 22.0982H12C13.6569 22.0982 15 20.7551 15 19.0982V17.0982C15 16.5459 14.5523 16.0982 14 16.0982C13.4477 16.0982 13 16.5459 13 17.0982V19.0982C13 19.6505 12.5523 20.0982 12 20.0982H4C3.44772 20.0982 3 19.6505 3 19.0982L3 5.09821C3 4.54592 3.44772 4.09821 4 4.09821L12 4.09821C12.5523 4.09821 13 4.54592 13 5.09821V7.09821C13 7.65049 13.4477 8.09821 14 8.09821C14.5523 8.09821 15 7.65049 15 7.09821V5.09821Z" fill="#212121"/>
</svg>
