<svg width="24" height="24" viewBox="0 0 24 24" fill="none" xmlns="http://www.w3.org/2000/svg">
<path d="M22.7071 11.2929C23.0976 11.6834 23.0976 12.3166 22.7071 12.7071L18.7071 16.7071C18.3166 17.0976 17.6834 17.0976 17.2929 16.7071C16.9024 16.3166 16.9024 15.6834 17.2929 15.2929L19.5858 13L8.07143 13C7.4797 13 7 12.5523 7 12C7 11.4477 7.4797 11 8.07143 11L19.5858 11L17.2929 8.70711C16.9024 8.31658 16.9024 7.68342 17.2929 7.29289C17.6834 6.90237 18.3166 6.90237 18.7071 7.29289L22.7071 11.2929Z" fill="black"/>
<path d="M15 5C15 3.34315 13.6569 2 12 2L4 2C2.34315 2 1 3.34315 1 5L1 19C1 20.6569 2.34315 22 4 22H12C13.6569 22 15 20.6569 15 19V17C15 16.4477 14.5523 16 14 16C13.4477 16 13 16.4477 13 17V19C13 19.5523 12.5523 20 12 20H4C3.44772 20 3 19.5523 3 19L3 5C3 4.44772 3.44772 4 4 4L12 4C12.5523 4 13 4.44772 13 5V7C13 7.55229 13.4477 8 14 8C14.5523 8 15 7.55229 15 7V5Z" fill="black"/>
</svg>
