<svg width="24" height="25" viewBox="0 0 24 25" fill="none" xmlns="http://www.w3.org/2000/svg">
<rect x="2" y="4.09821" width="2" height="7" rx="1" transform="rotate(-90 2 4.09821)" fill="#212121"/>
<rect x="15" y="22.0982" width="2" height="7" rx="1" transform="rotate(-90 15 22.0982)" fill="#212121"/>
<rect x="22" y="9.09821" width="2" height="7" rx="1" transform="rotate(180 22 9.09821)" fill="#212121"/>
<rect x="2" y="15.0982" width="2" height="7" rx="0.999999" fill="#212121"/>
<rect x="2" y="2.09821" width="2" height="7" rx="1" fill="#212121"/>
<rect x="20" y="15.0982" width="2" height="7" rx="1" fill="#212121"/>
<rect x="15" y="4.09821" width="2" height="7" rx="1" transform="rotate(-90 15 4.09821)" fill="#212121"/>
<rect x="9" y="20.0982" width="2" height="7" rx="0.999999" transform="rotate(90 9 20.0982)" fill="#212121"/>
<rect x="13" y="14.5124" width="2" height="10.4939" rx="1" transform="rotate(-45 13 14.5124)" fill="#212121"/>
<rect x="2" y="3.51239" width="2" height="10.4939" rx="1" transform="rotate(-45 2 3.51239)" fill="#212121"/>
<rect width="2" height="10.4939" rx="1" transform="matrix(-0.707107 -0.707107 -0.707107 0.707107 10.8346 14.5124)" fill="#212121"/>
<rect width="2" height="10.4939" rx="1" transform="matrix(-0.707107 -0.707107 -0.707107 0.707107 21.8346 3.51239)" fill="#212121"/>
<path d="M3 4C2.44772 4 2 3.55228 2 3C2 2.44772 2.44772 2 3 2L8 2C8.55228 2 9 2.44772 9 3C9 3.55228 8.55228 4 8 4L3 4Z" fill="#212121"/>
<path d="M16 22C15.4477 22 15 21.5523 15 21C15 20.4477 15.4477 20 16 20H21C21.5523 20 22 20.4477 22 21C22 21.5523 21.5523 22 21 22H16Z" fill="#212121"/>
<path d="M22 8C22 8.55228 21.5523 9 21 9C20.4477 9 20 8.55229 20 8V3C20 2.44772 20.4477 2 21 2C21.5523 2 22 2.44772 22 3V8Z" fill="#212121"/>
<path d="M2 16C2 15.4477 2.44771 15 3 15C3.55228 15 4 15.4477 4 16L4 21C4 21.5523 3.55229 22 3 22C2.44772 22 2 21.5523 2 21L2 16Z" fill="#212121"/>
<path d="M2 3C2 2.44772 2.44772 2 3 2C3.55228 2 4 2.44772 4 3V8C4 8.55228 3.55228 9 3 9C2.44772 9 2 8.55228 2 8L2 3Z" fill="#212121"/>
<path d="M20 16C20 15.4477 20.4477 15 21 15C21.5523 15 22 15.4477 22 16V21C22 21.5523 21.5523 22 21 22C20.4477 22 20 21.5523 20 21V16Z" fill="#212121"/>
<path d="M16 4C15.4477 4 15 3.55228 15 3C15 2.44772 15.4477 2 16 2L21 2C21.5523 2 22 2.44772 22 3C22 3.55228 21.5523 4 21 4L16 4Z" fill="#212121"/>
<path d="M8 20C8.55229 20 9 20.4477 9 21C9 21.5523 8.55229 22 8 22L3 22C2.44772 22 2 21.5523 2 21C2 20.4477 2.44771 20 3 20H8Z" fill="#212121"/>
<path d="M13.7071 15.1213C13.3166 14.7308 13.3166 14.0976 13.7071 13.7071C14.0976 13.3166 14.7308 13.3166 15.1213 13.7071L21.1274 19.7132C21.518 20.1037 21.518 20.7369 21.1274 21.1274C20.7369 21.5179 20.1037 21.5179 19.7132 21.1274L13.7071 15.1213Z" fill="#212121"/>
<path d="M2.70711 4.12129C2.31658 3.73077 2.31658 3.0976 2.70711 2.70708C3.09763 2.31655 3.7308 2.31655 4.12132 2.70708L10.1274 8.71319C10.518 9.10372 10.518 9.73688 10.1274 10.1274C9.73691 10.5179 9.10375 10.5179 8.71322 10.1274L2.70711 4.12129Z" fill="#212121"/>
<path d="M10.1275 15.1213C10.518 14.7308 10.518 14.0976 10.1275 13.7071C9.73696 13.3166 9.1038 13.3166 8.71327 13.7071L2.70716 19.7132C2.31663 20.1037 2.31663 20.7369 2.70716 21.1274C3.09768 21.5179 3.73085 21.5179 4.12137 21.1274L10.1275 15.1213Z" fill="#212121"/>
<path d="M21.1275 4.12129C21.518 3.73077 21.518 3.0976 21.1275 2.70708C20.737 2.31655 20.1038 2.31655 19.7133 2.70708L13.7072 8.71319C13.3166 9.10372 13.3166 9.73688 13.7072 10.1274C14.0977 10.5179 14.7308 10.5179 15.1214 10.1274L21.1275 4.12129Z" fill="#212121"/>
</svg>
