<svg width="24" height="25" viewBox="0 0 24 25" fill="none" xmlns="http://www.w3.org/2000/svg">
<path d="M21 2.09821C21.5523 2.09821 22 2.54592 22 3.09821V11.0982C22 11.6505 21.5523 12.0982 21 12.0982C20.4477 12.0982 20 11.6505 20 11.0982V4.09821H13C12.4477 4.09821 12 3.65049 12 3.09821C12 2.54592 12.4477 2.09821 13 2.09821H21Z" fill="#212121"/>
<path d="M2 21.0982C2 21.6505 2.44772 22.0982 3 22.0982H11C11.5523 22.0982 12 21.6505 12 21.0982C12 20.5459 11.5523 20.0982 11 20.0982H4V13.0982C4 12.5459 3.55228 12.0982 3 12.0982C2.44772 12.0982 2 12.5459 2 13.0982V21.0982Z" fill="#212121"/>
</svg>
