<svg width="24" height="24" viewBox="0 0 24 24" fill="none" xmlns="http://www.w3.org/2000/svg">
<path d="M3 3.90179C2.44772 3.90179 2 3.45408 2 2.90179C2 2.34951 2.44772 1.90179 3 1.90179L8 1.90179C8.55228 1.90179 9 2.34951 9 2.90179C9 3.45408 8.55228 3.90179 8 3.90179L3 3.90179Z" fill="#212121"/>
<path d="M16 21.9018C15.4477 21.9018 15 21.4541 15 20.9018C15 20.3495 15.4477 19.9018 16 19.9018H21C21.5523 19.9018 22 20.3495 22 20.9018C22 21.4541 21.5523 21.9018 21 21.9018H16Z" fill="#212121"/>
<path d="M22 7.90179C22 8.45408 21.5523 8.90179 21 8.90179C20.4477 8.90179 20 8.45408 20 7.90179V2.90179C20 2.34951 20.4477 1.90179 21 1.90179C21.5523 1.90179 22 2.34951 22 2.90179V7.90179Z" fill="#212121"/>
<path d="M2 15.9018C2 15.3495 2.44771 14.9018 3 14.9018C3.55228 14.9018 4 15.3495 4 15.9018L4 20.9018C4 21.4541 3.55229 21.9018 3 21.9018C2.44772 21.9018 2 21.4541 2 20.9018L2 15.9018Z" fill="#212121"/>
<path d="M2 2.90179C2 2.34951 2.44772 1.90179 3 1.90179C3.55228 1.90179 4 2.34951 4 2.90179V7.90179C4 8.45408 3.55228 8.90179 3 8.90179C2.44772 8.90179 2 8.45408 2 7.90179L2 2.90179Z" fill="#212121"/>
<path d="M20 15.9018C20 15.3495 20.4477 14.9018 21 14.9018C21.5523 14.9018 22 15.3495 22 15.9018V20.9018C22 21.4541 21.5523 21.9018 21 21.9018C20.4477 21.9018 20 21.4541 20 20.9018V15.9018Z" fill="#212121"/>
<path d="M16 3.90179C15.4477 3.90179 15 3.45408 15 2.90179C15 2.34951 15.4477 1.90179 16 1.90179L21 1.90179C21.5523 1.90179 22 2.34951 22 2.90179C22 3.45408 21.5523 3.90179 21 3.90179L16 3.90179Z" fill="#212121"/>
<path d="M8 19.9018C8.55229 19.9018 9 20.3495 9 20.9018C9 21.4541 8.55229 21.9018 8 21.9018L3 21.9018C2.44772 21.9018 2 21.4541 2 20.9018C2 20.3495 2.44771 19.9018 3 19.9018H8Z" fill="#212121"/>
<path d="M13.7071 15.0231C13.3166 14.6326 13.3166 13.9994 13.7071 13.6089C14.0976 13.2183 14.7308 13.2183 15.1213 13.6089L21.1274 19.615C21.518 20.0055 21.518 20.6387 21.1274 21.0292C20.7369 21.4197 20.1037 21.4197 19.7132 21.0292L13.7071 15.0231Z" fill="#212121"/>
<path d="M2.70711 4.02309C2.31658 3.63256 2.31658 2.9994 2.70711 2.60887C3.09763 2.21835 3.7308 2.21835 4.12132 2.60887L10.1274 8.61499C10.518 9.00551 10.518 9.63868 10.1274 10.0292C9.73691 10.4197 9.10375 10.4197 8.71322 10.0292L2.70711 4.02309Z" fill="#212121"/>
<path d="M10.1275 15.0231C10.518 14.6326 10.518 13.9994 10.1275 13.6089C9.73696 13.2183 9.1038 13.2183 8.71327 13.6089L2.70716 19.615C2.31663 20.0055 2.31663 20.6387 2.70716 21.0292C3.09768 21.4197 3.73085 21.4197 4.12137 21.0292L10.1275 15.0231Z" fill="#212121"/>
<path d="M21.1275 4.02309C21.518 3.63256 21.518 2.9994 21.1275 2.60887C20.737 2.21835 20.1038 2.21835 19.7133 2.60887L13.7072 8.61499C13.3166 9.00551 13.3166 9.63868 13.7072 10.0292C14.0977 10.4197 14.7308 10.4197 15.1214 10.0292L21.1275 4.02309Z" fill="#212121"/>
</svg>
