<svg width="24" height="25" viewBox="0 0 24 25" fill="none" xmlns="http://www.w3.org/2000/svg">
<path fill-rule="evenodd" clip-rule="evenodd" d="M4.06955 7.49041C5.92611 5.76647 8.65782 4.09821 12 4.09821C15.3422 4.09821 18.0739 5.76647 19.9305 7.49041C20.8642 8.35744 21.6022 9.26127 22.1133 10.0279C22.3684 10.4105 22.5753 10.7715 22.7228 11.0878C22.8483 11.3572 23 11.7348 23 12.0982C23 12.4616 22.8483 12.8392 22.7228 13.1086C22.5753 13.4249 22.3684 13.786 22.1133 14.1685C21.6022 14.9351 20.8642 15.839 19.9305 16.706C18.0739 18.4299 15.3422 20.0982 12 20.0982C8.65782 20.0982 5.92611 18.4299 4.06955 16.706C3.13583 15.839 2.39778 14.9351 1.8867 14.1685C1.63165 13.786 1.4247 13.4249 1.27724 13.1086C1.15167 12.8392 1 12.4616 1 12.0982C1 11.7348 1.15167 11.3572 1.27724 11.0878C1.4247 10.7715 1.63165 10.4105 1.8867 10.0279C2.39778 9.26127 3.13583 8.35744 4.06955 7.49041ZM3.01987 12.0982C3.0337 12.1355 3.05562 12.1899 3.08995 12.2636C3.18467 12.4668 3.3371 12.7386 3.5508 13.0591C3.97722 13.6988 4.61417 14.4824 5.43045 15.2404C7.07389 16.7665 9.34218 18.0982 12 18.0982C14.6578 18.0982 16.9261 16.7665 18.5695 15.2404C19.3858 14.4824 20.0228 13.6988 20.4492 13.0591C20.6629 12.7386 20.8153 12.4668 20.91 12.2636C20.9444 12.1899 20.9663 12.1355 20.9801 12.0982C20.9663 12.0609 20.9444 12.0065 20.91 11.9328C20.8153 11.7296 20.6629 11.4578 20.4492 11.1373C20.0228 10.4976 19.3858 9.71397 18.5695 8.956C16.9261 7.42995 14.6578 6.09821 12 6.09821C9.34218 6.09821 7.07389 7.42995 5.43045 8.956C4.61417 9.71397 3.97722 10.4976 3.5508 11.1373C3.3371 11.4578 3.18467 11.7296 3.08995 11.9328C3.05562 12.0065 3.0337 12.0609 3.01987 12.0982Z" fill="#212121"/>
<path fill-rule="evenodd" clip-rule="evenodd" d="M8 12.0982C8 9.88907 9.79086 8.09821 12 8.09821C14.2091 8.09821 16 9.88907 16 12.0982C16 14.3073 14.2091 16.0982 12 16.0982C9.79086 16.0982 8 14.3073 8 12.0982ZM12 10.0982C10.8954 10.0982 10 10.9936 10 12.0982C10 13.2028 10.8954 14.0982 12 14.0982C13.1046 14.0982 14 13.2028 14 12.0982C14 10.9936 13.1046 10.0982 12 10.0982Z" fill="#212121"/>
</svg>
