<svg width="24" height="25" viewBox="0 0 24 25" fill="none" xmlns="http://www.w3.org/2000/svg">
<path fill-rule="evenodd" clip-rule="evenodd" d="M11.9999 14.0982C12.5522 14.0982 12.9999 14.5459 12.9999 15.0982V17.0982C12.9999 17.6505 12.5522 18.0982 11.9999 18.0982C11.4477 18.0982 10.9999 17.6505 10.9999 17.0982V15.0982C10.9999 14.5459 11.4477 14.0982 11.9999 14.0982Z" fill="#212121"/>
<path fill-rule="evenodd" clip-rule="evenodd" d="M16.6725 13.3828C17.2034 13.2304 17.7573 13.5372 17.9097 14.068L18.4618 15.9906C18.6142 16.5215 18.3074 17.0754 17.7766 17.2278C17.2458 17.3802 16.6919 17.0735 16.5394 16.5426L15.9874 14.62C15.8349 14.0892 16.1417 13.5353 16.6725 13.3828Z" fill="#212121"/>
<path fill-rule="evenodd" clip-rule="evenodd" d="M20.9691 11.3839C21.4424 11.0993 22.0568 11.2523 22.3414 11.7256L23.3723 13.4398C23.6569 13.9131 23.504 14.5275 23.0307 14.8121C22.5574 15.0967 21.943 14.9438 21.6583 14.4705L20.6275 12.7563C20.3428 12.283 20.4958 11.6686 20.9691 11.3839Z" fill="#212121"/>
<path fill-rule="evenodd" clip-rule="evenodd" d="M7.2601 13.382C7.79603 13.5154 8.12233 14.058 7.98892 14.594L7.50571 16.5351C7.3723 17.071 6.8297 17.3973 6.29377 17.2639C5.75784 17.1305 5.43153 16.5879 5.56495 16.0519L6.04815 14.1108C6.18156 13.5749 6.72417 13.2486 7.2601 13.382Z" fill="#212121"/>
<path fill-rule="evenodd" clip-rule="evenodd" d="M2.96881 11.3483C3.45195 11.6159 3.6267 12.2244 3.35912 12.7076L2.39 14.4574C2.12242 14.9406 1.51385 15.1153 1.03071 14.8478C0.547573 14.5802 0.372825 13.9716 0.640399 13.4885L1.60953 11.7386C1.8771 11.2555 2.48567 11.0807 2.96881 11.3483Z" fill="#212121"/>
<path fill-rule="evenodd" clip-rule="evenodd" d="M1.99988 5.09821C2.55217 5.09821 2.99988 5.54592 2.99988 6.09821C2.99988 6.0945 3.00002 6.09261 3.00002 6.09261C3.00002 6.09261 3.00979 6.17117 3.08246 6.34229C3.15914 6.52285 3.2853 6.75526 3.46986 7.02443C3.8384 7.56194 4.40712 8.19831 5.17512 8.80728C6.70468 10.0201 8.99024 11.0982 11.9999 11.0982C15.0095 11.0982 17.2951 10.0201 18.8246 8.80728C19.5926 8.19831 20.1614 7.56194 20.5299 7.02443C20.7145 6.75526 20.8406 6.52285 20.9173 6.34229C20.99 6.17117 20.9997 6.09261 20.9997 6.09261C20.9997 6.09261 20.9999 6.0945 20.9999 6.09821C20.9999 5.54592 21.4476 5.09821 21.9999 5.09821C22.5522 5.09821 22.9999 5.54592 22.9999 6.09821C22.9999 6.45437 22.8899 6.81384 22.7582 7.12411C22.6192 7.45128 22.4228 7.80051 22.1794 8.15542C21.6921 8.86608 20.9839 9.64759 20.0673 10.3744C18.2275 11.8332 15.5131 13.0982 11.9999 13.0982C8.48668 13.0982 5.77223 11.8332 3.93251 10.3744C3.01587 9.64759 2.30762 8.86608 1.82035 8.15542C1.57701 7.80051 1.38055 7.45128 1.2416 7.12411C1.10983 6.81384 0.999882 6.45437 0.999882 6.09821C0.999882 5.54592 1.4476 5.09821 1.99988 5.09821Z" fill="#212121"/>
</svg>
