<svg width="24" height="25" viewBox="0 0 24 25" fill="none" xmlns="http://www.w3.org/2000/svg">
<path d="M4.5 4.09821C4.22386 4.09821 4 4.32206 4 4.59821V7.09821C4 7.65049 3.55228 8.09821 3 8.09821C2.44772 8.09821 2 7.65049 2 7.09821V4.59821C2 3.21749 3.11929 2.09821 4.5 2.09821H7C7.55228 2.09821 8 2.54592 8 3.09821C8 3.65049 7.55228 4.09821 7 4.09821H4.5Z" fill="#212121"/>
<path d="M13 9.09821C13 8.54592 12.5523 8.09821 12 8.09821C11.4477 8.09821 11 8.54592 11 9.09821V12.684L10.7929 12.8911C10.4024 13.2816 10.4024 13.9148 10.7929 14.3053C11.1834 14.6958 11.8166 14.6958 12.2071 14.3053L12.4142 14.0982C12.7893 13.7231 13 13.2144 13 12.684V9.09821Z" fill="#212121"/>
<path d="M10.2071 15.3911C9.81658 15.0006 9.18342 15.0006 8.79289 15.3911C8.40237 15.7816 8.40237 16.4148 8.79289 16.8053C8.8071 16.8195 8.82319 16.836 8.84119 16.8544C9.00241 17.0192 9.31652 17.3404 9.79749 17.6018C10.3442 17.899 11.0535 18.0982 12 18.0982C12.9465 18.0982 13.6558 17.899 14.2025 17.6018C14.6835 17.3404 14.9976 17.0192 15.1588 16.8544C15.1767 16.836 15.1929 16.8195 15.2071 16.8053C15.5976 16.4148 15.5976 15.7816 15.2071 15.3911C14.8166 15.0006 14.1834 15.0006 13.7929 15.3911L13.7332 15.4511C13.5736 15.612 13.4545 15.7321 13.2475 15.8446C13.0276 15.9641 12.6535 16.0982 12 16.0982C11.3465 16.0982 10.9724 15.9641 10.7525 15.8446C10.5455 15.7321 10.4264 15.612 10.2668 15.4511L10.2071 15.3911Z" fill="#212121"/>
<path d="M20 4.59821C20 4.32206 19.7761 4.09821 19.5 4.09821H17C16.4477 4.09821 16 3.65049 16 3.09821C16 2.54592 16.4477 2.09821 17 2.09821H19.5C20.8807 2.09821 22 3.21749 22 4.59821V7.09821C22 7.65049 21.5523 8.09821 21 8.09821C20.4477 8.09821 20 7.65049 20 7.09821V4.59821Z" fill="#212121"/>
<path d="M19.5 20.0982C19.7761 20.0982 20 19.8743 20 19.5982V17.0982C20 16.5459 20.4477 16.0982 21 16.0982C21.5523 16.0982 22 16.5459 22 17.0982V19.5982C22 20.9789 20.8807 22.0982 19.5 22.0982H17C16.4477 22.0982 16 21.6505 16 21.0982C16 20.5459 16.4477 20.0982 17 20.0982H19.5Z" fill="#212121"/>
<path d="M4 19.5982C4 19.8743 4.22386 20.0982 4.5 20.0982H7C7.55228 20.0982 8 20.5459 8 21.0982C8 21.6505 7.55228 22.0982 7 22.0982H4.5C3.11929 22.0982 2 20.9789 2 19.5982V17.0982C2 16.5459 2.44772 16.0982 3 16.0982C3.55228 16.0982 4 16.5459 4 17.0982V19.5982Z" fill="#212121"/>
<path d="M7 9.09821C7 8.54592 7.44772 8.09821 8 8.09821C8.55228 8.09821 9 8.54592 9 9.09821V11.0982C9 11.6505 8.55228 12.0982 8 12.0982C7.44772 12.0982 7 11.6505 7 11.0982V9.09821Z" fill="#212121"/>
<path d="M16 8.09821C15.4477 8.09821 15 8.54592 15 9.09821V11.0982C15 11.6505 15.4477 12.0982 16 12.0982C16.5523 12.0982 17 11.6505 17 11.0982V9.09821C17 8.54592 16.5523 8.09821 16 8.09821Z" fill="#212121"/>
</svg>
