<svg width="24" height="24" viewBox="0 0 24 24" fill="none" xmlns="http://www.w3.org/2000/svg">
<path d="M4.5 4C4.22386 4 4 4.22386 4 4.5V7C4 7.55228 3.55228 8 3 8C2.44772 8 2 7.55228 2 7V4.5C2 3.11929 3.11929 2 4.5 2H7C7.55228 2 8 2.44772 8 3C8 3.55228 7.55228 4 7 4H4.5Z" fill="#212121"/>
<path d="M13 9C13 8.44772 12.5523 8 12 8C11.4477 8 11 8.44772 11 9V12.5858L10.7929 12.7929C10.4024 13.1834 10.4024 13.8166 10.7929 14.2071C11.1834 14.5976 11.8166 14.5976 12.2071 14.2071L12.4142 14C12.7893 13.6249 13 13.1162 13 12.5858V9Z" fill="#212121"/>
<path d="M10.2071 15.2929C9.81658 14.9024 9.18342 14.9024 8.79289 15.2929C8.40237 15.6834 8.40237 16.3166 8.79289 16.7071C8.8071 16.7213 8.82319 16.7378 8.84119 16.7562C9.00241 16.921 9.31652 17.2422 9.79749 17.5036C10.3442 17.8008 11.0535 18 12 18C12.9465 18 13.6558 17.8008 14.2025 17.5036C14.6835 17.2422 14.9976 16.921 15.1588 16.7562C15.1767 16.7378 15.1929 16.7213 15.2071 16.7071C15.5976 16.3166 15.5976 15.6834 15.2071 15.2929C14.8166 14.9024 14.1834 14.9024 13.7929 15.2929L13.7332 15.3529C13.5736 15.5138 13.4545 15.6339 13.2475 15.7464C13.0276 15.8659 12.6535 16 12 16C11.3465 16 10.9724 15.8659 10.7525 15.7464C10.5455 15.6339 10.4264 15.5138 10.2668 15.3529L10.2071 15.2929Z" fill="#212121"/>
<path d="M20 4.5C20 4.22386 19.7761 4 19.5 4H17C16.4477 4 16 3.55228 16 3C16 2.44772 16.4477 2 17 2H19.5C20.8807 2 22 3.11929 22 4.5V7C22 7.55228 21.5523 8 21 8C20.4477 8 20 7.55228 20 7V4.5Z" fill="#212121"/>
<path d="M19.5 20C19.7761 20 20 19.7761 20 19.5V17C20 16.4477 20.4477 16 21 16C21.5523 16 22 16.4477 22 17V19.5C22 20.8807 20.8807 22 19.5 22H17C16.4477 22 16 21.5523 16 21C16 20.4477 16.4477 20 17 20H19.5Z" fill="#212121"/>
<path d="M4 19.5C4 19.7761 4.22386 20 4.5 20H7C7.55228 20 8 20.4477 8 21C8 21.5523 7.55228 22 7 22H4.5C3.11929 22 2 20.8807 2 19.5V17C2 16.4477 2.44772 16 3 16C3.55228 16 4 16.4477 4 17V19.5Z" fill="#212121"/>
<path d="M7 9C7 8.44772 7.44772 8 8 8C8.55228 8 9 8.44772 9 9V11C9 11.5523 8.55228 12 8 12C7.44772 12 7 11.5523 7 11V9Z" fill="#212121"/>
<path d="M16 8C15.4477 8 15 8.44772 15 9V11C15 11.5523 15.4477 12 16 12C16.5523 12 17 11.5523 17 11V9C17 8.44772 16.5523 8 16 8Z" fill="#212121"/>
</svg>
