<svg width="24" height="25" viewBox="0 0 24 25" fill="none" xmlns="http://www.w3.org/2000/svg">
<path d="M19.6573 4.10868C17.0183 2.27267 13.7596 3.12947 12.0003 5.23069C10.241 3.12947 6.9822 2.26247 4.34322 4.10868C2.94376 5.08789 2.06409 6.7403 2.00412 8.48452C1.86417 12.4422 5.30285 15.6144 10.5508 20.4798L10.6508 20.5716C11.4105 21.2754 12.5801 21.2754 13.3398 20.5614L13.4497 20.4594C18.6977 15.6042 22.1264 12.432 21.9964 8.47432C21.9365 6.7403 21.0568 5.08789 19.6573 4.10868ZM12.1002 18.96L12.0003 19.062L11.9003 18.96C7.14214 14.5638 4.00335 11.6567 4.00335 8.70892C4.00335 6.6689 5.50277 5.13889 7.502 5.13889C8.72202 5.13889 9.91693 5.77314 10.624 6.73193C10.9567 7.1832 11.4414 7.54611 12.0021 7.54611C12.5659 7.54611 13.0525 7.17907 13.3867 6.72499C14.0894 5.77008 15.2815 5.13889 16.4985 5.13889C18.4978 5.13889 19.9972 6.6689 19.9972 8.70892C19.9972 11.6567 16.8584 14.5638 12.1002 18.96Z" fill="#212121"/>
</svg>
