<svg width="24" height="24" viewBox="0 0 24 24" fill="none" xmlns="http://www.w3.org/2000/svg">
<path d="M19.6573 4.01048C17.0183 2.17446 13.7596 3.03127 12.0003 5.13249C10.241 3.03127 6.9822 2.16426 4.34322 4.01048C2.94376 4.98968 2.06409 6.6421 2.00412 8.38631C1.86417 12.3439 5.30285 15.5162 10.5508 20.3816L10.6508 20.4734C11.4105 21.1772 12.5801 21.1772 13.3398 20.4632L13.4497 20.3612C18.6977 15.506 22.1264 12.3337 21.9964 8.37611C21.9365 6.6421 21.0568 4.98968 19.6573 4.01048ZM12.1002 18.8618L12.0003 18.9638L11.9003 18.8618C7.14214 14.4656 4.00335 11.5585 4.00335 8.61071C4.00335 6.5707 5.50277 5.04068 7.502 5.04068C8.72202 5.04068 9.91693 5.67494 10.624 6.63373C10.9567 7.08499 11.4414 7.4479 12.0021 7.4479C12.5659 7.4479 13.0525 7.08087 13.3867 6.62679C14.0894 5.67188 15.2815 5.04068 16.4985 5.04068C18.4978 5.04068 19.9972 6.5707 19.9972 8.61071C19.9972 11.5585 16.8584 14.4656 12.1002 18.8618Z" fill="#212121"/>
</svg>
