<svg width="24" height="24" viewBox="0 0 24 24" fill="none" xmlns="http://www.w3.org/2000/svg">
<path d="M7.5 12C8.32843 12 9 11.3284 9 10.5C9 9.67157 8.32843 9 7.5 9C6.67157 9 6 9.67157 6 10.5C6 11.3284 6.67157 12 7.5 12Z" fill="black"/>
<path d="M12.5 12C13.3284 12 14 11.3284 14 10.5C14 9.67157 13.3284 9 12.5 9C11.6716 9 11 9.67157 11 10.5C11 11.3284 11.6716 12 12.5 12Z" fill="black"/>
<path d="M19 10.5C19 11.3284 18.3284 12 17.5 12C16.6716 12 16 11.3284 16 10.5C16 9.67157 16.6716 9 17.5 9C18.3284 9 19 9.67157 19 10.5Z" fill="black"/>
<path fill-rule="evenodd" clip-rule="evenodd" d="M4 2C2.89543 2 2 2.89543 2 4V17C2 18.1046 2.89543 19 4 19H7C7 19 8.9132 21.624 9.66331 21.9633C9.88354 22.0629 10.1143 22.0629 10.3188 21.9633C11.0715 21.5966 13 19 13 19H21C22.1046 19 23 18.1046 23 17V4C23 2.89543 22.1046 2 21 2H4ZM5 4C4.44772 4 4 4.44772 4 5V16C4 16.5523 4.44772 17 5 17H8C8 17 9.8646 19.6166 10 19.6166C10.1354 19.6166 12 17 12 17H20C20.5523 17 21 16.5523 21 16V5C21 4.44772 20.5523 4 20 4H5Z" fill="black"/>
</svg>
