<svg width="24" height="24" viewBox="0 0 24 24" fill="none" xmlns="http://www.w3.org/2000/svg">
<path fill-rule="evenodd" clip-rule="evenodd" d="M7 2C5.34315 2 4 3.34315 4 5V11C4 11.5523 4.44772 12 5 12C5.55228 12 6 11.5523 6 11V5C6 4.44772 6.44772 4 7 4H13V8C13 9.65685 14.3431 11 16 11H20V19C20 19.5523 19.5523 20 19 20H9C8.44772 20 8 20.4477 8 21C8 21.5523 8.44772 22 9 22H19C20.6569 22 22 20.6569 22 19V9.82843C22 9.03278 21.6839 8.26972 21.1213 7.70711L16.2929 2.87868C15.7303 2.31607 14.9672 2 14.1716 2H7ZM19.5858 9L15 4.41421V8C15 8.55228 15.4477 9 16 9H19.5858Z" fill="#212121"/>
<path d="M5 13C5.55228 13 6 13.4477 6 14V16H8C8.55228 16 9 16.4477 9 17C9 17.5523 8.55228 18 8 18H6V20C6 20.5523 5.55228 21 5 21C4.44772 21 4 20.5523 4 20V18H2C1.44772 18 1 17.5523 1 17C1 16.4477 1.44772 16 2 16H4V14C4 13.4477 4.44772 13 5 13Z" fill="#212121"/>
</svg>
