<svg width="24" height="25" viewBox="0 0 24 25" fill="none" xmlns="http://www.w3.org/2000/svg">
<path fill-rule="evenodd" clip-rule="evenodd" d="M7 4.09821C7 2.44135 8.34315 1.09821 10 1.09821H14.1716C14.9672 1.09821 15.7303 1.41428 16.2929 1.97689L21.1213 6.80531C21.6839 7.36792 22 8.13098 22 8.92663V15.0982C22 16.7551 20.6569 18.0982 19 18.0982V20.0982C19 21.7551 17.6569 23.0982 16 23.0982H6C3.79086 23.0982 2 21.3073 2 19.0982V7.09821C2 5.44135 3.34315 4.09821 5 4.09821H7ZM10 18.0982H17V20.0982C17 20.6505 16.5523 21.0982 16 21.0982H6C4.89543 21.0982 4 20.2028 4 19.0982V7.09821C4 6.54592 4.44772 6.09821 5 6.09821H7V15.0982C7 16.7551 8.34315 18.0982 10 18.0982ZM10 3.09821C9.44772 3.09821 9 3.54592 9 4.09821V15.0982C9 15.6505 9.44772 16.0982 10 16.0982H19C19.5523 16.0982 20 15.6505 20 15.0982V10.0982H16C14.3431 10.0982 13 8.75506 13 7.09821V3.09821H10ZM19.5858 8.09821L15 3.51242V7.09821C15 7.65049 15.4477 8.09821 16 8.09821H19.5858Z" fill="#212121"/>
</svg>
