<svg width="24" height="24" viewBox="0 0 24 24" fill="none" xmlns="http://www.w3.org/2000/svg">
<path fill-rule="evenodd" clip-rule="evenodd" d="M7 4C7 2.34315 8.34315 1 10 1H14.1716C14.9672 1 15.7303 1.31607 16.2929 1.87868L21.1213 6.70711C21.6839 7.26972 22 8.03278 22 8.82843V15C22 16.6569 20.6569 18 19 18V20C19 21.6569 17.6569 23 16 23H6C3.79086 23 2 21.2091 2 19V7C2 5.34315 3.34315 4 5 4H7ZM10 18H17V20C17 20.5523 16.5523 21 16 21H6C4.89543 21 4 20.1046 4 19V7C4 6.44772 4.44772 6 5 6H7V15C7 16.6569 8.34315 18 10 18ZM10 3C9.44772 3 9 3.44772 9 4V15C9 15.5523 9.44772 16 10 16H19C19.5523 16 20 15.5523 20 15V10H16C14.3431 10 13 8.65685 13 7V3H10ZM19.5858 8L15 3.41421V7C15 7.55228 15.4477 8 16 8H19.5858Z" fill="#212121"/>
</svg>
