<svg width="24" height="25" viewBox="0 0 24 25" fill="none" xmlns="http://www.w3.org/2000/svg">
<path fill-rule="evenodd" clip-rule="evenodd" d="M6 2.09821C4.34315 2.09821 3 3.44135 3 5.09821V19.0982C3 20.7551 4.34315 22.0982 6 22.0982H18C19.6569 22.0982 21 20.7551 21 19.0982V9.92663C21 9.13098 20.6839 8.36792 20.1213 7.80531L15.2929 2.97689C14.7303 2.41428 13.9672 2.09821 13.1716 2.09821H6ZM5 5.09821C5 4.54592 5.44772 4.09821 6 4.09821H12V8.09821C12 9.75506 13.3431 11.0982 15 11.0982H19V19.0982C19 19.6505 18.5523 20.0982 18 20.0982H6C5.44772 20.0982 5 19.6505 5 19.0982V5.09821ZM18.5858 9.09821L14 4.51242V8.09821C14 8.65049 14.4477 9.09821 15 9.09821H18.5858Z" fill="#212121"/>
</svg>
