<svg width="24" height="24" viewBox="0 0 24 24" fill="none" xmlns="http://www.w3.org/2000/svg">
<path fill-rule="evenodd" clip-rule="evenodd" d="M6 2C4.34315 2 3 3.34315 3 5V19C3 20.6569 4.34315 22 6 22H18C19.6569 22 21 20.6569 21 19V9.82843C21 9.03278 20.6839 8.26972 20.1213 7.70711L15.2929 2.87868C14.7303 2.31607 13.9672 2 13.1716 2H6ZM5 5C5 4.44772 5.44772 4 6 4H12V8C12 9.65685 13.3431 11 15 11H19V19C19 19.5523 18.5523 20 18 20H6C5.44772 20 5 19.5523 5 19V5ZM18.5858 9L14 4.41421V8C14 8.55228 14.4477 9 15 9H18.5858Z" fill="#212121"/>
</svg>
