<svg width="24" height="24" viewBox="0 0 24 24" fill="none" xmlns="http://www.w3.org/2000/svg">
<path fill-rule="evenodd" clip-rule="evenodd" d="M1 7C1 6.44772 1.44772 6 2 6H5C5.55228 6 6 6.44772 6 7C6 7.55228 5.55228 8 5 8H2C1.44772 8 1 7.55228 1 7Z" fill="#212121"/>
<path fill-rule="evenodd" clip-rule="evenodd" d="M11 7C11 6.44772 11.4477 6 12 6H22C22.5523 6 23 6.44772 23 7C23 7.55228 22.5523 8 22 8H12C11.4477 8 11 7.55228 11 7Z" fill="#212121"/>
<path fill-rule="evenodd" clip-rule="evenodd" d="M1 17C1 16.4477 1.44772 16 2 16H12C12.5523 16 13 16.4477 13 17C13 17.5523 12.5523 18 12 18H2C1.44772 18 1 17.5523 1 17Z" fill="#212121"/>
<path fill-rule="evenodd" clip-rule="evenodd" d="M18 17C18 16.4477 18.4477 16 19 16H22C22.5523 16 23 16.4477 23 17C23 17.5523 22.5523 18 22 18H19C18.4477 18 18 17.5523 18 17Z" fill="#212121"/>
<path fill-rule="evenodd" clip-rule="evenodd" d="M4 7C4 4.79086 5.79086 3 8 3C10.2091 3 12 4.79086 12 7C12 9.20914 10.2091 11 8 11C5.79086 11 4 9.20914 4 7ZM8 5C6.89543 5 6 5.89543 6 7C6 8.10457 6.89543 9 8 9C9.10457 9 10 8.10457 10 7C10 5.89543 9.10457 5 8 5Z" fill="#212121"/>
<path fill-rule="evenodd" clip-rule="evenodd" d="M12 17C12 14.7909 13.7909 13 16 13C18.2091 13 20 14.7909 20 17C20 19.2091 18.2091 21 16 21C13.7909 21 12 19.2091 12 17ZM16 15C14.8954 15 14 15.8954 14 17C14 18.1046 14.8954 19 16 19C17.1046 19 18 18.1046 18 17C18 15.8954 17.1046 15 16 15Z" fill="#212121"/>
</svg>
