<svg width="24" height="24" viewBox="0 0 24 24" fill="none" xmlns="http://www.w3.org/2000/svg">
<path fill-rule="evenodd" clip-rule="evenodd" d="M9 11C7.13616 11 5.57006 9.72523 5.12602 8H2C1.44772 8 1 7.55228 1 7C1 6.44772 1.44772 6 2 6H5.12602C5.57006 4.27477 7.13616 3 9 3C10.8638 3 12.4299 4.27477 12.874 6H22C22.5523 6 23 6.44772 23 7C23 7.55228 22.5523 8 22 8H12.874C12.4299 9.72523 10.8638 11 9 11ZM11 7C11 8.10457 10.1046 9 9 9C7.89543 9 7 8.10457 7 7C7 5.89543 7.89543 5 9 5C10.1046 5 11 5.89543 11 7Z" fill="#212121"/>
<path fill-rule="evenodd" clip-rule="evenodd" d="M1 17C1 17.5523 1.44772 18 2 18H11.126C11.5701 19.7252 13.1362 21 15 21C16.8638 21 18.4299 19.7252 18.874 18H22C22.5523 18 23 17.5523 23 17C23 16.4477 22.5523 16 22 16H18.874C18.4299 14.2748 16.8638 13 15 13C13.1362 13 11.5701 14.2748 11.126 16H2C1.44772 16 1 16.4477 1 17ZM17 17C17 18.1046 16.1046 19 15 19C13.8954 19 13 18.1046 13 17C13 15.8954 13.8954 15 15 15C16.1046 15 17 15.8954 17 17Z" fill="#212121"/>
</svg>
