<svg width="24" height="25" viewBox="0 0 24 25" fill="none" xmlns="http://www.w3.org/2000/svg">
<path d="M7 18.0982C7 17.2982 7.66667 17.0982 8 17.0982C8.33333 17.0982 9 17.2982 9 18.0982C9 18.8982 8.33333 19.0982 8 19.0982C7.66667 19.0982 7 18.8982 7 18.0982Z" fill="#212121"/>
<path d="M15 18.0982C15 17.2982 15.6667 17.0982 16 17.0982C16.3333 17.0982 17 17.2982 17 18.0982C17 18.8982 16.3333 19.0982 16 19.0982C15.6667 19.0982 15 18.8982 15 18.0982Z" fill="#212121"/>
<path d="M15 12.0982C15 11.2982 15.6667 11.0982 16 11.0982C16.3333 11.0982 17 11.2982 17 12.0982C17 12.8982 16.3333 13.0982 16 13.0982C15.6667 13.0982 15 12.8982 15 12.0982Z" fill="#212121"/>
<path d="M7 12.0982C7 11.2982 7.66667 11.0982 8 11.0982C8.33333 11.0982 9 11.2982 9 12.0982C9 12.8982 8.33333 13.0982 8 13.0982C7.66667 13.0982 7 12.8982 7 12.0982Z" fill="#212121"/>
<path d="M7 6.09821C7 5.29821 7.66667 5.09821 8 5.09821C8.33333 5.09821 9 5.29821 9 6.09821C9 6.89821 8.33333 7.09821 8 7.09821C7.66667 7.09821 7 6.89821 7 6.09821Z" fill="#212121"/>
<path d="M15 6.09821C15 5.29821 15.6667 5.09821 16 5.09821C16.3333 5.09821 17 5.29821 17 6.09821C17 6.89821 16.3333 7.09821 16 7.09821C15.6667 7.09821 15 6.89821 15 6.09821Z" fill="#212121"/>
</svg>
