<svg width="24" height="24" viewBox="0 0 24 24" fill="none" xmlns="http://www.w3.org/2000/svg">
<path d="M7 18C7 17.2 7.66667 17 8 17C8.33333 17 9 17.2 9 18C9 18.8 8.33333 19 8 19C7.66667 19 7 18.8 7 18Z" fill="#212121"/>
<path d="M15 18C15 17.2 15.6667 17 16 17C16.3333 17 17 17.2 17 18C17 18.8 16.3333 19 16 19C15.6667 19 15 18.8 15 18Z" fill="#212121"/>
<path d="M15 12C15 11.2 15.6667 11 16 11C16.3333 11 17 11.2 17 12C17 12.8 16.3333 13 16 13C15.6667 13 15 12.8 15 12Z" fill="#212121"/>
<path d="M7 12C7 11.2 7.66667 11 8 11C8.33333 11 9 11.2 9 12C9 12.8 8.33333 13 8 13C7.66667 13 7 12.8 7 12Z" fill="#212121"/>
<path d="M7 6C7 5.2 7.66667 5 8 5C8.33333 5 9 5.2 9 6C9 6.8 8.33333 7 8 7C7.66667 7 7 6.8 7 6Z" fill="#212121"/>
<path d="M15 6C15 5.2 15.6667 5 16 5C16.3333 5 17 5.2 17 6C17 6.8 16.3333 7 16 7C15.6667 7 15 6.8 15 6Z" fill="#212121"/>
</svg>
