<svg width="24" height="24" viewBox="0 0 24 24" fill="none" xmlns="http://www.w3.org/2000/svg">
<path fill-rule="evenodd" clip-rule="evenodd" d="M12 8C9.79086 8 8 9.79086 8 12C8 14.2091 9.79086 16 12 16C14.2091 16 16 14.2091 16 12C16 9.79086 14.2091 8 12 8ZM10 12C10 10.8954 10.8954 10 12 10C13.1046 10 14 10.8954 14 12C14 13.1046 13.1046 14 12 14C10.8954 14 10 13.1046 10 12Z" fill="#212121"/>
<path fill-rule="evenodd" clip-rule="evenodd" d="M9 3C9 1.89543 9.89543 1 11 1H13C14.1046 1 15 1.89543 15 3V3.88197L15.5351 4.13924L16.0628 3.57401C16.835 2.74698 18.1388 2.72462 18.9389 3.52468L20.4542 5.04003C21.2701 5.85591 21.2283 7.19105 20.3629 7.95424L19.8355 8.41941L20.118 9H21C22.1046 9 23 9.89543 23 11V13C23 14.1046 22.1046 15 21 15H20.118L19.8355 15.5806L20.3629 16.0458C21.2283 16.809 21.2701 18.1441 20.4542 18.96L18.9389 20.4753C18.1388 21.2754 16.835 21.253 16.0628 20.426L15.5351 19.8608L15 20.118V21C15 22.1046 14.1046 23 13 23H11C9.89543 23 9 22.1046 9 21V20.118L8.46493 19.8608L7.9372 20.426C7.16505 21.253 5.86117 21.2754 5.06111 20.4753L3.54576 18.96C2.72987 18.1441 2.77171 16.809 3.63709 16.0458L4.16453 15.5806L3.88197 15H3C1.89543 15 1 14.1046 1 13V11C1 9.89543 1.89543 9 3 9H3.88197L4.16453 8.41941L3.63709 7.95424C2.77171 7.19105 2.72987 5.85591 3.54576 5.04003L5.06111 3.52468C5.86117 2.72462 7.16505 2.74698 7.9372 3.57401L8.46493 4.13924L9 3.88197V3ZM18.5126 6.91941C17.8553 7.49913 17.6519 8.4393 18.011 9.23881L18.3292 9.89443C18.668 10.572 19.3605 11 20.118 11H21V13H20.118C19.3605 13 18.668 13.428 18.3292 14.1056L18.011 14.7612C17.6519 15.5607 17.8553 16.5009 18.5126 17.0806L19.04 17.5458L17.5247 19.0611L16.997 18.4959C16.4278 17.8863 15.5402 17.6939 14.7697 18.013L14.1056 18.3292C13.428 18.668 13 19.3605 13 20.118V21H11V20.118C11 19.3605 10.572 18.668 9.89443 18.3292L9.23029 18.013C8.45981 17.6939 7.57218 17.8863 7.00305 18.4959L6.47532 19.0611L4.95997 17.5458L5.48741 17.0806C6.14475 16.5009 6.34805 15.5607 5.98897 14.7612L5.67082 14.1056C5.33204 13.428 4.63951 13 3.88197 13H3V11H3.88197C4.63951 11 5.33204 10.572 5.67082 9.89443L5.98897 9.23881C6.34805 8.4393 6.14475 7.49913 5.48741 6.91941L4.95997 6.45424L6.47532 4.93889L7.00305 5.50412C7.57218 6.1137 8.45981 6.30614 9.23029 5.987L9.89443 5.67082C10.572 5.33204 11 4.63951 11 3.88197V3H13V3.88197C13 4.63951 13.428 5.33204 14.1056 5.67082L14.7697 5.987C15.5402 6.30614 16.4278 6.1137 16.997 5.50412L17.5247 4.93889L19.04 6.45424L18.5126 6.91941Z" fill="#212121"/>
</svg>
