<svg width="24" height="25" viewBox="0 0 24 25" fill="none" xmlns="http://www.w3.org/2000/svg">
<path fill-rule="evenodd" clip-rule="evenodd" d="M12 8.09821C9.79086 8.09821 8 9.88907 8 12.0982C8 14.3073 9.79086 16.0982 12 16.0982C14.2091 16.0982 16 14.3073 16 12.0982C16 9.88907 14.2091 8.09821 12 8.09821ZM10 12.0982C10 10.9936 10.8954 10.0982 12 10.0982C13.1046 10.0982 14 10.9936 14 12.0982C14 13.2028 13.1046 14.0982 12 14.0982C10.8954 14.0982 10 13.2028 10 12.0982Z" fill="#212121"/>
<path fill-rule="evenodd" clip-rule="evenodd" d="M9 3.09821C9 1.99364 9.89543 1.09821 11 1.09821H13C14.1046 1.09821 15 1.99364 15 3.09821V3.98017L15.5351 4.23745L16.0628 3.67222C16.835 2.84519 18.1388 2.82283 18.9389 3.62289L20.4542 5.13824C21.2701 5.95412 21.2283 7.28925 20.3629 8.05244L19.8355 8.51761L20.118 9.09821H21C22.1046 9.09821 23 9.99364 23 11.0982V13.0982C23 14.2028 22.1046 15.0982 21 15.0982H20.118L19.8355 15.6788L20.3629 16.144C21.2283 16.9072 21.2701 18.2423 20.4542 19.0582L18.9389 20.5735C18.1388 21.3736 16.835 21.3512 16.0628 20.5242L15.5351 19.959L15 20.2162V21.0982C15 22.2028 14.1046 23.0982 13 23.0982H11C9.89543 23.0982 9 22.2028 9 21.0982V20.2162L8.46493 19.959L7.9372 20.5242C7.16505 21.3512 5.86117 21.3736 5.06111 20.5735L3.54576 19.0582C2.72987 18.2423 2.77171 16.9072 3.63709 16.144L4.16453 15.6788L3.88197 15.0982H3C1.89543 15.0982 1 14.2028 1 13.0982V11.0982C1 9.99364 1.89543 9.09821 3 9.09821H3.88197L4.16453 8.51761L3.63709 8.05244C2.77171 7.28925 2.72987 5.95412 3.54576 5.13824L5.06111 3.62289C5.86117 2.82283 7.16505 2.84519 7.9372 3.67222L8.46493 4.23745L9 3.98017V3.09821ZM18.5126 7.01762C17.8553 7.59734 17.6519 8.5375 18.011 9.33702L18.3292 9.99263C18.668 10.6702 19.3605 11.0982 20.118 11.0982H21V13.0982H20.118C19.3605 13.0982 18.668 13.5262 18.3292 14.2038L18.011 14.8594C17.6519 15.6589 17.8553 16.5991 18.5126 17.1788L19.04 17.644L17.5247 19.1593L16.997 18.5941C16.4278 17.9845 15.5402 17.7921 14.7697 18.1112L14.1056 18.4274C13.428 18.7662 13 19.4587 13 20.2162V21.0982H11V20.2162C11 19.4587 10.572 18.7662 9.89443 18.4274L9.23029 18.1112C8.45981 17.7921 7.57218 17.9845 7.00305 18.5941L6.47532 19.1593L4.95997 17.644L5.48741 17.1788C6.14475 16.5991 6.34805 15.6589 5.98897 14.8594L5.67082 14.2038C5.33204 13.5262 4.63951 13.0982 3.88197 13.0982H3V11.0982H3.88197C4.63951 11.0982 5.33204 10.6702 5.67082 9.99263L5.98897 9.33702C6.34805 8.5375 6.14475 7.59734 5.48741 7.01762L4.95997 6.55245L6.47532 5.0371L7.00305 5.60233C7.57218 6.21191 8.45981 6.40435 9.23029 6.08521L9.89443 5.76903C10.572 5.43024 11 4.73772 11 3.98017V3.09821H13V3.98017C13 4.73772 13.428 5.43024 14.1056 5.76903L14.7697 6.08521C15.5402 6.40435 16.4278 6.21191 16.997 5.60233L17.5247 5.0371L19.04 6.55245L18.5126 7.01762Z" fill="#212121"/>
</svg>
