<svg width="24" height="25" viewBox="0 0 24 25" fill="none" xmlns="http://www.w3.org/2000/svg">
<path fill-rule="evenodd" clip-rule="evenodd" d="M1 7.59821C1 4.56064 3.46243 2.09821 6.5 2.09821C9.53757 2.09821 12 4.56064 12 7.59821C12 10.2943 10.0601 12.5373 7.49993 13.0075L7.49993 16.0934L8.49996 16.0934C9.05224 16.0934 9.49996 16.5412 9.49996 17.0934C9.49996 17.6457 9.05224 18.0934 8.49996 18.0934H7.49993V20.0982C7.49993 20.6505 7.05221 21.0982 6.49992 21.0982C5.94764 21.0982 5.49992 20.6505 5.49993 20.0982V18.0934H4.49996C3.94767 18.0934 3.49996 17.6457 3.49996 17.0934C3.49996 16.5412 3.94767 16.0934 4.49996 16.0934H5.49993L5.49993 13.0075C2.93984 12.5372 1 10.2942 1 7.59821ZM6.5 4.09821C4.567 4.09821 3 5.66521 3 7.59821C3 9.5312 4.567 11.0982 6.5 11.0982C8.433 11.0982 10 9.5312 10 7.59821C10 5.66521 8.433 4.09821 6.5 4.09821Z" fill="#212121"/>
<path fill-rule="evenodd" clip-rule="evenodd" d="M16.5 11.1889L16.5 6.86025L15.7682 7.73839C15.4146 8.16267 14.7841 8.21999 14.3598 7.86643C13.9355 7.51286 13.8782 6.8823 14.2317 6.45802L16.7317 3.45802C16.9217 3.23003 17.2032 3.0982 17.5 3.0982C17.7967 3.0982 18.0782 3.23003 18.2682 3.45802L20.7682 6.45802C21.1218 6.8823 21.0644 7.51286 20.6402 7.86643C20.2159 8.21999 19.5853 8.16267 19.2317 7.73839L18.5 6.86025L18.5 11.1889C21.0601 11.6591 23 13.9021 23 16.5982C23 19.6358 20.5376 22.0982 17.5 22.0982C14.4624 22.0982 12 19.6358 12 16.5982C12 13.9021 13.9399 11.6592 16.5 11.1889ZM14 16.5982C14 14.6652 15.567 13.0982 17.5 13.0982C19.433 13.0982 21 14.6652 21 16.5982C21 18.5312 19.433 20.0982 17.5 20.0982C15.567 20.0982 14 18.5312 14 16.5982Z" fill="#212121"/>
</svg>
