<svg width="24" height="24" viewBox="0 0 24 24" fill="none" xmlns="http://www.w3.org/2000/svg">
<path fill-rule="evenodd" clip-rule="evenodd" d="M1 7.5C1 4.46243 3.46243 2 6.5 2C9.53757 2 12 4.46243 12 7.5C12 10.1961 10.0601 12.4391 7.49993 12.9093L7.49993 15.9952L8.49996 15.9952C9.05224 15.9952 9.49996 16.443 9.49996 16.9952C9.49996 17.5475 9.05224 17.9952 8.49996 17.9952H7.49993V20C7.49993 20.5523 7.05221 21 6.49992 21C5.94764 21 5.49992 20.5523 5.49993 20V17.9952H4.49996C3.94767 17.9952 3.49996 17.5475 3.49996 16.9952C3.49996 16.443 3.94767 15.9952 4.49996 15.9952H5.49993L5.49993 12.9093C2.93984 12.439 1 10.196 1 7.5ZM6.5 4C4.567 4 3 5.567 3 7.5C3 9.433 4.567 11 6.5 11C8.433 11 10 9.433 10 7.5C10 5.567 8.433 4 6.5 4Z" fill="#212121"/>
<path fill-rule="evenodd" clip-rule="evenodd" d="M16.5 11.0907L16.5 6.76205L15.7682 7.64018C15.4146 8.06446 14.7841 8.12178 14.3598 7.76822C13.9355 7.41466 13.8782 6.78409 14.2317 6.35982L16.7317 3.35981C16.9217 3.13182 17.2032 3 17.5 3C17.7967 3 18.0782 3.13182 18.2682 3.35981L20.7682 6.35981C21.1218 6.78409 21.0644 7.41466 20.6402 7.76822C20.2159 8.12178 19.5853 8.06446 19.2317 7.64018L18.5 6.76205L18.5 11.0907C21.0601 11.5609 23 13.8039 23 16.5C23 19.5376 20.5376 22 17.5 22C14.4624 22 12 19.5376 12 16.5C12 13.8039 13.9399 11.561 16.5 11.0907ZM14 16.5C14 14.567 15.567 13 17.5 13C19.433 13 21 14.567 21 16.5C21 18.433 19.433 20 17.5 20C15.567 20 14 18.433 14 16.5Z" fill="#212121"/>
</svg>
