<svg width="24" height="25" viewBox="0 0 24 25" fill="none" xmlns="http://www.w3.org/2000/svg">
<path fill-rule="evenodd" clip-rule="evenodd" d="M20.2123 3.89113C20.4918 4.17057 20.5805 4.58837 20.4386 4.95721L14.0904 21.4624C13.9326 21.8727 13.5254 22.1318 13.0869 22.101C12.6485 22.0702 12.2815 21.7566 12.1827 21.3283L10.4188 13.6847L2.77516 11.9208C2.34685 11.8219 2.03331 11.455 2.00248 11.0165C1.97165 10.578 2.23077 10.1708 2.64104 10.0131L19.1463 3.66489C19.5151 3.52302 19.9329 3.61169 20.2123 3.89113ZM6.40877 10.7068L11.4775 11.8765C11.8501 11.9624 12.141 12.2534 12.227 12.626L13.3967 17.6947L17.7642 6.33928L6.40877 10.7068Z" fill="#212121"/>
</svg>
