<svg width="24" height="24" viewBox="0 0 24 24" fill="none" xmlns="http://www.w3.org/2000/svg">
<path fill-rule="evenodd" clip-rule="evenodd" d="M19 4.16361C19 2.16 17.1171 0.689961 15.1733 1.17589C14.0425 1.45861 13.0356 2.1047 12.3074 3.01495L12 3.39922L11.6926 3.01492C10.9644 2.10469 9.95755 1.45861 8.82668 1.17589C6.88291 0.689953 5 2.16009 5 4.16368V4.45229C5 5.00715 5.12736 5.53227 5.35446 6H4C2.89543 6 2 6.89543 2 8V11C2 11.7403 2.4022 12.3866 3.00001 12.7324L3.00001 19.5459C2.99994 19.8808 2.99988 20.2105 3.02957 20.4776C3.05978 20.7496 3.13883 21.178 3.4804 21.5196C3.82198 21.8612 4.25043 21.9402 4.52239 21.9704C4.78953 22.0001 5.11921 22.0001 5.45411 22H18.5459C18.8808 22.0001 19.2105 22.0001 19.4776 21.9704C19.7496 21.9402 20.178 21.8612 20.5196 21.5196C20.8612 21.178 20.9402 20.7496 20.9705 20.4776C21.0001 20.2105 21.0001 19.8808 21 19.5459L21 12.7324C21.5978 12.3866 22 11.7403 22 11V8C22 6.89543 21.1046 6 20 6H18.6455C18.8726 5.5323 19 5.00719 19 4.45233V4.16361ZM13 8H20V11H13V8ZM11 8V11H4V8H11ZM15.454 6C16.308 5.99906 17 5.30651 17 4.45233V4.16361C17 3.46121 16.3399 2.9458 15.6584 3.11618C14.9524 3.29268 14.3238 3.69604 13.8692 4.26433L13 5.35078V6L15.454 6ZM11 6V5.35078L10.1308 4.26432C9.67621 3.69604 9.04763 3.29269 8.34161 3.11618C7.66014 2.94581 7 3.46123 7 4.16368V4.45229C7 5.30661 7.69188 5.99906 8.54573 6L11 6ZM19 13H13V20H18.5C18.712 20 18.872 19.9996 18.9968 19.9968C18.9996 19.872 19 19.712 19 19.5V13ZM11 20V13H5.00001V19.5C5.00001 19.712 5.00043 19.872 5.00319 19.9968C5.12797 19.9996 5.28798 20 5.50001 20H11Z" fill="#212121"/>
</svg>
