<svg width="24" height="24" viewBox="0 0 24 24" fill="none" xmlns="http://www.w3.org/2000/svg">
<path fill-rule="evenodd" clip-rule="evenodd" d="M2.708 5.70711C3.16075 5.25435 3.77482 5 4.41511 5H19.0009C20.1055 5 21.0009 5.89543 21.0009 7V10H14.9665C14.5975 7.35717 11.3375 6.08475 9.27074 7.97933L8.00083 9.14341L6.73093 7.97934C4.53768 5.96886 1.00085 7.52471 1.00085 10.5C1.00085 13.3409 4.22547 14.8877 6.42604 13.2714L4.57543 15.9144C4.25865 16.3668 4.3686 16.9903 4.821 17.3071C5.27341 17.6239 5.89695 17.5139 6.21373 17.0615L8.32821 14.0417L10.4427 17.0615C10.7595 17.5139 11.383 17.6239 11.8354 17.3071C12.2878 16.9903 12.3978 16.3668 12.081 15.9144L10.5877 13.7817C12.1764 14.267 13.9419 13.4943 14.6647 12H21.0009V18C21.0009 19.1046 20.1055 20 19.0009 20H5.00089C3.89632 20 3.00089 19.1046 3.00089 18V16C3.00089 15.4477 2.55318 15 2.00089 15C1.44861 15 1.00089 15.4477 1.00089 16V18C1.00089 20.2091 2.79175 22 5.00089 22H19.0009C21.21 22 23.0009 20.2091 23.0009 18V7C23.0009 4.79086 21.21 3 19.0009 3H4.41511C3.24438 3 2.12161 3.46507 1.29379 4.29289C0.903262 4.68342 0.903262 5.31658 1.29379 5.70711C1.68431 6.09763 2.31748 6.09763 2.708 5.70711ZM10.6222 9.45364C11.5326 8.61906 13.0008 9.26492 13.0008 10.5C13.0008 11.7351 11.5326 12.3809 10.6222 11.5464L9.4807 10.5L10.6222 9.45364ZM5.37948 11.5464C4.46903 12.3809 3.00085 11.7351 3.00085 10.5C3.00085 9.26493 4.46903 8.61907 5.37948 9.45365L6.52096 10.5L5.37948 11.5464Z" fill="#212121"/>
</svg>
