<svg width="24" height="24" viewBox="0 0 24 24" fill="none" xmlns="http://www.w3.org/2000/svg">
<path fill-rule="evenodd" clip-rule="evenodd" d="M5 12V19.5C5 19.712 5.00042 19.872 5.00318 19.9968C5.12796 19.9996 5.28797 20 5.5 20H18.5C18.712 20 18.872 19.9996 18.9968 19.9968C18.9996 19.872 19 19.712 19 19.5V12H21L21 19.5459C21.0001 19.8808 21.0001 20.2105 20.9704 20.4776C20.9402 20.7496 20.8612 21.178 20.5196 21.5196C20.178 21.8612 19.7496 21.9402 19.4776 21.9704C19.2105 22.0001 18.8808 22.0001 18.5459 22C18.5306 22 18.5153 22 18.5 22H5.5C5.48469 22 5.46939 22 5.45409 22C5.11919 22.0001 4.78952 22.0001 4.52238 21.9704C4.25042 21.9402 3.82197 21.8612 3.48039 21.5196C3.13882 21.178 3.05977 20.7496 3.02955 20.4776C2.99987 20.2105 2.99993 19.8808 2.99999 19.5459C3 19.5306 3 19.5153 3 19.5V12H5Z" fill="#212121"/>
<path fill-rule="evenodd" clip-rule="evenodd" d="M2 8C2 6.89543 2.89543 6 4 6H20C21.1046 6 22 6.89543 22 8V11C22 12.1046 21.1046 13 20 13H4C2.89543 13 2 12.1046 2 11V8ZM20 8H4V11H20V8Z" fill="#212121"/>
<path fill-rule="evenodd" clip-rule="evenodd" d="M11 21V7H13V21H11Z" fill="#212121"/>
<path fill-rule="evenodd" clip-rule="evenodd" d="M7.4301 3.22414C7.18874 3.42161 7 3.78916 7 4.29516C7 4.97056 7.15716 5.34083 7.3668 5.55252C7.57568 5.76345 8.01826 6 9 6H11V4.76053C10.8176 4.6097 10.5768 4.41431 10.3084 4.20583C9.72991 3.75645 9.09468 3.30314 8.64194 3.07004C8.01074 2.90792 7.63869 3.05348 7.4301 3.22414ZM12 4.29516L12.6544 3.53905L13 3.83815V8H9C7.73174 8 6.67432 7.69559 5.9457 6.95982C5.21784 6.22482 5 5.24266 5 4.29516C5 3.30732 5.37376 2.32245 6.16365 1.6762C6.97756 1.0103 8.08274 0.825853 9.27721 1.17048L9.35779 1.19373L9.43336 1.23007C10.1026 1.5519 10.9279 2.15455 11.5353 2.62635C11.8507 2.87136 12.129 3.09826 12.3284 3.26387C12.4283 3.34682 12.5088 3.41475 12.5648 3.46233L12.6298 3.51787L12.6474 3.533L12.6544 3.53905C12.6545 3.53911 12.6544 3.53905 12 4.29516Z" fill="#212121"/>
<path fill-rule="evenodd" clip-rule="evenodd" d="M16.5699 3.22414C16.8113 3.42161 17 3.78916 17 4.29516C17 4.97056 16.8428 5.34083 16.6332 5.55252C16.4243 5.76345 15.9817 6 15 6H13V4.76053C13.1824 4.6097 13.4232 4.41431 13.6916 4.20583C14.2701 3.75645 14.9053 3.30314 15.3581 3.07004C15.9893 2.90792 16.3613 3.05348 16.5699 3.22414ZM12 4.29516L11.3456 3.53905L11 3.83815V8H15C16.2683 8 17.3257 7.69559 18.0543 6.95982C18.7822 6.22482 19 5.24266 19 4.29516C19 3.30732 18.6262 2.32245 17.8363 1.6762C17.0224 1.0103 15.9173 0.825853 14.7228 1.17048L14.6422 1.19373L14.5666 1.23007C13.8974 1.5519 13.0721 2.15455 12.4647 2.62635C12.1493 2.87136 11.871 3.09826 11.6716 3.26387C11.5717 3.34682 11.4912 3.41475 11.4352 3.46233L11.3702 3.51787L11.3526 3.533L11.3456 3.53905C11.3455 3.53911 11.3456 3.53905 12 4.29516Z" fill="#212121"/>
</svg>
