<svg width="24" height="25" viewBox="0 0 24 25" fill="none" xmlns="http://www.w3.org/2000/svg">
<path fill-rule="evenodd" clip-rule="evenodd" d="M19 4.26182C19 2.2582 17.1171 0.788166 15.1733 1.2741C14.0425 1.55682 13.0356 2.2029 12.3074 3.11315L12 3.49743L11.6926 3.11313C10.9644 2.20289 9.95755 1.55682 8.82668 1.2741C6.88291 0.788159 5 2.2583 5 4.26188V4.55049C5 5.10535 5.12736 5.63048 5.35446 6.09821H4C2.89543 6.09821 2 6.99364 2 8.09821V11.0982C2 11.8385 2.4022 12.4848 3.00001 12.8306L3.00001 19.6441C2.99994 19.979 2.99988 20.3087 3.02957 20.5758C3.05978 20.8478 3.13883 21.2762 3.4804 21.6178C3.82198 21.9594 4.25043 22.0384 4.52239 22.0687C4.78953 22.0983 5.11921 22.0983 5.45411 22.0982H18.5459C18.8808 22.0983 19.2105 22.0983 19.4776 22.0687C19.7496 22.0384 20.178 21.9594 20.5196 21.6178C20.8612 21.2762 20.9402 20.8478 20.9705 20.5758C21.0001 20.3087 21.0001 19.979 21 19.6441L21 12.8306C21.5978 12.4848 22 11.8385 22 11.0982V8.09821C22 6.99364 21.1046 6.09821 20 6.09821H18.6455C18.8726 5.6305 19 5.1054 19 4.55054V4.26182ZM13 8.09821H20V11.0982H13V8.09821ZM11 8.09821V11.0982H4V8.09821H11ZM15.454 6.09821C16.308 6.09727 17 5.40471 17 4.55054V4.26182C17 3.55942 16.3399 3.04401 15.6584 3.21438C14.9524 3.39089 14.3238 3.79425 13.8692 4.36254L13 5.44899V6.09821L15.454 6.09821ZM11 6.09821V5.44899L10.1308 4.36253C9.67621 3.79425 9.04763 3.39089 8.34161 3.21439C7.66014 3.04402 7 3.55944 7 4.26188V4.55049C7 5.40482 7.69188 6.09727 8.54573 6.09821L11 6.09821ZM19 13.0982H13V20.0982H18.5C18.712 20.0982 18.872 20.0978 18.9968 20.095C18.9996 19.9702 19 19.8102 19 19.5982V13.0982ZM11 20.0982V13.0982H5.00001V19.5982C5.00001 19.8102 5.00043 19.9702 5.00319 20.095C5.12797 20.0978 5.28798 20.0982 5.50001 20.0982H11Z" fill="#212121"/>
</svg>
