<svg width="24" height="24" viewBox="0 0 24 24" fill="none" xmlns="http://www.w3.org/2000/svg">
<path fill-rule="evenodd" clip-rule="evenodd" d="M5 12V19.5C5 19.712 5.00042 19.872 5.00318 19.9968C5.12796 19.9996 5.28797 20 5.5 20H18.5C18.712 20 18.872 19.9996 18.9968 19.9968C18.9996 19.872 19 19.712 19 19.5V12H21L21 19.5459C21.0001 19.8808 21.0001 20.2105 20.9704 20.4776C20.9402 20.7496 20.8612 21.178 20.5196 21.5196C20.178 21.8612 19.7496 21.9402 19.4776 21.9704C19.2105 22.0001 18.8808 22.0001 18.5459 22C18.5306 22 18.5153 22 18.5 22H5.5C5.48469 22 5.46939 22 5.45409 22C5.11919 22.0001 4.78952 22.0001 4.52238 21.9704C4.25042 21.9402 3.82197 21.8612 3.48039 21.5196C3.13882 21.178 3.05977 20.7496 3.02955 20.4776C2.99987 20.2105 2.99993 19.8808 2.99999 19.5459C3 19.5306 3 19.5153 3 19.5V12H5Z" fill="black"/>
<path fill-rule="evenodd" clip-rule="evenodd" d="M2 7.99999C2 6.89542 2.89543 5.99999 4 5.99999H20C21.1046 5.99999 22 6.89542 22 7.99999V11C22 12.1046 21.1046 13 20 13H4C2.89543 13 2 12.1046 2 11V7.99999ZM20 7.99999H4V11H20V7.99999Z" fill="black"/>
<path fill-rule="evenodd" clip-rule="evenodd" d="M11 21V6.99999H13V21H11Z" fill="black"/>
<path fill-rule="evenodd" clip-rule="evenodd" d="M7.4301 3.22413C7.18874 3.4216 7 3.78915 7 4.29515C7 4.97055 7.15716 5.34082 7.3668 5.55251C7.57568 5.76344 8.01826 5.99999 9 5.99999H11V4.76052C10.8176 4.60969 10.5768 4.4143 10.3084 4.20582C9.72991 3.75644 9.09468 3.30313 8.64194 3.07003C8.01074 2.90791 7.63869 3.05347 7.4301 3.22413ZM12 4.29515L12.6544 3.53905L13 3.83814V7.99999H9C7.73174 7.99999 6.67432 7.69558 5.9457 6.95981C5.21784 6.22481 5 5.24265 5 4.29515C5 3.30732 5.37376 2.32244 6.16365 1.67619C6.97756 1.01029 8.08274 0.825843 9.27721 1.17047L9.35779 1.19372L9.43336 1.23006C10.1026 1.55189 10.9279 2.15454 11.5353 2.62634C11.8507 2.87135 12.129 3.09825 12.3284 3.26386C12.4283 3.34681 12.5088 3.41474 12.5648 3.46232L12.6298 3.51786L12.6474 3.53299L12.6544 3.53905C12.6545 3.5391 12.6544 3.53905 12 4.29515Z" fill="black"/>
<path fill-rule="evenodd" clip-rule="evenodd" d="M16.5699 3.22413C16.8113 3.4216 17 3.78915 17 4.29515C17 4.97055 16.8428 5.34082 16.6332 5.55251C16.4243 5.76344 15.9817 5.99999 15 5.99999H13V4.76052C13.1824 4.60969 13.4232 4.4143 13.6916 4.20582C14.2701 3.75644 14.9053 3.30313 15.3581 3.07003C15.9893 2.90791 16.3613 3.05347 16.5699 3.22413ZM12 4.29515L11.3456 3.53905L11 3.83814V7.99999H15C16.2683 7.99999 17.3257 7.69558 18.0543 6.95981C18.7822 6.22481 19 5.24265 19 4.29515C19 3.30732 18.6262 2.32244 17.8363 1.67619C17.0224 1.01029 15.9173 0.825843 14.7228 1.17047L14.6422 1.19372L14.5666 1.23006C13.8974 1.55189 13.0721 2.15454 12.4647 2.62634C12.1493 2.87135 11.871 3.09825 11.6716 3.26386C11.5717 3.34681 11.4912 3.41474 11.4352 3.46232L11.3702 3.51786L11.3526 3.53299L11.3456 3.53905C11.3455 3.5391 11.3456 3.53905 12 4.29515Z" fill="black"/>
</svg>
