<svg width="24" height="25" viewBox="0 0 24 25" fill="none" xmlns="http://www.w3.org/2000/svg">
<path fill-rule="evenodd" clip-rule="evenodd" d="M11.1615 2.38409C11.6936 2.13833 12.3067 2.13833 12.8388 2.38409L21.2792 6.28257C23.2258 7.18167 22.5848 10.0983 20.4406 10.0983H3.55966C1.41543 10.0983 0.774429 7.18167 2.72103 6.28257L11.1615 2.38409ZM12.0001 4.19977L3.55966 8.09825L20.4406 8.09825L12.0001 4.19977Z" fill="#212121"/>
<path fill-rule="evenodd" clip-rule="evenodd" d="M4.50013 12.0983C5.05242 12.0983 5.50013 12.546 5.50013 13.0983V17.0983C5.50013 17.6505 5.05242 18.0983 4.50013 18.0983C3.94785 18.0983 3.50013 17.6505 3.50013 17.0983V13.0983C3.50013 12.546 3.94785 12.0983 4.50013 12.0983Z" fill="#212121"/>
<path fill-rule="evenodd" clip-rule="evenodd" d="M9.50013 12.0983C10.0524 12.0983 10.5001 12.546 10.5001 13.0983V17.0983C10.5001 17.6505 10.0524 18.0983 9.50013 18.0983C8.94785 18.0983 8.50013 17.6505 8.50013 17.0983V13.0983C8.50013 12.546 8.94785 12.0983 9.50013 12.0983Z" fill="#212121"/>
<path fill-rule="evenodd" clip-rule="evenodd" d="M14.5001 12.0983C15.0524 12.0983 15.5001 12.546 15.5001 13.0983V17.0983C15.5001 17.6505 15.0524 18.0983 14.5001 18.0983C13.9478 18.0983 13.5001 17.6505 13.5001 17.0983V13.0983C13.5001 12.546 13.9478 12.0983 14.5001 12.0983Z" fill="#212121"/>
<path fill-rule="evenodd" clip-rule="evenodd" d="M19.5001 12.0983C20.0524 12.0983 20.5001 12.546 20.5001 13.0983V17.0983C20.5001 17.6505 20.0524 18.0983 19.5001 18.0983C18.9478 18.0983 18.5001 17.6505 18.5001 17.0983V13.0983C18.5001 12.546 18.9478 12.0983 19.5001 12.0983Z" fill="#212121"/>
<path fill-rule="evenodd" clip-rule="evenodd" d="M2.00013 21.0983C2.00013 20.546 2.44785 20.0983 3.00013 20.0983H21.0001C21.5524 20.0983 22.0001 20.546 22.0001 21.0983C22.0001 21.6505 21.5524 22.0983 21.0001 22.0983H3.00013C2.44785 22.0983 2.00013 21.6505 2.00013 21.0983Z" fill="#212121"/>
</svg>
