<svg width="24" height="24" viewBox="0 0 24 24" fill="none" xmlns="http://www.w3.org/2000/svg">
<path fill-rule="evenodd" clip-rule="evenodd" d="M12.4061 2.08619L21.4061 6.08619C21.7673 6.24669 22 6.60481 22 7V9C22 9.55228 21.5523 10 21 10H3C2.44772 10 2 9.55228 2 9V7C2 6.60481 2.23273 6.24669 2.59386 6.08619L11.5939 2.08619C11.8524 1.97127 12.1476 1.97127 12.4061 2.08619ZM4 8V7.64987L12 4.09432L20 7.64987V8H4Z" fill="black"/>
<path d="M6 12C5.44772 12 5 12.4477 5 13V17C5 17.5523 5.44772 18 6 18C6.55228 18 7 17.5523 7 17V13C7 12.4477 6.55228 12 6 12Z" fill="black"/>
<path d="M2 21C2 21.5523 2.44772 22 3 22H21C21.5523 22 22 21.5523 22 21C22 20.4477 21.5523 20 21 20H3C2.44772 20 2 20.4477 2 21Z" fill="black"/>
<path d="M11 13C11 12.4477 11.4477 12 12 12C12.5523 12 13 12.4477 13 13V17C13 17.5523 12.5523 18 12 18C11.4477 18 11 17.5523 11 17V13Z" fill="black"/>
<path d="M18 12C17.4477 12 17 12.4477 17 13V17C17 17.5523 17.4477 18 18 18C18.5523 18 19 17.5523 19 17V13C19 12.4477 18.5523 12 18 12Z" fill="black"/>
</svg>
