<svg width="24" height="24" viewBox="0 0 24 24" fill="none" xmlns="http://www.w3.org/2000/svg">
<path fill-rule="evenodd" clip-rule="evenodd" d="M11.1615 2.28588C11.6936 2.04012 12.3067 2.04012 12.8388 2.28588L21.2792 6.18437C23.2258 7.08347 22.5848 10 20.4406 10H3.55966C1.41543 10 0.774429 7.08346 2.72103 6.18437L11.1615 2.28588ZM12.0001 4.10156L3.55966 8.00005L20.4406 8.00005L12.0001 4.10156Z" fill="#212121"/>
<path fill-rule="evenodd" clip-rule="evenodd" d="M4.50013 12C5.05242 12 5.50013 12.4478 5.50013 13V17C5.50013 17.5523 5.05242 18 4.50013 18C3.94785 18 3.50013 17.5523 3.50013 17V13C3.50013 12.4478 3.94785 12 4.50013 12Z" fill="#212121"/>
<path fill-rule="evenodd" clip-rule="evenodd" d="M9.50013 12C10.0524 12 10.5001 12.4478 10.5001 13V17C10.5001 17.5523 10.0524 18 9.50013 18C8.94785 18 8.50013 17.5523 8.50013 17V13C8.50013 12.4478 8.94785 12 9.50013 12Z" fill="#212121"/>
<path fill-rule="evenodd" clip-rule="evenodd" d="M14.5001 12C15.0524 12 15.5001 12.4478 15.5001 13V17C15.5001 17.5523 15.0524 18 14.5001 18C13.9478 18 13.5001 17.5523 13.5001 17V13C13.5001 12.4478 13.9478 12 14.5001 12Z" fill="#212121"/>
<path fill-rule="evenodd" clip-rule="evenodd" d="M19.5001 12C20.0524 12 20.5001 12.4478 20.5001 13V17C20.5001 17.5523 20.0524 18 19.5001 18C18.9478 18 18.5001 17.5523 18.5001 17V13C18.5001 12.4478 18.9478 12 19.5001 12Z" fill="#212121"/>
<path fill-rule="evenodd" clip-rule="evenodd" d="M2.00013 21C2.00013 20.4478 2.44785 20 3.00013 20H21.0001C21.5524 20 22.0001 20.4478 22.0001 21C22.0001 21.5523 21.5524 22 21.0001 22H3.00013C2.44785 22 2.00013 21.5523 2.00013 21Z" fill="#212121"/>
</svg>
