<svg width="24" height="25" viewBox="0 0 24 25" fill="none" xmlns="http://www.w3.org/2000/svg">
<path d="M12.0275 11.0982C11.5332 7.36487 14.4995 8.43154 14.4995 5.76487C14.518 4.87598 14.0496 3.09821 12.0275 3.09821C10.0055 3.09821 9.5 5.09821 9.5 6.09821" stroke="#212121" stroke-width="2" stroke-linecap="round"/>
<path d="M13.0346 11.5551C12.3985 11.1706 11.6016 11.1705 10.9655 11.555L2.97134 16.3865C1.23823 17.434 1.98076 20.0982 4.00584 20.0982H19.9928C22.0178 20.0982 22.7604 17.4342 21.0275 16.3866L13.0346 11.5551Z" stroke="#212121" stroke-width="2" stroke-linecap="round" stroke-linejoin="round"/>
<path fill-rule="evenodd" clip-rule="evenodd" d="M12.0275 2.09821C10.6128 2.09821 9.68092 2.83021 9.15052 3.70456C8.6521 4.52621 8.5 5.46899 8.5 6.09821C8.5 6.65049 8.94772 7.09821 9.5 7.09821C10.0523 7.09821 10.5 6.65049 10.5 6.09821C10.5 5.72742 10.6007 5.1702 10.8605 4.74185C11.0884 4.3662 11.4203 4.09821 12.0275 4.09821C12.6878 4.09821 13.0039 4.36146 13.1947 4.64997C13.4234 4.99554 13.5059 5.44835 13.4997 5.74403L13.4995 5.75445V5.76487C13.4995 6.21633 13.3843 6.42379 13.2671 6.56826C13.1372 6.72835 12.9946 6.83663 12.7576 7.0166C12.6722 7.08141 12.5745 7.1556 12.4609 7.24478C12.0777 7.54539 11.6003 7.96756 11.2922 8.65683C11.0657 9.16376 10.958 9.751 10.9735 10.4477C10.7926 10.5135 10.6167 10.5974 10.4482 10.6992L2.45407 15.5307C-0.14558 17.1019 0.968201 21.0982 4.00582 21.0982H19.9928C23.0303 21.0982 24.1442 17.1021 21.5448 15.5308L13.5519 10.6993C13.367 10.5875 13.173 10.4974 12.9735 10.429C12.9599 9.94984 13.0351 9.65873 13.1182 9.47291C13.2273 9.22886 13.3988 9.05102 13.6954 8.8183C13.7404 8.78296 13.7939 8.74282 13.8534 8.69814C14.1247 8.49443 14.5218 8.19631 14.8204 7.82815C15.2423 7.30796 15.4975 6.6518 15.4995 5.77501C15.5099 5.18195 15.3662 4.30739 14.8627 3.54644C14.3185 2.72384 13.3893 2.09821 12.0275 2.09821ZM11.4827 12.4108C11.8008 12.2186 12.1992 12.2186 12.5173 12.4109L20.5101 17.2424C21.3766 17.7662 21.0053 19.0982 19.9928 19.0982H4.00582C2.99329 19.0982 2.62202 17.7661 3.48857 17.2424L11.4827 12.4108Z" fill="#212121"/>
</svg>
