<svg width="24" height="24" viewBox="0 0 24 24" fill="none" xmlns="http://www.w3.org/2000/svg">
<path fill-rule="evenodd" clip-rule="evenodd" d="M12.0275 2C10.6674 2 9.73424 2.62345 9.17951 3.43632C8.66109 4.19599 8.5 5.07263 8.5 5.66667C8.5 6.21895 8.94772 6.66667 9.5 6.66667C10.0523 6.66667 10.5 6.21895 10.5 5.66667C10.5 5.37181 10.5917 4.91512 10.8315 4.56368C11.035 4.26544 11.3656 4 12.0275 4C12.6878 4 13.0038 4.26326 13.1947 4.55177C13.4233 4.89733 13.5059 5.35014 13.4997 5.64583L13.4995 5.65625V5.66667C13.4995 6.11813 13.3843 6.32558 13.2671 6.47006C13.1372 6.63014 12.9946 6.73842 12.7576 6.91839C12.6722 6.98322 12.5746 7.05736 12.4608 7.14657C12.0777 7.44719 11.6003 7.86935 11.2922 8.55863C11.0657 9.06556 10.958 9.6528 10.9734 10.3495C10.7926 10.4153 10.6167 10.4992 10.4482 10.601L2.45407 15.4325C-0.14558 17.0037 0.968201 21 4.00582 21H19.9928C23.0303 21 24.1442 17.0039 21.5448 15.4326L13.5519 10.6011C13.367 10.4893 13.173 10.3992 12.9735 10.3308C12.9599 9.85164 13.0351 9.56052 13.1182 9.3747C13.2272 9.13065 13.3987 8.95281 13.6954 8.72009C13.7404 8.68475 13.7939 8.64462 13.8534 8.59994C14.1247 8.39622 14.5217 8.0981 14.8204 7.72994C15.2423 7.20975 15.4975 6.55359 15.4995 5.6768C15.5099 5.08375 15.3661 4.20919 14.8627 3.44823C14.3185 2.62563 13.3893 2 12.0275 2ZM11.4827 12.3127C11.8008 12.1204 12.1992 12.1204 12.5173 12.3127L20.5101 17.1442C21.3766 17.668 21.0053 19 19.9928 19H4.00582C2.99329 19 2.62202 17.6679 3.48857 17.1442L11.4827 12.3127Z" fill="#212121"/>
</svg>
