<svg width="24" height="24" viewBox="0 0 24 24" fill="none" xmlns="http://www.w3.org/2000/svg">
<path fill-rule="evenodd" clip-rule="evenodd" d="M8.01153 4.8343C7.26022 5.8778 7 7.16002 7 8V14C7 15.1046 6.10457 16 5 16H4C2.34315 16 1 14.6569 1 13V10C1 8.34315 2.34315 7 4 7H5.07488C5.22372 5.96718 5.61155 4.74474 6.38847 3.6657C7.47386 2.1582 9.27408 1 12 1C14.7409 1 16.5381 2.20952 17.6157 3.72926C18.3762 4.80172 18.7643 6.00445 18.9183 7H20C21.6569 7 23 8.34315 23 10V13C23 14.6569 21.6569 16 20 16H19C17.8954 16 17 15.1046 17 14V8C17 7.24453 16.7433 5.95661 15.9843 4.88612C15.2619 3.86741 14.0591 3 12 3C9.92592 3 8.72614 3.8418 8.01153 4.8343ZM19 14V9H20C20.5523 9 21 9.44772 21 10V13C21 13.5523 20.5523 14 20 14H19ZM4 9C3.44772 9 3 9.44772 3 10V13C3 13.5523 3.44772 14 4 14H5V9H4Z" fill="#212121"/>
<path fill-rule="evenodd" clip-rule="evenodd" d="M18 17C18.5523 17 19 17.4477 19 18C19 19.5351 17.8132 20.3215 16.8273 20.6631C16.2374 20.8675 15.593 20.9678 15 20.9933V21C15 22.1046 14.1046 23 13 23H11C9.89543 23 9 22.1046 9 21V20C9 18.8954 9.89543 18 11 18H13C13.7402 18 14.3866 18.4022 14.7324 18.9999C15.1938 18.9961 15.7237 18.9288 16.1727 18.7733C16.8534 18.5374 17 18.2529 17 18C17 17.4477 17.4477 17 18 17ZM11 21V20H13V21H11Z" fill="#212121"/>
</svg>
