<svg width="24" height="25" viewBox="0 0 24 25" fill="none" xmlns="http://www.w3.org/2000/svg">
<path fill-rule="evenodd" clip-rule="evenodd" d="M8.01153 4.93251C7.26022 5.976 7 7.25823 7 8.09821V14.0982C7 15.2028 6.10457 16.0982 5 16.0982H4C2.34315 16.0982 1 14.7551 1 13.0982V10.0982C1 8.44135 2.34315 7.09821 4 7.09821H5.07488C5.22372 6.06539 5.61155 4.84295 6.38847 3.7639C7.47386 2.2564 9.27408 1.09821 12 1.09821C14.7409 1.09821 16.5381 2.30772 17.6157 3.82747C18.3762 4.89992 18.7643 6.10266 18.9183 7.09821H20C21.6569 7.09821 23 8.44135 23 10.0982V13.0982C23 14.7551 21.6569 16.0982 20 16.0982H19C17.8954 16.0982 17 15.2028 17 14.0982V8.09821C17 7.34274 16.7433 6.05481 15.9843 4.98433C15.2619 3.96561 14.0591 3.09821 12 3.09821C9.92592 3.09821 8.72614 3.94001 8.01153 4.93251ZM19 14.0982V9.09821H20C20.5523 9.09821 21 9.54592 21 10.0982V13.0982C21 13.6505 20.5523 14.0982 20 14.0982H19ZM4 9.09821C3.44772 9.09821 3 9.54592 3 10.0982V13.0982C3 13.6505 3.44772 14.0982 4 14.0982H5V9.09821H4Z" fill="#212121"/>
<path fill-rule="evenodd" clip-rule="evenodd" d="M18 17.0982C18.5523 17.0982 19 17.5459 19 18.0982C19 19.6333 17.8132 20.4197 16.8273 20.7613C16.2374 20.9657 15.593 21.066 15 21.0915V21.0982C15 22.2028 14.1046 23.0982 13 23.0982H11C9.89543 23.0982 9 22.2028 9 21.0982V20.0982C9 18.9936 9.89543 18.0982 11 18.0982H13C13.7402 18.0982 14.3866 18.5004 14.7324 19.0981C15.1938 19.0943 15.7237 19.027 16.1727 18.8715C16.8534 18.6356 17 18.3511 17 18.0982C17 17.5459 17.4477 17.0982 18 17.0982ZM11 21.0982V20.0982H13V21.0982H11Z" fill="#212121"/>
</svg>
