<svg width="24" height="25" viewBox="0 0 24 25" fill="none" xmlns="http://www.w3.org/2000/svg">
<path d="M11.881 8.09821C11.1183 8.09821 10.5 8.71648 10.5 9.47916V9.59821C10.5 10.1505 10.0523 10.5982 9.5 10.5982C8.94772 10.5982 8.5 10.1505 8.5 9.59821V9.47916C8.5 7.61191 10.0137 6.09821 11.881 6.09821H12.0273C13.9452 6.09821 15.5 7.65299 15.5 9.57091C15.5 10.8697 14.8186 12.0733 13.7049 12.7415L13.5859 12.8128C13.2224 13.0309 13 13.4238 13 13.8477V14.0982C13 14.6505 12.5523 15.0982 12 15.0982C11.4477 15.0982 11 14.6505 11 14.0982V13.8477C11 12.7213 11.591 11.6774 12.5569 11.0979L12.6759 11.0265C13.1872 10.7197 13.5 10.1672 13.5 9.57091C13.5 8.75756 12.8406 8.09821 12.0273 8.09821H11.881Z" fill="#212121"/>
<path d="M12 18.0982C12.5523 18.0982 13 17.6505 13 17.0982C13 16.5459 12.5523 16.0982 12 16.0982C11.4477 16.0982 11 16.5459 11 17.0982C11 17.6505 11.4477 18.0982 12 18.0982Z" fill="#212121"/>
<path fill-rule="evenodd" clip-rule="evenodd" d="M1 12.0982C1 6.02307 5.92487 1.09821 12 1.09821C18.0751 1.09821 23 6.02307 23 12.0982C23 18.1733 18.0751 23.0982 12 23.0982C5.92487 23.0982 1 18.1733 1 12.0982ZM12 3.09821C7.02944 3.09821 3 7.12764 3 12.0982C3 17.0688 7.02944 21.0982 12 21.0982C16.9706 21.0982 21 17.0688 21 12.0982C21 7.12764 16.9706 3.09821 12 3.09821Z" fill="#212121"/>
</svg>
