<svg width="24" height="24" viewBox="0 0 24 24" fill="none" xmlns="http://www.w3.org/2000/svg">
<path d="M11.881 8C11.1183 8 10.5 8.61827 10.5 9.38095V9.5C10.5 10.0523 10.0523 10.5 9.5 10.5C8.94772 10.5 8.5 10.0523 8.5 9.5V9.38095C8.5 7.5137 10.0137 6 11.881 6H12.0273C13.9452 6 15.5 7.55478 15.5 9.4727C15.5 10.7715 14.8186 11.9751 13.7049 12.6433L13.5859 12.7146C13.2224 12.9327 13 13.3256 13 13.7495V14C13 14.5523 12.5523 15 12 15C11.4477 15 11 14.5523 11 14V13.7495C11 12.623 11.591 11.5792 12.5569 10.9997L12.6759 10.9283C13.1872 10.6215 13.5 10.069 13.5 9.4727C13.5 8.65935 12.8406 8 12.0273 8H11.881Z" fill="#212121"/>
<path d="M12 18C12.5523 18 13 17.5523 13 17C13 16.4477 12.5523 16 12 16C11.4477 16 11 16.4477 11 17C11 17.5523 11.4477 18 12 18Z" fill="#212121"/>
<path fill-rule="evenodd" clip-rule="evenodd" d="M1 12C1 5.92487 5.92487 1 12 1C18.0751 1 23 5.92487 23 12C23 18.0751 18.0751 23 12 23C5.92487 23 1 18.0751 1 12ZM12 3C7.02944 3 3 7.02944 3 12C3 16.9706 7.02944 21 12 21C16.9706 21 21 16.9706 21 12C21 7.02944 16.9706 3 12 3Z" fill="#212121"/>
</svg>
