<svg width="24" height="24" viewBox="0 0 24 24" fill="none" xmlns="http://www.w3.org/2000/svg">
<path d="M11.7898 5.95001C10.8691 5.95001 10.012 6.28751 9.36697 6.93257C8.73665 7.5629 8.34998 8.41401 8.34998 9.35541C8.34998 9.60645 8.43649 9.86615 8.63507 10.0647C8.83365 10.2633 9.09336 10.3498 9.3444 10.3498C9.59544 10.3498 9.85515 10.2633 10.0537 10.0647C10.2523 9.86615 10.3388 9.60645 10.3388 9.35541C10.3388 8.98066 10.4741 8.6331 10.7586 8.34388C11.0775 8.05545 11.4245 7.91729 11.7493 7.9376L11.7695 7.93886H11.7898C12.5259 7.93886 13.1719 8.60513 13.1719 9.32096C13.1719 9.90475 12.8616 10.393 12.3758 10.6263C11.3931 11.0759 10.7609 12.0608 10.7609 13.1096V13.7985C10.7609 14.0495 10.8475 14.3092 11.046 14.5078C11.2446 14.7064 11.5043 14.7929 11.7554 14.7929C12.0064 14.7929 12.2661 14.7064 12.4647 14.5078C12.6633 14.3092 12.7498 14.0495 12.7498 13.7985V13.1096C12.7498 12.8186 12.9066 12.562 13.2008 12.4245C14.4014 11.8667 15.1608 10.6335 15.1608 9.32096V9.31341L15.1606 9.30585C15.1181 7.47768 13.6331 5.9927 11.8049 5.95019L11.7974 5.95001H11.7898Z" fill="black"/>
<path d="M11.7549 15.75C11.1106 15.75 10.5883 16.2723 10.5883 16.9166C10.5883 17.561 11.1106 18.0833 11.7549 18.0833C12.3992 18.0833 12.9215 17.561 12.9215 16.9166C12.9215 16.2723 12.3992 15.75 11.7549 15.75Z" fill="black"/>
<path fill-rule="evenodd" clip-rule="evenodd" d="M12 23C18.0751 23 23 18.0751 23 12C23 5.92487 18.0751 1 12 1C5.92487 1 1 5.92487 1 12C1 18.0751 5.92487 23 12 23ZM12 21C16.9706 21 21 16.9706 21 12C21 7.02944 16.9706 3 12 3C7.02944 3 3 7.02944 3 12C3 16.9706 7.02944 21 12 21Z" fill="black"/>
</svg>
