<svg width="24" height="24" viewBox="0 0 24 24" fill="none" xmlns="http://www.w3.org/2000/svg">
<path fill-rule="evenodd" clip-rule="evenodd" d="M4.00001 9C4.55229 9 5.00001 9.44771 5.00001 10V20H19V10C19 9.44771 19.4477 9 20 9C20.5523 9 21 9.44771 21 10V20C21 21.1046 20.1046 22 19 22H5.00001C3.89544 22 3.00001 21.1046 3.00001 20V10C3.00001 9.44771 3.44772 9 4.00001 9Z" fill="#212121"/>
<path fill-rule="evenodd" clip-rule="evenodd" d="M11.331 1.25671C11.7113 0.914431 12.2887 0.914431 12.669 1.25671L22.669 10.2567C23.0795 10.6262 23.1128 11.2585 22.7433 11.669C22.3738 12.0795 21.7416 12.1128 21.331 11.7433L12 3.34536L2.66897 11.7433C2.25846 12.1128 1.62617 12.0795 1.25671 11.669C0.887255 11.2585 0.920534 10.6262 1.33104 10.2567L11.331 1.25671Z" fill="#212121"/>
<path fill-rule="evenodd" clip-rule="evenodd" d="M8.00001 13C8.00001 11.8954 8.89544 11 10 11H14C15.1046 11 16 11.8954 16 13V20H14V13H10V20H8.00001V13Z" fill="#212121"/>
</svg>
