<svg width="24" height="25" viewBox="0 0 24 25" fill="none" xmlns="http://www.w3.org/2000/svg">
<path fill-rule="evenodd" clip-rule="evenodd" d="M11.331 1.35491C11.7113 1.01264 12.2887 1.01264 12.669 1.35491L22.669 10.3549C23.0795 10.7244 23.1128 11.3567 22.7433 11.7672C22.3738 12.1777 21.7416 12.211 21.331 11.8415L21 11.5436V20.0982C21 21.2028 20.1046 22.0982 19 22.0982H5C3.89543 22.0982 3 21.2028 3 20.0982V11.5436L2.66897 11.8415C2.25846 12.211 1.62617 12.1777 1.25671 11.7672C0.887255 11.3567 0.920534 10.7244 1.33104 10.3549L11.331 1.35491ZM12 3.44357L19 9.74356V20.0982H16V13.0982C16 11.9936 15.1046 11.0982 14 11.0982H10C8.89543 11.0982 8 11.9936 8 13.0982V20.0982H5V9.74358L12 3.44357ZM10 20.0982L14 20.0982V13.0982H10V20.0982Z" fill="#212121"/>
</svg>
