<svg width="24" height="24" viewBox="0 0 24 24" fill="none" xmlns="http://www.w3.org/2000/svg">
<path fill-rule="evenodd" clip-rule="evenodd" d="M8.00004 4.91938L11.3753 2.21913C11.7406 1.92696 12.2595 1.92696 12.6247 2.21913L22.6247 10.2191C23.056 10.5641 23.1259 11.1934 22.7809 11.6247C22.4359 12.056 21.8066 12.1259 21.3753 11.7809L21 11.4806V19C21 20.6569 19.6569 22 18 22H6.00004C4.34318 22 3.00004 20.6569 3.00004 19V11.4806L2.62473 11.7809C2.19347 12.1259 1.56418 12.056 1.21917 11.6247C0.874158 11.1934 0.94408 10.5641 1.37534 10.2191L6.00004 6.51938V3C6.00004 2.44772 6.44775 2 7.00004 2C7.55232 2 8.00004 2.44772 8.00004 3V4.91938ZM7.63095 7.7759L12 4.28062L19.0065 9.88579C19.0022 9.92327 19 9.96138 19 10V19C19 19.5523 18.5523 20 18 20H16V14C16 12.3431 14.6569 11 13 11H11C9.34318 11 8.00004 12.3431 8.00004 14V20H6.00004C5.44775 20 5.00004 19.5523 5.00004 19V10C5.00004 9.96138 4.99785 9.92327 4.99359 9.88579L7.61752 7.78664C7.62203 7.78309 7.6265 7.77951 7.63095 7.7759ZM14 14V20H10V14C10 13.4477 10.4478 13 11 13H13C13.5523 13 14 13.4477 14 14Z" fill="#212121"/>
</svg>
