<svg width="24" height="24" viewBox="0 0 24 24" fill="none" xmlns="http://www.w3.org/2000/svg">
<path fill-rule="evenodd" clip-rule="evenodd" d="M11.331 1.25671C11.7113 0.914431 12.2887 0.914431 12.669 1.25671L22.669 10.2567C23.0795 10.6262 23.1128 11.2585 22.7433 11.669C22.3738 12.0795 21.7416 12.1128 21.331 11.7433L21 11.4454V20C21 21.1046 20.1046 22 19 22H5C3.89543 22 3 21.1046 3 20V11.4454L2.66897 11.7433C2.25846 12.1128 1.62617 12.0795 1.25671 11.669C0.887255 11.2585 0.920534 10.6262 1.33104 10.2567L11.331 1.25671ZM12 3.34536L19 9.64535V20H16V13C16 11.8954 15.1046 11 14 11H10C8.89543 11 8 11.8954 8 13V20H5V9.64537L12 3.34536ZM10 20L14 20V13H10V20Z" fill="#212121"/>
</svg>
