<svg width="24" height="25" viewBox="0 0 24 25" fill="none" xmlns="http://www.w3.org/2000/svg">
<path fill-rule="evenodd" clip-rule="evenodd" d="M12 21.0982C16.9706 21.0982 21 17.0688 21 12.0982C21 7.12764 16.9706 3.09821 12 3.09821C7.02944 3.09821 3 7.12764 3 12.0982C3 17.0688 7.02944 21.0982 12 21.0982ZM12 23.0982C18.0751 23.0982 23 18.1733 23 12.0982C23 6.02307 18.0751 1.09821 12 1.09821C5.92487 1.09821 1 6.02307 1 12.0982C1 18.1733 5.92487 23.0982 12 23.0982Z" fill="#212121"/>
<path fill-rule="evenodd" clip-rule="evenodd" d="M12 18.0982C11.4477 18.0982 11 17.6505 11 17.0982L11 10.0982C11 9.54592 11.4477 9.09821 12 9.09821C12.5523 9.09821 13 9.54592 13 10.0982L13 17.0982C13 17.6505 12.5523 18.0982 12 18.0982Z" fill="#212121"/>
<path fill-rule="evenodd" clip-rule="evenodd" d="M13.15 6.59821C13.15 7.23333 12.6351 7.74821 12 7.74821C11.3649 7.74821 10.85 7.23333 10.85 6.59821C10.85 5.96308 11.3649 5.44821 12 5.44821C12.6351 5.44821 13.15 5.96308 13.15 6.59821Z" fill="#212121"/>
</svg>
