<svg width="24" height="24" viewBox="0 0 24 24" fill="none" xmlns="http://www.w3.org/2000/svg">
<path fill-rule="evenodd" clip-rule="evenodd" d="M12 21C16.9706 21 21 16.9706 21 12C21 7.02944 16.9706 3 12 3C7.02944 3 3 7.02944 3 12C3 16.9706 7.02944 21 12 21ZM12 23C18.0751 23 23 18.0751 23 12C23 5.92487 18.0751 1 12 1C5.92487 1 1 5.92487 1 12C1 18.0751 5.92487 23 12 23Z" fill="black"/>
<path fill-rule="evenodd" clip-rule="evenodd" d="M12 18C11.4477 18 11 17.5523 11 17L11 10C11 9.44772 11.4477 9 12 9C12.5523 9 13 9.44772 13 10L13 17C13 17.5523 12.5523 18 12 18Z" fill="black"/>
<path fill-rule="evenodd" clip-rule="evenodd" d="M13.15 6.5C13.15 7.13513 12.6351 7.65 12 7.65C11.3649 7.65 10.85 7.13513 10.85 6.5C10.85 5.86487 11.3649 5.35 12 5.35C12.6351 5.35 13.15 5.86487 13.15 6.5Z" fill="black"/>
</svg>
