<svg width="24" height="25" viewBox="0 0 24 25" fill="none" xmlns="http://www.w3.org/2000/svg">
<path fill-rule="evenodd" clip-rule="evenodd" d="M12.7072 11.3911C11.5356 10.2195 9.63613 10.2195 8.46455 11.3911L5.63613 14.2195C4.46455 15.3911 4.46455 17.2906 5.63613 18.4622C6.8077 19.6338 8.70719 19.6338 9.87877 18.4622L10.5859 17.7551C10.9764 17.3646 11.6096 17.3646 12.0001 17.7551C12.3906 18.1456 12.3906 18.7788 12.0001 19.1693L11.293 19.8764C9.34036 21.829 6.17453 21.829 4.22191 19.8764C2.26929 17.9238 2.26929 14.758 4.22191 12.8053L7.05034 9.9769C9.00296 8.02428 12.1688 8.02428 14.1214 9.9769C14.5119 10.3674 14.5119 11.0006 14.1214 11.3911C13.7309 11.7816 13.0977 11.7816 12.7072 11.3911Z" fill="#212121"/>
<path fill-rule="evenodd" clip-rule="evenodd" d="M11.2929 12.8053C12.4645 13.9769 14.364 13.9769 15.5356 12.8053L18.364 9.97691C19.5356 8.80534 19.5356 6.90584 18.364 5.73427C17.1924 4.5627 15.2929 4.5627 14.1213 5.73427L13.4142 6.44138C13.0237 6.8319 12.3906 6.8319 12 6.44138C11.6095 6.05085 11.6095 5.41769 12 5.02716L12.7071 4.32006C14.6598 2.36744 17.8256 2.36744 19.7782 4.32006C21.7308 6.27268 21.7308 9.4385 19.7782 11.3911L16.9498 14.2196C14.9972 16.1722 11.8313 16.1722 9.87871 14.2196C9.48818 13.829 9.48818 13.1959 9.87871 12.8053C10.2692 12.4148 10.9024 12.4148 11.2929 12.8053Z" fill="#212121"/>
</svg>
