<svg width="24" height="24" viewBox="0 0 24 24" fill="none" xmlns="http://www.w3.org/2000/svg">
<path fill-rule="evenodd" clip-rule="evenodd" d="M12.7072 11.2929C11.5356 10.1213 9.63613 10.1213 8.46455 11.2929L5.63613 14.1213C4.46455 15.2929 4.46455 17.1924 5.63613 18.364C6.8077 19.5356 8.70719 19.5356 9.87877 18.364L10.5859 17.6569C10.9764 17.2663 11.6096 17.2663 12.0001 17.6569C12.3906 18.0474 12.3906 18.6806 12.0001 19.0711L11.293 19.7782C9.34036 21.7308 6.17453 21.7308 4.22191 19.7782C2.26929 17.8256 2.26929 14.6597 4.22191 12.7071L7.05034 9.8787C9.00296 7.92608 12.1688 7.92608 14.1214 9.8787C14.5119 10.2692 14.5119 10.9024 14.1214 11.2929C13.7309 11.6834 13.0977 11.6834 12.7072 11.2929Z" fill="#212121"/>
<path fill-rule="evenodd" clip-rule="evenodd" d="M11.2929 12.7071C12.4645 13.8787 14.364 13.8787 15.5356 12.7071L18.364 9.87871C19.5356 8.70713 19.5356 6.80764 18.364 5.63606C17.1924 4.46449 15.2929 4.46449 14.1213 5.63607L13.4142 6.34317C13.0237 6.7337 12.3906 6.7337 12 6.34317C11.6095 5.95265 11.6095 5.31948 12 4.92896L12.7071 4.22185C14.6598 2.26923 17.8256 2.26923 19.7782 4.22185C21.7308 6.17447 21.7308 9.3403 19.7782 11.2929L16.9498 14.1213C14.9972 16.074 11.8313 16.074 9.87871 14.1213C9.48818 13.7308 9.48818 13.0977 9.87871 12.7071C10.2692 12.3166 10.9024 12.3166 11.2929 12.7071Z" fill="#212121"/>
</svg>
