<svg width="24" height="25" viewBox="0 0 24 25" fill="none" xmlns="http://www.w3.org/2000/svg">
<path fill-rule="evenodd" clip-rule="evenodd" d="M7.00004 5.09823C7.00004 4.54594 7.44775 4.09823 8.00004 4.09823H21C21.5523 4.09823 22 4.54594 22 5.09823C22 5.65051 21.5523 6.09823 21 6.09823H8.00004C7.44775 6.09823 7.00004 5.65051 7.00004 5.09823Z" fill="#212121"/>
<path fill-rule="evenodd" clip-rule="evenodd" d="M7.00004 12.0982C7.00004 11.5459 7.44775 11.0982 8.00004 11.0982H21C21.5523 11.0982 22 11.5459 22 12.0982C22 12.6505 21.5523 13.0982 21 13.0982H8.00004C7.44775 13.0982 7.00004 12.6505 7.00004 12.0982Z" fill="#212121"/>
<path fill-rule="evenodd" clip-rule="evenodd" d="M7.00004 19.0982C7.00004 18.5459 7.44775 18.0982 8.00004 18.0982H21C21.5523 18.0982 22 18.5459 22 19.0982C22 19.6505 21.5523 20.0982 21 20.0982H8.00004C7.44775 20.0982 7.00004 19.6505 7.00004 19.0982Z" fill="#212121"/>
<path d="M3.50004 4.59823C3.22389 4.59823 3.00004 4.82208 3.00004 5.09823C3.00004 5.37437 3.22389 5.59823 3.50004 5.59823C3.77618 5.59823 4.00004 5.37437 4.00004 5.09823C4.00004 4.82208 3.77618 4.59823 3.50004 4.59823Z" fill="#212121"/>
<path fill-rule="evenodd" clip-rule="evenodd" d="M3.50004 4.94823C3.41719 4.94823 3.35004 5.01538 3.35004 5.09823C3.35004 5.18107 3.41719 5.24823 3.50004 5.24823C3.58288 5.24823 3.65004 5.18107 3.65004 5.09823C3.65004 5.01538 3.58288 4.94823 3.50004 4.94823ZM4.65004 5.09823C4.65004 5.73335 4.13516 6.24823 3.50004 6.24823C2.86491 6.24823 2.35004 5.73335 2.35004 5.09823C2.35004 4.4631 2.86491 3.94823 3.50004 3.94823C4.13516 3.94823 4.65004 4.4631 4.65004 5.09823Z" fill="#212121"/>
<path d="M3.50004 11.5982C3.22389 11.5982 3.00004 11.8221 3.00004 12.0982C3.00004 12.3744 3.22389 12.5982 3.50004 12.5982C3.77618 12.5982 4.00004 12.3744 4.00004 12.0982C4.00004 11.8221 3.77618 11.5982 3.50004 11.5982Z" fill="#212121"/>
<path fill-rule="evenodd" clip-rule="evenodd" d="M3.50004 11.9482C3.41719 11.9482 3.35004 12.0154 3.35004 12.0982C3.35004 12.1811 3.41719 12.2482 3.50004 12.2482C3.58288 12.2482 3.65004 12.1811 3.65004 12.0982C3.65004 12.0154 3.58288 11.9482 3.50004 11.9482ZM4.65004 12.0982C4.65004 12.7334 4.13516 13.2482 3.50004 13.2482C2.86491 13.2482 2.35004 12.7334 2.35004 12.0982C2.35004 11.4631 2.86491 10.9482 3.50004 10.9482C4.13516 10.9482 4.65004 11.4631 4.65004 12.0982Z" fill="#212121"/>
<path d="M3.50004 18.5982C3.22389 18.5982 3.00004 18.8221 3.00004 19.0982C3.00004 19.3744 3.22389 19.5982 3.50004 19.5982C3.77618 19.5982 4.00004 19.3744 4.00004 19.0982C4.00004 18.8221 3.77618 18.5982 3.50004 18.5982Z" fill="#212121"/>
<path fill-rule="evenodd" clip-rule="evenodd" d="M3.50004 18.9482C3.41719 18.9482 3.35004 19.0154 3.35004 19.0982C3.35004 19.1811 3.41719 19.2482 3.50004 19.2482C3.58288 19.2482 3.65004 19.1811 3.65004 19.0982C3.65004 19.0154 3.58288 18.9482 3.50004 18.9482ZM4.65004 19.0982C4.65004 19.7334 4.13516 20.2482 3.50004 20.2482C2.86491 20.2482 2.35004 19.7334 2.35004 19.0982C2.35004 18.4631 2.86491 17.9482 3.50004 17.9482C4.13516 17.9482 4.65004 18.4631 4.65004 19.0982Z" fill="#212121"/>
</svg>
