<svg width="24" height="24" viewBox="0 0 24 24" fill="none" xmlns="http://www.w3.org/2000/svg">
<path fill-rule="evenodd" clip-rule="evenodd" d="M7.00004 5.00003C7.00004 4.44774 7.44775 4.00003 8.00004 4.00003H21C21.5523 4.00003 22 4.44774 22 5.00003C22 5.55231 21.5523 6.00003 21 6.00003H8.00004C7.44775 6.00003 7.00004 5.55231 7.00004 5.00003Z" fill="#212121"/>
<path fill-rule="evenodd" clip-rule="evenodd" d="M7.00004 12C7.00004 11.4477 7.44775 11 8.00004 11H21C21.5523 11 22 11.4477 22 12C22 12.5523 21.5523 13 21 13H8.00004C7.44775 13 7.00004 12.5523 7.00004 12Z" fill="#212121"/>
<path fill-rule="evenodd" clip-rule="evenodd" d="M7.00004 19C7.00004 18.4477 7.44775 18 8.00004 18H21C21.5523 18 22 18.4477 22 19C22 19.5523 21.5523 20 21 20H8.00004C7.44775 20 7.00004 19.5523 7.00004 19Z" fill="#212121"/>
<path d="M3.50004 4.50003C3.22389 4.50003 3.00004 4.72388 3.00004 5.00003C3.00004 5.27617 3.22389 5.50003 3.50004 5.50003C3.77618 5.50003 4.00004 5.27617 4.00004 5.00003C4.00004 4.72388 3.77618 4.50003 3.50004 4.50003Z" fill="#212121"/>
<path fill-rule="evenodd" clip-rule="evenodd" d="M3.50004 4.85003C3.41719 4.85003 3.35004 4.91718 3.35004 5.00003C3.35004 5.08287 3.41719 5.15003 3.50004 5.15003C3.58288 5.15003 3.65004 5.08287 3.65004 5.00003C3.65004 4.91718 3.58288 4.85003 3.50004 4.85003ZM4.65004 5.00003C4.65004 5.63515 4.13516 6.15003 3.50004 6.15003C2.86491 6.15003 2.35004 5.63515 2.35004 5.00003C2.35004 4.3649 2.86491 3.85003 3.50004 3.85003C4.13516 3.85003 4.65004 4.3649 4.65004 5.00003Z" fill="#212121"/>
<path d="M3.50004 11.5C3.22389 11.5 3.00004 11.7239 3.00004 12C3.00004 12.2762 3.22389 12.5 3.50004 12.5C3.77618 12.5 4.00004 12.2762 4.00004 12C4.00004 11.7239 3.77618 11.5 3.50004 11.5Z" fill="#212121"/>
<path fill-rule="evenodd" clip-rule="evenodd" d="M3.50004 11.85C3.41719 11.85 3.35004 11.9172 3.35004 12C3.35004 12.0829 3.41719 12.15 3.50004 12.15C3.58288 12.15 3.65004 12.0829 3.65004 12C3.65004 11.9172 3.58288 11.85 3.50004 11.85ZM4.65004 12C4.65004 12.6352 4.13516 13.15 3.50004 13.15C2.86491 13.15 2.35004 12.6352 2.35004 12C2.35004 11.3649 2.86491 10.85 3.50004 10.85C4.13516 10.85 4.65004 11.3649 4.65004 12Z" fill="#212121"/>
<path d="M3.50004 18.5C3.22389 18.5 3.00004 18.7239 3.00004 19C3.00004 19.2762 3.22389 19.5 3.50004 19.5C3.77618 19.5 4.00004 19.2762 4.00004 19C4.00004 18.7239 3.77618 18.5 3.50004 18.5Z" fill="#212121"/>
<path fill-rule="evenodd" clip-rule="evenodd" d="M3.50004 18.85C3.41719 18.85 3.35004 18.9172 3.35004 19C3.35004 19.0829 3.41719 19.15 3.50004 19.15C3.58288 19.15 3.65004 19.0829 3.65004 19C3.65004 18.9172 3.58288 18.85 3.50004 18.85ZM4.65004 19C4.65004 19.6352 4.13516 20.15 3.50004 20.15C2.86491 20.15 2.35004 19.6352 2.35004 19C2.35004 18.3649 2.86491 17.85 3.50004 17.85C4.13516 17.85 4.65004 18.3649 4.65004 19Z" fill="#212121"/>
</svg>
