<svg width="24" height="24" viewBox="0 0 24 24" fill="none" xmlns="http://www.w3.org/2000/svg">
<path fill-rule="evenodd" clip-rule="evenodd" d="M6.99998 5.00004C6.99998 4.44775 7.44769 4.00004 7.99998 4.00004H21C21.5523 4.00004 22 4.44775 22 5.00004C22 5.55232 21.5523 6.00004 21 6.00004H7.99998C7.44769 6.00004 6.99998 5.55232 6.99998 5.00004Z" fill="black"/>
<path fill-rule="evenodd" clip-rule="evenodd" d="M6.99998 12C6.99998 11.4478 7.44769 11 7.99998 11H21C21.5523 11 22 11.4478 22 12C22 12.5523 21.5523 13 21 13H7.99998C7.44769 13 6.99998 12.5523 6.99998 12Z" fill="black"/>
<path fill-rule="evenodd" clip-rule="evenodd" d="M6.99998 19C6.99998 18.4478 7.44769 18 7.99998 18H21C21.5523 18 22 18.4478 22 19C22 19.5523 21.5523 20 21 20H7.99998C7.44769 20 6.99998 19.5523 6.99998 19Z" fill="black"/>
<path d="M3.49998 4.50004C3.22383 4.50004 2.99998 4.72389 2.99998 5.00004C2.99998 5.27618 3.22383 5.50004 3.49998 5.50004C3.77612 5.50004 3.99998 5.27618 3.99998 5.00004C3.99998 4.72389 3.77612 4.50004 3.49998 4.50004Z" fill="black"/>
<path fill-rule="evenodd" clip-rule="evenodd" d="M3.49998 4.85004C3.41713 4.85004 3.34998 4.91719 3.34998 5.00004C3.34998 5.08288 3.41713 5.15004 3.49998 5.15004C3.58282 5.15004 3.64998 5.08288 3.64998 5.00004C3.64998 4.91719 3.58282 4.85004 3.49998 4.85004ZM4.64998 5.00004C4.64998 5.63516 4.1351 6.15004 3.49998 6.15004C2.86485 6.15004 2.34998 5.63516 2.34998 5.00004C2.34998 4.36491 2.86485 3.85004 3.49998 3.85004C4.1351 3.85004 4.64998 4.36491 4.64998 5.00004Z" fill="black"/>
<path d="M3.49998 11.5C3.22383 11.5 2.99998 11.7239 2.99998 12C2.99998 12.2762 3.22383 12.5 3.49998 12.5C3.77612 12.5 3.99998 12.2762 3.99998 12C3.99998 11.7239 3.77612 11.5 3.49998 11.5Z" fill="black"/>
<path fill-rule="evenodd" clip-rule="evenodd" d="M3.49998 11.85C3.41713 11.85 3.34998 11.9172 3.34998 12C3.34998 12.0829 3.41713 12.15 3.49998 12.15C3.58282 12.15 3.64998 12.0829 3.64998 12C3.64998 11.9172 3.58282 11.85 3.49998 11.85ZM4.64998 12C4.64998 12.6352 4.1351 13.15 3.49998 13.15C2.86485 13.15 2.34998 12.6352 2.34998 12C2.34998 11.3649 2.86485 10.85 3.49998 10.85C4.1351 10.85 4.64998 11.3649 4.64998 12Z" fill="black"/>
<path d="M3.49998 18.5C3.22383 18.5 2.99998 18.7239 2.99998 19C2.99998 19.2762 3.22383 19.5 3.49998 19.5C3.77612 19.5 3.99998 19.2762 3.99998 19C3.99998 18.7239 3.77612 18.5 3.49998 18.5Z" fill="black"/>
<path fill-rule="evenodd" clip-rule="evenodd" d="M3.49998 18.85C3.41713 18.85 3.34998 18.9172 3.34998 19C3.34998 19.0829 3.41713 19.15 3.49998 19.15C3.58282 19.15 3.64998 19.0829 3.64998 19C3.64998 18.9172 3.58282 18.85 3.49998 18.85ZM4.64998 19C4.64998 19.6352 4.1351 20.15 3.49998 20.15C2.86485 20.15 2.34998 19.6352 2.34998 19C2.34998 18.3649 2.86485 17.85 3.49998 17.85C4.1351 17.85 4.64998 18.3649 4.64998 19Z" fill="black"/>
</svg>
