<svg width="24" height="24" viewBox="0 0 24 24" fill="none" xmlns="http://www.w3.org/2000/svg">
  <path fill-rule="evenodd" clip-rule="evenodd"
    d="M12.3416 1.07849C12.8939 1.07849 13.3416 1.52621 13.3416 2.07849V4.61014C13.3416 5.16242 12.8939 5.61014 12.3416 5.61014C11.7894 5.61014 11.3416 5.16242 11.3416 4.61014V2.07849C11.3416 1.52621 11.7894 1.07849 12.3416 1.07849ZM4.38802 4.38133C4.77092 3.98332 5.40396 3.97107 5.80197 4.35397L8.03494 6.50214C8.43295 6.88503 8.4452 7.51808 8.06231 7.91609C7.67941 8.31409 7.04637 8.32635 6.64836 7.94345L4.41539 5.79528C4.01738 5.41239 4.00513 4.77934 4.38802 4.38133ZM20.0773 4.59106C20.4602 4.98907 20.4479 5.62211 20.0499 6.00501L18.5613 7.43712C18.1632 7.82002 17.5302 7.80777 17.1473 7.40976C16.7644 7.01175 16.7767 6.3787 17.1747 5.99581L18.6633 4.56369C19.0613 4.1808 19.6944 4.19305 20.0773 4.59106ZM1.07849 11.9519C1.07849 11.3996 1.52621 10.9519 2.07849 10.9519H5.7627C6.31499 10.9519 6.7627 11.3996 6.7627 11.9519C6.7627 12.5042 6.31499 12.9519 5.7627 12.9519H2.07849C1.52621 12.9519 1.07849 12.5042 1.07849 11.9519ZM19.4995 11.9519C19.4995 11.3996 19.9473 10.9519 20.4995 10.9519H22.0785C22.6308 10.9519 23.0785 11.3996 23.0785 11.9519C23.0785 12.5042 22.6308 12.9519 22.0785 12.9519H20.4995C19.9473 12.9519 19.4995 12.5042 19.4995 11.9519ZM8.58862 15.5624C8.97152 15.9604 8.95926 16.5935 8.56126 16.9764L5.58396 19.8406C5.18596 20.2235 4.55291 20.2112 4.17002 19.8132C3.78712 19.4152 3.79937 18.7822 4.19738 18.3993L7.17467 15.535C7.57268 15.1522 8.20573 15.1644 8.58862 15.5624ZM17.6736 17.0814C18.0565 16.6834 18.6896 16.6711 19.0876 17.054L19.8319 17.7701C20.2299 18.153 20.2422 18.786 19.8593 19.184C19.4764 19.5821 18.8433 19.5943 18.4453 19.2114L17.701 18.4954C17.303 18.1125 17.2907 17.4794 17.6736 17.0814ZM12.3416 17.0279C12.8939 17.0279 13.3416 17.4756 13.3416 18.0279V22.0785C13.3416 22.6308 12.8939 23.0785 12.3416 23.0785C11.7894 23.0785 11.3416 22.6308 11.3416 22.0785V18.0279C11.3416 17.4756 11.7894 17.0279 12.3416 17.0279Z"
    fill="black" />
</svg>
