<svg width="24" height="25" viewBox="0 0 24 25" fill="none" xmlns="http://www.w3.org/2000/svg">
<path fill-rule="evenodd" clip-rule="evenodd" d="M12.3416 1.1767C12.8939 1.1767 13.3416 1.62441 13.3416 2.1767V4.70834C13.3416 5.26063 12.8939 5.70834 12.3416 5.70834C11.7894 5.70834 11.3416 5.26063 11.3416 4.70834V2.1767C11.3416 1.62441 11.7894 1.1767 12.3416 1.1767ZM4.38802 4.47954C4.77092 4.08153 5.40396 4.06928 5.80197 4.45217L8.03494 6.60034C8.43295 6.98324 8.4452 7.61628 8.06231 8.01429C7.67941 8.4123 7.04637 8.42455 6.64836 8.04166L4.41539 5.89349C4.01738 5.51059 4.00513 4.87755 4.38802 4.47954ZM20.0773 4.68926C20.4602 5.08727 20.4479 5.72032 20.0499 6.10321L18.5613 7.53533C18.1632 7.91822 17.5302 7.90597 17.1473 7.50796C16.7644 7.10995 16.7767 6.47691 17.1747 6.09401L18.6633 4.6619C19.0613 4.279 19.6944 4.29126 20.0773 4.68926ZM1.07849 12.0501C1.07849 11.4978 1.52621 11.0501 2.07849 11.0501H5.7627C6.31499 11.0501 6.7627 11.4978 6.7627 12.0501C6.7627 12.6024 6.31499 13.0501 5.7627 13.0501H2.07849C1.52621 13.0501 1.07849 12.6024 1.07849 12.0501ZM19.4995 12.0501C19.4995 11.4978 19.9473 11.0501 20.4995 11.0501H22.0785C22.6308 11.0501 23.0785 11.4978 23.0785 12.0501C23.0785 12.6024 22.6308 13.0501 22.0785 13.0501H20.4995C19.9473 13.0501 19.4995 12.6024 19.4995 12.0501ZM8.58862 15.6606C8.97152 16.0586 8.95926 16.6917 8.56126 17.0746L5.58396 19.9388C5.18596 20.3217 4.55291 20.3094 4.17002 19.9114C3.78712 19.5134 3.79937 18.8804 4.19738 18.4975L7.17467 15.6333C7.57268 15.2504 8.20573 15.2626 8.58862 15.6606ZM17.6736 17.1796C18.0565 16.7816 18.6896 16.7693 19.0876 17.1522L19.8319 17.8683C20.2299 18.2512 20.2422 18.8842 19.8593 19.2822C19.4764 19.6803 18.8433 19.6925 18.4453 19.3096L17.701 18.5936C17.303 18.2107 17.2907 17.5776 17.6736 17.1796ZM12.3416 17.1261C12.8939 17.1261 13.3416 17.5738 13.3416 18.1261V22.1767C13.3416 22.729 12.8939 23.1767 12.3416 23.1767C11.7894 23.1767 11.3416 22.729 11.3416 22.1767V18.1261C11.3416 17.5738 11.7894 17.1261 12.3416 17.1261Z" fill="#212121"/>
</svg>
