<svg width="24" height="25" viewBox="0 0 24 25" fill="none" xmlns="http://www.w3.org/2000/svg">
<path fill-rule="evenodd" clip-rule="evenodd" d="M12 6.09821C9.79086 6.09821 8 7.88907 8 10.0982C8 12.3073 9.79086 14.0982 12 14.0982C14.2091 14.0982 16 12.3073 16 10.0982C16 7.88907 14.2091 6.09821 12 6.09821ZM10 10.0982C10 8.99364 10.8954 8.09821 12 8.09821C13.1046 8.09821 14 8.99364 14 10.0982C14 11.2028 13.1046 12.0982 12 12.0982C10.8954 12.0982 10 11.2028 10 10.0982Z" fill="#212121"/>
<path fill-rule="evenodd" clip-rule="evenodd" d="M12 1.09821C8.68053 1.09821 6.39111 2.49964 4.95738 4.36349C3.55465 6.18703 3 8.4096 3 10.0982C3 11.5498 3.46709 13.0753 4.13248 14.5046C4.80262 15.9442 5.7037 17.3497 6.64255 18.5799C7.58113 19.8097 8.57627 20.889 9.45019 21.6714C9.88553 22.0611 10.309 22.3936 10.6949 22.6352C11.031 22.8457 11.5069 23.0982 12 23.0982C12.4931 23.0982 12.969 22.8457 13.3051 22.6352C13.691 22.3936 14.1145 22.0611 14.5498 21.6714C15.4237 20.889 16.4189 19.8097 17.3575 18.5799C18.2963 17.3497 19.1974 15.9442 19.8675 14.5046C20.5329 13.0753 21 11.5498 21 10.0982C21 8.4096 20.4453 6.18703 19.0426 4.36349C17.6089 2.49964 15.3195 1.09821 12 1.09821ZM5 10.0982C5 8.78681 5.44535 7.00938 6.54262 5.58292C7.60889 4.19677 9.31947 3.09821 12 3.09821C14.6805 3.09821 16.3911 4.19677 17.4574 5.58292C18.5547 7.00938 19 8.78681 19 10.0982C19 11.1466 18.6546 12.3712 18.0544 13.6606C17.4589 14.9397 16.6412 16.2218 15.7675 17.3665C14.8936 18.5117 13.9825 19.4949 13.2158 20.1813C12.8308 20.5259 12.5004 20.7794 12.2437 20.9401C12.1282 21.0124 12.0483 21.0527 12 21.0748C11.9517 21.0527 11.8718 21.0124 11.7563 20.9401C11.4996 20.7794 11.1692 20.5259 10.7842 20.1813C10.0175 19.4949 9.10637 18.5117 8.23245 17.3665C7.3588 16.2218 6.54113 14.9397 5.94564 13.6606C5.34541 12.3712 5 11.1466 5 10.0982Z" fill="#212121"/>
</svg>
