<svg width="24" height="24" viewBox="0 0 24 24" fill="none" xmlns="http://www.w3.org/2000/svg">
<path fill-rule="evenodd" clip-rule="evenodd" d="M12 6C9.79086 6 8 7.79086 8 10C8 12.2091 9.79086 14 12 14C14.2091 14 16 12.2091 16 10C16 7.79086 14.2091 6 12 6ZM10 10C10 8.89543 10.8954 8 12 8C13.1046 8 14 8.89543 14 10C14 11.1046 13.1046 12 12 12C10.8954 12 10 11.1046 10 10Z" fill="#212121"/>
<path fill-rule="evenodd" clip-rule="evenodd" d="M12 1C8.68053 1 6.39111 2.40143 4.95738 4.26529C3.55465 6.08883 3 8.31139 3 10C3 11.4516 3.46709 12.9771 4.13248 14.4064C4.80262 15.846 5.7037 17.2515 6.64255 18.4817C7.58113 19.7115 8.57627 20.7908 9.45019 21.5732C9.88553 21.9629 10.309 22.2954 10.6949 22.537C11.031 22.7475 11.5069 23 12 23C12.4931 23 12.969 22.7475 13.3051 22.537C13.691 22.2954 14.1145 21.9629 14.5498 21.5732C15.4237 20.7908 16.4189 19.7115 17.3575 18.4817C18.2963 17.2515 19.1974 15.846 19.8675 14.4064C20.5329 12.9771 21 11.4516 21 10C21 8.31139 20.4453 6.08883 19.0426 4.26529C17.6089 2.40143 15.3195 1 12 1ZM5 10C5 8.68861 5.44535 6.91117 6.54262 5.48471C7.60889 4.09857 9.31947 3 12 3C14.6805 3 16.3911 4.09857 17.4574 5.48471C18.5547 6.91117 19 8.68861 19 10C19 11.0484 18.6546 12.2729 18.0544 13.5623C17.4589 14.8415 16.6412 16.1235 15.7675 17.2683C14.8936 18.4135 13.9825 19.3967 13.2158 20.0831C12.8308 20.4277 12.5004 20.6811 12.2437 20.8419C12.1282 20.9142 12.0483 20.9545 12 20.9766C11.9517 20.9545 11.8718 20.9142 11.7563 20.8419C11.4996 20.6811 11.1692 20.4277 10.7842 20.0831C10.0175 19.3967 9.10637 18.4135 8.23245 17.2683C7.3588 16.1235 6.54113 14.8415 5.94564 13.5623C5.34541 12.2729 5 11.0484 5 10Z" fill="#212121"/>
</svg>
