<svg width="24" height="24" viewBox="0 0 24 24" fill="none" xmlns="http://www.w3.org/2000/svg">
<path d="M12 12C10.8954 12 10 12.8954 10 14C10 14.7403 10.4022 15.3866 11 15.7324V18C11 18.5523 11.4477 19 12 19C12.5523 19 13 18.5523 13 18V15.7324C13.5978 15.3866 14 14.7403 14 14C14 12.8954 13.1046 12 12 12Z" fill="#212121"/>
<path fill-rule="evenodd" clip-rule="evenodd" d="M12 1C9.23858 1 7 3.23858 7 6V8H5C3.34315 8 2 9.34315 2 11V20C2 21.6569 3.34315 23 5 23H19C20.6569 23 22 21.6569 22 20V11C22 9.34315 20.6569 8 19 8H17V6C17 3.23858 14.7614 1 12 1ZM15 8V6C15 4.34315 13.6569 3 12 3C10.3431 3 9 4.34315 9 6V8H15ZM5 10C4.44772 10 4 10.4477 4 11V20C4 20.5523 4.44772 21 5 21H19C19.5523 21 20 20.5523 20 20V11C20 10.4477 19.5523 10 19 10H5Z" fill="#212121"/>
</svg>
