<svg width="24" height="25" viewBox="0 0 24 25" fill="none" xmlns="http://www.w3.org/2000/svg">
<path d="M12 12.0982C10.8954 12.0982 10 12.9936 10 14.0982C10 14.8385 10.4022 15.4848 11 15.8306V18.0982C11 18.6505 11.4477 19.0982 12 19.0982C12.5523 19.0982 13 18.6505 13 18.0982V15.8306C13.5978 15.4848 14 14.8385 14 14.0982C14 12.9936 13.1046 12.0982 12 12.0982Z" fill="#212121"/>
<path fill-rule="evenodd" clip-rule="evenodd" d="M12 1.09821C9.23858 1.09821 7 3.33678 7 6.09821V8.09821H5C3.34315 8.09821 2 9.44135 2 11.0982V20.0982C2 21.7551 3.34315 23.0982 5 23.0982H19C20.6569 23.0982 22 21.7551 22 20.0982V11.0982C22 9.44135 20.6569 8.09821 19 8.09821H17V6.09821C17 3.33678 14.7614 1.09821 12 1.09821ZM15 8.09821V6.09821C15 4.44135 13.6569 3.09821 12 3.09821C10.3431 3.09821 9 4.44135 9 6.09821V8.09821H15ZM5 10.0982C4.44772 10.0982 4 10.5459 4 11.0982V20.0982C4 20.6505 4.44772 21.0982 5 21.0982H19C19.5523 21.0982 20 20.6505 20 20.0982V11.0982C20 10.5459 19.5523 10.0982 19 10.0982H5Z" fill="#212121"/>
</svg>
