<svg width="24" height="24" viewBox="0 0 24 24" fill="none" xmlns="http://www.w3.org/2000/svg">
<path d="M12 18C10.8954 18 10 17.1046 10 16C10 14.8954 10.8954 14 12 14C13.1046 14 14 14.8954 14 16C14 17.1046 13.1046 18 12 18Z" fill="black"/>
<path fill-rule="evenodd" clip-rule="evenodd" d="M7 9V6C7 3.23858 9.23858 1 12 1C14.7614 1 17 3.23858 17 6V9H19C20.6569 9 22 10.3431 22 12V20C22 21.6569 20.6569 23 19 23H5C3.34315 23 2 21.6569 2 20V12C2 10.3431 3.34315 9 5 9H7ZM15 9V6C15 4.34315 13.6569 3 12 3C10.3431 3 9 4.34315 9 6V9H15ZM4 12C4 11.4477 4.44772 11 5 11H19C19.5523 11 20 11.4477 20 12V20C20 20.5523 19.5523 21 19 21H5C4.44772 21 4 20.5523 4 20V12Z" fill="black"/>
</svg>
