<svg width="24" height="24" viewBox="0 0 24 24" fill="none" xmlns="http://www.w3.org/2000/svg">
<path fill-rule="evenodd" clip-rule="evenodd" d="M2 11C2 9.34315 3.34315 8 5 8H19C20.6569 8 22 9.34315 22 11V20C22 21.6569 20.6569 23 19 23H5C3.34315 23 2 21.6569 2 20V11ZM5 10C4.44772 10 4 10.4477 4 11V20C4 20.5523 4.44772 21 5 21H19C19.5523 21 20 20.5523 20 20V11C20 10.4477 19.5523 10 19 10H5Z" fill="#212121"/>
<path d="M11 15C11 14.4477 11.4477 14 12 14C12.5523 14 13 14.4477 13 15V18C13 18.5523 12.5523 19 12 19C11.4477 19 11 18.5523 11 18V15Z" fill="#212121"/>
<path d="M10 14C10 12.8954 10.8954 12 12 12C13.1046 12 14 12.8954 14 14C14 15.1046 13.1046 16 12 16C10.8954 16 10 15.1046 10 14Z" fill="#212121"/>
<path fill-rule="evenodd" clip-rule="evenodd" d="M7 6C7 3.23858 9.23858 1 12 1C14.7614 1 17 3.23858 17 6V10H7V6ZM12 3C10.3431 3 9 4.34315 9 6V8H15V6C15 4.34315 13.6569 3 12 3Z" fill="#212121"/>
</svg>
