<svg width="24" height="25" viewBox="0 0 24 25" fill="none" xmlns="http://www.w3.org/2000/svg">
<path d="M21.9977 10.9187C22.0256 9.81843 21.7988 8.72632 21.3345 7.72483C20.8702 6.72333 20.1096 5.83863 19.2465 5.13751C17.5989 3.86814 15.6025 3.11268 13.5144 2.96842C12.9335 2.38573 12.2423 1.92034 11.4798 1.59847C10.5886 1.27387 9.64273 1.07709 8.69263 1.10001C7.35946 1.10001 6.41256 1.64028 6.06417 2.09693C6.02672 2.13791 5.99804 2.18587 5.97982 2.23797C5.9616 2.29006 5.95423 2.34522 5.95813 2.40017C5.96203 2.45513 5.97713 2.50875 6.00252 2.55785C6.02792 2.60695 6.0631 2.65054 6.10597 2.68601C6.63968 3.02858 7.08896 3.54215 7.38365 4.09777V4.13886H7.34184C5.69909 5.00103 4.37097 6.20613 3.42169 7.78106C2.4724 9.35599 1.98085 11.1568 2.00057 12.9873C1.98899 14.3767 2.25083 15.7553 2.77168 17.0469C3.26529 18.2502 3.90966 19.3389 4.85569 20.2435C5.81174 21.1523 6.94674 21.8594 8.19095 22.3213C9.52698 22.8149 10.9431 23.1115 12.3703 23.0977C14.2284 23.0977 14.7307 22.3522 14.7661 22.3104C14.8015 22.2686 14.8441 22.0386 14.5464 22.0595C14.2487 22.0804 14.2061 22.0874 13.7667 22.0317C13.3272 21.9759 11.5605 21.5787 11.5056 19.5511C11.4942 19.1284 11.5644 18.7527 11.7241 18.3601C11.8839 17.9675 12.1235 17.6111 12.4283 17.3127C12.4625 17.2811 12.4872 17.2409 12.4996 17.1964C12.512 17.1519 12.5118 17.1049 12.4988 17.0605C12.4858 17.0162 12.4607 16.9762 12.4261 16.945C12.3916 16.9137 12.349 16.8925 12.3029 16.8835C12.1286 16.8491 11.9512 16.8323 11.7734 16.8333C11.0789 16.8601 10.6083 17.1385 10.1234 17.6279C9.66981 18.0858 9.40716 18.9379 9.40047 19.4466C9.39378 19.9552 9.43778 20.4715 9.78974 21.04C9.11346 20.5621 8.51446 19.0891 8.35144 17.5816C8.18841 16.0741 8.76476 14.6158 9.57767 13.8304C10.4029 13.0498 11.4733 12.5901 12.6184 12.604C13.2815 12.575 13.9374 12.6721 14.546 12.9325C15.1546 13.1928 15.7372 13.5865 16.1675 14.0833C16.7986 14.8599 17.2344 15.8166 17.3757 16.8008C17.4686 17.4219 17.6033 18.0292 18.0911 18.0292C18.208 18.0207 18.3218 17.9887 18.4257 17.9353C18.5295 17.8819 18.6212 17.8082 18.695 17.7187C18.8847 17.4959 19.0275 17.2382 19.1152 16.9608C19.2029 16.6833 19.2338 16.3914 19.2059 16.1022C19.2059 16.0428 19.2059 15.9789 19.2059 15.9012V15.8693H19.2338C19.8073 15.5456 20.3171 15.0954 20.7389 14.5947C21.586 13.5535 22.0318 12.2516 21.9977 10.9187ZM19.1874 13.3344C19.0107 13.5427 18.8095 13.7576 18.5881 13.9194L18.5417 13.9513L18.5138 13.9057C18.1776 13.3623 17.699 12.8369 17.2305 12.3982C15.9805 11.2551 14.3344 10.6231 12.6271 10.631C11.7921 10.6162 10.9626 10.7667 10.188 11.0737C9.41334 11.3806 8.70947 11.8376 8.11827 12.4175C7.52706 12.9974 7.15985 13.6883 6.84594 14.4492C6.53203 15.21 6.37707 16.0251 6.39029 16.846C6.41108 18.1366 6.51196 18.4481 6.82695 19.3398C6.68759 19.2211 3.99174 17.34 3.98872 12.9873C3.97935 11.3626 4.46468 9.7722 5.38228 8.42082C6.27704 7.12117 7.51172 6.10818 8.98648 5.5074C9.32672 5.37077 9.67404 5.25188 10.027 5.15121C9.75589 4.33402 9.30011 3.58778 8.69384 2.96842C9.4717 2.84743 10.1977 2.9638 10.9062 3.30184C11.6147 3.63988 12.2575 4.21121 12.642 4.88682L13.0415 4.91422C14.8491 4.96813 16.5379 5.54682 17.9784 6.62162C18.6173 7.1391 19.1973 7.79421 19.5372 8.53621C19.8772 9.2782 20.0388 10.0872 20.0096 10.9004C20.0408 11.7824 19.749 12.646 19.1874 13.3344Z" fill="#212121"/>
</svg>
