<svg width="24" height="25" viewBox="0 0 24 25" fill="none" xmlns="http://www.w3.org/2000/svg">
<path d="M12.1458 7.09806C10.7269 7.09806 9.75814 7.55355 9.19305 8.31424C8.66855 9.02031 8.6458 9.79611 8.6458 10.0981C8.6458 10.644 8.84059 11.3927 9.4025 12.017C9.99324 12.6734 10.9038 13.0981 12.1458 13.0981C12.9038 13.0981 13.2432 13.3401 13.4025 13.517C13.5906 13.726 13.6458 13.9774 13.6458 14.0981C13.6458 14.2188 13.5906 14.4701 13.4025 14.6791C13.2432 14.8561 12.9038 15.0981 12.1458 15.0981C11.3878 15.0981 11.0484 14.8561 10.8891 14.6791C10.701 14.4701 10.6458 14.2188 10.6458 14.0981C10.6458 13.5458 10.1981 13.0981 9.6458 13.0981C9.09351 13.0981 8.6458 13.5458 8.6458 14.0981C8.6458 14.644 8.84059 15.3927 9.4025 16.017C9.99324 16.6734 10.9038 17.0981 12.1458 17.0981C13.3878 17.0981 14.2984 16.6734 14.8891 16.017C15.451 15.3927 15.6458 14.644 15.6458 14.0981C15.6458 13.5521 15.451 12.8035 14.8891 12.1791C14.2984 11.5227 13.3878 11.0981 12.1458 11.0981C11.3878 11.0981 11.0484 10.8561 10.8891 10.6791C10.701 10.4701 10.6458 10.2188 10.6458 10.0981C10.6458 9.90001 10.673 9.67582 10.7985 9.50689C10.8835 9.39258 11.1647 9.09806 12.1458 9.09806C12.8631 9.09806 13.2075 9.35242 13.3865 9.56136C13.488 9.67967 13.5565 9.80799 13.5987 9.92194C13.6345 10.0186 13.6431 10.0819 13.6452 10.097C13.6457 10.1012 13.6458 10.1017 13.6458 10.0981C13.6458 10.6503 14.0935 11.0981 14.6458 11.0981C15.1981 11.0981 15.6458 10.6503 15.6458 10.0981C15.6458 9.6088 15.435 8.87809 14.9051 8.25977C14.3341 7.59371 13.4285 7.09806 12.1458 7.09806Z" fill="#212121"/>
<path fill-rule="evenodd" clip-rule="evenodd" d="M3.51458 3.61278C1.44592 5.68144 2.05153 8.2366 2.37135 9.16738C2.39884 9.24739 2.39488 9.30896 2.38526 9.34262C1.42071 12.7186 2.26686 16.5072 4.92879 19.1691C7.59072 21.8311 11.3793 22.6772 14.7553 21.7127C14.789 21.703 14.8505 21.6991 14.9305 21.7266C15.8613 22.0464 18.4165 22.652 20.4851 20.5833C22.5538 18.5147 21.9482 15.9595 21.6284 15.0287C21.6009 14.9487 21.6048 14.8872 21.6145 14.8535C22.579 11.4775 21.7329 7.68893 19.0709 5.027C16.409 2.36506 12.6204 1.51892 9.24442 2.48347C9.21075 2.49309 9.14919 2.49705 9.06917 2.46956C8.13839 2.14974 5.58323 1.54413 3.51458 3.61278ZM4.26281 8.51747C4.00933 7.77975 3.70705 6.24874 4.92879 5.027C6.15053 3.80525 7.68154 4.10753 8.41926 4.36101C8.83818 4.50496 9.32025 4.54183 9.79385 4.40652C12.4998 3.63342 15.5288 4.31335 17.6567 6.44121C19.7846 8.56907 20.4645 11.5981 19.6914 14.3041C19.5561 14.7777 19.593 15.2597 19.7369 15.6787C19.9904 16.4164 20.2927 17.9474 19.0709 19.1691C17.8492 20.3909 16.3182 20.0886 15.5805 19.8351C15.1615 19.6912 14.6795 19.6543 14.2059 19.7896C11.4999 20.5627 8.47087 19.8828 6.343 17.7549C4.21514 15.6271 3.53521 12.598 4.30832 9.89205C4.44363 9.41845 4.40675 8.93638 4.26281 8.51747Z" fill="#212121"/>
</svg>
