<svg width="24" height="24" viewBox="0 0 24 24" fill="none" xmlns="http://www.w3.org/2000/svg">
<path d="M12.1458 6.99986C10.7269 6.99986 9.75814 7.45534 9.19305 8.21603C8.66855 8.9221 8.6458 9.69791 8.6458 9.99986C8.6458 10.5458 8.84059 11.2945 9.4025 11.9188C9.99324 12.5752 10.9038 12.9999 12.1458 12.9999C12.9038 12.9999 13.2432 13.2419 13.4025 13.4188C13.5906 13.6278 13.6458 13.8792 13.6458 13.9999C13.6458 14.1206 13.5906 14.3719 13.4025 14.5809C13.2432 14.7579 12.9038 14.9999 12.1458 14.9999C11.3878 14.9999 11.0484 14.7579 10.8891 14.5809C10.701 14.3719 10.6458 14.1206 10.6458 13.9999C10.6458 13.4476 10.1981 12.9999 9.6458 12.9999C9.09351 12.9999 8.6458 13.4476 8.6458 13.9999C8.6458 14.5458 8.84059 15.2945 9.4025 15.9188C9.99324 16.5752 10.9038 16.9999 12.1458 16.9999C13.3878 16.9999 14.2984 16.5752 14.8891 15.9188C15.451 15.2945 15.6458 14.5458 15.6458 13.9999C15.6458 13.4539 15.451 12.7052 14.8891 12.0809C14.2984 11.4245 13.3878 10.9999 12.1458 10.9999C11.3878 10.9999 11.0484 10.7578 10.8891 10.5809C10.701 10.3719 10.6458 10.1206 10.6458 9.99986C10.6458 9.80181 10.673 9.57762 10.7985 9.40868C10.8835 9.29438 11.1647 8.99986 12.1458 8.99986C12.8631 8.99986 13.2075 9.25422 13.3865 9.46315C13.488 9.58147 13.5565 9.70979 13.5987 9.82374C13.6345 9.92039 13.6431 9.98368 13.6452 9.9988C13.6457 10.003 13.6458 10.0035 13.6458 9.99986C13.6458 10.5521 14.0935 10.9999 14.6458 10.9999C15.1981 10.9999 15.6458 10.5521 15.6458 9.99986C15.6458 9.51059 15.435 8.77989 14.9051 8.16157C14.3341 7.4955 13.4285 6.99986 12.1458 6.99986Z" fill="#212121"/>
<path fill-rule="evenodd" clip-rule="evenodd" d="M3.51458 3.51458C1.44592 5.58323 2.05153 8.13839 2.37135 9.06917C2.39884 9.14919 2.39488 9.21075 2.38526 9.24442C1.42071 12.6204 2.26686 16.409 4.92879 19.0709C7.59072 21.7329 11.3793 22.579 14.7553 21.6145C14.789 21.6048 14.8505 21.6009 14.9305 21.6284C15.8613 21.9482 18.4165 22.5538 20.4851 20.4851C22.5538 18.4165 21.9482 15.8613 21.6284 14.9305C21.6009 14.8505 21.6048 14.789 21.6145 14.7553C22.579 11.3793 21.7329 7.59072 19.0709 4.92879C16.409 2.26686 12.6204 1.42071 9.24442 2.38526C9.21075 2.39488 9.14919 2.39884 9.06917 2.37135C8.13839 2.05153 5.58323 1.44592 3.51458 3.51458ZM4.26281 8.41926C4.00933 7.68154 3.70705 6.15053 4.92879 4.92879C6.15053 3.70705 7.68154 4.00933 8.41926 4.26281C8.83818 4.40675 9.32025 4.44363 9.79385 4.30832C12.4998 3.53521 15.5288 4.21514 17.6567 6.343C19.7846 8.47087 20.4645 11.4999 19.6914 14.2059C19.5561 14.6795 19.593 15.1615 19.7369 15.5805C19.9904 16.3182 20.2927 17.8492 19.0709 19.0709C17.8492 20.2927 16.3182 19.9904 15.5805 19.7369C15.1615 19.593 14.6795 19.5561 14.2059 19.6914C11.4999 20.4645 8.47087 19.7846 6.343 17.6567C4.21514 15.5288 3.53521 12.4998 4.30832 9.79385C4.44363 9.32025 4.40675 8.83818 4.26281 8.41926Z" fill="#212121"/>
</svg>
