<svg width="24" height="24" viewBox="0 0 24 24" fill="none" xmlns="http://www.w3.org/2000/svg">
<path d="M6 3.9967C4.89543 3.9967 4 4.89213 4 5.9967V7.99999C4 8.55228 3.55228 8.99999 3 8.99999C2.44772 8.99999 2 8.55228 2 7.99999V5.9967C2 3.78757 3.79086 1.9967 6 1.9967H8C8.55228 1.9967 9 2.44442 9 2.9967C9 3.54899 8.55228 3.9967 8 3.9967H6Z" fill="#212121"/>
<path d="M6 20.0559C4.89543 20.0559 4 19.1605 4 18.0559V16C4 15.4477 3.55228 15 3 15C2.44772 15 2 15.4477 2 16V18.0559C2 20.265 3.79086 22.0559 6 22.0559H8C8.55228 22.0559 9 21.6082 9 21.0559C9 20.5036 8.55228 20.0559 8 20.0559H6Z" fill="#212121"/>
<path d="M20 5.9967C20 4.89213 19.1046 3.9967 18 3.9967H16C15.4477 3.9967 15 3.54899 15 2.9967C15 2.44442 15.4477 1.9967 16 1.9967H18C20.2091 1.9967 22 3.78757 22 5.9967V7.99999C22 8.55228 21.5523 8.99999 21 8.99999C20.4477 8.99999 20 8.55228 20 7.99999V5.9967Z" fill="#212121"/>
<path d="M18 20.0559C19.1046 20.0559 20 19.1605 20 18.0559V16C20 15.4477 20.4477 15 21 15C21.5523 15 22 15.4477 22 16V18.0559C22 20.265 20.2091 22.0559 18 22.0559H16C15.4477 22.0559 15 21.6082 15 21.0559C15 20.5036 15.4477 20.0559 16 20.0559H18Z" fill="#212121"/>
<path d="M17.6968 10.7173C18.0929 10.3324 18.1021 9.69933 17.7173 9.30319C17.3324 8.90706 16.6993 8.8979 16.3032 9.28273L10.342 15.0738L7.72597 12.3123C7.34615 11.9113 6.71322 11.8942 6.31228 12.274C5.91133 12.6538 5.89421 13.2868 6.27403 13.6877L9.58653 17.1844C9.77043 17.3786 10.0244 17.4909 10.2917 17.4965C10.5591 17.502 10.8175 17.4003 11.0093 17.214L17.6968 10.7173Z" fill="#212121"/>
</svg>
