<svg width="24" height="25" viewBox="0 0 24 25" fill="none" xmlns="http://www.w3.org/2000/svg">
<path d="M6 4.09491C4.89543 4.09491 4 4.99034 4 6.09491V8.0982C4 8.65048 3.55228 9.0982 3 9.0982C2.44772 9.0982 2 8.65048 2 8.0982V6.09491C2 3.88577 3.79086 2.09491 6 2.09491H8C8.55228 2.09491 9 2.54262 9 3.09491C9 3.64719 8.55228 4.09491 8 4.09491H6Z" fill="#212121"/>
<path d="M6 20.1541C4.89543 20.1541 4 19.2587 4 18.1541V16.0982C4 15.5459 3.55228 15.0982 3 15.0982C2.44772 15.0982 2 15.5459 2 16.0982V18.1541C2 20.3632 3.79086 22.1541 6 22.1541H8C8.55228 22.1541 9 21.7064 9 21.1541C9 20.6018 8.55228 20.1541 8 20.1541H6Z" fill="#212121"/>
<path d="M20 6.09491C20 4.99034 19.1046 4.09491 18 4.09491H16C15.4477 4.09491 15 3.64719 15 3.09491C15 2.54262 15.4477 2.09491 16 2.09491H18C20.2091 2.09491 22 3.88577 22 6.09491V8.0982C22 8.65048 21.5523 9.0982 21 9.0982C20.4477 9.0982 20 8.65048 20 8.0982V6.09491Z" fill="#212121"/>
<path d="M18 20.1541C19.1046 20.1541 20 19.2587 20 18.1541V16.0982C20 15.5459 20.4477 15.0982 21 15.0982C21.5523 15.0982 22 15.5459 22 16.0982V18.1541C22 20.3632 20.2091 22.1541 18 22.1541H16C15.4477 22.1541 15 21.7064 15 21.1541C15 20.6018 15.4477 20.1541 16 20.1541H18Z" fill="#212121"/>
<path d="M17.6968 10.8155C18.0929 10.4306 18.1021 9.79753 17.7173 9.4014C17.3324 9.00526 16.6993 8.9961 16.3032 9.38093L10.342 15.172L7.72597 12.4105C7.34615 12.0095 6.71322 11.9924 6.31228 12.3722C5.91133 12.752 5.89421 13.385 6.27403 13.7859L9.58653 17.2826C9.77043 17.4768 10.0244 17.5891 10.2917 17.5947C10.5591 17.6002 10.8175 17.4985 11.0093 17.3122L17.6968 10.8155Z" fill="#212121"/>
</svg>
