<svg width="24" height="25" viewBox="0 0 24 25" fill="none" xmlns="http://www.w3.org/2000/svg">
<path d="M10.5 9.09821C10.5 8.54592 10.9477 8.09821 11.5 8.09821C12.0523 8.09821 12.5 8.54592 12.5 9.09821V10.5982H14C14.5523 10.5982 15 11.0459 15 11.5982C15 12.1505 14.5523 12.5982 14 12.5982H12.5V14.0982C12.5 14.6505 12.0523 15.0982 11.5 15.0982C10.9477 15.0982 10.5 14.6505 10.5 14.0982V12.5982H9C8.44772 12.5982 8 12.1505 8 11.5982C8 11.0459 8.44772 10.5982 9 10.5982H10.5V9.09821Z" fill="#212121"/>
<path fill-rule="evenodd" clip-rule="evenodd" d="M11.5 3.09821C6.80558 3.09821 3 6.90379 3 11.5982C3 16.2926 6.80558 20.0982 11.5 20.0982C13.4869 20.0982 15.3145 19.4165 16.7618 18.2742L20.2929 21.8053C20.6834 22.1958 21.3166 22.1958 21.7071 21.8053C22.0976 21.4148 22.0976 20.7816 21.7071 20.3911L18.176 16.86C19.3183 15.4127 20 13.5851 20 11.5982C20 6.90379 16.1944 3.09821 11.5 3.09821ZM5 11.5982C5 8.00835 7.91015 5.09821 11.5 5.09821C15.0899 5.09821 18 8.00835 18 11.5982C18 15.1881 15.0899 18.0982 11.5 18.0982C7.91015 18.0982 5 15.1881 5 11.5982Z" fill="#212121"/>
</svg>
