<svg width="24" height="24" viewBox="0 0 24 24" fill="none" xmlns="http://www.w3.org/2000/svg">
<path d="M10.5 9C10.5 8.44772 10.9477 8 11.5 8C12.0523 8 12.5 8.44772 12.5 9V10.5H14C14.5523 10.5 15 10.9477 15 11.5C15 12.0523 14.5523 12.5 14 12.5H12.5V14C12.5 14.5523 12.0523 15 11.5 15C10.9477 15 10.5 14.5523 10.5 14V12.5H9C8.44772 12.5 8 12.0523 8 11.5C8 10.9477 8.44772 10.5 9 10.5H10.5V9Z" fill="#212121"/>
<path fill-rule="evenodd" clip-rule="evenodd" d="M11.5 3C6.80558 3 3 6.80558 3 11.5C3 16.1944 6.80558 20 11.5 20C13.4869 20 15.3145 19.3183 16.7618 18.176L20.2929 21.7071C20.6834 22.0976 21.3166 22.0976 21.7071 21.7071C22.0976 21.3166 22.0976 20.6834 21.7071 20.2929L18.176 16.7618C19.3183 15.3145 20 13.4869 20 11.5C20 6.80558 16.1944 3 11.5 3ZM5 11.5C5 7.91015 7.91015 5 11.5 5C15.0899 5 18 7.91015 18 11.5C18 15.0899 15.0899 18 11.5 18C7.91015 18 5 15.0899 5 11.5Z" fill="#212121"/>
</svg>
