<svg width="24" height="25" viewBox="0 0 24 25" fill="none" xmlns="http://www.w3.org/2000/svg">
<path fill-rule="evenodd" clip-rule="evenodd" d="M3 11.0982C3 6.67993 6.58172 3.09821 11 3.09821C15.4183 3.09821 19 6.67993 19 11.0982C19 15.5165 15.4183 19.0982 11 19.0982C6.58172 19.0982 3 15.5165 3 11.0982ZM11 5.09821C7.68629 5.09821 5 7.7845 5 11.0982C5 14.4119 7.68629 17.0982 11 17.0982C14.3137 17.0982 17 14.4119 17 11.0982C17 7.7845 14.3137 5.09821 11 5.09821Z" fill="#212121"/>
<path fill-rule="evenodd" clip-rule="evenodd" d="M15.2929 15.3911C15.6834 15.0006 16.3166 15.0006 16.7071 15.3911L21.7071 20.3911C22.0976 20.7816 22.0976 21.4148 21.7071 21.8053C21.3166 22.1958 20.6834 22.1958 20.2929 21.8053L15.2929 16.8053C14.9024 16.4148 14.9024 15.7816 15.2929 15.3911Z" fill="#212121"/>
</svg>
