<svg width="24" height="24" viewBox="0 0 24 24" fill="none" xmlns="http://www.w3.org/2000/svg">
<path fill-rule="evenodd" clip-rule="evenodd" d="M4.49984 6.13387C4.64696 6.04873 4.81779 6 5 6H19C19.1822 6 19.353 6.04874 19.5002 6.13388C19.4901 6.13973 19.48 6.14577 19.47 6.15201L12 10.8208L4.53001 6.15201C4.52002 6.14577 4.50996 6.13972 4.49984 6.13387ZM4 8.17925V17C4 17.5523 4.44772 18 5 18H19C19.5523 18 20 17.5523 20 17V8.17927L12.53 12.848C12.2057 13.0507 11.7943 13.0507 11.47 12.848L4 8.17925ZM5 4C3.34315 4 2 5.34315 2 7V17C2 18.6569 3.34315 20 5 20H19C20.6569 20 22 18.6569 22 17V7C22 5.34315 20.6569 4 19 4H5Z" fill="black"/>
</svg>
