<svg width="24" height="25" viewBox="0 0 24 25" fill="none" xmlns="http://www.w3.org/2000/svg">
<path fill-rule="evenodd" clip-rule="evenodd" d="M4.49984 6.23208C4.64696 6.14694 4.81779 6.09821 5 6.09821H19C19.1822 6.09821 19.353 6.14694 19.5002 6.23209C19.4901 6.23794 19.48 6.24398 19.47 6.25022L12 10.919L4.53001 6.25022C4.52002 6.24398 4.50996 6.23793 4.49984 6.23208ZM4 8.27746V17.0982C4 17.6505 4.44772 18.0982 5 18.0982H19C19.5523 18.0982 20 17.6505 20 17.0982V8.27747L12.53 12.9462C12.2057 13.1489 11.7943 13.1489 11.47 12.9462L4 8.27746ZM5 4.09821C3.34315 4.09821 2 5.44135 2 7.09821V17.0982C2 18.7551 3.34315 20.0982 5 20.0982H19C20.6569 20.0982 22 18.7551 22 17.0982V7.09821C22 5.44135 20.6569 4.09821 19 4.09821H5Z" fill="#212121"/>
</svg>
