<svg width="24" height="24" viewBox="0 0 24 24" fill="none" xmlns="http://www.w3.org/2000/svg">
<path fill-rule="evenodd" clip-rule="evenodd" d="M15 1C17.906 1 20 3.28439 20 6C20 8.37037 18.4938 10.6296 15.6 12.8C15.2444 13.0667 14.7556 13.0667 14.4 12.8C11.5062 10.6296 10 8.37037 10 6C10 3.28439 12.094 1 15 1ZM15 3C16.7607 3 18 4.35198 18 6C18 7.48975 17.0302 9.07235 15 10.7308C12.9698 9.07235 12 7.48975 12 6C12 4.35198 13.2393 3 15 3Z" fill="black"/>
<path d="M20 20.6126V12C20 11.4477 20.4477 11 21 11C21.5523 11 22 11.4477 22 12V22C22 22.6826 21.3313 23.1645 20.6838 22.9487L15 21.0541L9.33839 22.9413C9.2327 22.9793 9.11877 23 9 23C8.88123 23 8.7673 22.9793 8.66161 22.9413L2.68377 20.9487C2.27543 20.8126 2 20.4304 2 20V8C2 7.25662 2.78231 6.77312 3.44721 7.10557L7.44721 9.10557C7.94119 9.35256 8.14142 9.95323 7.89443 10.4472C7.64744 10.9412 7.04676 11.1414 6.55279 10.8944L4 9.61803V19.2792L8 20.6126V14C8 13.4477 8.44772 13 9 13C9.55228 13 10 13.4477 10 14V20.6126L14 19.2792V16C14 15.4477 14.4477 15 15 15C15.5523 15 16 15.4477 16 16V19.2792L20 20.6126Z" fill="black"/>
</svg>
