<svg width="24" height="24" viewBox="0 0 24 24" fill="none" xmlns="http://www.w3.org/2000/svg">
<path d="M15 5.5C14.1716 5.5 13.5 6.17157 13.5 7C13.5 7.82843 14.1716 8.5 15 8.5C15.8284 8.5 16.5 7.82843 16.5 7C16.5 6.17157 15.8284 5.5 15 5.5Z" fill="#212121"/>
<path fill-rule="evenodd" clip-rule="evenodd" d="M9 6.8C9 3.89175 11.2797 1 15 1C18.7203 1 21 3.89175 21 6.8C21 8.93463 19.9632 10.7097 18.8179 12.0302C17.6687 13.3553 16.3323 14.3137 15.5547 14.8321C15.2188 15.056 14.7812 15.056 14.4453 14.8321C13.6677 14.3137 12.3313 13.3553 11.1821 12.0302C10.0368 10.7097 9 8.93463 9 6.8ZM15 3C12.4703 3 11 4.90825 11 6.8C11 8.26537 11.7132 9.59025 12.6929 10.7198C13.4465 11.5886 14.3121 12.2884 15 12.7839C15.6879 12.2884 16.5535 11.5886 17.3071 10.7198C18.2868 9.59025 19 8.26537 19 6.8C19 4.90825 17.5297 3 15 3Z" fill="#212121"/>
<path d="M2.3978 7.20165C2.64832 7.01269 2.973 6.95227 3.27472 7.03848L6.77472 8.03848C7.30576 8.1902 7.61325 8.74369 7.46152 9.27472C7.3098 9.80576 6.75631 10.1132 6.22528 9.96152L4 9.32573V19.2792L8 20.6126V14C8 13.4477 8.44772 13 9 13C9.55228 13 10 13.4477 10 14V20.6126L14 19.2792V18C14 17.4477 14.4477 17 15 17C15.5523 17 16 17.4477 16 18V19.2792L20 20.6126V13.5C20 12.9477 20.4477 12.5 21 12.5C21.5523 12.5 22 12.9477 22 13.5V22C22 22.3214 21.8455 22.6233 21.5847 22.8112C21.3239 22.9992 20.9887 23.0503 20.6838 22.9487L15 21.0541L9.33832 22.9413C9.23265 22.9793 9.11874 23 9 23C8.88126 23 8.76735 22.9793 8.66168 22.9413L2.68377 20.9487C2.27543 20.8126 2 20.4304 2 20V8C2 7.68621 2.14729 7.39061 2.3978 7.20165Z" fill="#212121"/>
</svg>
