<svg width="24" height="25" viewBox="0 0 24 25" fill="none" xmlns="http://www.w3.org/2000/svg">
<path d="M15 5.59821C14.1716 5.59821 13.5 6.26978 13.5 7.09821C13.5 7.92663 14.1716 8.59821 15 8.59821C15.8284 8.59821 16.5 7.92663 16.5 7.09821C16.5 6.26978 15.8284 5.59821 15 5.59821Z" fill="#212121"/>
<path fill-rule="evenodd" clip-rule="evenodd" d="M9 6.89821C9 3.98995 11.2797 1.09821 15 1.09821C18.7203 1.09821 21 3.98995 21 6.89821C21 9.03283 19.9632 10.808 18.8179 12.1284C17.6687 13.4535 16.3323 14.4119 15.5547 14.9303C15.2188 15.1542 14.7812 15.1542 14.4453 14.9303C13.6677 14.4119 12.3313 13.4535 11.1821 12.1284C10.0368 10.808 9 9.03283 9 6.89821ZM15 3.09821C12.4703 3.09821 11 5.00646 11 6.89821C11 8.36358 11.7132 9.68846 12.6929 10.818C13.4465 11.6868 14.3121 12.3866 15 12.8821C15.6879 12.3866 16.5535 11.6868 17.3071 10.818C18.2868 9.68846 19 8.36358 19 6.89821C19 5.00646 17.5297 3.09821 15 3.09821Z" fill="#212121"/>
<path d="M2.3978 7.29986C2.64832 7.11089 2.973 7.05048 3.27472 7.13668L6.77472 8.13668C7.30576 8.28841 7.61325 8.84189 7.46152 9.37293C7.3098 9.90396 6.75631 10.2115 6.22528 10.0597L4 9.42394V19.3774L8 20.7108V14.0982C8 13.5459 8.44772 13.0982 9 13.0982C9.55228 13.0982 10 13.5459 10 14.0982V20.7108L14 19.3774V18.0982C14 17.5459 14.4477 17.0982 15 17.0982C15.5523 17.0982 16 17.5459 16 18.0982V19.3774L20 20.7108V13.5982C20 13.0459 20.4477 12.5982 21 12.5982C21.5523 12.5982 22 13.0459 22 13.5982V22.0982C22 22.4196 21.8455 22.7215 21.5847 22.9094C21.3239 23.0974 20.9887 23.1485 20.6838 23.0469L15 21.1523L9.33832 23.0395C9.23265 23.0775 9.11874 23.0982 9 23.0982C8.88126 23.0982 8.76735 23.0775 8.66168 23.0395L2.68377 21.0469C2.27543 20.9108 2 20.5286 2 20.0982V8.09821C2 7.78441 2.14729 7.48882 2.3978 7.29986Z" fill="#212121"/>
</svg>
