<svg width="24" height="24" viewBox="0 0 24 24" fill="none" xmlns="http://www.w3.org/2000/svg">
<path fill-rule="evenodd" clip-rule="evenodd" d="M2.3978 7.20165C2.64832 7.01269 2.973 6.95227 3.27472 7.03848L6.77472 8.03848C7.30576 8.1902 7.61325 8.74369 7.46152 9.27472C7.3098 9.80576 6.75631 10.1132 6.22528 9.96152L4 9.32573V19.2792L9 20.9459L14.6838 19.0513C14.889 18.9829 15.111 18.9829 15.3162 19.0513L20 20.6126V13.5C20 12.9477 20.4477 12.5 21 12.5C21.5523 12.5 22 12.9477 22 13.5V22C22 22.3214 21.8455 22.6233 21.5847 22.8112C21.3239 22.9992 20.9887 23.0503 20.6838 22.9487L15 21.0541L9.31623 22.9487C9.11096 23.0171 8.88904 23.0171 8.68377 22.9487L2.68377 20.9487C2.27543 20.8126 2 20.4304 2 20V8C2 7.68621 2.14729 7.39061 2.3978 7.20165Z" fill="#212121"/>
<path fill-rule="evenodd" clip-rule="evenodd" d="M15 17C15.5523 17 16 17.4477 16 18V20C16 20.5523 15.5523 21 15 21C14.4477 21 14 20.5523 14 20V18C14 17.4477 14.4477 17 15 17Z" fill="#212121"/>
<path fill-rule="evenodd" clip-rule="evenodd" d="M9 13C9.55228 13 10 13.4477 10 14V22C10 22.5523 9.55228 23 9 23C8.44772 23 8 22.5523 8 22V14C8 13.4477 8.44772 13 9 13Z" fill="#212121"/>
<path fill-rule="evenodd" clip-rule="evenodd" d="M9 6.8C9 3.89175 11.2797 1 15 1C18.7203 1 21 3.89175 21 6.8C21 9.01013 19.5032 11.0585 18.2338 12.4294C17.5729 13.1431 16.9154 13.7345 16.4244 14.147C16.1782 14.3538 15.972 14.5172 15.8256 14.6301C15.7524 14.6865 15.6941 14.7305 15.6531 14.761L15.6048 14.7966L15.591 14.8067L15.5867 14.8098L15.5853 14.8108C15.5851 14.811 15.5843 14.8115 15 14C14.4157 14.8115 14.4155 14.8114 14.4153 14.8112L14.4133 14.8098L14.409 14.8067L14.3952 14.7966L14.3469 14.761C14.3059 14.7305 14.2476 14.6865 14.1744 14.6301C14.028 14.5172 13.8218 14.3538 13.5756 14.147C13.0846 13.7345 12.4271 13.1431 11.7662 12.4294C10.4968 11.0585 9 9.01013 9 6.8ZM15 14L14.4153 14.8112C14.7643 15.0625 15.2353 15.0628 15.5843 14.8115L15 14ZM15 12.7304C15.0441 12.694 15.0902 12.6557 15.1381 12.6155C15.5846 12.2405 16.1771 11.7069 16.7662 11.0706C17.9968 9.74155 19 8.18987 19 6.8C19 4.90825 17.5297 3 15 3C12.4703 3 11 4.90825 11 6.8C11 8.18987 12.0032 9.74155 13.2338 11.0706C13.8229 11.7069 14.4154 12.2405 14.8619 12.6155C14.9098 12.6557 14.9559 12.694 15 12.7304Z" fill="#212121"/>
<path d="M13.5 7C13.5 6.17157 14.1716 5.5 15 5.5C15.8284 5.5 16.5 6.17157 16.5 7C16.5 7.82843 15.8284 8.5 15 8.5C14.1716 8.5 13.5 7.82843 13.5 7Z" fill="#212121"/>
</svg>
