<svg width="24" height="25" viewBox="0 0 24 25" fill="none" xmlns="http://www.w3.org/2000/svg">
<path d="M20.0001 5.09821C20.0001 4.54593 19.5524 4.09821 19.0001 4.09821L13.8285 4.09819C13.5632 4.09819 13.3089 4.20355 13.1214 4.39109L4.12138 13.3912C3.73006 13.7825 3.73044 14.4144 4.12017 14.8041L10.7072 21.3911C11.0977 21.7816 11.0977 22.4148 10.7072 22.8053C10.3167 23.1958 9.6835 23.1959 9.29297 22.8053L2.70596 16.2184C1.53358 15.046 1.53639 13.1477 2.70716 11.9769L11.7071 2.97688C12.2697 2.41426 13.0328 2.09819 13.8285 2.09819L19.0001 2.09821C20.657 2.09822 22.0001 3.44136 22.0001 5.09821L22.0001 11.5982C22.0001 12.1505 21.5524 12.5982 21.0001 12.5982C20.4479 12.5982 20.0001 12.1505 20.0001 11.5982V5.09821Z" fill="#212121"/>
<path fill-rule="evenodd" clip-rule="evenodd" d="M13.3748 14.644C14.1903 14.0728 15.3113 13.8748 16.3547 14.4158L17 14.7503L17.6453 14.4158C18.6887 13.8748 19.8097 14.0728 20.6252 14.644C21.4318 15.209 22 16.173 22 17.2822C22 18.6696 21.163 19.8646 20.3685 20.7086C19.5456 21.583 18.5934 22.2642 18.0319 22.6332C17.4036 23.0462 16.5964 23.0462 15.968 22.6332C15.4066 22.2642 14.4544 21.583 13.6314 20.7086C12.837 19.8646 12 18.6696 12 17.2822C12 16.173 12.5682 15.2091 13.3748 14.644ZM14.5222 16.2822C14.2141 16.498 14 16.8681 14 17.2822C14 17.883 14.3896 18.5961 15.0878 19.3379C15.7287 20.0187 16.4948 20.5813 17 20.9179C17.5052 20.5813 18.2713 20.0187 18.9122 19.3379C19.6104 18.5961 20 17.883 20 17.2822C20 16.8681 19.7859 16.498 19.4777 16.2822C19.1784 16.0725 18.8522 16.0429 18.5658 16.1913L17.6839 16.6486C17.2545 16.8712 16.7455 16.8712 16.3161 16.6486L15.4341 16.1913C15.1477 16.0429 14.8215 16.0725 14.5222 16.2822Z" fill="#212121"/>
<path d="M17 8.09821C17.5523 8.09821 18 7.6505 18 7.09821C18 6.54593 17.5523 6.09821 17 6.09821C16.4477 6.09821 16 6.54593 16 7.09821C16 7.6505 16.4477 8.09821 17 8.09821Z" fill="#212121"/>
</svg>
