<svg width="24" height="24" viewBox="0 0 24 24" fill="none" xmlns="http://www.w3.org/2000/svg">
<g clip-path="url(#clip0)">
<path d="M20.0001 4.99999C20.0001 4.44771 19.5524 3.99999 19.0001 3.99999L13.8285 3.99997C13.5632 3.99997 13.3089 4.10533 13.1214 4.29287L4.12138 13.2929C3.73006 13.6843 3.73044 14.3162 4.12017 14.7059L10.7072 21.2929C11.0977 21.6834 11.0977 22.3166 10.7072 22.7071C10.3167 23.0976 9.6835 23.0976 9.29297 22.7071L2.70596 16.1201C1.53358 14.9478 1.53639 13.0495 2.70716 11.8787L11.7071 2.87866C12.2697 2.31604 13.0328 1.99997 13.8285 1.99997L19.0001 1.99999C20.657 2 22.0001 3.34314 22.0001 4.99999L22.0001 11.5C22.0001 12.0523 21.5524 12.5 21.0001 12.5C20.4479 12.5 20.0001 12.0523 20.0001 11.5V4.99999Z" fill="black"/>
<path fill-rule="evenodd" clip-rule="evenodd" d="M13.3748 14.5458C14.1903 13.9746 15.3113 13.7766 16.3547 14.3176L17 14.6521L17.6453 14.3176C18.6887 13.7766 19.8097 13.9746 20.6252 14.5458C21.4318 15.1108 22 16.0748 22 17.184C22 18.5714 21.163 19.7664 20.3685 20.6104C19.5456 21.4847 18.5934 22.166 18.0319 22.535C17.4036 22.9479 16.5964 22.9479 15.968 22.535C15.4066 22.166 14.4544 21.4847 13.6314 20.6104C12.837 19.7664 12 18.5714 12 17.184C12 16.0748 12.5682 15.1108 13.3748 14.5458ZM14.5222 16.1839C14.2141 16.3998 14 16.7698 14 17.184C14 17.7848 14.3896 18.4979 15.0878 19.2396C15.7287 19.9205 16.4948 20.4831 17 20.8197C17.5052 20.4831 18.2713 19.9205 18.9122 19.2396C19.6104 18.4979 20 17.7848 20 17.184C20 16.7698 19.7859 16.3998 19.4777 16.1839C19.1784 15.9743 18.8522 15.9446 18.5658 16.0931L17.6839 16.5504C17.2545 16.773 16.7455 16.773 16.3161 16.5504L15.4341 16.0931C15.1477 15.9446 14.8215 15.9743 14.5222 16.1839Z" fill="black"/>
<path d="M17 7.99999C17.5523 7.99999 18 7.55228 18 6.99999C18 6.44771 17.5523 5.99999 17 5.99999C16.4477 5.99999 16 6.44771 16 6.99999C16 7.55228 16.4477 7.99999 17 7.99999Z" fill="black"/>
</g>
<defs>
<clipPath id="clip0">
<rect width="24" height="24" fill="white"/>
</clipPath>
</defs>
</svg>
