<svg width="24" height="24" viewBox="0 0 24 24" fill="none" xmlns="http://www.w3.org/2000/svg">
<path fill-rule="evenodd" clip-rule="evenodd" d="M9 4C9 2.34315 10.3431 1 12 1C13.6569 1 15 2.34315 15 4V11C15 12.6569 13.6569 14 12 14C10.3431 14 9 12.6569 9 11V4ZM12 3C11.4477 3 11 3.44772 11 4V11C11 11.5523 11.4477 12 12 12C12.5523 12 13 11.5523 13 11V4C13 3.44772 12.5523 3 12 3Z" fill="#212121"/>
<path d="M6.5 10C7.05228 10 7.5 10.4477 7.5 11V11.5C7.5 13.9853 9.51472 16 12 16C14.4853 16 16.5 13.9853 16.5 11.5V11C16.5 10.4477 16.9477 10 17.5 10C18.0523 10 18.5 10.4477 18.5 11V11.5C18.5 14.7508 16.1136 17.4442 12.9972 17.924C12.999 17.9491 13 17.9744 13 18V21C13 21.5523 12.5523 22 12 22C11.4477 22 11 21.5523 11 21V18C11 17.9744 11.001 17.9491 11.0028 17.924C7.88636 17.4442 5.5 14.7508 5.5 11.5V11C5.5 10.4477 5.94772 10 6.5 10Z" fill="#212121"/>
</svg>
