<svg width="24" height="24" viewBox="0 0 24 24" fill="none" xmlns="http://www.w3.org/2000/svg">
<path fill-rule="evenodd" clip-rule="evenodd" d="M7 7C7 4.23858 9.23858 2 12 2C14.7614 2 17 4.23858 17 7V11C17 13.7614 14.7614 16 12 16C9.23858 16 7 13.7614 7 11V7ZM12 4C10.3431 4 9 5.34315 9 7V11C9 12.6569 10.3431 14 12 14C13.6569 14 15 12.6569 15 11V7C15 5.34315 13.6569 4 12 4Z" fill="#212121"/>
<path d="M11 19.9449V22C11 22.5523 11.4477 23 12 23C12.5523 23 13 22.5523 13 22V19.9449C16.8345 19.5205 20 16.6886 20 13C20 12.4477 19.5523 12 19 12C18.4477 12 18 12.4477 18 13C18 15.6224 15.4639 18 12 18C8.53612 18 6 15.6224 6 13C6 12.4477 5.55228 12 5 12C4.44772 12 4 12.4477 4 13C4 16.6886 7.16551 19.5205 11 19.9449Z" fill="#212121"/>
</svg>
