<svg width="24" height="25" viewBox="0 0 24 25" fill="none" xmlns="http://www.w3.org/2000/svg">
<path d="M2.682 1.36673C2.27809 0.990076 1.64531 1.01217 1.26865 1.41609C0.891993 1.82 0.91409 2.45278 1.31801 2.82944L22.0038 22.1193C22.4077 22.4959 23.0405 22.4738 23.4172 22.0699C23.7938 21.666 23.7717 21.0332 23.3678 20.6566L2.682 1.36673Z" fill="#212121"/>
<path d="M7 11.0982V9.49543L9.01232 11.3719C9.14868 12.8793 10.4 14.0649 11.9351 14.0975L13.745 15.7853C13.2017 15.9876 12.6138 16.0982 12 16.0982C9.23858 16.0982 7 13.8596 7 11.0982Z" fill="#212121"/>
<path d="M15 11.0982C15 11.2225 14.9924 11.3451 14.9777 11.4655L16.625 13.0015C16.8667 12.4149 17 11.7721 17 11.0982V7.0982C17 4.33677 14.7614 2.0982 12 2.0982C10.1354 2.0982 8.50923 3.11882 7.6496 4.63188L9.18362 6.06238C9.6054 4.91593 10.7072 4.0982 12 4.0982C13.6569 4.0982 15 5.44134 15 7.0982V11.0982Z" fill="#212121"/>
<path d="M11 22.0982V20.0431C7.16551 19.6187 4 16.7868 4 13.0982C4 12.5459 4.44772 12.0982 5 12.0982C5.55228 12.0982 6 12.5459 6 13.0982C6 15.7206 8.53612 18.0982 12 18.0982C13.2569 18.0982 14.3917 17.7851 15.3275 17.2609L16.8403 18.6716C15.7341 19.4038 14.4125 19.8867 13 20.0431V22.0982C13 22.6505 12.5523 23.0982 12 23.0982C11.4477 23.0982 11 22.6505 11 22.0982Z" fill="#212121"/>
<path d="M19.4607 15.6459C19.8078 14.8641 20 14.0072 20 13.0982C20 12.5459 19.5523 12.0982 19 12.0982C18.4477 12.0982 18 12.5459 18 13.0982C18 13.4568 17.9526 13.8109 17.8618 14.1549L19.4607 15.6459Z" fill="#212121"/>
</svg>
