<svg width="24" height="25" viewBox="0 0 24 25" fill="none" xmlns="http://www.w3.org/2000/svg">
<path fill-rule="evenodd" clip-rule="evenodd" d="M9 4.09821C9 2.44135 10.3431 1.09821 12 1.09821C13.6569 1.09821 15 2.44135 15 4.09821V11.0982C15 12.7551 13.6569 14.0982 12 14.0982C10.3431 14.0982 9 12.7551 9 11.0982V4.09821ZM12 3.09821C11.4477 3.09821 11 3.54592 11 4.09821V11.0982C11 11.6505 11.4477 12.0982 12 12.0982C12.5523 12.0982 13 11.6505 13 11.0982V4.09821C13 3.54592 12.5523 3.09821 12 3.09821Z" fill="#212121"/>
<path d="M6.5 10.0982C7.05228 10.0982 7.5 10.5459 7.5 11.0982V11.5982C7.5 14.0835 9.51472 16.0982 12 16.0982C14.4853 16.0982 16.5 14.0835 16.5 11.5982V11.0982C16.5 10.5459 16.9477 10.0982 17.5 10.0982C18.0523 10.0982 18.5 10.5459 18.5 11.0982V11.5982C18.5 14.849 16.1136 17.5424 12.9972 18.0222C12.999 18.0473 13 18.0726 13 18.0982V21.0982C13 21.6505 12.5523 22.0982 12 22.0982C11.4477 22.0982 11 21.6505 11 21.0982V18.0982C11 18.0726 11.001 18.0473 11.0028 18.0222C7.88636 17.5424 5.5 14.849 5.5 11.5982V11.0982C5.5 10.5459 5.94772 10.0982 6.5 10.0982Z" fill="#212121"/>
</svg>
