<svg width="24" height="25" viewBox="0 0 24 25" fill="none" xmlns="http://www.w3.org/2000/svg">
<path d="M9 12.0982C9 12.1823 9.00346 12.2657 9.01026 12.3481L9.01053 12.3514C9.13061 13.7884 10.2635 14.9375 11.6933 15.0827C11.7111 15.0845 11.7289 15.0862 11.7468 15.0877C11.8303 15.0946 11.9147 15.0982 12 15.0982C12.3509 15.0982 12.6877 15.038 13.0006 14.9273L9 10.9266V12.0982Z" fill="#212121"/>
<path d="M15 5.09821C15 3.44135 13.6569 2.09821 12 2.09821C10.3431 2.09821 9 3.44135 9 5.09821V5.26978L11 7.26978V5.09821C11 4.54592 11.4477 4.09821 12 4.09821C12.5523 4.09821 13 4.54592 13 5.09821V9.26978L15 11.2698V5.09821Z" fill="#212121"/>
<path d="M12 17.0982C12.9028 17.0982 13.7435 16.8324 14.4481 16.3747L15.884 17.8106C15.0527 18.4311 14.0681 18.8573 12.9972 19.0222C12.999 19.0473 13 19.0726 13 19.0982V22.0982C13 22.6505 12.5523 23.0982 12 23.0982C11.4477 23.0982 11 22.6505 11 22.0982V19.0982C11 19.0726 11.001 19.0473 11.0028 19.0222C7.88636 18.5424 5.5 15.849 5.5 12.5982V12.0982C5.5 11.5459 5.94772 11.0982 6.5 11.0982C7.05228 11.0982 7.5 11.5459 7.5 12.0982V12.5982C7.5 15.0835 9.51472 17.0982 12 17.0982Z" fill="#212121"/>
<path d="M18.5 12.5982C18.5 13.2563 18.4022 13.8915 18.2204 14.4901L16.4969 12.7667C16.499 12.7108 16.5 12.6546 16.5 12.5982V12.0982C16.5 11.5459 16.9477 11.0982 17.5 11.0982C18.0523 11.0982 18.5 11.5459 18.5 12.0982V12.5982Z" fill="#212121"/>
<path d="M4.70711 2.3911C4.31658 2.00057 3.68342 2.00057 3.29289 2.3911C2.90237 2.78162 2.90237 3.41479 3.29289 3.80531L20.2929 20.8053C20.6834 21.1958 21.3166 21.1958 21.7071 20.8053C22.0976 20.4148 22.0976 19.7816 21.7071 19.3911L4.70711 2.3911Z" fill="#212121"/>
</svg>
