<svg width="24" height="24" viewBox="0 0 24 24" fill="none" xmlns="http://www.w3.org/2000/svg">
<path d="M9 12C9 12.0841 9.00346 12.1675 9.01026 12.2498L9.01053 12.2532C9.13061 13.6902 10.2635 14.8393 11.6933 14.9845C11.7111 14.9863 11.7289 14.988 11.7468 14.9895C11.8303 14.9964 11.9147 15 12 15C12.3509 15 12.6877 14.9398 13.0006 14.8291L9 10.8284V12Z" fill="#212121"/>
<path d="M15 5C15 3.34315 13.6569 2 12 2C10.3431 2 9 3.34315 9 5V5.17157L11 7.17157V5C11 4.44772 11.4477 4 12 4C12.5523 4 13 4.44772 13 5V9.17157L15 11.1716V5Z" fill="#212121"/>
<path d="M12 17C12.9028 17 13.7435 16.7342 14.4481 16.2765L15.884 17.7124C15.0527 18.3329 14.0681 18.7591 12.9972 18.924C12.999 18.9491 13 18.9744 13 19V22C13 22.5523 12.5523 23 12 23C11.4477 23 11 22.5523 11 22V19C11 18.9744 11.001 18.9491 11.0028 18.924C7.88636 18.4442 5.5 15.7508 5.5 12.5V12C5.5 11.4477 5.94772 11 6.5 11C7.05228 11 7.5 11.4477 7.5 12V12.5C7.5 14.9853 9.51472 17 12 17Z" fill="#212121"/>
<path d="M18.5 12.5C18.5 13.1581 18.4022 13.7933 18.2204 14.3919L16.4969 12.6685C16.499 12.6126 16.5 12.5564 16.5 12.5V12C16.5 11.4477 16.9477 11 17.5 11C18.0523 11 18.5 11.4477 18.5 12V12.5Z" fill="#212121"/>
<path d="M4.70711 2.29289C4.31658 1.90237 3.68342 1.90237 3.29289 2.29289C2.90237 2.68342 2.90237 3.31658 3.29289 3.70711L20.2929 20.7071C20.6834 21.0976 21.3166 21.0976 21.7071 20.7071C22.0976 20.3166 22.0976 19.6834 21.7071 19.2929L4.70711 2.29289Z" fill="#212121"/>
</svg>
