<svg width="24" height="24" viewBox="0 0 24 24" fill="none" xmlns="http://www.w3.org/2000/svg">
<path d="M2.682 1.26853C2.27809 0.891871 1.64531 0.913968 1.26865 1.31788C0.891993 1.7218 0.91409 2.35458 1.31801 2.73124L22.0038 22.0211C22.4077 22.3977 23.0405 22.3756 23.4172 21.9717C23.7938 21.5678 23.7717 20.935 23.3678 20.5584L2.682 1.26853Z" fill="#212121"/>
<path d="M7 11V9.39722L9.01232 11.2737C9.14868 12.7811 10.4 13.9667 11.9351 13.9993L13.745 15.687C13.2017 15.8894 12.6138 16 12 16C9.23858 16 7 13.7614 7 11Z" fill="#212121"/>
<path d="M15 11C15 11.1243 14.9924 11.2469 14.9777 11.3673L16.625 12.9033C16.8667 12.3167 17 11.6739 17 11V6.99999C17 4.23857 14.7614 1.99999 12 1.99999C10.1354 1.99999 8.50923 3.02061 7.6496 4.53367L9.18362 5.96417C9.6054 4.81773 10.7072 3.99999 12 3.99999C13.6569 3.99999 15 5.34314 15 6.99999V11Z" fill="#212121"/>
<path d="M11 22V19.9449C7.16551 19.5205 4 16.6886 4 13C4 12.4477 4.44772 12 5 12C5.55228 12 6 12.4477 6 13C6 15.6223 8.53612 18 12 18C13.2569 18 14.3917 17.6869 15.3275 17.1627L16.8403 18.5734C15.7341 19.3056 14.4125 19.7885 13 19.9449V22C13 22.5523 12.5523 23 12 23C11.4477 23 11 22.5523 11 22Z" fill="#212121"/>
<path d="M19.4607 15.5477C19.8078 14.7659 20 13.909 20 13C20 12.4477 19.5523 12 19 12C18.4477 12 18 12.4477 18 13C18 13.3586 17.9526 13.7127 17.8618 14.0567L19.4607 15.5477Z" fill="#212121"/>
</svg>
