<svg width="24" height="25" viewBox="0 0 24 25" fill="none" xmlns="http://www.w3.org/2000/svg">
<path fill-rule="evenodd" clip-rule="evenodd" d="M7 7.09821C7 4.33678 9.23858 2.09821 12 2.09821C14.7614 2.09821 17 4.33678 17 7.09821V11.0982C17 13.8596 14.7614 16.0982 12 16.0982C9.23858 16.0982 7 13.8596 7 11.0982V7.09821ZM12 4.09821C10.3431 4.09821 9 5.44135 9 7.09821V11.0982C9 12.7551 10.3431 14.0982 12 14.0982C13.6569 14.0982 15 12.7551 15 11.0982V7.09821C15 5.44135 13.6569 4.09821 12 4.09821Z" fill="#212121"/>
<path d="M11 20.0431V22.0982C11 22.6505 11.4477 23.0982 12 23.0982C12.5523 23.0982 13 22.6505 13 22.0982V20.0431C16.8345 19.6187 20 16.7868 20 13.0982C20 12.5459 19.5523 12.0982 19 12.0982C18.4477 12.0982 18 12.5459 18 13.0982C18 15.7206 15.4639 18.0982 12 18.0982C8.53612 18.0982 6 15.7206 6 13.0982C6 12.5459 5.55228 12.0982 5 12.0982C4.44772 12.0982 4 12.5459 4 13.0982C4 16.7868 7.16551 19.6187 11 20.0431Z" fill="#212121"/>
</svg>
