<svg width="24" height="24" viewBox="0 0 24 24" fill="none" xmlns="http://www.w3.org/2000/svg">
<path fill-rule="evenodd" clip-rule="evenodd" d="M17 0.999991C18.6569 0.999991 20 2.34314 20 3.99999L20 20C20 21.6568 18.6569 23 17 23H7C5.34315 23 4 21.6568 4 20L4 3.99999C4 2.34314 5.34315 0.99999 7 0.99999L17 0.999991ZM18 3.99999C18 3.44771 17.5523 2.99999 17 2.99999L7 2.99999C6.44772 2.99999 6 3.44771 6 3.99999L6 20C6 20.5523 6.44772 21 7 21H17C17.5523 21 18 20.5523 18 20L18 3.99999Z" fill="#212121"/>
<path fill-rule="evenodd" clip-rule="evenodd" d="M18 18H6V16H18V18Z" fill="#212121"/>
</svg>
