<svg width="24" height="25" viewBox="0 0 24 25" fill="none" xmlns="http://www.w3.org/2000/svg">
<path fill-rule="evenodd" clip-rule="evenodd" d="M20 4.09821C20 2.44135 18.6569 1.09821 17 1.09821L7 1.09821C5.34315 1.09821 4 2.44135 4 4.09821L4 20.0982C4 21.7551 5.34315 23.0982 7 23.0982H17C18.6569 23.0982 20 21.7551 20 20.0982L20 4.09821ZM17 3.09821C17.5523 3.09821 18 3.54592 18 4.09821L18 16.0982H6L6 4.09821C6 3.54592 6.44772 3.09821 7 3.09821L17 3.09821ZM6 18.0982V20.0982C6 20.6505 6.44772 21.0982 7 21.0982H17C17.5523 21.0982 18 20.6505 18 20.0982V18.0982H6Z" fill="#212121"/>
</svg>
