<svg width="24" height="24" viewBox="0 0 24 24" fill="none" xmlns="http://www.w3.org/2000/svg">
<path fill-rule="evenodd" clip-rule="evenodd" d="M17 1C18.6569 1 20 2.34315 20 4L20 20C20 21.6569 18.6569 23 17 23H7C5.34315 23 4 21.6569 4 20L4 4C4 2.34315 5.34315 1 7 1L17 1ZM18 4C18 3.44772 17.5523 3 17 3L7 3C6.44772 3 6 3.44772 6 4L6 20C6 20.5523 6.44772 21 7 21H17C17.5523 21 18 20.5523 18 20L18 4Z" fill="#212121"/>
<path fill-rule="evenodd" clip-rule="evenodd" d="M18 18H6V16H18V18Z" fill="#212121"/>
</svg>
