<svg width="24" height="24" viewBox="0 0 24 24" fill="none" xmlns="http://www.w3.org/2000/svg">
<path fill-rule="evenodd" clip-rule="evenodd" d="M14.115 2.75278C14.2287 3.13018 14.1101 3.53918 13.8122 3.79723C13.0934 4.41978 12.5382 5.19936 12.1842 6.06757C12.0033 6.51138 11.8749 6.97833 11.8041 7.45933C11.595 8.88112 11.903 10.3308 12.6723 11.5446C13.4417 12.7584 14.6211 13.6558 15.9961 14.0736C16.0319 14.0845 16.0719 14.0971 16.1159 14.111C16.7737 14.3192 18.3293 14.8115 20.0928 13.8563C20.4522 13.6616 20.894 13.7053 21.2083 13.9666C21.5227 14.2279 21.6463 14.6543 21.5206 15.0432C20.9364 16.8505 19.8495 18.4541 18.3872 19.6662C16.9248 20.8784 15.1475 21.649 13.2632 21.8879C11.3789 22.1268 9.4655 21.8241 7.74694 21.0152C6.02838 20.2064 4.57571 18.9248 3.55893 17.3205C2.54214 15.7161 2.0033 13.8554 2.00543 11.956C2.00757 10.0566 2.5506 8.19713 3.57099 6.59509C4.59138 4.99306 6.04693 3.71476 7.76731 2.90977C9.48769 2.10479 11.4017 1.80641 13.2855 2.04955C13.6764 2.1 14.0012 2.37539 14.115 2.75278ZM10.995 4.03135C10.1747 4.1358 9.37139 4.36732 8.61493 4.72128C7.23863 5.36526 6.07419 6.3879 5.25788 7.66953C4.44157 8.95116 4.00714 10.4388 4.00543 11.9583C4.00372 13.4778 4.4348 14.9664 5.24823 16.2498C6.06166 17.5333 7.22379 18.5585 8.59864 19.2056C9.97349 19.8527 11.5042 20.0949 13.0116 19.9037C14.5191 19.7126 15.9409 19.0961 17.1108 18.1264C17.7207 17.6209 18.2489 17.0303 18.6811 16.3758C17.1837 16.5573 15.9961 16.1742 15.5289 16.0235C15.4841 16.009 15.4459 15.9967 15.4147 15.9872C13.5814 15.4302 12.0088 14.2337 10.9831 12.6152C9.95731 10.9968 9.54654 9.06393 9.82545 7.16821C9.9198 6.52695 10.091 5.90428 10.3322 5.31249C10.5142 4.86615 10.7361 4.43735 10.995 4.03135Z" fill="#212121"/>
</svg>
