<svg width="24" height="25" viewBox="0 0 24 25" fill="none" xmlns="http://www.w3.org/2000/svg">
<path fill-rule="evenodd" clip-rule="evenodd" d="M14.115 2.85099C14.2287 3.22839 14.1101 3.63739 13.8122 3.89543C13.0934 4.51798 12.5382 5.29756 12.1842 6.16577C12.0033 6.60958 11.8749 7.07653 11.8041 7.55753C11.595 8.97932 11.903 10.429 12.6723 11.6428C13.4417 12.8566 14.6211 13.754 15.9961 14.1718C16.0319 14.1827 16.0719 14.1953 16.1159 14.2092C16.7737 14.4174 18.3293 14.9097 20.0928 13.9545C20.4522 13.7598 20.894 13.8035 21.2083 14.0648C21.5227 14.3261 21.6463 14.7525 21.5206 15.1414C20.9364 16.9487 19.8495 18.5523 18.3872 19.7644C16.9248 20.9766 15.1475 21.7472 13.2632 21.9861C11.3789 22.225 9.4655 21.9223 7.74694 21.1134C6.02838 20.3046 4.57571 19.023 3.55893 17.4187C2.54214 15.8144 2.0033 13.9536 2.00543 12.0542C2.00757 10.1548 2.5506 8.29533 3.57099 6.6933C4.59138 5.09126 6.04693 3.81297 7.76731 3.00798C9.48769 2.20299 11.4017 1.90461 13.2855 2.14775C13.6764 2.19821 14.0012 2.47359 14.115 2.85099ZM10.995 4.12955C10.1747 4.234 9.37139 4.46552 8.61493 4.81948C7.23863 5.46347 6.07419 6.48611 5.25788 7.76774C4.44157 9.04936 4.00714 10.537 4.00543 12.0565C4.00372 13.576 4.4348 15.0646 5.24823 16.348C6.06166 17.6315 7.22379 18.6568 8.59864 19.3038C9.97349 19.9509 11.5042 20.1931 13.0116 20.002C14.5191 19.8108 15.9409 19.1943 17.1108 18.2246C17.7207 17.7191 18.2489 17.1285 18.6811 16.474C17.1837 16.6555 15.9961 16.2724 15.5289 16.1217C15.4841 16.1072 15.4459 16.0949 15.4147 16.0854C13.5814 15.5284 12.0088 14.3319 10.9831 12.7134C9.95731 11.095 9.54654 9.16213 9.82545 7.26642C9.9198 6.62515 10.091 6.00249 10.3322 5.4107C10.5142 4.96435 10.7361 4.53556 10.995 4.12955Z" fill="#212121"/>
</svg>
