<svg width="24" height="24" viewBox="0 0 24 24" fill="none" xmlns="http://www.w3.org/2000/svg">
<path fill-rule="evenodd" clip-rule="evenodd" d="M20.2123 3.79292C20.4918 4.07236 20.5805 4.49016 20.4386 4.85901L14.0904 21.3642C13.9326 21.7745 13.5254 22.0336 13.0869 22.0028C12.6485 21.972 12.2815 21.6584 12.1827 21.2301L10.4188 13.5865L2.77516 11.8226C2.34685 11.7237 2.03331 11.3568 2.00248 10.9183C1.97165 10.4798 2.23077 10.0726 2.64104 9.91485L19.1463 3.56668C19.5151 3.42482 19.9329 3.51348 20.2123 3.79292ZM6.40877 10.6085L11.4775 11.7782C11.8501 11.8642 12.141 12.1552 12.227 12.5278L13.3967 17.5965L17.7642 6.24108L6.40877 10.6085Z" fill="#212121"/>
</svg>
