<svg width="24" height="25" viewBox="0 0 24 25" fill="none" xmlns="http://www.w3.org/2000/svg">
<path d="M10.6508 20.5716L9.33868 19.3677C8.89407 18.9598 8.90927 18.254 9.37104 17.8656L9.39977 17.8414C9.78734 17.5154 10.3574 17.5307 10.7284 17.8754C11.1068 18.2269 11.4978 18.5881 11.9003 18.96L12.0002 19.062L12.1002 18.96C16.3541 15.0297 19.3137 12.2897 19.8932 9.64661C19.9534 9.37237 20.0969 9.11956 20.3251 8.95607L21.3853 8.19672C21.6363 8.01689 21.9857 8.16568 21.9964 8.47432C22.1264 12.432 18.6977 15.6042 13.4497 20.4594L13.3397 20.5614C12.58 21.2754 11.4105 21.2754 10.6508 20.5716Z" fill="#212121"/>
<path d="M4.34322 4.10868C6.59931 2.53034 9.30836 2.935 11.1463 4.39855C11.6333 4.78639 12.3673 4.78636 12.8546 4.39886C14.1684 3.35421 15.9273 2.85276 17.6476 3.22505C18.3296 3.37263 18.4494 4.21186 17.9327 4.68074L17.7128 4.88027C17.4709 5.09985 17.1374 5.17827 16.8117 5.1516C16.7088 5.14318 16.6044 5.13889 16.4985 5.13889C15.2815 5.13889 14.0894 5.77008 13.3867 6.72499C13.0525 7.17907 12.5659 7.54611 12.0021 7.54611C11.4414 7.54611 10.9567 7.1832 10.624 6.73193C9.91693 5.77314 8.72202 5.13889 7.502 5.13889C5.50277 5.13889 4.00335 6.6689 4.00335 8.70892C4.00335 10.0963 4.69863 11.4747 5.93078 13.0035C6.30558 13.4685 6.22626 14.1623 5.73891 14.5076C5.32103 14.8037 4.74065 14.7403 4.41794 14.3427C2.81808 12.3712 1.93168 10.5331 2.00412 8.48452C2.06409 6.7403 2.94376 5.08789 4.34322 4.10868Z" fill="#212121"/>
<path d="M21.8551 3.15551C22.2824 2.80562 22.9125 2.86837 23.2624 3.29568C23.6123 3.72299 23.5495 4.35304 23.1222 4.70293L4.6864 19.7988C4.25909 20.1487 3.62905 20.086 3.27915 19.6587C2.92926 19.2314 2.99201 18.6013 3.41932 18.2514L21.8551 3.15551Z" fill="#212121"/>
</svg>
