<svg width="24" height="24" viewBox="0 0 24 24" fill="none" xmlns="http://www.w3.org/2000/svg">
<path d="M10.6508 20.4734L9.33868 19.2695C8.89407 18.8616 8.90927 18.1558 9.37104 17.7674L9.39977 17.7432C9.78734 17.4172 10.3574 17.4325 10.7284 17.7772C11.1068 18.1287 11.4978 18.4899 11.9003 18.8618L12.0002 18.9638L12.1002 18.8618C16.3541 14.9315 19.3137 12.1915 19.8932 9.54841C19.9534 9.27417 20.0969 9.02136 20.3251 8.85787L21.3853 8.09852C21.6363 7.91869 21.9857 8.06748 21.9964 8.37613C22.1264 12.3338 18.6977 15.506 13.4497 20.3612L13.3397 20.4632C12.58 21.1772 11.4105 21.1772 10.6508 20.4734Z" fill="black"/>
<path d="M4.34322 4.01048C6.59931 2.43214 9.30836 2.8368 11.1463 4.30035C11.6333 4.68819 12.3673 4.68816 12.8546 4.30067C14.1684 3.25601 15.9273 2.75457 17.6476 3.12685C18.3296 3.27443 18.4494 4.11366 17.9327 4.58254L17.7128 4.78207C17.4709 5.00165 17.1374 5.08007 16.8117 5.0534C16.7088 5.04498 16.6044 5.04069 16.4985 5.04069C15.2815 5.04069 14.0894 5.67189 13.3867 6.62679C13.0525 7.08087 12.5659 7.44791 12.0021 7.44791C11.4414 7.44791 10.9567 7.085 10.624 6.63373C9.91693 5.67495 8.72202 5.04069 7.502 5.04069C5.50277 5.04069 4.00335 6.5707 4.00335 8.61072C4.00335 9.99811 4.69863 11.3765 5.93078 12.9053C6.30558 13.3703 6.22626 14.0641 5.73891 14.4094C5.32103 14.7055 4.74065 14.6421 4.41794 14.2445C2.81808 12.273 1.93168 10.4349 2.00412 8.38632C2.06409 6.6421 2.94376 4.98969 4.34322 4.01048Z" fill="black"/>
<path d="M21.8551 3.05731C22.2824 2.70742 22.9125 2.77017 23.2624 3.19748C23.6123 3.62479 23.5495 4.25484 23.1222 4.60473L4.6864 19.7006C4.25909 20.0505 3.62905 19.9878 3.27915 19.5605C2.92926 19.1332 2.99201 18.5031 3.41932 18.1532L21.8551 3.05731Z" fill="black"/>
</svg>
