<svg width="24" height="25" viewBox="0 0 24 25" fill="none" xmlns="http://www.w3.org/2000/svg">
<path fill-rule="evenodd" clip-rule="evenodd" d="M12.0048 2.09821C14.3191 2.09821 16.024 2.9636 17.126 4.3513C18.1997 5.70319 18.6196 7.44583 18.6196 9.09821C18.6196 11.0193 18.8662 11.9806 19.1626 12.6092C19.3132 12.9287 19.4923 13.1957 19.7135 13.4916C19.7733 13.5716 19.841 13.6596 19.9135 13.754C20.0909 13.9847 20.2975 14.2534 20.4894 14.5352C21.2715 15.6834 21.0614 16.884 20.4894 17.7237C19.9713 18.4843 19.0537 19.0982 18.1303 19.0982H15.3924C15.3217 19.4455 15.206 19.8387 15.018 20.2241C14.7968 20.6776 14.4591 21.1539 13.9452 21.5167C13.4214 21.8865 12.7708 22.0982 12 22.0982C11.2292 22.0982 10.5785 21.8865 10.0548 21.5167C9.54091 21.1539 9.20319 20.6776 8.98203 20.224C8.79414 19.8387 8.67845 19.4455 8.60773 19.0982H5.86958C4.94619 19.0982 4.02861 18.4843 3.51046 17.7237C2.93849 16.8841 2.72831 15.6834 3.51038 14.5352C3.70239 14.2534 3.90887 13.9848 4.08622 13.7541C4.15872 13.6598 4.22652 13.5716 4.28629 13.4916C4.50752 13.1957 4.68662 12.9287 4.83728 12.6092C5.1337 11.9806 5.38034 11.0192 5.38034 9.09821C5.38034 7.44452 5.80331 5.70178 6.87957 4.35026C7.98396 2.96342 9.69075 2.09821 12.0048 2.09821ZM10.6762 19.0982C10.7057 19.1821 10.74 19.2659 10.7797 19.3474C10.8938 19.5814 11.0362 19.7613 11.2083 19.8829C11.3706 19.9974 11.6119 20.0982 12 20.0982C12.3881 20.0982 12.6294 19.9974 12.7917 19.8829C12.9639 19.7613 13.1063 19.5813 13.2204 19.3473C13.2602 19.2659 13.2944 19.1821 13.3239 19.0982H10.6762ZM5.86958 17.0982H18.1303C18.1555 17.0982 18.2651 17.0826 18.4272 16.9846C18.5811 16.8916 18.7292 16.7552 18.8365 16.5977C18.9425 16.4421 18.9931 16.2901 18.9993 16.1544C19.0049 16.0297 18.9763 15.8665 18.8365 15.6612C18.6772 15.4274 18.5306 15.2369 18.3704 15.0288C18.2888 14.9228 18.2037 14.8123 18.1117 14.6892C17.854 14.3444 17.5861 13.9552 17.3536 13.4622C16.8837 12.4658 16.6196 11.1772 16.6196 9.09821C16.6196 7.75058 16.2731 6.49322 15.5599 5.59511C14.8751 4.73281 13.7726 4.09821 12.0048 4.09821C10.2369 4.09821 9.13146 4.733 8.4441 5.59615C7.72861 6.49463 7.38034 7.75189 7.38034 9.09821C7.38034 11.1772 7.11611 12.4658 6.64623 13.4622C6.41373 13.9553 6.14583 14.3445 5.88812 14.6892C5.7961 14.8123 5.71105 14.9227 5.62952 15.0287C5.46927 15.2368 5.32262 15.4273 5.16335 15.6612C5.0235 15.8665 4.99493 16.0297 5.0006 16.1544C5.00676 16.29 5.05737 16.4421 5.16339 16.5977C5.27069 16.7552 5.4188 16.8916 5.57269 16.9846C5.73485 17.0826 5.8444 17.0982 5.86958 17.0982Z" fill="#212121"/>
</svg>
