<svg width="24" height="24" viewBox="0 0 24 24" fill="none" xmlns="http://www.w3.org/2000/svg">
<path fill-rule="evenodd" clip-rule="evenodd" d="M12.0048 2C14.3191 2 16.024 2.8654 17.126 4.2531C18.1997 5.60499 18.6196 7.34762 18.6196 9C18.6196 10.921 18.8662 11.8824 19.1626 12.511C19.3132 12.8305 19.4923 13.0975 19.7135 13.3934C19.7733 13.4734 19.841 13.5614 19.9135 13.6558C20.0909 13.8865 20.2975 14.1552 20.4894 14.437C21.2715 15.5851 21.0614 16.7858 20.4894 17.6255C19.9713 18.3861 19.0537 19 18.1303 19H15.3924C15.3217 19.3473 15.206 19.7405 15.018 20.1259C14.7968 20.5794 14.4591 21.0557 13.9452 21.4185C13.4214 21.7883 12.7708 22 12 22C11.2292 22 10.5785 21.7883 10.0548 21.4185C9.54091 21.0557 9.20319 20.5793 8.98203 20.1258C8.79414 19.7405 8.67845 19.3473 8.60773 19H5.86958C4.94619 19 4.02861 18.3861 3.51046 17.6255C2.93849 16.7859 2.72831 15.5852 3.51038 14.437C3.70239 14.1552 3.90887 13.8866 4.08622 13.6559C4.15872 13.5616 4.22652 13.4734 4.28629 13.3934C4.50752 13.0975 4.68662 12.8304 4.83728 12.511C5.1337 11.8824 5.38034 10.921 5.38034 9C5.38034 7.34632 5.80331 5.60357 6.87957 4.25206C7.98396 2.86521 9.69075 2 12.0048 2ZM10.6762 19C10.7057 19.0839 10.74 19.1677 10.7797 19.2492C10.8938 19.4832 11.0362 19.6631 11.2083 19.7847C11.3706 19.8992 11.6119 20 12 20C12.3881 20 12.6294 19.8992 12.7917 19.7846C12.9639 19.6631 13.1063 19.4831 13.2204 19.2491C13.2602 19.1677 13.2944 19.0839 13.3239 19H10.6762ZM5.86958 17H18.1303C18.1555 17 18.2651 16.9844 18.4272 16.8864C18.5811 16.7934 18.7292 16.657 18.8365 16.4995C18.9425 16.3439 18.9931 16.1918 18.9993 16.0562C19.0049 15.9315 18.9763 15.7683 18.8365 15.563C18.6772 15.3292 18.5306 15.1387 18.3704 14.9306C18.2888 14.8246 18.2037 14.7141 18.1117 14.591C17.854 14.2462 17.5861 13.857 17.3536 13.364C16.8837 12.3676 16.6196 11.079 16.6196 9C16.6196 7.65238 16.2731 6.39501 15.5599 5.4969C14.8751 4.6346 13.7726 4 12.0048 4C10.2369 4 9.13146 4.63479 8.4441 5.49794C7.72861 6.39643 7.38034 7.65368 7.38034 9C7.38034 11.079 7.11611 12.3676 6.64623 13.364C6.41373 13.8571 6.14583 14.2463 5.88812 14.591C5.7961 14.7141 5.71105 14.8245 5.62952 14.9304C5.46927 15.1386 5.32262 15.3291 5.16335 15.563C5.0235 15.7683 4.99493 15.9314 5.0006 16.0562C5.00676 16.1918 5.05737 16.3439 5.16339 16.4995C5.27069 16.657 5.4188 16.7934 5.57269 16.8864C5.73485 16.9844 5.8444 17 5.86958 17Z" fill="#212121"/>
</svg>
