<svg width="24" height="24" viewBox="0 0 24 24" fill="none" xmlns="http://www.w3.org/2000/svg">
<path fill-rule="evenodd" clip-rule="evenodd" d="M12 3C11.9593 2.00083 11.9589 2.00084 11.9589 2.00084L11.9576 2.0009L11.9553 2.001L11.9489 2.00129L11.9289 2.00227C11.9124 2.00313 11.8898 2.00441 11.8616 2.00623C11.8053 2.00987 11.7264 2.0157 11.6296 2.02476C11.4368 2.04279 11.1689 2.07397 10.8646 2.12707C10.2827 2.22862 9.45926 2.42783 8.78664 2.84109C5.82478 4.66084 5.82693 7.9469 5.82775 9.19131C5.82776 9.21141 5.82778 9.23098 5.82778 9.25C5.82778 11.5548 5.47394 12.4536 5.15217 12.9177C4.9852 13.1586 4.79165 13.3361 4.51648 13.5677C4.48986 13.5901 4.4621 13.6133 4.43334 13.6373C4.1792 13.8496 3.84754 14.1266 3.54274 14.4965C2.69554 15.5246 2.80728 16.6928 3.24786 17.5236C3.46197 17.9274 3.76111 18.2747 4.0936 18.5293C4.40706 18.7693 4.8485 19 5.34889 19H11.9999C12.5522 19 13 18.5523 13 18C13 17.4477 12.5523 17 12 17H5.40108C5.38433 16.9919 5.35326 16.9748 5.30944 16.9413C5.20575 16.8619 5.09441 16.7368 5.01479 16.5866C4.93638 16.4388 4.9046 16.2978 4.91022 16.177C4.91528 16.0682 4.95164 15.9317 5.08618 15.7684C5.26703 15.549 5.45814 15.3885 5.7264 15.1633C5.75167 15.1421 5.77763 15.1203 5.80432 15.0979C6.10112 14.8481 6.46875 14.529 6.79582 14.0572C7.46212 13.0961 7.82778 11.7055 7.82778 9.25C7.82778 7.94656 7.87328 5.74957 9.83361 4.54516C10.1783 4.33341 10.6997 4.18606 11.2084 4.0973C11.4494 4.05525 11.6633 4.03034 11.8159 4.01607C11.8918 4.00897 11.9515 4.0046 11.9906 4.00207C12.0101 4.00081 12.0244 4.00001 12.033 3.99956L12.0407 3.99917L12.0421 3.99911C12.5932 3.9759 13.0216 3.51066 12.9991 2.95931C12.9767 2.40748 12.5107 1.97837 11.9589 2.00084L12 3Z" fill="#212121"/>
<path fill-rule="evenodd" clip-rule="evenodd" d="M12.0047 3C12.0454 2.00083 12.0457 2.00084 12.0457 2.00084L12.047 2.0009L12.0493 2.001L12.0558 2.00129L12.0758 2.00227C12.0922 2.00313 12.1148 2.00441 12.143 2.00623C12.1993 2.00987 12.2782 2.0157 12.375 2.02476C12.5678 2.04279 12.8357 2.07397 13.14 2.12707C13.722 2.22862 14.5454 2.42783 15.218 2.84109C18.1799 4.66084 18.1777 7.9469 18.1769 9.19131C18.1769 9.21141 18.1769 9.23098 18.1769 9.25C18.1769 11.5548 18.5307 12.4536 18.8525 12.9177C19.0194 13.1586 19.213 13.3361 19.4882 13.5677C19.5148 13.5901 19.5425 13.6133 19.5713 13.6373C19.8254 13.8496 20.1571 14.1266 20.4619 14.4965C21.3091 15.5246 21.1974 16.6928 20.7568 17.5236C20.5427 17.9274 20.2435 18.2747 19.911 18.5293C19.5976 18.7693 19.1561 19 18.6558 19H12.0047C11.4525 19 11.0047 18.5523 11.0047 18C11.0047 17.4477 11.4524 17 12.0047 17H18.6036C18.6203 16.9919 18.6514 16.9748 18.6952 16.9413C18.7989 16.8619 18.9102 16.7368 18.9899 16.5866C19.0683 16.4388 19.1 16.2978 19.0944 16.177C19.0894 16.0682 19.053 15.9317 18.9185 15.7684C18.7376 15.549 18.5465 15.3885 18.2782 15.1633C18.253 15.1421 18.227 15.1203 18.2003 15.0979C17.9035 14.8481 17.5359 14.529 17.2088 14.0572C16.5425 13.0961 16.1769 11.7055 16.1769 9.25C16.1769 7.94656 16.1314 5.74957 14.171 4.54516C13.8264 4.33341 13.3049 4.18606 12.7962 4.0973C12.5552 4.05525 12.3414 4.03034 12.1888 4.01607C12.1129 4.00897 12.0532 4.0046 12.0141 4.00207C11.9945 4.00081 11.9802 4.00001 11.9717 3.99956L11.964 3.99917L11.9626 3.99911C11.4114 3.9759 10.983 3.51066 11.0055 2.95931C11.028 2.40748 11.4939 1.97837 12.0457 2.00084L12.0047 3Z" fill="#212121"/>
<path fill-rule="evenodd" clip-rule="evenodd" d="M8.9897 20.2046C8.56133 19.2866 8.50001 18.3269 8.50001 18H10.5C10.5 18.1731 10.5448 18.8076 10.8021 19.3589C10.9256 19.6236 11.0784 19.8265 11.2577 19.9611C11.4237 20.0859 11.659 20.1885 12.0301 20.1885C12.4012 20.1885 12.6296 20.0861 12.7869 19.9659C12.9578 19.8354 13.1037 19.6372 13.221 19.3743C13.4652 18.8271 13.5 18.1934 13.5 18H15.5C15.5 18.3066 15.4588 19.2672 15.0475 20.1892C14.837 20.6609 14.5104 21.1661 14.0009 21.5553C13.4778 21.9549 12.818 22.1885 12.0301 22.1885C11.2424 22.1885 10.582 21.9551 10.0563 21.5601C9.54382 21.175 9.20897 20.6745 8.9897 20.2046Z" fill="#212121"/>
</svg>
