<svg width="24" height="24" viewBox="0 0 24 24" fill="none" xmlns="http://www.w3.org/2000/svg">
<path d="M2 5C1.44772 5 1 5.44772 1 6C1 10.002 5.99673 13 12 13C18.0033 13 23 10.002 23 6C23 5.44772 22.5523 5 22 5C21.4477 5 21 5.44772 21 6C21 8.62545 17.0424 11 12 11C6.95758 11 3 8.62545 3 6C3 5.44772 2.55228 5 2 5Z" fill="#212121"/>
<path d="M3.20711 11.7929C2.81658 11.4024 2.18342 11.4024 1.79289 11.7929L0.792893 12.7929C0.402369 13.1834 0.402369 13.8166 0.792893 14.2071C1.18342 14.5976 1.81658 14.5976 2.20711 14.2071L3.20711 13.2071C3.59763 12.8166 3.59763 12.1834 3.20711 11.7929Z" fill="#212121"/>
<path d="M20.7929 11.7929C20.4024 12.1834 20.4024 12.8166 20.7929 13.2071L21.7929 14.2071C22.1834 14.5976 22.8166 14.5976 23.2071 14.2071C23.5976 13.8166 23.5976 13.1834 23.2071 12.7929L22.2071 11.7929C21.8166 11.4024 21.1834 11.4024 20.7929 11.7929Z" fill="#212121"/>
<path d="M6.10557 14.0528C6.35256 13.5588 6.95324 13.3586 7.44721 13.6056C7.94119 13.8526 8.14142 14.4532 7.89443 14.9472L6.89443 16.9472C6.64744 17.4412 6.04677 17.6414 5.55279 17.3944C5.05881 17.1474 4.85858 16.5468 5.10557 16.0528L6.10557 14.0528Z" fill="#212121"/>
<path d="M16.5528 13.6056C16.0588 13.8526 15.8586 14.4532 16.1056 14.9472L17.1056 16.9472C17.3526 17.4412 17.9532 17.6414 18.4472 17.3944C18.9412 17.1474 19.1414 16.5468 18.8944 16.0528L17.8944 14.0528C17.6474 13.5588 17.0468 13.3586 16.5528 13.6056Z" fill="#212121"/>
<path d="M11.0001 15.0121C10.9934 14.4599 11.4357 14.0068 11.9879 14.0001C12.5401 13.9934 12.9932 14.4357 12.9999 14.9879L13.0362 17.9879C13.0429 18.5401 12.6006 18.9932 12.0484 18.9999C11.4961 19.0066 11.043 18.5643 11.0364 18.0121L11.0001 15.0121Z" fill="#212121"/>
</svg>
