<svg width="24" height="24" viewBox="0 0 24 24" fill="none" xmlns="http://www.w3.org/2000/svg">
<path fill-rule="evenodd" clip-rule="evenodd" d="M12 16C9.79086 16 8 14.2091 8 12C8 9.79086 9.79086 8 12 8C14.2091 8 16 9.79086 16 12C16 14.2091 14.2091 16 12 16ZM14 12C14 13.1046 13.1046 14 12 14C10.8954 14 10 13.1046 10 12C10 10.8954 10.8954 10 12 10C13.1046 10 14 10.8954 14 12Z" fill="#212121"/>
<path fill-rule="evenodd" clip-rule="evenodd" d="M1 12C1 16.2124 6.1559 21 12 21C17.8441 21 23 16.2124 23 12C23 7.78762 17.8441 3 12 3C6.1559 3 1 7.78762 1 12ZM21 12C21 15.0733 16.7713 19 12 19C7.22872 19 3 15.0733 3 12C3 8.92666 7.22872 5 12 5C16.7713 5 21 8.92666 21 12Z" fill="#212121"/>
</svg>
