<svg width="24" height="24" viewBox="0 0 24 24" fill="none" xmlns="http://www.w3.org/2000/svg">
<path fill-rule="evenodd" clip-rule="evenodd" d="M11.9999 14C12.5522 14 12.9999 14.4477 12.9999 15V17C12.9999 17.5523 12.5522 18 11.9999 18C11.4477 18 10.9999 17.5523 10.9999 17V15C10.9999 14.4477 11.4477 14 11.9999 14Z" fill="#212121"/>
<path fill-rule="evenodd" clip-rule="evenodd" d="M16.6725 13.2846C17.2034 13.1322 17.7573 13.439 17.9097 13.9698L18.4618 15.8924C18.6142 16.4233 18.3074 16.9772 17.7766 17.1296C17.2458 17.282 16.6919 16.9752 16.5394 16.4444L15.9874 14.5218C15.8349 13.991 16.1417 13.4371 16.6725 13.2846Z" fill="#212121"/>
<path fill-rule="evenodd" clip-rule="evenodd" d="M20.9691 11.2857C21.4424 11.0011 22.0568 11.1541 22.3414 11.6273L23.3723 13.3416C23.6569 13.8149 23.504 14.4293 23.0307 14.7139C22.5574 14.9985 21.943 14.8456 21.6583 14.3723L20.6275 12.6581C20.3428 12.1848 20.4958 11.5703 20.9691 11.2857Z" fill="#212121"/>
<path fill-rule="evenodd" clip-rule="evenodd" d="M7.2601 13.2838C7.79603 13.4172 8.12233 13.9598 7.98892 14.4958L7.50571 16.4368C7.3723 16.9728 6.8297 17.2991 6.29377 17.1657C5.75784 17.0323 5.43153 16.4896 5.56495 15.9537L6.04815 14.0126C6.18156 13.4767 6.72417 13.1504 7.2601 13.2838Z" fill="#212121"/>
<path fill-rule="evenodd" clip-rule="evenodd" d="M2.96881 11.2501C3.45195 11.5177 3.6267 12.1262 3.35912 12.6094L2.39 14.3592C2.12242 14.8424 1.51385 15.0171 1.03071 14.7496C0.547573 14.482 0.372825 13.8734 0.640399 13.3903L1.60953 11.6404C1.8771 11.1573 2.48567 10.9825 2.96881 11.2501Z" fill="#212121"/>
<path fill-rule="evenodd" clip-rule="evenodd" d="M1.99988 5C2.55217 5 2.99988 5.44772 2.99988 6C2.99988 5.9963 3.00002 5.9944 3.00002 5.9944C3.00002 5.9944 3.00979 6.07297 3.08246 6.24408C3.15914 6.42464 3.2853 6.65706 3.46986 6.92623C3.8384 7.46373 4.40712 8.10011 5.17512 8.70907C6.70468 9.92189 8.99024 11 11.9999 11C15.0095 11 17.2951 9.92189 18.8246 8.70907C19.5926 8.10011 20.1614 7.46373 20.5299 6.92623C20.7145 6.65706 20.8406 6.42464 20.9173 6.24408C20.99 6.07297 20.9997 5.9944 20.9997 5.9944C20.9997 5.9944 20.9999 5.9963 20.9999 6C20.9999 5.44772 21.4476 5 21.9999 5C22.5522 5 22.9999 5.44772 22.9999 6C22.9999 6.35616 22.8899 6.71563 22.7582 7.0259C22.6192 7.35308 22.4228 7.70231 22.1794 8.05721C21.6921 8.76787 20.9839 9.54939 20.0673 10.2762C18.2275 11.735 15.5131 13 11.9999 13C8.48668 13 5.77223 11.735 3.93251 10.2762C3.01587 9.54939 2.30762 8.76787 1.82035 8.05721C1.57701 7.70231 1.38055 7.35308 1.2416 7.0259C1.10983 6.71563 0.999882 6.35616 0.999882 6C0.999882 5.44772 1.4476 5 1.99988 5Z" fill="#212121"/>
</svg>
