<svg width="24" height="24" viewBox="0 0 24 24" fill="none" xmlns="http://www.w3.org/2000/svg">
<path fill-rule="evenodd" clip-rule="evenodd" d="M4.06955 7.39221C5.92611 5.66826 8.65782 4 12 4C15.3422 4 18.0739 5.66826 19.9305 7.39221C20.8642 8.25923 21.6022 9.16306 22.1133 9.92967C22.3684 10.3123 22.5753 10.6733 22.7228 10.9896C22.8483 11.259 23 11.6366 23 12C23 12.3634 22.8483 12.741 22.7228 13.0104C22.5753 13.3267 22.3684 13.6877 22.1133 14.0703C21.6022 14.8369 20.8642 15.7408 19.9305 16.6078C18.0739 18.3317 15.3422 20 12 20C8.65782 20 5.92611 18.3317 4.06955 16.6078C3.13583 15.7408 2.39778 14.8369 1.8867 14.0703C1.63165 13.6877 1.4247 13.3267 1.27724 13.0104C1.15167 12.741 1 12.3634 1 12C1 11.6366 1.15167 11.259 1.27724 10.9896C1.4247 10.6733 1.63165 10.3123 1.8867 9.92967C2.39778 9.16306 3.13583 8.25923 4.06955 7.39221ZM3.01987 12C3.0337 12.0373 3.05562 12.0917 3.08995 12.1654C3.18467 12.3686 3.3371 12.6404 3.5508 12.9609C3.97722 13.6006 4.61417 14.3842 5.43045 15.1422C7.07389 16.6683 9.34218 18 12 18C14.6578 18 16.9261 16.6683 18.5695 15.1422C19.3858 14.3842 20.0228 13.6006 20.4492 12.9609C20.6629 12.6404 20.8153 12.3686 20.91 12.1654C20.9444 12.0917 20.9663 12.0373 20.9801 12C20.9663 11.9627 20.9444 11.9083 20.91 11.8346C20.8153 11.6314 20.6629 11.3596 20.4492 11.0391C20.0228 10.3994 19.3858 9.61577 18.5695 8.85779C16.9261 7.33174 14.6578 6 12 6C9.34218 6 7.07389 7.33174 5.43045 8.85779C4.61417 9.61577 3.97722 10.3994 3.5508 11.0391C3.3371 11.3596 3.18467 11.6314 3.08995 11.8346C3.05562 11.9083 3.0337 11.9627 3.01987 12Z" fill="#212121"/>
<path fill-rule="evenodd" clip-rule="evenodd" d="M8 12C8 9.79086 9.79086 8 12 8C14.2091 8 16 9.79086 16 12C16 14.2091 14.2091 16 12 16C9.79086 16 8 14.2091 8 12ZM12 10C10.8954 10 10 10.8954 10 12C10 13.1046 10.8954 14 12 14C13.1046 14 14 13.1046 14 12C14 10.8954 13.1046 10 12 10Z" fill="#212121"/>
</svg>
