<svg width="24" height="24" viewBox="0 0 24 24" fill="none" xmlns="http://www.w3.org/2000/svg">
<path fill-rule="evenodd" clip-rule="evenodd" d="M6 2H13.1716C13.9672 2 14.7303 2.31607 15.2929 2.87868L20.1213 7.70711C20.6839 8.26972 21 9.03278 21 9.82843V19C21 20.6569 19.6569 22 18 22H6C4.34315 22 3 20.6569 3 19V5C3 3.34315 4.34315 2 6 2ZM6 4C5.44772 4 5 4.44772 5 5V19C5 19.5523 5.44772 20 6 20H18C18.5523 20 19 19.5523 19 19V12H14C12.3431 12 11 10.6569 11 9V4H6ZM13 4V9C13 9.55228 13.4477 10 14 10H19V9.82843C19 9.56321 18.8946 9.30886 18.7071 9.12132L13.8787 4.29289C13.6911 4.10536 13.4368 4 13.1716 4H13Z" fill="#212121"/>
</svg>
