<svg width="24" height="24" viewBox="0 0 24 24" fill="none" xmlns="http://www.w3.org/2000/svg">
<path fill-rule="evenodd" clip-rule="evenodd" d="M19.258 2.48758C18.4769 1.70653 17.2106 1.70653 16.4295 2.48758L2.58579 16.3313C2.21071 16.7064 2 17.2151 2 17.7455V21.4876C2 22.0399 2.44772 22.4876 3 22.4876H6.74204C7.27247 22.4876 7.78118 22.2769 8.15625 21.9018L22 8.05804C22.781 7.277 22.781 6.01066 22 5.22962L19.258 2.48758ZM16.1057 5.63986L17.8438 3.90179L20.5858 6.64383L18.8477 8.3819L16.1057 5.63986ZM14.6915 7.05408L4 17.7455V20.4876H6.74204L17.4335 9.79611L14.6915 7.05408Z" fill="#212121"/>
</svg>
