<svg width="24" height="25" viewBox="0 0 24 25" fill="none" xmlns="http://www.w3.org/2000/svg">
<path fill-rule="evenodd" clip-rule="evenodd" d="M19.258 2.58579C18.4769 1.80474 17.2106 1.80474 16.4295 2.58579L2.58579 16.4295C2.21071 16.8046 2 17.3133 2 17.8438V21.5858C2 22.1381 2.44772 22.5858 3 22.5858H6.74204C7.27247 22.5858 7.78118 22.3751 8.15625 22L22 8.15625C22.781 7.3752 22.781 6.10887 22 5.32782L19.258 2.58579ZM16.1057 5.73807L17.8438 4L20.5858 6.74204L18.8477 8.4801L16.1057 5.73807ZM14.6915 7.15228L4 17.8438V20.5858H6.74204L17.4335 9.89432L14.6915 7.15228Z" fill="#212121"/>
</svg>
