<svg width="24" height="25" viewBox="0 0 24 25" fill="none" xmlns="http://www.w3.org/2000/svg">
<path fill-rule="evenodd" clip-rule="evenodd" d="M20.7071 3.3911C21.0976 3.78162 21.0976 4.41479 20.7071 4.80531L4.70711 20.8053C4.31658 21.1958 3.68342 21.1958 3.29289 20.8053C2.90237 20.4148 2.90237 19.7816 3.29289 19.3911L19.2929 3.3911C19.6834 3.00057 20.3166 3.00057 20.7071 3.3911Z" fill="#212121"/>
<path fill-rule="evenodd" clip-rule="evenodd" d="M13 17.0982C13 14.8891 14.7909 13.0982 17 13.0982C19.2091 13.0982 21 14.8891 21 17.0982C21 19.3073 19.2091 21.0982 17 21.0982C14.7909 21.0982 13 19.3073 13 17.0982ZM17 15.0982C15.8954 15.0982 15 15.9936 15 17.0982C15 18.2028 15.8954 19.0982 17 19.0982C18.1046 19.0982 19 18.2028 19 17.0982C19 15.9936 18.1046 15.0982 17 15.0982Z" fill="#212121"/>
<path fill-rule="evenodd" clip-rule="evenodd" d="M3 7.09821C3 4.88907 4.79086 3.09821 7 3.09821C9.20914 3.09821 11 4.88907 11 7.09821C11 9.30734 9.20914 11.0982 7 11.0982C4.79086 11.0982 3 9.30734 3 7.09821ZM7 5.09821C5.89543 5.09821 5 5.99364 5 7.09821C5 8.20278 5.89543 9.09821 7 9.09821C8.10457 9.09821 9 8.20278 9 7.09821C9 5.99364 8.10457 5.09821 7 5.09821Z" fill="#212121"/>
</svg>
