<svg width="24" height="24" viewBox="0 0 24 24" fill="none" xmlns="http://www.w3.org/2000/svg">
<path fill-rule="evenodd" clip-rule="evenodd" d="M20.7071 3.29289C21.0976 3.68342 21.0976 4.31658 20.7071 4.70711L4.70711 20.7071C4.31658 21.0976 3.68342 21.0976 3.29289 20.7071C2.90237 20.3166 2.90237 19.6834 3.29289 19.2929L19.2929 3.29289C19.6834 2.90237 20.3166 2.90237 20.7071 3.29289Z" fill="#212121"/>
<path fill-rule="evenodd" clip-rule="evenodd" d="M13 17C13 14.7909 14.7909 13 17 13C19.2091 13 21 14.7909 21 17C21 19.2091 19.2091 21 17 21C14.7909 21 13 19.2091 13 17ZM17 15C15.8954 15 15 15.8954 15 17C15 18.1046 15.8954 19 17 19C18.1046 19 19 18.1046 19 17C19 15.8954 18.1046 15 17 15Z" fill="#212121"/>
<path fill-rule="evenodd" clip-rule="evenodd" d="M3 7C3 4.79086 4.79086 3 7 3C9.20914 3 11 4.79086 11 7C11 9.20914 9.20914 11 7 11C4.79086 11 3 9.20914 3 7ZM7 5C5.89543 5 5 5.89543 5 7C5 8.10457 5.89543 9 7 9C8.10457 9 9 8.10457 9 7C9 5.89543 8.10457 5 7 5Z" fill="#212121"/>
</svg>
