<svg width="24" height="25" viewBox="0 0 24 25" fill="none" xmlns="http://www.w3.org/2000/svg">
<path fill-rule="evenodd" clip-rule="evenodd" d="M1 6.09821C1 3.33678 3.23858 1.09821 6 1.09821C8.76142 1.09821 11 3.33678 11 6.09821C11 8.85963 8.76142 11.0982 6 11.0982C3.23858 11.0982 1 8.85963 1 6.09821ZM6 3.09821C4.34315 3.09821 3 4.44135 3 6.09821C3 7.75506 4.34315 9.09821 6 9.09821C7.65685 9.09821 9 7.75506 9 6.09821C9 4.44135 7.65685 3.09821 6 3.09821Z" fill="#212121"/>
<path fill-rule="evenodd" clip-rule="evenodd" d="M13 18.0982C13 15.3368 15.2386 13.0982 18 13.0982C20.7614 13.0982 23 15.3368 23 18.0982C23 20.8596 20.7614 23.0982 18 23.0982C15.2386 23.0982 13 20.8596 13 18.0982ZM18 15.0982C16.3431 15.0982 15 16.4414 15 18.0982C15 19.7551 16.3431 21.0982 18 21.0982C19.6569 21.0982 21 19.7551 21 18.0982C21 16.4414 19.6569 15.0982 18 15.0982Z" fill="#212121"/>
<path d="M19.8131 5.91135C20.2623 5.46225 20.2623 4.73411 19.8131 4.28501C19.364 3.83591 18.6359 3.83591 18.1868 4.28501L4.1868 18.285C3.7377 18.7341 3.7377 19.4622 4.1868 19.9114C4.63591 20.3605 5.36405 20.3605 5.81315 19.9114L19.8131 5.91135Z" fill="#212121"/>
</svg>
