<svg width="24" height="24" viewBox="0 0 24 24" fill="none" xmlns="http://www.w3.org/2000/svg">
<path fill-rule="evenodd" clip-rule="evenodd" d="M1 6C1 3.23858 3.23858 1 6 1C8.76142 1 11 3.23858 11 6C11 8.76142 8.76142 11 6 11C3.23858 11 1 8.76142 1 6ZM6 3C4.34315 3 3 4.34315 3 6C3 7.65685 4.34315 9 6 9C7.65685 9 9 7.65685 9 6C9 4.34315 7.65685 3 6 3Z" fill="#212121"/>
<path fill-rule="evenodd" clip-rule="evenodd" d="M13 18C13 15.2386 15.2386 13 18 13C20.7614 13 23 15.2386 23 18C23 20.7614 20.7614 23 18 23C15.2386 23 13 20.7614 13 18ZM18 15C16.3431 15 15 16.3431 15 18C15 19.6569 16.3431 21 18 21C19.6569 21 21 19.6569 21 18C21 16.3431 19.6569 15 18 15Z" fill="#212121"/>
<path d="M19.8131 5.81315C20.2623 5.36405 20.2623 4.63591 19.8131 4.1868C19.364 3.7377 18.6359 3.7377 18.1868 4.1868L4.1868 18.1868C3.7377 18.6359 3.7377 19.364 4.1868 19.8131C4.63591 20.2623 5.36405 20.2623 5.81315 19.8131L19.8131 5.81315Z" fill="#212121"/>
</svg>
