<svg width="24" height="24" viewBox="0 0 24 24" fill="none" xmlns="http://www.w3.org/2000/svg">
<path fill-rule="evenodd" clip-rule="evenodd" d="M11.8792 1C8.72393 1 6.35747 3.88662 6.97626 6.98058L7.43102 9.25437C7.8666 11.4323 9.77889 13 11.9999 13C14.221 13 16.1333 11.4323 16.5689 9.25437L17.0236 6.98058C17.6424 3.88662 15.276 1 12.1207 1H11.8792ZM8.93742 6.58835C8.56614 4.73197 9.98602 3 11.8792 3H12.1207C14.0139 3 15.4337 4.73197 15.0625 6.58835L14.6077 8.86214C14.3591 10.1052 13.2676 11 11.9999 11C10.7323 11 9.64079 10.1052 9.39218 8.86214L8.93742 6.58835Z" fill="#212121"/>
<path d="M7.21367 14.9769C7.7532 14.8589 8.09489 14.3258 7.97687 13.7863C7.85885 13.2468 7.3258 12.9051 6.78628 13.0231C4.56342 13.5093 3.32376 14.5191 2.6627 15.5313C2.34058 16.0246 2.17506 16.4896 2.09022 16.8422C2.04781 17.0185 2.02531 17.1676 2.01339 17.2798C2.00742 17.3359 2.00407 17.3831 2.00221 17.4201C2.00128 17.4387 2.00072 17.4547 2.00039 17.468C1.99097 17.9784 1.99997 18.4895 1.99997 19C1.99997 20.6569 3.34312 22 4.99997 22H19C20.6568 22 22 20.6569 22 19C22 18.4895 22.0066 17.9785 21.9995 17.468C21.9992 17.4547 21.9987 17.4387 21.9977 17.4201C21.9959 17.3831 21.9925 17.3359 21.9866 17.2798C21.9746 17.1676 21.9521 17.0185 21.9097 16.8422C21.8249 16.4896 21.6594 16.0246 21.3372 15.5313C20.6762 14.5191 19.4365 13.5093 17.2137 13.0231C16.6741 12.9051 16.1411 13.2468 16.0231 13.7863C15.9051 14.3258 16.2467 14.8589 16.7863 14.9769C18.5634 15.3657 19.3238 16.1059 19.6627 16.6249C19.8406 16.8973 19.9251 17.1432 19.9652 17.3101C19.9853 17.3936 19.9941 17.4564 19.9978 17.4912C19.9988 17.5006 19.9994 17.5079 19.9998 17.5128L20 17.5159V19C20 19.5523 19.5523 20 19 20H4.99997C4.44769 20 3.99997 19.5523 3.99997 19V17.5158C4.0003 17.511 4.00096 17.5027 4.00218 17.4912C4.00588 17.4564 4.01464 17.3936 4.03473 17.3101C4.07488 17.1432 4.15937 16.8973 4.33724 16.6249C4.67618 16.1059 5.43652 15.3657 7.21367 14.9769Z" fill="#212121"/>
</svg>
