<svg width="24" height="25" viewBox="0 0 24 25" fill="none" xmlns="http://www.w3.org/2000/svg">
<path fill-rule="evenodd" clip-rule="evenodd" d="M12 1.09821C8.59877 1.09821 6.00003 4.10018 6.00003 7.59821C6.00003 11.0962 8.59877 14.0982 12 14.0982C15.4013 14.0982 18 11.0962 18 7.59821C18 4.10018 15.4013 1.09821 12 1.09821ZM8.00003 7.59821C8.00003 5.0211 9.87845 3.09821 12 3.09821C14.1216 3.09821 16 5.0211 16 7.59821C16 10.1753 14.1216 12.0982 12 12.0982C9.87845 12.0982 8.00003 10.1753 8.00003 7.59821Z" fill="#212121"/>
<path d="M6.93636 14.2471C7.13027 14.7642 6.86826 15.3406 6.35114 15.5345C4.5808 16.1984 3.78748 17.1484 3.40483 17.9615C3.00586 18.8093 3.00003 19.6158 3.00003 20.0982C3.00003 20.3622 3.00161 20.5437 3.02251 20.7004C3.04232 20.849 3.07188 20.9032 3.08208 20.9185C3.08247 20.9193 3.09858 20.9525 3.20623 20.9943C3.33329 21.0437 3.57442 21.0982 4.00003 21.0982H20C20.4256 21.0982 20.6668 21.0437 20.7938 20.9943C20.9015 20.9525 20.9176 20.9193 20.918 20.9185C20.9282 20.9032 20.9577 20.849 20.9776 20.7004C20.9985 20.5437 21 20.3622 21 20.0982C21 19.6158 20.9942 18.8093 20.5952 17.9615C20.2126 17.1484 19.4193 16.1984 17.6489 15.5345C17.1318 15.3406 16.8698 14.7642 17.0637 14.2471C17.2576 13.73 17.834 13.468 18.3512 13.6619C20.5809 14.498 21.7875 15.7981 22.4049 17.1099C23.0002 18.375 23.0001 19.5581 23 20.0833L23 20.0982L23.0003 20.1769C23.0022 20.6118 23.0057 21.3925 22.5821 22.0279C22.0571 22.8153 21.1321 23.0982 20 23.0982H4.00003C2.86797 23.0982 1.94292 22.8153 1.41798 22.0279C0.994396 21.3925 0.997862 20.6118 0.999793 20.1769L1.00003 20.0982L1.00003 20.0833C0.999976 19.5581 0.999851 18.375 1.59518 17.1099C2.21252 15.7981 3.41918 14.498 5.64891 13.6619C6.16603 13.468 6.74244 13.73 6.93636 14.2471Z" fill="#212121"/>
</svg>
