<svg width="24" height="24" viewBox="0 0 24 24" fill="none" xmlns="http://www.w3.org/2000/svg">
<path fill-rule="evenodd" clip-rule="evenodd" d="M12 1C8.59877 1 6.00003 4.00197 6.00003 7.5C6.00003 10.998 8.59877 14 12 14C15.4013 14 18 10.998 18 7.5C18 4.00197 15.4013 1 12 1ZM8.00003 7.5C8.00003 4.92289 9.87845 3 12 3C14.1216 3 16 4.92289 16 7.5C16 10.0771 14.1216 12 12 12C9.87845 12 8.00003 10.0771 8.00003 7.5Z" fill="#212121"/>
<path d="M6.93636 14.1489C7.13027 14.666 6.86826 15.2424 6.35114 15.4363C4.5808 16.1002 3.78748 17.0501 3.40483 17.8633C3.00586 18.7111 3.00003 19.5176 3.00003 20C3.00003 20.264 3.00161 20.4455 3.02251 20.6022C3.04232 20.7508 3.07188 20.805 3.08208 20.8203C3.08247 20.8211 3.09858 20.8543 3.20623 20.8961C3.33329 20.9455 3.57442 21 4.00003 21H20C20.4256 21 20.6668 20.9455 20.7938 20.8961C20.9015 20.8543 20.9176 20.8211 20.918 20.8203C20.9282 20.805 20.9577 20.7508 20.9776 20.6022C20.9985 20.4455 21 20.264 21 20C21 19.5176 20.9942 18.7111 20.5952 17.8633C20.2126 17.0501 19.4193 16.1002 17.6489 15.4363C17.1318 15.2424 16.8698 14.666 17.0637 14.1489C17.2576 13.6318 17.834 13.3698 18.3512 13.5637C20.5809 14.3998 21.7875 15.6999 22.4049 17.0117C23.0002 18.2768 23.0001 19.4599 23 19.9851L23 20L23.0003 20.0787C23.0022 20.5136 23.0057 21.2943 22.5821 21.9297C22.0571 22.7171 21.1321 23 20 23H4.00003C2.86797 23 1.94292 22.7171 1.41798 21.9297C0.994396 21.2943 0.997862 20.5136 0.999793 20.0787L1.00003 20L1.00003 19.9851C0.999976 19.4599 0.999851 18.2768 1.59518 17.0117C2.21252 15.6999 3.41918 14.3998 5.64891 13.5637C6.16603 13.3698 6.74244 13.6318 6.93636 14.1489Z" fill="#212121"/>
</svg>
