<svg width="24" height="24" viewBox="0 0 24 24" fill="none" xmlns="http://www.w3.org/2000/svg">
<path d="M6.93632 14.1489C7.13024 14.666 6.86823 15.2424 6.35111 15.4363C4.66072 16.0702 3.83864 17.2101 3.42161 18.2006C3.2098 18.7036 3.10334 19.169 3.05041 19.5065C3.02409 19.6743 3.01144 19.8077 3.0054 19.8946C3.00238 19.9379 3.00103 19.9695 3.00043 19.9876L3.00014 19.999L3.00045 20.0091C3.00111 20.0261 3.00262 20.0554 3.00598 20.0942C3.01281 20.1732 3.0267 20.2849 3.05411 20.4092C3.10882 20.6573 3.19643 20.8604 3.30235 20.9868C3.31394 20.9892 3.32943 20.9918 3.34933 20.9941C3.38202 20.9978 3.42202 21 3.47022 21H11.0006H12.9994H20.5298C20.578 21 20.618 20.9978 20.6507 20.9941C20.6706 20.9918 20.6861 20.9892 20.6977 20.9868C20.8036 20.8604 20.8912 20.6573 20.9459 20.4092C20.9733 20.2849 20.9872 20.1732 20.994 20.0942C20.9974 20.0554 20.9989 20.0261 20.9995 20.0091L20.9999 19.999L20.9996 19.9876C20.999 19.9695 20.9976 19.9379 20.9946 19.8946C20.9886 19.8077 20.9759 19.6743 20.9496 19.5065C20.8967 19.169 20.7902 18.7036 20.5784 18.2006C20.1614 17.2101 19.3393 16.0702 17.6489 15.4363C17.1318 15.2424 16.8698 14.666 17.0637 14.1489C17.2576 13.6318 17.834 13.3698 18.3511 13.5637C20.6608 14.4298 21.8387 16.0399 22.4217 17.4244C22.7098 18.1089 22.8534 18.7372 22.9254 19.1966C22.9616 19.4272 22.9802 19.6181 22.9898 19.7558C22.9946 19.8248 22.9971 19.8806 22.9985 19.9218C22.9992 19.9424 22.9995 19.9594 22.9998 19.9725L23 19.9892L23 19.9954L23 19.9979L23 19.999C23 19.999 23 20 22 20C23 20 23 20.0012 23 20.0012L23 20.0024L23 20.0053L22.9999 20.0122L22.9997 20.031C22.9994 20.0456 22.9989 20.0645 22.998 20.0871C22.9963 20.1323 22.9929 20.1932 22.9866 20.2665C22.974 20.4119 22.9491 20.6125 22.899 20.8399C22.8038 21.2712 22.5931 21.9144 22.0925 22.4236C21.5833 22.9415 20.9116 23 20.5298 23H13H11H3.47022C3.08843 23 2.41674 22.9415 1.90753 22.4236C1.40686 21.9144 1.19617 21.2712 1.10105 20.8399C1.05088 20.6125 1.02598 20.4119 1.01341 20.2665C1.00708 20.1932 1.00373 20.1323 1.00197 20.0871C1.00109 20.0645 1.0006 20.0456 1.00032 20.031L1.00006 20.0122L1.00001 20.0053L1 20.0024L1 20.0012C1 20.0012 1 20 2 20C1 20 1 19.999 1 19.999V19.9979L1.00001 19.9954L1.00005 19.9892L1.00025 19.9725C1.00046 19.9594 1.00084 19.9424 1.00152 19.9218C1.00287 19.8806 1.00542 19.8248 1.01022 19.7558C1.0198 19.6181 1.03839 19.4272 1.07457 19.1966C1.14662 18.7372 1.29015 18.1089 1.57833 17.4244C2.16128 16.0399 3.3392 14.4298 5.64887 13.5637C6.16599 13.3698 6.74241 13.6318 6.93632 14.1489Z" fill="#212121"/>
<path fill-rule="evenodd" clip-rule="evenodd" d="M12 3C9.87841 3 7.99999 4.92289 7.99999 7.5C7.99999 10.0771 9.87841 12 12 12C14.1216 12 16 10.0771 16 7.5C16 4.92289 14.1216 3 12 3ZM5.99999 7.5C5.99999 4.00197 8.59873 1 12 1C15.4013 1 18 4.00197 18 7.5C18 10.998 15.4013 14 12 14C8.59873 14 5.99999 10.998 5.99999 7.5Z" fill="#212121"/>
</svg>
