<svg width="24" height="25" viewBox="0 0 24 25" fill="none" xmlns="http://www.w3.org/2000/svg">
<path fill-rule="evenodd" clip-rule="evenodd" d="M7.72168 1.58201C7.19876 1.3082 6.59713 1.09821 6 1.09821C5.63939 1.09821 5.32057 1.23031 5.0963 1.3474C4.85494 1.47342 4.61724 1.63901 4.39539 1.81425C3.95053 2.16564 3.48332 2.62476 3.05529 3.08923C2.22246 3.99295 1.39215 5.07783 1.10557 5.65099C0.743982 6.37417 0.651682 7.26472 0.721695 8.1749C0.792904 9.10061 1.03819 10.1314 1.43867 11.1993C2.23985 13.3358 3.69411 15.7065 5.79289 17.8053C7.88936 19.9018 10.3763 21.4743 12.6193 22.3979C13.7407 22.8596 14.8275 23.1701 15.7956 23.2933C16.7372 23.4132 17.6892 23.3717 18.4472 22.9926C19.0263 22.7031 20.111 21.873 21.0139 21.0403C21.4777 20.6126 21.9358 20.1458 22.2863 19.7012C22.4611 19.4795 22.6262 19.2419 22.7518 19.0007C22.8686 18.7763 23 18.458 23 18.0982C23 16.9897 22.3152 15.757 21.4848 14.8574C20.6435 13.9461 19.3966 13.0982 18 13.0982C17.696 13.0982 17.4115 13.1847 17.1963 13.267C16.9677 13.3544 16.7346 13.4699 16.5135 13.5901C16.1621 13.781 15.7745 14.0211 15.4136 14.2446C15.3274 14.298 15.2427 14.3504 15.1605 14.401C14.7071 14.6798 14.3189 14.9075 14.0079 15.0443C13.9153 15.085 13.8451 15.1106 13.7948 15.126C12.9123 14.6667 11.9215 13.9976 11.0335 13.2206C10.1297 12.4298 9.38596 11.5739 8.95471 10.7675C8.96881 10.6973 8.99941 10.5899 9.05718 10.4399C9.19679 10.0773 9.4303 9.62737 9.70917 9.11901C9.77642 8.99642 9.84675 8.86968 9.9181 8.74111C10.1272 8.3643 10.345 7.97179 10.5195 7.62208C10.6384 7.38362 10.7513 7.13802 10.836 6.90393C10.9146 6.68688 11 6.39836 11 6.09821C11 4.78257 10.1382 3.53638 9.25181 2.69297C8.78598 2.24974 8.25819 1.86294 7.72168 1.58201ZM8.94526 10.8369C8.94539 10.8368 8.9456 10.834 8.94548 10.8287C8.94506 10.8344 8.94512 10.837 8.94526 10.8369ZM13.7071 15.1468C13.707 15.1469 13.7092 15.1468 13.714 15.1461C13.7095 15.1463 13.7071 15.1467 13.7071 15.1468ZM8.99979 6.07769C8.99732 6.08845 8.9878 6.13375 8.95546 6.22307C8.90815 6.35376 8.83328 6.52188 8.72984 6.72922C8.57659 7.0364 8.39109 7.37071 8.18924 7.73452C8.11341 7.87117 8.03528 8.01199 7.95568 8.1571C7.67869 8.66202 7.38427 9.21871 7.19078 9.72118C7.09397 9.97258 7.00627 10.2507 6.9673 10.5291C6.9303 10.7934 6.92012 11.1745 7.10557 11.5454C7.68552 12.7053 8.66395 13.8048 9.7165 14.7258C10.777 15.6537 11.9724 16.4525 13.0528 16.9926C13.4252 17.1788 13.8021 17.1603 14.0587 17.1162C14.3258 17.0702 14.5857 16.975 14.813 16.8751C15.2668 16.6755 15.7646 16.3774 16.2081 16.1047C16.3048 16.0452 16.3993 15.9867 16.4916 15.9296C16.8479 15.7091 17.172 15.5085 17.4685 15.3473C17.6517 15.2478 17.7981 15.1781 17.9104 15.1351C17.9749 15.1105 18.0111 15.1014 18.0236 15.0984C18.6229 15.1087 19.365 15.5096 20.0152 16.214C20.6513 16.9031 20.9676 17.63 20.9976 18.0367C20.9928 18.0473 20.9864 18.0607 20.9779 18.077C20.9303 18.1684 20.8459 18.2978 20.7157 18.463C20.4561 18.7922 20.0822 19.1789 19.658 19.5702C18.7847 20.3755 17.8695 21.0454 17.5528 21.2038C17.3108 21.3248 16.8253 21.4082 16.0481 21.3093C15.2975 21.2138 14.3843 20.9618 13.3807 20.5485C11.3737 19.7221 9.11064 18.2946 7.20711 16.3911C5.30589 14.4899 4.01015 12.3606 3.31133 10.4971C2.96181 9.56504 2.7696 8.72081 2.71581 8.02151C2.66082 7.30669 2.75602 6.82224 2.89443 6.54542C3.04958 6.23512 3.71927 5.32 4.52601 4.44458C4.91776 4.01948 5.30522 3.64425 5.63509 3.38369C5.80061 3.25295 5.93029 3.16816 6.02197 3.12029C6.03759 3.11214 6.05054 3.10587 6.06096 3.10111C6.22064 3.11543 6.47088 3.18466 6.79394 3.35382C7.14806 3.53924 7.52652 3.81205 7.87319 4.1419C8.60173 4.83508 8.98938 5.57797 8.99979 6.07769ZM6.09401 3.08771C6.09401 3.08769 6.09352 3.08783 6.09253 3.08816L6.09401 3.08771Z" fill="#212121"/>
</svg>
