<svg width="24" height="24" viewBox="0 0 24 24" fill="none" xmlns="http://www.w3.org/2000/svg">
<path fill-rule="evenodd" clip-rule="evenodd" d="M8.84259 10.2435C8.93644 9.95156 9.14168 9.56001 9.47294 9.03C9.55031 8.90621 9.63372 8.77588 9.73654 8.61757C9.7556 8.58823 10.0578 8.12554 10.1434 7.99263C10.2989 7.75106 10.4184 7.5581 10.522 7.37827C10.836 6.83332 10.9999 6.43038 10.9999 6C10.9999 4.44772 7.55222 1 5.99994 1C4.63657 1 1.89376 3.97629 1.10551 5.55279C-0.19553 8.15488 2.18747 13.6017 6.29283 17.7071C10.3982 21.8125 15.8451 24.1955 18.4472 22.8944C20.0317 22.1022 22.9999 19.3646 22.9999 18C22.9999 16.3351 19.8622 13 17.9999 13C17.3446 13 17.1837 13.0895 15.3488 14.2429C15.2181 14.3251 15.1088 14.3931 15.005 14.4567C14.4401 14.8028 14.0352 15.0159 13.729 15.1208C13.6698 15.1411 13.6193 15.1555 13.579 15.1649L8.80381 10.3897C8.81106 10.3521 8.8235 10.3029 8.84259 10.2435ZM13.5052 15.1781C13.4967 15.1789 13.4896 15.1792 13.484 15.179C13.486 15.1791 13.4881 15.1792 13.4902 15.1794L13.5052 15.1781ZM17.5527 21.1056C15.9548 21.9045 11.2684 19.8542 7.70705 16.2929C4.14574 12.7316 2.09541 8.04512 2.89437 6.44721C3.36176 5.51242 5.67709 3 5.99994 3C6.44766 3 8.99994 5.55228 8.99994 6C8.99994 6.03585 8.77516 6.42594 8.05926 7.5282C7.95063 7.69546 7.86132 7.835 7.77694 7.97C6.69539 9.70048 6.35262 10.7669 7.29283 11.7071L12.2928 16.7071C13.2136 17.6279 14.2202 17.283 16.0498 16.1621C16.161 16.0939 16.2764 16.0221 16.4132 15.9361C17.5328 15.2323 17.9507 15 17.9999 15C18.7294 15 20.9999 17.4133 20.9999 18C20.9999 18.3246 18.4959 20.634 17.5527 21.1056Z" fill="black"/>
</svg>
