<svg width="24" height="24" viewBox="0 0 24 24" fill="none" xmlns="http://www.w3.org/2000/svg">
<path fill-rule="evenodd" clip-rule="evenodd" d="M7.72168 1.48381C7.19876 1.21 6.59713 1 6 1C5.63939 1 5.32057 1.1321 5.0963 1.24919C4.85494 1.37521 4.61724 1.54081 4.39539 1.71604C3.95053 2.06744 3.48332 2.52656 3.05529 2.99103C2.22246 3.89474 1.39215 4.97963 1.10557 5.55279C0.743982 6.27597 0.651682 7.16652 0.721695 8.0767C0.792904 9.0024 1.03819 10.0332 1.43867 11.1011C2.23985 13.2376 3.69411 15.6083 5.79289 17.7071C7.88936 19.8036 10.3763 21.3761 12.6193 22.2997C13.7407 22.7614 14.8275 23.0719 15.7956 23.1951C16.7372 23.315 17.6892 23.2735 18.4472 22.8944C19.0263 22.6049 20.111 21.7748 21.0139 20.9421C21.4777 20.5143 21.9358 20.0476 22.2863 19.603C22.4611 19.3813 22.6262 19.1437 22.7518 18.9025C22.8686 18.6781 23 18.3598 23 18C23 16.8915 22.3152 15.6588 21.4848 14.7592C20.6435 13.8479 19.3966 13 18 13C17.696 13 17.4115 13.0865 17.1963 13.1688C16.9677 13.2562 16.7346 13.3717 16.5135 13.4919C16.1621 13.6828 15.7745 13.9229 15.4136 14.1464C15.3274 14.1998 15.2427 14.2522 15.1605 14.3028C14.7071 14.5816 14.3189 14.8093 14.0079 14.9461C13.9153 14.9868 13.8451 15.0124 13.7948 15.0278C12.9123 14.5685 11.9215 13.8994 11.0335 13.1224C10.1297 12.3316 9.38596 11.4757 8.95471 10.6693C8.96881 10.5991 8.99941 10.4917 9.05718 10.3417C9.19679 9.97912 9.4303 9.52917 9.70917 9.02081C9.77642 8.89821 9.84675 8.77147 9.9181 8.6429C10.1272 8.26609 10.345 7.87358 10.5195 7.52387C10.6384 7.28541 10.7513 7.03981 10.836 6.80573C10.9146 6.58868 11 6.30016 11 6C11 4.68436 10.1382 3.43818 9.25181 2.59476C8.78598 2.15153 8.25819 1.76473 7.72168 1.48381ZM8.94526 10.7387C8.94539 10.7386 8.9456 10.7358 8.94548 10.7305C8.94506 10.7362 8.94512 10.7388 8.94526 10.7387ZM13.7071 15.0486C13.707 15.0487 13.7092 15.0485 13.714 15.0478C13.7095 15.0481 13.7071 15.0485 13.7071 15.0486ZM8.99979 5.97948C8.99732 5.99025 8.9878 6.03554 8.95546 6.12487C8.90815 6.25555 8.83328 6.42367 8.72984 6.63102C8.57659 6.9382 8.39109 7.27251 8.18924 7.63631C8.11341 7.77297 8.03528 7.91379 7.95568 8.05889C7.67869 8.56381 7.38427 9.1205 7.19078 9.62298C7.09397 9.87438 7.00627 10.1525 6.9673 10.4309C6.9303 10.6952 6.92012 11.0763 7.10557 11.4472C7.68552 12.6071 8.66395 13.7066 9.7165 14.6276C10.777 15.5555 11.9724 16.3542 13.0528 16.8944C13.4252 17.0806 13.8021 17.0621 14.0587 17.018C14.3258 16.972 14.5857 16.8768 14.813 16.7769C15.2668 16.5773 15.7646 16.2792 16.2081 16.0065C16.3048 15.947 16.3993 15.8885 16.4916 15.8314C16.8479 15.6109 17.172 15.4103 17.4685 15.2491C17.6517 15.1495 17.7981 15.0799 17.9104 15.0369C17.9749 15.0123 18.0111 15.0032 18.0236 15.0002C18.6229 15.0105 19.365 15.4114 20.0152 16.1158C20.6513 16.8049 20.9676 17.5318 20.9976 17.9385C20.9928 17.9491 20.9864 17.9625 20.9779 17.9787C20.9303 18.0702 20.8459 18.1996 20.7157 18.3648C20.4561 18.694 20.0822 19.0807 19.658 19.4719C18.7847 20.2773 17.8695 20.9472 17.5528 21.1056C17.3108 21.2265 16.8253 21.31 16.0481 21.2111C15.2975 21.1156 14.3843 20.8636 13.3807 20.4503C11.3737 19.6239 9.11064 18.1964 7.20711 16.2929C5.30589 14.3917 4.01015 12.2624 3.31133 10.3989C2.96181 9.46683 2.7696 8.6226 2.71581 7.9233C2.66082 7.20848 2.75602 6.72403 2.89443 6.44721C3.04958 6.13691 3.71927 5.22179 4.52601 4.34638C4.91776 3.92128 5.30522 3.54605 5.63509 3.28548C5.80061 3.15474 5.93029 3.06995 6.02197 3.02208C6.03759 3.01393 6.05054 3.00766 6.06096 3.00291C6.22064 3.01722 6.47088 3.08645 6.79394 3.25561C7.14806 3.44103 7.52652 3.71384 7.87319 4.04369C8.60173 4.73688 8.98938 5.47976 8.99979 5.97948ZM6.09401 2.9895C6.09401 2.98949 6.09352 2.98963 6.09253 2.98996L6.09401 2.9895Z" fill="#212121"/>
</svg>
