<svg width="24" height="25" viewBox="0 0 24 25" fill="none" xmlns="http://www.w3.org/2000/svg">
<path d="M10.5 10.0982C11.3284 10.0982 12 9.42663 12 8.59821C12 7.76978 11.3284 7.09821 10.5 7.09821C9.67157 7.09821 9 7.76978 9 8.59821C9 9.42663 9.67157 10.0982 10.5 10.0982Z" fill="#212121"/>
<path fill-rule="evenodd" clip-rule="evenodd" d="M4.00006 3.09821C2.34321 3.0982 1.00006 4.44134 1.00005 6.09819L1 18.0982C0.999993 19.755 2.34314 21.0982 4 21.0982H20C21.6568 21.0982 23 19.7551 23 18.0982V6.09824C23 4.44139 21.6568 3.09825 20 3.09824L4.00006 3.09821ZM3.00005 6.0982C3.00006 5.54592 3.44777 5.0982 4.00006 5.09821L20 5.09824C20.5523 5.09824 21 5.54596 21 6.09824V12.684L19.0542 10.7382C17.9227 9.60668 16.1023 9.56243 14.9171 10.6376L10.9307 14.2542L8.92518 12.4715C7.83271 11.5004 6.1994 11.458 5.05802 12.3711L3.00002 14.0175L3.00005 6.0982ZM17.64 12.1524L21 15.5124V18.0982C21 18.6505 20.5523 19.0982 20 19.0982H16.3802L12.4341 15.5906L16.261 12.1189C16.656 11.7605 17.2628 11.7752 17.64 12.1524ZM10.2838 16.3551L13.3698 19.0982H4C3.44771 19.0982 3 18.6505 3 18.0982L3.00001 16.5788L6.3074 13.9329C6.68786 13.6285 7.2323 13.6427 7.59645 13.9663L10.2643 16.3378C10.2707 16.3436 10.2772 16.3494 10.2838 16.3551Z" fill="#212121"/>
</svg>
