<svg width="24" height="24" viewBox="0 0 24 24" fill="none" xmlns="http://www.w3.org/2000/svg">
<path d="M10.5 10C11.3284 10 12 9.32843 12 8.5C12 7.67157 11.3284 7 10.5 7C9.67157 7 9 7.67157 9 8.5C9 9.32843 9.67157 10 10.5 10Z" fill="#212121"/>
<path fill-rule="evenodd" clip-rule="evenodd" d="M4.00006 3C2.34321 3 1.00006 4.34313 1.00005 5.99998L1 18C0.999993 19.6568 2.34314 21 4 21H20C21.6568 21 23 19.6569 23 18V6.00004C23 4.34318 21.6568 3.00004 20 3.00004L4.00006 3ZM3.00005 5.99999C3.00006 5.44771 3.44777 5 4.00006 5L20 5.00004C20.5523 5.00004 21 5.44775 21 6.00004V12.5858L19.0542 10.64C17.9227 9.50847 16.1023 9.46422 14.9171 10.5394L10.9307 14.156L8.92518 12.3733C7.83271 11.4022 6.1994 11.3598 5.05802 12.2729L3.00002 13.9193L3.00005 5.99999ZM17.64 12.0542L21 15.4142V18C21 18.5523 20.5523 19 20 19H16.3802L12.4341 15.4924L16.261 12.0207C16.656 11.6623 17.2628 11.677 17.64 12.0542ZM10.2838 16.2568L13.3698 19H4C3.44771 19 3 18.5523 3 18L3.00001 16.4806L6.3074 13.8347C6.68786 13.5303 7.2323 13.5444 7.59645 13.8681L10.2643 16.2396C10.2707 16.2454 10.2772 16.2512 10.2838 16.2568Z" fill="#212121"/>
</svg>
