<svg width="24" height="25" viewBox="0 0 24 25" fill="none" xmlns="http://www.w3.org/2000/svg">
<path fill-rule="evenodd" clip-rule="evenodd" d="M1 12.0982C1 6.02307 5.92487 1.09821 12 1.09821C18.0751 1.09821 23 6.02307 23 12.0982C23 18.1733 18.0751 23.0982 12 23.0982C5.92487 23.0982 1 18.1733 1 12.0982ZM12 3.09821C7.02944 3.09821 3 7.12764 3 12.0982C3 17.0688 7.02944 21.0982 12 21.0982C16.9706 21.0982 21 17.0688 21 12.0982C21 7.12764 16.9706 3.09821 12 3.09821Z" fill="#212121"/>
<path fill-rule="evenodd" clip-rule="evenodd" d="M10.8635 16.7268C10.0678 17.2573 9.00237 16.6818 9.00235 15.7214L9.00226 8.46873C9.00225 7.5102 10.064 6.93941 10.86 7.47006L16.2996 11.0964C17.014 11.5726 17.0158 12.6252 16.3029 13.1004L10.8635 16.7268ZM10.9979 14.2288L14.1957 12.0969L10.9978 9.96499L10.9979 14.2288Z" fill="#212121"/>
</svg>
