<svg width="24" height="24" viewBox="0 0 24 24" fill="none" xmlns="http://www.w3.org/2000/svg">
<path fill-rule="evenodd" clip-rule="evenodd" d="M1 12C1 5.92487 5.92487 1 12 1C18.0751 1 23 5.92487 23 12C23 18.0751 18.0751 23 12 23C5.92487 23 1 18.0751 1 12ZM12 3C7.02944 3 3 7.02944 3 12C3 16.9706 7.02944 21 12 21C16.9706 21 21 16.9706 21 12C21 7.02944 16.9706 3 12 3Z" fill="#212121"/>
<path fill-rule="evenodd" clip-rule="evenodd" d="M10.8635 16.6286C10.0678 17.1591 9.00237 16.5836 9.00235 15.6232L9.00226 8.37052C9.00225 7.41199 10.064 6.84121 10.86 7.37186L16.2996 10.9982C17.014 11.4744 17.0158 12.527 16.3029 13.0022L10.8635 16.6286ZM10.9979 14.1306L14.1957 11.9986L10.9978 9.86679L10.9979 14.1306Z" fill="#212121"/>
</svg>
