<svg width="24" height="25" viewBox="0 0 24 25" fill="none" xmlns="http://www.w3.org/2000/svg">
<path d="M17.5 12.0982C17.5 12.6505 17.0523 13.0982 16.5 13.0982L13 13.0982L13 16.5982C13 17.1505 12.5523 17.5982 12 17.5982C11.4477 17.5982 11 17.1505 11 16.5982L11 13.0982L7.5 13.0982C6.94771 13.0982 6.5 12.6505 6.5 12.0982C6.5 11.5459 6.94771 11.0982 7.5 11.0982L11 11.0982V7.59821C11 7.04592 11.4477 6.59821 12 6.59821C12.5523 6.59821 13 7.04592 13 7.59821L13 11.0982L16.5 11.0982C17.0523 11.0982 17.5 11.5459 17.5 12.0982Z" fill="#212121"/>
<path fill-rule="evenodd" clip-rule="evenodd" d="M12 2.09821C6.47715 2.09821 2 6.57536 2 12.0982C2 17.6211 6.47715 22.0982 12 22.0982C17.5228 22.0982 22 17.6211 22 12.0982C22 6.57536 17.5228 2.09821 12 2.09821ZM4 12.0982C4 7.67993 7.58172 4.09821 12 4.09821C16.4183 4.09821 20 7.67993 20 12.0982C20 16.5165 16.4183 20.0982 12 20.0982C7.58172 20.0982 4 16.5165 4 12.0982Z" fill="#212121"/>
</svg>
