<svg width="24" height="25" viewBox="0 0 24 25" fill="none" xmlns="http://www.w3.org/2000/svg">
<path d="M19.3366 10.2333C19.5008 10.7606 20.0613 11.055 20.5887 10.8909C21.116 10.7267 21.4104 10.1662 21.2463 9.63884L19.3876 3.66771L13.4165 5.5264C12.8891 5.69054 12.5947 6.25109 12.7589 6.77842C12.923 7.30575 13.4836 7.60017 14.0109 7.43602L16.6658 6.60959L12.6358 13.7135L8.59361 11.2882C8.10184 10.9931 7.4659 11.1254 7.13256 11.5921L2.18622 18.517C1.86521 18.9664 1.9693 19.5909 2.41872 19.9119C2.86813 20.2329 3.49268 20.1288 3.81369 19.6794L8.27709 13.4307L12.3976 15.903C12.9275 16.2209 13.6154 16.04 13.9203 15.5025L18.4767 7.47072L19.3366 10.2333Z" fill="#212121"/>
</svg>
