<svg width="24" height="24" viewBox="0 0 24 24" fill="none" xmlns="http://www.w3.org/2000/svg">
<path d="M19.3366 10.1351C19.5008 10.6624 20.0613 10.9568 20.5887 10.7927C21.116 10.6285 21.4104 10.068 21.2463 9.54063L19.3876 3.5695L13.4165 5.42819C12.8891 5.59234 12.5947 6.15289 12.7589 6.68022C12.923 7.20754 13.4836 7.50196 14.0109 7.33781L16.6658 6.51138L12.6358 13.6153L8.59361 11.19C8.10184 10.8949 7.4659 11.0272 7.13256 11.4939L2.18622 18.4187C1.86521 18.8682 1.9693 19.4927 2.41872 19.8137C2.86813 20.1347 3.49268 20.0306 3.81369 19.5812L8.27709 13.3325L12.3976 15.8048C12.9275 16.1227 13.6154 15.9418 13.9203 15.4043L18.4767 7.37251L19.3366 10.1351Z" fill="#212121"/>
</svg>
