<svg width="24" height="24" viewBox="0 0 24 24" fill="none" xmlns="http://www.w3.org/2000/svg">
<path fill-rule="evenodd" clip-rule="evenodd" d="M9 6C7.34315 6 6 7.34315 6 9C6 10.6569 7.34315 12 9 12C10.6569 12 12 10.6569 12 9C12 7.34315 10.6569 6 9 6ZM8 9C8 8.44772 8.44772 8 9 8C9.55228 8 10 8.44772 10 9C10 9.55228 9.55228 10 9 10C8.44772 10 8 9.55228 8 9Z" fill="#212121"/>
<path fill-rule="evenodd" clip-rule="evenodd" d="M16 13C14.3431 13 13 14.3431 13 16C13 17.6569 14.3431 19 16 19C17.6569 19 19 17.6569 19 16C19 14.3431 17.6569 13 16 13ZM15 16C15 15.4477 15.4477 15 16 15C16.5523 15 17 15.4477 17 16C17 16.5523 16.5523 17 16 17C15.4477 17 15 16.5523 15 16Z" fill="#212121"/>
<path d="M17.7071 7.29289C18.0976 7.68342 18.0976 8.31658 17.7071 8.70711L8.70711 17.7071C8.31658 18.0976 7.68342 18.0976 7.29289 17.7071C6.90237 17.3166 6.90237 16.6834 7.29289 16.2929L16.2929 7.29289C16.6834 6.90237 17.3166 6.90237 17.7071 7.29289Z" fill="#212121"/>
<path fill-rule="evenodd" clip-rule="evenodd" d="M5.07424 3C2.8241 3 1 4.8241 1 7.07424C1 7.53408 1.12497 7.98527 1.36156 8.37958L2.02511 9.4855C2.21512 9.80219 2.21512 10.1978 2.02511 10.5145L1.85799 10.793C1.21012 11.8728 1.31349 13.2426 2.09355 14.2177C2.41643 14.6213 2.38227 15.2035 2.02711 15.5587L1.87868 15.7071C1.31607 16.2697 1 17.0328 1 17.8284V18C1 20.2091 2.79086 22 5 22H18.9998C21.2089 22 22.9998 20.2091 22.9998 18V7C22.9998 4.79086 21.2089 3 18.9998 3H5.07424ZM3 7.07424C3 5.92867 3.92867 5 5.07424 5H18.9998C20.1044 5 20.9998 5.89543 20.9998 7V18C20.9998 19.1046 20.1044 20 18.9998 20H5C3.89543 20 3 19.1046 3 18V17.8284C3 17.5632 3.10536 17.3089 3.29289 17.1213L3.44133 16.9729C4.52739 15.8868 4.60566 14.1563 3.65529 12.9683C3.39088 12.6378 3.36062 12.176 3.57297 11.822L3.7401 11.5435C4.31013 10.5934 4.31013 9.40656 3.7401 8.45651L3.07654 7.35059C3.02646 7.26711 3 7.17159 3 7.07424Z" fill="#212121"/>
</svg>
