<svg width="24" height="24" viewBox="0 0 24 24" fill="none" xmlns="http://www.w3.org/2000/svg">
<path d="M16 5C16 4.44772 16.4477 4 17 4H21C21.5523 4 22 4.44772 22 5C22 5.55228 21.5523 6 21 6H17C16.4477 6 16 5.55228 16 5Z" fill="black"/>
<path d="M16 12C16 11.4477 16.4477 11 17 11H21C21.5523 11 22 11.4477 22 12C22 12.5523 21.5523 13 21 13H17C16.4477 13 16 12.5523 16 12Z" fill="black"/>
<path d="M2 19C2 18.4477 2.44772 18 3 18H21C21.5523 18 22 18.4477 22 19C22 19.5523 21.5523 20 21 20H3C2.44772 20 2 19.5523 2 19Z" fill="black"/>
<path fill-rule="evenodd" clip-rule="evenodd" d="M2 6C2 4.34315 3.34315 3 5 3H10C11.6569 3 13 4.34315 13 6V11C13 12.6569 11.6569 14 10 14H5C3.34315 14 2 12.6569 2 11V6ZM5 5C4.44772 5 4 5.44772 4 6V11C4 11.5523 4.44772 12 5 12H10C10.5523 12 11 11.5523 11 11V6C11 5.44772 10.5523 5 10 5H5Z" fill="black"/>
</svg>
