<svg width="24" height="24" viewBox="0 0 24 24" fill="none" xmlns="http://www.w3.org/2000/svg">
<path d="M5.01281 11.573C5.23349 7.90584 8.2774 5 12 5C13.776 5 15.3953 5.66007 16.6299 6.74974C17.044 7.1152 17.6759 7.0758 18.0414 6.66173C18.4069 6.24766 18.3675 5.61573 17.9534 5.25026C16.3674 3.85048 14.2818 3 12 3C7.16524 3 3.22089 6.81226 3.00896 11.5947L1.70711 10.2929C1.31658 9.90237 0.683417 9.90237 0.292893 10.2929C-0.0976311 10.6834 -0.0976311 11.3166 0.292893 11.7071L3.29289 14.7071C3.68342 15.0976 4.31658 15.0976 4.70711 14.7071L7.70711 11.7071C8.09763 11.3166 8.09763 10.6834 7.70711 10.2929C7.31658 9.90237 6.68342 9.90237 6.29289 10.2929L5.01281 11.573Z" fill="#212121"/>
<path d="M19.2929 9.29289C19.6834 8.90237 20.3166 8.90237 20.7071 9.29289L23.7071 12.2929C24.0976 12.6834 24.0976 13.3166 23.7071 13.7071C23.3166 14.0976 22.6834 14.0976 22.2929 13.7071L20.9911 12.4053C20.7791 17.1878 16.8348 21 12 21C9.71821 21 7.6326 20.1495 6.04665 18.7497C5.63258 18.3843 5.59318 17.7523 5.95865 17.3383C6.32411 16.9242 6.95605 16.8848 7.37012 17.2503C8.60471 18.3399 10.2241 19 12 19C15.7227 19 18.7666 16.0941 18.9872 12.427L17.7071 13.7071C17.3166 14.0976 16.6834 14.0976 16.2929 13.7071C15.9024 13.3166 15.9024 12.6834 16.2929 12.2929L19.2929 9.29289Z" fill="#212121"/>
</svg>
