<svg width="24" height="25" viewBox="0 0 24 25" fill="none" xmlns="http://www.w3.org/2000/svg">
<path d="M5.01281 11.6712C5.23349 8.00404 8.2774 5.09821 12 5.09821C13.776 5.09821 15.3953 5.75827 16.6299 6.84794C17.044 7.21341 17.6759 7.17401 18.0414 6.75994C18.4069 6.34587 18.3675 5.71393 17.9534 5.34847C16.3674 3.94868 14.2818 3.09821 12 3.09821C7.16524 3.09821 3.22089 6.91046 3.00896 11.693L1.70711 10.3911C1.31658 10.0006 0.683417 10.0006 0.292893 10.3911C-0.0976311 10.7816 -0.0976311 11.4148 0.292893 11.8053L3.29289 14.8053C3.68342 15.1958 4.31658 15.1958 4.70711 14.8053L7.70711 11.8053C8.09763 11.4148 8.09763 10.7816 7.70711 10.3911C7.31658 10.0006 6.68342 10.0006 6.29289 10.3911L5.01281 11.6712Z" fill="#212121"/>
<path d="M19.2929 9.3911C19.6834 9.00057 20.3166 9.00057 20.7071 9.3911L23.7071 12.3911C24.0976 12.7816 24.0976 13.4148 23.7071 13.8053C23.3166 14.1958 22.6834 14.1958 22.2929 13.8053L20.9911 12.5035C20.7791 17.286 16.8348 21.0982 12 21.0982C9.71821 21.0982 7.6326 20.2477 6.04665 18.8479C5.63258 18.4825 5.59318 17.8505 5.95865 17.4365C6.32411 17.0224 6.95605 16.983 7.37012 17.3485C8.60471 18.4381 10.2241 19.0982 12 19.0982C15.7227 19.0982 18.7666 16.1923 18.9872 12.5252L17.7071 13.8053C17.3166 14.1958 16.6834 14.1958 16.2929 13.8053C15.9024 13.4148 15.9024 12.7816 16.2929 12.3911L19.2929 9.3911Z" fill="#212121"/>
</svg>
