<svg width="24" height="24" viewBox="0 0 24 24" fill="none" xmlns="http://www.w3.org/2000/svg">
<path d="M8.70711 10.2929C9.09763 10.6834 9.09763 11.3166 8.70711 11.7071C8.31658 12.0976 7.68342 12.0976 7.29289 11.7071L3.29289 7.70711C3.09839 7.51261 3.00076 7.25792 3 7.003L3 7L3 6.997C3.0004 6.8625 3.02735 6.73425 3.07588 6.61722C3.12468 6.49927 3.19702 6.38877 3.29289 6.29289L7.29289 2.29289C7.68342 1.90237 8.31658 1.90237 8.70711 2.29289C9.09763 2.68342 9.09763 3.31658 8.70711 3.70711L6.41421 6H13.5C17.6421 6 21 9.35786 21 13.5C21 17.6421 17.6421 21 13.5 21H9.64706C9.09477 21 8.64706 20.5523 8.64706 20C8.64706 19.4477 9.09477 19 9.64706 19H13.5C16.5376 19 19 16.5376 19 13.5C19 10.4624 16.5376 8 13.5 8H6.41421L8.70711 10.2929Z" fill="#212121"/>
</svg>
