<svg width="24" height="24" viewBox="0 0 24 24" fill="none" xmlns="http://www.w3.org/2000/svg">
<path fill-rule="evenodd" clip-rule="evenodd" d="M7 4C7 2.34315 8.34315 1 10 1H14.1716C14.9672 1 15.7303 1.31607 16.2929 1.87868L21.1213 6.70711C21.6839 7.26972 22 8.03278 22 8.82843V15C22 16.6569 20.6569 18 19 18H10C8.34315 18 7 16.6569 7 15V4ZM10 3C9.44772 3 9 3.44772 9 4V15C9 15.5523 9.44772 16 10 16H19C19.5523 16 20 15.5523 20 15V8.82843C20 8.56321 19.8946 8.30886 19.7071 8.12132L14.8787 3.29289C14.6911 3.10536 14.4368 3 14.1716 3H10Z" fill="#212121"/>
<path fill-rule="evenodd" clip-rule="evenodd" d="M5 6C4.44772 6 4 6.44772 4 7V19C4 20.1046 4.89543 21 6 21H16C16.5523 21 17 20.5523 17 20V17.5H19V20C19 21.6569 17.6569 23 16 23H6C3.79086 23 2 21.2091 2 19V7C2 5.34315 3.34315 4 5 4H7.28571V6H5Z" fill="#212121"/>
<path fill-rule="evenodd" clip-rule="evenodd" d="M13 7V2H15V7C15 7.55228 15.4477 8 16 8H21V10H16C14.3431 10 13 8.65685 13 7Z" fill="#212121"/>
</svg>
