<svg width="24" height="24" viewBox="0 0 24 24" fill="none" xmlns="http://www.w3.org/2000/svg">
<path fill-rule="evenodd" clip-rule="evenodd" d="M1 12C1 5.92487 5.92487 1 12 1C18.0751 1 23 5.92487 23 12C23 18.0751 18.0751 23 12 23C5.92487 23 1 18.0751 1 12ZM12 3C7.02944 3 3 7.02944 3 12C3 16.9706 7.02944 21 12 21C16.9706 21 21 16.9706 21 12C21 7.02944 16.9706 3 12 3ZM8.77786 7.55554C8.77786 7.00326 9.22557 6.55554 9.77786 6.55554H13.1112C14.8908 6.55554 16.3334 7.99818 16.3334 9.77776C16.3334 11.5573 14.8908 13 13.1112 13H10.7779V14.3333H13.1112C13.6635 14.3333 14.1112 14.781 14.1112 15.3333C14.1112 15.8856 13.6635 16.3333 13.1112 16.3333H10.7779V17C10.7779 17.5523 10.3301 18 9.77786 18C9.22557 18 8.77786 17.5523 8.77786 17V16.3333H8.66675C8.11446 16.3333 7.66675 15.8856 7.66675 15.3333C7.66675 14.781 8.11446 14.3333 8.66675 14.3333H8.77786V13H8.66675C8.11446 13 7.66675 12.5523 7.66675 12C7.66675 11.4477 8.11446 11 8.66675 11H8.77786V7.55554ZM10.7779 11H13.1112C13.7862 11 14.3334 10.4528 14.3334 9.77776C14.3334 9.10275 13.7862 8.55554 13.1112 8.55554H10.7779V11Z" fill="#212121"/>
</svg>
