<svg width="24" height="25" viewBox="0 0 24 25" fill="none" xmlns="http://www.w3.org/2000/svg">
<path fill-rule="evenodd" clip-rule="evenodd" d="M1 12.0982C1 6.02307 5.92487 1.09821 12 1.09821C18.0751 1.09821 23 6.02307 23 12.0982C23 18.1733 18.0751 23.0982 12 23.0982C5.92487 23.0982 1 18.1733 1 12.0982ZM12 3.09821C7.02944 3.09821 3 7.12764 3 12.0982C3 17.0688 7.02944 21.0982 12 21.0982C16.9706 21.0982 21 17.0688 21 12.0982C21 7.12764 16.9706 3.09821 12 3.09821ZM8.77786 7.65375C8.77786 7.10146 9.22557 6.65375 9.77786 6.65375H13.1112C14.8908 6.65375 16.3334 8.09639 16.3334 9.87597C16.3334 11.6556 14.8908 13.0982 13.1112 13.0982H10.7779V14.4315H13.1112C13.6635 14.4315 14.1112 14.8792 14.1112 15.4315C14.1112 15.9838 13.6635 16.4315 13.1112 16.4315H10.7779V17.0982C10.7779 17.6505 10.3301 18.0982 9.77786 18.0982C9.22557 18.0982 8.77786 17.6505 8.77786 17.0982V16.4315H8.66675C8.11446 16.4315 7.66675 15.9838 7.66675 15.4315C7.66675 14.8792 8.11446 14.4315 8.66675 14.4315H8.77786V13.0982H8.66675C8.11446 13.0982 7.66675 12.6505 7.66675 12.0982C7.66675 11.5459 8.11446 11.0982 8.66675 11.0982H8.77786V7.65375ZM10.7779 11.0982H13.1112C13.7862 11.0982 14.3334 10.551 14.3334 9.87597C14.3334 9.20095 13.7862 8.65375 13.1112 8.65375H10.7779V11.0982Z" fill="#212121"/>
</svg>
