<svg width="24" height="24" viewBox="0 0 24 24" fill="none" xmlns="http://www.w3.org/2000/svg">
<path fill-rule="evenodd" clip-rule="evenodd" d="M12 3C9.87841 3 7.99999 4.92289 7.99999 7.5C7.99999 10.0771 9.87841 12 12 12C14.1216 12 16 10.0771 16 7.5C16 4.92289 14.1216 3 12 3ZM5.99999 7.5C5.99999 4.00197 8.59873 1 12 1C15.4013 1 18 4.00197 18 7.5C18 10.998 15.4013 14 12 14C8.59873 14 5.99999 10.998 5.99999 7.5ZM17 14C17 13.4477 17.4477 13 18 13H21.1176C22.7095 13 24 14.2905 24 15.8824C24 17.4742 22.7095 18.7647 21.1176 18.7647H19V19.5H21C21.5523 19.5 22 19.9477 22 20.5C22 21.0523 21.5523 21.5 21 21.5H19V22C19 22.5523 18.5523 23 18 23C17.4477 23 17 22.5523 17 22V21.5C16.4477 21.5 16 21.0523 16 20.5C16 19.9477 16.4477 19.5 17 19.5V18.7647C16.4477 18.7647 16 18.317 16 17.7647C16 17.2124 16.4477 16.7647 17 16.7647V14ZM19 16.7647H21.1176C21.605 16.7647 22 16.3697 22 15.8824C22 15.395 21.605 15 21.1176 15H19V16.7647ZM6.93632 14.1489C7.13024 14.666 6.86823 15.2424 6.35111 15.4363C4.66073 16.0702 3.83864 17.2101 3.42161 18.2006C3.2098 18.7036 3.10334 19.169 3.05041 19.5065C3.02409 19.6743 3.01144 19.8077 3.0054 19.8946C3.00238 19.9379 3.00103 19.9695 3.00043 19.9876L3.00014 19.999L3.00045 20.0091C3.00111 20.0261 3.00262 20.0554 3.00598 20.0942C3.01281 20.1732 3.0267 20.2849 3.05411 20.4092C3.10882 20.6572 3.19643 20.8604 3.30234 20.9868C3.31394 20.9892 3.32943 20.9918 3.34933 20.9941C3.38202 20.9978 3.42202 21 3.47023 21C3.47023 21 9.27803 21 12.9994 21C12.9997 21.3905 13 23 13 23H3.47023C3.08843 23 2.41674 22.9415 1.90753 22.4236C1.40686 21.9144 1.19617 21.2712 1.10105 20.8399C1.05088 20.6125 1.02598 20.4119 1.01341 20.2665C1.00708 20.1932 1.00374 20.1323 1.00197 20.0871C1.00109 20.0645 1.0006 20.0456 1.00032 20.031L1.00006 20.0122L1.00001 20.0053L1 20.0024L1 20.0012C1 20.0012 1.00032 20.031 1.00006 20.0122C0.999989 20 1 19.999 1 19.999L1 19.9979L1.00001 19.9954L1.00005 19.9892L1.00025 19.9725C1.00046 19.9594 1.00084 19.9424 1.00152 19.9218C1.00287 19.8806 1.00542 19.8248 1.01022 19.7558C1.0198 19.6181 1.03839 19.4272 1.07457 19.1966C1.14662 18.7372 1.29016 18.1089 1.57834 17.4244C2.16128 16.0399 3.3392 14.4298 5.64887 13.5637C6.166 13.3698 6.74241 13.6318 6.93632 14.1489ZM13 23C13.5523 23 14.0001 22.5523 14.0001 22C14.0001 21.4477 13.5517 21 12.9994 21C12.9997 21.3905 13 23 13 23Z" fill="#212121"/>
</svg>
