<svg width="24" height="24" viewBox="0 0 24 24" fill="none" xmlns="http://www.w3.org/2000/svg">
<path fill-rule="evenodd" clip-rule="evenodd" d="M12.0001 1C8.59886 1 6.00012 4.00197 6.00012 7.5C6.00012 10.998 8.59886 14 12.0001 14C15.4014 14 18.0001 10.998 18.0001 7.5C18.0001 4.00197 15.4014 1 12.0001 1ZM8.00012 7.5C8.00012 4.92289 9.87854 3 12.0001 3C14.1217 3 16.0001 4.92289 16.0001 7.5C16.0001 10.0771 14.1217 12 12.0001 12C9.87854 12 8.00012 10.0771 8.00012 7.5Z" fill="#212121"/>
<path d="M6.35119 15.4363C6.86831 15.2424 7.13032 14.666 6.9364 14.1489C6.74248 13.6318 6.16607 13.3697 5.64895 13.5637C1.01354 15.3019 1.00008 19.4272 1.00008 20L1.00004 20.0252C0.999524 20.2862 0.998082 21.0121 1.38179 21.6836C1.8395 22.4847 2.7053 23 4.00008 23H14.0001C14.5524 23 15.0001 22.5523 15.0001 22C15.0001 21.4477 14.5524 21 14.0001 21H4.00008C3.62385 21 3.41708 20.9297 3.31054 20.8734C3.2114 20.8211 3.15729 20.7596 3.11829 20.6914C3.01519 20.5109 3.00008 20.2637 3.00008 20L3.00008 19.9949C3.00002 19.5503 2.99967 16.6931 6.35119 15.4363Z" fill="#212121"/>
<path fill-rule="evenodd" clip-rule="evenodd" d="M17.0001 14C17.0001 13.4477 17.4478 13 18.0001 13H21.1178C22.7096 13 24.0001 14.2905 24.0001 15.8824C24.0001 17.4742 22.7096 18.7647 21.1178 18.7647H19.0001V19.5H21.0001C21.5524 19.5 22.0001 19.9477 22.0001 20.5C22.0001 21.0523 21.5524 21.5 21.0001 21.5H19.0001V22C19.0001 22.5523 18.5524 23 18.0001 23C17.4478 23 17.0001 22.5523 17.0001 22V21.5C16.4478 21.5 16.0001 21.0523 16.0001 20.5C16.0001 19.9477 16.4478 19.5 17.0001 19.5V18.7647C16.4478 18.7647 16.0001 18.317 16.0001 17.7647C16.0001 17.2124 16.4478 16.7647 17.0001 16.7647V14ZM19.0001 16.7647H21.1178C21.6051 16.7647 22.0001 16.3697 22.0001 15.8824C22.0001 15.395 21.6051 15 21.1178 15H19.0001V16.7647Z" fill="#212121"/>
</svg>
