<svg width="24" height="25" viewBox="0 0 24 25" fill="none" xmlns="http://www.w3.org/2000/svg">
<path fill-rule="evenodd" clip-rule="evenodd" d="M12.0001 1.09821C8.59886 1.09821 6.00012 4.10018 6.00012 7.59821C6.00012 11.0962 8.59886 14.0982 12.0001 14.0982C15.4014 14.0982 18.0001 11.0962 18.0001 7.59821C18.0001 4.10018 15.4014 1.09821 12.0001 1.09821ZM8.00012 7.59821C8.00012 5.0211 9.87854 3.09821 12.0001 3.09821C14.1217 3.09821 16.0001 5.0211 16.0001 7.59821C16.0001 10.1753 14.1217 12.0982 12.0001 12.0982C9.87854 12.0982 8.00012 10.1753 8.00012 7.59821Z" fill="#212121"/>
<path d="M6.35119 15.5345C6.86831 15.3406 7.13032 14.7642 6.9364 14.2471C6.74248 13.73 6.16607 13.468 5.64895 13.6619C1.01354 15.4001 1.00008 19.5254 1.00008 20.0982L1.00004 20.1234C0.999524 20.3844 0.998082 21.1103 1.38179 21.7818C1.8395 22.5829 2.7053 23.0982 4.00008 23.0982H14.0001C14.5524 23.0982 15.0001 22.6505 15.0001 22.0982C15.0001 21.5459 14.5524 21.0982 14.0001 21.0982H4.00008C3.62385 21.0982 3.41708 21.0279 3.31054 20.9716C3.2114 20.9193 3.15729 20.8578 3.11829 20.7896C3.01519 20.6091 3.00008 20.3619 3.00008 20.0982L3.00008 20.0931C3.00002 19.6485 2.99967 16.7913 6.35119 15.5345Z" fill="#212121"/>
<path fill-rule="evenodd" clip-rule="evenodd" d="M17.0001 14.0982C17.0001 13.5459 17.4478 13.0982 18.0001 13.0982H21.1178C22.7096 13.0982 24.0001 14.3887 24.0001 15.9806C24.0001 17.5724 22.7096 18.8629 21.1178 18.8629H19.0001V19.5982H21.0001C21.5524 19.5982 22.0001 20.0459 22.0001 20.5982C22.0001 21.1505 21.5524 21.5982 21.0001 21.5982H19.0001V22.0982C19.0001 22.6505 18.5524 23.0982 18.0001 23.0982C17.4478 23.0982 17.0001 22.6505 17.0001 22.0982V21.5982C16.4478 21.5982 16.0001 21.1505 16.0001 20.5982C16.0001 20.0459 16.4478 19.5982 17.0001 19.5982V18.8629C16.4478 18.8629 16.0001 18.4152 16.0001 17.8629C16.0001 17.3106 16.4478 16.8629 17.0001 16.8629V14.0982ZM19.0001 16.8629H21.1178C21.6051 16.8629 22.0001 16.4679 22.0001 15.9806C22.0001 15.4932 21.6051 15.0982 21.1178 15.0982H19.0001V16.8629Z" fill="#212121"/>
</svg>
