<svg width="24" height="24" viewBox="0 0 24 24" fill="none" xmlns="http://www.w3.org/2000/svg">
<path fill-rule="evenodd" clip-rule="evenodd" d="M11.8791 1C8.72391 1 6.35745 3.88662 6.97624 6.98058L7.431 9.25437C7.86658 11.4323 9.77887 13 11.9999 13C14.221 13 16.1333 11.4323 16.5689 9.25437L17.0236 6.98058C17.6424 3.88662 15.2759 1 12.1207 1H11.8791ZM8.9374 6.58835C8.56612 4.73197 9.986 3 11.8791 3H12.1207C14.0138 3 15.4337 4.73197 15.0625 6.58835L14.6077 8.86214C14.3591 10.1052 13.2676 11 11.9999 11C10.7322 11 9.64077 10.1052 9.39216 8.86214L8.9374 6.58835Z" fill="#212121"/>
<path d="M6.24254 14.9701C6.77833 14.8362 7.10409 14.2933 6.97014 13.7575C6.83619 13.2217 6.29326 12.8959 5.75746 13.0299C3.49981 13.5943 2.27044 14.7611 1.63176 15.8789C1.32082 16.423 1.16366 16.931 1.08395 17.3096C1.044 17.4994 1.02308 17.6586 1.01211 17.7765C1.00662 17.8356 1.00359 17.8845 1.00194 17.9221C1.00111 17.941 1.00063 17.957 1.00035 17.97L1.00007 17.9873L1.00002 17.9942L1 17.9972L1 17.9987C1 17.9993 1 18 2 18H1V20C1 21.6568 2.34315 23 4 23H12C12.5523 23 13 22.5523 13 22C13 21.4477 12.5523 21 12 21H4C3.44772 21 3 20.5523 3 20V18.0102C3.0003 18.0034 3.00119 17.9867 3.00351 17.9618C3.00817 17.9117 3.0185 17.8288 3.04105 17.7216C3.08634 17.5065 3.17918 17.202 3.36824 16.8711C3.72956 16.2388 4.50019 15.4057 6.24254 14.9701Z" fill="#212121"/>
<path fill-rule="evenodd" clip-rule="evenodd" d="M17 14C17 13.4477 17.4477 13 18 13H21.1176C22.7095 13 24 14.2905 24 15.8824C24 17.4742 22.7095 18.7647 21.1176 18.7647H19V19.5H21C21.5523 19.5 22 19.9477 22 20.5C22 21.0523 21.5523 21.5 21 21.5H19V22C19 22.5523 18.5523 23 18 23C17.4477 23 17 22.5523 17 22V21.5C16.4477 21.5 16 21.0523 16 20.5C16 19.9477 16.4477 19.5 17 19.5V18.7647C16.4477 18.7647 16 18.317 16 17.7647C16 17.2124 16.4477 16.7647 17 16.7647V14ZM19 16.7647H21.1176C21.605 16.7647 22 16.3697 22 15.8824C22 15.395 21.605 15 21.1176 15H19V16.7647Z" fill="#212121"/>
</svg>
