<svg width="24" height="24" viewBox="0 0 24 24" fill="none" xmlns="http://www.w3.org/2000/svg">
<path fill-rule="evenodd" clip-rule="evenodd" d="M4.20693 9.72231C2.35427 9.18478 1 7.47504 1 5.44899C1 2.99188 2.99183 1 5.44887 1C7.90592 1 9.89775 2.99188 9.89775 5.44899C9.89775 7.15112 8.9419 8.62999 7.5377 9.3781L10.1208 10.8672L21.5291 4.29038C21.9984 4.01982 22.5982 4.18096 22.8687 4.65028C23.1393 5.1196 22.9782 5.7194 22.5089 5.98995L12.0847 11.9994L22.5089 18.0089C22.9782 18.2795 23.1393 18.8793 22.8687 19.3486C22.5982 19.8179 21.9984 19.979 21.5291 19.7085L10.1208 13.1316L7.53668 14.6214C8.94143 15.3693 9.89775 16.8485 9.89775 18.551C9.89775 21.0081 7.90592 23 5.44887 23C2.99183 23 1 21.0081 1 18.551C1 16.5264 2.35232 14.8177 4.20294 14.2788L8.15686 11.9994L4.20693 9.72231ZM2.96171 5.44899C2.96171 4.07533 4.07525 2.96176 5.44887 2.96176C6.82249 2.96176 7.93604 4.07533 7.93604 5.44899C7.93604 6.82265 6.82249 7.93622 5.44887 7.93622C5.23971 7.93622 5.03657 7.9104 4.84248 7.86177C4.83382 7.85942 4.82515 7.8572 4.81646 7.8551C3.74912 7.57531 2.96171 6.60411 2.96171 5.44899ZM2.96171 18.551C2.96171 17.1773 4.07525 16.0638 5.44887 16.0638C6.82249 16.0638 7.93604 17.1773 7.93604 18.551C7.93604 19.9247 6.82249 21.0382 5.44887 21.0382C4.07525 21.0382 2.96171 19.9247 2.96171 18.551Z" fill="#212121"/>
</svg>
