<svg width="24" height="25" viewBox="0 0 24 25" fill="none" xmlns="http://www.w3.org/2000/svg">
<path fill-rule="evenodd" clip-rule="evenodd" d="M4.20693 9.82052C2.35427 9.28298 1 7.57325 1 5.54719C1 3.09009 2.99183 1.09821 5.44887 1.09821C7.90592 1.09821 9.89775 3.09009 9.89775 5.54719C9.89775 7.24932 8.9419 8.7282 7.5377 9.4763L10.1208 10.9654L21.5291 4.38858C21.9984 4.11803 22.5982 4.27916 22.8687 4.74849C23.1393 5.21781 22.9782 5.8176 22.5089 6.08816L12.0847 12.0976L22.5089 18.1071C22.9782 18.3777 23.1393 18.9775 22.8687 19.4468C22.5982 19.9161 21.9984 20.0772 21.5291 19.8067L10.1208 13.2298L7.53668 14.7196C8.94143 15.4675 9.89775 16.9467 9.89775 18.6492C9.89775 21.1063 7.90592 23.0982 5.44887 23.0982C2.99183 23.0982 1 21.1063 1 18.6492C1 16.6246 2.35232 14.9159 4.20294 14.3771L8.15686 12.0976L4.20693 9.82052ZM2.96171 5.54719C2.96171 4.17354 4.07525 3.05996 5.44887 3.05996C6.82249 3.05996 7.93604 4.17354 7.93604 5.54719C7.93604 6.92085 6.82249 8.03442 5.44887 8.03442C5.23971 8.03442 5.03657 8.0086 4.84248 7.95998C4.83382 7.95763 4.82515 7.95541 4.81646 7.95331C3.74912 7.67352 2.96171 6.70231 2.96171 5.54719ZM2.96171 18.6492C2.96171 17.2756 4.07525 16.162 5.44887 16.162C6.82249 16.162 7.93604 17.2756 7.93604 18.6492C7.93604 20.0229 6.82249 21.1364 5.44887 21.1364C4.07525 21.1364 2.96171 20.0229 2.96171 18.6492Z" fill="#212121"/>
</svg>
