<svg width="24" height="24" viewBox="0 0 24 24" fill="none" xmlns="http://www.w3.org/2000/svg">
<path fill-rule="evenodd" clip-rule="evenodd" d="M12 21C16.9706 21 21 16.9706 21 12C21 7.02944 16.9706 3 12 3C7.02944 3 3 7.02944 3 12C3 16.9706 7.02944 21 12 21ZM12 23C18.0751 23 23 18.0751 23 12C23 5.92487 18.0751 1 12 1C5.92487 1 1 5.92487 1 12C1 18.0751 5.92487 23 12 23Z" fill="black"/>
<path fill-rule="evenodd" clip-rule="evenodd" d="M10.85 17C10.85 16.3649 11.3649 15.85 12 15.85C12.6351 15.85 13.15 16.3649 13.15 17C13.15 17.6351 12.6351 18.15 12 18.15C11.3649 18.15 10.85 17.6351 10.85 17Z" fill="black"/>
<path fill-rule="evenodd" clip-rule="evenodd" d="M12 5C12.5523 5 13 5.44772 13 6V13C13 13.5523 12.5523 14 12 14C11.4477 14 11 13.5523 11 13V6C11 5.44772 11.4477 5 12 5Z" fill="black"/>
</svg>
