<svg width="24" height="25" viewBox="0 0 24 25" fill="none" xmlns="http://www.w3.org/2000/svg">
<path d="M5 7.09821C5 6.54592 5.44772 6.09821 6 6.09821H7C7.55228 6.09821 8 6.54592 8 7.09821C8 7.65049 7.55228 8.09821 7 8.09821H6C5.44772 8.09821 5 7.65049 5 7.09821Z" fill="#212121"/>
<path fill-rule="evenodd" clip-rule="evenodd" d="M6 2.09821C3.23858 2.09821 1 4.33678 1 7.09821V9.09821C1 10.4044 1.83481 11.5157 3 11.9275V19.0982C3 20.7551 4.34315 22.0982 6 22.0982H8C9.65685 22.0982 11 20.7551 11 19.0982V18.5624C11 17.8536 10.6818 17.1822 10.1332 16.7333C10.0489 16.6643 10 16.5611 10 16.4522V15.0982C11.9138 15.0982 13.5136 13.7542 13.9072 11.9586C14.8033 11.6746 15.5172 10.9813 15.8293 10.0982H17C18.3062 10.0982 19.4174 9.26341 19.8293 8.09823H22C22.5523 8.09823 23 7.65052 23 7.09823C23 6.54595 22.5523 6.09823 22 6.09823H19.8293C19.4175 4.93303 18.3062 4.09821 17 4.09821H15.8293C15.4175 2.93301 14.3062 2.09821 13 2.09821H6ZM11.7324 12.0982H10V13.0982C10.7403 13.0982 11.3866 12.696 11.7324 12.0982ZM8 12.0982H5V19.0982C5 19.6505 5.44772 20.0982 6 20.0982H8C8.55228 20.0982 9 19.6505 9 19.0982V18.5624C9 18.4535 8.95109 18.3503 8.86676 18.2813C8.31816 17.8324 8 17.161 8 16.4522V12.0982ZM13 10.0982C13.5523 10.0982 14 9.65049 14 9.09821V5.09821C14 4.54592 13.5523 4.09821 13 4.09821H6C4.34315 4.09821 3 5.44135 3 7.09821V9.09821C3 9.65049 3.44772 10.0982 4 10.0982H13ZM16 8.09821H17C17.5523 8.09821 18 7.65049 18 7.09821C18 6.54592 17.5523 6.09821 17 6.09821H16V8.09821Z" fill="#212121"/>
</svg>
