<svg width="24" height="24" viewBox="0 0 24 24" fill="none" xmlns="http://www.w3.org/2000/svg">
<path d="M5 7C5 6.44772 5.44772 6 6 6H7C7.55228 6 8 6.44772 8 7C8 7.55228 7.55228 8 7 8H6C5.44772 8 5 7.55228 5 7Z" fill="#212121"/>
<path fill-rule="evenodd" clip-rule="evenodd" d="M6 2C3.23858 2 1 4.23858 1 7V9C1 10.3062 1.83481 11.4175 3 11.8293V19C3 20.6569 4.34315 22 6 22H8C9.65685 22 11 20.6569 11 19V18.4642C11 17.7554 10.6818 17.084 10.1332 16.6351C10.0489 16.5661 10 16.4629 10 16.354V15C11.9138 15 13.5136 13.656 13.9072 11.8604C14.8033 11.5764 15.5172 10.8831 15.8293 10H17C18.3062 10 19.4174 9.16521 19.8293 8.00003H22C22.5523 8.00003 23 7.55231 23 7.00003C23 6.44774 22.5523 6.00003 22 6.00003H19.8293C19.4175 4.83482 18.3062 4 17 4H15.8293C15.4175 2.83481 14.3062 2 13 2H6ZM11.7324 12H10V13C10.7403 13 11.3866 12.5978 11.7324 12ZM8 12H5V19C5 19.5523 5.44772 20 6 20H8C8.55228 20 9 19.5523 9 19V18.4642C9 18.3553 8.95109 18.252 8.86676 18.183C8.31816 17.7342 8 17.0628 8 16.354V12ZM13 10C13.5523 10 14 9.55228 14 9V5C14 4.44772 13.5523 4 13 4H6C4.34315 4 3 5.34315 3 7V9C3 9.55228 3.44772 10 4 10H13ZM16 8H17C17.5523 8 18 7.55228 18 7C18 6.44772 17.5523 6 17 6H16V8Z" fill="#212121"/>
</svg>
