<svg width="24" height="25" viewBox="0 0 24 25" fill="none" xmlns="http://www.w3.org/2000/svg">
<path fill-rule="evenodd" clip-rule="evenodd" d="M12 21.0982C16.9706 21.0982 21 17.0688 21 12.0982C21 7.12764 16.9706 3.09821 12 3.09821C7.02944 3.09821 3 7.12764 3 12.0982C3 17.0688 7.02944 21.0982 12 21.0982ZM12 23.0982C18.0751 23.0982 23 18.1733 23 12.0982C23 6.02307 18.0751 1.09821 12 1.09821C5.92487 1.09821 1 6.02307 1 12.0982C1 18.1733 5.92487 23.0982 12 23.0982Z" fill="#212121"/>
<path fill-rule="evenodd" clip-rule="evenodd" d="M10.85 17.0982C10.85 16.4631 11.3649 15.9482 12 15.9482C12.6351 15.9482 13.15 16.4631 13.15 17.0982C13.15 17.7333 12.6351 18.2482 12 18.2482C11.3649 18.2482 10.85 17.7333 10.85 17.0982Z" fill="#212121"/>
<path fill-rule="evenodd" clip-rule="evenodd" d="M12 5.09821C12.5523 5.09821 13 5.54592 13 6.09821V13.0982C13 13.6505 12.5523 14.0982 12 14.0982C11.4477 14.0982 11 13.6505 11 13.0982V6.09821C11 5.54592 11.4477 5.09821 12 5.09821Z" fill="#212121"/>
</svg>
