<svg width="24" height="24" viewBox="0 0 24 24" fill="none" xmlns="http://www.w3.org/2000/svg">
<path fill-rule="evenodd" clip-rule="evenodd" d="M9 3C9 1.89543 9.89543 1 11 1H13C14.1046 1 15 1.89543 15 3V3.77924L15.6644 4.00071L16.0628 3.57401C16.835 2.74698 18.1388 2.72462 18.9389 3.52468L20.4542 5.04003C21.2701 5.85591 21.2283 7.19105 20.3629 7.95424L19.9837 8.28871L20.2208 9H21C22.1046 9 23 9.89543 23 11V13C23 14.1046 22.1046 15 21 15H20.2208L19.9837 15.7113L20.3629 16.0458C21.2283 16.809 21.2701 18.1441 20.4542 18.96L18.9389 20.4753C18.1388 21.2754 16.835 21.253 16.0628 20.426L15.6644 19.9993L15 20.2208L15 21C15 22.1046 14.1046 23 13 23H11C9.89543 23 9 22.1046 9 21L9 20.2208L8.33559 19.9993L7.9372 20.426C7.16505 21.253 5.86117 21.2754 5.06111 20.4753L3.54576 18.96C2.72987 18.1441 2.77171 16.809 3.63709 16.0458L4.01634 15.7113L3.77924 15H3C1.89543 15 1 14.1046 1 13L1 11C1 9.89543 1.89543 9 3 9H3.77924L4.01634 8.28871L3.63709 7.95424C2.77172 7.19105 2.72987 5.85591 3.54576 5.04003L4.95997 6.45424L5.46301 6.89789C6.14343 7.49797 6.33471 8.48087 5.92898 9.29231L5.51545 9.99301C5.16441 10.6071 4.50627 11 3.77924 11H3V13H3.77924C4.50627 13 5.16441 13.3929 5.51545 14.007L5.92899 14.7077C6.33471 15.5191 6.14343 16.502 5.46301 17.1021L4.95997 17.5458L6.47532 19.0611L6.96628 18.5353C7.57105 17.8875 8.52997 17.715 9.32259 18.1113L10.0511 18.5191C10.6318 18.8777 11 19.5169 11 20.2208V21H13V20.2208C13 19.5169 13.3682 18.8777 13.9489 18.5191L14.6774 18.1113C15.47 17.715 16.4289 17.8875 17.0337 18.5353L17.5247 19.0611L19.04 17.5458L18.537 17.1021C17.8566 16.502 17.6653 15.5191 18.071 14.7077L18.4845 14.007C18.8356 13.3929 19.4937 13 20.2208 13H21V11H20.2208C19.4937 11 18.8356 10.6071 18.4845 9.99301L18.071 9.29231C17.6653 8.48087 17.8566 7.49797 18.537 6.89789L19.04 6.45424L17.5247 4.93889L17.0337 5.46475C16.429 6.11249 15.47 6.28503 14.6774 5.88872L13.9489 5.48091C13.3682 5.12233 13 4.48307 13 3.77924V3H11V3.77924C11 4.48307 10.6318 5.12233 10.0511 5.48091L9.32259 5.88872C8.52996 6.28503 7.57105 6.11249 6.96628 5.46475L6.47532 4.93889L4.95997 6.45424L3.54576 5.04003L5.06111 3.52468C5.86117 2.72462 7.16505 2.74698 7.9372 3.57401L8.33559 4.00071L9 3.77924V3ZM12 10C10.8954 10 10 10.8954 10 12C10 13.1046 10.8954 14 12 14C13.1046 14 14 13.1046 14 12C14 10.8954 13.1046 10 12 10ZM8 12C8 9.79086 9.79086 8 12 8C14.2091 8 16 9.79086 16 12C16 14.2091 14.2091 16 12 16C9.79086 16 8 14.2091 8 12Z" fill="#212121"/>
</svg>
