<svg width="24" height="24" viewBox="0 0 24 24" fill="none" xmlns="http://www.w3.org/2000/svg">
<path fill-rule="evenodd" clip-rule="evenodd" d="M14 6C14 6.12589 14.0058 6.25043 14.0172 6.37336L8.68772 9.03811C7.97745 8.39315 7.03443 8 6 8C3.79172 8 2 9.79172 2 12C2 14.2083 3.79172 16 6 16C7.03443 16 7.97745 15.6068 8.68772 14.9619L14.0172 17.6266C14.0058 17.7496 14 17.8741 14 18C14 20.2083 15.7917 22 18 22C20.2083 22 22 20.2083 22 18C22 15.7917 20.2083 14 18 14C16.6329 14 15.4254 14.6867 14.7039 15.7339L9.79141 13.2777C9.92667 12.8764 10 12.4467 10 12C10 11.5533 9.92667 11.1236 9.79141 10.7223L14.7039 8.2661C15.4254 9.31326 16.6329 10 18 10C20.2083 10 22 8.20828 22 6C22 3.79172 20.2083 2 18 2C15.7917 2 14 3.79172 14 6ZM20 6C20 7.10372 19.1037 8 18 8C16.8963 8 16 7.10372 16 6C16 4.89628 16.8963 4 18 4C19.1037 4 20 4.89628 20 6ZM8 12C8 13.1037 7.10372 14 6 14C4.89628 14 4 13.1037 4 12C4 10.8963 4.89628 10 6 10C7.10372 10 8 10.8963 8 12ZM20 18C20 19.1037 19.1037 20 18 20C16.8963 20 16 19.1037 16 18C16 16.8963 16.8963 16 18 16C19.1037 16 20 16.8963 20 18Z" fill="#212121"/>
</svg>
