<svg width="24" height="25" viewBox="0 0 24 25" fill="none" xmlns="http://www.w3.org/2000/svg">
<path fill-rule="evenodd" clip-rule="evenodd" d="M18 2.09821C20.2083 2.09821 22 3.88992 22 6.09821C22 8.30649 20.2083 10.0982 18 10.0982C16.6157 10.0982 15.395 9.39409 14.6769 8.32464L8.79913 10.8437C8.92946 11.2383 9 11.66 9 12.0982C9 12.5364 8.92946 12.9581 8.79913 13.3527L14.6769 15.8718C15.395 14.8023 16.6157 14.0982 18 14.0982C20.2083 14.0982 22 15.8899 22 18.0982C22 20.3065 20.2083 22.0982 18 22.0982C15.6899 22.0982 13.8236 20.0576 14.0138 17.7635L7.6935 15.0548C6.98257 15.7029 6.03724 16.0982 5 16.0982C2.79172 16.0982 1 14.3065 1 12.0982C1 9.88992 2.79172 8.09821 5 8.09821C6.03724 8.09821 6.98257 8.4935 7.6935 9.14157L14.0138 6.43287C13.8236 4.1388 15.6899 2.09821 18 2.09821ZM18 4.09821C16.8963 4.09821 16 4.99449 16 6.09821C16 7.20192 16.8963 8.09821 18 8.09821C19.1037 8.09821 20 7.20192 20 6.09821C20 4.99449 19.1037 4.09821 18 4.09821ZM5 10.0982C3.89628 10.0982 3 10.9945 3 12.0982C3 13.2019 3.89628 14.0982 5 14.0982C6.10372 14.0982 7 13.2019 7 12.0982C7 10.9945 6.10372 10.0982 5 10.0982ZM16 18.0982C16 16.9945 16.8963 16.0982 18 16.0982C19.1037 16.0982 20 16.9945 20 18.0982C20 19.2019 19.1037 20.0982 18 20.0982C16.8963 20.0982 16 19.2019 16 18.0982Z" fill="#212121"/>
</svg>
