<svg width="24" height="24" viewBox="0 0 24 24" fill="none" xmlns="http://www.w3.org/2000/svg">
<path fill-rule="evenodd" clip-rule="evenodd" d="M18 2C20.2083 2 22 3.79172 22 6C22 8.20828 20.2083 10 18 10C16.6157 10 15.395 9.29589 14.6769 8.22643L8.79913 10.7455C8.92946 11.1401 9 11.5618 9 12C9 12.4382 8.92946 12.8599 8.79913 13.2545L14.6769 15.7736C15.395 14.7041 16.6157 14 18 14C20.2083 14 22 15.7917 22 18C22 20.2083 20.2083 22 18 22C15.6899 22 13.8236 19.9594 14.0138 17.6653L7.6935 14.9566C6.98257 15.6047 6.03724 16 5 16C2.79172 16 1 14.2083 1 12C1 9.79172 2.79172 8 5 8C6.03724 8 6.98257 8.39529 7.6935 9.04337L14.0138 6.33466C13.8236 4.0406 15.6899 2 18 2ZM18 4C16.8963 4 16 4.89628 16 6C16 7.10372 16.8963 8 18 8C19.1037 8 20 7.10372 20 6C20 4.89628 19.1037 4 18 4ZM5 10C3.89628 10 3 10.8963 3 12C3 13.1037 3.89628 14 5 14C6.10372 14 7 13.1037 7 12C7 10.8963 6.10372 10 5 10ZM16 18C16 16.8963 16.8963 16 18 16C19.1037 16 20 16.8963 20 18C20 19.1037 19.1037 20 18 20C16.8963 20 16 19.1037 16 18Z" fill="#212121"/>
</svg>
