<svg width="24" height="24" viewBox="0 0 24 24" fill="none" xmlns="http://www.w3.org/2000/svg">
<path fill-rule="evenodd" clip-rule="evenodd" d="M14 5.31601V6.9018C14 8.00637 13.1046 8.9018 12 8.9018H10C6.13401 8.9018 3 12.0358 3 15.9018V17.4876L3.38177 17.1058C5.43702 15.0506 8.35831 14.1144 11.2253 14.5922L12.3288 14.7761C13.2932 14.9369 14 15.7712 14 16.7489V18.4876L20.5858 11.9018L14 5.31601ZM12 3.14322C12 2.16322 13.1849 1.67244 13.8778 2.3654L22.6364 11.124C23.066 11.5536 23.066 12.25 22.6364 12.6796L13.8778 21.4382C13.1849 22.1312 12 21.6404 12 20.6604V16.7489L10.8965 16.565C8.66663 16.1934 6.39451 16.9215 4.79599 18.52L2.87782 20.4382C2.18485 21.1312 1 20.6404 1 19.6604V15.9018C1 10.9312 5.02944 6.9018 10 6.9018H12V3.14322Z" fill="#212121"/>
</svg>
