<svg width="24" height="25" viewBox="0 0 24 25" fill="none" xmlns="http://www.w3.org/2000/svg">
<path fill-rule="evenodd" clip-rule="evenodd" d="M14 5.41422V7C14 8.10457 13.1046 9 12 9H10C6.13401 9 3 12.134 3 16V17.5858L3.38177 17.204C5.43702 15.1488 8.35831 14.2126 11.2253 14.6904L12.3288 14.8743C13.2932 15.0351 14 15.8695 14 16.8471V18.5858L20.5858 12L14 5.41422ZM12 3.24143C12 2.26143 13.1849 1.77065 13.8778 2.46361L22.6364 11.2222C23.066 11.6518 23.066 12.3482 22.6364 12.7778L13.8778 21.5364C13.1849 22.2294 12 21.7386 12 20.7586V16.8471L10.8965 16.6632C8.66663 16.2916 6.39451 17.0197 4.79599 18.6182L2.87782 20.5364C2.18485 21.2294 1 20.7386 1 19.7586V16C1 11.0294 5.02944 7 10 7H12V3.24143Z" fill="#212121"/>
</svg>
