<svg width="24" height="24" viewBox="0 0 24 24" fill="none" xmlns="http://www.w3.org/2000/svg">
<path fill-rule="evenodd" clip-rule="evenodd" d="M18 4C16.8963 4 16 4.89628 16 6C16 7.10372 16.8963 8 18 8C19.1037 8 20 7.10372 20 6C20 4.89628 19.1037 4 18 4ZM14 6C14 3.79172 15.7917 2 18 2C20.2083 2 22 3.79172 22 6C22 8.20828 20.2083 10 18 10C15.7917 10 14 8.20828 14 6Z" fill="#212121"/>
<path fill-rule="evenodd" clip-rule="evenodd" d="M5 10C3.89628 10 3 10.8963 3 12C3 13.1037 3.89628 14 5 14C6.10372 14 7 13.1037 7 12C7 10.8963 6.10372 10 5 10ZM1 12C1 9.79172 2.79172 8 5 8C7.20828 8 9 9.79172 9 12C9 14.2083 7.20828 16 5 16C2.79172 16 1 14.2083 1 12Z" fill="#212121"/>
<path fill-rule="evenodd" clip-rule="evenodd" d="M18 16C16.8963 16 16 16.8963 16 18C16 19.1037 16.8963 20 18 20C19.1037 20 20 19.1037 20 18C20 16.8963 19.1037 16 18 16ZM14 18C14 15.7917 15.7917 14 18 14C20.2083 14 22 15.7917 22 18C22 20.2083 20.2083 22 18 22C15.7917 22 14 20.2083 14 18Z" fill="#212121"/>
<path fill-rule="evenodd" clip-rule="evenodd" d="M15.827 16.5111L7.5111 12.673L6.67298 14.4889L14.9889 18.327L15.827 16.5111Z" fill="#212121"/>
<path fill-rule="evenodd" clip-rule="evenodd" d="M15.827 7.4889L7.5111 11.327L6.67298 9.5111L14.9889 5.67298L15.827 7.4889Z" fill="#212121"/>
</svg>
