<svg width="24" height="25" viewBox="0 0 24 25" fill="none" xmlns="http://www.w3.org/2000/svg">
<path d="M12.7071 1.3911C12.3166 1.00057 11.6834 1.00057 11.2929 1.3911L7.29289 5.3911C6.90237 5.78162 6.90237 6.41479 7.29289 6.80531C7.68342 7.19584 8.31658 7.19584 8.70711 6.80531L11 4.51242V16.0982C11 16.6505 11.4477 17.0982 12 17.0982C12.5523 17.0982 13 16.6505 13 16.0982V4.51242L15.2929 6.80531C15.6834 7.19584 16.3166 7.19584 16.7071 6.80531C17.0976 6.41479 17.0976 5.78162 16.7071 5.3911L12.7071 1.3911Z" fill="#212121"/>
<path d="M3 12.0982C3 10.4414 4.34315 9.09821 6 9.09821H7C7.55228 9.09821 8 9.54592 8 10.0982C8 10.6505 7.55228 11.0982 7 11.0982H6C5.44772 11.0982 5 11.5459 5 12.0982V20.0982C5 20.6505 5.44772 21.0982 6 21.0982H18C18.5523 21.0982 19 20.6505 19 20.0982V12.0982C19 11.5459 18.5523 11.0982 18 11.0982H17C16.4477 11.0982 16 10.6505 16 10.0982C16 9.54592 16.4477 9.09821 17 9.09821H18C19.6569 9.09821 21 10.4414 21 12.0982V20.0982C21 21.7551 19.6569 23.0982 18 23.0982H6C4.34315 23.0982 3 21.7551 3 20.0982V12.0982Z" fill="#212121"/>
</svg>
