<svg width="24" height="24" viewBox="0 0 24 24" fill="none" xmlns="http://www.w3.org/2000/svg">
<path d="M5 6C4.44772 6 4 6.44772 4 7C4 7.55228 4.44772 8 5 8V6ZM19 8C19.5523 8 20 7.55228 20 7C20 6.44772 19.5523 6 19 6V8ZM5 11C4.44772 11 4 11.4477 4 12C4 12.5523 4.44772 13 5 13V11ZM15 13C15.5523 13 16 12.5523 16 12C16 11.4477 15.5523 11 15 11V13ZM5 16C4.44772 16 4 16.4477 4 17C4 17.5523 4.44772 18 5 18V16ZM11 18C11.5523 18 12 17.5523 12 17C12 16.4477 11.5523 16 11 16V18ZM5 8H19V6H5V8ZM5 13H15V11H5V13ZM5 18H11V16H5V18Z" fill="black"/>
</svg>
