<svg width="24" height="24" viewBox="0 0 24 24" fill="none" xmlns="http://www.w3.org/2000/svg">
<path fill-rule="evenodd" clip-rule="evenodd" d="M3.29289 8.70711C3.68342 9.09763 4.31658 9.09763 4.70711 8.70711L7 6.41421L9.29289 8.70711C9.68342 9.09763 10.3166 9.09763 10.7071 8.70711C11.0976 8.31658 11.0976 7.68342 10.7071 7.29289L7.70711 4.29289C7.31658 3.90237 6.68342 3.90237 6.29289 4.29289L3.29289 7.29289C2.90237 7.68342 2.90237 8.31658 3.29289 8.70711Z" fill="#212121"/>
<path fill-rule="evenodd" clip-rule="evenodd" d="M7 20C7.55228 20 8 19.5523 8 19V6C8 5.44772 7.55228 5 7 5C6.44772 5 6 5.44772 6 6V19C6 19.5523 6.44772 20 7 20Z" fill="#212121"/>
<path fill-rule="evenodd" clip-rule="evenodd" d="M13.2929 15.2929C13.6834 14.9024 14.3166 14.9024 14.7071 15.2929L17 17.5858L19.2929 15.2929C19.6834 14.9024 20.3166 14.9024 20.7071 15.2929C21.0976 15.6834 21.0976 16.3166 20.7071 16.7071L17.7071 19.7071C17.3166 20.0976 16.6834 20.0976 16.2929 19.7071L13.2929 16.7071C12.9024 16.3166 12.9024 15.6834 13.2929 15.2929Z" fill="#212121"/>
<path fill-rule="evenodd" clip-rule="evenodd" d="M17 4C17.5523 4 18 4.44772 18 5V18C18 18.5523 17.5523 19 17 19C16.4477 19 16 18.5523 16 18V5C16 4.44772 16.4477 4 17 4Z" fill="#212121"/>
</svg>
