<svg width="24" height="25" viewBox="0 0 24 25" fill="none" xmlns="http://www.w3.org/2000/svg">
<path d="M3.29289 8.80531C3.68342 9.19584 4.31658 9.19584 4.70711 8.80531L6 7.51242V19.0982C6 19.6505 6.44772 20.0982 7 20.0982C7.55228 20.0982 8 19.6505 8 19.0982V7.51242L9.29289 8.80531C9.68342 9.19584 10.3166 9.19584 10.7071 8.80531C11.0976 8.41479 11.0976 7.78162 10.7071 7.3911L7.70711 4.3911C7.31658 4.00057 6.68342 4.00057 6.29289 4.3911L3.29289 7.3911C2.90237 7.78162 2.90237 8.41479 3.29289 8.80531Z" fill="#212121"/>
<path d="M17 4.09821C17.5523 4.09821 18 4.54592 18 5.09821V16.684L19.2929 15.3911C19.6834 15.0006 20.3166 15.0006 20.7071 15.3911C21.0976 15.7816 21.0976 16.4148 20.7071 16.8053L17.7071 19.8053C17.3166 20.1958 16.6834 20.1958 16.2929 19.8053L13.2929 16.8053C12.9024 16.4148 12.9024 15.7816 13.2929 15.3911C13.6834 15.0006 14.3166 15.0006 14.7071 15.3911L16 16.684V5.09821C16 4.54592 16.4477 4.09821 17 4.09821Z" fill="#212121"/>
</svg>
