<svg width="24" height="24" viewBox="0 0 24 24" fill="none" xmlns="http://www.w3.org/2000/svg">
<path fill-rule="evenodd" clip-rule="evenodd" d="M4.25259 9.6585C3.88891 10.0741 3.25715 10.1163 2.84151 9.75258C2.42587 9.38889 2.38375 8.75713 2.74744 8.3415L6.24744 4.3415C6.43733 4.12448 6.71165 4 7.00001 4C7.28838 4 7.5627 4.12448 7.75259 4.3415L11.2526 8.3415C11.6163 8.75713 11.5742 9.38889 11.1585 9.75258C10.7429 10.1163 10.1111 10.0741 9.74744 9.6585L8 7.66143V19C8 19.5523 7.55228 20 7 20C6.44772 20 6 19.5523 6 19V7.66147L4.25259 9.6585ZM12.8415 14.2474C13.2571 13.8838 13.8889 13.9259 14.2526 14.3415L16 16.3386V5.00001C16 4.44773 16.4477 4.00001 17 4.00001C17.5523 4.00001 18 4.44773 18 5.00001V16.3386L19.7474 14.3415C20.1111 13.9259 20.7429 13.8838 21.1585 14.2474C21.5742 14.6111 21.6163 15.2429 21.2526 15.6585L17.7526 19.6585C17.5627 19.8755 17.2884 20 17 20C16.7117 20 16.4373 19.8755 16.2474 19.6585L12.7474 15.6585C12.3838 15.2429 12.4259 14.6111 12.8415 14.2474Z" fill="black"/>
</svg>
