<svg width="24" height="24" viewBox="0 0 24 24" fill="none" xmlns="http://www.w3.org/2000/svg">
<path d="M4.70711 2.29289C4.31658 1.90237 3.68342 1.90237 3.29289 2.29289C2.90237 2.68342 2.90237 3.31658 3.29289 3.70711L20.2929 20.7071C20.6834 21.0976 21.3166 21.0976 21.7071 20.7071C22.0976 20.3166 22.0976 19.6834 21.7071 19.2929L4.70711 2.29289Z" fill="#212121"/>
<path d="M5.00882 8.45094C5.28998 8.19476 5.62433 7.97627 5.99272 7.82114L7.74303 9.57146H7.2C6.92811 9.57146 6.61078 9.69701 6.35585 9.92929C6.09751 10.1647 6 10.4172 6 10.5883V13.4112C6 13.5824 6.09756 13.8351 6.35598 14.0706C6.61097 14.303 6.92826 14.4286 7.2 14.4286H8.64618C9.37498 14.4286 10.0789 14.6939 10.6263 15.1749L14.9789 18.9994L14.9838 18.9999C14.9887 19.0002 14.9943 18.9999 15 18.9989V16.8284L17 18.8284V19.0573C17 19.8934 16.4801 20.5184 15.8654 20.8052C15.2532 21.0908 14.466 21.0862 13.8133 20.6294L13.7681 20.5978L9.30623 16.6774C9.12373 16.517 8.88911 16.4286 8.64618 16.4286H7.2C6.35796 16.4286 5.57526 16.0652 5.00869 15.5487C4.44555 15.0354 4 14.2795 4 13.4112V10.5883C4 9.72002 4.44561 8.96413 5.00882 8.45094Z" fill="#212121"/>
<path d="M15 5.00115V11.1716L17 13.1716V4.94271C17 4.10663 16.4801 3.48169 15.8654 3.19487C15.2532 2.90922 14.466 2.91381 13.8133 3.37066L13.7681 3.4023L10.2883 6.45982L11.7054 7.87698L14.9789 5.0007L14.9838 5.00015C14.9887 4.99983 14.9943 5.00016 15 5.00115Z" fill="#212121"/>
</svg>
