<svg width="24" height="24" viewBox="0 0 24 24" fill="none" xmlns="http://www.w3.org/2000/svg">
<path fill-rule="evenodd" clip-rule="evenodd" d="M9.92329 3.39752C11.2253 2.39511 13 3.38851 13 4.94268V19.0573C13 20.6115 11.2253 21.6049 9.92329 20.6025L9.87877 20.5682L5.88642 16.7095C5.69995 16.5293 5.45077 16.4286 5.19145 16.4286H4C3.17674 16.4286 2.43366 16.0386 1.91227 15.5158C1.38966 14.9918 1 14.2448 1 13.4112V10.5883C1 9.75467 1.38971 9.00766 1.91239 8.48378C2.43386 7.96112 3.17691 7.57142 4 7.57142H5.19145C5.45077 7.57142 5.69995 7.47068 5.88642 7.29046L9.87877 3.4318L9.92329 3.39752ZM11 5.12959L7.27635 8.72855C6.71696 9.26921 5.96942 9.57142 5.19145 9.57142H4C3.81057 9.57142 3.55362 9.67046 3.32822 9.89638C3.10403 10.1211 3 10.3825 3 10.5883V13.4112C3 13.617 3.10408 13.8786 3.32834 14.1035C3.55382 14.3295 3.81074 14.4286 4 14.4286H5.19145C5.96942 14.4286 6.71696 14.7308 7.27635 15.2714L11 18.8704V5.12959Z" fill="#212121"/>
<path d="M15.168 16.5547C14.8616 16.0952 14.9858 15.4743 15.4453 15.168C15.8979 14.8663 16.2905 14.4206 16.5697 13.8622C16.849 13.3035 17 12.6608 17 12C17 11.3392 16.849 10.6965 16.5697 10.1378C16.2905 9.57941 15.8979 9.13378 15.4453 8.83207C14.9858 8.52571 14.8616 7.90484 15.168 7.44532C15.4743 6.98579 16.0952 6.86161 16.5547 7.16796C17.3183 7.67702 17.9356 8.39753 18.3585 9.2434C18.7814 10.089 19 11.0393 19 12C19 12.9608 18.7814 13.911 18.3585 14.7566C17.9356 15.6025 17.3183 16.323 16.5547 16.8321C16.0952 17.1384 15.4743 17.0142 15.168 16.5547Z" fill="#212121"/>
<path d="M16.5294 19.1176C16.0421 19.3775 15.8578 19.9833 16.1177 20.4706C16.3776 20.9579 16.9833 21.1422 17.4706 20.8823C19.1388 19.9926 20.534 18.7077 21.5083 17.1488C22.4831 15.5891 23 13.8131 23 12C23 10.1869 22.4831 8.41084 21.5083 6.85118C20.534 5.2923 19.1388 4.00732 17.4706 3.11763C16.9833 2.85773 16.3776 3.04209 16.1177 3.5294C15.8578 4.01671 16.0421 4.62244 16.5294 4.88234C17.9016 5.61419 19.0312 6.66148 19.8123 7.91118C20.5928 9.16011 21 10.57 21 12C21 13.4299 20.5929 14.8399 19.8123 16.0888C19.0312 17.3385 17.9016 18.3858 16.5294 19.1176Z" fill="#212121"/>
</svg>
