<svg width="24" height="25" viewBox="0 0 24 25" fill="none" xmlns="http://www.w3.org/2000/svg">
<path fill-rule="evenodd" clip-rule="evenodd" d="M9.92329 3.49573C11.2253 2.49332 13 3.48671 13 5.04088V19.1555C13 20.7097 11.2253 21.7031 9.92329 20.7007L9.87877 20.6664L5.88642 16.8077C5.69995 16.6275 5.45077 16.5268 5.19145 16.5268H4C3.17674 16.5268 2.43366 16.1368 1.91227 15.614C1.38966 15.09 1 14.343 1 13.5094V10.6865C1 9.85287 1.38971 9.10587 1.91239 8.58199C2.43386 8.05932 3.17691 7.66963 4 7.66963H5.19145C5.45077 7.66963 5.69995 7.56889 5.88642 7.38867L9.87877 3.53001L9.92329 3.49573ZM11 5.2278L7.27635 8.82676C6.71696 9.36741 5.96942 9.66963 5.19145 9.66963H4C3.81057 9.66963 3.55362 9.76867 3.32822 9.99458C3.10403 10.2193 3 10.4807 3 10.6865V13.5094C3 13.7152 3.10408 13.9768 3.32834 14.2017C3.55382 14.4277 3.81074 14.5268 4 14.5268H5.19145C5.96942 14.5268 6.71696 14.829 7.27635 15.3696L11 18.9686V5.2278Z" fill="#212121"/>
<path d="M15.168 16.6529C14.8616 16.1934 14.9858 15.5725 15.4453 15.2662C15.8979 14.9645 16.2905 14.5188 16.5697 13.9604C16.849 13.4017 17 12.759 17 12.0982C17 11.4374 16.849 10.7947 16.5697 10.236C16.2905 9.67761 15.8979 9.23199 15.4453 8.93027C14.9858 8.62392 14.8616 8.00305 15.168 7.54352C15.4743 7.08399 16.0952 6.95982 16.5547 7.26617C17.3183 7.77522 17.9356 8.49573 18.3585 9.34161C18.7814 10.1872 19 11.1375 19 12.0982C19 13.059 18.7814 14.0092 18.3585 14.8548C17.9356 15.7007 17.3183 16.4212 16.5547 16.9303C16.0952 17.2366 15.4743 17.1125 15.168 16.6529Z" fill="#212121"/>
<path d="M16.5294 19.2158C16.0421 19.4757 15.8578 20.0815 16.1177 20.5688C16.3776 21.0561 16.9833 21.2404 17.4706 20.9805C19.1388 20.0909 20.534 18.8059 21.5083 17.247C22.4831 15.6873 23 13.9113 23 12.0982C23 10.2851 22.4831 8.50905 21.5083 6.94939C20.534 5.3905 19.1388 4.10553 17.4706 3.21584C16.9833 2.95594 16.3776 3.14029 16.1177 3.6276C15.8578 4.11491 16.0421 4.72065 16.5294 4.98055C17.9016 5.71239 19.0312 6.75969 19.8123 8.00939C20.5928 9.25832 21 10.6682 21 12.0982C21 13.5281 20.5929 14.9381 19.8123 16.187C19.0312 17.4367 17.9016 18.484 16.5294 19.2158Z" fill="#212121"/>
</svg>
