<svg width="24" height="25" viewBox="0 0 24 25" fill="none" xmlns="http://www.w3.org/2000/svg">
<path d="M4.70711 2.3911C4.31658 2.00057 3.68342 2.00057 3.29289 2.3911C2.90237 2.78162 2.90237 3.41479 3.29289 3.80531L20.2929 20.8053C20.6834 21.1958 21.3166 21.1958 21.7071 20.8053C22.0976 20.4148 22.0976 19.7816 21.7071 19.3911L4.70711 2.3911Z" fill="#212121"/>
<path d="M5.00882 8.54915C5.28998 8.29296 5.62433 8.07448 5.99272 7.91935L7.74303 9.66966H7.2C6.92811 9.66966 6.61078 9.79521 6.35585 10.0275C6.09751 10.2629 6 10.5154 6 10.6865V13.5094C6 13.6806 6.09756 13.9333 6.35598 14.1688C6.61097 14.4013 6.92826 14.5268 7.2 14.5268H8.64618C9.37498 14.5268 10.0789 14.7921 10.6263 15.2732L14.9789 19.0976L14.9838 19.0981C14.9887 19.0984 14.9943 19.0981 15 19.0971V16.9266L17 18.9266V19.1556C17 19.9916 16.4801 20.6166 15.8654 20.9034C15.2532 21.189 14.466 21.1845 13.8133 20.7276L13.7681 20.696L9.30623 16.7756C9.12373 16.6152 8.88911 16.5268 8.64618 16.5268H7.2C6.35796 16.5268 5.57526 16.1634 5.00869 15.6469C4.44555 15.1336 4 14.3777 4 13.5094V10.6865C4 9.81823 4.44561 9.06234 5.00882 8.54915Z" fill="#212121"/>
<path d="M15 5.09936V11.2698L17 13.2698V5.04092C17 4.20483 16.4801 3.57989 15.8654 3.29308C15.2532 3.00743 14.466 3.01202 13.8133 3.46887L13.7681 3.5005L10.2883 6.55803L11.7054 7.97519L14.9789 5.09891L14.9838 5.09835C14.9887 5.09804 14.9943 5.09836 15 5.09936Z" fill="#212121"/>
</svg>
