<svg width="24" height="24" viewBox="0 0 24 24" fill="none" xmlns="http://www.w3.org/2000/svg">
<path fill-rule="evenodd" clip-rule="evenodd" d="M12 4.90179C7.46774 4.90179 4 8.14327 4 11.9018C4 12.9417 4.25898 13.9293 4.72735 14.82C4.90843 15.1643 5.00491 15.5746 4.96087 16.0001L4.63799 19.1201L7.98506 18.3653C8.36734 18.2791 8.75656 18.3102 9.10379 18.4284C9.99957 18.7334 10.9758 18.9018 12 18.9018C16.5323 18.9018 20 15.6603 20 11.9018C20 8.14327 16.5323 4.90179 12 4.90179ZM2 11.9018C2 6.82376 6.59113 2.90179 12 2.90179C17.4089 2.90179 22 6.82376 22 11.9018C22 16.9798 17.4089 20.9018 12 20.9018C10.7561 20.9018 9.56216 20.6973 8.45915 20.3217C8.44957 20.3184 8.44044 20.3168 8.43315 20.3163C8.42791 20.316 8.42503 20.3164 8.42455 20.3164L7.38012 20.552C7.38978 20.5498 7.40766 20.5457 7.36781 20.5547L6.27304 20.8016C6.22388 20.8127 6.25226 20.8063 6.26751 20.8028C6.27835 20.8004 6.28255 20.7994 6.24766 20.8073L3.99328 21.3157C3.98485 21.3176 3.98068 21.3185 3.97921 21.3188L3.91134 21.3341C3.89353 21.3382 3.92015 21.3322 3.90243 21.3362C3.87896 21.3414 3.92154 21.3318 3.89808 21.3371L3.88545 21.34C3.83041 21.3524 3.90836 21.3348 3.85472 21.3469C3.11587 21.5135 2.44265 20.9043 2.51957 20.1611L2.97142 15.795C2.97141 15.7941 2.97129 15.791 2.97016 15.7855C2.96834 15.7768 2.9644 15.7646 2.95717 15.7508C2.34474 14.5862 2 13.2805 2 11.9018Z" fill="#212121"/>
</svg>
