<svg width="24" height="25" viewBox="0 0 24 25" fill="none" xmlns="http://www.w3.org/2000/svg">
<path fill-rule="evenodd" clip-rule="evenodd" d="M12 5C7.46774 5 4 8.24148 4 12C4 13.0399 4.25898 14.0275 4.72735 14.9182C4.90843 15.2626 5.00491 15.6728 4.96087 16.0983L4.63799 19.2183L7.98506 18.4635C8.36734 18.3773 8.75656 18.4084 9.10379 18.5266C9.99957 18.8316 10.9758 19 12 19C16.5323 19 20 15.7585 20 12C20 8.24148 16.5323 5 12 5ZM2 12C2 6.92196 6.59113 3 12 3C17.4089 3 22 6.92196 22 12C22 17.078 17.4089 21 12 21C10.7561 21 9.56216 20.7955 8.45915 20.4199C8.44957 20.4166 8.44044 20.415 8.43315 20.4145C8.42791 20.4142 8.42503 20.4146 8.42455 20.4146L7.38012 20.6502C7.38978 20.648 7.40766 20.644 7.36781 20.6529L6.27304 20.8998C6.22388 20.9109 6.25226 20.9045 6.26751 20.901C6.27835 20.8986 6.28255 20.8977 6.24766 20.9055L3.99328 21.4139C3.98485 21.4158 3.98068 21.4167 3.97921 21.417L3.91134 21.4324C3.89353 21.4364 3.92015 21.4304 3.90243 21.4344C3.87896 21.4397 3.92154 21.4301 3.89808 21.4353L3.88545 21.4382C3.83041 21.4506 3.90836 21.433 3.85472 21.4451C3.11587 21.6117 2.44265 21.0025 2.51957 20.2593L2.97142 15.8932C2.97141 15.8923 2.97129 15.8892 2.97016 15.8837C2.96834 15.875 2.9644 15.8628 2.95717 15.849C2.34474 14.6844 2 13.3787 2 12Z" fill="#212121"/>
</svg>
