<svg width="24" height="24" viewBox="0 0 24 24" fill="none" xmlns="http://www.w3.org/2000/svg">
<path fill-rule="evenodd" clip-rule="evenodd" d="M11.316 1.27046C11.7007 0.909846 12.2993 0.909845 12.6839 1.27046L20.684 8.77046C21.2896 9.33824 20.9478 10.3893 20.124 10.4923L18.2958 10.7208L21.669 13.7567C22.2928 14.3182 21.9569 15.3882 21.124 15.4923L19.0362 15.7533L22.7399 19.8273C23.5665 20.7365 22.3524 21.4571 21.5686 21.6922C21.0765 21.8398 20.363 22.0342 19.4595 22.2278C17.6534 22.6148 15.0824 23 12 23C8.9176 23 6.34656 22.6148 4.54046 22.2278C3.18514 21.9374 2.2578 21.6454 1.86278 21.5116C1.1504 21.2703 0.682902 20.4622 1.26005 19.8273L4.96376 15.7533L2.87598 15.4923C2.04314 15.3882 1.70719 14.3182 2.33105 13.7567L5.70426 10.7208L3.87598 10.4923C3.05224 10.3893 2.71044 9.33824 3.31607 8.77046L11.316 1.27046ZM8.11902 9.00709L6.23861 8.77204L12 3.37073L17.7614 8.77204L15.8809 9.00711C15.063 9.10493 14.7279 10.207 15.3352 10.747L18.7043 13.7792L16.8882 14.0062C16.0948 14.0948 15.7367 15.1106 16.2674 15.6808L20.1937 19.9997C19.8609 20.0862 19.475 20.1791 19.0405 20.2722C17.3466 20.6352 14.9176 21 12 21C9.08238 21 6.65343 20.6352 4.95952 20.2722C4.52495 20.1791 4.13913 20.0862 3.80628 19.9997L7.73098 15.6825C8.28375 15.0915 7.89933 14.0944 7.11216 14.0062L5.29577 13.7792L8.66554 10.7464C9.27835 10.2004 8.94282 9.10549 8.11902 9.00709Z" fill="#212121"/>
</svg>
