<svg width="24" height="24" viewBox="0 0 24 24" fill="none" xmlns="http://www.w3.org/2000/svg">
<path fill-rule="evenodd" clip-rule="evenodd" d="M7.67269 14.2601C8.08135 14.6316 8.11146 15.264 7.73996 15.6727L3.8063 19.9997C4.13915 20.0862 4.52497 20.1791 4.95954 20.2722C6.65345 20.6352 9.0824 21 12 21C14.9176 21 17.3466 20.6352 19.0405 20.2722C19.4751 20.1791 19.8609 20.0862 20.1937 19.9997L16.2601 15.6727C15.8886 15.264 15.9187 14.6316 16.3273 14.2601C16.736 13.8886 17.3684 13.9187 17.74 14.3273L22.74 19.8273C22.963 20.0727 23.0499 20.4126 22.972 20.7349C22.8942 21.0572 22.6616 21.3199 22.3511 21.4363L22 20.5C22.3511 21.4363 22.3514 21.4362 22.3511 21.4363L22.3486 21.4373L22.3446 21.4388L22.3322 21.4433L22.29 21.4586C22.2542 21.4714 22.2031 21.4893 22.1372 21.5116C22.0055 21.5562 21.8147 21.6184 21.5686 21.6922C21.0766 21.8398 20.363 22.0342 19.4595 22.2278C17.6534 22.6148 15.0824 23 12 23C8.91763 23 6.34658 22.6148 4.54049 22.2278C3.63699 22.0342 2.92348 21.8398 2.43142 21.6922C2.18534 21.6184 1.99449 21.5562 1.8628 21.5116C1.79695 21.4893 1.74588 21.4714 1.71007 21.4586L1.66785 21.4433L1.65544 21.4388L1.65143 21.4373L1.64998 21.4367C1.64972 21.4366 1.64889 21.4363 2.00002 20.5L1.64889 21.4363C1.33844 21.3199 1.10587 21.0572 1.02799 20.7349C0.950112 20.4126 1.03704 20.0727 1.26008 19.8273L6.26008 14.3273C6.63158 13.9187 7.26403 13.8886 7.67269 14.2601Z" fill="black"/>
<path fill-rule="evenodd" clip-rule="evenodd" d="M11.3161 1.27046C11.7007 0.909846 12.2993 0.909845 12.6839 1.27046L20.684 8.77046C20.9668 9.03566 21.0709 9.44049 20.951 9.80924C20.8311 10.178 20.5088 10.4442 20.1241 10.4923L16.1241 10.9923C15.576 11.0608 15.0762 10.6721 15.0077 10.124C14.9392 9.57602 15.328 9.07623 15.876 9.00772L17.7614 8.77204L12 3.37073L6.23861 8.77204L8.12405 9.00772C8.67207 9.07623 9.06079 9.57602 8.99229 10.124C8.92379 10.6721 8.424 11.0608 7.87598 10.9923L3.87598 10.4923C3.49122 10.4442 3.16894 10.178 3.04903 9.80924C2.92912 9.4405 3.03319 9.03567 3.31607 8.77046L11.3161 1.27046Z" fill="black"/>
<path fill-rule="evenodd" clip-rule="evenodd" d="M8.74331 9.33104C9.11277 9.74155 9.07949 10.3738 8.66898 10.7433L5.29577 13.7792L7.12405 14.0077C7.67207 14.0762 8.0608 14.576 7.99229 15.124C7.92379 15.6721 7.424 16.0608 6.87598 15.9923L2.87598 15.4923C2.48757 15.4437 2.16319 15.173 2.04594 14.7996C1.92868 14.4261 2.0401 14.0186 2.33105 13.7567L7.33105 9.25671C7.74156 8.88725 8.37385 8.92053 8.74331 9.33104ZM15.2567 9.33104C15.6262 8.92053 16.2585 8.88725 16.669 9.25671L21.669 13.7567C21.9599 14.0186 22.0714 14.4261 21.9541 14.7996C21.8368 15.173 21.5125 15.4437 21.1241 15.4923L17.1241 15.9923C16.576 16.0608 16.0762 15.6721 16.0077 15.124C15.9392 14.576 16.328 14.0762 16.876 14.0077L18.7043 13.7792L15.331 10.7433C14.9205 10.3738 14.8873 9.74155 15.2567 9.33104Z" fill="black"/>
</svg>
