<svg width="24" height="25" viewBox="0 0 24 25" fill="none" xmlns="http://www.w3.org/2000/svg">
<path fill-rule="evenodd" clip-rule="evenodd" d="M11.316 1.36867C11.7007 1.00805 12.2993 1.00805 12.6839 1.36867L20.684 8.86867C21.2896 9.43644 20.9478 10.4875 20.124 10.5905L18.2958 10.819L21.669 13.8549C22.2928 14.4164 21.9569 15.4864 21.124 15.5905L19.0362 15.8515L22.7399 19.9255C23.5665 20.8348 22.3524 21.5553 21.5686 21.7904C21.0765 21.938 20.363 22.1324 19.4595 22.326C17.6534 22.713 15.0824 23.0982 12 23.0982C8.9176 23.0982 6.34656 22.713 4.54046 22.326C3.18514 22.0356 2.2578 21.7436 1.86278 21.6098C1.1504 21.3685 0.682902 20.5604 1.26005 19.9255L4.96376 15.8515L2.87598 15.5905C2.04314 15.4864 1.70719 14.4164 2.33105 13.8549L5.70426 10.819L3.87598 10.5905C3.05224 10.4875 2.71044 9.43644 3.31607 8.86867L11.316 1.36867ZM8.11902 9.1053L6.23861 8.87025L12 3.46894L17.7614 8.87025L15.8809 9.10532C15.063 9.20313 14.7279 10.3052 15.3352 10.8452L18.7043 13.8774L16.8882 14.1044C16.0948 14.193 15.7367 15.2088 16.2674 15.779L20.1937 20.0979C19.8609 20.1844 19.475 20.2773 19.0405 20.3704C17.3466 20.7334 14.9176 21.0982 12 21.0982C9.08238 21.0982 6.65343 20.7334 4.95952 20.3704C4.52495 20.2773 4.13913 20.1844 3.80628 20.0979L7.73098 15.7807C8.28375 15.1897 7.89933 14.1926 7.11216 14.1044L5.29577 13.8774L8.66554 10.8446C9.27835 10.2986 8.94282 9.20369 8.11902 9.1053Z" fill="#212121"/>
</svg>
