<svg width="24" height="25" viewBox="0 0 24 25" fill="none" xmlns="http://www.w3.org/2000/svg">
<path fill-rule="evenodd" clip-rule="evenodd" d="M3 5.09821C3 3.44135 4.34315 2.09821 6 2.09821H18C19.6569 2.09821 21 3.44135 21 5.09821V19.0982C21 20.7551 19.6569 22.0982 18 22.0982H6C4.34315 22.0982 3 20.7551 3 19.0982V5.09821ZM6 4.09821C5.44772 4.09821 5 4.54592 5 5.09821V19.0982C5 19.6505 5.44772 20.0982 6 20.0982H18C18.5523 20.0982 19 19.6505 19 19.0982V5.09821C19 4.54592 18.5523 4.09821 18 4.09821H6Z" fill="#212121"/>
<path fill-rule="evenodd" clip-rule="evenodd" d="M7 16.0982C7 15.5459 7.44772 15.0982 8 15.0982H13C13.5523 15.0982 14 15.5459 14 16.0982C14 16.6505 13.5523 17.0982 13 17.0982H8C7.44772 17.0982 7 16.6505 7 16.0982Z" fill="#212121"/>
<path fill-rule="evenodd" clip-rule="evenodd" d="M7 12.0982C7 11.5459 7.44772 11.0982 8 11.0982H15C15.5523 11.0982 16 11.5459 16 12.0982C16 12.6505 15.5523 13.0982 15 13.0982H8C7.44772 13.0982 7 12.6505 7 12.0982Z" fill="#212121"/>
<path fill-rule="evenodd" clip-rule="evenodd" d="M7 8.09821C7 7.54592 7.44772 7.09821 8 7.09821H15C15.5523 7.09821 16 7.54592 16 8.09821C16 8.65049 15.5523 9.09821 15 9.09821H8C7.44772 9.09821 7 8.65049 7 8.09821Z" fill="#212121"/>
</svg>
