<svg width="24" height="25" viewBox="0 0 24 25" fill="none" xmlns="http://www.w3.org/2000/svg">
<path fill-rule="evenodd" clip-rule="evenodd" d="M12 1.09821C12.5523 1.09821 13 1.54592 13 2.09821V5.16909C14.1859 5.33873 15.276 5.80563 16.1923 6.49189L18.3632 4.32094C18.7537 3.93041 19.3869 3.93041 19.7774 4.32094C20.1679 4.71146 20.1679 5.34463 19.7774 5.73515L17.6064 7.90612C18.2926 8.82235 18.7595 9.91234 18.9291 11.0982H22C22.5523 11.0982 23 11.5459 23 12.0982C23 12.6505 22.5523 13.0982 22 13.0982H18.9291C18.7595 14.2841 18.2926 15.3741 17.6064 16.2903L19.7779 18.4617C20.1684 18.8522 20.1684 19.4854 19.7779 19.8759C19.3873 20.2665 18.7542 20.2665 18.3637 19.8759L16.1923 17.7045C15.276 18.3908 14.1859 18.8577 13 19.0273V22.0982C13 22.6505 12.5523 23.0982 12 23.0982C11.4477 23.0982 11 22.6505 11 22.0982V19.0273C9.81413 18.8577 8.72414 18.3908 7.80792 17.7047L5.63649 19.8761C5.24597 20.2666 4.6128 20.2666 4.22228 19.8761C3.83175 19.4856 3.83175 18.8524 4.22228 18.4619L6.39368 16.2905C5.70742 15.3742 5.24052 14.2842 5.07089 13.0982H2C1.44772 13.0982 1 12.6505 1 12.0982C1 11.5459 1.44772 11.0982 2 11.0982H5.07089C5.24052 9.91226 5.70742 8.82221 6.39368 7.90595L4.22273 5.735C3.83221 5.34448 3.83221 4.71131 4.22273 4.32079C4.61326 3.93026 5.24642 3.93026 5.63695 4.32079L7.80792 6.49176C8.72414 5.80557 9.81413 5.33872 11 5.16909V2.09821C11 1.54592 11.4477 1.09821 12 1.09821ZM8.43313 8.59429C8.44405 8.58429 8.4548 8.574 8.46537 8.56343C8.47594 8.55286 8.48622 8.54212 8.49621 8.53121C9.39841 7.64489 10.6354 7.09821 12 7.09821C13.3647 7.09821 14.6017 7.64494 15.5039 8.53133C15.5139 8.54225 15.5242 8.553 15.5348 8.56358C15.5453 8.57415 15.5561 8.58443 15.567 8.59442C16.4533 9.49662 17 10.7336 17 12.0982C17 13.4681 16.4491 14.7093 15.5568 15.6123C15.5495 15.6192 15.5423 15.6262 15.5352 15.6333C15.5281 15.6404 15.5211 15.6477 15.5142 15.655C14.6111 16.5473 13.3699 17.0982 12 17.0982C10.6301 17.0982 9.38895 16.5473 8.48587 15.655C8.47902 15.6477 8.47203 15.6406 8.46492 15.6334C8.45777 15.6263 8.45054 15.6193 8.44323 15.6124C7.55089 14.7093 7 13.4681 7 12.0982C7 10.7335 7.54674 9.4965 8.43313 8.59429Z" fill="#212121"/>
</svg>
