<svg width="24" height="24" viewBox="0 0 24 24" fill="none" xmlns="http://www.w3.org/2000/svg">
<path fill-rule="evenodd" clip-rule="evenodd" d="M12 1C12.5523 1 13 1.44772 13 2V5.07089C14.1859 5.24052 15.276 5.70742 16.1923 6.39368L18.3632 4.22273C18.7537 3.83221 19.3869 3.83221 19.7774 4.22273C20.1679 4.61326 20.1679 5.24642 19.7774 5.63695L17.6064 7.80792C18.2926 8.72414 18.7595 9.81413 18.9291 11H22C22.5523 11 23 11.4477 23 12C23 12.5523 22.5523 13 22 13H18.9291C18.7595 14.1859 18.2926 15.2759 17.6064 16.1921L19.7779 18.3635C20.1684 18.754 20.1684 19.3872 19.7779 19.7777C19.3873 20.1682 18.7542 20.1682 18.3637 19.7777L16.1923 17.6063C15.276 18.2926 14.1859 18.7595 13 18.9291V22C13 22.5523 12.5523 23 12 23C11.4477 23 11 22.5523 11 22V18.9291C9.81413 18.7595 8.72414 18.2926 7.80792 17.6064L5.63649 19.7779C5.24597 20.1684 4.6128 20.1684 4.22228 19.7779C3.83175 19.3873 3.83175 18.7542 4.22228 18.3637L6.39368 16.1923C5.70742 15.276 5.24052 14.1859 5.07089 13H2C1.44772 13 1 12.5523 1 12C1 11.4477 1.44772 11 2 11H5.07089C5.24052 9.81406 5.70742 8.724 6.39368 7.80774L4.22273 5.63679C3.83221 5.24627 3.83221 4.61311 4.22273 4.22258C4.61326 3.83206 5.24642 3.83206 5.63695 4.22258L7.80792 6.39355C8.72414 5.70736 9.81413 5.24051 11 5.07089V2C11 1.44772 11.4477 1 12 1ZM8.43313 8.49608C8.44405 8.48608 8.4548 8.4758 8.46537 8.46522C8.47594 8.45466 8.48622 8.44391 8.49621 8.433C9.39841 7.54669 10.6354 7 12 7C13.3647 7 14.6017 7.54674 15.5039 8.43312C15.5139 8.44404 15.5242 8.4548 15.5348 8.46537C15.5453 8.47594 15.5561 8.48622 15.567 8.49622C16.4533 9.39842 17 10.6354 17 12C17 13.3699 16.4491 14.611 15.5568 15.5141C15.5495 15.521 15.5423 15.528 15.5352 15.5351C15.5281 15.5422 15.5211 15.5495 15.5142 15.5568C14.6111 16.4491 13.3699 17 12 17C10.6301 17 9.38895 16.4491 8.48587 15.5568C8.47902 15.5495 8.47203 15.5423 8.46492 15.5352C8.45777 15.5281 8.45054 15.5211 8.44323 15.5142C7.55089 14.6111 7 13.3699 7 12C7 10.6353 7.54674 9.3983 8.43313 8.49608Z" fill="#212121"/>
</svg>
