<svg width="24" height="25" viewBox="0 0 24 25" fill="none" xmlns="http://www.w3.org/2000/svg">
<path fill-rule="evenodd" clip-rule="evenodd" d="M6 4.09821C6 2.44135 7.34315 1.09821 9 1.09821C10.6569 1.09821 12 2.44135 12 4.09821V14.0979C13.2132 15.0092 14 16.4612 14 18.0981C14 20.8595 11.7614 23.0981 9 23.0981C6.23858 23.0981 4 20.8595 4 18.0981C4 16.4612 4.7868 15.0092 6 14.0979V4.09821ZM10 4.09821V15.2685C10.0158 15.2741 10.0316 15.2798 10.0473 15.2857C10.1636 15.329 10.2765 15.3793 10.3855 15.4363C11.3471 15.9382 12 16.9427 12 18.0981C12 19.7549 10.6569 21.0981 9 21.0981C7.34315 21.0981 6 19.7549 6 18.0981C6 16.9427 6.65285 15.9382 7.61446 15.4363C7.72352 15.3793 7.83644 15.329 7.95269 15.2857C7.9684 15.2798 7.98417 15.2741 8 15.2685V4.09821C8 3.54592 8.44772 3.09821 9 3.09821C9.55228 3.09821 10 3.54592 10 4.09821Z" fill="#212121"/>
<path d="M21 5.09821C21.5523 5.09821 22 4.65049 22 4.09821C22 3.54592 21.5523 3.09821 21 3.09821L16 3.09821C15.4477 3.09821 15 3.54592 15 4.09821C15 4.65049 15.4477 5.09821 16 5.09821L21 5.09821Z" fill="#212121"/>
<path d="M22 8.09821C22 8.65049 21.5523 9.09821 21 9.09821L16 9.09821C15.4477 9.09821 15 8.65049 15 8.09821C15 7.54592 15.4477 7.09821 16 7.09821L21 7.09821C21.5523 7.09821 22 7.54592 22 8.09821Z" fill="#212121"/>
<path d="M21 13.0982C21.5523 13.0982 22 12.6505 22 12.0982C22 11.5459 21.5523 11.0982 21 11.0982H16C15.4477 11.0982 15 11.5459 15 12.0982C15 12.6505 15.4477 13.0982 16 13.0982H21Z" fill="#212121"/>
</svg>
