<svg width="24" height="24" viewBox="0 0 24 24" fill="none" xmlns="http://www.w3.org/2000/svg">
<path fill-rule="evenodd" clip-rule="evenodd" d="M6 4C6 2.34315 7.34315 1 9 1C10.6569 1 12 2.34315 12 4V15H10V4C10 3.44772 9.55228 3 9 3C8.44772 3 8 3.44772 8 4V15H6V4Z" fill="#212121"/>
<path fill-rule="evenodd" clip-rule="evenodd" d="M10 15.1703V14.2662L10.2931 13.1689C10.447 13.2101 10.5979 13.2583 10.7456 13.3133C10.9401 13.3858 11.1289 13.47 11.311 13.565C12.9069 14.3981 14 16.0705 14 17.9999C14 20.7613 11.7614 22.9999 9 22.9999C6.23858 22.9999 4 20.7613 4 17.9999C4 16.0705 5.09306 14.3981 6.68903 13.565C6.87111 13.47 7.05986 13.3858 7.2544 13.3133C7.40206 13.2583 7.55302 13.2101 7.7069 13.1689L8 14.2662V15.1703C7.98417 15.1759 7.9684 15.1816 7.95269 15.1875C7.83644 15.2308 7.72352 15.2811 7.61446 15.3381C6.65285 15.84 6 16.8445 6 17.9999C6 19.6567 7.34315 20.9999 9 20.9999C10.6569 20.9999 12 19.6567 12 17.9999C12 16.8445 11.3471 15.84 10.3855 15.3381C10.2765 15.2811 10.1636 15.2308 10.0473 15.1875C10.0316 15.1816 10.0158 15.1759 10 15.1703Z" fill="#212121"/>
<path fill-rule="evenodd" clip-rule="evenodd" d="M22 4C22 4.55228 21.5523 5 21 5L16 5C15.4477 5 15 4.55228 15 4C15 3.44771 15.4477 3 16 3L21 3C21.5523 3 22 3.44772 22 4Z" fill="#212121"/>
<path fill-rule="evenodd" clip-rule="evenodd" d="M22 8C22 8.55228 21.5523 9 21 9L16 9C15.4477 9 15 8.55228 15 8C15 7.44771 15.4477 7 16 7L21 7C21.5523 7 22 7.44772 22 8Z" fill="#212121"/>
<path fill-rule="evenodd" clip-rule="evenodd" d="M22 12C22 12.5523 21.5523 13 21 13H16C15.4477 13 15 12.5523 15 12C15 11.4477 15.4477 11 16 11H21C21.5523 11 22 11.4477 22 12Z" fill="#212121"/>
</svg>
