<svg width="24" height="24" viewBox="0 0 24 24" fill="none" xmlns="http://www.w3.org/2000/svg">
<path fill-rule="evenodd" clip-rule="evenodd" d="M6 4C6 2.34315 7.34315 1 9 1C10.6569 1 12 2.34315 12 4V13.9997C13.2132 14.911 14 16.3629 14 17.9999C14 20.7613 11.7614 22.9999 9 22.9999C6.23858 22.9999 4 20.7613 4 17.9999C4 16.3629 4.7868 14.911 6 13.9997V4ZM10 4V15.1703C10.0158 15.1759 10.0316 15.1816 10.0473 15.1875C10.1636 15.2308 10.2765 15.2811 10.3855 15.3381C11.3471 15.84 12 16.8445 12 17.9999C12 19.6567 10.6569 20.9999 9 20.9999C7.34315 20.9999 6 19.6567 6 17.9999C6 16.8445 6.65285 15.84 7.61446 15.3381C7.72352 15.2811 7.83644 15.2308 7.95269 15.1875C7.9684 15.1816 7.98417 15.1759 8 15.1703V4C8 3.44772 8.44772 3 9 3C9.55228 3 10 3.44772 10 4Z" fill="#212121"/>
<path d="M21 5C21.5523 5 22 4.55228 22 4C22 3.44772 21.5523 3 21 3L16 3C15.4477 3 15 3.44771 15 4C15 4.55228 15.4477 5 16 5L21 5Z" fill="#212121"/>
<path d="M22 8C22 8.55228 21.5523 9 21 9L16 9C15.4477 9 15 8.55228 15 8C15 7.44771 15.4477 7 16 7L21 7C21.5523 7 22 7.44772 22 8Z" fill="#212121"/>
<path d="M21 13C21.5523 13 22 12.5523 22 12C22 11.4477 21.5523 11 21 11H16C15.4477 11 15 11.4477 15 12C15 12.5523 15.4477 13 16 13H21Z" fill="#212121"/>
</svg>
