<svg width="24" height="24" viewBox="0 0 24 24" fill="none" xmlns="http://www.w3.org/2000/svg">
<path fill-rule="evenodd" clip-rule="evenodd" d="M15.0001 7.99996V4.99998C15.0001 3.41241 12.6233 1 11.0001 1C10.5001 1 10.1965 1.3459 10.0862 1.59386L6.43442 10H4C2.366 10 1 11.366 1 13V20C1 21.634 2.366 23 4 23H6.52716C10.4823 23.0009 14.4376 23.0007 18.3927 23.0002C19.8443 23 21.0887 21.9612 21.3441 20.53C21.7907 18.0276 22.6277 13.3172 22.9865 11.1643C23.3393 9.04739 22.5001 7.99996 20.0595 7.99996L15.0001 7.99996ZM6 12H4C3.45533 12 3 12.4553 3 13V20C3 20.5447 3.45533 21 4 21H6V12ZM8.00006 11.2122L11.4631 3.42028C11.5019 3.44549 11.5452 3.4731 11.5919 3.50293C12.095 3.82403 13.0001 4.40163 13.0001 4.99998V8.99996C13.0001 9.55224 13.4478 9.99996 14.0001 9.99996L20.0001 10C21.0137 10 21.121 10.2742 21.0001 11C20.7241 12.6556 20.1699 15.7456 19.726 18.22C19.5965 18.9423 19.4763 19.6122 19.3752 20.1787C19.2904 20.6538 18.8773 21.0001 18.3925 21.0002C15.9709 21.0005 13.5494 21.0003 11.1278 21.0001C10.0853 21 9.04268 20.9999 8.00006 20.9999V11.2122Z" fill="#212121"/>
</svg>
