<svg width="24" height="25" viewBox="0 0 24 25" fill="none" xmlns="http://www.w3.org/2000/svg">
<path fill-rule="evenodd" clip-rule="evenodd" d="M4 12.0982C3.45533 12.0982 3 12.5535 3 13.0982V20.0982C3 20.6429 3.45533 21.0982 4 21.0982H6V12.0982H4ZM4 10.0982H8C8 11.5982 8 21.4758 8 23.0982C6.66667 23.0982 5.33333 23.0982 4 23.0982C2.366 23.0982 1 21.7322 1 20.0982V13.0982C1 11.4642 2.366 10.0982 4 10.0982Z" fill="#212121"/>
<path fill-rule="evenodd" clip-rule="evenodd" d="M15.0001 5.09819V8.09816L20.0595 8.09816C22.5001 8.09816 23.3393 9.1456 22.9865 11.2625C22.6277 13.4154 21.7907 18.1258 21.3441 20.6282C21.0887 22.0594 19.8443 23.0982 18.3927 23.0984C14.2619 23.0989 10.1309 23.0991 6.00006 23.0981C6 19.5982 6 14.0982 6 11.0982L10.0862 1.69207C10.1965 1.44411 10.5001 1.09821 11.0001 1.09821C12.6233 1.0982 15.0001 3.51061 15.0001 5.09819ZM11.4631 3.51848L8.00006 11.3104V21.0981C11.4644 21.0982 14.9283 21.0988 18.3925 21.0984C18.8773 21.0983 19.2904 20.752 19.3752 20.2769C19.8226 17.77 20.6436 13.2371 21.0001 11.0982C21.121 10.3724 21.0137 10.0982 20.0001 10.0982C18.0001 10.0982 14.6675 10.0982 14.0001 10.0982C13.4478 10.0982 13.0001 9.65045 13.0001 9.09816V5.09819C13.0001 4.44426 11.9191 3.81512 11.4631 3.51848Z" fill="#212121"/>
</svg>
