<svg width="24" height="25" viewBox="0 0 24 25" fill="none" xmlns="http://www.w3.org/2000/svg">
<path d="M7.5 12.0982C8.32843 12.0982 9 11.4266 9 10.5982C9 9.76978 8.32843 9.09821 7.5 9.09821C6.67157 9.09821 6 9.76978 6 10.5982C6 11.4266 6.67157 12.0982 7.5 12.0982Z" fill="#212121"/>
<path d="M12.5 12.0982C13.3284 12.0982 14 11.4266 14 10.5982C14 9.76978 13.3284 9.09821 12.5 9.09821C11.6716 9.09821 11 9.76978 11 10.5982C11 11.4266 11.6716 12.0982 12.5 12.0982Z" fill="#212121"/>
<path d="M19 10.5982C19 11.4266 18.3284 12.0982 17.5 12.0982C16.6716 12.0982 16 11.4266 16 10.5982C16 9.76978 16.6716 9.09821 17.5 9.09821C18.3284 9.09821 19 9.76978 19 10.5982Z" fill="#212121"/>
<path fill-rule="evenodd" clip-rule="evenodd" d="M4 2.09821C2.89543 2.09821 2 2.99364 2 4.09821V17.0982C2 18.2028 2.89543 19.0982 4 19.0982H7C7 19.0982 8.9132 21.7222 9.66331 22.0615C9.88354 22.1611 10.1143 22.1611 10.3188 22.0615C11.0715 21.6948 13 19.0982 13 19.0982H21C22.1046 19.0982 23 18.2028 23 17.0982V4.09821C23 2.99364 22.1046 2.09821 21 2.09821H4ZM5 4.09821C4.44772 4.09821 4 4.54592 4 5.09821V16.0982C4 16.6505 4.44772 17.0982 5 17.0982H8C8 17.0982 9.8646 19.7148 10 19.7148C10.1354 19.7148 12 17.0982 12 17.0982H20C20.5523 17.0982 21 16.6505 21 16.0982V5.09821C21 4.54592 20.5523 4.09821 20 4.09821H5Z" fill="#212121"/>
</svg>
