<svg width="24" height="25" viewBox="0 0 24 25" fill="none" xmlns="http://www.w3.org/2000/svg">
<path d="M13 8.09821C13 7.54592 12.5523 7.09821 12 7.09821C11.4477 7.09821 11 7.54592 11 8.09821L11 10.0982H9C8.44772 10.0982 8 10.5459 8 11.0982C8 11.6505 8.44772 12.0982 9 12.0982H11L11 14.0982C11 14.6505 11.4477 15.0982 12 15.0982C12.5523 15.0982 13 14.6505 13 14.0982L13 12.0982H15C15.5523 12.0982 16 11.6505 16 11.0982C16 10.5459 15.5523 10.0982 15 10.0982H13L13 8.09821Z" fill="#212121"/>
<path fill-rule="evenodd" clip-rule="evenodd" d="M4 3.09821C2.34315 3.09821 1 4.44135 1 6.0982V16.0746C1 17.7347 2.34822 19.0792 4.00831 19.0746L8.02912 19.0635L10.1511 21.6404C10.5902 22.1737 11.4066 22.1749 11.8473 21.6429L13.9702 19.0802H20C21.6569 19.0802 23 17.737 23 16.0802V6.09821C23 4.44135 21.6569 3.09821 20 3.09821H4ZM3 6.0982C3 5.54592 3.44771 5.09821 4 5.09821H20C20.5523 5.09821 21 5.54592 21 6.09821V16.0802C21 16.6325 20.5523 17.0802 20 17.0802H13.0298L11.0023 19.5278L8.97088 17.0609L4.00277 17.0746C3.44941 17.0762 3 16.628 3 16.0746V6.0982Z" fill="#212121"/>
</svg>
