<svg width="24" height="24" viewBox="0 0 24 24" fill="none" xmlns="http://www.w3.org/2000/svg">
<path d="M13 8C13 7.44771 12.5523 7 12 7C11.4477 7 11 7.44772 11 8L11 10H9C8.44772 10 8 10.4477 8 11C8 11.5523 8.44772 12 9 12H11L11 14C11 14.5523 11.4477 15 12 15C12.5523 15 13 14.5523 13 14L13 12H15C15.5523 12 16 11.5523 16 11C16 10.4477 15.5523 10 15 10H13L13 8Z" fill="#212121"/>
<path fill-rule="evenodd" clip-rule="evenodd" d="M4 3C2.34315 3 1 4.34314 1 6V15.9764C1 17.6365 2.34822 18.981 4.00831 18.9764L8.02912 18.9653L10.1511 21.5422C10.5902 22.0755 11.4066 22.0767 11.8473 21.5447L13.9702 18.982H20C21.6569 18.982 23 17.6388 23 15.982V6C23 4.34315 21.6569 3 20 3H4ZM3 6C3 5.44771 3.44771 5 4 5H20C20.5523 5 21 5.44772 21 6V15.982C21 16.5343 20.5523 16.982 20 16.982H13.0298L11.0023 19.4296L8.97088 16.9627L4.00277 16.9764C3.44941 16.978 3 16.5298 3 15.9764V6Z" fill="#212121"/>
</svg>
