<svg width="24" height="24" viewBox="0 0 24 24" fill="none" xmlns="http://www.w3.org/2000/svg">
<path d="M3 13.2917C3 8.13273 7.05634 4 12 4C16.9437 4 21 8.13273 21 13.2917C21 13.8198 20.9574 14.3369 20.8758 14.8398C20.7873 15.3849 21.1575 15.8986 21.7026 15.9871C22.2478 16.0756 22.7615 15.7054 22.8499 15.1602C22.9487 14.5518 23 13.9275 23 13.2917C23 7.08275 18.102 2 12 2C5.89796 2 1 7.08275 1 13.2917C1 13.9275 1.05129 14.5518 1.15005 15.1602C1.23855 15.7054 1.75222 16.0756 2.29737 15.9871C2.84251 15.8986 3.21271 15.3849 3.12421 14.8398C3.04259 14.3369 3 13.8198 3 13.2917Z" fill="#212121"/>
<path d="M7.99997 13C7.99997 10.7204 9.76081 9 11.9583 9C14.135 9 16 11.031 16 13C16 13.5523 16.4477 14 17 14C17.5523 14 18 13.5523 18 13C18 9.96902 15.2817 7 11.9583 7C8.6558 7 5.99997 9.61626 5.99997 13C5.99997 14.4173 5.59198 17.3177 5.20796 18.7392C5.06391 19.2724 5.37936 19.8213 5.91253 19.9654C6.4457 20.1094 6.99469 19.794 7.13873 19.2608C7.56435 17.6854 7.99997 14.6094 7.99997 13Z" fill="#212121"/>
<path d="M17.6564 17.1431C17.7355 16.5965 17.3564 16.0893 16.8098 16.0103C16.2632 15.9313 15.756 16.3103 15.677 16.8569C15.5167 17.966 15.3172 19.0216 15.1198 19.7324C14.972 20.2646 15.2836 20.8158 15.8157 20.9635C16.3479 21.1113 16.8991 20.7997 17.0468 20.2676C17.2775 19.4369 17.4913 18.2851 17.6564 17.1431Z" fill="#212121"/>
<path d="M12 12C12.5523 12 13 12.4477 13 13C13 13.1004 13.0006 13.2036 13.0012 13.3094C13.0077 14.3779 13.0158 15.7044 12.3944 16.9472C12.1474 17.4412 11.5467 17.6414 11.0528 17.3944C10.5588 17.1474 10.3586 16.5468 10.6055 16.0528C11.0034 15.2571 11.0021 14.405 11.0002 13.2446L11 13C11 12.4477 11.4477 12 12 12Z" fill="#212121"/>
<path d="M11.9487 20.3162C12.1234 19.7923 11.8402 19.226 11.3163 19.0513C10.7923 18.8767 10.226 19.1598 10.0513 19.6838L9.55134 21.1838C9.3767 21.7077 9.65986 22.274 10.1838 22.4487C10.7077 22.6233 11.2741 22.3402 11.4487 21.8162L11.9487 20.3162Z" fill="#212121"/>
</svg>
