<svg width="24" height="25" viewBox="0 0 24 25" fill="none" xmlns="http://www.w3.org/2000/svg">
<path d="M3 13.3899C3 8.23093 7.05634 4.09821 12 4.09821C16.9437 4.09821 21 8.23093 21 13.3899C21 13.918 20.9574 14.4351 20.8758 14.938C20.7873 15.4831 21.1575 15.9968 21.7026 16.0853C22.2478 16.1738 22.7615 15.8036 22.8499 15.2584C22.9487 14.65 23 14.0257 23 13.3899C23 7.18095 18.102 2.09821 12 2.09821C5.89796 2.09821 1 7.18095 1 13.3899C1 14.0257 1.05129 14.65 1.15005 15.2584C1.23855 15.8036 1.75222 16.1738 2.29737 16.0853C2.84251 15.9968 3.21271 15.4831 3.12421 14.938C3.04259 14.4351 3 13.918 3 13.3899Z" fill="#212121"/>
<path d="M7.99997 13.0982C7.99997 10.8186 9.76081 9.09821 11.9583 9.09821C14.135 9.09821 16 11.1292 16 13.0982C16 13.6505 16.4477 14.0982 17 14.0982C17.5523 14.0982 18 13.6505 18 13.0982C18 10.0672 15.2817 7.09821 11.9583 7.09821C8.6558 7.09821 5.99997 9.71446 5.99997 13.0982C5.99997 14.5155 5.59198 17.4159 5.20796 18.8374C5.06391 19.3706 5.37936 19.9196 5.91253 20.0636C6.4457 20.2076 6.99469 19.8922 7.13873 19.359C7.56435 17.7836 7.99997 14.7076 7.99997 13.0982Z" fill="#212121"/>
<path d="M17.6564 17.2413C17.7355 16.6947 17.3564 16.1875 16.8098 16.1085C16.2632 16.0295 15.756 16.4085 15.677 16.9551C15.5167 18.0642 15.3172 19.1198 15.1198 19.8306C14.972 20.3628 15.2836 20.914 15.8157 21.0617C16.3479 21.2095 16.8991 20.8979 17.0468 20.3658C17.2775 19.5351 17.4913 18.3833 17.6564 17.2413Z" fill="#212121"/>
<path d="M12 12.0982C12.5523 12.0982 13 12.5459 13 13.0982C13 13.1986 13.0006 13.3018 13.0012 13.4076C13.0077 14.4761 13.0158 15.8026 12.3944 17.0454C12.1474 17.5394 11.5467 17.7396 11.0528 17.4926C10.5588 17.2456 10.3586 16.645 10.6055 16.151C11.0034 15.3553 11.0021 14.5032 11.0002 13.3428L11 13.0982C11 12.5459 11.4477 12.0982 12 12.0982Z" fill="#212121"/>
<path d="M11.9487 20.4144C12.1234 19.8905 11.8402 19.3242 11.3163 19.1495C10.7923 18.9749 10.226 19.258 10.0513 19.782L9.55134 21.282C9.3767 21.8059 9.65986 22.3722 10.1838 22.5469C10.7077 22.7215 11.2741 22.4384 11.4487 21.9144L11.9487 20.4144Z" fill="#212121"/>
</svg>
