<svg width="24" height="25" viewBox="0 0 24 25" fill="none" xmlns="http://www.w3.org/2000/svg">
<path fill-rule="evenodd" clip-rule="evenodd" d="M14 3.09821C15.6569 3.09821 17 4.44135 17 6.09821V17.0982H20V16.0982C20 15.5459 20.4477 15.0982 21 15.0982C21.5523 15.0982 22 15.5459 22 16.0982V20.0982C22 20.6505 21.5523 21.0982 21 21.0982C20.4477 21.0982 20 20.6505 20 20.0982V19.0982H12.874C12.4299 20.8234 10.8638 22.0982 9 22.0982C7.13616 22.0982 5.57006 20.8234 5.12602 19.0982H4C2.34315 19.0982 1 17.7551 1 16.0982V6.09821C1 4.44135 2.34315 3.09821 4 3.09821H14ZM7 18.0982C7 19.2028 7.89543 20.0982 9 20.0982C10.1046 20.0982 11 19.2028 11 18.0982C11 16.9936 10.1046 16.0982 9 16.0982C7.89543 16.0982 7 16.9936 7 18.0982ZM12.874 17.0982C12.4299 15.373 10.8638 14.0982 9 14.0982C7.13616 14.0982 5.57006 15.373 5.12602 17.0982H4C3.44772 17.0982 3 16.6505 3 16.0982V6.09821C3 5.54592 3.44772 5.09821 4 5.09821H14C14.5523 5.09821 15 5.54592 15 6.09821V17.0982H12.874Z" fill="#212121"/>
</svg>
