<svg width="24" height="24" viewBox="0 0 24 24" fill="none" xmlns="http://www.w3.org/2000/svg">
<path fill-rule="evenodd" clip-rule="evenodd" d="M14 3C15.6569 3 17 4.34315 17 6V17H20V16C20 15.4477 20.4477 15 21 15C21.5523 15 22 15.4477 22 16V20C22 20.5523 21.5523 21 21 21C20.4477 21 20 20.5523 20 20V19H12.874C12.4299 20.7252 10.8638 22 9 22C7.13616 22 5.57006 20.7252 5.12602 19H4C2.34315 19 1 17.6569 1 16V6C1 4.34315 2.34315 3 4 3H14ZM7 18C7 19.1046 7.89543 20 9 20C10.1046 20 11 19.1046 11 18C11 16.8954 10.1046 16 9 16C7.89543 16 7 16.8954 7 18ZM12.874 17C12.4299 15.2748 10.8638 14 9 14C7.13616 14 5.57006 15.2748 5.12602 17H4C3.44772 17 3 16.5523 3 16V6C3 5.44772 3.44772 5 4 5H14C14.5523 5 15 5.44772 15 6V17H12.874Z" fill="#212121"/>
</svg>
