<svg width="24" height="24" viewBox="0 0 24 24" fill="none" xmlns="http://www.w3.org/2000/svg">
<path fill-rule="evenodd" clip-rule="evenodd" d="M17 1C15.3431 1 14 2.34315 14 4V7C14 8.65685 15.3431 10 17 10H20C21.6569 10 23 8.65685 23 7V4C23 2.34315 21.6569 1 20 1H17ZM16 4C16 3.44772 16.4477 3 17 3H20C20.5523 3 21 3.44772 21 4V7C21 7.55228 20.5523 8 20 8H17C16.4477 8 16 7.55228 16 7V4Z" fill="black"/>
<path d="M20 15.4142L20.2929 15.7071C20.6834 16.0976 21.3166 16.0976 21.7071 15.7071C22.0976 15.3166 22.0976 14.6834 21.7071 14.2929L19.7071 12.2929C19.3166 11.9024 18.6834 11.9024 18.2929 12.2929L16.2929 14.2929C15.9024 14.6834 15.9024 15.3166 16.2929 15.7071C16.6834 16.0976 17.3166 16.0976 17.7071 15.7071L18 15.4142V18C18 18.5523 17.5523 19 17 19H13.5C12.9477 19 12.5 19.4477 12.5 20C12.5 20.5523 12.9477 21 13.5 21H17C18.6569 21 20 19.6569 20 18V15.4142Z" fill="black"/>
<path fill-rule="evenodd" clip-rule="evenodd" d="M4 14C2.34315 14 1 15.3431 1 17V20C1 21.6569 2.34315 23 4 23H7C8.65685 23 10 21.6569 10 20V17C10 15.3431 8.65685 14 7 14H4ZM3 17C3 16.4477 3.44772 16 4 16H7C7.55228 16 8 16.4477 8 17V20C8 20.5523 7.55228 21 7 21H4C3.44772 21 3 20.5523 3 20V17Z" fill="black"/>
<path d="M2.29289 8.29289C2.68342 7.90237 3.31658 7.90237 3.70711 8.29289L4 8.58579V6C4 4.34315 5.34315 3 7 3H10.5C11.0523 3 11.5 3.44772 11.5 4C11.5 4.55228 11.0523 5 10.5 5H7C6.44772 5 6 5.44772 6 6V8.58579L6.29289 8.29289C6.68342 7.90237 7.31658 7.90237 7.70711 8.29289C8.09763 8.68342 8.09763 9.31658 7.70711 9.70711L5.70711 11.7071C5.31658 12.0976 4.68342 12.0976 4.29289 11.7071L2.29289 9.70711C1.90237 9.31658 1.90237 8.68342 2.29289 8.29289Z" fill="black"/>
</svg>
