<svg width="24" height="25" viewBox="0 0 24 25" fill="none" xmlns="http://www.w3.org/2000/svg">
<path fill-rule="evenodd" clip-rule="evenodd" d="M17 1.09821C15.3431 1.09821 14 2.44135 14 4.09821V7.09821C14 8.75506 15.3431 10.0982 17 10.0982H20C21.6569 10.0982 23 8.75506 23 7.09821V4.09821C23 2.44135 21.6569 1.09821 20 1.09821H17ZM16 4.09821C16 3.54592 16.4477 3.09821 17 3.09821H20C20.5523 3.09821 21 3.54592 21 4.09821V7.09821C21 7.65049 20.5523 8.09821 20 8.09821H17C16.4477 8.09821 16 7.65049 16 7.09821V4.09821Z" fill="#212121"/>
<path d="M20 15.5124L20.2929 15.8053C20.6834 16.1958 21.3166 16.1958 21.7071 15.8053C22.0976 15.4148 22.0976 14.7816 21.7071 14.3911L19.7071 12.3911C19.3166 12.0006 18.6834 12.0006 18.2929 12.3911L16.2929 14.3911C15.9024 14.7816 15.9024 15.4148 16.2929 15.8053C16.6834 16.1958 17.3166 16.1958 17.7071 15.8053L18 15.5124V18.0982C18 18.6505 17.5523 19.0982 17 19.0982H13.5C12.9477 19.0982 12.5 19.5459 12.5 20.0982C12.5 20.6505 12.9477 21.0982 13.5 21.0982H17C18.6569 21.0982 20 19.7551 20 18.0982V15.5124Z" fill="#212121"/>
<path fill-rule="evenodd" clip-rule="evenodd" d="M4 14.0982C2.34315 14.0982 1 15.4414 1 17.0982V20.0982C1 21.7551 2.34315 23.0982 4 23.0982H7C8.65685 23.0982 10 21.7551 10 20.0982V17.0982C10 15.4414 8.65685 14.0982 7 14.0982H4ZM3 17.0982C3 16.5459 3.44772 16.0982 4 16.0982H7C7.55228 16.0982 8 16.5459 8 17.0982V20.0982C8 20.6505 7.55228 21.0982 7 21.0982H4C3.44772 21.0982 3 20.6505 3 20.0982V17.0982Z" fill="#212121"/>
<path d="M2.29289 8.3911C2.68342 8.00057 3.31658 8.00057 3.70711 8.3911L4 8.68399V6.09821C4 4.44135 5.34315 3.09821 7 3.09821H10.5C11.0523 3.09821 11.5 3.54592 11.5 4.09821C11.5 4.65049 11.0523 5.09821 10.5 5.09821H7C6.44772 5.09821 6 5.54592 6 6.09821V8.68399L6.29289 8.3911C6.68342 8.00057 7.31658 8.00057 7.70711 8.3911C8.09763 8.78162 8.09763 9.41479 7.70711 9.80531L5.70711 11.8053C5.31658 12.1958 4.68342 12.1958 4.29289 11.8053L2.29289 9.80531C1.90237 9.41479 1.90237 8.78162 2.29289 8.3911Z" fill="#212121"/>
</svg>
