<svg width="24" height="24" viewBox="0 0 24 24" fill="none" xmlns="http://www.w3.org/2000/svg">
<path fill-rule="evenodd" clip-rule="evenodd" d="M10 4C9.44772 4 9 4.44772 9 5H15C15 4.44772 14.5523 4 14 4H10ZM16.9311 7H7.06889L7.87332 19.0665C7.90834 19.5918 8.34464 20 8.87111 20H15.1289C15.6554 20 16.0917 19.5918 16.1267 19.0665L16.9311 7ZM7 5H4C3.44772 5 3 5.44772 3 6C3 6.55228 3.44772 7 4 7H5.06445L5.87775 19.1996C5.98281 20.7754 7.29171 22 8.87111 22H15.1289C16.7083 22 18.0172 20.7754 18.1222 19.1996L18.9356 7H20C20.5523 7 21 6.55228 21 6C21 5.44772 20.5523 5 20 5H17C17 3.34315 15.6569 2 14 2H10C8.34315 2 7 3.34315 7 5Z" fill="black"/>
</svg>
