<svg width="24" height="25" viewBox="0 0 24 25" fill="none" xmlns="http://www.w3.org/2000/svg">
<path fill-rule="evenodd" clip-rule="evenodd" d="M10 4.09821C9.44772 4.09821 9 4.54592 9 5.09821H15C15 4.54592 14.5523 4.09821 14 4.09821H10ZM16.9311 7.09821H7.06889L7.87332 19.1647C7.90834 19.69 8.34464 20.0982 8.87111 20.0982H15.1289C15.6554 20.0982 16.0917 19.69 16.1267 19.1647L16.9311 7.09821ZM7 5.09821H4C3.44772 5.09821 3 5.54592 3 6.09821C3 6.65049 3.44772 7.09821 4 7.09821H5.06445L5.87775 19.2978C5.98281 20.8737 7.29171 22.0982 8.87111 22.0982H15.1289C16.7083 22.0982 18.0172 20.8737 18.1222 19.2978L18.9356 7.09821H20C20.5523 7.09821 21 6.65049 21 6.09821C21 5.54592 20.5523 5.09821 20 5.09821H17C17 3.44135 15.6569 2.09821 14 2.09821H10C8.34315 2.09821 7 3.44135 7 5.09821Z" fill="#212121"/>
</svg>
