<svg width="24" height="24" viewBox="0 0 24 24" fill="none" xmlns="http://www.w3.org/2000/svg">
<g clip-path="url(#clip0)">
<path fill-rule="evenodd" clip-rule="evenodd" d="M19.0604 12.1582C19.2492 11.6392 19.8229 11.3715 20.342 11.5602C22.0902 12.196 23.0318 13.251 23.5168 14.2064C23.7538 14.6731 23.874 15.0998 23.9352 15.417C23.9659 15.5761 23.9821 15.7092 23.9906 15.8085C23.9949 15.8582 23.9973 15.8996 23.9986 15.9318C23.9993 15.9479 23.9996 15.9617 23.9999 15.9731L24.0001 15.9884L24.0002 15.9947L24.0002 15.9974L24.0002 15.9987C24.0002 15.9987 24.0002 16 23.0002 16H24.0002C24.0002 17.6569 22.657 19 21.0002 19H20.0002C19.4479 19 19.0002 18.5523 19.0002 18C19.0002 17.4477 19.4479 17 20.0002 17H21.0002C21.549 17 21.9946 16.5578 22.0001 16.0102C21.9998 16.0048 21.9992 15.9946 21.998 15.9802C21.9948 15.9435 21.9876 15.8799 21.9714 15.796C21.9389 15.6274 21.8716 15.3837 21.7335 15.1118C21.4685 14.5899 20.9101 13.895 19.6585 13.4398C19.1394 13.251 18.8717 12.6773 19.0604 12.1582Z" fill="#212121"/>
<path fill-rule="evenodd" clip-rule="evenodd" d="M9.50016 5C7.66367 5 6.00016 6.68915 6.00016 9C6.00016 11.3109 7.66367 13 9.50016 13C11.3367 13 13.0002 11.3109 13.0002 9C13.0002 6.68915 11.3367 5 9.50016 5ZM4.00016 9C4.00016 5.788 6.3661 3 9.50016 3C12.6342 3 15.0002 5.788 15.0002 9C15.0002 12.212 12.6342 15 9.50016 15C6.3661 15 4.00016 12.212 4.00016 9Z" fill="#212121"/>
<path fill-rule="evenodd" clip-rule="evenodd" d="M16.5002 3C16.0018 3 15.5286 3.17597 15.1235 3.49891C14.6916 3.84318 14.0625 3.77217 13.7182 3.34031C13.374 2.90845 13.445 2.27928 13.8768 1.93502C14.6055 1.35411 15.5112 1 16.5002 1C19.1067 1 21.0002 3.36818 21.0002 6C21.0002 7.44821 20.4448 8.77669 19.5254 9.70403C18.9747 10.2595 18.2881 10.6754 17.5126 10.8731C16.9774 11.0095 16.433 10.6863 16.2965 10.1511C16.1601 9.61594 16.4833 9.0715 17.0185 8.93507C17.4137 8.83431 17.7873 8.61652 18.1051 8.29596C18.639 7.75742 19.0002 6.94118 19.0002 6C19.0002 4.21354 17.7596 3 16.5002 3Z" fill="#212121"/>
<path fill-rule="evenodd" clip-rule="evenodd" d="M5.18803 14.8492C5.54746 15.2685 5.49891 15.8998 5.07959 16.2592C2.34337 18.6046 2.97164 20.5377 3.33881 20.9935C3.34281 20.9941 3.34715 20.9946 3.35185 20.9951C3.37915 20.9981 3.41395 21 3.4577 21H13.0258L13.0264 23H3.4577C3.10446 23 2.46539 22.9502 1.97086 22.459C0.501986 20.9998 0.386616 17.6477 3.77798 14.7408C4.1973 14.3813 4.82861 14.4299 5.18803 14.8492ZM13.0264 23C13.5787 23 14.0265 22.5523 14.0265 22C14.0265 21.4477 13.5781 21 13.0258 21L13.0264 23Z" fill="#212121"/>
<path fill-rule="evenodd" clip-rule="evenodd" d="M13.91 14.8492C13.5505 15.2685 13.5991 15.8998 14.0184 16.2592C16.7546 18.6046 16.1263 20.5377 15.7592 20.9935C15.7552 20.9941 15.7508 20.9946 15.7461 20.9951C15.7188 20.9981 15.684 21 15.6403 21H6.07217L6.07156 23H15.6403C15.9935 23 16.6326 22.9502 17.1271 22.459C18.596 20.9998 18.7114 17.6477 15.32 14.7408C14.9007 14.3813 14.2694 14.4299 13.91 14.8492ZM6.07156 23C5.51927 23 5.07148 22.5523 5.07148 22C5.07148 21.4477 5.51989 21 6.07217 21L6.07156 23Z" fill="#212121"/>
</g>
<defs>
<clipPath id="clip0">
<rect width="24" height="24" fill="white"/>
</clipPath>
</defs>
</svg>
