<svg width="24" height="25" viewBox="0 0 24 25" fill="none" xmlns="http://www.w3.org/2000/svg">
<path d="M16.5 3.09821C16.0017 3.09821 15.5285 3.27417 15.1234 3.59712C14.6915 3.94138 14.0624 3.87037 13.7181 3.43851C13.3738 3.00666 13.4448 2.37749 13.8767 2.03322C14.6054 1.45231 15.5111 1.09821 16.5 1.09821C19.1066 1.09821 21 3.46639 21 6.09821C21 7.54641 20.4446 8.87489 19.5253 9.80224C18.9746 10.3577 18.288 10.7736 17.5124 10.9713C16.9773 11.1077 16.4328 10.7845 16.2964 10.2493C16.16 9.71415 16.4832 9.16971 17.0184 9.03327C17.4136 8.93251 17.7872 8.71473 18.105 8.39417C18.6389 7.85563 19 7.03938 19 6.09821C19 4.31175 17.7595 3.09821 16.5 3.09821Z" fill="#212121"/>
<path fill-rule="evenodd" clip-rule="evenodd" d="M9.5 3.09821C6.36593 3.09821 4 5.88621 4 9.09821C4 12.3102 6.36593 15.0982 9.5 15.0982C12.6341 15.0982 15 12.3102 15 9.09821C15 5.88621 12.6341 3.09821 9.5 3.09821ZM6 9.09821C6 6.78735 7.6635 5.09821 9.5 5.09821C11.3365 5.09821 13 6.78735 13 9.09821C13 11.4091 11.3365 13.0982 9.5 13.0982C7.6635 13.0982 6 11.4091 6 9.09821Z" fill="#212121"/>
<path d="M20.3418 11.6584C19.8227 11.4697 19.249 11.7374 19.0602 12.2565C18.8715 12.7755 19.1392 13.3493 19.6583 13.538C20.9704 14.0152 21.511 14.623 21.7505 15.0548C21.9985 15.502 22 15.8927 22 16.0982C22 16.6503 21.5521 17.0982 20.9997 17.0982H20C19.4477 17.0982 19 17.5459 19 18.0982C19 18.6505 19.4485 19.0982 20.0008 19.0982H20.9997C22.6564 19.0982 24 17.7551 24 16.0982V16.0956C24 15.7991 24 14.9872 23.4995 14.0848C22.989 13.1643 22.0296 12.2722 20.3418 11.6584Z" fill="#212121"/>
<path d="M13.926 14.929C13.5564 15.3394 13.5894 15.9717 13.9998 16.3413C15.4846 17.6785 15.9682 19.06 16.0139 20.0207C16.0308 20.3751 16.0073 20.7819 15.8268 21.0982H9.0008L8.99639 21.0982H3.23673C3.05398 20.7751 3.01755 20.3697 3.02958 20.0063C3.06088 19.0605 3.52342 17.6912 5.0794 16.3575C5.49873 15.998 5.54728 15.3667 5.18785 14.9474C4.82842 14.5281 4.19712 14.4795 3.7778 14.839C1.83388 16.5052 1.08211 18.3859 1.03067 19.9401C1.00543 20.7027 1.1494 21.4063 1.42831 21.9566C1.67117 22.4357 2.18917 23.0982 3.02633 23.0982H9.99994L10.0044 23.0982H16C16.839 23.0982 17.3739 22.4749 17.6362 21.9547C17.9192 21.3934 18.0476 20.6828 18.0117 19.9257C17.9385 18.3864 17.1844 16.5179 15.3383 14.8551C14.9279 14.4855 14.2956 14.5186 13.926 14.929Z" fill="#212121"/>
</svg>
