<svg width="24" height="24" viewBox="0 0 24 24" fill="none" xmlns="http://www.w3.org/2000/svg">
<path d="M16.5 3C16.0017 3 15.5285 3.17597 15.1234 3.49891C14.6915 3.84318 14.0624 3.77217 13.7181 3.34031C13.3738 2.90845 13.4448 2.27928 13.8767 1.93502C14.6054 1.35411 15.5111 1 16.5 1C19.1066 1 21 3.36818 21 6C21 7.44821 20.4446 8.77669 19.5253 9.70403C18.9746 10.2595 18.288 10.6754 17.5124 10.8731C16.9773 11.0095 16.4328 10.6863 16.2964 10.1511C16.16 9.61594 16.4832 9.0715 17.0184 8.93507C17.4136 8.83431 17.7872 8.61652 18.105 8.29596C18.6389 7.75742 19 6.94118 19 6C19 4.21354 17.7595 3 16.5 3Z" fill="#212121"/>
<path fill-rule="evenodd" clip-rule="evenodd" d="M9.5 3C6.36593 3 4 5.788 4 9C4 12.212 6.36593 15 9.5 15C12.6341 15 15 12.212 15 9C15 5.788 12.6341 3 9.5 3ZM6 9C6 6.68915 7.6635 5 9.5 5C11.3365 5 13 6.68915 13 9C13 11.3109 11.3365 13 9.5 13C7.6635 13 6 11.3109 6 9Z" fill="#212121"/>
<path d="M20.3418 11.5602C19.8227 11.3715 19.249 11.6392 19.0602 12.1582C18.8715 12.6773 19.1392 13.251 19.6583 13.4398C20.9704 13.9169 21.511 14.5248 21.7505 14.9566C21.9985 15.4038 22 15.7945 22 16C22 16.5521 21.5521 17 20.9997 17H20C19.4477 17 19 17.4477 19 18C19 18.5523 19.4485 19 20.0008 19H20.9997C22.6564 19 24 17.6569 24 16V15.9974C24 15.7009 24 14.889 23.4995 13.9866C22.989 13.0661 22.0296 12.174 20.3418 11.5602Z" fill="#212121"/>
<path d="M13.926 14.8308C13.5564 15.2411 13.5894 15.8734 13.9998 16.2431C15.4846 17.5803 15.9682 18.9618 16.0139 19.9225C16.0308 20.2769 16.0073 20.6837 15.8268 21H9.0008L8.99639 21H3.23673C3.05398 20.6769 3.01755 20.2715 3.02958 19.9081C3.06088 18.9623 3.52342 17.593 5.0794 16.2593C5.49873 15.8998 5.54728 15.2685 5.18785 14.8492C4.82842 14.4299 4.19712 14.3813 3.7778 14.7408C1.83388 16.407 1.08211 18.2877 1.03067 19.8419C1.00543 20.6045 1.1494 21.3081 1.42831 21.8584C1.67117 22.3375 2.18917 23 3.02633 23H9.99994L10.0044 23H16C16.839 23 17.3739 22.3767 17.6362 21.8565C17.9192 21.2952 18.0476 20.5846 18.0117 19.8275C17.9385 18.2882 17.1844 16.4197 15.3383 14.7569C14.9279 14.3873 14.2956 14.4204 13.926 14.8308Z" fill="#212121"/>
</svg>
