<svg width="24" height="24" viewBox="0 0 24 24" fill="none" xmlns="http://www.w3.org/2000/svg">
<path d="M15.5 3C14.8185 3 14.2024 3.27139 13.7505 3.71424C13.7041 3.75966 13.6595 3.80685 13.6168 3.85571C13.2533 4.27153 12.6216 4.31396 12.2058 3.95049C11.79 3.58701 11.7475 2.95527 12.111 2.53945C12.1876 2.45181 12.2676 2.36718 12.3507 2.28576C13.1613 1.49143 14.2743 1 15.5 1C17.9853 1 20 3.01472 20 5.5C20 6.44081 19.7985 7.51656 19.3341 8.46914C18.868 9.42538 18.099 10.327 16.9372 10.7526C16.4187 10.9426 15.8443 10.6763 15.6543 10.1577C15.4642 9.63913 15.7306 9.06471 16.2492 8.8747C16.7904 8.67639 17.2248 8.23198 17.5363 7.59282C17.8497 6.94999 18 6.18091 18 5.5C18 4.11929 16.8808 3 15.5 3Z" fill="black"/>
<path d="M19.8862 11.0244C19.3474 10.9031 18.8123 11.2416 18.691 11.7805C18.5698 12.3193 18.9083 12.8543 19.4471 12.9756C20.8836 13.2988 21.479 13.9075 21.7391 14.3172C21.8777 14.5355 21.9433 14.7322 21.9742 14.8645C21.9896 14.9305 21.9962 14.9793 21.9988 15.0046L22 15.0178V16C22 16.5523 21.5523 17 21 17H20.5C19.9477 17 19.5 17.4477 19.5 18C19.5 18.5523 19.9477 19 20.5 19H21C22.6568 19 24 17.6568 24 16V15H23C24 15 24 14.9985 24 14.9985L24 14.997L24 14.9937L23.9999 14.9866L23.9996 14.9697C23.9993 14.9573 23.9988 14.9426 23.998 14.9257C23.9963 14.892 23.9934 14.8494 23.9882 14.799C23.9778 14.6984 23.9583 14.5655 23.9216 14.4089C23.8484 14.0958 23.7056 13.6832 23.4275 13.2452C22.8543 12.3424 21.783 11.4512 19.8862 11.0244Z" fill="black"/>
<path d="M5.55285 16.9756C6.09166 16.8543 6.43018 16.3193 6.30894 15.7805C6.18771 15.2416 5.65264 14.9031 5.11382 15.0244C3.21698 15.4512 2.14567 16.3424 1.57245 17.2452C1.29439 17.6832 1.15161 18.0958 1.07837 18.4089C1.04173 18.5655 1.02221 18.6984 1.01181 18.799C1.0066 18.8494 1.00365 18.892 1.002 18.9257C1.00118 18.9426 1.00068 18.9573 1.00038 18.9697L1.00008 18.9866L1.00002 18.9937L1 18.997L1 18.9985C1 18.9985 1 19 2 19H1V20C1 21.6568 2.34315 23 4 23H15C16.6569 23 18 21.6568 18 20V19H17C18 19 18 18.9985 18 18.9985L18 18.997L18 18.9937L17.9999 18.9866L17.9996 18.9697L17.9989 18.9465L17.998 18.9257C17.9963 18.892 17.9934 18.8494 17.9882 18.799C17.9778 18.6984 17.9583 18.5655 17.9216 18.4089C17.8484 18.0958 17.7056 17.6832 17.4275 17.2452C16.8543 16.3424 15.783 15.4512 13.8862 15.0244C13.3474 14.9031 12.8123 15.2416 12.6911 15.7805C12.5698 16.3193 12.9083 16.8543 13.4472 16.9756C14.8836 17.2988 15.479 17.9075 15.7391 18.3172C15.8777 18.5355 15.9433 18.7322 15.9742 18.8645C15.9897 18.9305 15.9962 18.9793 15.9988 19.0046L16 19.0178V20C16 20.5523 15.5523 21 15 21H4C3.44772 21 3 20.5523 3 20V19.0178L3.00121 19.0046C3.00383 18.9793 3.01035 18.9305 3.0258 18.8645C3.05673 18.7322 3.12227 18.5355 3.26088 18.3172C3.521 17.9075 4.11635 17.2988 5.55285 16.9756Z" fill="black"/>
<path fill-rule="evenodd" clip-rule="evenodd" d="M9.5 5C7.01472 5 5 7.01472 5 9.5C5 10.6131 5.28311 11.9349 5.96899 13.012C6.6772 14.1242 7.84319 15 9.5 15C11.1568 15 12.3228 14.1242 13.031 13.012C13.7169 11.9349 14 10.6131 14 9.5C14 7.01472 11.9853 5 9.5 5ZM7 9.5C7 8.11929 8.11929 7 9.5 7C10.8807 7 12 8.11929 12 9.5C12 10.3199 11.7831 11.2481 11.344 11.9378C10.9272 12.5923 10.3432 13 9.5 13C8.65681 13 8.0728 12.5923 7.65601 11.9378C7.21689 11.2481 7 10.3199 7 9.5Z" fill="black"/>
</svg>
