<svg width="24" height="24" viewBox="0 0 24 24" fill="none" xmlns="http://www.w3.org/2000/svg">
<path fill-rule="evenodd" clip-rule="evenodd" d="M11.8792 1C8.72396 1 6.35749 3.88662 6.97629 6.98058L7.43104 9.25437C7.86663 11.4323 9.77892 13 12 13C14.221 13 16.1333 11.4323 16.5689 9.25437L17.0237 6.98058C17.6425 3.88662 15.276 1 12.1208 1H11.8792ZM8.93745 6.58835C8.56617 4.73197 9.98605 3 11.8792 3H12.1208C14.0139 3 15.4338 4.73197 15.0625 6.58835L14.6077 8.86214C14.3591 10.1052 13.2677 11 12 11C10.7323 11 9.64082 10.1052 9.39221 8.86214L8.93745 6.58835Z" fill="#212121"/>
<path d="M6.24254 14.9701C6.77833 14.8362 7.10409 14.2933 6.97014 13.7575C6.83619 13.2217 6.29326 12.8959 5.75746 13.0299C3.49981 13.5943 2.27044 14.7612 1.63176 15.8789C1.32082 16.423 1.16366 16.931 1.08395 17.3096C1.044 17.4994 1.02308 17.6586 1.01211 17.7765C1.00662 17.8356 1.00359 17.8845 1.00194 17.9222C1.00111 17.941 1.00063 17.957 1.00035 17.97L1.00007 17.9873L1.00002 17.9942L1 17.9972L1 17.9987C1 17.9987 1 18 2 18H1V20C1 21.6569 2.34315 23 4 23H15C15.5523 23 16 22.5523 16 22C16 21.4477 15.5523 21 15 21H4C3.44772 21 3 20.5523 3 20V18.0103C3.0003 18.0034 3.00119 17.9867 3.00351 17.9618C3.00817 17.9117 3.0185 17.8288 3.04105 17.7216C3.08634 17.5065 3.17918 17.202 3.36824 16.8711C3.72956 16.2388 4.50019 15.4057 6.24254 14.9701Z" fill="#212121"/>
<path d="M20 22C20 22.5523 19.5523 23 19 23C18.4477 23 18 22.5523 18 22C18 21.4477 18.4477 21 19 21C19.5523 21 20 21.4477 20 22Z" fill="#212121"/>
<path d="M18 15C18 14.4477 18.4477 14 19 14C19.5523 14 20 14.4477 20 15C20 15.2889 19.8788 15.548 19.6815 15.7319C19.6468 15.7642 19.6098 15.7983 19.571 15.8341C19.3053 16.0795 18.9534 16.4044 18.6701 16.7624C18.3373 17.183 18 17.767 18 18.5V19C18 19.5523 18.4477 20 19 20C19.5523 20 20 19.5523 20 19V18.5C20 18.4046 20.0413 18.2526 20.2386 18.0033C20.4176 17.7771 20.6432 17.5678 20.9194 17.3117L21.045 17.195C21.6312 16.6487 22 15.8666 22 15C22 13.3431 20.6569 12 19 12C17.3431 12 16 13.3431 16 15C16 15.5523 16.4477 16 17 16C17.5523 16 18 15.5523 18 15Z" fill="#212121"/>
</svg>
