<svg width="24" height="24" viewBox="0 0 24 24" fill="none" xmlns="http://www.w3.org/2000/svg">
<path fill-rule="evenodd" clip-rule="evenodd" d="M6.93632 14.1489C7.13024 14.666 6.86823 15.2424 6.35111 15.4363C4.66072 16.0702 3.83864 17.2101 3.42161 18.2006C3.2098 18.7036 3.10334 19.169 3.05041 19.5065C3.02409 19.6743 3.01144 19.8077 3.0054 19.8946C3.00238 19.9379 3.00103 19.9695 3.00043 19.9876L3.00014 19.999L3.00045 20.0091C3.00111 20.0261 3.00262 20.0554 3.00598 20.0942C3.01281 20.1732 3.0267 20.2849 3.05411 20.4092C3.10882 20.6573 3.19643 20.8604 3.30235 20.9868C3.31394 20.9892 3.32943 20.9918 3.34933 20.9941C3.38202 20.9978 3.42202 21 3.47022 21H12.9994L13 23H3.47022C3.08843 23 2.41674 22.9415 1.90753 22.4236C1.40686 21.9144 1.19617 21.2712 1.10105 20.8399C1.05088 20.6125 1.02598 20.4119 1.01341 20.2665C1.00708 20.1932 1.00373 20.1323 1.00197 20.0871C1.00109 20.0645 1.0006 20.0456 1.00032 20.031L1.00006 20.0122L1.00001 20.0053L1 20.0024L1 20.0012C1 20.0009 1 20 2 20C1 20 1 19.9995 1 19.999L1 19.9979L1.00001 19.9954L1.00005 19.9892L1.00025 19.9725C1.00046 19.9594 1.00084 19.9424 1.00152 19.9218C1.00287 19.8806 1.00542 19.8248 1.01022 19.7558C1.0198 19.6181 1.03839 19.4272 1.07457 19.1966C1.14662 18.7372 1.29015 18.1089 1.57833 17.4244C2.16128 16.0399 3.3392 14.4298 5.64887 13.5637C6.16599 13.3698 6.74241 13.6318 6.93632 14.1489ZM2.99998 20.005C2.99997 20.0061 2.99998 20.0057 2.99998 20.005V20.005ZM13 23C13.5523 23 14.0001 22.5523 14.0001 22C14.0001 21.4477 13.5517 21 12.9994 21L13 23Z" fill="#212121"/>
<path fill-rule="evenodd" clip-rule="evenodd" d="M12 3C9.87841 3 7.99999 4.92289 7.99999 7.5C7.99999 10.0771 9.87841 12 12 12C14.1216 12 16 10.0771 16 7.5C16 4.92289 14.1216 3 12 3ZM5.99999 7.5C5.99999 4.00197 8.59873 1 12 1C15.4013 1 18 4.00197 18 7.5C18 10.998 15.4013 14 12 14C8.59873 14 5.99999 10.998 5.99999 7.5Z" fill="#212121"/>
<path d="M20 22C20 22.5523 19.5523 23 19 23C18.4477 23 18 22.5523 18 22C18 21.4477 18.4477 21 19 21C19.5523 21 20 21.4477 20 22Z" fill="#212121"/>
<path fill-rule="evenodd" clip-rule="evenodd" d="M19 15C18.4477 15 18 15.4477 18 16C18 16.5523 17.5523 17 17 17C16.4477 17 16 16.5523 16 16C16 14.3431 17.3431 13 19 13C20.6569 13 22 14.3431 22 16C22 17.137 21.3671 18.1247 20.4391 18.6327C20.265 18.7281 20.1336 18.8316 20.0569 18.9211C20.0171 18.9676 20.0038 18.9953 20 19.0061V19.5C20 20.0523 19.5523 20.5 19 20.5C18.4477 20.5 18 20.0523 18 19.5V19C18 18.4196 18.2528 17.9526 18.5387 17.6191C18.8204 17.2907 19.1685 17.0482 19.4788 16.8784C19.7915 16.7072 20 16.3772 20 16C20 15.4477 19.5523 15 19 15Z" fill="#212121"/>
</svg>
