<svg width="24" height="24" viewBox="0 0 24 24" fill="none" xmlns="http://www.w3.org/2000/svg">
<path fill-rule="evenodd" clip-rule="evenodd" d="M12 1C8.59874 1 6 4.00197 6 7.5C6 10.998 8.59874 14 12 14C15.4013 14 18 10.998 18 7.5C18 4.00197 15.4013 1 12 1ZM8 7.5C8 4.92289 9.87842 3 12 3C14.1216 3 16 4.92289 16 7.5C16 10.0771 14.1216 12 12 12C9.87842 12 8 10.0771 8 7.5Z" fill="#212121"/>
<path d="M6.35111 15.4363C6.86824 15.2424 7.13024 14.666 6.93633 14.1489C6.74241 13.6318 6.166 13.3697 5.64888 13.5637C3.41915 14.3998 2.21249 15.6999 1.59515 17.0117C0.999821 18.2768 0.999947 19.4598 1 19.9851L1 20C1 20.8252 1.40255 21.5668 1.9179 22.0821C2.43324 22.5975 3.17477 23 4 23H15C15.5523 23 16 22.5523 16 22C16 21.4477 15.5523 21 15 21H4C3.82523 21 3.56676 20.9025 3.33211 20.6679C3.09746 20.4332 3 20.1748 3 20C3 19.5176 3.00583 18.7111 3.4048 17.8633C3.78745 17.0501 4.58078 16.1002 6.35111 15.4363Z" fill="#212121"/>
<path d="M20 22C20 22.5523 19.5523 23 19 23C18.4477 23 18 22.5523 18 22C18 21.4477 18.4477 21 19 21C19.5523 21 20 21.4477 20 22Z" fill="#212121"/>
<path fill-rule="evenodd" clip-rule="evenodd" d="M18 16C18 15.4477 18.4477 15 19 15C19.5523 15 20 15.4477 20 16C20 16.3772 19.7915 16.7072 19.4788 16.8784C19.1685 17.0482 18.8204 17.2907 18.5387 17.6191C18.2528 17.9526 18 18.4196 18 19V19.5C18 20.0523 18.4477 20.5 19 20.5C19.5523 20.5 20 20.0523 20 19.5V19.0061C20.0038 18.9953 20.0171 18.9676 20.0569 18.9211C20.1336 18.8316 20.265 18.7281 20.4392 18.6327C21.3671 18.1247 22 17.137 22 16C22 14.3431 20.6569 13 19 13C17.3431 13 16 14.3431 16 16C16 16.5523 16.4477 17 17 17C17.5523 17 18 16.5523 18 16Z" fill="#212121"/>
</svg>
