<svg width="24" height="25" viewBox="0 0 24 25" fill="none" xmlns="http://www.w3.org/2000/svg">
<path fill-rule="evenodd" clip-rule="evenodd" d="M12 1.09821C8.59874 1.09821 6 4.10018 6 7.59821C6 11.0962 8.59874 14.0982 12 14.0982C15.4013 14.0982 18 11.0962 18 7.59821C18 4.10018 15.4013 1.09821 12 1.09821ZM8 7.59821C8 5.0211 9.87842 3.09821 12 3.09821C14.1216 3.09821 16 5.0211 16 7.59821C16 10.1753 14.1216 12.0982 12 12.0982C9.87842 12.0982 8 10.1753 8 7.59821Z" fill="#212121"/>
<path d="M6.35111 15.5345C6.86824 15.3406 7.13024 14.7642 6.93633 14.2471C6.74241 13.73 6.166 13.468 5.64888 13.6619C3.41915 14.498 2.21249 15.7981 1.59515 17.1099C0.999821 18.375 0.999947 19.5581 1 20.0833L1 20.0982C1 20.9234 1.40255 21.665 1.9179 22.1803C2.43324 22.6957 3.17477 23.0982 4 23.0982H15C15.5523 23.0982 16 22.6505 16 22.0982C16 21.5459 15.5523 21.0982 15 21.0982H4C3.82523 21.0982 3.56676 21.0007 3.33211 20.7661C3.09746 20.5314 3 20.273 3 20.0982C3 19.6158 3.00583 18.8093 3.4048 17.9615C3.78745 17.1483 4.58078 16.1984 6.35111 15.5345Z" fill="#212121"/>
<path d="M20 22.0982C20 22.6505 19.5523 23.0982 19 23.0982C18.4477 23.0982 18 22.6505 18 22.0982C18 21.5459 18.4477 21.0982 19 21.0982C19.5523 21.0982 20 21.5459 20 22.0982Z" fill="#212121"/>
<path fill-rule="evenodd" clip-rule="evenodd" d="M18 16.0982C18 15.5459 18.4477 15.0982 19 15.0982C19.5523 15.0982 20 15.5459 20 16.0982C20 16.4754 19.7915 16.8054 19.4788 16.9766C19.1685 17.1464 18.8204 17.3889 18.5387 17.7173C18.2528 18.0508 18 18.5178 18 19.0982V19.5982C18 20.1505 18.4477 20.5982 19 20.5982C19.5523 20.5982 20 20.1505 20 19.5982V19.1043C20.0038 19.0935 20.0171 19.0658 20.0569 19.0193C20.1336 18.9298 20.265 18.8263 20.4392 18.7309C21.3671 18.2229 22 17.2352 22 16.0982C22 14.4414 20.6569 13.0982 19 13.0982C17.3431 13.0982 16 14.4414 16 16.0982C16 16.6505 16.4477 17.0982 17 17.0982C17.5523 17.0982 18 16.6505 18 16.0982Z" fill="#212121"/>
</svg>
