<svg width="24" height="24" viewBox="0 0 24 24" fill="none" xmlns="http://www.w3.org/2000/svg">
<path d="M14 15C14 15.7403 13.5978 16.3866 13 16.7324V18C13 18.5523 12.5523 19 12 19C11.4477 19 11 18.5523 11 18V16.7324C10.4022 16.3866 10 15.7403 10 15C10 13.8954 10.8954 13 12 13C13.1046 13 14 13.8954 14 15Z" fill="#212121"/>
<path fill-rule="evenodd" clip-rule="evenodd" d="M9 6.28326C9 4.46997 10.47 3 12.2833 3C13.4752 3 14.5335 3.76274 14.9104 4.89355L15.0513 5.31623C15.226 5.84017 15.7923 6.12333 16.3162 5.94868C16.8402 5.77404 17.1233 5.20772 16.9487 4.68377L16.8078 4.2611C16.1586 2.3136 14.3361 1 12.2833 1C9.3654 1 7 3.3654 7 6.28326V9H5C3.34315 9 2 10.3431 2 12V20C2 21.6569 3.34315 23 5 23H19C20.6569 23 22 21.6569 22 20V12C22 10.3431 20.6569 9 19 9H9V6.28326ZM5 11C4.44772 11 4 11.4477 4 12V20C4 20.5523 4.44772 21 5 21H19C19.5523 21 20 20.5523 20 20V12C20 11.4477 19.5523 11 19 11H5Z" fill="#212121"/>
</svg>
