<svg width="24" height="25" viewBox="0 0 24 25" fill="none" xmlns="http://www.w3.org/2000/svg">
<path d="M14 15.0982C14 15.8385 13.5978 16.4848 13 16.8306V18.0982C13 18.6505 12.5523 19.0982 12 19.0982C11.4477 19.0982 11 18.6505 11 18.0982V16.8306C10.4022 16.4848 10 15.8385 10 15.0982C10 13.9936 10.8954 13.0982 12 13.0982C13.1046 13.0982 14 13.9936 14 15.0982Z" fill="#212121"/>
<path fill-rule="evenodd" clip-rule="evenodd" d="M9 6.38147C9 4.56817 10.47 3.09821 12.2833 3.09821C13.4752 3.09821 14.5335 3.86095 14.9104 4.99176L15.0513 5.41443C15.226 5.93838 15.7923 6.22154 16.3162 6.04689C16.8402 5.87224 17.1233 5.30592 16.9487 4.78198L16.8078 4.3593C16.1586 2.41181 14.3361 1.09821 12.2833 1.09821C9.3654 1.09821 7 3.4636 7 6.38147V9.09821H5C3.34315 9.09821 2 10.4414 2 12.0982V20.0982C2 21.7551 3.34315 23.0982 5 23.0982H19C20.6569 23.0982 22 21.7551 22 20.0982V12.0982C22 10.4414 20.6569 9.09821 19 9.09821H9V6.38147ZM5 11.0982C4.44772 11.0982 4 11.5459 4 12.0982V20.0982C4 20.6505 4.44772 21.0982 5 21.0982H19C19.5523 21.0982 20 20.6505 20 20.0982V12.0982C20 11.5459 19.5523 11.0982 19 11.0982H5Z" fill="#212121"/>
</svg>
