<svg width="24" height="25" viewBox="0 0 24 25" fill="none" xmlns="http://www.w3.org/2000/svg">
<path d="M7.29289 7.80531C7.68342 8.19584 8.31658 8.19584 8.70711 7.80531L11 5.51242V16.0982C11 16.6505 11.4477 17.0982 12 17.0982C12.5523 17.0982 13 16.6505 13 16.0982V5.51242L15.2929 7.80531C15.6834 8.19584 16.3166 8.19584 16.7071 7.80531C17.0976 7.41479 17.0976 6.78162 16.7071 6.3911L12.7071 2.3911C12.3166 2.00057 11.6834 2.00057 11.2929 2.3911L7.29289 6.3911C6.90237 6.78162 6.90237 7.41479 7.29289 7.80531Z" fill="#212121"/>
<path d="M3 20.0982C2.44772 20.0982 2 20.5459 2 21.0982C2 21.6505 2.44772 22.0982 3 22.0982H21C21.5523 22.0982 22 21.6505 22 21.0982C22 20.5459 21.5523 20.0982 21 20.0982H3Z" fill="#212121"/>
</svg>
