<svg width="24" height="24" viewBox="0 0 24 24" fill="none" xmlns="http://www.w3.org/2000/svg">
<path d="M7.29289 7.70711C7.68342 8.09763 8.31658 8.09763 8.70711 7.70711L11 5.41421V16C11 16.5523 11.4477 17 12 17C12.5523 17 13 16.5523 13 16V5.41421L15.2929 7.70711C15.6834 8.09763 16.3166 8.09763 16.7071 7.70711C17.0976 7.31658 17.0976 6.68342 16.7071 6.29289L12.7071 2.29289C12.3166 1.90237 11.6834 1.90237 11.2929 2.29289L7.29289 6.29289C6.90237 6.68342 6.90237 7.31658 7.29289 7.70711Z" fill="#212121"/>
<path d="M3 20C2.44772 20 2 20.4477 2 21C2 21.5523 2.44772 22 3 22H21C21.5523 22 22 21.5523 22 21C22 20.4477 21.5523 20 21 20H3Z" fill="#212121"/>
</svg>
