<svg width="24" height="25" viewBox="0 0 24 25" fill="none" xmlns="http://www.w3.org/2000/svg">
<path fill-rule="evenodd" clip-rule="evenodd" d="M4 3.09821C2.89543 3.09821 2 3.99364 2 5.09821V15.0982C2 16.2028 2.89543 17.0982 4 17.0982H20C21.1046 17.0982 22 16.2028 22 15.0982V5.09821C22 3.99364 21.1046 3.09821 20 3.09821H4ZM4 5.09821H20V15.0982H4V5.09821Z" fill="#212121"/>
<path d="M3 20.0982C2.44772 20.0982 2 20.5459 2 21.0982C2 21.6505 2.44772 22.0982 3 22.0982H21C21.5523 22.0982 22 21.6505 22 21.0982C22 20.5459 21.5523 20.0982 21 20.0982H3Z" fill="#212121"/>
</svg>
