<svg width="24" height="24" viewBox="0 0 24 24" fill="none" xmlns="http://www.w3.org/2000/svg">
<path fill-rule="evenodd" clip-rule="evenodd" d="M2 4C2 2.89543 2.89543 2 4 2H9C10.1046 2 11 2.89543 11 4V9C11 10.1046 10.1046 11 9 11H4C2.89543 11 2 10.1046 2 9V4ZM4 4H9V9H4L4 4Z" fill="black"/>
<path fill-rule="evenodd" clip-rule="evenodd" d="M2 15C2 13.8954 2.89543 13 4 13H9C10.1046 13 11 13.8954 11 15V20C11 21.1046 10.1046 22 9 22H4C2.89543 22 2 21.1046 2 20V15ZM4 15H9V20H4L4 15Z" fill="black"/>
<path d="M13 4C13 3.44772 13.4975 3 14.1111 3H21.8889C22.5025 3 23 3.44772 23 4C23 4.55228 22.5025 5 21.8889 5H14.1111C13.4975 5 13 4.55228 13 4Z" fill="black"/>
<path d="M14.1667 7C13.5223 7 13 7.44772 13 8C13 8.55228 13.5223 9 14.1667 9H18.8333C19.4777 9 20 8.55228 20 8C20 7.44772 19.4777 7 18.8333 7H14.1667Z" fill="black"/>
<path d="M13 15C13 14.4477 13.4975 14 14.1111 14H21.8889C22.5025 14 23 14.4477 23 15C23 15.5523 22.5025 16 21.8889 16H14.1111C13.4975 16 13 15.5523 13 15Z" fill="black"/>
<path d="M14.1667 18C13.5223 18 13 18.4477 13 19C13 19.5523 13.5223 20 14.1667 20H18.8333C19.4777 20 20 19.5523 20 19C20 18.4477 19.4777 18 18.8333 18H14.1667Z" fill="black"/>
</svg>
