<svg width="24" height="25" viewBox="0 0 24 25" fill="none" xmlns="http://www.w3.org/2000/svg">
<path fill-rule="evenodd" clip-rule="evenodd" d="M2 4.09821C2 2.99364 2.89543 2.09821 4 2.09821H9C10.1046 2.09821 11 2.99364 11 4.09821V9.09821C11 10.2028 10.1046 11.0982 9 11.0982H4C2.89543 11.0982 2 10.2028 2 9.09821V4.09821ZM4 4.09821H9V9.09821H4L4 4.09821Z" fill="#212121"/>
<path fill-rule="evenodd" clip-rule="evenodd" d="M13 4.09821C13 2.99364 13.8954 2.09821 15 2.09821H20C21.1046 2.09821 22 2.99364 22 4.09821V9.09821C22 10.2028 21.1046 11.0982 20 11.0982H15C13.8954 11.0982 13 10.2028 13 9.09821V4.09821ZM15 4.09821H20V9.09821H15V4.09821Z" fill="#212121"/>
<path fill-rule="evenodd" clip-rule="evenodd" d="M4 13.0982C2.89543 13.0982 2 13.9936 2 15.0982V20.0982C2 21.2028 2.89543 22.0982 4 22.0982H9C10.1046 22.0982 11 21.2028 11 20.0982V15.0982C11 13.9936 10.1046 13.0982 9 13.0982H4ZM9 15.0982H4L4 20.0982H9V15.0982Z" fill="#212121"/>
<path fill-rule="evenodd" clip-rule="evenodd" d="M13 15.0982C13 13.9936 13.8954 13.0982 15 13.0982H20C21.1046 13.0982 22 13.9936 22 15.0982V20.0982C22 21.2028 21.1046 22.0982 20 22.0982H15C13.8954 22.0982 13 21.2028 13 20.0982V15.0982ZM15 15.0982H20V20.0982H15V15.0982Z" fill="#212121"/>
</svg>
