<svg width="24" height="25" viewBox="0 0 24 25" fill="none" xmlns="http://www.w3.org/2000/svg">
<path d="M16 5.09821C16 4.54592 16.4477 4.09821 17 4.09821H21C21.5523 4.09821 22 4.54592 22 5.09821C22 5.65049 21.5523 6.09821 21 6.09821H17C16.4477 6.09821 16 5.65049 16 5.09821Z" fill="#212121"/>
<path d="M16 12.0982C16 11.5459 16.4477 11.0982 17 11.0982H21C21.5523 11.0982 22 11.5459 22 12.0982C22 12.6505 21.5523 13.0982 21 13.0982H17C16.4477 13.0982 16 12.6505 16 12.0982Z" fill="#212121"/>
<path d="M2 19.0982C2 18.5459 2.44772 18.0982 3 18.0982H21C21.5523 18.0982 22 18.5459 22 19.0982C22 19.6505 21.5523 20.0982 21 20.0982H3C2.44772 20.0982 2 19.6505 2 19.0982Z" fill="#212121"/>
<path fill-rule="evenodd" clip-rule="evenodd" d="M2 6.09821C2 4.44135 3.34315 3.09821 5 3.09821H10C11.6569 3.09821 13 4.44135 13 6.09821V11.0982C13 12.7551 11.6569 14.0982 10 14.0982H5C3.34315 14.0982 2 12.7551 2 11.0982V6.09821ZM5 5.09821C4.44772 5.09821 4 5.54592 4 6.09821V11.0982C4 11.6505 4.44772 12.0982 5 12.0982H10C10.5523 12.0982 11 11.6505 11 11.0982V6.09821C11 5.54592 10.5523 5.09821 10 5.09821H5Z" fill="#212121"/>
</svg>
