<svg width="24" height="25" viewBox="0 0 24 25" fill="none" xmlns="http://www.w3.org/2000/svg">
<path fill-rule="evenodd" clip-rule="evenodd" d="M2 4.09821C2 2.99364 2.89543 2.09821 4 2.09821H9C10.1046 2.09821 11 2.99364 11 4.09821V9.09821C11 10.2028 10.1046 11.0982 9 11.0982H4C2.89543 11.0982 2 10.2028 2 9.09821V4.09821ZM4 4.09821H9V9.09821H4L4 4.09821Z" fill="#212121"/>
<path fill-rule="evenodd" clip-rule="evenodd" d="M2 15.0982C2 13.9936 2.89543 13.0982 4 13.0982H9C10.1046 13.0982 11 13.9936 11 15.0982V20.0982C11 21.2028 10.1046 22.0982 9 22.0982H4C2.89543 22.0982 2 21.2028 2 20.0982V15.0982ZM4 15.0982H9V20.0982H4L4 15.0982Z" fill="#212121"/>
<path d="M13 4.09821C13 3.54592 13.4975 3.09821 14.1111 3.09821H21.8889C22.5025 3.09821 23 3.54592 23 4.09821C23 4.65049 22.5025 5.09821 21.8889 5.09821H14.1111C13.4975 5.09821 13 4.65049 13 4.09821Z" fill="#212121"/>
<path d="M14.1667 7.09821C13.5223 7.09821 13 7.54592 13 8.09821C13 8.65049 13.5223 9.09821 14.1667 9.09821H18.8333C19.4777 9.09821 20 8.65049 20 8.09821C20 7.54592 19.4777 7.09821 18.8333 7.09821H14.1667Z" fill="#212121"/>
<path d="M13 15.0982C13 14.5459 13.4975 14.0982 14.1111 14.0982H21.8889C22.5025 14.0982 23 14.5459 23 15.0982C23 15.6505 22.5025 16.0982 21.8889 16.0982H14.1111C13.4975 16.0982 13 15.6505 13 15.0982Z" fill="#212121"/>
<path d="M14.1667 18.0982C13.5223 18.0982 13 18.5459 13 19.0982C13 19.6505 13.5223 20.0982 14.1667 20.0982H18.8333C19.4777 20.0982 20 19.6505 20 19.0982C20 18.5459 19.4777 18.0982 18.8333 18.0982H14.1667Z" fill="#212121"/>
</svg>
