<svg width="24" height="24" viewBox="0 0 24 24" fill="none" xmlns="http://www.w3.org/2000/svg">
<path fill-rule="evenodd" clip-rule="evenodd" d="M3 3C1.89543 3 1 3.89543 1 5V15C1 16.1046 1.89543 17 3 17H9C10.1046 17 11 16.1046 11 15V5C11 3.89543 10.1046 3 9 3H3ZM3 5H9V15L3 15V5Z" fill="black"/>
<path fill-rule="evenodd" clip-rule="evenodd" d="M15 3C13.8954 3 13 3.89543 13 5V15C13 16.1046 13.8954 17 15 17H21C22.1046 17 23 16.1046 23 15V5C23 3.89543 22.1046 3 21 3H15ZM15 5H21V15L15 15V5Z" fill="black"/>
<path d="M1 21C1 20.4477 1.44772 20 2 20H10C10.5523 20 11 20.4477 11 21C11 21.5523 10.5523 22 10 22H2C1.44772 22 1 21.5523 1 21Z" fill="black"/>
<path d="M14 20C13.4477 20 13 20.4477 13 21C13 21.5523 13.4477 22 14 22H22C22.5523 22 23 21.5523 23 21C23 20.4477 22.5523 20 22 20H14Z" fill="black"/>
</svg>
