<svg width="24" height="25" viewBox="0 0 24 25" fill="none" xmlns="http://www.w3.org/2000/svg">
<path fill-rule="evenodd" clip-rule="evenodd" d="M3 3.09821C1.89543 3.09821 1 3.99364 1 5.09821V15.0982C1 16.2028 1.89543 17.0982 3 17.0982H9C10.1046 17.0982 11 16.2028 11 15.0982V5.09821C11 3.99364 10.1046 3.09821 9 3.09821H3ZM3 5.09821H9V15.0982L3 15.0982V5.09821Z" fill="#212121"/>
<path fill-rule="evenodd" clip-rule="evenodd" d="M15 3.09821C13.8954 3.09821 13 3.99364 13 5.09821V15.0982C13 16.2028 13.8954 17.0982 15 17.0982H21C22.1046 17.0982 23 16.2028 23 15.0982V5.09821C23 3.99364 22.1046 3.09821 21 3.09821H15ZM15 5.09821H21V15.0982L15 15.0982V5.09821Z" fill="#212121"/>
<path d="M1 21.0982C1 20.5459 1.44772 20.0982 2 20.0982H10C10.5523 20.0982 11 20.5459 11 21.0982C11 21.6505 10.5523 22.0982 10 22.0982H2C1.44772 22.0982 1 21.6505 1 21.0982Z" fill="#212121"/>
<path d="M14 20.0982C13.4477 20.0982 13 20.5459 13 21.0982C13 21.6505 13.4477 22.0982 14 22.0982H22C22.5523 22.0982 23 21.6505 23 21.0982C23 20.5459 22.5523 20.0982 22 20.0982H14Z" fill="#212121"/>
</svg>
