<svg width="24" height="24" viewBox="0 0 24 24" fill="none" xmlns="http://www.w3.org/2000/svg">
<path d="M17 12C17 12.5523 16.5523 13 16 13C15.4477 13 15 12.5523 15 12C15 11.4477 15.4477 11 16 11C16.5523 11 17 11.4477 17 12Z" fill="#212121"/>
<path fill-rule="evenodd" clip-rule="evenodd" d="M22 15.7324C22.5978 15.3866 23 14.7403 23 14V10C23 9.25972 22.5978 8.61337 22 8.26756V6C22 4.34315 20.6569 3 19 3H5C3.34315 3 2 4.34315 2 6V18C2 19.6569 3.34315 21 5 21H19C20.6569 21 22 19.6569 22 18V15.7324ZM5 5C4.44772 5 4 5.44772 4 6V18C4 18.5523 4.44772 19 5 19H19C19.5523 19 20 18.5523 20 18V16H15C12.7909 16 11 14.2091 11 12C11 9.79086 12.7909 8 15 8H20V6C20 5.44772 19.5523 5 19 5H5ZM15 10C13.8954 10 13 10.8954 13 12C13 13.1046 13.8954 14 15 14H21V10H15Z" fill="#212121"/>
</svg>
