<svg width="24" height="24" viewBox="0 0 24 24" fill="none" xmlns="http://www.w3.org/2000/svg">
<path fill-rule="evenodd" clip-rule="evenodd" d="M5 5C4.44772 5 4 5.44772 4 6V18C4 18.5523 4.44772 19 5 19H19C19.5523 19 20 18.5523 20 18V15.7333C20 15.181 20.4477 14.7333 21 14.7333C21.5523 14.7333 22 15.181 22 15.7333V18C22 19.6569 20.6569 21 19 21H5C3.34315 21 2 19.6569 2 18V6C2 4.34315 3.34315 3 5 3H19C20.6569 3 22 4.34315 22 6V8.5C22 9.05228 21.5523 9.5 21 9.5C20.4477 9.5 20 9.05228 20 8.5V6C20 5.44772 19.5523 5 19 5H5Z" fill="#212121"/>
<path fill-rule="evenodd" clip-rule="evenodd" d="M11 12C11 9.79086 12.7909 8 15 8H21C22.1046 8 23 8.89543 23 10V14C23 15.1046 22.1046 16 21 16H15C12.7909 16 11 14.2091 11 12ZM15 10C13.8954 10 13 10.8954 13 12C13 13.1046 13.8954 14 15 14H21V10H15Z" fill="#212121"/>
<path fill-rule="evenodd" clip-rule="evenodd" d="M16 13C16.5523 13 17 12.5523 17 12C17 11.4477 16.5523 11 16 11C15.4477 11 15 11.4477 15 12C15 12.5523 15.4477 13 16 13Z" fill="#212121"/>
</svg>
