<svg width="24" height="25" viewBox="0 0 24 25" fill="none" xmlns="http://www.w3.org/2000/svg">
<path d="M17 12.0982C17 12.6505 16.5523 13.0982 16 13.0982C15.4477 13.0982 15 12.6505 15 12.0982C15 11.5459 15.4477 11.0982 16 11.0982C16.5523 11.0982 17 11.5459 17 12.0982Z" fill="#212121"/>
<path fill-rule="evenodd" clip-rule="evenodd" d="M22 15.8306C22.5978 15.4848 23 14.8385 23 14.0982V10.0982C23 9.35792 22.5978 8.71158 22 8.36577V6.09821C22 4.44135 20.6569 3.09821 19 3.09821H5C3.34315 3.09821 2 4.44135 2 6.09821V18.0982C2 19.7551 3.34315 21.0982 5 21.0982H19C20.6569 21.0982 22 19.7551 22 18.0982V15.8306ZM5 5.09821C4.44772 5.09821 4 5.54592 4 6.09821V18.0982C4 18.6505 4.44772 19.0982 5 19.0982H19C19.5523 19.0982 20 18.6505 20 18.0982V16.0982H15C12.7909 16.0982 11 14.3073 11 12.0982C11 9.88907 12.7909 8.09821 15 8.09821H20V6.09821C20 5.54592 19.5523 5.09821 19 5.09821H5ZM15 10.0982C13.8954 10.0982 13 10.9936 13 12.0982C13 13.2028 13.8954 14.0982 15 14.0982H21V10.0982H15Z" fill="#212121"/>
</svg>
