<svg width="24" height="24" viewBox="0 0 24 24" fill="none" xmlns="http://www.w3.org/2000/svg">
<path d="M17 12C17 12.5523 16.5523 13 16 13C15.4477 13 15 12.5523 15 12C15 11.4477 15.4477 11 16 11C16.5523 11 17 11.4477 17 12Z" fill="black"/>
<path fill-rule="evenodd" clip-rule="evenodd" d="M21 17C21 16.9435 20.9953 16.8881 20.9863 16.8341C22.1586 16.4262 23 15.3113 23 14V10C23 8.68867 22.1586 7.57385 20.9863 7.1659C20.9953 7.11194 21 7.05652 21 7V6C21 4.34315 19.6569 3 18 3H5C3.34315 3 2 4.34315 2 6V18C2 19.6569 3.34315 21 5 21H18C19.6569 21 21 19.6569 21 18V17ZM19 17H16C13.2386 17 11 14.7614 11 12C11 9.23858 13.2386 7 16 7H19V6C19 5.44772 18.5523 5 18 5H5C4.44772 5 4 5.44772 4 6V18C4 18.5523 4.44772 19 5 19H18C18.5523 19 19 18.5523 19 18V17ZM16 9C14.3431 9 13 10.3431 13 12C13 13.6569 14.3431 15 16 15H20C20.5523 15 21 14.5523 21 14V10C21 9.44772 20.5523 9 20 9H16Z" fill="black"/>
</svg>
