<svg width="24" height="25" viewBox="0 0 24 25" fill="none" xmlns="http://www.w3.org/2000/svg">
<path fill-rule="evenodd" clip-rule="evenodd" d="M1 12.0982C1 6.02307 5.92487 1.09821 12 1.09821C18.0751 1.09821 23 6.02307 23 12.0982C23 18.1733 18.0751 23.0982 12 23.0982C5.92487 23.0982 1 18.1733 1 12.0982ZM12 3.09821C7.02944 3.09821 3 7.12764 3 12.0982C3 17.0688 7.02944 21.0982 12 21.0982C16.9706 21.0982 21 17.0688 21 12.0982C21 7.12764 16.9706 3.09821 12 3.09821Z" fill="#212121"/>
<path fill-rule="evenodd" clip-rule="evenodd" d="M11 8.09821C11.5523 8.09821 12 8.54592 12 9.09821V12.0982H15C15.5523 12.0982 16 12.5459 16 13.0982C16 13.6505 15.5523 14.0982 15 14.0982H11C10.4477 14.0982 10 13.6505 10 13.0982V9.09821C10 8.54592 10.4477 8.09821 11 8.09821Z" fill="#212121"/>
</svg>
