<svg width="40" height="40" viewBox="0 0 40 40" fill="none" xmlns="http://www.w3.org/2000/svg">
<path fill-rule="evenodd" clip-rule="evenodd" d="M30.4235 12.7501C29.6136 11.351 27.8229 10.8733 26.4238 11.6831C25.0246 12.4929 24.5469 14.2837 25.3567 15.6828C26.1666 17.0819 27.9573 17.5597 29.3564 16.7498C30.7556 15.94 31.2333 14.1493 30.4235 12.7501ZM27.4257 13.414C27.8688 13.1575 28.436 13.3089 28.6925 13.752C28.949 14.1952 28.7977 14.7624 28.3545 15.0189C27.9114 15.2754 27.3442 15.1241 27.0877 14.6809C26.8312 14.2377 26.9825 13.6706 27.4257 13.414Z" fill="#212121"/>
<path fill-rule="evenodd" clip-rule="evenodd" d="M24.2525 5.14603C23.4435 4.88393 22.5612 4.97754 21.8252 5.40356L5.49768 14.8538C4.06368 15.6838 3.57405 17.5192 4.40408 18.9532L12.3088 32.6097C13.1388 34.0436 14.9741 34.5332 16.4081 33.7032L32.7355 24.2527C33.4715 23.8267 33.9921 23.1084 34.1679 22.2763L36.1755 12.772C36.5985 10.7695 35.4417 8.77078 33.4946 8.14003L24.2525 5.14603ZM22.827 7.13452C23.0724 6.99252 23.3665 6.96132 23.6362 7.04868L32.8782 10.0427C33.8518 10.3581 34.4302 11.3574 34.2187 12.3587L32.2111 21.863C32.1525 22.1403 31.979 22.3798 31.7336 22.5218L15.4062 31.9723C14.9282 32.2489 14.3165 32.0857 14.0398 31.6077L6.13503 17.9513C5.85835 17.4733 6.02156 16.8615 6.49956 16.5848L22.827 7.13452Z" fill="#212121"/>
</svg>
