<svg width="40" height="40" viewBox="0 0 40 40" fill="none" xmlns="http://www.w3.org/2000/svg">
<path fill-rule="evenodd" clip-rule="evenodd" d="M12 22C12 17.5825 15.5783 14 19.9941 14C24.408 14 28 17.5817 28 22.0011C28 26.421 24.4076 30 19.9941 30C15.5783 30 12 26.4175 12 22ZM19.9941 16C16.6845 16 14 18.6855 14 22C14 25.3145 16.6845 28 19.9941 28C23.3062 28 26 25.3132 26 22.0011C26 18.6886 23.3058 16 19.9941 16Z" fill="#212121"/>
<path d="M28 14C27.4477 14 27 14.4477 27 15C27 15.5523 27.4477 16 28 16H31C31.5523 16 32 15.5523 32 15C32 14.4477 31.5523 14 31 14H28Z" fill="#212121"/>
<path fill-rule="evenodd" clip-rule="evenodd" d="M12.288 7.34847C12.5933 5.97621 13.8106 5 15.2164 5L24.7849 5C26.1911 5.00001 27.4086 5.97674 27.7135 7.34948L28.1283 9.21684C28.2299 9.67442 28.6358 10 29.1045 10H32C34.2091 10 36 11.7909 36 14V30C36 32.2091 34.2091 34 32 34H8C5.79086 34 4 32.2091 4 30V14C4 11.7909 5.79086 10 8 10H10.8961C11.3647 10 11.7704 9.6746 11.8722 9.21718L12.288 7.34847ZM15.2164 7C14.7478 7 14.342 7.3254 14.2402 7.78282L13.8245 9.65153C13.5192 11.0238 12.3019 12 10.8961 12H8C6.89543 12 6 12.8954 6 14V30C6 31.1046 6.89543 32 8 32H32C33.1046 32 34 31.1046 34 30V14C34 12.8954 33.1046 12 32 12H29.1045C27.6983 12 26.4808 11.0233 26.1759 9.65052L25.7611 7.78316C25.6594 7.32558 25.2536 7.00001 24.7849 7.00001L15.2164 7Z" fill="#212121"/>
</svg>
