<svg width="40" height="40" viewBox="0 0 40 40" fill="none" xmlns="http://www.w3.org/2000/svg">
<path fill-rule="evenodd" clip-rule="evenodd" d="M22.374 12.7322L19.9998 9.21138L17.6256 12.7322L13.5435 13.9022L16.1583 17.2482L16.0096 21.4921L19.9998 20.0392L23.9901 21.4921L23.8413 17.2482L26.4562 13.9022L22.374 12.7322ZM18.8767 14.4541L19.9998 12.7886L21.1229 14.4541L23.054 15.0076L21.8171 16.5905L21.8874 18.5981L19.9998 17.9108L18.1122 18.5981L18.1826 16.5905L16.9456 15.0076L18.8767 14.4541Z" fill="#212121"/>
<path fill-rule="evenodd" clip-rule="evenodd" d="M10 6.525C10 5.68276 10.6828 5 11.525 5H28.475C29.3172 5 30 5.68277 30 6.525V9H34.9187C35.5159 9 36 9.48409 36 10.0813V13.0736C36 17.2087 33.2513 20.8399 29.2715 21.9625L29.2366 21.8389C28.191 24.3519 26.1497 26.3465 23.6053 27.3304V27.7861C23.6053 29.6811 24.6324 31.4273 26.2886 32.3482C28.0457 33.3252 27.3521 36 25.3417 36H14.6584C12.648 36 11.9544 33.3252 13.7114 32.3482C15.3677 31.4273 16.3948 29.6811 16.3948 27.7861V27.3304C13.8503 26.3466 11.809 24.3519 10.7634 21.8389L10.7285 21.9625C6.74867 20.8399 4 17.2087 4 13.0736V10.0813C4 9.48409 4.4841 9 5.08126 9H10V6.525ZM30 11H34V13.0736C34 15.8513 32.4169 18.3388 30 19.5461V11ZM28 7V18C28 22.4183 24.4183 26 20 26C15.5817 26 12 22.4183 12 18V7H28ZM10 11H6V13.0736C6 15.8513 7.58313 18.3388 10 19.5461V11ZM18.3916 28H21.6084C21.6815 30.4738 23.018 32.7396 25.149 34H14.8511C16.982 32.7396 18.3185 30.4738 18.3916 28Z" fill="#212121"/>
</svg>
