<svg width="40" height="40" viewBox="0 0 40 40" fill="none" xmlns="http://www.w3.org/2000/svg">
  <path fill-rule="evenodd" clip-rule="evenodd"
    d="M0 5.15315C0 3.95818 0.973042 3 2.16031 3H12.1364C13.1759 3 13.9442 3.99097 13.6571 5.00511L11.7085 11.8885C11.6965 11.931 11.7041 11.9771 11.7307 12.0145L16.4586 18.6575C16.958 19.3593 16.9905 20.2904 16.5404 21.0252L14.8836 23.7303L11.7356 27.9951C11.7077 28.0329 11.6996 28.0799 11.7119 28.1232L13.6571 34.9948C13.9442 36.009 13.1759 36.9999 12.1364 36.9999H2.1603C0.973039 36.9999 0 36.0417 0 34.8468V5.15315ZM2.16031 5C2.06593 5 2 5.07439 2 5.15315V23.5885C4.52415 19.3524 10.2186 18.5215 13.8593 21.5734L14.8349 19.9806C14.866 19.9298 14.864 19.8663 14.8291 19.8172L10.1012 13.1742C9.72366 12.6437 9.6066 11.9709 9.78413 11.3438L11.58 5H2.16031ZM12.747 23.2572C10.0099 20.7808 5.55277 21.3995 3.66119 24.7098L2 27.6169V34.8468C2 34.9255 2.06593 34.9999 2.1603 34.9999H11.58L9.78747 28.668C9.60637 28.0283 9.73201 27.3418 10.1265 26.8074L12.747 23.2572ZM18.3304 4.0564C18.5531 3.42075 19.1536 3.00007 19.8221 3.00007H37.8397C39.027 3.00007 40 3.95824 40 5.15322V34.8468C40 36.0418 39.027 37 37.8397 37H19.81C19.1575 37 18.5682 36.599 18.3335 35.9852L15.92 29.6703C15.6943 29.08 15.7403 28.4209 16.0451 27.8676L20.4948 19.79C20.521 19.7423 20.5192 19.6849 20.4895 19.6387L16.1259 12.849C15.7682 12.2924 15.6866 11.6025 15.9055 10.9778L18.3304 4.0564ZM20.119 5.00007L17.793 11.639C17.7781 11.6816 17.7834 11.7287 17.8084 11.7677L22.172 18.5574C22.5985 19.2209 22.6272 20.0639 22.2465 20.755L19.5715 25.611C21.4964 27.4134 24.4976 27.6026 26.6484 25.9607L27.1447 25.5819C30.1524 23.2858 34.416 23.6061 37.0426 26.3278L38 27.3198V5.15322C38 5.07447 37.9341 5.00007 37.8397 5.00007H20.119ZM38 30.1998L35.6035 27.7167C33.6829 25.7266 30.5601 25.4907 28.3582 27.1716L27.862 27.5504C25.0654 29.6853 21.2156 29.5533 18.5842 27.4034L17.7969 28.8326C17.7757 28.871 17.7727 28.9159 17.7882 28.9563L20.0981 35H37.8397C37.9341 35 38 34.9256 38 34.8468V30.1998ZM20.2017 35.2711C20.2017 35.271 20.2018 35.2713 20.2017 35.2711V35.2711ZM30.1529 8.17122C27.8682 8.17122 26.0766 9.95057 26.0766 12.0721C26.0766 14.1936 27.8682 15.973 30.1529 15.973C32.4376 15.973 34.2292 14.1936 34.2292 12.0721C34.2292 9.95057 32.4376 8.17122 30.1529 8.17122ZM24.0766 12.0721C24.0766 8.78027 26.8305 6.17122 30.1529 6.17122C33.4753 6.17122 36.2292 8.78027 36.2292 12.0721C36.2292 15.3639 33.4753 17.973 30.1529 17.973C26.8305 17.973 24.0766 15.3639 24.0766 12.0721Z"
    fill="black" />
</svg>
