<svg width="40" height="40" viewBox="0 0 40 40" fill="none" xmlns="http://www.w3.org/2000/svg">
<path fill-rule="evenodd" clip-rule="evenodd" d="M23.0579 20.0441C22.1767 19.3629 21.0934 18.9955 19.9797 19C18.8659 19.0046 17.7856 19.3808 16.91 20.0691C16.0345 20.7573 15.4137 21.7183 15.1463 22.7994C14.8789 23.8805 14.98 25.02 15.4338 26.0371C15.7821 26.8178 16.3228 27.4921 17 28V31C17 32.6569 18.3431 34 20 34C21.6569 34 23 32.6569 23 31V28C23.6883 27.4838 24.2352 26.7959 24.5826 25.9999C25.0281 24.9791 25.12 23.8388 24.8438 22.7599C24.5676 21.681 23.939 20.7252 23.0579 20.0441ZM19.9878 21C20.656 20.9973 21.306 21.2178 21.8347 21.6264C22.3634 22.0351 22.7405 22.6086 22.9063 23.256C23.072 23.9033 23.0169 24.5875 22.7496 25.1999C22.4929 25.7881 22.0546 26.2779 21.5 26.5981L21 26.8867V31C21 31.5523 20.5523 32 20 32C19.4477 32 19 31.5523 19 31V26.8867L18.5 26.5981C17.9528 26.2821 17.5184 25.8009 17.2603 25.2223C16.988 24.612 16.9273 23.9283 17.0878 23.2796C17.2482 22.631 17.6207 22.0544 18.146 21.6414C18.6714 21.2285 19.3196 21.0027 19.9878 21Z" fill="#212121"/>
<path fill-rule="evenodd" clip-rule="evenodd" d="M11 14V11C11 6.02944 15.0294 2 20 2C24.9706 2 29 6.02944 29 11V14H33C34.6569 14 36 15.3431 36 17V31.6667C36 34.9804 33.3137 37.6667 30 37.6667H10C6.68629 37.6667 4 34.9804 4 31.6667V17C4 15.3431 5.34315 14 7 14H11ZM13 11C13 7.13401 16.134 4 20 4C23.866 4 27 7.13401 27 11V14H25V11C25 8.23858 22.7614 6 20 6C17.2386 6 15 8.23858 15 11V14H13V11ZM7 16H33C33.5523 16 34 16.4477 34 17V31.6667C34 33.8758 32.2091 35.6667 30 35.6667H10C7.79086 35.6667 6 33.8758 6 31.6667V17C6 16.4477 6.44771 16 7 16ZM23 11V14H17V11C17 9.34315 18.3431 8 20 8C21.6569 8 23 9.34315 23 11Z" fill="#212121"/>
</svg>
