<svg width="40" height="40" viewBox="0 0 40 40" fill="none" xmlns="http://www.w3.org/2000/svg">
<path fill-rule="evenodd" clip-rule="evenodd" d="M24 9C21.7909 9 20 10.7909 20 13C20 15.2091 21.7909 17 24 17C26.2091 17 28 15.2091 28 13C28 10.7909 26.2091 9 24 9ZM22 13C22 11.8954 22.8954 11 24 11C25.1046 11 26 11.8954 26 13C26 14.1046 25.1046 15 24 15C22.8954 15 22 14.1046 22 13Z" fill="#212121"/>
<path fill-rule="evenodd" clip-rule="evenodd" d="M16 13.2381C16 9.18339 18.9629 5 24 5C29.0371 5 32 9.18339 32 13.2381C32 16.3377 30.0316 19.268 28.2545 21.3111C27.3446 22.3572 26.4376 23.2237 25.7591 23.8284C25.4191 24.1314 25.1347 24.3702 24.9336 24.5345C24.833 24.6167 24.7531 24.6804 24.6974 24.7243C24.6696 24.7463 24.6477 24.7633 24.6324 24.7752L24.6142 24.7892L24.6089 24.7933L24.6071 24.7946C24.6071 24.7946 24.606 24.7954 24 24L23.3935 24.7951L23.3911 24.7933L23.3858 24.7892L23.3676 24.7752C23.3523 24.7633 23.3304 24.7463 23.3026 24.7243C23.2469 24.6804 23.167 24.6167 23.0664 24.5345C22.8653 24.3702 22.5809 24.1314 22.2409 23.8284C21.5624 23.2237 20.6554 22.3572 19.7455 21.3111C17.9684 19.268 16 16.3377 16 13.2381ZM24 22.7087C24.1273 22.6003 24.2712 22.4754 24.4284 22.3353C25.0624 21.7703 25.9054 20.9643 26.7455 19.9985C28.4684 18.0177 30 15.567 30 13.2381C30 10.0547 27.7129 7 24 7C20.2871 7 18 10.0547 18 13.2381C18 15.567 19.5316 18.0177 21.2545 19.9985C22.0946 20.9643 22.9376 21.7703 23.5716 22.3353C23.7288 22.4754 23.8727 22.6003 24 22.7087Z" fill="#212121"/>
<path d="M23.3935 24.7951C23.7515 25.0678 24.248 25.0682 24.606 24.7954L24 24C23.394 24.7954 23.3935 24.7951 23.3935 24.7951Z" fill="#212121"/>
<path d="M6.39665 13.2025C6.64648 13.0135 6.97045 12.9525 7.27193 13.0377L12.3275 14.4662C12.859 14.6164 13.1681 15.169 13.0179 15.7005C12.8677 16.232 12.3151 16.5411 11.7836 16.3909L8 15.3217V30.4381L14 32.581V23C14 22.4477 14.4477 22 15 22C15.5523 22 16 22.4477 16 23V32.6126L23 30.2792V27C23 26.4477 23.4477 26 24 26C24.5523 26 25 26.4477 25 27V30.2792L32 32.6126V21.8571C32 21.3049 32.4477 20.8571 33 20.8571C33.5523 20.8571 34 21.3049 34 21.8571V34C34 34.3214 33.8455 34.6233 33.5847 34.8112C33.3239 34.9992 32.9887 35.0503 32.6838 34.9487L24 32.0541L15.3386 34.9412C15.2329 34.9793 15.1189 35 15 35C14.8737 35 14.7528 34.9766 14.6416 34.9338L6.66366 32.0846C6.26567 31.9425 6 31.5655 6 31.1429V14C6 13.6867 6.14681 13.3915 6.39665 13.2025Z" fill="#212121"/>
</svg>
