<svg width="40" height="40" viewBox="0 0 40 40" fill="none" xmlns="http://www.w3.org/2000/svg">
<path d="M18.1667 12.857C18.6729 12.857 19.0833 12.4605 19.0833 11.9713C19.0833 11.4821 18.6729 11.0856 18.1667 11.0856C17.6604 11.0856 17.25 11.4821 17.25 11.9713C17.25 12.4605 17.6604 12.857 18.1667 12.857Z" fill="#212121"/>
<path d="M22.7498 11.9713C22.7498 12.4605 22.3394 12.857 21.8332 12.857C21.3269 12.857 20.9165 12.4605 20.9165 11.9713C20.9165 11.4821 21.3269 11.0856 21.8332 11.0856C22.3394 11.0856 22.7498 11.4821 22.7498 11.9713Z" fill="#212121"/>
<path fill-rule="evenodd" clip-rule="evenodd" d="M12 11.0188C12 11.0125 12 11.0063 12 11C12 10.953 12.0004 10.9061 12.0012 10.8592C12.0677 6.40517 15.2881 3.10567 19.805 3.00233C19.8439 3.0014 19.8828 3.00075 19.9218 3.00037C19.9558 3.00001 19.9898 2.99983 20.024 2.99983C22.326 2.99983 24.3344 3.80121 25.7693 5.24156C27.2038 6.68159 28.0002 8.6951 28.0002 11L28.0002 11.003C27.9946 12.8569 28.9248 15.1884 29.8395 17.1136C30.9558 19.3746 32 21.7651 32 25C32 29.1696 29.9851 33.3908 25.9029 35.6544C25.4652 35.897 24.9881 36 24.5295 36H15.4713C15.0131 36 14.5352 35.8972 14.0971 35.6544C10.0149 33.3908 8 29.1696 8 25C8 21.7632 9.04628 19.3717 10.1631 17.1099C11.0799 15.2214 11.9839 12.8766 12 11.0188ZM13.1593 15.1501C12.7962 16.1814 12.3631 17.1579 11.9608 17.9865L11.9579 17.9925C11.0476 19.8358 10.2859 21.5763 10.0648 23.7214C10.857 24.065 11.7372 24.2569 12.6668 24.2569C15.9244 24.2569 18.5625 21.9098 18.9509 18.9318C16.4955 18.6102 14.3905 17.1751 13.1593 15.1501ZM21.0493 18.9318C21.4376 21.9098 24.0758 24.2569 27.3333 24.2569C28.2629 24.2569 29.1431 24.065 29.9353 23.7214C29.7143 21.5762 28.9531 19.8356 28.0429 17.9925L28.0396 17.9858L28.0364 17.979C27.6442 17.154 27.2093 16.1791 26.8425 15.1472C25.6116 17.1737 23.5058 18.61 21.0493 18.9318ZM25.6544 8.98824C24.9491 7.00589 23.2308 5.50382 21.1225 5.10482C21.6009 7.22588 23.4274 8.83621 25.6544 8.98824ZM18.8775 5.10482C16.7692 5.50382 15.0509 7.00589 14.3456 8.98824C16.5726 8.83621 18.3991 7.22588 18.8775 5.10482ZM14 11.0245C14.0001 11.0179 14.0001 11.0113 14.0002 11.0046V11C16.5464 10.9999 18.7751 9.64037 20 7.60758C21.2249 9.64042 23.4537 11 26 11C26 14.3137 23.3137 17 20 17C16.6945 17 14.0132 14.3269 14 11.0245ZM12.6668 26.2569C15.8176 26.2569 18.5852 24.5512 20.0001 22.0176C21.415 24.5512 24.1826 26.2569 27.3333 26.2569C28.2526 26.2569 29.1386 26.1122 29.9677 25.8444C29.7181 29.0923 28.0263 32.1901 24.933 33.9053C24.8276 33.9637 24.6918 34 24.5295 34H15.4713C15.3085 34 15.172 33.9635 15.067 33.9053C11.9737 32.1901 10.2819 29.0922 10.0323 25.8443C10.8614 26.1122 11.7475 26.2569 12.6668 26.2569Z" fill="#212121"/>
</svg>
