<svg width="40" height="40" viewBox="0 0 40 40" fill="none" xmlns="http://www.w3.org/2000/svg">
<path fill-rule="evenodd" clip-rule="evenodd" d="M13 7C13 5.34315 14.3431 4 16 4H37C38.6569 4 40 5.34315 40 7V21C40 22.6569 38.6569 24 37 24H27V34C27 35.6569 25.6569 37 24 37H3C1.34314 37 0 35.6569 0 34V20C0 18.3431 1.34315 17 3 17H13V7ZM15 17H24C25.6569 17 27 18.3431 27 20V22H37C37.5523 22 38 21.5523 38 21V11H15V17ZM15 9V7C15 6.44772 15.4477 6 16 6H37C37.5523 6 38 6.44772 38 7V9H15ZM3 19C2.44772 19 2 19.4477 2 20V34C2 34.5523 2.44772 35 3 35H24C24.5523 35 25 34.5523 25 34V20C25 19.4477 24.5523 19 24 19H3ZM4 23C4 21.8954 4.89543 21 6 21H9C10.1046 21 11 21.8954 11 23V25C11 26.1046 10.1046 27 9 27H6C4.89543 27 4 26.1046 4 25V23ZM9 23H6V25H9V23ZM5 30C4.44772 30 4 30.4477 4 31C4 31.5523 4.44772 32 5 32H7C7.55228 32 8 31.5523 8 31C8 30.4477 7.55228 30 7 30H5ZM9 31C9 30.4477 9.44772 30 10 30H12C12.5523 30 13 30.4477 13 31C13 31.5523 12.5523 32 12 32H10C9.44772 32 9 31.5523 9 31ZM15 30C14.4477 30 14 30.4477 14 31C14 31.5523 14.4477 32 15 32H17C17.5523 32 18 31.5523 18 31C18 30.4477 17.5523 30 17 30H15ZM19 31C19 30.4477 19.4477 30 20 30H22C22.5523 30 23 30.4477 23 31C23 31.5523 22.5523 32 22 32H20C19.4477 32 19 31.5523 19 31Z" fill="black"/>
</svg>
