<svg width="40" height="40" viewBox="0 0 40 40" fill="none" xmlns="http://www.w3.org/2000/svg">
<g clip-path="url(#clip0_5876_1447)">
<path fill-rule="evenodd" clip-rule="evenodd" d="M11.5865 4.08966C11.8564 3.96695 12.1669 3.97038 12.4341 4.09902L39.414 17.0893C39.501 17.1289 39.5813 17.1806 39.6527 17.2422C39.6768 17.2629 39.6998 17.2846 39.7216 17.3074C39.8942 17.4871 40.0003 17.7312 40.0003 18V22.9785C40.0006 22.9924 40.0006 23.0064 40.0003 23.0203L40.0003 27.9784C40.0006 27.9924 40.0006 28.0065 40.0003 28.0205V33C40.0003 33.3921 39.7711 33.7481 39.4141 33.9104L28.4141 38.9104C28.1441 39.0331 27.8336 39.0296 27.5664 38.901L0.566454 25.901C0.220331 25.7344 0.000269344 25.3842 0.000269609 25L0.000268116 20.0224C-8.86469e-05 20.0071 -9.00918e-05 19.9917 0.000268102 19.9762L0.000266616 15.0224C-8.81529e-05 15.007 -8.95857e-05 14.9917 0.000266602 14.9763L0.000265109 10C0.000265071 9.58686 0.250826 9.23222 0.608284 9.07977L11.5865 4.08966ZM2.00027 11.5914L2.00027 14.3654L8.50027 17.4242V14.721L2.00027 11.5914ZM2.00027 16.5758L2.00027 19.3654L8.50028 22.4242L8.50027 19.6346L2.00027 16.5758ZM2.00027 21.5758L2.00027 24.3716L8.50028 27.5013V24.6346L2.00027 21.5758ZM10.5003 28.4642L19.0001 32.5567V19.7764L10.5003 15.6839V18.9808C10.5005 18.994 10.5005 19.0073 10.5003 19.0205L10.5003 23.9808C10.5004 23.9889 10.5005 23.9971 10.5005 24.0052C10.5004 24.0103 10.5004 24.0154 10.5003 24.0205V28.4642ZM21.0001 33.5197L27.0003 36.4086V33.6284L21.0001 30.7394V33.5197ZM29.0003 33.6439V36.447L38.0003 32.3561V29.553L29.0003 33.6439ZM38.0003 27.3561L29.0003 31.447V28.6439L38.0003 24.553L38.0003 27.3561ZM38.0003 22.3561V19.553L29.0003 23.6439L29.0003 26.447L38.0003 22.3561ZM27.0003 26.4087V23.6284L21.0001 20.7394V23.5197L27.0003 26.4087ZM27.0003 28.6284L27.0003 31.4086L21.0001 28.5196V25.7394L27.0003 28.6284ZM28.0124 21.896L22.161 19.0786L30.5945 15.0627L36.641 17.9739L28.0124 21.896ZM20.1527 10.0351L28.2814 13.949L19.8479 17.9649L11.7191 14.051L20.1527 10.0351ZM17.8396 8.92141L9.406 12.9373L3.35959 10.0261L11.9881 6.10403L17.8396 8.92141Z" fill="black"/>
</g>
<defs>
<clipPath id="clip0_5876_1447">
<rect width="40" height="40" fill="white"/>
</clipPath>
</defs>
</svg>
