<svg width="40" height="40" viewBox="0 0 40 40" fill="none" xmlns="http://www.w3.org/2000/svg">
<path fill-rule="evenodd" clip-rule="evenodd" d="M8 1C6.34315 1 5 2.34315 5 4V29.2485C5 29.9752 5.26375 30.6772 5.74227 31.224L11.6498 37.9755C12.2195 38.6266 13.0424 39 13.9075 39H32C33.6569 39 35 37.6569 35 36V4C35 2.34315 33.6569 1 32 1H8ZM7 4C7 3.44772 7.44772 3 8 3H32C32.5523 3 33 3.44772 33 4V36C33 36.5523 32.5523 37 32 37H14V32C14 30.3431 12.6569 29 11 29H7V4ZM12 32V35.3386L8.20377 31H11C11.5523 31 12 31.4477 12 32ZM11 5C9.89543 5 9 5.89543 9 7V9C9 10.1046 9.89543 11 11 11H29C30.1046 11 31 10.1046 31 9V7C31 5.89543 30.1046 5 29 5H11ZM11 7H29V9H11V7ZM9 14C9 13.4477 9.44772 13 10 13H22C22.5523 13 23 13.4477 23 14C23 14.5523 22.5523 15 22 15H10C9.44772 15 9 14.5523 9 14ZM25 13C24.4477 13 24 13.4477 24 14C24 14.5523 24.4477 15 25 15H30C30.5523 15 31 14.5523 31 14C31 13.4477 30.5523 13 30 13H25ZM24 18C24 17.4477 24.4477 17 25 17H30C30.5523 17 31 17.4477 31 18C31 18.5523 30.5523 19 30 19H25C24.4477 19 24 18.5523 24 18ZM25 21C24.4477 21 24 21.4477 24 22C24 22.5523 24.4477 23 25 23H30C30.5523 23 31 22.5523 31 22C31 21.4477 30.5523 21 30 21H25ZM10 17C9.44772 17 9 17.4477 9 18C9 18.5523 9.44772 19 10 19H22C22.5523 19 23 18.5523 23 18C23 17.4477 22.5523 17 22 17H10ZM9 22C9 21.4477 9.44772 21 10 21H22C22.5523 21 23 21.4477 23 22C23 22.5523 22.5523 23 22 23H10C9.44772 23 9 22.5523 9 22ZM17 25C15.8954 25 15 25.8954 15 27V29C15 30.1046 15.8954 31 17 31H21C22.1046 31 23 30.1046 23 29V27C23 25.8954 22.1046 25 21 25H17ZM17 27H21V29H17V27ZM27.0124 27.0369V28.9714C27.3644 28.9432 27.7418 28.8903 28.0884 28.7918C28.4503 28.6891 28.6941 28.5589 28.8349 28.4277C28.9459 28.3243 29.0118 28.2085 29.0124 28C29.0131 27.7932 28.9487 27.6803 28.84 27.5791C28.7006 27.4492 28.4574 27.3194 28.0942 27.2167C27.7456 27.1182 27.3664 27.0654 27.0124 27.0369ZM27.0124 30.9767C27.5028 30.9442 28.0824 30.8726 28.6347 30.7158C29.1549 30.5681 29.735 30.3227 30.1983 29.891C30.6915 29.4315 31.01 28.7972 31.0124 28.0061C31.0149 27.2133 30.6979 26.5767 30.2036 26.116C29.74 25.6839 29.1585 25.4392 28.6381 25.2921C27.6303 25.0073 26.5273 25.0044 26.0524 25.0031L26.0155 25.003C25.7497 25.0022 25.4946 25.1072 25.3064 25.2948C25.1182 25.4825 25.0124 25.7373 25.0124 26.003V29.0056L25.0098 29.0056C24.4575 29.0071 24.011 29.456 24.0124 30.0082C24.0139 30.5597 24.4613 31.0057 25.0124 31.0056V31.5154C24.4602 31.5154 24.0125 31.9631 24.0125 32.5154C24.0125 33.0676 24.4602 33.5153 25.0124 33.5154V34.003C25.0124 34.5553 25.4601 35.003 26.0124 35.003C26.5647 35.003 27.0124 34.5553 27.0124 34.003V33.5154L29.0125 33.5154C29.5648 33.5154 30.0125 33.0677 30.0125 32.5154C30.0125 31.9631 29.5648 31.5154 29.0125 31.5154L27.0124 31.5154V30.9767Z" fill="black"/>
</svg>
