<svg width="40" height="40" viewBox="0 0 40 40" fill="none" xmlns="http://www.w3.org/2000/svg">
<path fill-rule="evenodd" clip-rule="evenodd" d="M0 10C0 8.89543 0.895431 8 2 8H34C35.1046 8 36 8.89543 36 10V19.7531C38.4208 21.4749 40 24.303 40 27.5C40 32.7467 35.7467 37 30.5 37C27.303 37 24.4749 35.4208 22.7531 33H2C0.895433 33 0 32.1046 0 31V10ZM21.6655 31C21.236 29.9169 21 28.736 21 27.5C21 22.2533 25.2533 18 30.5 18C31.736 18 32.9169 18.236 34 18.6655V10L2 10V31H21.6655ZM4 14C4 12.8954 4.89543 12 6 12H9C10.1046 12 11 12.8954 11 14V16C11 17.1046 10.1046 18 9 18H6C4.89543 18 4 17.1046 4 16V14ZM9 14H6V16H9V14ZM5 25C4.44772 25 4 25.4477 4 26C4 26.5523 4.44772 27 5 27H7C7.55228 27 8 26.5523 8 26C8 25.4477 7.55228 25 7 25H5ZM10 26C10 25.4477 10.4477 25 11 25H13C13.5523 25 14 25.4477 14 26C14 26.5523 13.5523 27 13 27H11C10.4477 27 10 26.5523 10 26ZM17 25C16.4477 25 16 25.4477 16 26C16 26.5523 16.4477 27 17 27H19C19.5523 27 20 26.5523 20 26C20 25.4477 19.5523 25 19 25H17ZM23 27.5C23 23.3579 26.3579 20 30.5 20C34.6421 20 38 23.3579 38 27.5C38 31.6421 34.6421 35 30.5 35C26.3579 35 23 31.6421 23 27.5ZM30.5123 24.537V26.4714C30.8642 26.4432 31.2417 26.3903 31.5883 26.2919C31.9501 26.1891 32.194 26.0589 32.3348 25.9277C32.4458 25.8243 32.5117 25.7085 32.5123 25.5C32.5129 25.2932 32.4485 25.1803 32.3399 25.0791C32.2005 24.9492 31.9573 24.8194 31.5941 24.7167C31.2455 24.6182 30.8663 24.5654 30.5123 24.537ZM30.5123 28.4768C31.0027 28.4443 31.5823 28.3726 32.1346 28.2158C32.6548 28.0681 33.2349 27.8227 33.6982 27.391C34.1914 26.9315 34.5099 26.2972 34.5123 25.5061C34.5147 24.7133 34.1978 24.0767 33.7035 23.616C33.2399 23.1839 32.6584 22.9392 32.138 22.7921C31.1302 22.5073 30.0272 22.5044 29.5523 22.5031L29.5154 22.503C29.2496 22.5022 28.9945 22.6072 28.8063 22.7948C28.6181 22.9825 28.5123 23.2373 28.5123 23.503V26.5056L28.5097 26.5057C27.9574 26.5071 27.5109 26.956 27.5123 27.5083C27.5137 28.0597 27.9612 28.5057 28.5123 28.5056L28.5123 29.0154C27.96 29.0153 27.5123 29.4631 27.5123 30.0153C27.5123 30.5676 27.96 31.0153 28.5123 31.0154L28.5123 31.503C28.5123 32.0553 28.96 32.503 29.5123 32.503C30.0646 32.503 30.5123 32.0553 30.5123 31.503V31.0154L32.5123 31.0154C33.0646 31.0154 33.5123 30.5677 33.5123 30.0154C33.5123 29.4631 33.0646 29.0154 32.5123 29.0154L30.5123 29.0154V28.4768Z" fill="black"/>
</svg>
