<svg width="40" height="40" viewBox="0 0 40 40" fill="none" xmlns="http://www.w3.org/2000/svg">
<path fill-rule="evenodd" clip-rule="evenodd" d="M20 5C17.2386 5 15 7.23858 15 10C15 12.7614 17.2386 15 20 15C22.7614 15 25 12.7614 25 10C25 7.23858 22.7614 5 20 5ZM17 10C17 8.34315 18.3431 7 20 7C21.6569 7 23 8.34315 23 10C23 11.6569 21.6569 13 20 13C18.3431 13 17 11.6569 17 10Z" fill="#212121"/>
<path fill-rule="evenodd" clip-rule="evenodd" d="M9.5 9C7.01472 9 5 11.0147 5 13.5C5 15.9853 7.01472 18 9.5 18C11.9853 18 14 15.9853 14 13.5C14 11.0147 11.9853 9 9.5 9ZM7 13.5C7 12.1193 8.11929 11 9.5 11C10.8807 11 12 12.1193 12 13.5C12 14.8807 10.8807 16 9.5 16C8.11929 16 7 14.8807 7 13.5Z" fill="#212121"/>
<path fill-rule="evenodd" clip-rule="evenodd" d="M18 18C14.134 18 11 21.134 11 25V32C11 32.5523 11.4477 33 12 33H28C28.5523 33 29 32.5523 29 32V25C29 21.134 25.866 18 22 18H18ZM13 25C13 22.2386 15.2386 20 18 20H22C24.7614 20 27 22.2386 27 25V31H13V25Z" fill="#212121"/>
<path d="M5 25C5 23.3431 6.34315 22 8 22H9C9.55228 22 10 21.5523 10 21C10 20.4477 9.55228 20 9 20H8C5.23858 20 3 22.2386 3 25V32C3 32.5523 3.44772 33 4 33H8C8.55228 33 9 32.5523 9 32C9 31.4477 8.55228 31 8 31H5V25Z" fill="#212121"/>
<path d="M32 22C33.6569 22 35 23.3431 35 25V31H32C31.4477 31 31 31.4477 31 32C31 32.5523 31.4477 33 32 33H36C36.5523 33 37 32.5523 37 32V25C37 22.2386 34.7614 20 32 20H31C30.4477 20 30 20.4477 30 21C30 21.5523 30.4477 22 31 22H32Z" fill="#212121"/>
<path fill-rule="evenodd" clip-rule="evenodd" d="M35 13.5C35 11.0147 32.9853 9 30.5 9C28.0147 9 26 11.0147 26 13.5C26 15.9853 28.0147 18 30.5 18C32.9853 18 35 15.9853 35 13.5ZM30.5 11C31.8807 11 33 12.1193 33 13.5C33 14.8807 31.8807 16 30.5 16C29.1193 16 28 14.8807 28 13.5C28 12.1193 29.1193 11 30.5 11Z" fill="#212121"/>
</svg>
