<svg width="40" height="40" viewBox="0 0 40 40" fill="none" xmlns="http://www.w3.org/2000/svg">
<path fill-rule="evenodd" clip-rule="evenodd" d="M5 20C5 11.7157 11.7157 5.00002 20 5.00002C28.2843 5.00002 35 11.7157 35 20C35 28.2843 28.2843 35 20 35C11.7157 35 5 28.2843 5 20ZM10.1803 11.4807C9.56381 12.1907 9.02301 12.9682 8.57051 13.8007C8.72158 14.0289 8.87937 14.2714 9.04913 14.5324C9.91499 15.8633 11.0923 17.6729 13.2781 20.4973C14.7804 22.4384 15.4997 24.2616 15.0081 26.0506C14.5848 27.5915 13.3276 28.8286 11.6402 29.956C13.9003 31.8557 16.8165 33 20 33C25.6316 33 30.4268 29.4191 32.2329 24.4101C31.6986 24.4549 31.1629 24.6139 30.6123 24.8614C29.6803 25.2802 28.7776 25.9174 27.8247 26.601L27.7137 26.6807C26.835 27.3116 25.8798 27.9974 24.9276 28.4034C23.8924 28.8448 22.7121 29.0192 21.5261 28.3805C20.5522 27.8559 19.9067 27.1475 19.577 26.306C19.254 25.4813 19.2746 24.6323 19.4367 23.8798C19.7542 22.4059 20.6652 21.065 21.2208 20.3736C21.2643 20.3194 21.3238 20.2077 21.3559 19.9515C21.389 19.6877 21.3839 19.356 21.3589 18.9138C21.3523 18.7978 21.3443 18.675 21.3359 18.5463C21.2841 17.7546 21.2178 16.7389 21.3869 15.7055C21.5918 14.4531 22.138 13.1498 23.3921 11.9661C24.3796 11.034 25.7705 10.2094 27.6968 9.52237C26.1357 8.37364 24.3085 7.56544 22.3249 7.20731C22.3111 7.25178 22.2971 7.29742 22.2827 7.34417C21.7199 9.17532 20.6355 12.7033 16.9172 14.4089C15.0895 15.2473 13.3301 14.1857 12.2302 13.3221C11.6699 12.8821 11.1668 12.4022 10.7791 12.0323L10.7166 11.9727C10.511 11.7767 10.3518 11.6266 10.2236 11.5169C10.2076 11.5033 10.1932 11.4913 10.1803 11.4807ZM11.6084 10.0709C11.7628 10.2075 11.9303 10.3666 12.0965 10.525L12.1442 10.5705C12.5421 10.9499 12.9829 11.3702 13.4654 11.7491C14.551 12.6015 15.4119 12.899 16.0833 12.5911C18.8228 11.3345 19.7016 8.85338 20.2895 7.00318C20.1933 7.00107 20.0968 7.00002 20 7.00002C16.8015 7.00002 13.8729 8.1551 11.6084 10.0709ZM7 20C7 18.6079 7.21882 17.2669 7.62394 16.0095C8.47487 17.3129 9.6768 19.1117 11.6964 21.7213C13.0684 23.4941 13.3187 24.6507 13.0796 25.5207C12.8316 26.4232 11.9725 27.3804 10.1807 28.5198C8.19934 26.2382 7 23.2592 7 20ZM33 20C33 20.8207 32.924 21.6235 32.7785 22.402C31.7009 22.3556 30.7001 22.6293 29.7926 23.0371C28.6477 23.5515 27.5858 24.311 26.6589 24.9759C25.6881 25.6724 24.8888 26.2458 24.1432 26.5636C23.4405 26.8632 22.9399 26.8703 22.4744 26.6196C21.853 26.2849 21.571 25.9128 21.4392 25.5765C21.3009 25.2232 21.285 24.797 21.3918 24.301C21.6123 23.2776 22.2966 22.2277 22.7798 21.6264C23.1374 21.1814 23.2817 20.668 23.3403 20.2007C23.398 19.7411 23.3811 19.251 23.3557 18.8008C23.3477 18.6597 23.3389 18.5199 23.3301 18.3813C23.2796 17.5818 23.2314 16.8183 23.3606 16.0286C23.504 15.1526 23.8689 14.2662 24.7649 13.4205C25.6421 12.5926 27.0774 11.7579 29.4371 11.059C31.6454 13.389 33 16.5363 33 20Z" fill="#212121"/>
</svg>
