<svg width="40" height="40" viewBox="0 0 40 40" fill="none" xmlns="http://www.w3.org/2000/svg">
<path fill-rule="evenodd" clip-rule="evenodd" d="M6 20C6 12.268 12.268 6 20 6C27.732 6 34 12.268 34 20C34 27.732 27.732 34 20 34C12.268 34 6 27.732 6 20ZM20 4C11.1634 4 4 11.1634 4 20C4 28.8366 11.1634 36 20 36C28.8366 36 36 28.8366 36 20C36 11.1634 28.8366 4 20 4ZM16.5039 12.1362C16.1946 11.9558 15.8124 11.9545 15.5019 12.1329C15.1914 12.3112 15 12.6419 15 13V27C15 27.3581 15.1914 27.6888 15.5019 27.8671C15.8124 28.0455 16.1946 28.0442 16.5039 27.8638L28.5039 20.8638C28.8111 20.6846 29 20.3557 29 20C29 19.6443 28.8111 19.3154 28.5039 19.1362L16.5039 12.1362ZM26.0154 20L17 25.259V14.741L26.0154 20Z" fill="#212121"/>
</svg>
