<svg width="40" height="40" viewBox="0 0 40 40" fill="none" xmlns="http://www.w3.org/2000/svg">
<path fill-rule="evenodd" clip-rule="evenodd" d="M15.2219 3C12.4605 3 10.2219 5.23857 10.2219 8V10.9091H7.03942C6.01288 10.9091 5.15303 11.6863 5.0496 12.7076L3.11633 31.7983C2.99702 32.9765 3.92191 33.9998 5.10616 33.9998H16.9998C17.5521 33.9998 17.9998 33.5521 17.9998 32.9998C17.9998 32.4475 17.5521 31.9998 16.9998 31.9998H5.10616L7.03942 12.9091H10.2219V14.5453C10.2219 15.0976 10.6697 15.5453 11.2219 15.5453C11.7742 15.5453 12.2219 15.0976 12.2219 14.5453V12.9091L18.2219 12.9091V14.5453C18.2219 15.0976 18.6697 15.5453 19.2219 15.5453C19.7742 15.5453 20.2219 15.0976 20.2219 14.5453V12.9091H23.0974L23.5164 15.1813C23.6165 15.7244 24.138 16.0835 24.6811 15.9834C25.2242 15.8832 25.5833 15.3617 25.4832 14.8186L25.0642 12.5464C24.8893 11.5978 24.0621 10.9091 23.0974 10.9091H20.2219V8C20.2219 5.23858 17.9834 3 15.2219 3ZM18.2219 10.9091V8C18.2219 6.34315 16.8788 5 15.2219 5C13.5651 5 12.2219 6.34315 12.2219 8V10.9091H18.2219Z" fill="#212121"/>
<path fill-rule="evenodd" clip-rule="evenodd" d="M21.2098 17.9395C20.1053 17.9395 19.2098 18.835 19.2098 19.9395L19.2097 32C19.2097 33.1046 20.1052 34 21.2097 34H36C37.1045 34 38 33.1046 38 32V19.9395C38 18.835 37.1045 17.9395 36 17.9395H21.2098ZM21.2098 19.9395H25.0007C25.0001 19.9596 24.9998 19.9798 24.9998 20L24.9998 23C24.9998 24.1046 25.8952 25 26.9998 25H29.9998C31.1043 25 31.9998 24.1046 31.9998 23V20C31.9998 19.9798 31.9995 19.9596 31.9989 19.9395H36V32L21.2097 32L21.2098 19.9395ZM29.9998 20H26.9998L26.9998 23H29.9998V20Z" fill="#212121"/>
</svg>
