<svg width="40" height="40" viewBox="0 0 40 40" fill="none" xmlns="http://www.w3.org/2000/svg">
<path fill-rule="evenodd" clip-rule="evenodd" d="M33.6667 21.8421C33.9747 21.9683 34.2696 22.1375 34.5422 22.3495C36.1232 23.5792 36.4523 25.8372 35.2882 27.467L34.7303 28.2481C34.6898 28.3047 34.6436 28.357 34.5923 28.404C33.7213 29.2024 32.4798 30.1858 31.3337 31.0099C30.759 31.4233 30.1974 31.8044 29.7085 32.107C29.2444 32.3942 28.7713 32.6582 28.3995 32.7822C27.7252 33.0069 26.749 33.2238 25.8461 33.4245L25.8002 33.4347C24.8408 33.6479 23.9637 33.8441 23.3995 34.0322C22.7252 34.2569 21.9197 34.2855 21.2629 34.2598C20.5845 34.2333 19.9486 34.143 19.5538 34.0641C18.7996 33.9132 17.709 33.7093 16.5115 33.4855C14.5392 33.1167 12.277 32.6938 10.7512 32.3646C10.2887 33.4251 9.23095 34.1665 8 34.1665H5C3.34315 34.1665 2 32.8234 2 31.1665V22.1665C2 20.5096 3.34315 19.1665 5 19.1665H8C8.76835 19.1665 9.46924 19.4554 10 19.9304V12.4491C10 11.9074 10.11 11.3713 10.3234 10.8734L11.8016 7.42432C12.4319 5.95359 13.8781 5 15.4782 5H28.1885C29.7886 5 31.2347 5.95359 31.8651 7.42432L33.3432 10.8734C33.5566 11.3713 33.6667 11.9074 33.6667 12.4491V21.8421ZM13.6399 8.21216C13.9551 7.47679 14.6781 7 15.4782 7H20.833V11.6665H14C13.2783 11.6665 12.6012 11.8577 12.0166 12.1921C12.0402 12.0097 12.0889 11.8311 12.1617 11.6613L13.6399 8.21216ZM12 15.6665V20.955C12.7275 20.5624 13.498 20.1664 14.2922 19.8331C16.0267 19.1052 17.993 18.625 20.0247 19.2052C20.4565 19.3285 20.9254 19.4503 21.4034 19.5746C22.3326 19.8161 23.2964 20.0666 24.0907 20.3543C24.7129 20.5797 25.3272 20.8581 25.8308 21.2323C26.3433 21.613 26.7933 22.1333 26.9702 22.8409C27.1338 23.4952 27.0952 24.1179 26.9302 24.6721C27.6838 24.1466 28.6488 23.3877 29.9165 22.3908L29.9571 22.3589C30.4682 21.957 31.0579 21.7078 31.6667 21.6106V15.6665C31.6667 14.5619 30.7712 13.6665 29.6667 13.6665H14C12.8954 13.6665 12 14.5619 12 15.6665ZM31.6501 12.1921C31.0655 11.8577 30.3884 11.6665 29.6667 11.6665H22.833V7H28.1885C28.9885 7 29.7116 7.47679 30.0268 8.21216L31.505 11.6613C31.5777 11.8311 31.6265 12.0097 31.6501 12.1921ZM9 23.1885C8.99971 23.1745 8.99971 23.1606 9 23.1467V22.1665C9 21.6142 8.55228 21.1665 8 21.1665H5C4.44772 21.1665 4 21.6142 4 22.1665V31.1665C4 31.7188 4.44772 32.1665 5 32.1665H8C8.54701 32.1665 8.99143 31.7273 8.99988 31.1823L8.99977 31.1635L9 31.1456V23.1885ZM12.1496 23.1524C11.7661 23.3634 11.3799 23.5759 11 23.7765V30.3724C12.4556 30.6925 14.726 31.1168 16.7553 31.496C17.9861 31.7259 19.1281 31.9393 19.946 32.1029C20.2456 32.1628 20.7764 32.2393 21.341 32.2613C21.9273 32.2843 22.4412 32.2434 22.767 32.1348C23.4413 31.91 24.4176 31.6931 25.3206 31.4925L25.3663 31.4823C26.3257 31.2691 27.2027 31.0729 27.767 30.8848C27.8951 30.8421 28.1929 30.6929 28.6559 30.4064C29.094 30.1352 29.6158 29.7819 30.166 29.3862C31.2352 28.6173 32.3712 27.7177 33.1645 26.9992L33.6607 26.3045C34.2013 25.5477 34.0484 24.4992 33.3143 23.9282C32.6882 23.4413 31.8137 23.4433 31.1934 23.9311L31.0982 24.0059C29.8192 25.0117 28.7811 25.8281 27.9586 26.3926C27.5356 26.6829 27.1393 26.928 26.7727 27.1031C26.4178 27.2727 26.0097 27.4168 25.5832 27.4168C24.9945 27.4168 23.4464 27.214 22.1522 27.0319C21.4816 26.9376 20.843 26.8433 20.3723 26.7727C20.1369 26.7373 19.9432 26.7079 19.8083 26.6872L19.5975 26.6548L19.7499 25.6667L19.5965 26.6547C19.0507 26.5699 18.677 26.0588 18.7617 25.5131C18.8464 24.9674 19.3575 24.5936 19.9033 24.6783L20.1107 24.7102C20.2441 24.7306 20.4358 24.7598 20.6691 24.7948C21.136 24.8649 21.7682 24.9582 22.4309 25.0514C22.8559 25.1112 23.2805 25.169 23.6764 25.2203C23.7779 25.1856 23.8868 25.1668 24 25.1668C24.0828 25.1668 24.4231 25.056 24.7348 24.6454C25.0137 24.2781 25.1517 23.8131 25.0299 23.3259C24.9985 23.2002 24.9069 23.0374 24.6381 22.8377C24.3604 22.6314 23.9539 22.432 23.4094 22.2347C22.6948 21.9758 21.9025 21.7708 21.0428 21.5484C20.5425 21.419 20.0194 21.2836 19.4755 21.1283C18.0802 20.7299 16.6238 21.0236 15.0661 21.6773C14.2915 22.0024 13.5209 22.4038 12.7449 22.8261C12.548 22.9332 12.3492 23.0426 12.1496 23.1524Z" fill="#212121"/>
</svg>
