<svg width="40" height="40" viewBox="0 0 40 40" fill="none" xmlns="http://www.w3.org/2000/svg">
<path d="M15.5 18C16.3284 18 17 17.3284 17 16.5C17 15.6716 16.3284 15 15.5 15C14.6716 15 14 15.6716 14 16.5C14 17.3284 14.6716 18 15.5 18Z" fill="#212121"/>
<path d="M26 16.5C26 17.3284 25.3284 18 24.5 18C23.6716 18 23 17.3284 23 16.5C23 15.6716 23.6716 15 24.5 15C25.3284 15 26 15.6716 26 16.5Z" fill="#212121"/>
<path d="M15.6824 26.731C18.1552 24.4228 21.8447 24.4232 24.3177 26.7311C24.7215 27.1079 25.3543 27.086 25.7311 26.6823C26.1079 26.2785 26.086 25.6457 25.6823 25.2689C22.4411 22.2442 17.5591 22.2432 14.3176 25.269C13.9139 25.6459 13.8921 26.2786 14.269 26.6824C14.6459 27.0861 15.2786 27.1079 15.6824 26.731Z" fill="#212121"/>
<path fill-rule="evenodd" clip-rule="evenodd" d="M20 4C11.1634 4 4 11.1634 4 20C4 28.8366 11.1634 36 20 36C28.8366 36 36 28.8366 36 20C36 11.1634 28.8366 4 20 4ZM6 20C6 12.268 12.268 6 20 6C27.732 6 34 12.268 34 20C34 27.732 27.732 34 20 34C12.268 34 6 27.732 6 20Z" fill="#212121"/>
</svg>
