<svg width="40" height="40" viewBox="0 0 40 40" fill="none" xmlns="http://www.w3.org/2000/svg">
<path fill-rule="evenodd" clip-rule="evenodd" d="M4 9C4 6.23858 6.23858 4 9 4H14C16.7614 4 19 6.23858 19 9V14C19 16.7614 16.7614 19 14 19H9C6.23858 19 4 16.7614 4 14V9ZM9 6C7.34315 6 6 7.34315 6 9V14C6 15.6569 7.34315 17 9 17H14C15.6569 17 17 15.6569 17 14V9C17 7.34315 15.6569 6 14 6H9Z" fill="#212121"/>
<path fill-rule="evenodd" clip-rule="evenodd" d="M4 26C4 23.2386 6.23858 21 9 21H14C16.7614 21 19 23.2386 19 26V31C19 33.7614 16.7614 36 14 36H9C6.23858 36 4 33.7614 4 31V26ZM9 23C7.34315 23 6 24.3431 6 26V31C6 32.6569 7.34315 34 9 34H14C15.6569 34 17 32.6569 17 31V26C17 24.3431 15.6569 23 14 23H9Z" fill="#212121"/>
<path fill-rule="evenodd" clip-rule="evenodd" d="M21 9C21 6.23858 23.2386 4 26 4H31C33.7614 4 36 6.23858 36 9V14C36 16.7614 33.7614 19 31 19H26C23.2386 19 21 16.7614 21 14V9ZM26 6C24.3431 6 23 7.34315 23 9V14C23 15.6569 24.3431 17 26 17H31C32.6569 17 34 15.6569 34 14V9C34 7.34315 32.6569 6 31 6H26Z" fill="#212121"/>
<path fill-rule="evenodd" clip-rule="evenodd" d="M21 26C21 23.2386 23.2386 21 26 21H31C33.7614 21 36 23.2386 36 26V31C36 33.7614 33.7614 36 31 36H26C23.2386 36 21 33.7614 21 31V26ZM26 23C24.3431 23 23 24.3431 23 26V31C23 32.6569 24.3431 34 26 34H31C32.6569 34 34 32.6569 34 31V26C34 24.3431 32.6569 23 31 23H26Z" fill="#212121"/>
</svg>
