<svg width="40" height="40" viewBox="0 0 40 40" fill="none" xmlns="http://www.w3.org/2000/svg">
<path fill-rule="evenodd" clip-rule="evenodd" d="M17.63 20.7775C18.2934 20.2888 19.113 20 20.0001 20C22.2093 20 24.0001 21.7909 24.0001 24C24.0001 26.2091 22.2093 28 20.0001 28C17.791 28 16.0001 26.2091 16.0001 24C16.0001 23.4034 16.1307 22.8374 16.3649 22.3288L12.3358 18.7474C11.923 18.3805 11.8858 17.7484 12.2527 17.3356C12.6197 16.9228 13.2517 16.8857 13.6645 17.2526L17.63 20.7775ZM20.0001 22C18.8956 22 18.0001 22.8954 18.0001 24C18.0001 25.1046 18.8956 26 20.0001 26C21.1047 26 22.0001 25.1046 22.0001 24C22.0001 22.8954 21.1047 22 20.0001 22Z" fill="#212121"/>
<path fill-rule="evenodd" clip-rule="evenodd" d="M15.0001 5.5C15.0001 4.11929 16.1194 3 17.5001 3H22.5001C23.8808 3 25.0001 4.11929 25.0001 5.5C25.0001 6.88071 23.8808 8 22.5001 8H21.0001V10.0352C28.2654 10.5479 34.0001 16.6042 34.0001 24C34.0001 31.732 27.7321 38 20.0001 38C12.2682 38 6.00014 31.732 6.00014 24C6.00014 16.6042 11.7349 10.5479 19.0001 10.0352V8H17.5001C16.1194 8 15.0001 6.88071 15.0001 5.5ZM22.5001 6C22.7763 6 23.0001 5.77614 23.0001 5.5C23.0001 5.22386 22.7763 5 22.5001 5H17.5001C17.224 5 17.0001 5.22386 17.0001 5.5C17.0001 5.77614 17.224 6 17.5001 6H22.5001ZM20.0001 12C13.3727 12 8.00014 17.3726 8.00014 24C8.00014 30.6274 13.3727 36 20.0001 36C26.6276 36 32.0001 30.6274 32.0001 24C32.0001 17.3726 26.6276 12 20.0001 12Z" fill="#212121"/>
<path d="M29.4944 8.13055C32.1066 9.64968 34.2999 11.9024 35.8511 14.4827C36.1368 14.958 35.9876 15.575 35.5177 15.8608C35.0478 16.1467 34.4353 15.9931 34.1496 15.5178C32.759 13.2047 30.8023 11.2047 28.5061 9.86927C28.0287 9.59163 27.8629 8.97732 28.1358 8.49719C28.4087 8.01705 29.017 7.8529 29.4944 8.13055Z" fill="#212121"/>
<path d="M4.14902 14.4823C5.70027 11.9019 7.89358 9.64965 10.5057 8.13055C10.9831 7.85291 11.5914 8.01706 11.8643 8.49719C12.1373 8.97733 11.9715 9.59163 11.4941 9.86928C9.19772 11.2047 7.24104 13.2044 5.85054 15.5174C5.56479 15.9927 4.95225 16.1463 4.48239 15.8604C4.01253 15.5746 3.86328 14.9576 4.14902 14.4823Z" fill="#212121"/>
</svg>
