<svg width="40" height="40" viewBox="0 0 40 40" fill="none" xmlns="http://www.w3.org/2000/svg">
<path fill-rule="evenodd" clip-rule="evenodd" d="M10 17C10 15.8954 10.8954 15 12 15H14C14.7021 15 15.3198 15.3618 15.6766 15.9092L22.293 9.29289C22.6835 8.90237 23.3167 8.90237 23.7072 9.29289L24.6879 10.2736C25.601 11.1867 25.8274 12.5816 25.2499 13.7365L24.6182 15H27.2252C29.2728 15 30.7187 17.0061 30.0712 18.9486L28.6326 23.2649C28.0881 24.8983 26.5596 26 24.8378 26H19.6159C19.0742 26 18.5381 25.89 18.0402 25.6766L15.8581 24.7414C15.5635 25.4789 14.8426 26 14 26H12C10.8954 26 10 25.1046 10 24V17ZM16 22.6263L18.8281 23.8383C19.077 23.945 19.345 24 19.6159 24H24.8378C25.6987 24 26.463 23.4491 26.7352 22.6324L28.1739 18.3162C28.3897 17.6687 27.9077 17 27.2252 17H23.0001C22.6535 17 22.3317 16.8205 22.1495 16.5257C21.9673 16.2309 21.9507 15.8628 22.1057 15.5528L23.461 12.8421C23.6535 12.4571 23.5781 11.9922 23.2737 11.6878L23.0001 11.4142L16.2071 18.2071C16.1438 18.2705 16.074 18.3235 16 18.3663V22.6263ZM14 17H12V24H14V17Z" fill="#212121"/>
<path fill-rule="evenodd" clip-rule="evenodd" d="M4 10C4 7.23858 6.23858 5 9 5H31C33.7614 5 36 7.23858 36 10V28C36 30.7614 33.7614 33 31 33H24.0744L22.5913 35.5423C21.4337 37.5269 18.5663 37.5269 17.4087 35.5423L15.9256 33H9C6.23858 33 4 30.7614 4 28V10ZM9 7C7.34315 7 6 8.34315 6 10V28C6 29.6569 7.34315 31 9 31H15.9256C16.637 31 17.2948 31.3778 17.6532 31.9923L19.1362 34.5346C19.5221 35.1961 20.4779 35.1961 20.8638 34.5346L22.3468 31.9923C22.7052 31.3778 23.363 31 24.0744 31H31C32.6569 31 34 29.6569 34 28V10C34 8.34315 32.6569 7 31 7H9Z" fill="#212121"/>
</svg>
