<svg width="64" height="64" viewBox="0 0 64 64" fill="none" xmlns="http://www.w3.org/2000/svg">
<path fill-rule="evenodd" clip-rule="evenodd" d="M54.8267 19.1999H52.2666V11.9468H45.0135V9.38674H52.2666V2.13328H54.8267V9.38674H62.0801V11.9468H54.8267V19.1999ZM36.2713 27.2245C36.9268 27.9683 38.1374 28.7106 39.9049 29.4548C41.4936 28.779 42.6181 28.0534 43.279 27.2761C43.9403 26.4985 44.2711 25.5918 44.2711 24.5553C44.2711 23.4189 43.8687 22.5147 43.0631 21.8444C42.2578 21.1743 41.149 20.8399 39.7388 20.8399C38.349 20.8399 37.2605 21.1773 36.4716 21.8527C35.6831 22.5282 35.2883 23.4298 35.2883 24.5553C35.2883 25.5918 35.6155 26.4821 36.2713 27.2245ZM35.6213 34.2442C34.8775 35.1163 34.5052 36.1608 34.5052 37.3768C34.5052 38.7285 34.9683 39.7813 35.8961 40.5364C36.8235 41.2915 38.1261 41.6674 39.8046 41.6674C41.4609 41.6674 42.7486 41.2748 43.6705 40.4862C44.5929 39.6977 45.0549 38.6169 45.0549 37.242C45.0549 36.1499 44.6219 35.1785 43.7545 34.3289C42.8875 33.4778 41.3769 32.6533 39.2218 31.8535C37.5659 32.5737 36.3658 33.3706 35.6213 34.2442ZM33.572 27.8581C32.9056 26.8398 32.5715 25.699 32.5715 24.4368C32.5715 22.6467 33.2241 21.2191 34.5299 20.1546C35.8354 19.0905 37.5822 18.5579 39.7715 18.5579C41.9942 18.5579 43.7545 19.0818 45.0549 20.1295C46.355 21.1773 47.005 22.6245 47.005 24.4717C47.005 25.6881 46.6327 26.7966 45.8878 27.7996C45.144 28.8015 43.9552 29.7137 42.3214 30.5356C44.2987 31.4925 45.7049 32.4984 46.5378 33.5516C47.3722 34.6048 47.7884 35.8238 47.7884 37.2085C47.7884 39.2589 47.082 40.8941 45.6719 42.1164C44.2602 43.3379 42.3265 43.9494 39.8722 43.9494C37.2718 43.9494 35.2719 43.3713 33.8715 42.2178C32.4712 41.0628 31.7713 39.4276 31.7713 37.3099C31.7713 34.4837 33.4716 32.281 36.8715 30.7043C35.3381 29.8267 34.2384 28.8779 33.572 27.8581ZM32 64C14.327 64 0 49.673 0 32C0 14.327 14.327 0 32 0C35.7307 0 39.3127 0.638386 42.6417 1.81227C42.6668 2.38013 42.6668 4.4887 42.6668 4.47997C39.3473 3.18284 35.7787 2.56009 32 2.56009C15.7408 2.56009 2.56009 15.7408 2.56009 32C2.56009 48.2592 15.7408 61.4399 32 61.4399C48.2592 61.4399 61.4399 48.2592 61.4399 32C61.4399 28.2311 60.7317 24.6277 59.4411 21.3154C60.8528 21.3332 61.93 21.3332 62.1779 21.3299C63.358 24.6669 64 28.2584 64 32C64 49.673 49.673 64 32 64ZM16.8289 25.8899L15.3627 23.9649L21.8124 18.9135H24.1449V43.6109H21.4455V26.0084C21.4455 24.544 21.4895 23.1593 21.579 21.8527C21.3452 22.0894 21.0842 22.3377 20.7955 22.5969C20.5069 22.8557 19.1847 23.9536 16.8289 25.8899Z" fill="black"/>
</svg>
